G04 #@! TF.FileFunction,Soldermask,Bot*
%FSLAX46Y46*%
G04 Gerber Fmt 4.6, Leading zero omitted, Abs format (unit mm)*
G04 Created by KiCad (PCBNEW 4.0.6) date 03/06/18 07:35:55*
%MOMM*%
%LPD*%
G01*
G04 APERTURE LIST*
%ADD10C,0.100000*%
%ADD11R,2.940000X2.940000*%
%ADD12C,2.940000*%
%ADD13R,2.100000X2.100000*%
%ADD14O,2.100000X2.100000*%
%ADD15C,1.598880*%
%ADD16R,2.000000X2.000000*%
%ADD17O,2.000000X2.000000*%
%ADD18C,3.956000*%
%ADD19O,3.900000X3.900000*%
%ADD20R,2.200000X2.200000*%
%ADD21O,2.200000X2.200000*%
%ADD22C,3.400000*%
%ADD23C,1.400000*%
%ADD24C,1.700000*%
G04 APERTURE END LIST*
D10*
D11*
X141986000Y-80010000D03*
D12*
X147066000Y-80010000D03*
D13*
X86614000Y-53086000D03*
D14*
X86614000Y-50546000D03*
X89154000Y-53086000D03*
X89154000Y-50546000D03*
X91694000Y-53086000D03*
X91694000Y-50546000D03*
X94234000Y-53086000D03*
X94234000Y-50546000D03*
X96774000Y-53086000D03*
X96774000Y-50546000D03*
X99314000Y-53086000D03*
X99314000Y-50546000D03*
X101854000Y-53086000D03*
X101854000Y-50546000D03*
X104394000Y-53086000D03*
X104394000Y-50546000D03*
X106934000Y-53086000D03*
X106934000Y-50546000D03*
X109474000Y-53086000D03*
X109474000Y-50546000D03*
X112014000Y-53086000D03*
X112014000Y-50546000D03*
X114554000Y-53086000D03*
X114554000Y-50546000D03*
X117094000Y-53086000D03*
X117094000Y-50546000D03*
X119634000Y-53086000D03*
X119634000Y-50546000D03*
X122174000Y-53086000D03*
X122174000Y-50546000D03*
X124714000Y-53086000D03*
X124714000Y-50546000D03*
X127254000Y-53086000D03*
X127254000Y-50546000D03*
X129794000Y-53086000D03*
X129794000Y-50546000D03*
X132334000Y-53086000D03*
X132334000Y-50546000D03*
X134874000Y-53086000D03*
X134874000Y-50546000D03*
D11*
X227076000Y-65786000D03*
D12*
X227076000Y-60706000D03*
D11*
X74422000Y-50546000D03*
D12*
X74422000Y-55626000D03*
D11*
X227076000Y-45466000D03*
D12*
X227076000Y-40386000D03*
D11*
X154432000Y-80010000D03*
D12*
X159512000Y-80010000D03*
D11*
X74422000Y-60706000D03*
D12*
X74422000Y-65786000D03*
D11*
X227076000Y-55626000D03*
D12*
X227076000Y-50546000D03*
D11*
X74422000Y-40386000D03*
D12*
X74422000Y-45466000D03*
D15*
X167949880Y-37388800D03*
X166949120Y-39390320D03*
X165950900Y-37388800D03*
X164950140Y-39390320D03*
X163949380Y-37388800D03*
X162951160Y-39390320D03*
X161950400Y-37388800D03*
X166949120Y-41889680D03*
X164950140Y-41889680D03*
X162951160Y-41889680D03*
X167949880Y-43891200D03*
X165950900Y-43891200D03*
X163949380Y-43891200D03*
X161950400Y-43891200D03*
X170949620Y-39390320D03*
X172951140Y-39390320D03*
X174950120Y-39390320D03*
X176949100Y-39390320D03*
X178950620Y-39390320D03*
X180949600Y-39390320D03*
X179948840Y-37388800D03*
X177949860Y-37388800D03*
X175950880Y-37388800D03*
X173949360Y-37388800D03*
X171950380Y-37388800D03*
X180949600Y-41889680D03*
X179948840Y-43891200D03*
X178950620Y-41889680D03*
X177949860Y-43891200D03*
X176949100Y-41889680D03*
X175950880Y-43891200D03*
X174950120Y-41889680D03*
X173949360Y-43891200D03*
X172951140Y-41889680D03*
X171950380Y-43891200D03*
X170949620Y-41889680D03*
D16*
X192278000Y-38100000D03*
D17*
X199898000Y-48260000D03*
X192278000Y-40640000D03*
X199898000Y-45720000D03*
X192278000Y-43180000D03*
X199898000Y-43180000D03*
X192278000Y-45720000D03*
X199898000Y-40640000D03*
X192278000Y-48260000D03*
X199898000Y-38100000D03*
D16*
X146812000Y-60960000D03*
D17*
X154432000Y-66040000D03*
X146812000Y-63500000D03*
X154432000Y-63500000D03*
X146812000Y-66040000D03*
X154432000Y-60960000D03*
D16*
X154432000Y-46736000D03*
D17*
X146812000Y-39116000D03*
X154432000Y-44196000D03*
X146812000Y-41656000D03*
X154432000Y-41656000D03*
X146812000Y-44196000D03*
X154432000Y-39116000D03*
X146812000Y-46736000D03*
D18*
X193548000Y-79375000D03*
D19*
X193548000Y-79398000D03*
D20*
X196088000Y-62738000D03*
D21*
X193548000Y-62738000D03*
X191008000Y-62738000D03*
D22*
X69836000Y-32082000D03*
X231636000Y-32082000D03*
D13*
X86614000Y-43688000D03*
D14*
X86614000Y-41148000D03*
X89154000Y-43688000D03*
X89154000Y-41148000D03*
X91694000Y-43688000D03*
X91694000Y-41148000D03*
X94234000Y-43688000D03*
X94234000Y-41148000D03*
X96774000Y-43688000D03*
X96774000Y-41148000D03*
X99314000Y-43688000D03*
X99314000Y-41148000D03*
X101854000Y-43688000D03*
X101854000Y-41148000D03*
X104394000Y-43688000D03*
X104394000Y-41148000D03*
X106934000Y-43688000D03*
X106934000Y-41148000D03*
X109474000Y-43688000D03*
X109474000Y-41148000D03*
X112014000Y-43688000D03*
X112014000Y-41148000D03*
X114554000Y-43688000D03*
X114554000Y-41148000D03*
X117094000Y-43688000D03*
X117094000Y-41148000D03*
X119634000Y-43688000D03*
X119634000Y-41148000D03*
X122174000Y-43688000D03*
X122174000Y-41148000D03*
X124714000Y-43688000D03*
X124714000Y-41148000D03*
X127254000Y-43688000D03*
X127254000Y-41148000D03*
X129794000Y-43688000D03*
X129794000Y-41148000D03*
X132334000Y-43688000D03*
X132334000Y-41148000D03*
X134874000Y-43688000D03*
X134874000Y-41148000D03*
D22*
X81744000Y-51816000D03*
X139744000Y-51816000D03*
D23*
X121214000Y-79248000D03*
D24*
X128714000Y-79248000D03*
D22*
X231661000Y-88607000D03*
X69861000Y-88607000D03*
M02*
