G04 #@! TF.FileFunction,Copper,L2,Bot,Signal*
%FSLAX46Y46*%
G04 Gerber Fmt 4.6, Leading zero omitted, Abs format (unit mm)*
G04 Created by KiCad (PCBNEW 4.0.6) date 03/06/18 07:35:55*
%MOMM*%
%LPD*%
G01*
G04 APERTURE LIST*
%ADD10C,0.100000*%
%ADD11R,2.540000X2.540000*%
%ADD12C,2.540000*%
%ADD13R,1.700000X1.700000*%
%ADD14O,1.700000X1.700000*%
%ADD15C,1.198880*%
%ADD16R,1.600000X1.600000*%
%ADD17O,1.600000X1.600000*%
%ADD18R,1.800000X1.800000*%
%ADD19O,1.800000X1.800000*%
%ADD20C,0.600000*%
%ADD21C,0.304800*%
%ADD22C,0.508000*%
%ADD23C,1.778000*%
%ADD24C,0.254000*%
G04 APERTURE END LIST*
D10*
D11*
X141986000Y-80010000D03*
D12*
X147066000Y-80010000D03*
D13*
X86614000Y-53086000D03*
D14*
X86614000Y-50546000D03*
X89154000Y-53086000D03*
X89154000Y-50546000D03*
X91694000Y-53086000D03*
X91694000Y-50546000D03*
X94234000Y-53086000D03*
X94234000Y-50546000D03*
X96774000Y-53086000D03*
X96774000Y-50546000D03*
X99314000Y-53086000D03*
X99314000Y-50546000D03*
X101854000Y-53086000D03*
X101854000Y-50546000D03*
X104394000Y-53086000D03*
X104394000Y-50546000D03*
X106934000Y-53086000D03*
X106934000Y-50546000D03*
X109474000Y-53086000D03*
X109474000Y-50546000D03*
X112014000Y-53086000D03*
X112014000Y-50546000D03*
X114554000Y-53086000D03*
X114554000Y-50546000D03*
X117094000Y-53086000D03*
X117094000Y-50546000D03*
X119634000Y-53086000D03*
X119634000Y-50546000D03*
X122174000Y-53086000D03*
X122174000Y-50546000D03*
X124714000Y-53086000D03*
X124714000Y-50546000D03*
X127254000Y-53086000D03*
X127254000Y-50546000D03*
X129794000Y-53086000D03*
X129794000Y-50546000D03*
X132334000Y-53086000D03*
X132334000Y-50546000D03*
X134874000Y-53086000D03*
X134874000Y-50546000D03*
D11*
X227076000Y-65786000D03*
D12*
X227076000Y-60706000D03*
D11*
X74422000Y-50546000D03*
D12*
X74422000Y-55626000D03*
D11*
X227076000Y-45466000D03*
D12*
X227076000Y-40386000D03*
D11*
X154432000Y-80010000D03*
D12*
X159512000Y-80010000D03*
D11*
X74422000Y-60706000D03*
D12*
X74422000Y-65786000D03*
D11*
X227076000Y-55626000D03*
D12*
X227076000Y-50546000D03*
D11*
X74422000Y-40386000D03*
D12*
X74422000Y-45466000D03*
D15*
X167949880Y-37388800D03*
X166949120Y-39390320D03*
X165950900Y-37388800D03*
X164950140Y-39390320D03*
X163949380Y-37388800D03*
X162951160Y-39390320D03*
X161950400Y-37388800D03*
X166949120Y-41889680D03*
X164950140Y-41889680D03*
X162951160Y-41889680D03*
X167949880Y-43891200D03*
X165950900Y-43891200D03*
X163949380Y-43891200D03*
X161950400Y-43891200D03*
X170949620Y-39390320D03*
X172951140Y-39390320D03*
X174950120Y-39390320D03*
X176949100Y-39390320D03*
X178950620Y-39390320D03*
X180949600Y-39390320D03*
X179948840Y-37388800D03*
X177949860Y-37388800D03*
X175950880Y-37388800D03*
X173949360Y-37388800D03*
X171950380Y-37388800D03*
X180949600Y-41889680D03*
X179948840Y-43891200D03*
X178950620Y-41889680D03*
X177949860Y-43891200D03*
X176949100Y-41889680D03*
X175950880Y-43891200D03*
X174950120Y-41889680D03*
X173949360Y-43891200D03*
X172951140Y-41889680D03*
X171950380Y-43891200D03*
X170949620Y-41889680D03*
D16*
X192278000Y-38100000D03*
D17*
X199898000Y-48260000D03*
X192278000Y-40640000D03*
X199898000Y-45720000D03*
X192278000Y-43180000D03*
X199898000Y-43180000D03*
X192278000Y-45720000D03*
X199898000Y-40640000D03*
X192278000Y-48260000D03*
X199898000Y-38100000D03*
D16*
X146812000Y-60960000D03*
D17*
X154432000Y-66040000D03*
X146812000Y-63500000D03*
X154432000Y-63500000D03*
X146812000Y-66040000D03*
X154432000Y-60960000D03*
D16*
X154432000Y-46736000D03*
D17*
X146812000Y-39116000D03*
X154432000Y-44196000D03*
X146812000Y-41656000D03*
X154432000Y-41656000D03*
X146812000Y-44196000D03*
X154432000Y-39116000D03*
X146812000Y-46736000D03*
D18*
X196088000Y-62738000D03*
D19*
X193548000Y-62738000D03*
X191008000Y-62738000D03*
D13*
X86614000Y-43688000D03*
D14*
X86614000Y-41148000D03*
X89154000Y-43688000D03*
X89154000Y-41148000D03*
X91694000Y-43688000D03*
X91694000Y-41148000D03*
X94234000Y-43688000D03*
X94234000Y-41148000D03*
X96774000Y-43688000D03*
X96774000Y-41148000D03*
X99314000Y-43688000D03*
X99314000Y-41148000D03*
X101854000Y-43688000D03*
X101854000Y-41148000D03*
X104394000Y-43688000D03*
X104394000Y-41148000D03*
X106934000Y-43688000D03*
X106934000Y-41148000D03*
X109474000Y-43688000D03*
X109474000Y-41148000D03*
X112014000Y-43688000D03*
X112014000Y-41148000D03*
X114554000Y-43688000D03*
X114554000Y-41148000D03*
X117094000Y-43688000D03*
X117094000Y-41148000D03*
X119634000Y-43688000D03*
X119634000Y-41148000D03*
X122174000Y-43688000D03*
X122174000Y-41148000D03*
X124714000Y-43688000D03*
X124714000Y-41148000D03*
X127254000Y-43688000D03*
X127254000Y-41148000D03*
X129794000Y-43688000D03*
X129794000Y-41148000D03*
X132334000Y-43688000D03*
X132334000Y-41148000D03*
X134874000Y-43688000D03*
X134874000Y-41148000D03*
D20*
X202184000Y-83058000D03*
X199644000Y-84328000D03*
X202184000Y-80772000D03*
X199644000Y-82042000D03*
X199644000Y-79756000D03*
X202184000Y-78486000D03*
X202184000Y-76200000D03*
X202184000Y-73914000D03*
X199644000Y-77470000D03*
X199644000Y-75184000D03*
X199644000Y-72898000D03*
X202184000Y-71628000D03*
X199644000Y-70612000D03*
X194564000Y-84582000D03*
X197104000Y-83058000D03*
X197104000Y-80772000D03*
X192024000Y-83058000D03*
X197104000Y-78486000D03*
X197104000Y-76200000D03*
X197104000Y-73914000D03*
X197104000Y-71628000D03*
X194564000Y-75184000D03*
X194564000Y-72898000D03*
X192024000Y-76200000D03*
X192024000Y-73914000D03*
X194564000Y-70612000D03*
X192024000Y-71628000D03*
X202184000Y-69342000D03*
X199644000Y-68326000D03*
X197104000Y-69342000D03*
X194564000Y-68326000D03*
X192024000Y-69342000D03*
X189484000Y-84582000D03*
X189484000Y-82042000D03*
X189484000Y-79756000D03*
X189484000Y-77470000D03*
X189484000Y-75184000D03*
X189484000Y-72898000D03*
X189484000Y-70612000D03*
X189484000Y-68326000D03*
X186944000Y-83058000D03*
X186944000Y-80772000D03*
X186944000Y-78486000D03*
X186944000Y-76200000D03*
X186944000Y-73914000D03*
X186944000Y-71628000D03*
X186944000Y-69342000D03*
X184404000Y-84582000D03*
X184404000Y-82296000D03*
X184404000Y-80010000D03*
X184404000Y-77470000D03*
X184404000Y-75184000D03*
X184404000Y-72898000D03*
X184404000Y-70612000D03*
X184404000Y-68326000D03*
X201676000Y-51054000D03*
X188214000Y-51054000D03*
X185674000Y-49276000D03*
X98298000Y-58420000D03*
X227584000Y-73660000D03*
X156972000Y-71374000D03*
X98298000Y-65024000D03*
X96774000Y-58928000D03*
X223012000Y-79756000D03*
X93218000Y-55372000D03*
X145796000Y-54610000D03*
X178308000Y-58420000D03*
X175768000Y-49530000D03*
X175768000Y-54610000D03*
X106934000Y-69850000D03*
X109728000Y-69850000D03*
X171704000Y-52578000D03*
X93218000Y-56896000D03*
X98298000Y-56896000D03*
X167386000Y-51308000D03*
X153670000Y-51816000D03*
X155194000Y-51816000D03*
X155194000Y-50292000D03*
X153670000Y-50292000D03*
X159004000Y-40894000D03*
X159766000Y-53848000D03*
X181610000Y-53848000D03*
X206248000Y-48260000D03*
X206248000Y-45720000D03*
X206248000Y-43180000D03*
X206248000Y-40640000D03*
X206248000Y-38100000D03*
D21*
X180949600Y-39390320D02*
X180947060Y-39390320D01*
X180947060Y-39390320D02*
X179948840Y-38392100D01*
X179948840Y-37388800D02*
X179948840Y-38392100D01*
X179948840Y-38392100D02*
X178950620Y-39390320D01*
X178950620Y-39390320D02*
X177949860Y-38389560D01*
X177949860Y-38389560D02*
X177835560Y-38389560D01*
X177800000Y-38354000D02*
X177949860Y-38354000D01*
X177835560Y-38389560D02*
X177800000Y-38354000D01*
X177949860Y-37388800D02*
X177949860Y-38354000D01*
X177949860Y-38354000D02*
X177949860Y-38389560D01*
X177949860Y-38389560D02*
X176949100Y-39390320D01*
X180949600Y-39390320D02*
X178950620Y-39390320D01*
X176949100Y-39390320D02*
X178950620Y-39390320D01*
X179948840Y-37388800D02*
X177949860Y-37388800D01*
X177949860Y-37388800D02*
X175950880Y-37388800D01*
X174950120Y-39390320D02*
X174952660Y-39390320D01*
X174952660Y-39390320D02*
X175950880Y-38392100D01*
X175950880Y-37388800D02*
X175950880Y-38392100D01*
X175950880Y-38392100D02*
X176949100Y-39390320D01*
X174950120Y-39390320D02*
X176949100Y-39390320D01*
X201676000Y-51054000D02*
X188214000Y-51054000D01*
X185674000Y-49276000D02*
X185674000Y-40132000D01*
X185674000Y-40132000D02*
X185674000Y-38608000D01*
X185674000Y-38608000D02*
X184454800Y-37388800D01*
X179948840Y-37388800D02*
X184454800Y-37388800D01*
X96774000Y-53086000D02*
X96774000Y-56896000D01*
X96774000Y-56896000D02*
X98298000Y-58420000D01*
D22*
X154432000Y-44196000D02*
X161645600Y-44196000D01*
X161645600Y-44196000D02*
X161950400Y-43891200D01*
D21*
X127254000Y-41148000D02*
X128270000Y-41148000D01*
X134874000Y-42672000D02*
X134874000Y-43688000D01*
X134620000Y-42418000D02*
X134874000Y-42672000D01*
X128778000Y-42418000D02*
X134620000Y-42418000D01*
X128524000Y-42164000D02*
X128778000Y-42418000D01*
X128524000Y-41402000D02*
X128524000Y-42164000D01*
X128270000Y-41148000D02*
X128524000Y-41402000D01*
X122174000Y-41148000D02*
X121158000Y-41148000D01*
X117348000Y-42418000D02*
X117094000Y-42672000D01*
X120650000Y-42418000D02*
X117348000Y-42418000D01*
X120904000Y-42164000D02*
X120650000Y-42418000D01*
X120904000Y-41402000D02*
X120904000Y-42164000D01*
X121158000Y-41148000D02*
X120904000Y-41402000D01*
X109474000Y-41148000D02*
X110490000Y-41148000D01*
X110490000Y-41148000D02*
X110744000Y-41402000D01*
X110744000Y-41402000D02*
X110744000Y-42164000D01*
X110744000Y-42164000D02*
X110998000Y-42418000D01*
X110998000Y-42418000D02*
X116840000Y-42418000D01*
X116840000Y-42418000D02*
X117094000Y-42672000D01*
X117094000Y-42672000D02*
X117094000Y-43688000D01*
X101854000Y-41148000D02*
X100838000Y-41148000D01*
X97028000Y-42418000D02*
X96774000Y-42672000D01*
X100330000Y-42418000D02*
X97028000Y-42418000D01*
X100584000Y-42164000D02*
X100330000Y-42418000D01*
X100584000Y-41402000D02*
X100584000Y-42164000D01*
X100838000Y-41148000D02*
X100584000Y-41402000D01*
X91694000Y-41148000D02*
X92710000Y-41148000D01*
X92710000Y-41148000D02*
X92964000Y-41402000D01*
X92964000Y-41402000D02*
X92964000Y-42164000D01*
X92964000Y-42164000D02*
X93218000Y-42418000D01*
X93218000Y-42418000D02*
X96520000Y-42418000D01*
X96520000Y-42418000D02*
X96774000Y-42672000D01*
X96774000Y-42672000D02*
X96774000Y-43688000D01*
D23*
X227076000Y-66802000D02*
X227076000Y-73152000D01*
X227076000Y-73152000D02*
X227584000Y-73660000D01*
D21*
X134874000Y-43688000D02*
X135890000Y-43688000D01*
X135890000Y-43688000D02*
X136144000Y-43942000D01*
X136144000Y-43942000D02*
X136144000Y-52832000D01*
X136144000Y-52832000D02*
X135890000Y-53086000D01*
X135890000Y-53086000D02*
X134874000Y-53086000D01*
X117094000Y-53086000D02*
X118110000Y-53086000D01*
X118110000Y-53086000D02*
X118364000Y-52832000D01*
X118364000Y-52832000D02*
X118364000Y-43942000D01*
X118364000Y-43942000D02*
X118110000Y-43688000D01*
X118110000Y-43688000D02*
X117094000Y-43688000D01*
X96774000Y-53086000D02*
X97790000Y-53086000D01*
X97790000Y-53086000D02*
X98044000Y-52832000D01*
X98044000Y-52832000D02*
X98044000Y-43942000D01*
X98044000Y-43942000D02*
X97790000Y-43688000D01*
X97790000Y-43688000D02*
X96774000Y-43688000D01*
X106934000Y-53086000D02*
X107950000Y-53086000D01*
X107950000Y-43688000D02*
X106934000Y-43688000D01*
X108204000Y-43942000D02*
X107950000Y-43688000D01*
X108204000Y-52832000D02*
X108204000Y-43942000D01*
X107950000Y-53086000D02*
X108204000Y-52832000D01*
X98298000Y-65024000D02*
X98806000Y-65532000D01*
X109474000Y-71374000D02*
X156972000Y-71374000D01*
X108712000Y-70612000D02*
X109474000Y-71374000D01*
X108712000Y-66040000D02*
X108712000Y-70612000D01*
X108204000Y-65532000D02*
X108712000Y-66040000D01*
X98806000Y-65532000D02*
X108204000Y-65532000D01*
X96774000Y-64262000D02*
X96774000Y-58928000D01*
X97028000Y-64516000D02*
X96774000Y-64262000D01*
X97790000Y-64516000D02*
X97028000Y-64516000D01*
X97790000Y-64516000D02*
X98298000Y-65024000D01*
D23*
X191008000Y-62738000D02*
X191008000Y-60452000D01*
X221234000Y-79756000D02*
X223012000Y-79756000D01*
X220472000Y-78994000D02*
X221234000Y-79756000D01*
X220472000Y-61468000D02*
X220472000Y-78994000D01*
X218948000Y-59944000D02*
X220472000Y-61468000D01*
X191516000Y-59944000D02*
X218948000Y-59944000D01*
X191008000Y-60452000D02*
X191516000Y-59944000D01*
D21*
X86614000Y-54864000D02*
X86614000Y-53086000D01*
X87122000Y-55372000D02*
X86614000Y-54864000D01*
X93218000Y-55372000D02*
X87122000Y-55372000D01*
X86614000Y-43688000D02*
X87630000Y-43688000D01*
X87630000Y-43688000D02*
X87884000Y-43942000D01*
X87884000Y-43942000D02*
X87884000Y-52832000D01*
X87884000Y-52832000D02*
X87630000Y-53086000D01*
X87630000Y-53086000D02*
X86614000Y-53086000D01*
X171950380Y-43891200D02*
X167949880Y-43891200D01*
X89154000Y-43688000D02*
X90170000Y-43688000D01*
X90170000Y-43688000D02*
X90424000Y-43942000D01*
X90424000Y-43942000D02*
X90424000Y-52832000D01*
X90424000Y-52832000D02*
X90170000Y-53086000D01*
X90170000Y-53086000D02*
X89154000Y-53086000D01*
X91694000Y-53086000D02*
X92710000Y-53086000D01*
X92710000Y-43688000D02*
X91694000Y-43688000D01*
X92964000Y-43942000D02*
X92710000Y-43688000D01*
X92964000Y-52832000D02*
X92964000Y-43942000D01*
X92710000Y-53086000D02*
X92964000Y-52832000D01*
X94234000Y-43688000D02*
X95250000Y-43688000D01*
X95250000Y-53086000D02*
X94234000Y-53086000D01*
X95504000Y-52832000D02*
X95250000Y-53086000D01*
X95504000Y-43942000D02*
X95504000Y-52832000D01*
X95250000Y-43688000D02*
X95504000Y-43942000D01*
X154432000Y-54102000D02*
X153924000Y-54610000D01*
X153924000Y-54610000D02*
X145796000Y-54610000D01*
X154432000Y-46736000D02*
X154432000Y-54102000D01*
X99314000Y-43688000D02*
X100330000Y-43688000D01*
X100330000Y-53086000D02*
X99314000Y-53086000D01*
X100584000Y-52832000D02*
X100330000Y-53086000D01*
X100584000Y-52578000D02*
X100584000Y-52832000D01*
X100584000Y-43942000D02*
X100584000Y-52578000D01*
X100330000Y-43688000D02*
X100584000Y-43942000D01*
X101854000Y-53086000D02*
X102870000Y-53086000D01*
X102870000Y-43688000D02*
X101854000Y-43688000D01*
X103124000Y-43942000D02*
X102870000Y-43688000D01*
X103124000Y-52832000D02*
X103124000Y-43942000D01*
X102870000Y-53086000D02*
X103124000Y-52832000D01*
X104394000Y-43688000D02*
X105410000Y-43688000D01*
X105410000Y-53086000D02*
X104394000Y-53086000D01*
X105664000Y-52832000D02*
X105410000Y-53086000D01*
X105664000Y-43942000D02*
X105664000Y-52832000D01*
X105410000Y-43688000D02*
X105664000Y-43942000D01*
X109474000Y-43688000D02*
X110490000Y-43688000D01*
X110490000Y-53086000D02*
X109474000Y-53086000D01*
X110744000Y-52832000D02*
X110490000Y-53086000D01*
X110744000Y-43942000D02*
X110744000Y-52832000D01*
X110490000Y-43688000D02*
X110744000Y-43942000D01*
X112014000Y-53086000D02*
X113030000Y-53086000D01*
X113030000Y-43688000D02*
X112014000Y-43688000D01*
X113284000Y-43942000D02*
X113030000Y-43688000D01*
X113284000Y-52832000D02*
X113284000Y-43942000D01*
X113030000Y-53086000D02*
X113284000Y-52832000D01*
X114554000Y-43688000D02*
X115570000Y-43688000D01*
X115570000Y-53086000D02*
X114554000Y-53086000D01*
X115824000Y-52832000D02*
X115570000Y-53086000D01*
X115824000Y-43942000D02*
X115824000Y-52832000D01*
X115570000Y-43688000D02*
X115824000Y-43942000D01*
X119634000Y-43688000D02*
X120650000Y-43688000D01*
X120650000Y-53086000D02*
X119634000Y-53086000D01*
X120904000Y-52832000D02*
X120650000Y-53086000D01*
X120904000Y-43942000D02*
X120904000Y-52832000D01*
X120650000Y-43688000D02*
X120904000Y-43942000D01*
X122174000Y-53086000D02*
X123190000Y-53086000D01*
X123190000Y-43688000D02*
X122174000Y-43688000D01*
X123444000Y-43942000D02*
X123190000Y-43688000D01*
X123444000Y-52832000D02*
X123444000Y-43942000D01*
X123190000Y-53086000D02*
X123444000Y-52832000D01*
X124714000Y-43688000D02*
X125730000Y-43688000D01*
X125730000Y-53086000D02*
X124714000Y-53086000D01*
X125984000Y-52832000D02*
X125730000Y-53086000D01*
X125984000Y-43942000D02*
X125984000Y-52832000D01*
X125730000Y-43688000D02*
X125984000Y-43942000D01*
X127254000Y-53086000D02*
X128270000Y-53086000D01*
X128270000Y-43688000D02*
X127254000Y-43688000D01*
X128524000Y-43942000D02*
X128270000Y-43688000D01*
X128524000Y-52832000D02*
X128524000Y-43942000D01*
X128270000Y-53086000D02*
X128524000Y-52832000D01*
X129794000Y-43688000D02*
X130810000Y-43688000D01*
X130810000Y-53086000D02*
X129794000Y-53086000D01*
X131064000Y-52832000D02*
X130810000Y-53086000D01*
X131064000Y-43942000D02*
X131064000Y-52832000D01*
X130810000Y-43688000D02*
X131064000Y-43942000D01*
X132334000Y-53086000D02*
X133350000Y-53086000D01*
X133350000Y-43688000D02*
X132334000Y-43688000D01*
X133604000Y-43942000D02*
X133350000Y-43688000D01*
X133604000Y-52832000D02*
X133604000Y-43942000D01*
X133350000Y-53086000D02*
X133604000Y-52832000D01*
X227076000Y-60706000D02*
X223520000Y-60706000D01*
X222419333Y-58420000D02*
X178308000Y-58420000D01*
X223012000Y-58775600D02*
X222419333Y-58420000D01*
X223012000Y-60096400D02*
X223012000Y-58775600D01*
X223520000Y-60706000D02*
X223012000Y-60096400D01*
D22*
X154432000Y-63500000D02*
X157734000Y-63500000D01*
X157734000Y-63500000D02*
X158242000Y-64008000D01*
X107188000Y-66802000D02*
X80772000Y-66802000D01*
X80772000Y-66802000D02*
X80010000Y-65786000D01*
X80010000Y-65786000D02*
X74676000Y-65786000D01*
X107950000Y-67564000D02*
X107188000Y-66802000D01*
X107950000Y-74422000D02*
X107950000Y-67564000D01*
X109474000Y-75946000D02*
X107950000Y-74422000D01*
X156464000Y-75946000D02*
X109474000Y-75946000D01*
X158242000Y-74168000D02*
X156464000Y-75946000D01*
X158242000Y-64008000D02*
X158242000Y-74168000D01*
D21*
X173482000Y-40640000D02*
X172212000Y-40640000D01*
X173949360Y-40172640D02*
X173482000Y-40640000D01*
X175260000Y-45212000D02*
X175768000Y-45720000D01*
X175768000Y-45720000D02*
X175768000Y-49530000D01*
X175768000Y-55372000D02*
X175768000Y-54610000D01*
X173949360Y-40172640D02*
X173949360Y-37388800D01*
X173482000Y-45212000D02*
X175260000Y-45212000D01*
X172974000Y-44704000D02*
X173482000Y-45212000D01*
X172974000Y-43180000D02*
X172974000Y-44704000D01*
X172720000Y-42926000D02*
X172974000Y-43180000D01*
X172212000Y-42926000D02*
X172720000Y-42926000D01*
X171958000Y-42672000D02*
X172212000Y-42926000D01*
X171958000Y-40894000D02*
X171958000Y-42672000D01*
X172212000Y-40640000D02*
X171958000Y-40894000D01*
X176276000Y-55626000D02*
X175768000Y-55118000D01*
X175768000Y-55118000D02*
X175768000Y-55372000D01*
X175768000Y-55372000D02*
X175768000Y-56134000D01*
X146304000Y-59182000D02*
X146050000Y-59182000D01*
X176276000Y-55626000D02*
X175768000Y-56134000D01*
X175768000Y-56134000D02*
X175768000Y-58420000D01*
X175768000Y-58420000D02*
X175006000Y-59182000D01*
X175006000Y-59182000D02*
X146304000Y-59182000D01*
X227076000Y-55626000D02*
X176276000Y-55626000D01*
X72898000Y-50546000D02*
X74422000Y-50546000D01*
X72390000Y-51054000D02*
X72898000Y-50546000D01*
X72390000Y-68834000D02*
X72390000Y-51054000D01*
X73406000Y-69850000D02*
X72390000Y-68834000D01*
X106934000Y-69850000D02*
X73406000Y-69850000D01*
X144526000Y-69850000D02*
X109728000Y-69850000D01*
X145034000Y-69342000D02*
X144526000Y-69850000D01*
X145034000Y-60198000D02*
X145034000Y-69342000D01*
X146050000Y-59182000D02*
X145034000Y-60198000D01*
X171196000Y-53086000D02*
X171704000Y-52578000D01*
X171704000Y-52578000D02*
X172212000Y-53086000D01*
X172212000Y-53086000D02*
X172212000Y-53086000D01*
X227076000Y-50546000D02*
X214122000Y-50546000D01*
X75184000Y-56896000D02*
X74422000Y-56134000D01*
X78740000Y-56896000D02*
X75184000Y-56896000D01*
X93218000Y-56896000D02*
X78740000Y-56896000D01*
X153416000Y-56896000D02*
X98298000Y-56896000D01*
X155448000Y-54864000D02*
X153416000Y-56896000D01*
X155448000Y-53594000D02*
X155448000Y-54864000D01*
X155956000Y-53086000D02*
X155448000Y-53594000D01*
X213614000Y-53086000D02*
X171196000Y-53086000D01*
X171196000Y-53086000D02*
X155956000Y-53086000D01*
X213868000Y-52832000D02*
X213614000Y-53086000D01*
X213868000Y-50800000D02*
X213868000Y-52832000D01*
X214122000Y-50546000D02*
X213868000Y-50800000D01*
X74422000Y-56134000D02*
X74422000Y-55626000D01*
X167386000Y-51308000D02*
X166878000Y-51816000D01*
X167386000Y-51308000D02*
X167894000Y-51816000D01*
X167894000Y-51816000D02*
X167640000Y-51816000D01*
X227076000Y-45466000D02*
X214122000Y-45466000D01*
X214122000Y-45466000D02*
X213106000Y-46482000D01*
X213106000Y-46482000D02*
X213106000Y-51308000D01*
X213106000Y-51308000D02*
X212598000Y-51816000D01*
X212598000Y-51816000D02*
X167640000Y-51816000D01*
X167640000Y-51816000D02*
X166878000Y-51816000D01*
X166878000Y-51816000D02*
X155194000Y-51816000D01*
X145288000Y-44958000D02*
X146050000Y-44196000D01*
X145288000Y-51308000D02*
X145288000Y-44958000D01*
X145796000Y-51816000D02*
X145288000Y-51308000D01*
X153670000Y-51816000D02*
X145796000Y-51816000D01*
X146050000Y-44196000D02*
X146812000Y-44196000D01*
X166922000Y-49828000D02*
X167386000Y-50292000D01*
X167386000Y-50292000D02*
X167132000Y-50292000D01*
X167949880Y-42362120D02*
X167949880Y-42575120D01*
X167949880Y-37388800D02*
X167949880Y-42362120D01*
X166950000Y-49800000D02*
X166922000Y-49828000D01*
X166922000Y-49828000D02*
X166458000Y-50292000D01*
X166950000Y-43125000D02*
X166950000Y-49800000D01*
X167200000Y-42875000D02*
X166950000Y-43125000D01*
X167650000Y-42875000D02*
X167200000Y-42875000D01*
X167949880Y-42575120D02*
X167650000Y-42875000D01*
X227076000Y-40386000D02*
X214376000Y-40386000D01*
X167894000Y-50292000D02*
X167132000Y-50292000D01*
X210312000Y-50292000D02*
X167894000Y-50292000D01*
X211582000Y-49022000D02*
X210312000Y-50292000D01*
X211582000Y-43180000D02*
X211582000Y-49022000D01*
X214376000Y-40386000D02*
X211582000Y-43180000D01*
X147828000Y-41656000D02*
X147574000Y-41656000D01*
X167132000Y-50292000D02*
X166878000Y-50292000D01*
X166878000Y-50292000D02*
X166458000Y-50292000D01*
X166458000Y-50292000D02*
X161290000Y-50292000D01*
X161290000Y-50292000D02*
X155194000Y-50292000D01*
X153670000Y-50292000D02*
X149860000Y-50292000D01*
X149860000Y-50292000D02*
X148590000Y-49022000D01*
X148590000Y-49022000D02*
X148336000Y-48768000D01*
X148336000Y-48768000D02*
X148336000Y-42926000D01*
X148336000Y-42926000D02*
X148336000Y-42164000D01*
X148336000Y-42164000D02*
X147828000Y-41656000D01*
X147574000Y-41656000D02*
X146812000Y-41656000D01*
X147574000Y-41656000D02*
X146812000Y-41656000D01*
X165950900Y-40043100D02*
X165950900Y-37388800D01*
X165354000Y-40640000D02*
X165950900Y-40043100D01*
X159258000Y-40640000D02*
X165354000Y-40640000D01*
X159004000Y-40894000D02*
X159258000Y-40640000D01*
X181610000Y-53848000D02*
X159766000Y-53848000D01*
D22*
X192278000Y-48260000D02*
X192278000Y-49022000D01*
X192278000Y-49022000D02*
X192786000Y-49530000D01*
X192786000Y-49530000D02*
X204978000Y-49530000D01*
X204978000Y-49530000D02*
X206248000Y-48260000D01*
X192278000Y-45720000D02*
X192278000Y-46482000D01*
X192278000Y-46482000D02*
X192786000Y-46990000D01*
X192786000Y-46990000D02*
X204978000Y-46990000D01*
X204978000Y-46990000D02*
X206248000Y-45720000D01*
X192278000Y-43180000D02*
X192278000Y-43942000D01*
X192278000Y-43942000D02*
X192786000Y-44450000D01*
X192786000Y-44450000D02*
X204978000Y-44450000D01*
X204978000Y-44450000D02*
X206248000Y-43180000D01*
D21*
X192278000Y-40640000D02*
X191262000Y-40640000D01*
X162951160Y-36576000D02*
X162951160Y-39390320D01*
X163205160Y-36322000D02*
X162951160Y-36576000D01*
X189992000Y-36322000D02*
X163205160Y-36322000D01*
X190754000Y-37084000D02*
X189992000Y-36322000D01*
X190754000Y-40132000D02*
X190754000Y-37084000D01*
X191262000Y-40640000D02*
X190754000Y-40132000D01*
D22*
X192278000Y-40640000D02*
X192278000Y-41402000D01*
X192278000Y-41402000D02*
X192786000Y-41910000D01*
X192786000Y-41910000D02*
X204978000Y-41910000D01*
X204978000Y-41910000D02*
X206248000Y-40640000D01*
D21*
X192278000Y-38100000D02*
X192278000Y-36576000D01*
X161950400Y-36169600D02*
X161950400Y-37388800D01*
X162306000Y-35814000D02*
X161950400Y-36169600D01*
X191516000Y-35814000D02*
X162306000Y-35814000D01*
X192278000Y-36576000D02*
X191516000Y-35814000D01*
D22*
X192278000Y-38100000D02*
X192278000Y-38862000D01*
X192278000Y-38862000D02*
X192786000Y-39370000D01*
X192786000Y-39370000D02*
X204978000Y-39370000D01*
X204978000Y-39370000D02*
X206248000Y-38100000D01*
D24*
G36*
X203835000Y-85979000D02*
X183261000Y-85979000D01*
X183261000Y-79398000D01*
X191116275Y-79398000D01*
X191134898Y-79491624D01*
X191134583Y-79852870D01*
X191273749Y-80189678D01*
X191297822Y-80310700D01*
X191365776Y-80412401D01*
X191501166Y-80740069D01*
X191753850Y-80993195D01*
X191814825Y-81084450D01*
X191905283Y-81144892D01*
X192179361Y-81419449D01*
X192540803Y-81569533D01*
X192588575Y-81601453D01*
X192644433Y-81612564D01*
X193065919Y-81787580D01*
X194025870Y-81788417D01*
X194451375Y-81612602D01*
X194507425Y-81601453D01*
X194554527Y-81569980D01*
X194913069Y-81421834D01*
X195190045Y-81145341D01*
X195281175Y-81084450D01*
X195341534Y-80994116D01*
X195592449Y-80743639D01*
X195729609Y-80413320D01*
X195798178Y-80310700D01*
X195822046Y-80190709D01*
X195960580Y-79857081D01*
X195960898Y-79492651D01*
X195979725Y-79398000D01*
X195961062Y-79304175D01*
X195961417Y-78897130D01*
X195804607Y-78517620D01*
X195798178Y-78485300D01*
X195780030Y-78458139D01*
X195594834Y-78009931D01*
X194916639Y-77330551D01*
X194030081Y-76962420D01*
X193070130Y-76961583D01*
X192182931Y-77328166D01*
X191503551Y-78006361D01*
X191315933Y-78458194D01*
X191297822Y-78485300D01*
X191291518Y-78516994D01*
X191135420Y-78892919D01*
X191135062Y-79303551D01*
X191116275Y-79398000D01*
X183261000Y-79398000D01*
X183261000Y-67183000D01*
X203835000Y-67183000D01*
X203835000Y-85979000D01*
X203835000Y-85979000D01*
G37*
X203835000Y-85979000D02*
X183261000Y-85979000D01*
X183261000Y-79398000D01*
X191116275Y-79398000D01*
X191134898Y-79491624D01*
X191134583Y-79852870D01*
X191273749Y-80189678D01*
X191297822Y-80310700D01*
X191365776Y-80412401D01*
X191501166Y-80740069D01*
X191753850Y-80993195D01*
X191814825Y-81084450D01*
X191905283Y-81144892D01*
X192179361Y-81419449D01*
X192540803Y-81569533D01*
X192588575Y-81601453D01*
X192644433Y-81612564D01*
X193065919Y-81787580D01*
X194025870Y-81788417D01*
X194451375Y-81612602D01*
X194507425Y-81601453D01*
X194554527Y-81569980D01*
X194913069Y-81421834D01*
X195190045Y-81145341D01*
X195281175Y-81084450D01*
X195341534Y-80994116D01*
X195592449Y-80743639D01*
X195729609Y-80413320D01*
X195798178Y-80310700D01*
X195822046Y-80190709D01*
X195960580Y-79857081D01*
X195960898Y-79492651D01*
X195979725Y-79398000D01*
X195961062Y-79304175D01*
X195961417Y-78897130D01*
X195804607Y-78517620D01*
X195798178Y-78485300D01*
X195780030Y-78458139D01*
X195594834Y-78009931D01*
X194916639Y-77330551D01*
X194030081Y-76962420D01*
X193070130Y-76961583D01*
X192182931Y-77328166D01*
X191503551Y-78006361D01*
X191315933Y-78458194D01*
X191297822Y-78485300D01*
X191291518Y-78516994D01*
X191135420Y-78892919D01*
X191135062Y-79303551D01*
X191116275Y-79398000D01*
X183261000Y-79398000D01*
X183261000Y-67183000D01*
X203835000Y-67183000D01*
X203835000Y-85979000D01*
M02*
