%FSLAX45Y45*%
G04 Gerber Fmt 4.5, Leading zero omitted, Abs format (unit mm)*
G04 Created by KiCad (PCBNEW 4.0.6) date 03/06/18 07:36:07*
%MOMM*%
%LPD*%
G01*
G04 APERTURE LIST*
%ADD10C,0.127000*%
%ADD11C,0.150000*%
%ADD12C,0.200000*%
%ADD13C,0.300000*%
G04 APERTURE END LIST*
D10*
D11*
X6573600Y-9101600D02*
X23573600Y-9101600D01*
X6573600Y-9101600D02*
X7623600Y-9101600D01*
X22523600Y-2743200D02*
X23573600Y-2743200D01*
X22523600Y-2743200D02*
X22523600Y-3443200D01*
X23573600Y-2743200D02*
X23573600Y-9101600D01*
X7623600Y-3443200D02*
X7623600Y-2743200D01*
X6573600Y-2743200D02*
X7623600Y-2743200D01*
X6573600Y-2743200D02*
X6573600Y-9101600D01*
X7623600Y-3443200D02*
X22523600Y-3443200D01*
D12*
X12071400Y-7874800D02*
X12171400Y-7974800D01*
X12171400Y-7874800D02*
X12071400Y-7974800D01*
X12936400Y-7924800D02*
G75*
G03X12936400Y-7924800I-65000J0D01*
G01*
X16014954Y-4719105D02*
X16014954Y-4959135D01*
X15894939Y-4839120D02*
X16134969Y-4839120D01*
X16930116Y-4719105D02*
X16930116Y-4959135D01*
X16810101Y-4839120D02*
X17050131Y-4839120D01*
X7089667Y-3314267D02*
X7089667Y-3102133D01*
X6877533Y-3102133D01*
X6877533Y-3314267D01*
X7089667Y-3314267D01*
X7092167Y-8966767D02*
X7092167Y-8754633D01*
X6880033Y-8754633D01*
X6880033Y-8966767D01*
X7092167Y-8966767D01*
X8280467Y-5287667D02*
X8280467Y-5075533D01*
X8068333Y-5075533D01*
X8068333Y-5287667D01*
X8280467Y-5287667D01*
X14080467Y-5287667D02*
X14080467Y-5075533D01*
X13868333Y-5075533D01*
X13868333Y-5287667D01*
X14080467Y-5287667D01*
X23269667Y-3314267D02*
X23269667Y-3102133D01*
X23057533Y-3102133D01*
X23057533Y-3314267D01*
X23269667Y-3314267D01*
X23272167Y-8966767D02*
X23272167Y-8754633D01*
X23060033Y-8754633D01*
X23060033Y-8966767D01*
X23272167Y-8966767D01*
X19354800Y-8114800D02*
X19529800Y-7939800D01*
X19354800Y-7764800D01*
X19179800Y-7939800D01*
X19354800Y-8114800D01*
X19177000Y-7759700D02*
X19532600Y-8115300D01*
X19532600Y-7759700D02*
X19177000Y-8115300D01*
X19532600Y-7937500D02*
G75*
G03X19532600Y-7937500I-177800J0D01*
G01*
D13*
X6837528Y-9574814D02*
X6837528Y-9274814D01*
X6908957Y-9274814D01*
X6951814Y-9289100D01*
X6980386Y-9317672D01*
X6994671Y-9346243D01*
X7008957Y-9403386D01*
X7008957Y-9446243D01*
X6994671Y-9503386D01*
X6980386Y-9531957D01*
X6951814Y-9560529D01*
X6908957Y-9574814D01*
X6837528Y-9574814D01*
X7137528Y-9574814D02*
X7137528Y-9374814D01*
X7137528Y-9431957D02*
X7151814Y-9403386D01*
X7166100Y-9389100D01*
X7194671Y-9374814D01*
X7223243Y-9374814D01*
X7323243Y-9574814D02*
X7323243Y-9374814D01*
X7323243Y-9274814D02*
X7308957Y-9289100D01*
X7323243Y-9303386D01*
X7337528Y-9289100D01*
X7323243Y-9274814D01*
X7323243Y-9303386D01*
X7508957Y-9574814D02*
X7480386Y-9560529D01*
X7466100Y-9531957D01*
X7466100Y-9274814D01*
X7666100Y-9574814D02*
X7637528Y-9560529D01*
X7623243Y-9531957D01*
X7623243Y-9274814D01*
X8008957Y-9574814D02*
X8008957Y-9274814D01*
X8108957Y-9489100D01*
X8208957Y-9274814D01*
X8208957Y-9574814D01*
X8480386Y-9574814D02*
X8480386Y-9417672D01*
X8466100Y-9389100D01*
X8437529Y-9374814D01*
X8380386Y-9374814D01*
X8351814Y-9389100D01*
X8480386Y-9560529D02*
X8451814Y-9574814D01*
X8380386Y-9574814D01*
X8351814Y-9560529D01*
X8337528Y-9531957D01*
X8337528Y-9503386D01*
X8351814Y-9474814D01*
X8380386Y-9460529D01*
X8451814Y-9460529D01*
X8480386Y-9446243D01*
X8623243Y-9374814D02*
X8623243Y-9674814D01*
X8623243Y-9389100D02*
X8651814Y-9374814D01*
X8708957Y-9374814D01*
X8737529Y-9389100D01*
X8751814Y-9403386D01*
X8766100Y-9431957D01*
X8766100Y-9517672D01*
X8751814Y-9546243D01*
X8737529Y-9560529D01*
X8708957Y-9574814D01*
X8651814Y-9574814D01*
X8623243Y-9560529D01*
X8894671Y-9546243D02*
X8908957Y-9560529D01*
X8894671Y-9574814D01*
X8880386Y-9560529D01*
X8894671Y-9546243D01*
X8894671Y-9574814D01*
X8894671Y-9389100D02*
X8908957Y-9403386D01*
X8894671Y-9417672D01*
X8880386Y-9403386D01*
X8894671Y-9389100D01*
X8894671Y-9417672D01*
X6466100Y-10019100D02*
X6566100Y-10119100D01*
X6566100Y-10019100D02*
X6466100Y-10119100D01*
X6994671Y-10204814D02*
X6823243Y-10204814D01*
X6908957Y-10204814D02*
X6908957Y-9904814D01*
X6880386Y-9947672D01*
X6851814Y-9976243D01*
X6823243Y-9990529D01*
X7123243Y-10176243D02*
X7137528Y-10190529D01*
X7123243Y-10204814D01*
X7108957Y-10190529D01*
X7123243Y-10176243D01*
X7123243Y-10204814D01*
X7323243Y-9904814D02*
X7351814Y-9904814D01*
X7380386Y-9919100D01*
X7394671Y-9933386D01*
X7408957Y-9961957D01*
X7423243Y-10019100D01*
X7423243Y-10090529D01*
X7408957Y-10147672D01*
X7394671Y-10176243D01*
X7380386Y-10190529D01*
X7351814Y-10204814D01*
X7323243Y-10204814D01*
X7294671Y-10190529D01*
X7280386Y-10176243D01*
X7266100Y-10147672D01*
X7251814Y-10090529D01*
X7251814Y-10019100D01*
X7266100Y-9961957D01*
X7280386Y-9933386D01*
X7294671Y-9919100D01*
X7323243Y-9904814D01*
X7608957Y-9904814D02*
X7637528Y-9904814D01*
X7666100Y-9919100D01*
X7680386Y-9933386D01*
X7694671Y-9961957D01*
X7708957Y-10019100D01*
X7708957Y-10090529D01*
X7694671Y-10147672D01*
X7680386Y-10176243D01*
X7666100Y-10190529D01*
X7637528Y-10204814D01*
X7608957Y-10204814D01*
X7580386Y-10190529D01*
X7566100Y-10176243D01*
X7551814Y-10147672D01*
X7537528Y-10090529D01*
X7537528Y-10019100D01*
X7551814Y-9961957D01*
X7566100Y-9933386D01*
X7580386Y-9919100D01*
X7608957Y-9904814D01*
X7837528Y-10204814D02*
X7837528Y-10004814D01*
X7837528Y-10033386D02*
X7851814Y-10019100D01*
X7880386Y-10004814D01*
X7923243Y-10004814D01*
X7951814Y-10019100D01*
X7966100Y-10047672D01*
X7966100Y-10204814D01*
X7966100Y-10047672D02*
X7980386Y-10019100D01*
X8008957Y-10004814D01*
X8051814Y-10004814D01*
X8080386Y-10019100D01*
X8094671Y-10047672D01*
X8094671Y-10204814D01*
X8237528Y-10204814D02*
X8237528Y-10004814D01*
X8237528Y-10033386D02*
X8251814Y-10019100D01*
X8280386Y-10004814D01*
X8323243Y-10004814D01*
X8351814Y-10019100D01*
X8366100Y-10047672D01*
X8366100Y-10204814D01*
X8366100Y-10047672D02*
X8380386Y-10019100D01*
X8408957Y-10004814D01*
X8451814Y-10004814D01*
X8480386Y-10019100D01*
X8494671Y-10047672D01*
X8494671Y-10204814D01*
X9080386Y-9890529D02*
X8823243Y-10276243D01*
X9466100Y-9904814D02*
X9494671Y-9904814D01*
X9523243Y-9919100D01*
X9537528Y-9933386D01*
X9551814Y-9961957D01*
X9566100Y-10019100D01*
X9566100Y-10090529D01*
X9551814Y-10147672D01*
X9537528Y-10176243D01*
X9523243Y-10190529D01*
X9494671Y-10204814D01*
X9466100Y-10204814D01*
X9437528Y-10190529D01*
X9423243Y-10176243D01*
X9408957Y-10147672D01*
X9394671Y-10090529D01*
X9394671Y-10019100D01*
X9408957Y-9961957D01*
X9423243Y-9933386D01*
X9437528Y-9919100D01*
X9466100Y-9904814D01*
X9694671Y-10176243D02*
X9708957Y-10190529D01*
X9694671Y-10204814D01*
X9680386Y-10190529D01*
X9694671Y-10176243D01*
X9694671Y-10204814D01*
X9894671Y-9904814D02*
X9923243Y-9904814D01*
X9951814Y-9919100D01*
X9966100Y-9933386D01*
X9980386Y-9961957D01*
X9994671Y-10019100D01*
X9994671Y-10090529D01*
X9980386Y-10147672D01*
X9966100Y-10176243D01*
X9951814Y-10190529D01*
X9923243Y-10204814D01*
X9894671Y-10204814D01*
X9866100Y-10190529D01*
X9851814Y-10176243D01*
X9837528Y-10147672D01*
X9823243Y-10090529D01*
X9823243Y-10019100D01*
X9837528Y-9961957D01*
X9851814Y-9933386D01*
X9866100Y-9919100D01*
X9894671Y-9904814D01*
X10094671Y-9904814D02*
X10280386Y-9904814D01*
X10180386Y-10019100D01*
X10223243Y-10019100D01*
X10251814Y-10033386D01*
X10266100Y-10047672D01*
X10280386Y-10076243D01*
X10280386Y-10147672D01*
X10266100Y-10176243D01*
X10251814Y-10190529D01*
X10223243Y-10204814D01*
X10137528Y-10204814D01*
X10108957Y-10190529D01*
X10094671Y-10176243D01*
X10423243Y-10204814D02*
X10480386Y-10204814D01*
X10508957Y-10190529D01*
X10523243Y-10176243D01*
X10551814Y-10133386D01*
X10566100Y-10076243D01*
X10566100Y-9961957D01*
X10551814Y-9933386D01*
X10537528Y-9919100D01*
X10508957Y-9904814D01*
X10451814Y-9904814D01*
X10423243Y-9919100D01*
X10408957Y-9933386D01*
X10394671Y-9961957D01*
X10394671Y-10033386D01*
X10408957Y-10061957D01*
X10423243Y-10076243D01*
X10451814Y-10090529D01*
X10508957Y-10090529D01*
X10537528Y-10076243D01*
X10551814Y-10061957D01*
X10566100Y-10033386D01*
X10680386Y-9904814D02*
X10680386Y-9961957D01*
X10794671Y-9904814D02*
X10794671Y-9961957D01*
X11237528Y-10319100D02*
X11223243Y-10304814D01*
X11194671Y-10261957D01*
X11180386Y-10233386D01*
X11166100Y-10190529D01*
X11151814Y-10119100D01*
X11151814Y-10061957D01*
X11166100Y-9990529D01*
X11180386Y-9947672D01*
X11194671Y-9919100D01*
X11223243Y-9876243D01*
X11237528Y-9861957D01*
X11508957Y-10204814D02*
X11337528Y-10204814D01*
X11423243Y-10204814D02*
X11423243Y-9904814D01*
X11394671Y-9947672D01*
X11366100Y-9976243D01*
X11337528Y-9990529D01*
X11866100Y-10204814D02*
X11866100Y-9904814D01*
X11994671Y-10204814D02*
X11994671Y-10047672D01*
X11980385Y-10019100D01*
X11951814Y-10004814D01*
X11908957Y-10004814D01*
X11880385Y-10019100D01*
X11866100Y-10033386D01*
X12180385Y-10204814D02*
X12151814Y-10190529D01*
X12137528Y-10176243D01*
X12123243Y-10147672D01*
X12123243Y-10061957D01*
X12137528Y-10033386D01*
X12151814Y-10019100D01*
X12180385Y-10004814D01*
X12223243Y-10004814D01*
X12251814Y-10019100D01*
X12266100Y-10033386D01*
X12280385Y-10061957D01*
X12280385Y-10147672D01*
X12266100Y-10176243D01*
X12251814Y-10190529D01*
X12223243Y-10204814D01*
X12180385Y-10204814D01*
X12451814Y-10204814D02*
X12423243Y-10190529D01*
X12408957Y-10161957D01*
X12408957Y-9904814D01*
X12680386Y-10190529D02*
X12651814Y-10204814D01*
X12594671Y-10204814D01*
X12566100Y-10190529D01*
X12551814Y-10161957D01*
X12551814Y-10047672D01*
X12566100Y-10019100D01*
X12594671Y-10004814D01*
X12651814Y-10004814D01*
X12680386Y-10019100D01*
X12694671Y-10047672D01*
X12694671Y-10076243D01*
X12551814Y-10104814D01*
X12794671Y-10319100D02*
X12808957Y-10304814D01*
X12837528Y-10261957D01*
X12851814Y-10233386D01*
X12866100Y-10190529D01*
X12880386Y-10119100D01*
X12880386Y-10061957D01*
X12866100Y-9990529D01*
X12851814Y-9947672D01*
X12837528Y-9919100D01*
X12808957Y-9876243D01*
X12794671Y-9861957D01*
X13337528Y-10319100D02*
X13323243Y-10304814D01*
X13294671Y-10261957D01*
X13280386Y-10233386D01*
X13266100Y-10190529D01*
X13251814Y-10119100D01*
X13251814Y-10061957D01*
X13266100Y-9990529D01*
X13280386Y-9947672D01*
X13294671Y-9919100D01*
X13323243Y-9876243D01*
X13337528Y-9861957D01*
X13451814Y-10004814D02*
X13451814Y-10204814D01*
X13451814Y-10033386D02*
X13466100Y-10019100D01*
X13494671Y-10004814D01*
X13537528Y-10004814D01*
X13566100Y-10019100D01*
X13580386Y-10047672D01*
X13580386Y-10204814D01*
X13766100Y-10204814D02*
X13737528Y-10190529D01*
X13723243Y-10176243D01*
X13708957Y-10147672D01*
X13708957Y-10061957D01*
X13723243Y-10033386D01*
X13737528Y-10019100D01*
X13766100Y-10004814D01*
X13808957Y-10004814D01*
X13837528Y-10019100D01*
X13851814Y-10033386D01*
X13866100Y-10061957D01*
X13866100Y-10147672D01*
X13851814Y-10176243D01*
X13837528Y-10190529D01*
X13808957Y-10204814D01*
X13766100Y-10204814D01*
X13951814Y-10004814D02*
X14066100Y-10004814D01*
X13994671Y-9904814D02*
X13994671Y-10161957D01*
X14008957Y-10190529D01*
X14037528Y-10204814D01*
X14066100Y-10204814D01*
X14394671Y-10004814D02*
X14394671Y-10304814D01*
X14394671Y-10019100D02*
X14423243Y-10004814D01*
X14480386Y-10004814D01*
X14508957Y-10019100D01*
X14523243Y-10033386D01*
X14537528Y-10061957D01*
X14537528Y-10147672D01*
X14523243Y-10176243D01*
X14508957Y-10190529D01*
X14480386Y-10204814D01*
X14423243Y-10204814D01*
X14394671Y-10190529D01*
X14708957Y-10204814D02*
X14680386Y-10190529D01*
X14666100Y-10161957D01*
X14666100Y-9904814D01*
X14951814Y-10204814D02*
X14951814Y-10047672D01*
X14937529Y-10019100D01*
X14908957Y-10004814D01*
X14851814Y-10004814D01*
X14823243Y-10019100D01*
X14951814Y-10190529D02*
X14923243Y-10204814D01*
X14851814Y-10204814D01*
X14823243Y-10190529D01*
X14808957Y-10161957D01*
X14808957Y-10133386D01*
X14823243Y-10104814D01*
X14851814Y-10090529D01*
X14923243Y-10090529D01*
X14951814Y-10076243D01*
X15051814Y-10004814D02*
X15166100Y-10004814D01*
X15094671Y-9904814D02*
X15094671Y-10161957D01*
X15108957Y-10190529D01*
X15137529Y-10204814D01*
X15166100Y-10204814D01*
X15380386Y-10190529D02*
X15351814Y-10204814D01*
X15294671Y-10204814D01*
X15266100Y-10190529D01*
X15251814Y-10161957D01*
X15251814Y-10047672D01*
X15266100Y-10019100D01*
X15294671Y-10004814D01*
X15351814Y-10004814D01*
X15380386Y-10019100D01*
X15394671Y-10047672D01*
X15394671Y-10076243D01*
X15251814Y-10104814D01*
X15651814Y-10204814D02*
X15651814Y-9904814D01*
X15651814Y-10190529D02*
X15623243Y-10204814D01*
X15566100Y-10204814D01*
X15537529Y-10190529D01*
X15523243Y-10176243D01*
X15508957Y-10147672D01*
X15508957Y-10061957D01*
X15523243Y-10033386D01*
X15537529Y-10019100D01*
X15566100Y-10004814D01*
X15623243Y-10004814D01*
X15651814Y-10019100D01*
X15766100Y-10319100D02*
X15780386Y-10304814D01*
X15808957Y-10261957D01*
X15823243Y-10233386D01*
X15837529Y-10190529D01*
X15851814Y-10119100D01*
X15851814Y-10061957D01*
X15837529Y-9990529D01*
X15823243Y-9947672D01*
X15808957Y-9919100D01*
X15780386Y-9876243D01*
X15766100Y-9861957D01*
X6566100Y-10465100D02*
G75*
G03X6566100Y-10465100I-65000J0D01*
G01*
X6994671Y-10600814D02*
X6823243Y-10600814D01*
X6908957Y-10600814D02*
X6908957Y-10300814D01*
X6880386Y-10343672D01*
X6851814Y-10372243D01*
X6823243Y-10386529D01*
X7123243Y-10572243D02*
X7137528Y-10586529D01*
X7123243Y-10600814D01*
X7108957Y-10586529D01*
X7123243Y-10572243D01*
X7123243Y-10600814D01*
X7237528Y-10300814D02*
X7423243Y-10300814D01*
X7323243Y-10415100D01*
X7366100Y-10415100D01*
X7394671Y-10429386D01*
X7408957Y-10443672D01*
X7423243Y-10472243D01*
X7423243Y-10543672D01*
X7408957Y-10572243D01*
X7394671Y-10586529D01*
X7366100Y-10600814D01*
X7280386Y-10600814D01*
X7251814Y-10586529D01*
X7237528Y-10572243D01*
X7608957Y-10300814D02*
X7637528Y-10300814D01*
X7666100Y-10315100D01*
X7680386Y-10329386D01*
X7694671Y-10357957D01*
X7708957Y-10415100D01*
X7708957Y-10486529D01*
X7694671Y-10543672D01*
X7680386Y-10572243D01*
X7666100Y-10586529D01*
X7637528Y-10600814D01*
X7608957Y-10600814D01*
X7580386Y-10586529D01*
X7566100Y-10572243D01*
X7551814Y-10543672D01*
X7537528Y-10486529D01*
X7537528Y-10415100D01*
X7551814Y-10357957D01*
X7566100Y-10329386D01*
X7580386Y-10315100D01*
X7608957Y-10300814D01*
X7837528Y-10600814D02*
X7837528Y-10400814D01*
X7837528Y-10429386D02*
X7851814Y-10415100D01*
X7880386Y-10400814D01*
X7923243Y-10400814D01*
X7951814Y-10415100D01*
X7966100Y-10443672D01*
X7966100Y-10600814D01*
X7966100Y-10443672D02*
X7980386Y-10415100D01*
X8008957Y-10400814D01*
X8051814Y-10400814D01*
X8080386Y-10415100D01*
X8094671Y-10443672D01*
X8094671Y-10600814D01*
X8237528Y-10600814D02*
X8237528Y-10400814D01*
X8237528Y-10429386D02*
X8251814Y-10415100D01*
X8280386Y-10400814D01*
X8323243Y-10400814D01*
X8351814Y-10415100D01*
X8366100Y-10443672D01*
X8366100Y-10600814D01*
X8366100Y-10443672D02*
X8380386Y-10415100D01*
X8408957Y-10400814D01*
X8451814Y-10400814D01*
X8480386Y-10415100D01*
X8494671Y-10443672D01*
X8494671Y-10600814D01*
X9080386Y-10286529D02*
X8823243Y-10672243D01*
X9466100Y-10300814D02*
X9494671Y-10300814D01*
X9523243Y-10315100D01*
X9537528Y-10329386D01*
X9551814Y-10357957D01*
X9566100Y-10415100D01*
X9566100Y-10486529D01*
X9551814Y-10543672D01*
X9537528Y-10572243D01*
X9523243Y-10586529D01*
X9494671Y-10600814D01*
X9466100Y-10600814D01*
X9437528Y-10586529D01*
X9423243Y-10572243D01*
X9408957Y-10543672D01*
X9394671Y-10486529D01*
X9394671Y-10415100D01*
X9408957Y-10357957D01*
X9423243Y-10329386D01*
X9437528Y-10315100D01*
X9466100Y-10300814D01*
X9694671Y-10572243D02*
X9708957Y-10586529D01*
X9694671Y-10600814D01*
X9680386Y-10586529D01*
X9694671Y-10572243D01*
X9694671Y-10600814D01*
X9894671Y-10300814D02*
X9923243Y-10300814D01*
X9951814Y-10315100D01*
X9966100Y-10329386D01*
X9980386Y-10357957D01*
X9994671Y-10415100D01*
X9994671Y-10486529D01*
X9980386Y-10543672D01*
X9966100Y-10572243D01*
X9951814Y-10586529D01*
X9923243Y-10600814D01*
X9894671Y-10600814D01*
X9866100Y-10586529D01*
X9851814Y-10572243D01*
X9837528Y-10543672D01*
X9823243Y-10486529D01*
X9823243Y-10415100D01*
X9837528Y-10357957D01*
X9851814Y-10329386D01*
X9866100Y-10315100D01*
X9894671Y-10300814D01*
X10266100Y-10300814D02*
X10123243Y-10300814D01*
X10108957Y-10443672D01*
X10123243Y-10429386D01*
X10151814Y-10415100D01*
X10223243Y-10415100D01*
X10251814Y-10429386D01*
X10266100Y-10443672D01*
X10280386Y-10472243D01*
X10280386Y-10543672D01*
X10266100Y-10572243D01*
X10251814Y-10586529D01*
X10223243Y-10600814D01*
X10151814Y-10600814D01*
X10123243Y-10586529D01*
X10108957Y-10572243D01*
X10566100Y-10600814D02*
X10394671Y-10600814D01*
X10480386Y-10600814D02*
X10480386Y-10300814D01*
X10451814Y-10343672D01*
X10423243Y-10372243D01*
X10394671Y-10386529D01*
X10680386Y-10300814D02*
X10680386Y-10357957D01*
X10794671Y-10300814D02*
X10794671Y-10357957D01*
X11237528Y-10715100D02*
X11223243Y-10700814D01*
X11194671Y-10657957D01*
X11180386Y-10629386D01*
X11166100Y-10586529D01*
X11151814Y-10515100D01*
X11151814Y-10457957D01*
X11166100Y-10386529D01*
X11180386Y-10343672D01*
X11194671Y-10315100D01*
X11223243Y-10272243D01*
X11237528Y-10257957D01*
X11508957Y-10600814D02*
X11337528Y-10600814D01*
X11423243Y-10600814D02*
X11423243Y-10300814D01*
X11394671Y-10343672D01*
X11366100Y-10372243D01*
X11337528Y-10386529D01*
X11866100Y-10600814D02*
X11866100Y-10300814D01*
X11994671Y-10600814D02*
X11994671Y-10443672D01*
X11980385Y-10415100D01*
X11951814Y-10400814D01*
X11908957Y-10400814D01*
X11880385Y-10415100D01*
X11866100Y-10429386D01*
X12180385Y-10600814D02*
X12151814Y-10586529D01*
X12137528Y-10572243D01*
X12123243Y-10543672D01*
X12123243Y-10457957D01*
X12137528Y-10429386D01*
X12151814Y-10415100D01*
X12180385Y-10400814D01*
X12223243Y-10400814D01*
X12251814Y-10415100D01*
X12266100Y-10429386D01*
X12280385Y-10457957D01*
X12280385Y-10543672D01*
X12266100Y-10572243D01*
X12251814Y-10586529D01*
X12223243Y-10600814D01*
X12180385Y-10600814D01*
X12451814Y-10600814D02*
X12423243Y-10586529D01*
X12408957Y-10557957D01*
X12408957Y-10300814D01*
X12680386Y-10586529D02*
X12651814Y-10600814D01*
X12594671Y-10600814D01*
X12566100Y-10586529D01*
X12551814Y-10557957D01*
X12551814Y-10443672D01*
X12566100Y-10415100D01*
X12594671Y-10400814D01*
X12651814Y-10400814D01*
X12680386Y-10415100D01*
X12694671Y-10443672D01*
X12694671Y-10472243D01*
X12551814Y-10500814D01*
X12794671Y-10715100D02*
X12808957Y-10700814D01*
X12837528Y-10657957D01*
X12851814Y-10629386D01*
X12866100Y-10586529D01*
X12880386Y-10515100D01*
X12880386Y-10457957D01*
X12866100Y-10386529D01*
X12851814Y-10343672D01*
X12837528Y-10315100D01*
X12808957Y-10272243D01*
X12794671Y-10257957D01*
X13337528Y-10715100D02*
X13323243Y-10700814D01*
X13294671Y-10657957D01*
X13280386Y-10629386D01*
X13266100Y-10586529D01*
X13251814Y-10515100D01*
X13251814Y-10457957D01*
X13266100Y-10386529D01*
X13280386Y-10343672D01*
X13294671Y-10315100D01*
X13323243Y-10272243D01*
X13337528Y-10257957D01*
X13451814Y-10400814D02*
X13451814Y-10600814D01*
X13451814Y-10429386D02*
X13466100Y-10415100D01*
X13494671Y-10400814D01*
X13537528Y-10400814D01*
X13566100Y-10415100D01*
X13580386Y-10443672D01*
X13580386Y-10600814D01*
X13766100Y-10600814D02*
X13737528Y-10586529D01*
X13723243Y-10572243D01*
X13708957Y-10543672D01*
X13708957Y-10457957D01*
X13723243Y-10429386D01*
X13737528Y-10415100D01*
X13766100Y-10400814D01*
X13808957Y-10400814D01*
X13837528Y-10415100D01*
X13851814Y-10429386D01*
X13866100Y-10457957D01*
X13866100Y-10543672D01*
X13851814Y-10572243D01*
X13837528Y-10586529D01*
X13808957Y-10600814D01*
X13766100Y-10600814D01*
X13951814Y-10400814D02*
X14066100Y-10400814D01*
X13994671Y-10300814D02*
X13994671Y-10557957D01*
X14008957Y-10586529D01*
X14037528Y-10600814D01*
X14066100Y-10600814D01*
X14394671Y-10400814D02*
X14394671Y-10700814D01*
X14394671Y-10415100D02*
X14423243Y-10400814D01*
X14480386Y-10400814D01*
X14508957Y-10415100D01*
X14523243Y-10429386D01*
X14537528Y-10457957D01*
X14537528Y-10543672D01*
X14523243Y-10572243D01*
X14508957Y-10586529D01*
X14480386Y-10600814D01*
X14423243Y-10600814D01*
X14394671Y-10586529D01*
X14708957Y-10600814D02*
X14680386Y-10586529D01*
X14666100Y-10557957D01*
X14666100Y-10300814D01*
X14951814Y-10600814D02*
X14951814Y-10443672D01*
X14937529Y-10415100D01*
X14908957Y-10400814D01*
X14851814Y-10400814D01*
X14823243Y-10415100D01*
X14951814Y-10586529D02*
X14923243Y-10600814D01*
X14851814Y-10600814D01*
X14823243Y-10586529D01*
X14808957Y-10557957D01*
X14808957Y-10529386D01*
X14823243Y-10500814D01*
X14851814Y-10486529D01*
X14923243Y-10486529D01*
X14951814Y-10472243D01*
X15051814Y-10400814D02*
X15166100Y-10400814D01*
X15094671Y-10300814D02*
X15094671Y-10557957D01*
X15108957Y-10586529D01*
X15137529Y-10600814D01*
X15166100Y-10600814D01*
X15380386Y-10586529D02*
X15351814Y-10600814D01*
X15294671Y-10600814D01*
X15266100Y-10586529D01*
X15251814Y-10557957D01*
X15251814Y-10443672D01*
X15266100Y-10415100D01*
X15294671Y-10400814D01*
X15351814Y-10400814D01*
X15380386Y-10415100D01*
X15394671Y-10443672D01*
X15394671Y-10472243D01*
X15251814Y-10500814D01*
X15651814Y-10600814D02*
X15651814Y-10300814D01*
X15651814Y-10586529D02*
X15623243Y-10600814D01*
X15566100Y-10600814D01*
X15537529Y-10586529D01*
X15523243Y-10572243D01*
X15508957Y-10543672D01*
X15508957Y-10457957D01*
X15523243Y-10429386D01*
X15537529Y-10415100D01*
X15566100Y-10400814D01*
X15623243Y-10400814D01*
X15651814Y-10415100D01*
X15766100Y-10715100D02*
X15780386Y-10700814D01*
X15808957Y-10657957D01*
X15823243Y-10629386D01*
X15837529Y-10586529D01*
X15851814Y-10515100D01*
X15851814Y-10457957D01*
X15837529Y-10386529D01*
X15823243Y-10343672D01*
X15808957Y-10315100D01*
X15780386Y-10272243D01*
X15766100Y-10257957D01*
X6446085Y-10741085D02*
X6446085Y-10981115D01*
X6326070Y-10861100D02*
X6566100Y-10861100D01*
X6823243Y-10725386D02*
X6837528Y-10711100D01*
X6866100Y-10696814D01*
X6937528Y-10696814D01*
X6966100Y-10711100D01*
X6980386Y-10725386D01*
X6994671Y-10753957D01*
X6994671Y-10782529D01*
X6980386Y-10825386D01*
X6808957Y-10996814D01*
X6994671Y-10996814D01*
X7123243Y-10968243D02*
X7137528Y-10982529D01*
X7123243Y-10996814D01*
X7108957Y-10982529D01*
X7123243Y-10968243D01*
X7123243Y-10996814D01*
X7394671Y-10796814D02*
X7394671Y-10996814D01*
X7323243Y-10682529D02*
X7251814Y-10896814D01*
X7437528Y-10896814D01*
X7608957Y-10696814D02*
X7637528Y-10696814D01*
X7666100Y-10711100D01*
X7680386Y-10725386D01*
X7694671Y-10753957D01*
X7708957Y-10811100D01*
X7708957Y-10882529D01*
X7694671Y-10939672D01*
X7680386Y-10968243D01*
X7666100Y-10982529D01*
X7637528Y-10996814D01*
X7608957Y-10996814D01*
X7580386Y-10982529D01*
X7566100Y-10968243D01*
X7551814Y-10939672D01*
X7537528Y-10882529D01*
X7537528Y-10811100D01*
X7551814Y-10753957D01*
X7566100Y-10725386D01*
X7580386Y-10711100D01*
X7608957Y-10696814D01*
X7837528Y-10996814D02*
X7837528Y-10796814D01*
X7837528Y-10825386D02*
X7851814Y-10811100D01*
X7880386Y-10796814D01*
X7923243Y-10796814D01*
X7951814Y-10811100D01*
X7966100Y-10839672D01*
X7966100Y-10996814D01*
X7966100Y-10839672D02*
X7980386Y-10811100D01*
X8008957Y-10796814D01*
X8051814Y-10796814D01*
X8080386Y-10811100D01*
X8094671Y-10839672D01*
X8094671Y-10996814D01*
X8237528Y-10996814D02*
X8237528Y-10796814D01*
X8237528Y-10825386D02*
X8251814Y-10811100D01*
X8280386Y-10796814D01*
X8323243Y-10796814D01*
X8351814Y-10811100D01*
X8366100Y-10839672D01*
X8366100Y-10996814D01*
X8366100Y-10839672D02*
X8380386Y-10811100D01*
X8408957Y-10796814D01*
X8451814Y-10796814D01*
X8480386Y-10811100D01*
X8494671Y-10839672D01*
X8494671Y-10996814D01*
X9080386Y-10682529D02*
X8823243Y-11068243D01*
X9466100Y-10696814D02*
X9494671Y-10696814D01*
X9523243Y-10711100D01*
X9537528Y-10725386D01*
X9551814Y-10753957D01*
X9566100Y-10811100D01*
X9566100Y-10882529D01*
X9551814Y-10939672D01*
X9537528Y-10968243D01*
X9523243Y-10982529D01*
X9494671Y-10996814D01*
X9466100Y-10996814D01*
X9437528Y-10982529D01*
X9423243Y-10968243D01*
X9408957Y-10939672D01*
X9394671Y-10882529D01*
X9394671Y-10811100D01*
X9408957Y-10753957D01*
X9423243Y-10725386D01*
X9437528Y-10711100D01*
X9466100Y-10696814D01*
X9694671Y-10968243D02*
X9708957Y-10982529D01*
X9694671Y-10996814D01*
X9680386Y-10982529D01*
X9694671Y-10968243D01*
X9694671Y-10996814D01*
X9894671Y-10696814D02*
X9923243Y-10696814D01*
X9951814Y-10711100D01*
X9966100Y-10725386D01*
X9980386Y-10753957D01*
X9994671Y-10811100D01*
X9994671Y-10882529D01*
X9980386Y-10939672D01*
X9966100Y-10968243D01*
X9951814Y-10982529D01*
X9923243Y-10996814D01*
X9894671Y-10996814D01*
X9866100Y-10982529D01*
X9851814Y-10968243D01*
X9837528Y-10939672D01*
X9823243Y-10882529D01*
X9823243Y-10811100D01*
X9837528Y-10753957D01*
X9851814Y-10725386D01*
X9866100Y-10711100D01*
X9894671Y-10696814D01*
X10137528Y-10996814D02*
X10194671Y-10996814D01*
X10223243Y-10982529D01*
X10237528Y-10968243D01*
X10266100Y-10925386D01*
X10280386Y-10868243D01*
X10280386Y-10753957D01*
X10266100Y-10725386D01*
X10251814Y-10711100D01*
X10223243Y-10696814D01*
X10166100Y-10696814D01*
X10137528Y-10711100D01*
X10123243Y-10725386D01*
X10108957Y-10753957D01*
X10108957Y-10825386D01*
X10123243Y-10853957D01*
X10137528Y-10868243D01*
X10166100Y-10882529D01*
X10223243Y-10882529D01*
X10251814Y-10868243D01*
X10266100Y-10853957D01*
X10280386Y-10825386D01*
X10551814Y-10696814D02*
X10408957Y-10696814D01*
X10394671Y-10839672D01*
X10408957Y-10825386D01*
X10437528Y-10811100D01*
X10508957Y-10811100D01*
X10537528Y-10825386D01*
X10551814Y-10839672D01*
X10566100Y-10868243D01*
X10566100Y-10939672D01*
X10551814Y-10968243D01*
X10537528Y-10982529D01*
X10508957Y-10996814D01*
X10437528Y-10996814D01*
X10408957Y-10982529D01*
X10394671Y-10968243D01*
X10680386Y-10696814D02*
X10680386Y-10753957D01*
X10794671Y-10696814D02*
X10794671Y-10753957D01*
X11237528Y-11111100D02*
X11223243Y-11096814D01*
X11194671Y-11053957D01*
X11180386Y-11025386D01*
X11166100Y-10982529D01*
X11151814Y-10911100D01*
X11151814Y-10853957D01*
X11166100Y-10782529D01*
X11180386Y-10739672D01*
X11194671Y-10711100D01*
X11223243Y-10668243D01*
X11237528Y-10653957D01*
X11337528Y-10725386D02*
X11351814Y-10711100D01*
X11380385Y-10696814D01*
X11451814Y-10696814D01*
X11480385Y-10711100D01*
X11494671Y-10725386D01*
X11508957Y-10753957D01*
X11508957Y-10782529D01*
X11494671Y-10825386D01*
X11323243Y-10996814D01*
X11508957Y-10996814D01*
X11866100Y-10996814D02*
X11866100Y-10696814D01*
X11994671Y-10996814D02*
X11994671Y-10839672D01*
X11980385Y-10811100D01*
X11951814Y-10796814D01*
X11908957Y-10796814D01*
X11880385Y-10811100D01*
X11866100Y-10825386D01*
X12180385Y-10996814D02*
X12151814Y-10982529D01*
X12137528Y-10968243D01*
X12123243Y-10939672D01*
X12123243Y-10853957D01*
X12137528Y-10825386D01*
X12151814Y-10811100D01*
X12180385Y-10796814D01*
X12223243Y-10796814D01*
X12251814Y-10811100D01*
X12266100Y-10825386D01*
X12280385Y-10853957D01*
X12280385Y-10939672D01*
X12266100Y-10968243D01*
X12251814Y-10982529D01*
X12223243Y-10996814D01*
X12180385Y-10996814D01*
X12451814Y-10996814D02*
X12423243Y-10982529D01*
X12408957Y-10953957D01*
X12408957Y-10696814D01*
X12680386Y-10982529D02*
X12651814Y-10996814D01*
X12594671Y-10996814D01*
X12566100Y-10982529D01*
X12551814Y-10953957D01*
X12551814Y-10839672D01*
X12566100Y-10811100D01*
X12594671Y-10796814D01*
X12651814Y-10796814D01*
X12680386Y-10811100D01*
X12694671Y-10839672D01*
X12694671Y-10868243D01*
X12551814Y-10896814D01*
X12808957Y-10982529D02*
X12837528Y-10996814D01*
X12894671Y-10996814D01*
X12923243Y-10982529D01*
X12937528Y-10953957D01*
X12937528Y-10939672D01*
X12923243Y-10911100D01*
X12894671Y-10896814D01*
X12851814Y-10896814D01*
X12823243Y-10882529D01*
X12808957Y-10853957D01*
X12808957Y-10839672D01*
X12823243Y-10811100D01*
X12851814Y-10796814D01*
X12894671Y-10796814D01*
X12923243Y-10811100D01*
X13037528Y-11111100D02*
X13051814Y-11096814D01*
X13080386Y-11053957D01*
X13094671Y-11025386D01*
X13108957Y-10982529D01*
X13123243Y-10911100D01*
X13123243Y-10853957D01*
X13108957Y-10782529D01*
X13094671Y-10739672D01*
X13080386Y-10711100D01*
X13051814Y-10668243D01*
X13037528Y-10653957D01*
X13580386Y-11111100D02*
X13566100Y-11096814D01*
X13537528Y-11053957D01*
X13523243Y-11025386D01*
X13508957Y-10982529D01*
X13494671Y-10911100D01*
X13494671Y-10853957D01*
X13508957Y-10782529D01*
X13523243Y-10739672D01*
X13537528Y-10711100D01*
X13566100Y-10668243D01*
X13580386Y-10653957D01*
X13694671Y-10796814D02*
X13694671Y-10996814D01*
X13694671Y-10825386D02*
X13708957Y-10811100D01*
X13737528Y-10796814D01*
X13780386Y-10796814D01*
X13808957Y-10811100D01*
X13823243Y-10839672D01*
X13823243Y-10996814D01*
X14008957Y-10996814D02*
X13980386Y-10982529D01*
X13966100Y-10968243D01*
X13951814Y-10939672D01*
X13951814Y-10853957D01*
X13966100Y-10825386D01*
X13980386Y-10811100D01*
X14008957Y-10796814D01*
X14051814Y-10796814D01*
X14080386Y-10811100D01*
X14094671Y-10825386D01*
X14108957Y-10853957D01*
X14108957Y-10939672D01*
X14094671Y-10968243D01*
X14080386Y-10982529D01*
X14051814Y-10996814D01*
X14008957Y-10996814D01*
X14194671Y-10796814D02*
X14308957Y-10796814D01*
X14237528Y-10696814D02*
X14237528Y-10953957D01*
X14251814Y-10982529D01*
X14280386Y-10996814D01*
X14308957Y-10996814D01*
X14637528Y-10796814D02*
X14637528Y-11096814D01*
X14637528Y-10811100D02*
X14666100Y-10796814D01*
X14723243Y-10796814D01*
X14751814Y-10811100D01*
X14766100Y-10825386D01*
X14780386Y-10853957D01*
X14780386Y-10939672D01*
X14766100Y-10968243D01*
X14751814Y-10982529D01*
X14723243Y-10996814D01*
X14666100Y-10996814D01*
X14637528Y-10982529D01*
X14951814Y-10996814D02*
X14923243Y-10982529D01*
X14908957Y-10953957D01*
X14908957Y-10696814D01*
X15194671Y-10996814D02*
X15194671Y-10839672D01*
X15180386Y-10811100D01*
X15151814Y-10796814D01*
X15094671Y-10796814D01*
X15066100Y-10811100D01*
X15194671Y-10982529D02*
X15166100Y-10996814D01*
X15094671Y-10996814D01*
X15066100Y-10982529D01*
X15051814Y-10953957D01*
X15051814Y-10925386D01*
X15066100Y-10896814D01*
X15094671Y-10882529D01*
X15166100Y-10882529D01*
X15194671Y-10868243D01*
X15294671Y-10796814D02*
X15408957Y-10796814D01*
X15337529Y-10696814D02*
X15337529Y-10953957D01*
X15351814Y-10982529D01*
X15380386Y-10996814D01*
X15408957Y-10996814D01*
X15623243Y-10982529D02*
X15594671Y-10996814D01*
X15537529Y-10996814D01*
X15508957Y-10982529D01*
X15494671Y-10953957D01*
X15494671Y-10839672D01*
X15508957Y-10811100D01*
X15537529Y-10796814D01*
X15594671Y-10796814D01*
X15623243Y-10811100D01*
X15637529Y-10839672D01*
X15637529Y-10868243D01*
X15494671Y-10896814D01*
X15894671Y-10996814D02*
X15894671Y-10696814D01*
X15894671Y-10982529D02*
X15866100Y-10996814D01*
X15808957Y-10996814D01*
X15780386Y-10982529D01*
X15766100Y-10968243D01*
X15751814Y-10939672D01*
X15751814Y-10853957D01*
X15766100Y-10825386D01*
X15780386Y-10811100D01*
X15808957Y-10796814D01*
X15866100Y-10796814D01*
X15894671Y-10811100D01*
X16008957Y-11111100D02*
X16023243Y-11096814D01*
X16051814Y-11053957D01*
X16066100Y-11025386D01*
X16080386Y-10982529D01*
X16094671Y-10911100D01*
X16094671Y-10853957D01*
X16080386Y-10782529D01*
X16066100Y-10739672D01*
X16051814Y-10711100D01*
X16023243Y-10668243D01*
X16008957Y-10653957D01*
X6522167Y-11363167D02*
X6522167Y-11151033D01*
X6310033Y-11151033D01*
X6310033Y-11363167D01*
X6522167Y-11363167D01*
X6808957Y-11092814D02*
X6994671Y-11092814D01*
X6894671Y-11207100D01*
X6937528Y-11207100D01*
X6966100Y-11221386D01*
X6980386Y-11235671D01*
X6994671Y-11264243D01*
X6994671Y-11335671D01*
X6980386Y-11364243D01*
X6966100Y-11378529D01*
X6937528Y-11392814D01*
X6851814Y-11392814D01*
X6823243Y-11378529D01*
X6808957Y-11364243D01*
X7123243Y-11364243D02*
X7137528Y-11378529D01*
X7123243Y-11392814D01*
X7108957Y-11378529D01*
X7123243Y-11364243D01*
X7123243Y-11392814D01*
X7323243Y-11092814D02*
X7351814Y-11092814D01*
X7380386Y-11107100D01*
X7394671Y-11121386D01*
X7408957Y-11149957D01*
X7423243Y-11207100D01*
X7423243Y-11278529D01*
X7408957Y-11335671D01*
X7394671Y-11364243D01*
X7380386Y-11378529D01*
X7351814Y-11392814D01*
X7323243Y-11392814D01*
X7294671Y-11378529D01*
X7280386Y-11364243D01*
X7266100Y-11335671D01*
X7251814Y-11278529D01*
X7251814Y-11207100D01*
X7266100Y-11149957D01*
X7280386Y-11121386D01*
X7294671Y-11107100D01*
X7323243Y-11092814D01*
X7608957Y-11092814D02*
X7637528Y-11092814D01*
X7666100Y-11107100D01*
X7680386Y-11121386D01*
X7694671Y-11149957D01*
X7708957Y-11207100D01*
X7708957Y-11278529D01*
X7694671Y-11335671D01*
X7680386Y-11364243D01*
X7666100Y-11378529D01*
X7637528Y-11392814D01*
X7608957Y-11392814D01*
X7580386Y-11378529D01*
X7566100Y-11364243D01*
X7551814Y-11335671D01*
X7537528Y-11278529D01*
X7537528Y-11207100D01*
X7551814Y-11149957D01*
X7566100Y-11121386D01*
X7580386Y-11107100D01*
X7608957Y-11092814D01*
X7837528Y-11392814D02*
X7837528Y-11192814D01*
X7837528Y-11221386D02*
X7851814Y-11207100D01*
X7880386Y-11192814D01*
X7923243Y-11192814D01*
X7951814Y-11207100D01*
X7966100Y-11235671D01*
X7966100Y-11392814D01*
X7966100Y-11235671D02*
X7980386Y-11207100D01*
X8008957Y-11192814D01*
X8051814Y-11192814D01*
X8080386Y-11207100D01*
X8094671Y-11235671D01*
X8094671Y-11392814D01*
X8237528Y-11392814D02*
X8237528Y-11192814D01*
X8237528Y-11221386D02*
X8251814Y-11207100D01*
X8280386Y-11192814D01*
X8323243Y-11192814D01*
X8351814Y-11207100D01*
X8366100Y-11235671D01*
X8366100Y-11392814D01*
X8366100Y-11235671D02*
X8380386Y-11207100D01*
X8408957Y-11192814D01*
X8451814Y-11192814D01*
X8480386Y-11207100D01*
X8494671Y-11235671D01*
X8494671Y-11392814D01*
X9080386Y-11078529D02*
X8823243Y-11464243D01*
X9466100Y-11092814D02*
X9494671Y-11092814D01*
X9523243Y-11107100D01*
X9537528Y-11121386D01*
X9551814Y-11149957D01*
X9566100Y-11207100D01*
X9566100Y-11278529D01*
X9551814Y-11335671D01*
X9537528Y-11364243D01*
X9523243Y-11378529D01*
X9494671Y-11392814D01*
X9466100Y-11392814D01*
X9437528Y-11378529D01*
X9423243Y-11364243D01*
X9408957Y-11335671D01*
X9394671Y-11278529D01*
X9394671Y-11207100D01*
X9408957Y-11149957D01*
X9423243Y-11121386D01*
X9437528Y-11107100D01*
X9466100Y-11092814D01*
X9694671Y-11364243D02*
X9708957Y-11378529D01*
X9694671Y-11392814D01*
X9680386Y-11378529D01*
X9694671Y-11364243D01*
X9694671Y-11392814D01*
X9994671Y-11392814D02*
X9823243Y-11392814D01*
X9908957Y-11392814D02*
X9908957Y-11092814D01*
X9880386Y-11135672D01*
X9851814Y-11164243D01*
X9823243Y-11178529D01*
X10280386Y-11392814D02*
X10108957Y-11392814D01*
X10194671Y-11392814D02*
X10194671Y-11092814D01*
X10166100Y-11135672D01*
X10137528Y-11164243D01*
X10108957Y-11178529D01*
X10451814Y-11221386D02*
X10423243Y-11207100D01*
X10408957Y-11192814D01*
X10394671Y-11164243D01*
X10394671Y-11149957D01*
X10408957Y-11121386D01*
X10423243Y-11107100D01*
X10451814Y-11092814D01*
X10508957Y-11092814D01*
X10537528Y-11107100D01*
X10551814Y-11121386D01*
X10566100Y-11149957D01*
X10566100Y-11164243D01*
X10551814Y-11192814D01*
X10537528Y-11207100D01*
X10508957Y-11221386D01*
X10451814Y-11221386D01*
X10423243Y-11235671D01*
X10408957Y-11249957D01*
X10394671Y-11278529D01*
X10394671Y-11335671D01*
X10408957Y-11364243D01*
X10423243Y-11378529D01*
X10451814Y-11392814D01*
X10508957Y-11392814D01*
X10537528Y-11378529D01*
X10551814Y-11364243D01*
X10566100Y-11335671D01*
X10566100Y-11278529D01*
X10551814Y-11249957D01*
X10537528Y-11235671D01*
X10508957Y-11221386D01*
X10680386Y-11092814D02*
X10680386Y-11149957D01*
X10794671Y-11092814D02*
X10794671Y-11149957D01*
X11237528Y-11507100D02*
X11223243Y-11492814D01*
X11194671Y-11449957D01*
X11180386Y-11421386D01*
X11166100Y-11378529D01*
X11151814Y-11307100D01*
X11151814Y-11249957D01*
X11166100Y-11178529D01*
X11180386Y-11135672D01*
X11194671Y-11107100D01*
X11223243Y-11064243D01*
X11237528Y-11049957D01*
X11480385Y-11092814D02*
X11423243Y-11092814D01*
X11394671Y-11107100D01*
X11380385Y-11121386D01*
X11351814Y-11164243D01*
X11337528Y-11221386D01*
X11337528Y-11335671D01*
X11351814Y-11364243D01*
X11366100Y-11378529D01*
X11394671Y-11392814D01*
X11451814Y-11392814D01*
X11480385Y-11378529D01*
X11494671Y-11364243D01*
X11508957Y-11335671D01*
X11508957Y-11264243D01*
X11494671Y-11235671D01*
X11480385Y-11221386D01*
X11451814Y-11207100D01*
X11394671Y-11207100D01*
X11366100Y-11221386D01*
X11351814Y-11235671D01*
X11337528Y-11264243D01*
X11866100Y-11392814D02*
X11866100Y-11092814D01*
X11994671Y-11392814D02*
X11994671Y-11235671D01*
X11980385Y-11207100D01*
X11951814Y-11192814D01*
X11908957Y-11192814D01*
X11880385Y-11207100D01*
X11866100Y-11221386D01*
X12180385Y-11392814D02*
X12151814Y-11378529D01*
X12137528Y-11364243D01*
X12123243Y-11335671D01*
X12123243Y-11249957D01*
X12137528Y-11221386D01*
X12151814Y-11207100D01*
X12180385Y-11192814D01*
X12223243Y-11192814D01*
X12251814Y-11207100D01*
X12266100Y-11221386D01*
X12280385Y-11249957D01*
X12280385Y-11335671D01*
X12266100Y-11364243D01*
X12251814Y-11378529D01*
X12223243Y-11392814D01*
X12180385Y-11392814D01*
X12451814Y-11392814D02*
X12423243Y-11378529D01*
X12408957Y-11349957D01*
X12408957Y-11092814D01*
X12680386Y-11378529D02*
X12651814Y-11392814D01*
X12594671Y-11392814D01*
X12566100Y-11378529D01*
X12551814Y-11349957D01*
X12551814Y-11235671D01*
X12566100Y-11207100D01*
X12594671Y-11192814D01*
X12651814Y-11192814D01*
X12680386Y-11207100D01*
X12694671Y-11235671D01*
X12694671Y-11264243D01*
X12551814Y-11292814D01*
X12808957Y-11378529D02*
X12837528Y-11392814D01*
X12894671Y-11392814D01*
X12923243Y-11378529D01*
X12937528Y-11349957D01*
X12937528Y-11335671D01*
X12923243Y-11307100D01*
X12894671Y-11292814D01*
X12851814Y-11292814D01*
X12823243Y-11278529D01*
X12808957Y-11249957D01*
X12808957Y-11235671D01*
X12823243Y-11207100D01*
X12851814Y-11192814D01*
X12894671Y-11192814D01*
X12923243Y-11207100D01*
X13037528Y-11507100D02*
X13051814Y-11492814D01*
X13080386Y-11449957D01*
X13094671Y-11421386D01*
X13108957Y-11378529D01*
X13123243Y-11307100D01*
X13123243Y-11249957D01*
X13108957Y-11178529D01*
X13094671Y-11135672D01*
X13080386Y-11107100D01*
X13051814Y-11064243D01*
X13037528Y-11049957D01*
X13580386Y-11507100D02*
X13566100Y-11492814D01*
X13537528Y-11449957D01*
X13523243Y-11421386D01*
X13508957Y-11378529D01*
X13494671Y-11307100D01*
X13494671Y-11249957D01*
X13508957Y-11178529D01*
X13523243Y-11135672D01*
X13537528Y-11107100D01*
X13566100Y-11064243D01*
X13580386Y-11049957D01*
X13694671Y-11192814D02*
X13694671Y-11392814D01*
X13694671Y-11221386D02*
X13708957Y-11207100D01*
X13737528Y-11192814D01*
X13780386Y-11192814D01*
X13808957Y-11207100D01*
X13823243Y-11235671D01*
X13823243Y-11392814D01*
X14008957Y-11392814D02*
X13980386Y-11378529D01*
X13966100Y-11364243D01*
X13951814Y-11335671D01*
X13951814Y-11249957D01*
X13966100Y-11221386D01*
X13980386Y-11207100D01*
X14008957Y-11192814D01*
X14051814Y-11192814D01*
X14080386Y-11207100D01*
X14094671Y-11221386D01*
X14108957Y-11249957D01*
X14108957Y-11335671D01*
X14094671Y-11364243D01*
X14080386Y-11378529D01*
X14051814Y-11392814D01*
X14008957Y-11392814D01*
X14194671Y-11192814D02*
X14308957Y-11192814D01*
X14237528Y-11092814D02*
X14237528Y-11349957D01*
X14251814Y-11378529D01*
X14280386Y-11392814D01*
X14308957Y-11392814D01*
X14637528Y-11192814D02*
X14637528Y-11492814D01*
X14637528Y-11207100D02*
X14666100Y-11192814D01*
X14723243Y-11192814D01*
X14751814Y-11207100D01*
X14766100Y-11221386D01*
X14780386Y-11249957D01*
X14780386Y-11335671D01*
X14766100Y-11364243D01*
X14751814Y-11378529D01*
X14723243Y-11392814D01*
X14666100Y-11392814D01*
X14637528Y-11378529D01*
X14951814Y-11392814D02*
X14923243Y-11378529D01*
X14908957Y-11349957D01*
X14908957Y-11092814D01*
X15194671Y-11392814D02*
X15194671Y-11235671D01*
X15180386Y-11207100D01*
X15151814Y-11192814D01*
X15094671Y-11192814D01*
X15066100Y-11207100D01*
X15194671Y-11378529D02*
X15166100Y-11392814D01*
X15094671Y-11392814D01*
X15066100Y-11378529D01*
X15051814Y-11349957D01*
X15051814Y-11321386D01*
X15066100Y-11292814D01*
X15094671Y-11278529D01*
X15166100Y-11278529D01*
X15194671Y-11264243D01*
X15294671Y-11192814D02*
X15408957Y-11192814D01*
X15337529Y-11092814D02*
X15337529Y-11349957D01*
X15351814Y-11378529D01*
X15380386Y-11392814D01*
X15408957Y-11392814D01*
X15623243Y-11378529D02*
X15594671Y-11392814D01*
X15537529Y-11392814D01*
X15508957Y-11378529D01*
X15494671Y-11349957D01*
X15494671Y-11235671D01*
X15508957Y-11207100D01*
X15537529Y-11192814D01*
X15594671Y-11192814D01*
X15623243Y-11207100D01*
X15637529Y-11235671D01*
X15637529Y-11264243D01*
X15494671Y-11292814D01*
X15894671Y-11392814D02*
X15894671Y-11092814D01*
X15894671Y-11378529D02*
X15866100Y-11392814D01*
X15808957Y-11392814D01*
X15780386Y-11378529D01*
X15766100Y-11364243D01*
X15751814Y-11335671D01*
X15751814Y-11249957D01*
X15766100Y-11221386D01*
X15780386Y-11207100D01*
X15808957Y-11192814D01*
X15866100Y-11192814D01*
X15894671Y-11207100D01*
X16008957Y-11507100D02*
X16023243Y-11492814D01*
X16051814Y-11449957D01*
X16066100Y-11421386D01*
X16080386Y-11378529D01*
X16094671Y-11307100D01*
X16094671Y-11249957D01*
X16080386Y-11178529D01*
X16066100Y-11135672D01*
X16051814Y-11107100D01*
X16023243Y-11064243D01*
X16008957Y-11049957D01*
X6391100Y-11862100D02*
X6566100Y-11687100D01*
X6391100Y-11512100D01*
X6216100Y-11687100D01*
X6391100Y-11862100D01*
X6808957Y-11522814D02*
X6994671Y-11522814D01*
X6894671Y-11637100D01*
X6937528Y-11637100D01*
X6966100Y-11651386D01*
X6980386Y-11665671D01*
X6994671Y-11694243D01*
X6994671Y-11765671D01*
X6980386Y-11794243D01*
X6966100Y-11808529D01*
X6937528Y-11822814D01*
X6851814Y-11822814D01*
X6823243Y-11808529D01*
X6808957Y-11794243D01*
X7123243Y-11794243D02*
X7137528Y-11808529D01*
X7123243Y-11822814D01*
X7108957Y-11808529D01*
X7123243Y-11794243D01*
X7123243Y-11822814D01*
X7408957Y-11522814D02*
X7266100Y-11522814D01*
X7251814Y-11665671D01*
X7266100Y-11651386D01*
X7294671Y-11637100D01*
X7366100Y-11637100D01*
X7394671Y-11651386D01*
X7408957Y-11665671D01*
X7423243Y-11694243D01*
X7423243Y-11765671D01*
X7408957Y-11794243D01*
X7394671Y-11808529D01*
X7366100Y-11822814D01*
X7294671Y-11822814D01*
X7266100Y-11808529D01*
X7251814Y-11794243D01*
X7608957Y-11522814D02*
X7637528Y-11522814D01*
X7666100Y-11537100D01*
X7680386Y-11551386D01*
X7694671Y-11579957D01*
X7708957Y-11637100D01*
X7708957Y-11708529D01*
X7694671Y-11765671D01*
X7680386Y-11794243D01*
X7666100Y-11808529D01*
X7637528Y-11822814D01*
X7608957Y-11822814D01*
X7580386Y-11808529D01*
X7566100Y-11794243D01*
X7551814Y-11765671D01*
X7537528Y-11708529D01*
X7537528Y-11637100D01*
X7551814Y-11579957D01*
X7566100Y-11551386D01*
X7580386Y-11537100D01*
X7608957Y-11522814D01*
X7837528Y-11822814D02*
X7837528Y-11622814D01*
X7837528Y-11651386D02*
X7851814Y-11637100D01*
X7880386Y-11622814D01*
X7923243Y-11622814D01*
X7951814Y-11637100D01*
X7966100Y-11665671D01*
X7966100Y-11822814D01*
X7966100Y-11665671D02*
X7980386Y-11637100D01*
X8008957Y-11622814D01*
X8051814Y-11622814D01*
X8080386Y-11637100D01*
X8094671Y-11665671D01*
X8094671Y-11822814D01*
X8237528Y-11822814D02*
X8237528Y-11622814D01*
X8237528Y-11651386D02*
X8251814Y-11637100D01*
X8280386Y-11622814D01*
X8323243Y-11622814D01*
X8351814Y-11637100D01*
X8366100Y-11665671D01*
X8366100Y-11822814D01*
X8366100Y-11665671D02*
X8380386Y-11637100D01*
X8408957Y-11622814D01*
X8451814Y-11622814D01*
X8480386Y-11637100D01*
X8494671Y-11665671D01*
X8494671Y-11822814D01*
X9080386Y-11508529D02*
X8823243Y-11894243D01*
X9466100Y-11522814D02*
X9494671Y-11522814D01*
X9523243Y-11537100D01*
X9537528Y-11551386D01*
X9551814Y-11579957D01*
X9566100Y-11637100D01*
X9566100Y-11708529D01*
X9551814Y-11765671D01*
X9537528Y-11794243D01*
X9523243Y-11808529D01*
X9494671Y-11822814D01*
X9466100Y-11822814D01*
X9437528Y-11808529D01*
X9423243Y-11794243D01*
X9408957Y-11765671D01*
X9394671Y-11708529D01*
X9394671Y-11637100D01*
X9408957Y-11579957D01*
X9423243Y-11551386D01*
X9437528Y-11537100D01*
X9466100Y-11522814D01*
X9694671Y-11794243D02*
X9708957Y-11808529D01*
X9694671Y-11822814D01*
X9680386Y-11808529D01*
X9694671Y-11794243D01*
X9694671Y-11822814D01*
X9994671Y-11822814D02*
X9823243Y-11822814D01*
X9908957Y-11822814D02*
X9908957Y-11522814D01*
X9880386Y-11565671D01*
X9851814Y-11594243D01*
X9823243Y-11608529D01*
X10094671Y-11522814D02*
X10280386Y-11522814D01*
X10180386Y-11637100D01*
X10223243Y-11637100D01*
X10251814Y-11651386D01*
X10266100Y-11665671D01*
X10280386Y-11694243D01*
X10280386Y-11765671D01*
X10266100Y-11794243D01*
X10251814Y-11808529D01*
X10223243Y-11822814D01*
X10137528Y-11822814D01*
X10108957Y-11808529D01*
X10094671Y-11794243D01*
X10451814Y-11651386D02*
X10423243Y-11637100D01*
X10408957Y-11622814D01*
X10394671Y-11594243D01*
X10394671Y-11579957D01*
X10408957Y-11551386D01*
X10423243Y-11537100D01*
X10451814Y-11522814D01*
X10508957Y-11522814D01*
X10537528Y-11537100D01*
X10551814Y-11551386D01*
X10566100Y-11579957D01*
X10566100Y-11594243D01*
X10551814Y-11622814D01*
X10537528Y-11637100D01*
X10508957Y-11651386D01*
X10451814Y-11651386D01*
X10423243Y-11665671D01*
X10408957Y-11679957D01*
X10394671Y-11708529D01*
X10394671Y-11765671D01*
X10408957Y-11794243D01*
X10423243Y-11808529D01*
X10451814Y-11822814D01*
X10508957Y-11822814D01*
X10537528Y-11808529D01*
X10551814Y-11794243D01*
X10566100Y-11765671D01*
X10566100Y-11708529D01*
X10551814Y-11679957D01*
X10537528Y-11665671D01*
X10508957Y-11651386D01*
X10680386Y-11522814D02*
X10680386Y-11579957D01*
X10794671Y-11522814D02*
X10794671Y-11579957D01*
X11237528Y-11937100D02*
X11223243Y-11922814D01*
X11194671Y-11879957D01*
X11180386Y-11851386D01*
X11166100Y-11808529D01*
X11151814Y-11737100D01*
X11151814Y-11679957D01*
X11166100Y-11608529D01*
X11180386Y-11565671D01*
X11194671Y-11537100D01*
X11223243Y-11494243D01*
X11237528Y-11479957D01*
X11508957Y-11822814D02*
X11337528Y-11822814D01*
X11423243Y-11822814D02*
X11423243Y-11522814D01*
X11394671Y-11565671D01*
X11366100Y-11594243D01*
X11337528Y-11608529D01*
X11866100Y-11822814D02*
X11866100Y-11522814D01*
X11994671Y-11822814D02*
X11994671Y-11665671D01*
X11980385Y-11637100D01*
X11951814Y-11622814D01*
X11908957Y-11622814D01*
X11880385Y-11637100D01*
X11866100Y-11651386D01*
X12180385Y-11822814D02*
X12151814Y-11808529D01*
X12137528Y-11794243D01*
X12123243Y-11765671D01*
X12123243Y-11679957D01*
X12137528Y-11651386D01*
X12151814Y-11637100D01*
X12180385Y-11622814D01*
X12223243Y-11622814D01*
X12251814Y-11637100D01*
X12266100Y-11651386D01*
X12280385Y-11679957D01*
X12280385Y-11765671D01*
X12266100Y-11794243D01*
X12251814Y-11808529D01*
X12223243Y-11822814D01*
X12180385Y-11822814D01*
X12451814Y-11822814D02*
X12423243Y-11808529D01*
X12408957Y-11779957D01*
X12408957Y-11522814D01*
X12680386Y-11808529D02*
X12651814Y-11822814D01*
X12594671Y-11822814D01*
X12566100Y-11808529D01*
X12551814Y-11779957D01*
X12551814Y-11665671D01*
X12566100Y-11637100D01*
X12594671Y-11622814D01*
X12651814Y-11622814D01*
X12680386Y-11637100D01*
X12694671Y-11665671D01*
X12694671Y-11694243D01*
X12551814Y-11722814D01*
X12794671Y-11937100D02*
X12808957Y-11922814D01*
X12837528Y-11879957D01*
X12851814Y-11851386D01*
X12866100Y-11808529D01*
X12880386Y-11737100D01*
X12880386Y-11679957D01*
X12866100Y-11608529D01*
X12851814Y-11565671D01*
X12837528Y-11537100D01*
X12808957Y-11494243D01*
X12794671Y-11479957D01*
X13337528Y-11937100D02*
X13323243Y-11922814D01*
X13294671Y-11879957D01*
X13280386Y-11851386D01*
X13266100Y-11808529D01*
X13251814Y-11737100D01*
X13251814Y-11679957D01*
X13266100Y-11608529D01*
X13280386Y-11565671D01*
X13294671Y-11537100D01*
X13323243Y-11494243D01*
X13337528Y-11479957D01*
X13451814Y-11622814D02*
X13451814Y-11822814D01*
X13451814Y-11651386D02*
X13466100Y-11637100D01*
X13494671Y-11622814D01*
X13537528Y-11622814D01*
X13566100Y-11637100D01*
X13580386Y-11665671D01*
X13580386Y-11822814D01*
X13766100Y-11822814D02*
X13737528Y-11808529D01*
X13723243Y-11794243D01*
X13708957Y-11765671D01*
X13708957Y-11679957D01*
X13723243Y-11651386D01*
X13737528Y-11637100D01*
X13766100Y-11622814D01*
X13808957Y-11622814D01*
X13837528Y-11637100D01*
X13851814Y-11651386D01*
X13866100Y-11679957D01*
X13866100Y-11765671D01*
X13851814Y-11794243D01*
X13837528Y-11808529D01*
X13808957Y-11822814D01*
X13766100Y-11822814D01*
X13951814Y-11622814D02*
X14066100Y-11622814D01*
X13994671Y-11522814D02*
X13994671Y-11779957D01*
X14008957Y-11808529D01*
X14037528Y-11822814D01*
X14066100Y-11822814D01*
X14394671Y-11622814D02*
X14394671Y-11922814D01*
X14394671Y-11637100D02*
X14423243Y-11622814D01*
X14480386Y-11622814D01*
X14508957Y-11637100D01*
X14523243Y-11651386D01*
X14537528Y-11679957D01*
X14537528Y-11765671D01*
X14523243Y-11794243D01*
X14508957Y-11808529D01*
X14480386Y-11822814D01*
X14423243Y-11822814D01*
X14394671Y-11808529D01*
X14708957Y-11822814D02*
X14680386Y-11808529D01*
X14666100Y-11779957D01*
X14666100Y-11522814D01*
X14951814Y-11822814D02*
X14951814Y-11665671D01*
X14937529Y-11637100D01*
X14908957Y-11622814D01*
X14851814Y-11622814D01*
X14823243Y-11637100D01*
X14951814Y-11808529D02*
X14923243Y-11822814D01*
X14851814Y-11822814D01*
X14823243Y-11808529D01*
X14808957Y-11779957D01*
X14808957Y-11751386D01*
X14823243Y-11722814D01*
X14851814Y-11708529D01*
X14923243Y-11708529D01*
X14951814Y-11694243D01*
X15051814Y-11622814D02*
X15166100Y-11622814D01*
X15094671Y-11522814D02*
X15094671Y-11779957D01*
X15108957Y-11808529D01*
X15137529Y-11822814D01*
X15166100Y-11822814D01*
X15380386Y-11808529D02*
X15351814Y-11822814D01*
X15294671Y-11822814D01*
X15266100Y-11808529D01*
X15251814Y-11779957D01*
X15251814Y-11665671D01*
X15266100Y-11637100D01*
X15294671Y-11622814D01*
X15351814Y-11622814D01*
X15380386Y-11637100D01*
X15394671Y-11665671D01*
X15394671Y-11694243D01*
X15251814Y-11722814D01*
X15651814Y-11822814D02*
X15651814Y-11522814D01*
X15651814Y-11808529D02*
X15623243Y-11822814D01*
X15566100Y-11822814D01*
X15537529Y-11808529D01*
X15523243Y-11794243D01*
X15508957Y-11765671D01*
X15508957Y-11679957D01*
X15523243Y-11651386D01*
X15537529Y-11637100D01*
X15566100Y-11622814D01*
X15623243Y-11622814D01*
X15651814Y-11637100D01*
X15766100Y-11937100D02*
X15780386Y-11922814D01*
X15808957Y-11879957D01*
X15823243Y-11851386D01*
X15837529Y-11808529D01*
X15851814Y-11737100D01*
X15851814Y-11679957D01*
X15837529Y-11608529D01*
X15823243Y-11565671D01*
X15808957Y-11537100D01*
X15780386Y-11494243D01*
X15766100Y-11479957D01*
X6210500Y-11989300D02*
X6566100Y-12344900D01*
X6566100Y-11989300D02*
X6210500Y-12344900D01*
X6566100Y-12167100D02*
G75*
G03X6566100Y-12167100I-177800J0D01*
G01*
X6808957Y-12002814D02*
X6994671Y-12002814D01*
X6894671Y-12117100D01*
X6937528Y-12117100D01*
X6966100Y-12131386D01*
X6980386Y-12145671D01*
X6994671Y-12174243D01*
X6994671Y-12245671D01*
X6980386Y-12274243D01*
X6966100Y-12288529D01*
X6937528Y-12302814D01*
X6851814Y-12302814D01*
X6823243Y-12288529D01*
X6808957Y-12274243D01*
X7123243Y-12274243D02*
X7137528Y-12288529D01*
X7123243Y-12302814D01*
X7108957Y-12288529D01*
X7123243Y-12274243D01*
X7123243Y-12302814D01*
X7408957Y-12002814D02*
X7266100Y-12002814D01*
X7251814Y-12145671D01*
X7266100Y-12131386D01*
X7294671Y-12117100D01*
X7366100Y-12117100D01*
X7394671Y-12131386D01*
X7408957Y-12145671D01*
X7423243Y-12174243D01*
X7423243Y-12245671D01*
X7408957Y-12274243D01*
X7394671Y-12288529D01*
X7366100Y-12302814D01*
X7294671Y-12302814D01*
X7266100Y-12288529D01*
X7251814Y-12274243D01*
X7680386Y-12002814D02*
X7623243Y-12002814D01*
X7594671Y-12017100D01*
X7580386Y-12031386D01*
X7551814Y-12074243D01*
X7537528Y-12131386D01*
X7537528Y-12245671D01*
X7551814Y-12274243D01*
X7566100Y-12288529D01*
X7594671Y-12302814D01*
X7651814Y-12302814D01*
X7680386Y-12288529D01*
X7694671Y-12274243D01*
X7708957Y-12245671D01*
X7708957Y-12174243D01*
X7694671Y-12145671D01*
X7680386Y-12131386D01*
X7651814Y-12117100D01*
X7594671Y-12117100D01*
X7566100Y-12131386D01*
X7551814Y-12145671D01*
X7537528Y-12174243D01*
X7837528Y-12302814D02*
X7837528Y-12102814D01*
X7837528Y-12131386D02*
X7851814Y-12117100D01*
X7880386Y-12102814D01*
X7923243Y-12102814D01*
X7951814Y-12117100D01*
X7966100Y-12145671D01*
X7966100Y-12302814D01*
X7966100Y-12145671D02*
X7980386Y-12117100D01*
X8008957Y-12102814D01*
X8051814Y-12102814D01*
X8080386Y-12117100D01*
X8094671Y-12145671D01*
X8094671Y-12302814D01*
X8237528Y-12302814D02*
X8237528Y-12102814D01*
X8237528Y-12131386D02*
X8251814Y-12117100D01*
X8280386Y-12102814D01*
X8323243Y-12102814D01*
X8351814Y-12117100D01*
X8366100Y-12145671D01*
X8366100Y-12302814D01*
X8366100Y-12145671D02*
X8380386Y-12117100D01*
X8408957Y-12102814D01*
X8451814Y-12102814D01*
X8480386Y-12117100D01*
X8494671Y-12145671D01*
X8494671Y-12302814D01*
X9080386Y-11988529D02*
X8823243Y-12374243D01*
X9466100Y-12002814D02*
X9494671Y-12002814D01*
X9523243Y-12017100D01*
X9537528Y-12031386D01*
X9551814Y-12059957D01*
X9566100Y-12117100D01*
X9566100Y-12188529D01*
X9551814Y-12245671D01*
X9537528Y-12274243D01*
X9523243Y-12288529D01*
X9494671Y-12302814D01*
X9466100Y-12302814D01*
X9437528Y-12288529D01*
X9423243Y-12274243D01*
X9408957Y-12245671D01*
X9394671Y-12188529D01*
X9394671Y-12117100D01*
X9408957Y-12059957D01*
X9423243Y-12031386D01*
X9437528Y-12017100D01*
X9466100Y-12002814D01*
X9694671Y-12274243D02*
X9708957Y-12288529D01*
X9694671Y-12302814D01*
X9680386Y-12288529D01*
X9694671Y-12274243D01*
X9694671Y-12302814D01*
X9994671Y-12302814D02*
X9823243Y-12302814D01*
X9908957Y-12302814D02*
X9908957Y-12002814D01*
X9880386Y-12045671D01*
X9851814Y-12074243D01*
X9823243Y-12088529D01*
X10251814Y-12102814D02*
X10251814Y-12302814D01*
X10180386Y-11988529D02*
X10108957Y-12202814D01*
X10294671Y-12202814D01*
X10466100Y-12002814D02*
X10494671Y-12002814D01*
X10523243Y-12017100D01*
X10537528Y-12031386D01*
X10551814Y-12059957D01*
X10566100Y-12117100D01*
X10566100Y-12188529D01*
X10551814Y-12245671D01*
X10537528Y-12274243D01*
X10523243Y-12288529D01*
X10494671Y-12302814D01*
X10466100Y-12302814D01*
X10437528Y-12288529D01*
X10423243Y-12274243D01*
X10408957Y-12245671D01*
X10394671Y-12188529D01*
X10394671Y-12117100D01*
X10408957Y-12059957D01*
X10423243Y-12031386D01*
X10437528Y-12017100D01*
X10466100Y-12002814D01*
X10680386Y-12002814D02*
X10680386Y-12059957D01*
X10794671Y-12002814D02*
X10794671Y-12059957D01*
X11237528Y-12417100D02*
X11223243Y-12402814D01*
X11194671Y-12359957D01*
X11180386Y-12331386D01*
X11166100Y-12288529D01*
X11151814Y-12217100D01*
X11151814Y-12159957D01*
X11166100Y-12088529D01*
X11180386Y-12045671D01*
X11194671Y-12017100D01*
X11223243Y-11974243D01*
X11237528Y-11959957D01*
X11508957Y-12302814D02*
X11337528Y-12302814D01*
X11423243Y-12302814D02*
X11423243Y-12002814D01*
X11394671Y-12045671D01*
X11366100Y-12074243D01*
X11337528Y-12088529D01*
X11866100Y-12302814D02*
X11866100Y-12002814D01*
X11994671Y-12302814D02*
X11994671Y-12145671D01*
X11980385Y-12117100D01*
X11951814Y-12102814D01*
X11908957Y-12102814D01*
X11880385Y-12117100D01*
X11866100Y-12131386D01*
X12180385Y-12302814D02*
X12151814Y-12288529D01*
X12137528Y-12274243D01*
X12123243Y-12245671D01*
X12123243Y-12159957D01*
X12137528Y-12131386D01*
X12151814Y-12117100D01*
X12180385Y-12102814D01*
X12223243Y-12102814D01*
X12251814Y-12117100D01*
X12266100Y-12131386D01*
X12280385Y-12159957D01*
X12280385Y-12245671D01*
X12266100Y-12274243D01*
X12251814Y-12288529D01*
X12223243Y-12302814D01*
X12180385Y-12302814D01*
X12451814Y-12302814D02*
X12423243Y-12288529D01*
X12408957Y-12259957D01*
X12408957Y-12002814D01*
X12680386Y-12288529D02*
X12651814Y-12302814D01*
X12594671Y-12302814D01*
X12566100Y-12288529D01*
X12551814Y-12259957D01*
X12551814Y-12145671D01*
X12566100Y-12117100D01*
X12594671Y-12102814D01*
X12651814Y-12102814D01*
X12680386Y-12117100D01*
X12694671Y-12145671D01*
X12694671Y-12174243D01*
X12551814Y-12202814D01*
X12794671Y-12417100D02*
X12808957Y-12402814D01*
X12837528Y-12359957D01*
X12851814Y-12331386D01*
X12866100Y-12288529D01*
X12880386Y-12217100D01*
X12880386Y-12159957D01*
X12866100Y-12088529D01*
X12851814Y-12045671D01*
X12837528Y-12017100D01*
X12808957Y-11974243D01*
X12794671Y-11959957D01*
X13337528Y-12417100D02*
X13323243Y-12402814D01*
X13294671Y-12359957D01*
X13280386Y-12331386D01*
X13266100Y-12288529D01*
X13251814Y-12217100D01*
X13251814Y-12159957D01*
X13266100Y-12088529D01*
X13280386Y-12045671D01*
X13294671Y-12017100D01*
X13323243Y-11974243D01*
X13337528Y-11959957D01*
X13451814Y-12102814D02*
X13451814Y-12302814D01*
X13451814Y-12131386D02*
X13466100Y-12117100D01*
X13494671Y-12102814D01*
X13537528Y-12102814D01*
X13566100Y-12117100D01*
X13580386Y-12145671D01*
X13580386Y-12302814D01*
X13766100Y-12302814D02*
X13737528Y-12288529D01*
X13723243Y-12274243D01*
X13708957Y-12245671D01*
X13708957Y-12159957D01*
X13723243Y-12131386D01*
X13737528Y-12117100D01*
X13766100Y-12102814D01*
X13808957Y-12102814D01*
X13837528Y-12117100D01*
X13851814Y-12131386D01*
X13866100Y-12159957D01*
X13866100Y-12245671D01*
X13851814Y-12274243D01*
X13837528Y-12288529D01*
X13808957Y-12302814D01*
X13766100Y-12302814D01*
X13951814Y-12102814D02*
X14066100Y-12102814D01*
X13994671Y-12002814D02*
X13994671Y-12259957D01*
X14008957Y-12288529D01*
X14037528Y-12302814D01*
X14066100Y-12302814D01*
X14394671Y-12102814D02*
X14394671Y-12402814D01*
X14394671Y-12117100D02*
X14423243Y-12102814D01*
X14480386Y-12102814D01*
X14508957Y-12117100D01*
X14523243Y-12131386D01*
X14537528Y-12159957D01*
X14537528Y-12245671D01*
X14523243Y-12274243D01*
X14508957Y-12288529D01*
X14480386Y-12302814D01*
X14423243Y-12302814D01*
X14394671Y-12288529D01*
X14708957Y-12302814D02*
X14680386Y-12288529D01*
X14666100Y-12259957D01*
X14666100Y-12002814D01*
X14951814Y-12302814D02*
X14951814Y-12145671D01*
X14937529Y-12117100D01*
X14908957Y-12102814D01*
X14851814Y-12102814D01*
X14823243Y-12117100D01*
X14951814Y-12288529D02*
X14923243Y-12302814D01*
X14851814Y-12302814D01*
X14823243Y-12288529D01*
X14808957Y-12259957D01*
X14808957Y-12231386D01*
X14823243Y-12202814D01*
X14851814Y-12188529D01*
X14923243Y-12188529D01*
X14951814Y-12174243D01*
X15051814Y-12102814D02*
X15166100Y-12102814D01*
X15094671Y-12002814D02*
X15094671Y-12259957D01*
X15108957Y-12288529D01*
X15137529Y-12302814D01*
X15166100Y-12302814D01*
X15380386Y-12288529D02*
X15351814Y-12302814D01*
X15294671Y-12302814D01*
X15266100Y-12288529D01*
X15251814Y-12259957D01*
X15251814Y-12145671D01*
X15266100Y-12117100D01*
X15294671Y-12102814D01*
X15351814Y-12102814D01*
X15380386Y-12117100D01*
X15394671Y-12145671D01*
X15394671Y-12174243D01*
X15251814Y-12202814D01*
X15651814Y-12302814D02*
X15651814Y-12002814D01*
X15651814Y-12288529D02*
X15623243Y-12302814D01*
X15566100Y-12302814D01*
X15537529Y-12288529D01*
X15523243Y-12274243D01*
X15508957Y-12245671D01*
X15508957Y-12159957D01*
X15523243Y-12131386D01*
X15537529Y-12117100D01*
X15566100Y-12102814D01*
X15623243Y-12102814D01*
X15651814Y-12117100D01*
X15766100Y-12417100D02*
X15780386Y-12402814D01*
X15808957Y-12359957D01*
X15823243Y-12331386D01*
X15837529Y-12288529D01*
X15851814Y-12217100D01*
X15851814Y-12159957D01*
X15837529Y-12088529D01*
X15823243Y-12045671D01*
X15808957Y-12017100D01*
X15780386Y-11974243D01*
X15766100Y-11959957D01*
M02*
