%FSLAX45Y45*%
G04 Gerber Fmt 4.5, Leading zero omitted, Abs format (unit mm)*
G04 Created by KiCad (PCBNEW 4.0.6) date 03/06/18 07:36:07*
%MOMM*%
%LPD*%
G01*
G04 APERTURE LIST*
%ADD10C,0.127000*%
%ADD11C,0.150000*%
%ADD12C,0.200000*%
%ADD13C,0.300000*%
G04 APERTURE END LIST*
D10*
D11*
X6573600Y-9101600D02*
X23573600Y-9101600D01*
X6573600Y-9101600D02*
X7623600Y-9101600D01*
X22523600Y-2743200D02*
X23573600Y-2743200D01*
X22523600Y-2743200D02*
X22523600Y-3443200D01*
X23573600Y-2743200D02*
X23573600Y-9101600D01*
X7623600Y-3443200D02*
X7623600Y-2743200D01*
X6573600Y-2743200D02*
X7623600Y-2743200D01*
X6573600Y-2743200D02*
X6573600Y-9101600D01*
X7623600Y-3443200D02*
X22523600Y-3443200D01*
D12*
X9301800Y-5517200D02*
X9341800Y-5557200D01*
X9341800Y-5517200D02*
X9301800Y-5557200D01*
X9301800Y-5669600D02*
X9341800Y-5709600D01*
X9341800Y-5669600D02*
X9301800Y-5709600D01*
X9657400Y-5872800D02*
X9697400Y-5912800D01*
X9697400Y-5872800D02*
X9657400Y-5912800D01*
X9809800Y-5669600D02*
X9849800Y-5709600D01*
X9849800Y-5669600D02*
X9809800Y-5709600D01*
X9809800Y-5822000D02*
X9849800Y-5862000D01*
X9849800Y-5822000D02*
X9809800Y-5862000D01*
X9809800Y-6482400D02*
X9849800Y-6522400D01*
X9849800Y-6482400D02*
X9809800Y-6522400D01*
X10673400Y-6965000D02*
X10713400Y-7005000D01*
X10713400Y-6965000D02*
X10673400Y-7005000D01*
X10952800Y-6965000D02*
X10992800Y-7005000D01*
X10992800Y-6965000D02*
X10952800Y-7005000D01*
X14559600Y-5441000D02*
X14599600Y-5481000D01*
X14599600Y-5441000D02*
X14559600Y-5481000D01*
X15347000Y-5009200D02*
X15387000Y-5049200D01*
X15387000Y-5009200D02*
X15347000Y-5049200D01*
X15347000Y-5161600D02*
X15387000Y-5201600D01*
X15387000Y-5161600D02*
X15347000Y-5201600D01*
X15499400Y-5009200D02*
X15539400Y-5049200D01*
X15539400Y-5009200D02*
X15499400Y-5049200D01*
X15499400Y-5161600D02*
X15539400Y-5201600D01*
X15539400Y-5161600D02*
X15499400Y-5201600D01*
X15677200Y-7117400D02*
X15717200Y-7157400D01*
X15717200Y-7117400D02*
X15677200Y-7157400D01*
X15880400Y-4069400D02*
X15920400Y-4109400D01*
X15920400Y-4069400D02*
X15880400Y-4109400D01*
X15956600Y-5364800D02*
X15996600Y-5404800D01*
X15996600Y-5364800D02*
X15956600Y-5404800D01*
X16718600Y-5110800D02*
X16758600Y-5150800D01*
X16758600Y-5110800D02*
X16718600Y-5150800D01*
X17150400Y-5237800D02*
X17190400Y-5277800D01*
X17190400Y-5237800D02*
X17150400Y-5277800D01*
X17556800Y-4933000D02*
X17596800Y-4973000D01*
X17596800Y-4933000D02*
X17556800Y-4973000D01*
X17556800Y-5441000D02*
X17596800Y-5481000D01*
X17596800Y-5441000D02*
X17556800Y-5481000D01*
X17810800Y-5822000D02*
X17850800Y-5862000D01*
X17850800Y-5822000D02*
X17810800Y-5862000D01*
X18141000Y-5364800D02*
X18181000Y-5404800D01*
X18181000Y-5364800D02*
X18141000Y-5404800D01*
X18420400Y-6812600D02*
X18460400Y-6852600D01*
X18460400Y-6812600D02*
X18420400Y-6852600D01*
X18420400Y-7041200D02*
X18460400Y-7081200D01*
X18460400Y-7041200D02*
X18420400Y-7081200D01*
X18420400Y-7269800D02*
X18460400Y-7309800D01*
X18460400Y-7269800D02*
X18420400Y-7309800D01*
X18420400Y-7498400D02*
X18460400Y-7538400D01*
X18460400Y-7498400D02*
X18420400Y-7538400D01*
X18420400Y-7727000D02*
X18460400Y-7767000D01*
X18460400Y-7727000D02*
X18420400Y-7767000D01*
X18420400Y-7981000D02*
X18460400Y-8021000D01*
X18460400Y-7981000D02*
X18420400Y-8021000D01*
X18420400Y-8209600D02*
X18460400Y-8249600D01*
X18460400Y-8209600D02*
X18420400Y-8249600D01*
X18420400Y-8438200D02*
X18460400Y-8478200D01*
X18460400Y-8438200D02*
X18420400Y-8478200D01*
X18547400Y-4907600D02*
X18587400Y-4947600D01*
X18587400Y-4907600D02*
X18547400Y-4947600D01*
X18674400Y-6914200D02*
X18714400Y-6954200D01*
X18714400Y-6914200D02*
X18674400Y-6954200D01*
X18674400Y-7142800D02*
X18714400Y-7182800D01*
X18714400Y-7142800D02*
X18674400Y-7182800D01*
X18674400Y-7371400D02*
X18714400Y-7411400D01*
X18714400Y-7371400D02*
X18674400Y-7411400D01*
X18674400Y-7600000D02*
X18714400Y-7640000D01*
X18714400Y-7600000D02*
X18674400Y-7640000D01*
X18674400Y-7828600D02*
X18714400Y-7868600D01*
X18714400Y-7828600D02*
X18674400Y-7868600D01*
X18674400Y-8057200D02*
X18714400Y-8097200D01*
X18714400Y-8057200D02*
X18674400Y-8097200D01*
X18674400Y-8285800D02*
X18714400Y-8325800D01*
X18714400Y-8285800D02*
X18674400Y-8325800D01*
X18801400Y-5085400D02*
X18841400Y-5125400D01*
X18841400Y-5085400D02*
X18801400Y-5125400D01*
X18928400Y-6812600D02*
X18968400Y-6852600D01*
X18968400Y-6812600D02*
X18928400Y-6852600D01*
X18928400Y-7041200D02*
X18968400Y-7081200D01*
X18968400Y-7041200D02*
X18928400Y-7081200D01*
X18928400Y-7269800D02*
X18968400Y-7309800D01*
X18968400Y-7269800D02*
X18928400Y-7309800D01*
X18928400Y-7498400D02*
X18968400Y-7538400D01*
X18968400Y-7498400D02*
X18928400Y-7538400D01*
X18928400Y-7727000D02*
X18968400Y-7767000D01*
X18968400Y-7727000D02*
X18928400Y-7767000D01*
X18928400Y-7955600D02*
X18968400Y-7995600D01*
X18968400Y-7955600D02*
X18928400Y-7995600D01*
X18928400Y-8184200D02*
X18968400Y-8224200D01*
X18968400Y-8184200D02*
X18928400Y-8224200D01*
X18928400Y-8438200D02*
X18968400Y-8478200D01*
X18968400Y-8438200D02*
X18928400Y-8478200D01*
X19182400Y-6914200D02*
X19222400Y-6954200D01*
X19222400Y-6914200D02*
X19182400Y-6954200D01*
X19182400Y-7142800D02*
X19222400Y-7182800D01*
X19222400Y-7142800D02*
X19182400Y-7182800D01*
X19182400Y-7371400D02*
X19222400Y-7411400D01*
X19222400Y-7371400D02*
X19182400Y-7411400D01*
X19182400Y-7600000D02*
X19222400Y-7640000D01*
X19222400Y-7600000D02*
X19182400Y-7640000D01*
X19182400Y-8285800D02*
X19222400Y-8325800D01*
X19222400Y-8285800D02*
X19182400Y-8325800D01*
X19436400Y-6812600D02*
X19476400Y-6852600D01*
X19476400Y-6812600D02*
X19436400Y-6852600D01*
X19436400Y-7041200D02*
X19476400Y-7081200D01*
X19476400Y-7041200D02*
X19436400Y-7081200D01*
X19436400Y-7269800D02*
X19476400Y-7309800D01*
X19476400Y-7269800D02*
X19436400Y-7309800D01*
X19436400Y-7498400D02*
X19476400Y-7538400D01*
X19476400Y-7498400D02*
X19436400Y-7538400D01*
X19436400Y-8438200D02*
X19476400Y-8478200D01*
X19476400Y-8438200D02*
X19436400Y-8478200D01*
X19690400Y-6914200D02*
X19730400Y-6954200D01*
X19730400Y-6914200D02*
X19690400Y-6954200D01*
X19690400Y-7142800D02*
X19730400Y-7182800D01*
X19730400Y-7142800D02*
X19690400Y-7182800D01*
X19690400Y-7371400D02*
X19730400Y-7411400D01*
X19730400Y-7371400D02*
X19690400Y-7411400D01*
X19690400Y-7600000D02*
X19730400Y-7640000D01*
X19730400Y-7600000D02*
X19690400Y-7640000D01*
X19690400Y-7828600D02*
X19730400Y-7868600D01*
X19730400Y-7828600D02*
X19690400Y-7868600D01*
X19690400Y-8057200D02*
X19730400Y-8097200D01*
X19730400Y-8057200D02*
X19690400Y-8097200D01*
X19690400Y-8285800D02*
X19730400Y-8325800D01*
X19730400Y-8285800D02*
X19690400Y-8325800D01*
X19944400Y-6812600D02*
X19984400Y-6852600D01*
X19984400Y-6812600D02*
X19944400Y-6852600D01*
X19944400Y-7041200D02*
X19984400Y-7081200D01*
X19984400Y-7041200D02*
X19944400Y-7081200D01*
X19944400Y-7269800D02*
X19984400Y-7309800D01*
X19984400Y-7269800D02*
X19944400Y-7309800D01*
X19944400Y-7498400D02*
X19984400Y-7538400D01*
X19984400Y-7498400D02*
X19944400Y-7538400D01*
X19944400Y-7727000D02*
X19984400Y-7767000D01*
X19984400Y-7727000D02*
X19944400Y-7767000D01*
X19944400Y-7955600D02*
X19984400Y-7995600D01*
X19984400Y-7955600D02*
X19944400Y-7995600D01*
X19944400Y-8184200D02*
X19984400Y-8224200D01*
X19984400Y-8184200D02*
X19944400Y-8224200D01*
X19944400Y-8412800D02*
X19984400Y-8452800D01*
X19984400Y-8412800D02*
X19944400Y-8452800D01*
X20147600Y-5085400D02*
X20187600Y-5125400D01*
X20187600Y-5085400D02*
X20147600Y-5125400D01*
X20198400Y-6914200D02*
X20238400Y-6954200D01*
X20238400Y-6914200D02*
X20198400Y-6954200D01*
X20198400Y-7142800D02*
X20238400Y-7182800D01*
X20238400Y-7142800D02*
X20198400Y-7182800D01*
X20198400Y-7371400D02*
X20238400Y-7411400D01*
X20238400Y-7371400D02*
X20198400Y-7411400D01*
X20198400Y-7600000D02*
X20238400Y-7640000D01*
X20238400Y-7600000D02*
X20198400Y-7640000D01*
X20198400Y-7828600D02*
X20238400Y-7868600D01*
X20238400Y-7828600D02*
X20198400Y-7868600D01*
X20198400Y-8057200D02*
X20238400Y-8097200D01*
X20238400Y-8057200D02*
X20198400Y-8097200D01*
X20198400Y-8285800D02*
X20238400Y-8325800D01*
X20238400Y-8285800D02*
X20198400Y-8325800D01*
X20604800Y-3790000D02*
X20644800Y-3830000D01*
X20644800Y-3790000D02*
X20604800Y-3830000D01*
X20604800Y-4044000D02*
X20644800Y-4084000D01*
X20644800Y-4044000D02*
X20604800Y-4084000D01*
X20604800Y-4298000D02*
X20644800Y-4338000D01*
X20644800Y-4298000D02*
X20604800Y-4338000D01*
X20604800Y-4552000D02*
X20644800Y-4592000D01*
X20644800Y-4552000D02*
X20604800Y-4592000D01*
X20604800Y-4806000D02*
X20644800Y-4846000D01*
X20644800Y-4806000D02*
X20604800Y-4846000D01*
X22281200Y-7955600D02*
X22321200Y-7995600D01*
X22321200Y-7955600D02*
X22281200Y-7995600D01*
X22738400Y-7346000D02*
X22778400Y-7386000D01*
X22778400Y-7346000D02*
X22738400Y-7386000D01*
X14721200Y-3911600D02*
G75*
G03X14721200Y-3911600I-40000J0D01*
G01*
X14721200Y-4165600D02*
G75*
G03X14721200Y-4165600I-40000J0D01*
G01*
X14721200Y-4419600D02*
G75*
G03X14721200Y-4419600I-40000J0D01*
G01*
X14721200Y-4673600D02*
G75*
G03X14721200Y-4673600I-40000J0D01*
G01*
X14721200Y-6096000D02*
G75*
G03X14721200Y-6096000I-40000J0D01*
G01*
X14721200Y-6350000D02*
G75*
G03X14721200Y-6350000I-40000J0D01*
G01*
X14721200Y-6604000D02*
G75*
G03X14721200Y-6604000I-40000J0D01*
G01*
X15483200Y-3911600D02*
G75*
G03X15483200Y-3911600I-40000J0D01*
G01*
X15483200Y-4165600D02*
G75*
G03X15483200Y-4165600I-40000J0D01*
G01*
X15483200Y-4419600D02*
G75*
G03X15483200Y-4419600I-40000J0D01*
G01*
X15483200Y-4673600D02*
G75*
G03X15483200Y-4673600I-40000J0D01*
G01*
X15483200Y-6096000D02*
G75*
G03X15483200Y-6096000I-40000J0D01*
G01*
X15483200Y-6350000D02*
G75*
G03X15483200Y-6350000I-40000J0D01*
G01*
X15483200Y-6604000D02*
G75*
G03X15483200Y-6604000I-40000J0D01*
G01*
X19267800Y-3810000D02*
G75*
G03X19267800Y-3810000I-40000J0D01*
G01*
X19267800Y-4064000D02*
G75*
G03X19267800Y-4064000I-40000J0D01*
G01*
X19267800Y-4318000D02*
G75*
G03X19267800Y-4318000I-40000J0D01*
G01*
X19267800Y-4572000D02*
G75*
G03X19267800Y-4572000I-40000J0D01*
G01*
X19267800Y-4826000D02*
G75*
G03X19267800Y-4826000I-40000J0D01*
G01*
X20029800Y-3810000D02*
G75*
G03X20029800Y-3810000I-40000J0D01*
G01*
X20029800Y-4064000D02*
G75*
G03X20029800Y-4064000I-40000J0D01*
G01*
X20029800Y-4318000D02*
G75*
G03X20029800Y-4318000I-40000J0D01*
G01*
X20029800Y-4572000D02*
G75*
G03X20029800Y-4572000I-40000J0D01*
G01*
X20029800Y-4826000D02*
G75*
G03X20029800Y-4826000I-40000J0D01*
G01*
X16195040Y-3698875D02*
X16195040Y-3778885D01*
X16155035Y-3738880D02*
X16235045Y-3738880D01*
X16195040Y-4349115D02*
X16195040Y-4429125D01*
X16155035Y-4389120D02*
X16235045Y-4389120D01*
X16295116Y-3899027D02*
X16295116Y-3979037D01*
X16255111Y-3939032D02*
X16335121Y-3939032D01*
X16295116Y-4148963D02*
X16295116Y-4228973D01*
X16255111Y-4188968D02*
X16335121Y-4188968D01*
X16394938Y-3698875D02*
X16394938Y-3778885D01*
X16354933Y-3738880D02*
X16434943Y-3738880D01*
X16394938Y-4349115D02*
X16394938Y-4429125D01*
X16354933Y-4389120D02*
X16434943Y-4389120D01*
X16495014Y-3899027D02*
X16495014Y-3979037D01*
X16455009Y-3939032D02*
X16535019Y-3939032D01*
X16495014Y-4148963D02*
X16495014Y-4228973D01*
X16455009Y-4188968D02*
X16535019Y-4188968D01*
X16595090Y-3698875D02*
X16595090Y-3778885D01*
X16555085Y-3738880D02*
X16635095Y-3738880D01*
X16595090Y-4349115D02*
X16595090Y-4429125D01*
X16555085Y-4389120D02*
X16635095Y-4389120D01*
X16694912Y-3899027D02*
X16694912Y-3979037D01*
X16654907Y-3939032D02*
X16734917Y-3939032D01*
X16694912Y-4148963D02*
X16694912Y-4228973D01*
X16654907Y-4188968D02*
X16734917Y-4188968D01*
X16794988Y-3698875D02*
X16794988Y-3778885D01*
X16754983Y-3738880D02*
X16834993Y-3738880D01*
X16794988Y-4349115D02*
X16794988Y-4429125D01*
X16754983Y-4389120D02*
X16834993Y-4389120D01*
X17094962Y-3899027D02*
X17094962Y-3979037D01*
X17054957Y-3939032D02*
X17134967Y-3939032D01*
X17094962Y-4148963D02*
X17094962Y-4228973D01*
X17054957Y-4188968D02*
X17134967Y-4188968D01*
X17195038Y-3698875D02*
X17195038Y-3778885D01*
X17155033Y-3738880D02*
X17235043Y-3738880D01*
X17195038Y-4349115D02*
X17195038Y-4429125D01*
X17155033Y-4389120D02*
X17235043Y-4389120D01*
X17295114Y-3899027D02*
X17295114Y-3979037D01*
X17255109Y-3939032D02*
X17335119Y-3939032D01*
X17295114Y-4148963D02*
X17295114Y-4228973D01*
X17255109Y-4188968D02*
X17335119Y-4188968D01*
X17394936Y-3698875D02*
X17394936Y-3778885D01*
X17354931Y-3738880D02*
X17434941Y-3738880D01*
X17394936Y-4349115D02*
X17394936Y-4429125D01*
X17354931Y-4389120D02*
X17434941Y-4389120D01*
X17495012Y-3899027D02*
X17495012Y-3979037D01*
X17455007Y-3939032D02*
X17535017Y-3939032D01*
X17495012Y-4148963D02*
X17495012Y-4228973D01*
X17455007Y-4188968D02*
X17535017Y-4188968D01*
X17595088Y-3698875D02*
X17595088Y-3778885D01*
X17555083Y-3738880D02*
X17635093Y-3738880D01*
X17595088Y-4349115D02*
X17595088Y-4429125D01*
X17555083Y-4389120D02*
X17635093Y-4389120D01*
X17694910Y-3899027D02*
X17694910Y-3979037D01*
X17654905Y-3939032D02*
X17734915Y-3939032D01*
X17694910Y-4148963D02*
X17694910Y-4228973D01*
X17654905Y-4188968D02*
X17734915Y-4188968D01*
X17794986Y-3698875D02*
X17794986Y-3778885D01*
X17754981Y-3738880D02*
X17834991Y-3738880D01*
X17794986Y-4349115D02*
X17794986Y-4429125D01*
X17754981Y-4389120D02*
X17834991Y-4389120D01*
X17895062Y-3899027D02*
X17895062Y-3979037D01*
X17855057Y-3939032D02*
X17935067Y-3939032D01*
X17895062Y-4148963D02*
X17895062Y-4228973D01*
X17855057Y-4188968D02*
X17935067Y-4188968D01*
X17994884Y-3698875D02*
X17994884Y-3778885D01*
X17954879Y-3738880D02*
X18034889Y-3738880D01*
X17994884Y-4349115D02*
X17994884Y-4429125D01*
X17954879Y-4389120D02*
X18034889Y-4389120D01*
X18094960Y-3899027D02*
X18094960Y-3979037D01*
X18054955Y-3939032D02*
X18134965Y-3939032D01*
X18094960Y-4148963D02*
X18094960Y-4228973D01*
X18054955Y-4188968D02*
X18134965Y-4188968D01*
X8696756Y-4150156D02*
X8696756Y-4079444D01*
X8626044Y-4079444D01*
X8626044Y-4150156D01*
X8696756Y-4150156D01*
X8696756Y-4404156D02*
X8696756Y-4333444D01*
X8626044Y-4333444D01*
X8626044Y-4404156D01*
X8696756Y-4404156D01*
X8696756Y-5089956D02*
X8696756Y-5019244D01*
X8626044Y-5019244D01*
X8626044Y-5089956D01*
X8696756Y-5089956D01*
X8696756Y-5343956D02*
X8696756Y-5273244D01*
X8626044Y-5273244D01*
X8626044Y-5343956D01*
X8696756Y-5343956D01*
X8950756Y-4150156D02*
X8950756Y-4079444D01*
X8880044Y-4079444D01*
X8880044Y-4150156D01*
X8950756Y-4150156D01*
X8950756Y-4404156D02*
X8950756Y-4333444D01*
X8880044Y-4333444D01*
X8880044Y-4404156D01*
X8950756Y-4404156D01*
X8950756Y-5089956D02*
X8950756Y-5019244D01*
X8880044Y-5019244D01*
X8880044Y-5089956D01*
X8950756Y-5089956D01*
X8950756Y-5343956D02*
X8950756Y-5273244D01*
X8880044Y-5273244D01*
X8880044Y-5343956D01*
X8950756Y-5343956D01*
X9204756Y-4150156D02*
X9204756Y-4079444D01*
X9134044Y-4079444D01*
X9134044Y-4150156D01*
X9204756Y-4150156D01*
X9204756Y-4404156D02*
X9204756Y-4333444D01*
X9134044Y-4333444D01*
X9134044Y-4404156D01*
X9204756Y-4404156D01*
X9204756Y-5089956D02*
X9204756Y-5019244D01*
X9134044Y-5019244D01*
X9134044Y-5089956D01*
X9204756Y-5089956D01*
X9204756Y-5343956D02*
X9204756Y-5273244D01*
X9134044Y-5273244D01*
X9134044Y-5343956D01*
X9204756Y-5343956D01*
X9458756Y-4150156D02*
X9458756Y-4079444D01*
X9388044Y-4079444D01*
X9388044Y-4150156D01*
X9458756Y-4150156D01*
X9458756Y-4404156D02*
X9458756Y-4333444D01*
X9388044Y-4333444D01*
X9388044Y-4404156D01*
X9458756Y-4404156D01*
X9458756Y-5089956D02*
X9458756Y-5019244D01*
X9388044Y-5019244D01*
X9388044Y-5089956D01*
X9458756Y-5089956D01*
X9458756Y-5343956D02*
X9458756Y-5273244D01*
X9388044Y-5273244D01*
X9388044Y-5343956D01*
X9458756Y-5343956D01*
X9712756Y-4150156D02*
X9712756Y-4079444D01*
X9642044Y-4079444D01*
X9642044Y-4150156D01*
X9712756Y-4150156D01*
X9712756Y-4404156D02*
X9712756Y-4333444D01*
X9642044Y-4333444D01*
X9642044Y-4404156D01*
X9712756Y-4404156D01*
X9712756Y-5089956D02*
X9712756Y-5019244D01*
X9642044Y-5019244D01*
X9642044Y-5089956D01*
X9712756Y-5089956D01*
X9712756Y-5343956D02*
X9712756Y-5273244D01*
X9642044Y-5273244D01*
X9642044Y-5343956D01*
X9712756Y-5343956D01*
X9966756Y-4150156D02*
X9966756Y-4079444D01*
X9896044Y-4079444D01*
X9896044Y-4150156D01*
X9966756Y-4150156D01*
X9966756Y-4404156D02*
X9966756Y-4333444D01*
X9896044Y-4333444D01*
X9896044Y-4404156D01*
X9966756Y-4404156D01*
X9966756Y-5089956D02*
X9966756Y-5019244D01*
X9896044Y-5019244D01*
X9896044Y-5089956D01*
X9966756Y-5089956D01*
X9966756Y-5343956D02*
X9966756Y-5273244D01*
X9896044Y-5273244D01*
X9896044Y-5343956D01*
X9966756Y-5343956D01*
X10220756Y-4150156D02*
X10220756Y-4079444D01*
X10150044Y-4079444D01*
X10150044Y-4150156D01*
X10220756Y-4150156D01*
X10220756Y-4404156D02*
X10220756Y-4333444D01*
X10150044Y-4333444D01*
X10150044Y-4404156D01*
X10220756Y-4404156D01*
X10220756Y-5089956D02*
X10220756Y-5019244D01*
X10150044Y-5019244D01*
X10150044Y-5089956D01*
X10220756Y-5089956D01*
X10220756Y-5343956D02*
X10220756Y-5273244D01*
X10150044Y-5273244D01*
X10150044Y-5343956D01*
X10220756Y-5343956D01*
X10474756Y-4150156D02*
X10474756Y-4079444D01*
X10404044Y-4079444D01*
X10404044Y-4150156D01*
X10474756Y-4150156D01*
X10474756Y-4404156D02*
X10474756Y-4333444D01*
X10404044Y-4333444D01*
X10404044Y-4404156D01*
X10474756Y-4404156D01*
X10474756Y-5089956D02*
X10474756Y-5019244D01*
X10404044Y-5019244D01*
X10404044Y-5089956D01*
X10474756Y-5089956D01*
X10474756Y-5343956D02*
X10474756Y-5273244D01*
X10404044Y-5273244D01*
X10404044Y-5343956D01*
X10474756Y-5343956D01*
X10728756Y-4150156D02*
X10728756Y-4079444D01*
X10658044Y-4079444D01*
X10658044Y-4150156D01*
X10728756Y-4150156D01*
X10728756Y-4404156D02*
X10728756Y-4333444D01*
X10658044Y-4333444D01*
X10658044Y-4404156D01*
X10728756Y-4404156D01*
X10728756Y-5089956D02*
X10728756Y-5019244D01*
X10658044Y-5019244D01*
X10658044Y-5089956D01*
X10728756Y-5089956D01*
X10728756Y-5343956D02*
X10728756Y-5273244D01*
X10658044Y-5273244D01*
X10658044Y-5343956D01*
X10728756Y-5343956D01*
X10982756Y-4150156D02*
X10982756Y-4079444D01*
X10912044Y-4079444D01*
X10912044Y-4150156D01*
X10982756Y-4150156D01*
X10982756Y-4404156D02*
X10982756Y-4333444D01*
X10912044Y-4333444D01*
X10912044Y-4404156D01*
X10982756Y-4404156D01*
X10982756Y-5089956D02*
X10982756Y-5019244D01*
X10912044Y-5019244D01*
X10912044Y-5089956D01*
X10982756Y-5089956D01*
X10982756Y-5343956D02*
X10982756Y-5273244D01*
X10912044Y-5273244D01*
X10912044Y-5343956D01*
X10982756Y-5343956D01*
X11236756Y-4150156D02*
X11236756Y-4079444D01*
X11166044Y-4079444D01*
X11166044Y-4150156D01*
X11236756Y-4150156D01*
X11236756Y-4404156D02*
X11236756Y-4333444D01*
X11166044Y-4333444D01*
X11166044Y-4404156D01*
X11236756Y-4404156D01*
X11236756Y-5089956D02*
X11236756Y-5019244D01*
X11166044Y-5019244D01*
X11166044Y-5089956D01*
X11236756Y-5089956D01*
X11236756Y-5343956D02*
X11236756Y-5273244D01*
X11166044Y-5273244D01*
X11166044Y-5343956D01*
X11236756Y-5343956D01*
X11490756Y-4150156D02*
X11490756Y-4079444D01*
X11420044Y-4079444D01*
X11420044Y-4150156D01*
X11490756Y-4150156D01*
X11490756Y-4404156D02*
X11490756Y-4333444D01*
X11420044Y-4333444D01*
X11420044Y-4404156D01*
X11490756Y-4404156D01*
X11490756Y-5089956D02*
X11490756Y-5019244D01*
X11420044Y-5019244D01*
X11420044Y-5089956D01*
X11490756Y-5089956D01*
X11490756Y-5343956D02*
X11490756Y-5273244D01*
X11420044Y-5273244D01*
X11420044Y-5343956D01*
X11490756Y-5343956D01*
X11744756Y-4150156D02*
X11744756Y-4079444D01*
X11674044Y-4079444D01*
X11674044Y-4150156D01*
X11744756Y-4150156D01*
X11744756Y-4404156D02*
X11744756Y-4333444D01*
X11674044Y-4333444D01*
X11674044Y-4404156D01*
X11744756Y-4404156D01*
X11744756Y-5089956D02*
X11744756Y-5019244D01*
X11674044Y-5019244D01*
X11674044Y-5089956D01*
X11744756Y-5089956D01*
X11744756Y-5343956D02*
X11744756Y-5273244D01*
X11674044Y-5273244D01*
X11674044Y-5343956D01*
X11744756Y-5343956D01*
X11998756Y-4150156D02*
X11998756Y-4079444D01*
X11928044Y-4079444D01*
X11928044Y-4150156D01*
X11998756Y-4150156D01*
X11998756Y-4404156D02*
X11998756Y-4333444D01*
X11928044Y-4333444D01*
X11928044Y-4404156D01*
X11998756Y-4404156D01*
X11998756Y-5089956D02*
X11998756Y-5019244D01*
X11928044Y-5019244D01*
X11928044Y-5089956D01*
X11998756Y-5089956D01*
X11998756Y-5343956D02*
X11998756Y-5273244D01*
X11928044Y-5273244D01*
X11928044Y-5343956D01*
X11998756Y-5343956D01*
X12252756Y-4150156D02*
X12252756Y-4079444D01*
X12182044Y-4079444D01*
X12182044Y-4150156D01*
X12252756Y-4150156D01*
X12252756Y-4404156D02*
X12252756Y-4333444D01*
X12182044Y-4333444D01*
X12182044Y-4404156D01*
X12252756Y-4404156D01*
X12252756Y-5089956D02*
X12252756Y-5019244D01*
X12182044Y-5019244D01*
X12182044Y-5089956D01*
X12252756Y-5089956D01*
X12252756Y-5343956D02*
X12252756Y-5273244D01*
X12182044Y-5273244D01*
X12182044Y-5343956D01*
X12252756Y-5343956D01*
X12506756Y-4150156D02*
X12506756Y-4079444D01*
X12436044Y-4079444D01*
X12436044Y-4150156D01*
X12506756Y-4150156D01*
X12506756Y-4404156D02*
X12506756Y-4333444D01*
X12436044Y-4333444D01*
X12436044Y-4404156D01*
X12506756Y-4404156D01*
X12506756Y-5089956D02*
X12506756Y-5019244D01*
X12436044Y-5019244D01*
X12436044Y-5089956D01*
X12506756Y-5089956D01*
X12506756Y-5343956D02*
X12506756Y-5273244D01*
X12436044Y-5273244D01*
X12436044Y-5343956D01*
X12506756Y-5343956D01*
X12760756Y-4150156D02*
X12760756Y-4079444D01*
X12690044Y-4079444D01*
X12690044Y-4150156D01*
X12760756Y-4150156D01*
X12760756Y-4404156D02*
X12760756Y-4333444D01*
X12690044Y-4333444D01*
X12690044Y-4404156D01*
X12760756Y-4404156D01*
X12760756Y-5089956D02*
X12760756Y-5019244D01*
X12690044Y-5019244D01*
X12690044Y-5089956D01*
X12760756Y-5089956D01*
X12760756Y-5343956D02*
X12760756Y-5273244D01*
X12690044Y-5273244D01*
X12690044Y-5343956D01*
X12760756Y-5343956D01*
X13014756Y-4150156D02*
X13014756Y-4079444D01*
X12944044Y-4079444D01*
X12944044Y-4150156D01*
X13014756Y-4150156D01*
X13014756Y-4404156D02*
X13014756Y-4333444D01*
X12944044Y-4333444D01*
X12944044Y-4404156D01*
X13014756Y-4404156D01*
X13014756Y-5089956D02*
X13014756Y-5019244D01*
X12944044Y-5019244D01*
X12944044Y-5089956D01*
X13014756Y-5089956D01*
X13014756Y-5343956D02*
X13014756Y-5273244D01*
X12944044Y-5273244D01*
X12944044Y-5343956D01*
X13014756Y-5343956D01*
X13268756Y-4150156D02*
X13268756Y-4079444D01*
X13198044Y-4079444D01*
X13198044Y-4150156D01*
X13268756Y-4150156D01*
X13268756Y-4404156D02*
X13268756Y-4333444D01*
X13198044Y-4333444D01*
X13198044Y-4404156D01*
X13268756Y-4404156D01*
X13268756Y-5089956D02*
X13268756Y-5019244D01*
X13198044Y-5019244D01*
X13198044Y-5089956D01*
X13268756Y-5089956D01*
X13268756Y-5343956D02*
X13268756Y-5273244D01*
X13198044Y-5273244D01*
X13198044Y-5343956D01*
X13268756Y-5343956D01*
X13522756Y-4150156D02*
X13522756Y-4079444D01*
X13452044Y-4079444D01*
X13452044Y-4150156D01*
X13522756Y-4150156D01*
X13522756Y-4404156D02*
X13522756Y-4333444D01*
X13452044Y-4333444D01*
X13452044Y-4404156D01*
X13522756Y-4404156D01*
X13522756Y-5089956D02*
X13522756Y-5019244D01*
X13452044Y-5019244D01*
X13452044Y-5089956D01*
X13522756Y-5089956D01*
X13522756Y-5343956D02*
X13522756Y-5273244D01*
X13452044Y-5273244D01*
X13452044Y-5343956D01*
X13522756Y-5343956D01*
X19136156Y-6309156D02*
X19136156Y-6238444D01*
X19065444Y-6238444D01*
X19065444Y-6309156D01*
X19136156Y-6309156D01*
X19390156Y-6309156D02*
X19390156Y-6238444D01*
X19319444Y-6238444D01*
X19319444Y-6309156D01*
X19390156Y-6309156D01*
X19644156Y-6309156D02*
X19644156Y-6238444D01*
X19573444Y-6238444D01*
X19573444Y-6309156D01*
X19644156Y-6309156D01*
X7442200Y-4114800D02*
X7518400Y-4038600D01*
X7442200Y-3962400D01*
X7366000Y-4038600D01*
X7442200Y-4114800D01*
X7442200Y-4622800D02*
X7518400Y-4546600D01*
X7442200Y-4470400D01*
X7366000Y-4546600D01*
X7442200Y-4622800D01*
X7442200Y-5130800D02*
X7518400Y-5054600D01*
X7442200Y-4978400D01*
X7366000Y-5054600D01*
X7442200Y-5130800D01*
X7442200Y-5638800D02*
X7518400Y-5562600D01*
X7442200Y-5486400D01*
X7366000Y-5562600D01*
X7442200Y-5638800D01*
X7442200Y-6146800D02*
X7518400Y-6070600D01*
X7442200Y-5994400D01*
X7366000Y-6070600D01*
X7442200Y-6146800D01*
X7442200Y-6654800D02*
X7518400Y-6578600D01*
X7442200Y-6502400D01*
X7366000Y-6578600D01*
X7442200Y-6654800D01*
X14198600Y-8077200D02*
X14274800Y-8001000D01*
X14198600Y-7924800D01*
X14122400Y-8001000D01*
X14198600Y-8077200D01*
X14706600Y-8077200D02*
X14782800Y-8001000D01*
X14706600Y-7924800D01*
X14630400Y-8001000D01*
X14706600Y-8077200D01*
X15443200Y-8077200D02*
X15519400Y-8001000D01*
X15443200Y-7924800D01*
X15367000Y-8001000D01*
X15443200Y-8077200D01*
X15951200Y-8077200D02*
X16027400Y-8001000D01*
X15951200Y-7924800D01*
X15875000Y-8001000D01*
X15951200Y-8077200D01*
X22707600Y-4114800D02*
X22783800Y-4038600D01*
X22707600Y-3962400D01*
X22631400Y-4038600D01*
X22707600Y-4114800D01*
X22707600Y-4622800D02*
X22783800Y-4546600D01*
X22707600Y-4470400D01*
X22631400Y-4546600D01*
X22707600Y-4622800D01*
X22707600Y-5130800D02*
X22783800Y-5054600D01*
X22707600Y-4978400D01*
X22631400Y-5054600D01*
X22707600Y-5130800D01*
X22707600Y-5638800D02*
X22783800Y-5562600D01*
X22707600Y-5486400D01*
X22631400Y-5562600D01*
X22707600Y-5638800D01*
X22707600Y-6146800D02*
X22783800Y-6070600D01*
X22707600Y-5994400D01*
X22631400Y-6070600D01*
X22707600Y-6146800D01*
X22707600Y-6654800D02*
X22783800Y-6578600D01*
X22707600Y-6502400D01*
X22631400Y-6578600D01*
X22707600Y-6654800D01*
D13*
X6837528Y-9574814D02*
X6837528Y-9274814D01*
X6908957Y-9274814D01*
X6951814Y-9289100D01*
X6980386Y-9317672D01*
X6994671Y-9346243D01*
X7008957Y-9403386D01*
X7008957Y-9446243D01*
X6994671Y-9503386D01*
X6980386Y-9531957D01*
X6951814Y-9560529D01*
X6908957Y-9574814D01*
X6837528Y-9574814D01*
X7137528Y-9574814D02*
X7137528Y-9374814D01*
X7137528Y-9431957D02*
X7151814Y-9403386D01*
X7166100Y-9389100D01*
X7194671Y-9374814D01*
X7223243Y-9374814D01*
X7323243Y-9574814D02*
X7323243Y-9374814D01*
X7323243Y-9274814D02*
X7308957Y-9289100D01*
X7323243Y-9303386D01*
X7337528Y-9289100D01*
X7323243Y-9274814D01*
X7323243Y-9303386D01*
X7508957Y-9574814D02*
X7480386Y-9560529D01*
X7466100Y-9531957D01*
X7466100Y-9274814D01*
X7666100Y-9574814D02*
X7637528Y-9560529D01*
X7623243Y-9531957D01*
X7623243Y-9274814D01*
X8008957Y-9574814D02*
X8008957Y-9274814D01*
X8108957Y-9489100D01*
X8208957Y-9274814D01*
X8208957Y-9574814D01*
X8480386Y-9574814D02*
X8480386Y-9417672D01*
X8466100Y-9389100D01*
X8437529Y-9374814D01*
X8380386Y-9374814D01*
X8351814Y-9389100D01*
X8480386Y-9560529D02*
X8451814Y-9574814D01*
X8380386Y-9574814D01*
X8351814Y-9560529D01*
X8337528Y-9531957D01*
X8337528Y-9503386D01*
X8351814Y-9474814D01*
X8380386Y-9460529D01*
X8451814Y-9460529D01*
X8480386Y-9446243D01*
X8623243Y-9374814D02*
X8623243Y-9674814D01*
X8623243Y-9389100D02*
X8651814Y-9374814D01*
X8708957Y-9374814D01*
X8737529Y-9389100D01*
X8751814Y-9403386D01*
X8766100Y-9431957D01*
X8766100Y-9517672D01*
X8751814Y-9546243D01*
X8737529Y-9560529D01*
X8708957Y-9574814D01*
X8651814Y-9574814D01*
X8623243Y-9560529D01*
X8894671Y-9546243D02*
X8908957Y-9560529D01*
X8894671Y-9574814D01*
X8880386Y-9560529D01*
X8894671Y-9546243D01*
X8894671Y-9574814D01*
X8894671Y-9389100D02*
X8908957Y-9403386D01*
X8894671Y-9417672D01*
X8880386Y-9403386D01*
X8894671Y-9389100D01*
X8894671Y-9417672D01*
X6526100Y-10049100D02*
X6566100Y-10089100D01*
X6566100Y-10049100D02*
X6526100Y-10089100D01*
X6894671Y-9904814D02*
X6923243Y-9904814D01*
X6951814Y-9919100D01*
X6966100Y-9933386D01*
X6980386Y-9961957D01*
X6994671Y-10019100D01*
X6994671Y-10090529D01*
X6980386Y-10147672D01*
X6966100Y-10176243D01*
X6951814Y-10190529D01*
X6923243Y-10204814D01*
X6894671Y-10204814D01*
X6866100Y-10190529D01*
X6851814Y-10176243D01*
X6837528Y-10147672D01*
X6823243Y-10090529D01*
X6823243Y-10019100D01*
X6837528Y-9961957D01*
X6851814Y-9933386D01*
X6866100Y-9919100D01*
X6894671Y-9904814D01*
X7123243Y-10176243D02*
X7137528Y-10190529D01*
X7123243Y-10204814D01*
X7108957Y-10190529D01*
X7123243Y-10176243D01*
X7123243Y-10204814D01*
X7394671Y-10004814D02*
X7394671Y-10204814D01*
X7323243Y-9890529D02*
X7251814Y-10104814D01*
X7437528Y-10104814D01*
X7608957Y-9904814D02*
X7637528Y-9904814D01*
X7666100Y-9919100D01*
X7680386Y-9933386D01*
X7694671Y-9961957D01*
X7708957Y-10019100D01*
X7708957Y-10090529D01*
X7694671Y-10147672D01*
X7680386Y-10176243D01*
X7666100Y-10190529D01*
X7637528Y-10204814D01*
X7608957Y-10204814D01*
X7580386Y-10190529D01*
X7566100Y-10176243D01*
X7551814Y-10147672D01*
X7537528Y-10090529D01*
X7537528Y-10019100D01*
X7551814Y-9961957D01*
X7566100Y-9933386D01*
X7580386Y-9919100D01*
X7608957Y-9904814D01*
X7837528Y-10204814D02*
X7837528Y-10004814D01*
X7837528Y-10033386D02*
X7851814Y-10019100D01*
X7880386Y-10004814D01*
X7923243Y-10004814D01*
X7951814Y-10019100D01*
X7966100Y-10047672D01*
X7966100Y-10204814D01*
X7966100Y-10047672D02*
X7980386Y-10019100D01*
X8008957Y-10004814D01*
X8051814Y-10004814D01*
X8080386Y-10019100D01*
X8094671Y-10047672D01*
X8094671Y-10204814D01*
X8237528Y-10204814D02*
X8237528Y-10004814D01*
X8237528Y-10033386D02*
X8251814Y-10019100D01*
X8280386Y-10004814D01*
X8323243Y-10004814D01*
X8351814Y-10019100D01*
X8366100Y-10047672D01*
X8366100Y-10204814D01*
X8366100Y-10047672D02*
X8380386Y-10019100D01*
X8408957Y-10004814D01*
X8451814Y-10004814D01*
X8480386Y-10019100D01*
X8494671Y-10047672D01*
X8494671Y-10204814D01*
X9080386Y-9890529D02*
X8823243Y-10276243D01*
X9466100Y-9904814D02*
X9494671Y-9904814D01*
X9523243Y-9919100D01*
X9537528Y-9933386D01*
X9551814Y-9961957D01*
X9566100Y-10019100D01*
X9566100Y-10090529D01*
X9551814Y-10147672D01*
X9537528Y-10176243D01*
X9523243Y-10190529D01*
X9494671Y-10204814D01*
X9466100Y-10204814D01*
X9437528Y-10190529D01*
X9423243Y-10176243D01*
X9408957Y-10147672D01*
X9394671Y-10090529D01*
X9394671Y-10019100D01*
X9408957Y-9961957D01*
X9423243Y-9933386D01*
X9437528Y-9919100D01*
X9466100Y-9904814D01*
X9694671Y-10176243D02*
X9708957Y-10190529D01*
X9694671Y-10204814D01*
X9680386Y-10190529D01*
X9694671Y-10176243D01*
X9694671Y-10204814D01*
X9894671Y-9904814D02*
X9923243Y-9904814D01*
X9951814Y-9919100D01*
X9966100Y-9933386D01*
X9980386Y-9961957D01*
X9994671Y-10019100D01*
X9994671Y-10090529D01*
X9980386Y-10147672D01*
X9966100Y-10176243D01*
X9951814Y-10190529D01*
X9923243Y-10204814D01*
X9894671Y-10204814D01*
X9866100Y-10190529D01*
X9851814Y-10176243D01*
X9837528Y-10147672D01*
X9823243Y-10090529D01*
X9823243Y-10019100D01*
X9837528Y-9961957D01*
X9851814Y-9933386D01*
X9866100Y-9919100D01*
X9894671Y-9904814D01*
X10280386Y-10204814D02*
X10108957Y-10204814D01*
X10194671Y-10204814D02*
X10194671Y-9904814D01*
X10166100Y-9947672D01*
X10137528Y-9976243D01*
X10108957Y-9990529D01*
X10537528Y-9904814D02*
X10480386Y-9904814D01*
X10451814Y-9919100D01*
X10437528Y-9933386D01*
X10408957Y-9976243D01*
X10394671Y-10033386D01*
X10394671Y-10147672D01*
X10408957Y-10176243D01*
X10423243Y-10190529D01*
X10451814Y-10204814D01*
X10508957Y-10204814D01*
X10537528Y-10190529D01*
X10551814Y-10176243D01*
X10566100Y-10147672D01*
X10566100Y-10076243D01*
X10551814Y-10047672D01*
X10537528Y-10033386D01*
X10508957Y-10019100D01*
X10451814Y-10019100D01*
X10423243Y-10033386D01*
X10408957Y-10047672D01*
X10394671Y-10076243D01*
X10680386Y-9904814D02*
X10680386Y-9961957D01*
X10794671Y-9904814D02*
X10794671Y-9961957D01*
X11237528Y-10319100D02*
X11223243Y-10304814D01*
X11194671Y-10261957D01*
X11180386Y-10233386D01*
X11166100Y-10190529D01*
X11151814Y-10119100D01*
X11151814Y-10061957D01*
X11166100Y-9990529D01*
X11180386Y-9947672D01*
X11194671Y-9919100D01*
X11223243Y-9876243D01*
X11237528Y-9861957D01*
X11394671Y-10033386D02*
X11366100Y-10019100D01*
X11351814Y-10004814D01*
X11337528Y-9976243D01*
X11337528Y-9961957D01*
X11351814Y-9933386D01*
X11366100Y-9919100D01*
X11394671Y-9904814D01*
X11451814Y-9904814D01*
X11480385Y-9919100D01*
X11494671Y-9933386D01*
X11508957Y-9961957D01*
X11508957Y-9976243D01*
X11494671Y-10004814D01*
X11480385Y-10019100D01*
X11451814Y-10033386D01*
X11394671Y-10033386D01*
X11366100Y-10047672D01*
X11351814Y-10061957D01*
X11337528Y-10090529D01*
X11337528Y-10147672D01*
X11351814Y-10176243D01*
X11366100Y-10190529D01*
X11394671Y-10204814D01*
X11451814Y-10204814D01*
X11480385Y-10190529D01*
X11494671Y-10176243D01*
X11508957Y-10147672D01*
X11508957Y-10090529D01*
X11494671Y-10061957D01*
X11480385Y-10047672D01*
X11451814Y-10033386D01*
X11608957Y-9904814D02*
X11808957Y-9904814D01*
X11680385Y-10204814D01*
X12151814Y-10204814D02*
X12151814Y-9904814D01*
X12280385Y-10204814D02*
X12280385Y-10047672D01*
X12266100Y-10019100D01*
X12237528Y-10004814D01*
X12194671Y-10004814D01*
X12166100Y-10019100D01*
X12151814Y-10033386D01*
X12466100Y-10204814D02*
X12437528Y-10190529D01*
X12423243Y-10176243D01*
X12408957Y-10147672D01*
X12408957Y-10061957D01*
X12423243Y-10033386D01*
X12437528Y-10019100D01*
X12466100Y-10004814D01*
X12508957Y-10004814D01*
X12537528Y-10019100D01*
X12551814Y-10033386D01*
X12566100Y-10061957D01*
X12566100Y-10147672D01*
X12551814Y-10176243D01*
X12537528Y-10190529D01*
X12508957Y-10204814D01*
X12466100Y-10204814D01*
X12737528Y-10204814D02*
X12708957Y-10190529D01*
X12694671Y-10161957D01*
X12694671Y-9904814D01*
X12966100Y-10190529D02*
X12937528Y-10204814D01*
X12880386Y-10204814D01*
X12851814Y-10190529D01*
X12837528Y-10161957D01*
X12837528Y-10047672D01*
X12851814Y-10019100D01*
X12880386Y-10004814D01*
X12937528Y-10004814D01*
X12966100Y-10019100D01*
X12980386Y-10047672D01*
X12980386Y-10076243D01*
X12837528Y-10104814D01*
X13094671Y-10190529D02*
X13123243Y-10204814D01*
X13180386Y-10204814D01*
X13208957Y-10190529D01*
X13223243Y-10161957D01*
X13223243Y-10147672D01*
X13208957Y-10119100D01*
X13180386Y-10104814D01*
X13137528Y-10104814D01*
X13108957Y-10090529D01*
X13094671Y-10061957D01*
X13094671Y-10047672D01*
X13108957Y-10019100D01*
X13137528Y-10004814D01*
X13180386Y-10004814D01*
X13208957Y-10019100D01*
X13323243Y-10319100D02*
X13337528Y-10304814D01*
X13366100Y-10261957D01*
X13380386Y-10233386D01*
X13394671Y-10190529D01*
X13408957Y-10119100D01*
X13408957Y-10061957D01*
X13394671Y-9990529D01*
X13380386Y-9947672D01*
X13366100Y-9919100D01*
X13337528Y-9876243D01*
X13323243Y-9861957D01*
X6566100Y-10465100D02*
G75*
G03X6566100Y-10465100I-40000J0D01*
G01*
X6894671Y-10300814D02*
X6923243Y-10300814D01*
X6951814Y-10315100D01*
X6966100Y-10329386D01*
X6980386Y-10357957D01*
X6994671Y-10415100D01*
X6994671Y-10486529D01*
X6980386Y-10543672D01*
X6966100Y-10572243D01*
X6951814Y-10586529D01*
X6923243Y-10600814D01*
X6894671Y-10600814D01*
X6866100Y-10586529D01*
X6851814Y-10572243D01*
X6837528Y-10543672D01*
X6823243Y-10486529D01*
X6823243Y-10415100D01*
X6837528Y-10357957D01*
X6851814Y-10329386D01*
X6866100Y-10315100D01*
X6894671Y-10300814D01*
X7123243Y-10572243D02*
X7137528Y-10586529D01*
X7123243Y-10600814D01*
X7108957Y-10586529D01*
X7123243Y-10572243D01*
X7123243Y-10600814D01*
X7308957Y-10429386D02*
X7280386Y-10415100D01*
X7266100Y-10400814D01*
X7251814Y-10372243D01*
X7251814Y-10357957D01*
X7266100Y-10329386D01*
X7280386Y-10315100D01*
X7308957Y-10300814D01*
X7366100Y-10300814D01*
X7394671Y-10315100D01*
X7408957Y-10329386D01*
X7423243Y-10357957D01*
X7423243Y-10372243D01*
X7408957Y-10400814D01*
X7394671Y-10415100D01*
X7366100Y-10429386D01*
X7308957Y-10429386D01*
X7280386Y-10443672D01*
X7266100Y-10457957D01*
X7251814Y-10486529D01*
X7251814Y-10543672D01*
X7266100Y-10572243D01*
X7280386Y-10586529D01*
X7308957Y-10600814D01*
X7366100Y-10600814D01*
X7394671Y-10586529D01*
X7408957Y-10572243D01*
X7423243Y-10543672D01*
X7423243Y-10486529D01*
X7408957Y-10457957D01*
X7394671Y-10443672D01*
X7366100Y-10429386D01*
X7608957Y-10300814D02*
X7637528Y-10300814D01*
X7666100Y-10315100D01*
X7680386Y-10329386D01*
X7694671Y-10357957D01*
X7708957Y-10415100D01*
X7708957Y-10486529D01*
X7694671Y-10543672D01*
X7680386Y-10572243D01*
X7666100Y-10586529D01*
X7637528Y-10600814D01*
X7608957Y-10600814D01*
X7580386Y-10586529D01*
X7566100Y-10572243D01*
X7551814Y-10543672D01*
X7537528Y-10486529D01*
X7537528Y-10415100D01*
X7551814Y-10357957D01*
X7566100Y-10329386D01*
X7580386Y-10315100D01*
X7608957Y-10300814D01*
X7837528Y-10600814D02*
X7837528Y-10400814D01*
X7837528Y-10429386D02*
X7851814Y-10415100D01*
X7880386Y-10400814D01*
X7923243Y-10400814D01*
X7951814Y-10415100D01*
X7966100Y-10443672D01*
X7966100Y-10600814D01*
X7966100Y-10443672D02*
X7980386Y-10415100D01*
X8008957Y-10400814D01*
X8051814Y-10400814D01*
X8080386Y-10415100D01*
X8094671Y-10443672D01*
X8094671Y-10600814D01*
X8237528Y-10600814D02*
X8237528Y-10400814D01*
X8237528Y-10429386D02*
X8251814Y-10415100D01*
X8280386Y-10400814D01*
X8323243Y-10400814D01*
X8351814Y-10415100D01*
X8366100Y-10443672D01*
X8366100Y-10600814D01*
X8366100Y-10443672D02*
X8380386Y-10415100D01*
X8408957Y-10400814D01*
X8451814Y-10400814D01*
X8480386Y-10415100D01*
X8494671Y-10443672D01*
X8494671Y-10600814D01*
X9080386Y-10286529D02*
X8823243Y-10672243D01*
X9466100Y-10300814D02*
X9494671Y-10300814D01*
X9523243Y-10315100D01*
X9537528Y-10329386D01*
X9551814Y-10357957D01*
X9566100Y-10415100D01*
X9566100Y-10486529D01*
X9551814Y-10543672D01*
X9537528Y-10572243D01*
X9523243Y-10586529D01*
X9494671Y-10600814D01*
X9466100Y-10600814D01*
X9437528Y-10586529D01*
X9423243Y-10572243D01*
X9408957Y-10543672D01*
X9394671Y-10486529D01*
X9394671Y-10415100D01*
X9408957Y-10357957D01*
X9423243Y-10329386D01*
X9437528Y-10315100D01*
X9466100Y-10300814D01*
X9694671Y-10572243D02*
X9708957Y-10586529D01*
X9694671Y-10600814D01*
X9680386Y-10586529D01*
X9694671Y-10572243D01*
X9694671Y-10600814D01*
X9894671Y-10300814D02*
X9923243Y-10300814D01*
X9951814Y-10315100D01*
X9966100Y-10329386D01*
X9980386Y-10357957D01*
X9994671Y-10415100D01*
X9994671Y-10486529D01*
X9980386Y-10543672D01*
X9966100Y-10572243D01*
X9951814Y-10586529D01*
X9923243Y-10600814D01*
X9894671Y-10600814D01*
X9866100Y-10586529D01*
X9851814Y-10572243D01*
X9837528Y-10543672D01*
X9823243Y-10486529D01*
X9823243Y-10415100D01*
X9837528Y-10357957D01*
X9851814Y-10329386D01*
X9866100Y-10315100D01*
X9894671Y-10300814D01*
X10094671Y-10300814D02*
X10280386Y-10300814D01*
X10180386Y-10415100D01*
X10223243Y-10415100D01*
X10251814Y-10429386D01*
X10266100Y-10443672D01*
X10280386Y-10472243D01*
X10280386Y-10543672D01*
X10266100Y-10572243D01*
X10251814Y-10586529D01*
X10223243Y-10600814D01*
X10137528Y-10600814D01*
X10108957Y-10586529D01*
X10094671Y-10572243D01*
X10566100Y-10600814D02*
X10394671Y-10600814D01*
X10480386Y-10600814D02*
X10480386Y-10300814D01*
X10451814Y-10343672D01*
X10423243Y-10372243D01*
X10394671Y-10386529D01*
X10680386Y-10300814D02*
X10680386Y-10357957D01*
X10794671Y-10300814D02*
X10794671Y-10357957D01*
X11237528Y-10715100D02*
X11223243Y-10700814D01*
X11194671Y-10657957D01*
X11180386Y-10629386D01*
X11166100Y-10586529D01*
X11151814Y-10515100D01*
X11151814Y-10457957D01*
X11166100Y-10386529D01*
X11180386Y-10343672D01*
X11194671Y-10315100D01*
X11223243Y-10272243D01*
X11237528Y-10257957D01*
X11337528Y-10329386D02*
X11351814Y-10315100D01*
X11380385Y-10300814D01*
X11451814Y-10300814D01*
X11480385Y-10315100D01*
X11494671Y-10329386D01*
X11508957Y-10357957D01*
X11508957Y-10386529D01*
X11494671Y-10429386D01*
X11323243Y-10600814D01*
X11508957Y-10600814D01*
X11766100Y-10400814D02*
X11766100Y-10600814D01*
X11694671Y-10286529D02*
X11623243Y-10500814D01*
X11808957Y-10500814D01*
X12151814Y-10600814D02*
X12151814Y-10300814D01*
X12280385Y-10600814D02*
X12280385Y-10443672D01*
X12266100Y-10415100D01*
X12237528Y-10400814D01*
X12194671Y-10400814D01*
X12166100Y-10415100D01*
X12151814Y-10429386D01*
X12466100Y-10600814D02*
X12437528Y-10586529D01*
X12423243Y-10572243D01*
X12408957Y-10543672D01*
X12408957Y-10457957D01*
X12423243Y-10429386D01*
X12437528Y-10415100D01*
X12466100Y-10400814D01*
X12508957Y-10400814D01*
X12537528Y-10415100D01*
X12551814Y-10429386D01*
X12566100Y-10457957D01*
X12566100Y-10543672D01*
X12551814Y-10572243D01*
X12537528Y-10586529D01*
X12508957Y-10600814D01*
X12466100Y-10600814D01*
X12737528Y-10600814D02*
X12708957Y-10586529D01*
X12694671Y-10557957D01*
X12694671Y-10300814D01*
X12966100Y-10586529D02*
X12937528Y-10600814D01*
X12880386Y-10600814D01*
X12851814Y-10586529D01*
X12837528Y-10557957D01*
X12837528Y-10443672D01*
X12851814Y-10415100D01*
X12880386Y-10400814D01*
X12937528Y-10400814D01*
X12966100Y-10415100D01*
X12980386Y-10443672D01*
X12980386Y-10472243D01*
X12837528Y-10500814D01*
X13094671Y-10586529D02*
X13123243Y-10600814D01*
X13180386Y-10600814D01*
X13208957Y-10586529D01*
X13223243Y-10557957D01*
X13223243Y-10543672D01*
X13208957Y-10515100D01*
X13180386Y-10500814D01*
X13137528Y-10500814D01*
X13108957Y-10486529D01*
X13094671Y-10457957D01*
X13094671Y-10443672D01*
X13108957Y-10415100D01*
X13137528Y-10400814D01*
X13180386Y-10400814D01*
X13208957Y-10415100D01*
X13323243Y-10715100D02*
X13337528Y-10700814D01*
X13366100Y-10657957D01*
X13380386Y-10629386D01*
X13394671Y-10586529D01*
X13408957Y-10515100D01*
X13408957Y-10457957D01*
X13394671Y-10386529D01*
X13380386Y-10343672D01*
X13366100Y-10315100D01*
X13337528Y-10272243D01*
X13323243Y-10257957D01*
X6526095Y-10821095D02*
X6526095Y-10901105D01*
X6486090Y-10861100D02*
X6566100Y-10861100D01*
X6894671Y-10696814D02*
X6923243Y-10696814D01*
X6951814Y-10711100D01*
X6966100Y-10725386D01*
X6980386Y-10753957D01*
X6994671Y-10811100D01*
X6994671Y-10882529D01*
X6980386Y-10939672D01*
X6966100Y-10968243D01*
X6951814Y-10982529D01*
X6923243Y-10996814D01*
X6894671Y-10996814D01*
X6866100Y-10982529D01*
X6851814Y-10968243D01*
X6837528Y-10939672D01*
X6823243Y-10882529D01*
X6823243Y-10811100D01*
X6837528Y-10753957D01*
X6851814Y-10725386D01*
X6866100Y-10711100D01*
X6894671Y-10696814D01*
X7123243Y-10968243D02*
X7137528Y-10982529D01*
X7123243Y-10996814D01*
X7108957Y-10982529D01*
X7123243Y-10968243D01*
X7123243Y-10996814D01*
X7308957Y-10825386D02*
X7280386Y-10811100D01*
X7266100Y-10796814D01*
X7251814Y-10768243D01*
X7251814Y-10753957D01*
X7266100Y-10725386D01*
X7280386Y-10711100D01*
X7308957Y-10696814D01*
X7366100Y-10696814D01*
X7394671Y-10711100D01*
X7408957Y-10725386D01*
X7423243Y-10753957D01*
X7423243Y-10768243D01*
X7408957Y-10796814D01*
X7394671Y-10811100D01*
X7366100Y-10825386D01*
X7308957Y-10825386D01*
X7280386Y-10839672D01*
X7266100Y-10853957D01*
X7251814Y-10882529D01*
X7251814Y-10939672D01*
X7266100Y-10968243D01*
X7280386Y-10982529D01*
X7308957Y-10996814D01*
X7366100Y-10996814D01*
X7394671Y-10982529D01*
X7408957Y-10968243D01*
X7423243Y-10939672D01*
X7423243Y-10882529D01*
X7408957Y-10853957D01*
X7394671Y-10839672D01*
X7366100Y-10825386D01*
X7608957Y-10696814D02*
X7637528Y-10696814D01*
X7666100Y-10711100D01*
X7680386Y-10725386D01*
X7694671Y-10753957D01*
X7708957Y-10811100D01*
X7708957Y-10882529D01*
X7694671Y-10939672D01*
X7680386Y-10968243D01*
X7666100Y-10982529D01*
X7637528Y-10996814D01*
X7608957Y-10996814D01*
X7580386Y-10982529D01*
X7566100Y-10968243D01*
X7551814Y-10939672D01*
X7537528Y-10882529D01*
X7537528Y-10811100D01*
X7551814Y-10753957D01*
X7566100Y-10725386D01*
X7580386Y-10711100D01*
X7608957Y-10696814D01*
X7837528Y-10996814D02*
X7837528Y-10796814D01*
X7837528Y-10825386D02*
X7851814Y-10811100D01*
X7880386Y-10796814D01*
X7923243Y-10796814D01*
X7951814Y-10811100D01*
X7966100Y-10839672D01*
X7966100Y-10996814D01*
X7966100Y-10839672D02*
X7980386Y-10811100D01*
X8008957Y-10796814D01*
X8051814Y-10796814D01*
X8080386Y-10811100D01*
X8094671Y-10839672D01*
X8094671Y-10996814D01*
X8237528Y-10996814D02*
X8237528Y-10796814D01*
X8237528Y-10825386D02*
X8251814Y-10811100D01*
X8280386Y-10796814D01*
X8323243Y-10796814D01*
X8351814Y-10811100D01*
X8366100Y-10839672D01*
X8366100Y-10996814D01*
X8366100Y-10839672D02*
X8380386Y-10811100D01*
X8408957Y-10796814D01*
X8451814Y-10796814D01*
X8480386Y-10811100D01*
X8494671Y-10839672D01*
X8494671Y-10996814D01*
X9080386Y-10682529D02*
X8823243Y-11068243D01*
X9466100Y-10696814D02*
X9494671Y-10696814D01*
X9523243Y-10711100D01*
X9537528Y-10725386D01*
X9551814Y-10753957D01*
X9566100Y-10811100D01*
X9566100Y-10882529D01*
X9551814Y-10939672D01*
X9537528Y-10968243D01*
X9523243Y-10982529D01*
X9494671Y-10996814D01*
X9466100Y-10996814D01*
X9437528Y-10982529D01*
X9423243Y-10968243D01*
X9408957Y-10939672D01*
X9394671Y-10882529D01*
X9394671Y-10811100D01*
X9408957Y-10753957D01*
X9423243Y-10725386D01*
X9437528Y-10711100D01*
X9466100Y-10696814D01*
X9694671Y-10968243D02*
X9708957Y-10982529D01*
X9694671Y-10996814D01*
X9680386Y-10982529D01*
X9694671Y-10968243D01*
X9694671Y-10996814D01*
X9894671Y-10696814D02*
X9923243Y-10696814D01*
X9951814Y-10711100D01*
X9966100Y-10725386D01*
X9980386Y-10753957D01*
X9994671Y-10811100D01*
X9994671Y-10882529D01*
X9980386Y-10939672D01*
X9966100Y-10968243D01*
X9951814Y-10982529D01*
X9923243Y-10996814D01*
X9894671Y-10996814D01*
X9866100Y-10982529D01*
X9851814Y-10968243D01*
X9837528Y-10939672D01*
X9823243Y-10882529D01*
X9823243Y-10811100D01*
X9837528Y-10753957D01*
X9851814Y-10725386D01*
X9866100Y-10711100D01*
X9894671Y-10696814D01*
X10094671Y-10696814D02*
X10280386Y-10696814D01*
X10180386Y-10811100D01*
X10223243Y-10811100D01*
X10251814Y-10825386D01*
X10266100Y-10839672D01*
X10280386Y-10868243D01*
X10280386Y-10939672D01*
X10266100Y-10968243D01*
X10251814Y-10982529D01*
X10223243Y-10996814D01*
X10137528Y-10996814D01*
X10108957Y-10982529D01*
X10094671Y-10968243D01*
X10394671Y-10725386D02*
X10408957Y-10711100D01*
X10437528Y-10696814D01*
X10508957Y-10696814D01*
X10537528Y-10711100D01*
X10551814Y-10725386D01*
X10566100Y-10753957D01*
X10566100Y-10782529D01*
X10551814Y-10825386D01*
X10380386Y-10996814D01*
X10566100Y-10996814D01*
X10680386Y-10696814D02*
X10680386Y-10753957D01*
X10794671Y-10696814D02*
X10794671Y-10753957D01*
X11237528Y-11111100D02*
X11223243Y-11096814D01*
X11194671Y-11053957D01*
X11180386Y-11025386D01*
X11166100Y-10982529D01*
X11151814Y-10911100D01*
X11151814Y-10853957D01*
X11166100Y-10782529D01*
X11180386Y-10739672D01*
X11194671Y-10711100D01*
X11223243Y-10668243D01*
X11237528Y-10653957D01*
X11323243Y-10696814D02*
X11508957Y-10696814D01*
X11408957Y-10811100D01*
X11451814Y-10811100D01*
X11480385Y-10825386D01*
X11494671Y-10839672D01*
X11508957Y-10868243D01*
X11508957Y-10939672D01*
X11494671Y-10968243D01*
X11480385Y-10982529D01*
X11451814Y-10996814D01*
X11366100Y-10996814D01*
X11337528Y-10982529D01*
X11323243Y-10968243D01*
X11766100Y-10696814D02*
X11708957Y-10696814D01*
X11680385Y-10711100D01*
X11666100Y-10725386D01*
X11637528Y-10768243D01*
X11623243Y-10825386D01*
X11623243Y-10939672D01*
X11637528Y-10968243D01*
X11651814Y-10982529D01*
X11680385Y-10996814D01*
X11737528Y-10996814D01*
X11766100Y-10982529D01*
X11780385Y-10968243D01*
X11794671Y-10939672D01*
X11794671Y-10868243D01*
X11780385Y-10839672D01*
X11766100Y-10825386D01*
X11737528Y-10811100D01*
X11680385Y-10811100D01*
X11651814Y-10825386D01*
X11637528Y-10839672D01*
X11623243Y-10868243D01*
X12151814Y-10996814D02*
X12151814Y-10696814D01*
X12280385Y-10996814D02*
X12280385Y-10839672D01*
X12266100Y-10811100D01*
X12237528Y-10796814D01*
X12194671Y-10796814D01*
X12166100Y-10811100D01*
X12151814Y-10825386D01*
X12466100Y-10996814D02*
X12437528Y-10982529D01*
X12423243Y-10968243D01*
X12408957Y-10939672D01*
X12408957Y-10853957D01*
X12423243Y-10825386D01*
X12437528Y-10811100D01*
X12466100Y-10796814D01*
X12508957Y-10796814D01*
X12537528Y-10811100D01*
X12551814Y-10825386D01*
X12566100Y-10853957D01*
X12566100Y-10939672D01*
X12551814Y-10968243D01*
X12537528Y-10982529D01*
X12508957Y-10996814D01*
X12466100Y-10996814D01*
X12737528Y-10996814D02*
X12708957Y-10982529D01*
X12694671Y-10953957D01*
X12694671Y-10696814D01*
X12966100Y-10982529D02*
X12937528Y-10996814D01*
X12880386Y-10996814D01*
X12851814Y-10982529D01*
X12837528Y-10953957D01*
X12837528Y-10839672D01*
X12851814Y-10811100D01*
X12880386Y-10796814D01*
X12937528Y-10796814D01*
X12966100Y-10811100D01*
X12980386Y-10839672D01*
X12980386Y-10868243D01*
X12837528Y-10896814D01*
X13094671Y-10982529D02*
X13123243Y-10996814D01*
X13180386Y-10996814D01*
X13208957Y-10982529D01*
X13223243Y-10953957D01*
X13223243Y-10939672D01*
X13208957Y-10911100D01*
X13180386Y-10896814D01*
X13137528Y-10896814D01*
X13108957Y-10882529D01*
X13094671Y-10853957D01*
X13094671Y-10839672D01*
X13108957Y-10811100D01*
X13137528Y-10796814D01*
X13180386Y-10796814D01*
X13208957Y-10811100D01*
X13323243Y-11111100D02*
X13337528Y-11096814D01*
X13366100Y-11053957D01*
X13380386Y-11025386D01*
X13394671Y-10982529D01*
X13408957Y-10911100D01*
X13408957Y-10853957D01*
X13394671Y-10782529D01*
X13380386Y-10739672D01*
X13366100Y-10711100D01*
X13337528Y-10668243D01*
X13323243Y-10653957D01*
X6551456Y-11292456D02*
X6551456Y-11221744D01*
X6480744Y-11221744D01*
X6480744Y-11292456D01*
X6551456Y-11292456D01*
X6994671Y-11392814D02*
X6823243Y-11392814D01*
X6908957Y-11392814D02*
X6908957Y-11092814D01*
X6880386Y-11135672D01*
X6851814Y-11164243D01*
X6823243Y-11178529D01*
X7123243Y-11364243D02*
X7137528Y-11378529D01*
X7123243Y-11392814D01*
X7108957Y-11378529D01*
X7123243Y-11364243D01*
X7123243Y-11392814D01*
X7323243Y-11092814D02*
X7351814Y-11092814D01*
X7380386Y-11107100D01*
X7394671Y-11121386D01*
X7408957Y-11149957D01*
X7423243Y-11207100D01*
X7423243Y-11278529D01*
X7408957Y-11335671D01*
X7394671Y-11364243D01*
X7380386Y-11378529D01*
X7351814Y-11392814D01*
X7323243Y-11392814D01*
X7294671Y-11378529D01*
X7280386Y-11364243D01*
X7266100Y-11335671D01*
X7251814Y-11278529D01*
X7251814Y-11207100D01*
X7266100Y-11149957D01*
X7280386Y-11121386D01*
X7294671Y-11107100D01*
X7323243Y-11092814D01*
X7608957Y-11092814D02*
X7637528Y-11092814D01*
X7666100Y-11107100D01*
X7680386Y-11121386D01*
X7694671Y-11149957D01*
X7708957Y-11207100D01*
X7708957Y-11278529D01*
X7694671Y-11335671D01*
X7680386Y-11364243D01*
X7666100Y-11378529D01*
X7637528Y-11392814D01*
X7608957Y-11392814D01*
X7580386Y-11378529D01*
X7566100Y-11364243D01*
X7551814Y-11335671D01*
X7537528Y-11278529D01*
X7537528Y-11207100D01*
X7551814Y-11149957D01*
X7566100Y-11121386D01*
X7580386Y-11107100D01*
X7608957Y-11092814D01*
X7837528Y-11392814D02*
X7837528Y-11192814D01*
X7837528Y-11221386D02*
X7851814Y-11207100D01*
X7880386Y-11192814D01*
X7923243Y-11192814D01*
X7951814Y-11207100D01*
X7966100Y-11235671D01*
X7966100Y-11392814D01*
X7966100Y-11235671D02*
X7980386Y-11207100D01*
X8008957Y-11192814D01*
X8051814Y-11192814D01*
X8080386Y-11207100D01*
X8094671Y-11235671D01*
X8094671Y-11392814D01*
X8237528Y-11392814D02*
X8237528Y-11192814D01*
X8237528Y-11221386D02*
X8251814Y-11207100D01*
X8280386Y-11192814D01*
X8323243Y-11192814D01*
X8351814Y-11207100D01*
X8366100Y-11235671D01*
X8366100Y-11392814D01*
X8366100Y-11235671D02*
X8380386Y-11207100D01*
X8408957Y-11192814D01*
X8451814Y-11192814D01*
X8480386Y-11207100D01*
X8494671Y-11235671D01*
X8494671Y-11392814D01*
X9080386Y-11078529D02*
X8823243Y-11464243D01*
X9466100Y-11092814D02*
X9494671Y-11092814D01*
X9523243Y-11107100D01*
X9537528Y-11121386D01*
X9551814Y-11149957D01*
X9566100Y-11207100D01*
X9566100Y-11278529D01*
X9551814Y-11335671D01*
X9537528Y-11364243D01*
X9523243Y-11378529D01*
X9494671Y-11392814D01*
X9466100Y-11392814D01*
X9437528Y-11378529D01*
X9423243Y-11364243D01*
X9408957Y-11335671D01*
X9394671Y-11278529D01*
X9394671Y-11207100D01*
X9408957Y-11149957D01*
X9423243Y-11121386D01*
X9437528Y-11107100D01*
X9466100Y-11092814D01*
X9694671Y-11364243D02*
X9708957Y-11378529D01*
X9694671Y-11392814D01*
X9680386Y-11378529D01*
X9694671Y-11364243D01*
X9694671Y-11392814D01*
X9894671Y-11092814D02*
X9923243Y-11092814D01*
X9951814Y-11107100D01*
X9966100Y-11121386D01*
X9980386Y-11149957D01*
X9994671Y-11207100D01*
X9994671Y-11278529D01*
X9980386Y-11335671D01*
X9966100Y-11364243D01*
X9951814Y-11378529D01*
X9923243Y-11392814D01*
X9894671Y-11392814D01*
X9866100Y-11378529D01*
X9851814Y-11364243D01*
X9837528Y-11335671D01*
X9823243Y-11278529D01*
X9823243Y-11207100D01*
X9837528Y-11149957D01*
X9851814Y-11121386D01*
X9866100Y-11107100D01*
X9894671Y-11092814D01*
X10094671Y-11092814D02*
X10280386Y-11092814D01*
X10180386Y-11207100D01*
X10223243Y-11207100D01*
X10251814Y-11221386D01*
X10266100Y-11235671D01*
X10280386Y-11264243D01*
X10280386Y-11335671D01*
X10266100Y-11364243D01*
X10251814Y-11378529D01*
X10223243Y-11392814D01*
X10137528Y-11392814D01*
X10108957Y-11378529D01*
X10094671Y-11364243D01*
X10423243Y-11392814D02*
X10480386Y-11392814D01*
X10508957Y-11378529D01*
X10523243Y-11364243D01*
X10551814Y-11321386D01*
X10566100Y-11264243D01*
X10566100Y-11149957D01*
X10551814Y-11121386D01*
X10537528Y-11107100D01*
X10508957Y-11092814D01*
X10451814Y-11092814D01*
X10423243Y-11107100D01*
X10408957Y-11121386D01*
X10394671Y-11149957D01*
X10394671Y-11221386D01*
X10408957Y-11249957D01*
X10423243Y-11264243D01*
X10451814Y-11278529D01*
X10508957Y-11278529D01*
X10537528Y-11264243D01*
X10551814Y-11249957D01*
X10566100Y-11221386D01*
X10680386Y-11092814D02*
X10680386Y-11149957D01*
X10794671Y-11092814D02*
X10794671Y-11149957D01*
X11237528Y-11507100D02*
X11223243Y-11492814D01*
X11194671Y-11449957D01*
X11180386Y-11421386D01*
X11166100Y-11378529D01*
X11151814Y-11307100D01*
X11151814Y-11249957D01*
X11166100Y-11178529D01*
X11180386Y-11135672D01*
X11194671Y-11107100D01*
X11223243Y-11064243D01*
X11237528Y-11049957D01*
X11394671Y-11221386D02*
X11366100Y-11207100D01*
X11351814Y-11192814D01*
X11337528Y-11164243D01*
X11337528Y-11149957D01*
X11351814Y-11121386D01*
X11366100Y-11107100D01*
X11394671Y-11092814D01*
X11451814Y-11092814D01*
X11480385Y-11107100D01*
X11494671Y-11121386D01*
X11508957Y-11149957D01*
X11508957Y-11164243D01*
X11494671Y-11192814D01*
X11480385Y-11207100D01*
X11451814Y-11221386D01*
X11394671Y-11221386D01*
X11366100Y-11235671D01*
X11351814Y-11249957D01*
X11337528Y-11278529D01*
X11337528Y-11335671D01*
X11351814Y-11364243D01*
X11366100Y-11378529D01*
X11394671Y-11392814D01*
X11451814Y-11392814D01*
X11480385Y-11378529D01*
X11494671Y-11364243D01*
X11508957Y-11335671D01*
X11508957Y-11278529D01*
X11494671Y-11249957D01*
X11480385Y-11235671D01*
X11451814Y-11221386D01*
X11608957Y-11092814D02*
X11794671Y-11092814D01*
X11694671Y-11207100D01*
X11737528Y-11207100D01*
X11766100Y-11221386D01*
X11780385Y-11235671D01*
X11794671Y-11264243D01*
X11794671Y-11335671D01*
X11780385Y-11364243D01*
X11766100Y-11378529D01*
X11737528Y-11392814D01*
X11651814Y-11392814D01*
X11623243Y-11378529D01*
X11608957Y-11364243D01*
X12151814Y-11392814D02*
X12151814Y-11092814D01*
X12280385Y-11392814D02*
X12280385Y-11235671D01*
X12266100Y-11207100D01*
X12237528Y-11192814D01*
X12194671Y-11192814D01*
X12166100Y-11207100D01*
X12151814Y-11221386D01*
X12466100Y-11392814D02*
X12437528Y-11378529D01*
X12423243Y-11364243D01*
X12408957Y-11335671D01*
X12408957Y-11249957D01*
X12423243Y-11221386D01*
X12437528Y-11207100D01*
X12466100Y-11192814D01*
X12508957Y-11192814D01*
X12537528Y-11207100D01*
X12551814Y-11221386D01*
X12566100Y-11249957D01*
X12566100Y-11335671D01*
X12551814Y-11364243D01*
X12537528Y-11378529D01*
X12508957Y-11392814D01*
X12466100Y-11392814D01*
X12737528Y-11392814D02*
X12708957Y-11378529D01*
X12694671Y-11349957D01*
X12694671Y-11092814D01*
X12966100Y-11378529D02*
X12937528Y-11392814D01*
X12880386Y-11392814D01*
X12851814Y-11378529D01*
X12837528Y-11349957D01*
X12837528Y-11235671D01*
X12851814Y-11207100D01*
X12880386Y-11192814D01*
X12937528Y-11192814D01*
X12966100Y-11207100D01*
X12980386Y-11235671D01*
X12980386Y-11264243D01*
X12837528Y-11292814D01*
X13094671Y-11378529D02*
X13123243Y-11392814D01*
X13180386Y-11392814D01*
X13208957Y-11378529D01*
X13223243Y-11349957D01*
X13223243Y-11335671D01*
X13208957Y-11307100D01*
X13180386Y-11292814D01*
X13137528Y-11292814D01*
X13108957Y-11278529D01*
X13094671Y-11249957D01*
X13094671Y-11235671D01*
X13108957Y-11207100D01*
X13137528Y-11192814D01*
X13180386Y-11192814D01*
X13208957Y-11207100D01*
X13323243Y-11507100D02*
X13337528Y-11492814D01*
X13366100Y-11449957D01*
X13380386Y-11421386D01*
X13394671Y-11378529D01*
X13408957Y-11307100D01*
X13408957Y-11249957D01*
X13394671Y-11178529D01*
X13380386Y-11135672D01*
X13366100Y-11107100D01*
X13337528Y-11064243D01*
X13323243Y-11049957D01*
X6489900Y-11729300D02*
X6566100Y-11653100D01*
X6489900Y-11576900D01*
X6413700Y-11653100D01*
X6489900Y-11729300D01*
X6994671Y-11788814D02*
X6823243Y-11788814D01*
X6908957Y-11788814D02*
X6908957Y-11488814D01*
X6880386Y-11531671D01*
X6851814Y-11560243D01*
X6823243Y-11574529D01*
X7123243Y-11760243D02*
X7137528Y-11774529D01*
X7123243Y-11788814D01*
X7108957Y-11774529D01*
X7123243Y-11760243D01*
X7123243Y-11788814D01*
X7408957Y-11488814D02*
X7266100Y-11488814D01*
X7251814Y-11631671D01*
X7266100Y-11617386D01*
X7294671Y-11603100D01*
X7366100Y-11603100D01*
X7394671Y-11617386D01*
X7408957Y-11631671D01*
X7423243Y-11660243D01*
X7423243Y-11731671D01*
X7408957Y-11760243D01*
X7394671Y-11774529D01*
X7366100Y-11788814D01*
X7294671Y-11788814D01*
X7266100Y-11774529D01*
X7251814Y-11760243D01*
X7537528Y-11517386D02*
X7551814Y-11503100D01*
X7580386Y-11488814D01*
X7651814Y-11488814D01*
X7680386Y-11503100D01*
X7694671Y-11517386D01*
X7708957Y-11545957D01*
X7708957Y-11574529D01*
X7694671Y-11617386D01*
X7523243Y-11788814D01*
X7708957Y-11788814D01*
X7837528Y-11788814D02*
X7837528Y-11588814D01*
X7837528Y-11617386D02*
X7851814Y-11603100D01*
X7880386Y-11588814D01*
X7923243Y-11588814D01*
X7951814Y-11603100D01*
X7966100Y-11631671D01*
X7966100Y-11788814D01*
X7966100Y-11631671D02*
X7980386Y-11603100D01*
X8008957Y-11588814D01*
X8051814Y-11588814D01*
X8080386Y-11603100D01*
X8094671Y-11631671D01*
X8094671Y-11788814D01*
X8237528Y-11788814D02*
X8237528Y-11588814D01*
X8237528Y-11617386D02*
X8251814Y-11603100D01*
X8280386Y-11588814D01*
X8323243Y-11588814D01*
X8351814Y-11603100D01*
X8366100Y-11631671D01*
X8366100Y-11788814D01*
X8366100Y-11631671D02*
X8380386Y-11603100D01*
X8408957Y-11588814D01*
X8451814Y-11588814D01*
X8480386Y-11603100D01*
X8494671Y-11631671D01*
X8494671Y-11788814D01*
X9080386Y-11474529D02*
X8823243Y-11860243D01*
X9466100Y-11488814D02*
X9494671Y-11488814D01*
X9523243Y-11503100D01*
X9537528Y-11517386D01*
X9551814Y-11545957D01*
X9566100Y-11603100D01*
X9566100Y-11674529D01*
X9551814Y-11731671D01*
X9537528Y-11760243D01*
X9523243Y-11774529D01*
X9494671Y-11788814D01*
X9466100Y-11788814D01*
X9437528Y-11774529D01*
X9423243Y-11760243D01*
X9408957Y-11731671D01*
X9394671Y-11674529D01*
X9394671Y-11603100D01*
X9408957Y-11545957D01*
X9423243Y-11517386D01*
X9437528Y-11503100D01*
X9466100Y-11488814D01*
X9694671Y-11760243D02*
X9708957Y-11774529D01*
X9694671Y-11788814D01*
X9680386Y-11774529D01*
X9694671Y-11760243D01*
X9694671Y-11788814D01*
X9894671Y-11488814D02*
X9923243Y-11488814D01*
X9951814Y-11503100D01*
X9966100Y-11517386D01*
X9980386Y-11545957D01*
X9994671Y-11603100D01*
X9994671Y-11674529D01*
X9980386Y-11731671D01*
X9966100Y-11760243D01*
X9951814Y-11774529D01*
X9923243Y-11788814D01*
X9894671Y-11788814D01*
X9866100Y-11774529D01*
X9851814Y-11760243D01*
X9837528Y-11731671D01*
X9823243Y-11674529D01*
X9823243Y-11603100D01*
X9837528Y-11545957D01*
X9851814Y-11517386D01*
X9866100Y-11503100D01*
X9894671Y-11488814D01*
X10251814Y-11488814D02*
X10194671Y-11488814D01*
X10166100Y-11503100D01*
X10151814Y-11517386D01*
X10123243Y-11560243D01*
X10108957Y-11617386D01*
X10108957Y-11731671D01*
X10123243Y-11760243D01*
X10137528Y-11774529D01*
X10166100Y-11788814D01*
X10223243Y-11788814D01*
X10251814Y-11774529D01*
X10266100Y-11760243D01*
X10280386Y-11731671D01*
X10280386Y-11660243D01*
X10266100Y-11631671D01*
X10251814Y-11617386D01*
X10223243Y-11603100D01*
X10166100Y-11603100D01*
X10137528Y-11617386D01*
X10123243Y-11631671D01*
X10108957Y-11660243D01*
X10466100Y-11488814D02*
X10494671Y-11488814D01*
X10523243Y-11503100D01*
X10537528Y-11517386D01*
X10551814Y-11545957D01*
X10566100Y-11603100D01*
X10566100Y-11674529D01*
X10551814Y-11731671D01*
X10537528Y-11760243D01*
X10523243Y-11774529D01*
X10494671Y-11788814D01*
X10466100Y-11788814D01*
X10437528Y-11774529D01*
X10423243Y-11760243D01*
X10408957Y-11731671D01*
X10394671Y-11674529D01*
X10394671Y-11603100D01*
X10408957Y-11545957D01*
X10423243Y-11517386D01*
X10437528Y-11503100D01*
X10466100Y-11488814D01*
X10680386Y-11488814D02*
X10680386Y-11545957D01*
X10794671Y-11488814D02*
X10794671Y-11545957D01*
X11237528Y-11903100D02*
X11223243Y-11888814D01*
X11194671Y-11845957D01*
X11180386Y-11817386D01*
X11166100Y-11774529D01*
X11151814Y-11703100D01*
X11151814Y-11645957D01*
X11166100Y-11574529D01*
X11180386Y-11531671D01*
X11194671Y-11503100D01*
X11223243Y-11460243D01*
X11237528Y-11445957D01*
X11508957Y-11788814D02*
X11337528Y-11788814D01*
X11423243Y-11788814D02*
X11423243Y-11488814D01*
X11394671Y-11531671D01*
X11366100Y-11560243D01*
X11337528Y-11574529D01*
X11766100Y-11488814D02*
X11708957Y-11488814D01*
X11680385Y-11503100D01*
X11666100Y-11517386D01*
X11637528Y-11560243D01*
X11623243Y-11617386D01*
X11623243Y-11731671D01*
X11637528Y-11760243D01*
X11651814Y-11774529D01*
X11680385Y-11788814D01*
X11737528Y-11788814D01*
X11766100Y-11774529D01*
X11780385Y-11760243D01*
X11794671Y-11731671D01*
X11794671Y-11660243D01*
X11780385Y-11631671D01*
X11766100Y-11617386D01*
X11737528Y-11603100D01*
X11680385Y-11603100D01*
X11651814Y-11617386D01*
X11637528Y-11631671D01*
X11623243Y-11660243D01*
X12151814Y-11788814D02*
X12151814Y-11488814D01*
X12280385Y-11788814D02*
X12280385Y-11631671D01*
X12266100Y-11603100D01*
X12237528Y-11588814D01*
X12194671Y-11588814D01*
X12166100Y-11603100D01*
X12151814Y-11617386D01*
X12466100Y-11788814D02*
X12437528Y-11774529D01*
X12423243Y-11760243D01*
X12408957Y-11731671D01*
X12408957Y-11645957D01*
X12423243Y-11617386D01*
X12437528Y-11603100D01*
X12466100Y-11588814D01*
X12508957Y-11588814D01*
X12537528Y-11603100D01*
X12551814Y-11617386D01*
X12566100Y-11645957D01*
X12566100Y-11731671D01*
X12551814Y-11760243D01*
X12537528Y-11774529D01*
X12508957Y-11788814D01*
X12466100Y-11788814D01*
X12737528Y-11788814D02*
X12708957Y-11774529D01*
X12694671Y-11745957D01*
X12694671Y-11488814D01*
X12966100Y-11774529D02*
X12937528Y-11788814D01*
X12880386Y-11788814D01*
X12851814Y-11774529D01*
X12837528Y-11745957D01*
X12837528Y-11631671D01*
X12851814Y-11603100D01*
X12880386Y-11588814D01*
X12937528Y-11588814D01*
X12966100Y-11603100D01*
X12980386Y-11631671D01*
X12980386Y-11660243D01*
X12837528Y-11688814D01*
X13094671Y-11774529D02*
X13123243Y-11788814D01*
X13180386Y-11788814D01*
X13208957Y-11774529D01*
X13223243Y-11745957D01*
X13223243Y-11731671D01*
X13208957Y-11703100D01*
X13180386Y-11688814D01*
X13137528Y-11688814D01*
X13108957Y-11674529D01*
X13094671Y-11645957D01*
X13094671Y-11631671D01*
X13108957Y-11603100D01*
X13137528Y-11588814D01*
X13180386Y-11588814D01*
X13208957Y-11603100D01*
X13323243Y-11903100D02*
X13337528Y-11888814D01*
X13366100Y-11845957D01*
X13380386Y-11817386D01*
X13394671Y-11774529D01*
X13408957Y-11703100D01*
X13408957Y-11645957D01*
X13394671Y-11574529D01*
X13380386Y-11531671D01*
X13366100Y-11503100D01*
X13337528Y-11460243D01*
X13323243Y-11445957D01*
M02*
