G04 #@! TF.FileFunction,Legend,Top*
%FSLAX46Y46*%
G04 Gerber Fmt 4.6, Leading zero omitted, Abs format (unit mm)*
G04 Created by KiCad (PCBNEW 4.0.6) date 04/10/18 12:10:19*
%MOMM*%
%LPD*%
G01*
G04 APERTURE LIST*
%ADD10C,0.100000*%
%ADD11C,0.300000*%
%ADD12C,0.200000*%
%ADD13C,0.120000*%
%ADD14C,0.150000*%
%ADD15C,0.010000*%
G04 APERTURE END LIST*
D10*
D11*
X116646430Y-37508571D02*
X116646430Y-36008571D01*
X117217858Y-36008571D01*
X117360716Y-36080000D01*
X117432144Y-36151429D01*
X117503573Y-36294286D01*
X117503573Y-36508571D01*
X117432144Y-36651429D01*
X117360716Y-36722857D01*
X117217858Y-36794286D01*
X116646430Y-36794286D01*
X118146430Y-37508571D02*
X118146430Y-36508571D01*
X118146430Y-36794286D02*
X118217858Y-36651429D01*
X118289287Y-36580000D01*
X118432144Y-36508571D01*
X118575001Y-36508571D01*
X119289287Y-37508571D02*
X119146429Y-37437143D01*
X119075001Y-37365714D01*
X119003572Y-37222857D01*
X119003572Y-36794286D01*
X119075001Y-36651429D01*
X119146429Y-36580000D01*
X119289287Y-36508571D01*
X119503572Y-36508571D01*
X119646429Y-36580000D01*
X119717858Y-36651429D01*
X119789287Y-36794286D01*
X119789287Y-37222857D01*
X119717858Y-37365714D01*
X119646429Y-37437143D01*
X119503572Y-37508571D01*
X119289287Y-37508571D01*
X120432144Y-36508571D02*
X120432144Y-37794286D01*
X120360715Y-37937143D01*
X120217858Y-38008571D01*
X120146430Y-38008571D01*
X120432144Y-36008571D02*
X120360715Y-36080000D01*
X120432144Y-36151429D01*
X120503572Y-36080000D01*
X120432144Y-36008571D01*
X120432144Y-36151429D01*
X121717858Y-37437143D02*
X121575001Y-37508571D01*
X121289287Y-37508571D01*
X121146430Y-37437143D01*
X121075001Y-37294286D01*
X121075001Y-36722857D01*
X121146430Y-36580000D01*
X121289287Y-36508571D01*
X121575001Y-36508571D01*
X121717858Y-36580000D01*
X121789287Y-36722857D01*
X121789287Y-36865714D01*
X121075001Y-37008571D01*
X122217858Y-36508571D02*
X122789287Y-36508571D01*
X122432144Y-36008571D02*
X122432144Y-37294286D01*
X122503572Y-37437143D01*
X122646430Y-37508571D01*
X122789287Y-37508571D01*
X124432144Y-37508571D02*
X124432144Y-36008571D01*
X124432144Y-36722857D02*
X125289287Y-36722857D01*
X125289287Y-37508571D02*
X125289287Y-36008571D01*
X125932144Y-36151429D02*
X126003573Y-36080000D01*
X126146430Y-36008571D01*
X126503573Y-36008571D01*
X126646430Y-36080000D01*
X126717859Y-36151429D01*
X126789287Y-36294286D01*
X126789287Y-36437143D01*
X126717859Y-36651429D01*
X125860716Y-37508571D01*
X126789287Y-37508571D01*
X127717858Y-36008571D02*
X127860715Y-36008571D01*
X128003572Y-36080000D01*
X128075001Y-36151429D01*
X128146430Y-36294286D01*
X128217858Y-36580000D01*
X128217858Y-36937143D01*
X128146430Y-37222857D01*
X128075001Y-37365714D01*
X128003572Y-37437143D01*
X127860715Y-37508571D01*
X127717858Y-37508571D01*
X127575001Y-37437143D01*
X127503572Y-37365714D01*
X127432144Y-37222857D01*
X127360715Y-36937143D01*
X127360715Y-36580000D01*
X127432144Y-36294286D01*
X127503572Y-36151429D01*
X127575001Y-36080000D01*
X127717858Y-36008571D01*
X129646429Y-37508571D02*
X128789286Y-37508571D01*
X129217858Y-37508571D02*
X129217858Y-36008571D01*
X129075001Y-36222857D01*
X128932143Y-36365714D01*
X128789286Y-36437143D01*
X130503572Y-36651429D02*
X130360714Y-36580000D01*
X130289286Y-36508571D01*
X130217857Y-36365714D01*
X130217857Y-36294286D01*
X130289286Y-36151429D01*
X130360714Y-36080000D01*
X130503572Y-36008571D01*
X130789286Y-36008571D01*
X130932143Y-36080000D01*
X131003572Y-36151429D01*
X131075000Y-36294286D01*
X131075000Y-36365714D01*
X131003572Y-36508571D01*
X130932143Y-36580000D01*
X130789286Y-36651429D01*
X130503572Y-36651429D01*
X130360714Y-36722857D01*
X130289286Y-36794286D01*
X130217857Y-36937143D01*
X130217857Y-37222857D01*
X130289286Y-37365714D01*
X130360714Y-37437143D01*
X130503572Y-37508571D01*
X130789286Y-37508571D01*
X130932143Y-37437143D01*
X131003572Y-37365714D01*
X131075000Y-37222857D01*
X131075000Y-36937143D01*
X131003572Y-36794286D01*
X130932143Y-36722857D01*
X130789286Y-36651429D01*
X91166999Y-37080000D02*
X91881285Y-37080000D01*
X91024142Y-37508571D02*
X91524142Y-36008571D01*
X92024142Y-37508571D01*
X92524142Y-37365714D02*
X92595570Y-37437143D01*
X92524142Y-37508571D01*
X92452713Y-37437143D01*
X92524142Y-37365714D01*
X92524142Y-37508571D01*
X93238428Y-37508571D02*
X93238428Y-36008571D01*
X93738428Y-37080000D01*
X94238428Y-36008571D01*
X94238428Y-37508571D01*
X94952714Y-37365714D02*
X95024142Y-37437143D01*
X94952714Y-37508571D01*
X94881285Y-37437143D01*
X94952714Y-37365714D01*
X94952714Y-37508571D01*
X96667000Y-37651429D02*
X96524143Y-37580000D01*
X96381286Y-37437143D01*
X96167000Y-37222857D01*
X96024143Y-37151429D01*
X95881286Y-37151429D01*
X95952714Y-37508571D02*
X95809857Y-37437143D01*
X95667000Y-37294286D01*
X95595571Y-37008571D01*
X95595571Y-36508571D01*
X95667000Y-36222857D01*
X95809857Y-36080000D01*
X95952714Y-36008571D01*
X96238428Y-36008571D01*
X96381286Y-36080000D01*
X96524143Y-36222857D01*
X96595571Y-36508571D01*
X96595571Y-37008571D01*
X96524143Y-37294286D01*
X96381286Y-37437143D01*
X96238428Y-37508571D01*
X95952714Y-37508571D01*
X99595572Y-37508571D02*
X99524143Y-37508571D01*
X99381286Y-37437143D01*
X99167000Y-37222857D01*
X98809857Y-36794286D01*
X98667000Y-36580000D01*
X98595572Y-36365714D01*
X98595572Y-36222857D01*
X98667000Y-36080000D01*
X98809857Y-36008571D01*
X98881286Y-36008571D01*
X99024143Y-36080000D01*
X99095572Y-36222857D01*
X99095572Y-36294286D01*
X99024143Y-36437143D01*
X98952714Y-36508571D01*
X98524143Y-36794286D01*
X98452714Y-36865714D01*
X98381286Y-37008571D01*
X98381286Y-37222857D01*
X98452714Y-37365714D01*
X98524143Y-37437143D01*
X98667000Y-37508571D01*
X98881286Y-37508571D01*
X99024143Y-37437143D01*
X99095572Y-37365714D01*
X99309857Y-37080000D01*
X99381286Y-36865714D01*
X99381286Y-36722857D01*
X101381286Y-37508571D02*
X101381286Y-36008571D01*
X101881286Y-37080000D01*
X102381286Y-36008571D01*
X102381286Y-37508571D01*
X103095572Y-37365714D02*
X103167000Y-37437143D01*
X103095572Y-37508571D01*
X103024143Y-37437143D01*
X103095572Y-37365714D01*
X103095572Y-37508571D01*
X104667001Y-37508571D02*
X104167001Y-36794286D01*
X103809858Y-37508571D02*
X103809858Y-36008571D01*
X104381286Y-36008571D01*
X104524144Y-36080000D01*
X104595572Y-36151429D01*
X104667001Y-36294286D01*
X104667001Y-36508571D01*
X104595572Y-36651429D01*
X104524144Y-36722857D01*
X104381286Y-36794286D01*
X103809858Y-36794286D01*
D12*
X227626667Y-50855524D02*
X227626667Y-50236476D01*
X227998095Y-50979333D02*
X226698095Y-50546000D01*
X227998095Y-50112667D01*
X227317143Y-55533143D02*
X227379048Y-55347429D01*
X227440952Y-55285524D01*
X227564762Y-55223619D01*
X227750476Y-55223619D01*
X227874286Y-55285524D01*
X227936190Y-55347429D01*
X227998095Y-55471238D01*
X227998095Y-55966476D01*
X226698095Y-55966476D01*
X226698095Y-55533143D01*
X226760000Y-55409333D01*
X226821905Y-55347429D01*
X226945714Y-55285524D01*
X227069524Y-55285524D01*
X227193333Y-55347429D01*
X227255238Y-55409333D01*
X227317143Y-55533143D01*
X227317143Y-55966476D01*
X227878381Y-63269524D02*
X227878381Y-62602857D01*
X228878381Y-63269524D01*
X228878381Y-62602857D01*
X228354571Y-62221905D02*
X228354571Y-61888571D01*
X228878381Y-61745714D02*
X228878381Y-62221905D01*
X227878381Y-62221905D01*
X227878381Y-61745714D01*
X228878381Y-60745714D02*
X228402190Y-61079048D01*
X228878381Y-61317143D02*
X227878381Y-61317143D01*
X227878381Y-60936190D01*
X227926000Y-60840952D01*
X227973619Y-60793333D01*
X228068857Y-60745714D01*
X228211714Y-60745714D01*
X228306952Y-60793333D01*
X228354571Y-60840952D01*
X228402190Y-60936190D01*
X228402190Y-61317143D01*
X227878381Y-60126667D02*
X227878381Y-59936190D01*
X227926000Y-59840952D01*
X228021238Y-59745714D01*
X228211714Y-59698095D01*
X228545048Y-59698095D01*
X228735524Y-59745714D01*
X228830762Y-59840952D01*
X228878381Y-59936190D01*
X228878381Y-60126667D01*
X228830762Y-60221905D01*
X228735524Y-60317143D01*
X228545048Y-60364762D01*
X228211714Y-60364762D01*
X228021238Y-60317143D01*
X227926000Y-60221905D01*
X227878381Y-60126667D01*
X228783143Y-58698095D02*
X228830762Y-58745714D01*
X228878381Y-58888571D01*
X228878381Y-58983809D01*
X228830762Y-59126667D01*
X228735524Y-59221905D01*
X228640286Y-59269524D01*
X228449810Y-59317143D01*
X228306952Y-59317143D01*
X228116476Y-59269524D01*
X228021238Y-59221905D01*
X227926000Y-59126667D01*
X227878381Y-58983809D01*
X227878381Y-58888571D01*
X227926000Y-58745714D01*
X227973619Y-58698095D01*
X227726000Y-67106666D02*
X227659333Y-67240000D01*
X227659333Y-67440000D01*
X227726000Y-67640000D01*
X227859333Y-67773333D01*
X227992667Y-67840000D01*
X228259333Y-67906666D01*
X228459333Y-67906666D01*
X228726000Y-67840000D01*
X228859333Y-67773333D01*
X228992667Y-67640000D01*
X229059333Y-67440000D01*
X229059333Y-67306666D01*
X228992667Y-67106666D01*
X228926000Y-67040000D01*
X228459333Y-67040000D01*
X228459333Y-67306666D01*
X229059333Y-66440000D02*
X227659333Y-66440000D01*
X229059333Y-65640000D01*
X227659333Y-65640000D01*
X229059333Y-64973333D02*
X227659333Y-64973333D01*
X227659333Y-64639999D01*
X227726000Y-64439999D01*
X227859333Y-64306666D01*
X227992667Y-64239999D01*
X228259333Y-64173333D01*
X228459333Y-64173333D01*
X228726000Y-64239999D01*
X228859333Y-64306666D01*
X228992667Y-64439999D01*
X229059333Y-64639999D01*
X229059333Y-64973333D01*
X229894381Y-54681238D02*
X229418190Y-55014572D01*
X229894381Y-55252667D02*
X228894381Y-55252667D01*
X228894381Y-54871714D01*
X228942000Y-54776476D01*
X228989619Y-54728857D01*
X229084857Y-54681238D01*
X229227714Y-54681238D01*
X229322952Y-54728857D01*
X229370571Y-54776476D01*
X229418190Y-54871714D01*
X229418190Y-55252667D01*
X229846762Y-54300286D02*
X229894381Y-54157429D01*
X229894381Y-53919333D01*
X229846762Y-53824095D01*
X229799143Y-53776476D01*
X229703905Y-53728857D01*
X229608667Y-53728857D01*
X229513429Y-53776476D01*
X229465810Y-53824095D01*
X229418190Y-53919333D01*
X229370571Y-54109810D01*
X229322952Y-54205048D01*
X229275333Y-54252667D01*
X229180095Y-54300286D01*
X229084857Y-54300286D01*
X228989619Y-54252667D01*
X228942000Y-54205048D01*
X228894381Y-54109810D01*
X228894381Y-53871714D01*
X228942000Y-53728857D01*
X229227714Y-52871714D02*
X229894381Y-52871714D01*
X228846762Y-53109810D02*
X229561048Y-53347905D01*
X229561048Y-52728857D01*
X229322952Y-52205048D02*
X229275333Y-52300286D01*
X229227714Y-52347905D01*
X229132476Y-52395524D01*
X229084857Y-52395524D01*
X228989619Y-52347905D01*
X228942000Y-52300286D01*
X228894381Y-52205048D01*
X228894381Y-52014571D01*
X228942000Y-51919333D01*
X228989619Y-51871714D01*
X229084857Y-51824095D01*
X229132476Y-51824095D01*
X229227714Y-51871714D01*
X229275333Y-51919333D01*
X229322952Y-52014571D01*
X229322952Y-52205048D01*
X229370571Y-52300286D01*
X229418190Y-52347905D01*
X229513429Y-52395524D01*
X229703905Y-52395524D01*
X229799143Y-52347905D01*
X229846762Y-52300286D01*
X229894381Y-52205048D01*
X229894381Y-52014571D01*
X229846762Y-51919333D01*
X229799143Y-51871714D01*
X229703905Y-51824095D01*
X229513429Y-51824095D01*
X229418190Y-51871714D01*
X229370571Y-51919333D01*
X229322952Y-52014571D01*
X228894381Y-50919333D02*
X228894381Y-51395524D01*
X229370571Y-51443143D01*
X229322952Y-51395524D01*
X229275333Y-51300286D01*
X229275333Y-51062190D01*
X229322952Y-50966952D01*
X229370571Y-50919333D01*
X229465810Y-50871714D01*
X229703905Y-50871714D01*
X229799143Y-50919333D01*
X229846762Y-50966952D01*
X229894381Y-51062190D01*
X229894381Y-51300286D01*
X229846762Y-51395524D01*
X229799143Y-51443143D01*
X228529143Y-41560571D02*
X228576762Y-41608190D01*
X228624381Y-41751047D01*
X228624381Y-41846285D01*
X228576762Y-41989143D01*
X228481524Y-42084381D01*
X228386286Y-42132000D01*
X228195810Y-42179619D01*
X228052952Y-42179619D01*
X227862476Y-42132000D01*
X227767238Y-42084381D01*
X227672000Y-41989143D01*
X227624381Y-41846285D01*
X227624381Y-41751047D01*
X227672000Y-41608190D01*
X227719619Y-41560571D01*
X228338667Y-41179619D02*
X228338667Y-40703428D01*
X228624381Y-41274857D02*
X227624381Y-40941524D01*
X228624381Y-40608190D01*
X228624381Y-40274857D02*
X227624381Y-40274857D01*
X228624381Y-39703428D01*
X227624381Y-39703428D01*
X228719619Y-39465333D02*
X228719619Y-38703428D01*
X228624381Y-37989142D02*
X228624381Y-38465333D01*
X227624381Y-38465333D01*
X228529143Y-47013619D02*
X228576762Y-47061238D01*
X228624381Y-47204095D01*
X228624381Y-47299333D01*
X228576762Y-47442191D01*
X228481524Y-47537429D01*
X228386286Y-47585048D01*
X228195810Y-47632667D01*
X228052952Y-47632667D01*
X227862476Y-47585048D01*
X227767238Y-47537429D01*
X227672000Y-47442191D01*
X227624381Y-47299333D01*
X227624381Y-47204095D01*
X227672000Y-47061238D01*
X227719619Y-47013619D01*
X228338667Y-46632667D02*
X228338667Y-46156476D01*
X228624381Y-46727905D02*
X227624381Y-46394572D01*
X228624381Y-46061238D01*
X228624381Y-45727905D02*
X227624381Y-45727905D01*
X228624381Y-45156476D01*
X227624381Y-45156476D01*
X228719619Y-44918381D02*
X228719619Y-44156476D01*
X228624381Y-43918381D02*
X227624381Y-43918381D01*
X228100571Y-43918381D02*
X228100571Y-43346952D01*
X228624381Y-43346952D02*
X227624381Y-43346952D01*
X68365619Y-63476476D02*
X68365619Y-64143143D01*
X67365619Y-63476476D01*
X67365619Y-64143143D01*
X67889429Y-64524095D02*
X67889429Y-64857429D01*
X67365619Y-65000286D02*
X67365619Y-64524095D01*
X68365619Y-64524095D01*
X68365619Y-65000286D01*
X67365619Y-66000286D02*
X67841810Y-65666952D01*
X67365619Y-65428857D02*
X68365619Y-65428857D01*
X68365619Y-65809810D01*
X68318000Y-65905048D01*
X68270381Y-65952667D01*
X68175143Y-66000286D01*
X68032286Y-66000286D01*
X67937048Y-65952667D01*
X67889429Y-65905048D01*
X67841810Y-65809810D01*
X67841810Y-65428857D01*
X68365619Y-66619333D02*
X68365619Y-66809810D01*
X68318000Y-66905048D01*
X68222762Y-67000286D01*
X68032286Y-67047905D01*
X67698952Y-67047905D01*
X67508476Y-67000286D01*
X67413238Y-66905048D01*
X67365619Y-66809810D01*
X67365619Y-66619333D01*
X67413238Y-66524095D01*
X67508476Y-66428857D01*
X67698952Y-66381238D01*
X68032286Y-66381238D01*
X68222762Y-66428857D01*
X68318000Y-66524095D01*
X68365619Y-66619333D01*
X67460857Y-68047905D02*
X67413238Y-68000286D01*
X67365619Y-67857429D01*
X67365619Y-67762191D01*
X67413238Y-67619333D01*
X67508476Y-67524095D01*
X67603714Y-67476476D01*
X67794190Y-67428857D01*
X67937048Y-67428857D01*
X68127524Y-67476476D01*
X68222762Y-67524095D01*
X68318000Y-67619333D01*
X68365619Y-67762191D01*
X68365619Y-67857429D01*
X68318000Y-68000286D01*
X68270381Y-68047905D01*
X68871333Y-55570476D02*
X68871333Y-56189524D01*
X68499905Y-55446667D02*
X69799905Y-55880000D01*
X68499905Y-56313333D01*
X69180857Y-50638857D02*
X69118952Y-50824571D01*
X69057048Y-50886476D01*
X68933238Y-50948381D01*
X68747524Y-50948381D01*
X68623714Y-50886476D01*
X68561810Y-50824571D01*
X68499905Y-50700762D01*
X68499905Y-50205524D01*
X69799905Y-50205524D01*
X69799905Y-50638857D01*
X69738000Y-50762667D01*
X69676095Y-50824571D01*
X69552286Y-50886476D01*
X69428476Y-50886476D01*
X69304667Y-50824571D01*
X69242762Y-50762667D01*
X69180857Y-50638857D01*
X69180857Y-50205524D01*
X66349619Y-51490762D02*
X66825810Y-51157428D01*
X66349619Y-50919333D02*
X67349619Y-50919333D01*
X67349619Y-51300286D01*
X67302000Y-51395524D01*
X67254381Y-51443143D01*
X67159143Y-51490762D01*
X67016286Y-51490762D01*
X66921048Y-51443143D01*
X66873429Y-51395524D01*
X66825810Y-51300286D01*
X66825810Y-50919333D01*
X66397238Y-51871714D02*
X66349619Y-52014571D01*
X66349619Y-52252667D01*
X66397238Y-52347905D01*
X66444857Y-52395524D01*
X66540095Y-52443143D01*
X66635333Y-52443143D01*
X66730571Y-52395524D01*
X66778190Y-52347905D01*
X66825810Y-52252667D01*
X66873429Y-52062190D01*
X66921048Y-51966952D01*
X66968667Y-51919333D01*
X67063905Y-51871714D01*
X67159143Y-51871714D01*
X67254381Y-51919333D01*
X67302000Y-51966952D01*
X67349619Y-52062190D01*
X67349619Y-52300286D01*
X67302000Y-52443143D01*
X67016286Y-53300286D02*
X66349619Y-53300286D01*
X67397238Y-53062190D02*
X66682952Y-52824095D01*
X66682952Y-53443143D01*
X66921048Y-53966952D02*
X66968667Y-53871714D01*
X67016286Y-53824095D01*
X67111524Y-53776476D01*
X67159143Y-53776476D01*
X67254381Y-53824095D01*
X67302000Y-53871714D01*
X67349619Y-53966952D01*
X67349619Y-54157429D01*
X67302000Y-54252667D01*
X67254381Y-54300286D01*
X67159143Y-54347905D01*
X67111524Y-54347905D01*
X67016286Y-54300286D01*
X66968667Y-54252667D01*
X66921048Y-54157429D01*
X66921048Y-53966952D01*
X66873429Y-53871714D01*
X66825810Y-53824095D01*
X66730571Y-53776476D01*
X66540095Y-53776476D01*
X66444857Y-53824095D01*
X66397238Y-53871714D01*
X66349619Y-53966952D01*
X66349619Y-54157429D01*
X66397238Y-54252667D01*
X66444857Y-54300286D01*
X66540095Y-54347905D01*
X66730571Y-54347905D01*
X66825810Y-54300286D01*
X66873429Y-54252667D01*
X66921048Y-54157429D01*
X67349619Y-55252667D02*
X67349619Y-54776476D01*
X66873429Y-54728857D01*
X66921048Y-54776476D01*
X66968667Y-54871714D01*
X66968667Y-55109810D01*
X66921048Y-55205048D01*
X66873429Y-55252667D01*
X66778190Y-55300286D01*
X66540095Y-55300286D01*
X66444857Y-55252667D01*
X66397238Y-55205048D01*
X66349619Y-55109810D01*
X66349619Y-54871714D01*
X66397238Y-54776476D01*
X66444857Y-54728857D01*
X67460857Y-43783429D02*
X67413238Y-43735810D01*
X67365619Y-43592953D01*
X67365619Y-43497715D01*
X67413238Y-43354857D01*
X67508476Y-43259619D01*
X67603714Y-43212000D01*
X67794190Y-43164381D01*
X67937048Y-43164381D01*
X68127524Y-43212000D01*
X68222762Y-43259619D01*
X68318000Y-43354857D01*
X68365619Y-43497715D01*
X68365619Y-43592953D01*
X68318000Y-43735810D01*
X68270381Y-43783429D01*
X67651333Y-44164381D02*
X67651333Y-44640572D01*
X67365619Y-44069143D02*
X68365619Y-44402476D01*
X67365619Y-44735810D01*
X67365619Y-45069143D02*
X68365619Y-45069143D01*
X67365619Y-45640572D01*
X68365619Y-45640572D01*
X67270381Y-45878667D02*
X67270381Y-46640572D01*
X67365619Y-47354858D02*
X67365619Y-46878667D01*
X68365619Y-46878667D01*
X67460857Y-38330381D02*
X67413238Y-38282762D01*
X67365619Y-38139905D01*
X67365619Y-38044667D01*
X67413238Y-37901809D01*
X67508476Y-37806571D01*
X67603714Y-37758952D01*
X67794190Y-37711333D01*
X67937048Y-37711333D01*
X68127524Y-37758952D01*
X68222762Y-37806571D01*
X68318000Y-37901809D01*
X68365619Y-38044667D01*
X68365619Y-38139905D01*
X68318000Y-38282762D01*
X68270381Y-38330381D01*
X67651333Y-38711333D02*
X67651333Y-39187524D01*
X67365619Y-38616095D02*
X68365619Y-38949428D01*
X67365619Y-39282762D01*
X67365619Y-39616095D02*
X68365619Y-39616095D01*
X67365619Y-40187524D01*
X68365619Y-40187524D01*
X67270381Y-40425619D02*
X67270381Y-41187524D01*
X67365619Y-41425619D02*
X68365619Y-41425619D01*
X67889429Y-41425619D02*
X67889429Y-41997048D01*
X67365619Y-41997048D02*
X68365619Y-41997048D01*
D11*
X68518000Y-59385334D02*
X68584667Y-59252000D01*
X68584667Y-59052000D01*
X68518000Y-58852000D01*
X68384667Y-58718667D01*
X68251333Y-58652000D01*
X67984667Y-58585334D01*
X67784667Y-58585334D01*
X67518000Y-58652000D01*
X67384667Y-58718667D01*
X67251333Y-58852000D01*
X67184667Y-59052000D01*
X67184667Y-59185334D01*
X67251333Y-59385334D01*
X67318000Y-59452000D01*
X67784667Y-59452000D01*
X67784667Y-59185334D01*
X67184667Y-60052000D02*
X68584667Y-60052000D01*
X67184667Y-60852000D01*
X68584667Y-60852000D01*
X67184667Y-61518667D02*
X68584667Y-61518667D01*
X68584667Y-61852001D01*
X68518000Y-62052001D01*
X68384667Y-62185334D01*
X68251333Y-62252001D01*
X67984667Y-62318667D01*
X67784667Y-62318667D01*
X67518000Y-62252001D01*
X67384667Y-62185334D01*
X67251333Y-62052001D01*
X67184667Y-61852001D01*
X67184667Y-61518667D01*
X142490429Y-85046429D02*
X142561858Y-84975000D01*
X142704715Y-84903571D01*
X143061858Y-84903571D01*
X143204715Y-84975000D01*
X143276144Y-85046429D01*
X143347572Y-85189286D01*
X143347572Y-85332143D01*
X143276144Y-85546429D01*
X142419001Y-86403571D01*
X143347572Y-86403571D01*
X144633286Y-85403571D02*
X144633286Y-86403571D01*
X144276143Y-84832143D02*
X143919000Y-85903571D01*
X144847572Y-85903571D01*
X145204714Y-84903571D02*
X145704714Y-86403571D01*
X146204714Y-84903571D01*
X146633285Y-85975000D02*
X147347571Y-85975000D01*
X146490428Y-86403571D02*
X146990428Y-84903571D01*
X147490428Y-86403571D01*
X148847571Y-86260714D02*
X148776142Y-86332143D01*
X148561856Y-86403571D01*
X148418999Y-86403571D01*
X148204714Y-86332143D01*
X148061856Y-86189286D01*
X147990428Y-86046429D01*
X147918999Y-85760714D01*
X147918999Y-85546429D01*
X147990428Y-85260714D01*
X148061856Y-85117857D01*
X148204714Y-84975000D01*
X148418999Y-84903571D01*
X148561856Y-84903571D01*
X148776142Y-84975000D01*
X148847571Y-85046429D01*
X157302334Y-85025000D02*
X157169000Y-84958333D01*
X156969000Y-84958333D01*
X156769000Y-85025000D01*
X156635667Y-85158333D01*
X156569000Y-85291667D01*
X156502334Y-85558333D01*
X156502334Y-85758333D01*
X156569000Y-86025000D01*
X156635667Y-86158333D01*
X156769000Y-86291667D01*
X156969000Y-86358333D01*
X157102334Y-86358333D01*
X157302334Y-86291667D01*
X157369000Y-86225000D01*
X157369000Y-85758333D01*
X157102334Y-85758333D01*
X157969000Y-86358333D02*
X157969000Y-84958333D01*
X158769000Y-86358333D01*
X158769000Y-84958333D01*
X159435667Y-86358333D02*
X159435667Y-84958333D01*
X159769001Y-84958333D01*
X159969001Y-85025000D01*
X160102334Y-85158333D01*
X160169001Y-85291667D01*
X160235667Y-85558333D01*
X160235667Y-85758333D01*
X160169001Y-86025000D01*
X160102334Y-86158333D01*
X159969001Y-86291667D01*
X159769001Y-86358333D01*
X159435667Y-86358333D01*
X150441334Y-85825000D02*
X151508001Y-85825000D01*
X150974668Y-86358333D02*
X150974668Y-85291667D01*
X152108001Y-85091667D02*
X152174667Y-85025000D01*
X152308001Y-84958333D01*
X152641334Y-84958333D01*
X152774667Y-85025000D01*
X152841334Y-85091667D01*
X152908001Y-85225000D01*
X152908001Y-85358333D01*
X152841334Y-85558333D01*
X152041334Y-86358333D01*
X152908001Y-86358333D01*
X154108000Y-85425000D02*
X154108000Y-86358333D01*
X153774667Y-84891667D02*
X153441334Y-85891667D01*
X154308000Y-85891667D01*
X154641333Y-84958333D02*
X155108000Y-86358333D01*
X155574667Y-84958333D01*
D13*
X132055500Y-61095000D02*
X132055500Y-62095000D01*
X133755500Y-62095000D02*
X133755500Y-61095000D01*
X134976500Y-59825000D02*
X134976500Y-60825000D01*
X136676500Y-60825000D02*
X136676500Y-59825000D01*
X137897500Y-58555000D02*
X137897500Y-59555000D01*
X139597500Y-59555000D02*
X139597500Y-58555000D01*
X153123000Y-54348000D02*
X153123000Y-53348000D01*
X151423000Y-53348000D02*
X151423000Y-54348000D01*
X154852000Y-70874000D02*
X154852000Y-71874000D01*
X156552000Y-71874000D02*
X156552000Y-70874000D01*
X91352000Y-63968000D02*
X91352000Y-64968000D01*
X93052000Y-64968000D02*
X93052000Y-63968000D01*
X222623000Y-82970000D02*
X221623000Y-82970000D01*
X221623000Y-84670000D02*
X222623000Y-84670000D01*
X82716000Y-41664000D02*
X82716000Y-42664000D01*
X84416000Y-42664000D02*
X84416000Y-41664000D01*
X222623000Y-78779000D02*
X221623000Y-78779000D01*
X221623000Y-80479000D02*
X222623000Y-80479000D01*
X79033000Y-41791000D02*
X79033000Y-42791000D01*
X80733000Y-42791000D02*
X80733000Y-41791000D01*
X82081000Y-63841000D02*
X82081000Y-64841000D01*
X83781000Y-64841000D02*
X83781000Y-63841000D01*
D14*
X71882000Y-68326000D02*
X71882000Y-58166000D01*
X70612000Y-68326000D02*
X78232000Y-68326000D01*
X78232000Y-68326000D02*
X78232000Y-58166000D01*
X78232000Y-58166000D02*
X70612000Y-58166000D01*
X70612000Y-58166000D02*
X70612000Y-68326000D01*
X224616000Y-58166000D02*
X224616000Y-68326000D01*
X225886000Y-58166000D02*
X218266000Y-58166000D01*
X218266000Y-58166000D02*
X218266000Y-68326000D01*
X218266000Y-68326000D02*
X225886000Y-68326000D01*
X225886000Y-68326000D02*
X225886000Y-58166000D01*
X71882000Y-58166000D02*
X71882000Y-48006000D01*
X70612000Y-58166000D02*
X78232000Y-58166000D01*
X78232000Y-58166000D02*
X78232000Y-48006000D01*
X78232000Y-48006000D02*
X70612000Y-48006000D01*
X70612000Y-48006000D02*
X70612000Y-58166000D01*
X224616000Y-37846000D02*
X224616000Y-48006000D01*
X225886000Y-37846000D02*
X218266000Y-37846000D01*
X218266000Y-37846000D02*
X218266000Y-48006000D01*
X218266000Y-48006000D02*
X225886000Y-48006000D01*
X225886000Y-48006000D02*
X225886000Y-37846000D01*
X150749000Y-82550000D02*
X140589000Y-82550000D01*
X150749000Y-83820000D02*
X150749000Y-76200000D01*
X150749000Y-76200000D02*
X140589000Y-76200000D01*
X140589000Y-76200000D02*
X140589000Y-83820000D01*
X140589000Y-83820000D02*
X150749000Y-83820000D01*
X160909000Y-82550000D02*
X150749000Y-82550000D01*
X160909000Y-83820000D02*
X160909000Y-76200000D01*
X160909000Y-76200000D02*
X150749000Y-76200000D01*
X150749000Y-76200000D02*
X150749000Y-83820000D01*
X150749000Y-83820000D02*
X160909000Y-83820000D01*
D13*
X205896000Y-38980000D02*
X204696000Y-38980000D01*
X204696000Y-37220000D02*
X205896000Y-37220000D01*
X205896000Y-41520000D02*
X204696000Y-41520000D01*
X204696000Y-39760000D02*
X205896000Y-39760000D01*
X205896000Y-44060000D02*
X204696000Y-44060000D01*
X204696000Y-42300000D02*
X205896000Y-42300000D01*
X205896000Y-46600000D02*
X204696000Y-46600000D01*
X204696000Y-44840000D02*
X205896000Y-44840000D01*
X205896000Y-49140000D02*
X204696000Y-49140000D01*
X204696000Y-47380000D02*
X205896000Y-47380000D01*
X148218000Y-54448000D02*
X148218000Y-53248000D01*
X149978000Y-53248000D02*
X149978000Y-54448000D01*
X148218000Y-71974000D02*
X148218000Y-70774000D01*
X149978000Y-70774000D02*
X149978000Y-71974000D01*
X144662000Y-71974000D02*
X144662000Y-70774000D01*
X146422000Y-70774000D02*
X146422000Y-71974000D01*
X153280000Y-70774000D02*
X153280000Y-71974000D01*
X151520000Y-71974000D02*
X151520000Y-70774000D01*
X222723000Y-72127000D02*
X221523000Y-72127000D01*
X221523000Y-70367000D02*
X222723000Y-70367000D01*
X222723000Y-76318000D02*
X221523000Y-76318000D01*
X221523000Y-74558000D02*
X222723000Y-74558000D01*
X194810000Y-36710000D02*
G75*
G02X192810000Y-36710000I-1000000J0D01*
G01*
X192810000Y-36710000D02*
X191040000Y-36710000D01*
X191040000Y-36710000D02*
X191040000Y-49650000D01*
X191040000Y-49650000D02*
X196580000Y-49650000D01*
X196580000Y-49650000D02*
X196580000Y-36710000D01*
X196580000Y-36710000D02*
X194810000Y-36710000D01*
D14*
X120331000Y-56925000D02*
X120331000Y-57175000D01*
X128081000Y-56925000D02*
X128081000Y-57260000D01*
X128081000Y-70075000D02*
X128081000Y-69740000D01*
X120331000Y-70075000D02*
X120331000Y-69740000D01*
X120331000Y-56925000D02*
X128081000Y-56925000D01*
X120331000Y-70075000D02*
X128081000Y-70075000D01*
X120331000Y-57175000D02*
X118531000Y-57175000D01*
D13*
X151622000Y-59570000D02*
G75*
G02X149622000Y-59570000I-1000000J0D01*
G01*
X149622000Y-59570000D02*
X147852000Y-59570000D01*
X147852000Y-59570000D02*
X147852000Y-67430000D01*
X147852000Y-67430000D02*
X153392000Y-67430000D01*
X153392000Y-67430000D02*
X153392000Y-59570000D01*
X153392000Y-59570000D02*
X151622000Y-59570000D01*
X149622000Y-48126000D02*
G75*
G02X151622000Y-48126000I1000000J0D01*
G01*
X151622000Y-48126000D02*
X153392000Y-48126000D01*
X153392000Y-48126000D02*
X153392000Y-37726000D01*
X153392000Y-37726000D02*
X147852000Y-37726000D01*
X147852000Y-37726000D02*
X147852000Y-48126000D01*
X147852000Y-48126000D02*
X149622000Y-48126000D01*
D14*
X70646000Y-70606000D02*
X70646000Y-86066000D01*
X70646000Y-86066000D02*
X105646000Y-86066000D01*
X105646000Y-70606000D02*
X105646000Y-86066000D01*
X70646000Y-70606000D02*
X105646000Y-70606000D01*
X190600000Y-76581000D02*
X188600000Y-76581000D01*
X189600000Y-77581000D02*
X189600000Y-75581000D01*
X179287500Y-86106000D02*
X179287500Y-67056000D01*
X199912500Y-86106000D02*
X199912500Y-67056000D01*
X215000000Y-86106000D02*
X215000000Y-67056000D01*
X215000000Y-67056000D02*
X164200000Y-67056000D01*
X164200000Y-86106000D02*
X164200000Y-67056000D01*
X215000000Y-86106000D02*
X164200000Y-86106000D01*
D13*
X194720000Y-66420000D02*
X184480000Y-66420000D01*
X194720000Y-82310000D02*
X184480000Y-82310000D01*
X194720000Y-82310000D02*
X194720000Y-66420000D01*
X184480000Y-82310000D02*
X184480000Y-66420000D01*
X192140000Y-66420000D02*
X192140000Y-63780000D01*
X189600000Y-66420000D02*
X189600000Y-63796000D01*
X187060000Y-66420000D02*
X187060000Y-63796000D01*
D14*
X126641000Y-73318000D02*
X129941000Y-73318000D01*
X126641000Y-87718000D02*
X129941000Y-87718000D01*
X129941000Y-73318000D02*
X129941000Y-87718000D01*
X121031000Y-73318000D02*
G75*
G03X113831000Y-80518000I0J-7200000D01*
G01*
X113831000Y-80518000D02*
G75*
G03X121031000Y-87718000I7200000J0D01*
G01*
D15*
G36*
X201114187Y-59002317D02*
X201179237Y-59027473D01*
X201278385Y-59077425D01*
X201420747Y-59155752D01*
X201431832Y-59161977D01*
X201562947Y-59236952D01*
X201673596Y-59302638D01*
X201752910Y-59352410D01*
X201790023Y-59379641D01*
X201791061Y-59380974D01*
X201782096Y-59418780D01*
X201740971Y-59503210D01*
X201670366Y-59629665D01*
X201572960Y-59793544D01*
X201451435Y-59990245D01*
X201308471Y-60215170D01*
X201272890Y-60270331D01*
X201180186Y-60423398D01*
X201112683Y-60555112D01*
X201076305Y-60653565D01*
X201072572Y-60673014D01*
X201074229Y-60758624D01*
X201092788Y-60894418D01*
X201125936Y-61071687D01*
X201171360Y-61281719D01*
X201226746Y-61515804D01*
X201289780Y-61765232D01*
X201358150Y-62021290D01*
X201429542Y-62275269D01*
X201501641Y-62518457D01*
X201572136Y-62742145D01*
X201638712Y-62937621D01*
X201699055Y-63096174D01*
X201741121Y-63190244D01*
X201790673Y-63290451D01*
X201837460Y-63386337D01*
X201839993Y-63391586D01*
X201917397Y-63488440D01*
X202030368Y-63553656D01*
X202161878Y-63584909D01*
X202294901Y-63579875D01*
X202412410Y-63536228D01*
X202478516Y-63478764D01*
X202573718Y-63321166D01*
X202643478Y-63124756D01*
X202681753Y-62909559D01*
X202687176Y-62787561D01*
X202665339Y-62559870D01*
X202601247Y-62371320D01*
X202491451Y-62212759D01*
X202457213Y-62177467D01*
X202355322Y-62078470D01*
X202341328Y-60678978D01*
X202519635Y-60409062D01*
X202603307Y-60286891D01*
X202683889Y-60176987D01*
X202749885Y-60094673D01*
X202778252Y-60064384D01*
X202858562Y-59989621D01*
X202967330Y-60048196D01*
X203036077Y-60090168D01*
X203073692Y-60122756D01*
X203076097Y-60128615D01*
X203101806Y-60153456D01*
X203145792Y-60171954D01*
X203188299Y-60188626D01*
X203253387Y-60220299D01*
X203346644Y-60270066D01*
X203473658Y-60341018D01*
X203640016Y-60436247D01*
X203851305Y-60558844D01*
X203966124Y-60625864D01*
X204101187Y-60706143D01*
X204189770Y-60763319D01*
X204239710Y-60804078D01*
X204258846Y-60835107D01*
X204255016Y-60863092D01*
X204251822Y-60869593D01*
X204220752Y-60910533D01*
X204154271Y-60987330D01*
X204060124Y-61091393D01*
X203946056Y-61214132D01*
X203847400Y-61318180D01*
X203620059Y-61565134D01*
X203442210Y-61779183D01*
X203312267Y-61962480D01*
X203228642Y-62117176D01*
X203200434Y-62195732D01*
X203188783Y-62264498D01*
X203176749Y-62381799D01*
X203165391Y-62534234D01*
X203155767Y-62708404D01*
X203151238Y-62818537D01*
X203144918Y-63008929D01*
X203142137Y-63148124D01*
X203143715Y-63246819D01*
X203150469Y-63315708D01*
X203163216Y-63365487D01*
X203182773Y-63406850D01*
X203198134Y-63432106D01*
X203286842Y-63529453D01*
X203401147Y-63597291D01*
X203521416Y-63626876D01*
X203611545Y-63616172D01*
X203693152Y-63569861D01*
X203795447Y-63486924D01*
X203904083Y-63381825D01*
X204004713Y-63269032D01*
X204082988Y-63163010D01*
X204111809Y-63111778D01*
X204154982Y-63041628D01*
X204233505Y-62934778D01*
X204340203Y-62799578D01*
X204467903Y-62644381D01*
X204609429Y-62477536D01*
X204757607Y-62307396D01*
X204905263Y-62142311D01*
X205045222Y-61990633D01*
X205170310Y-61860713D01*
X205268520Y-61765339D01*
X205377557Y-61670065D01*
X205469284Y-61599817D01*
X205533621Y-61561898D01*
X205554978Y-61557729D01*
X205587706Y-61574548D01*
X205669341Y-61619692D01*
X205795172Y-61690449D01*
X205960488Y-61784109D01*
X206160578Y-61897962D01*
X206390732Y-62029298D01*
X206646238Y-62175406D01*
X206922387Y-62333576D01*
X207214467Y-62501097D01*
X207517768Y-62675259D01*
X207827579Y-62853352D01*
X208139189Y-63032665D01*
X208447888Y-63210487D01*
X208748964Y-63384109D01*
X209037708Y-63550819D01*
X209309408Y-63707908D01*
X209559354Y-63852666D01*
X209782834Y-63982380D01*
X209975139Y-64094342D01*
X210131557Y-64185841D01*
X210247378Y-64254167D01*
X210317891Y-64296608D01*
X210338329Y-64309927D01*
X210310803Y-64312560D01*
X210224208Y-64315118D01*
X210081428Y-64317592D01*
X209885346Y-64319966D01*
X209638844Y-64322231D01*
X209344806Y-64324373D01*
X209006114Y-64326379D01*
X208625652Y-64328238D01*
X208206301Y-64329937D01*
X207750946Y-64331464D01*
X207262469Y-64332807D01*
X206743753Y-64333952D01*
X206197681Y-64334889D01*
X205627136Y-64335604D01*
X205035000Y-64336085D01*
X204424157Y-64336319D01*
X204167848Y-64336342D01*
X197967939Y-64336342D01*
X198410106Y-63569695D01*
X198503711Y-63407360D01*
X198624204Y-63198332D01*
X198767556Y-62949603D01*
X198929738Y-62668164D01*
X199106723Y-62361007D01*
X199294480Y-62035125D01*
X199488982Y-61697509D01*
X199686200Y-61355151D01*
X199882105Y-61015043D01*
X199931649Y-60929025D01*
X200112304Y-60615715D01*
X200284578Y-60317606D01*
X200445884Y-60039136D01*
X200593632Y-59784743D01*
X200725233Y-59558864D01*
X200838099Y-59365937D01*
X200929641Y-59210401D01*
X200997270Y-59096692D01*
X201038396Y-59029250D01*
X201049905Y-59012080D01*
X201074115Y-58998379D01*
X201114187Y-59002317D01*
X201114187Y-59002317D01*
G37*
X201114187Y-59002317D02*
X201179237Y-59027473D01*
X201278385Y-59077425D01*
X201420747Y-59155752D01*
X201431832Y-59161977D01*
X201562947Y-59236952D01*
X201673596Y-59302638D01*
X201752910Y-59352410D01*
X201790023Y-59379641D01*
X201791061Y-59380974D01*
X201782096Y-59418780D01*
X201740971Y-59503210D01*
X201670366Y-59629665D01*
X201572960Y-59793544D01*
X201451435Y-59990245D01*
X201308471Y-60215170D01*
X201272890Y-60270331D01*
X201180186Y-60423398D01*
X201112683Y-60555112D01*
X201076305Y-60653565D01*
X201072572Y-60673014D01*
X201074229Y-60758624D01*
X201092788Y-60894418D01*
X201125936Y-61071687D01*
X201171360Y-61281719D01*
X201226746Y-61515804D01*
X201289780Y-61765232D01*
X201358150Y-62021290D01*
X201429542Y-62275269D01*
X201501641Y-62518457D01*
X201572136Y-62742145D01*
X201638712Y-62937621D01*
X201699055Y-63096174D01*
X201741121Y-63190244D01*
X201790673Y-63290451D01*
X201837460Y-63386337D01*
X201839993Y-63391586D01*
X201917397Y-63488440D01*
X202030368Y-63553656D01*
X202161878Y-63584909D01*
X202294901Y-63579875D01*
X202412410Y-63536228D01*
X202478516Y-63478764D01*
X202573718Y-63321166D01*
X202643478Y-63124756D01*
X202681753Y-62909559D01*
X202687176Y-62787561D01*
X202665339Y-62559870D01*
X202601247Y-62371320D01*
X202491451Y-62212759D01*
X202457213Y-62177467D01*
X202355322Y-62078470D01*
X202341328Y-60678978D01*
X202519635Y-60409062D01*
X202603307Y-60286891D01*
X202683889Y-60176987D01*
X202749885Y-60094673D01*
X202778252Y-60064384D01*
X202858562Y-59989621D01*
X202967330Y-60048196D01*
X203036077Y-60090168D01*
X203073692Y-60122756D01*
X203076097Y-60128615D01*
X203101806Y-60153456D01*
X203145792Y-60171954D01*
X203188299Y-60188626D01*
X203253387Y-60220299D01*
X203346644Y-60270066D01*
X203473658Y-60341018D01*
X203640016Y-60436247D01*
X203851305Y-60558844D01*
X203966124Y-60625864D01*
X204101187Y-60706143D01*
X204189770Y-60763319D01*
X204239710Y-60804078D01*
X204258846Y-60835107D01*
X204255016Y-60863092D01*
X204251822Y-60869593D01*
X204220752Y-60910533D01*
X204154271Y-60987330D01*
X204060124Y-61091393D01*
X203946056Y-61214132D01*
X203847400Y-61318180D01*
X203620059Y-61565134D01*
X203442210Y-61779183D01*
X203312267Y-61962480D01*
X203228642Y-62117176D01*
X203200434Y-62195732D01*
X203188783Y-62264498D01*
X203176749Y-62381799D01*
X203165391Y-62534234D01*
X203155767Y-62708404D01*
X203151238Y-62818537D01*
X203144918Y-63008929D01*
X203142137Y-63148124D01*
X203143715Y-63246819D01*
X203150469Y-63315708D01*
X203163216Y-63365487D01*
X203182773Y-63406850D01*
X203198134Y-63432106D01*
X203286842Y-63529453D01*
X203401147Y-63597291D01*
X203521416Y-63626876D01*
X203611545Y-63616172D01*
X203693152Y-63569861D01*
X203795447Y-63486924D01*
X203904083Y-63381825D01*
X204004713Y-63269032D01*
X204082988Y-63163010D01*
X204111809Y-63111778D01*
X204154982Y-63041628D01*
X204233505Y-62934778D01*
X204340203Y-62799578D01*
X204467903Y-62644381D01*
X204609429Y-62477536D01*
X204757607Y-62307396D01*
X204905263Y-62142311D01*
X205045222Y-61990633D01*
X205170310Y-61860713D01*
X205268520Y-61765339D01*
X205377557Y-61670065D01*
X205469284Y-61599817D01*
X205533621Y-61561898D01*
X205554978Y-61557729D01*
X205587706Y-61574548D01*
X205669341Y-61619692D01*
X205795172Y-61690449D01*
X205960488Y-61784109D01*
X206160578Y-61897962D01*
X206390732Y-62029298D01*
X206646238Y-62175406D01*
X206922387Y-62333576D01*
X207214467Y-62501097D01*
X207517768Y-62675259D01*
X207827579Y-62853352D01*
X208139189Y-63032665D01*
X208447888Y-63210487D01*
X208748964Y-63384109D01*
X209037708Y-63550819D01*
X209309408Y-63707908D01*
X209559354Y-63852666D01*
X209782834Y-63982380D01*
X209975139Y-64094342D01*
X210131557Y-64185841D01*
X210247378Y-64254167D01*
X210317891Y-64296608D01*
X210338329Y-64309927D01*
X210310803Y-64312560D01*
X210224208Y-64315118D01*
X210081428Y-64317592D01*
X209885346Y-64319966D01*
X209638844Y-64322231D01*
X209344806Y-64324373D01*
X209006114Y-64326379D01*
X208625652Y-64328238D01*
X208206301Y-64329937D01*
X207750946Y-64331464D01*
X207262469Y-64332807D01*
X206743753Y-64333952D01*
X206197681Y-64334889D01*
X205627136Y-64335604D01*
X205035000Y-64336085D01*
X204424157Y-64336319D01*
X204167848Y-64336342D01*
X197967939Y-64336342D01*
X198410106Y-63569695D01*
X198503711Y-63407360D01*
X198624204Y-63198332D01*
X198767556Y-62949603D01*
X198929738Y-62668164D01*
X199106723Y-62361007D01*
X199294480Y-62035125D01*
X199488982Y-61697509D01*
X199686200Y-61355151D01*
X199882105Y-61015043D01*
X199931649Y-60929025D01*
X200112304Y-60615715D01*
X200284578Y-60317606D01*
X200445884Y-60039136D01*
X200593632Y-59784743D01*
X200725233Y-59558864D01*
X200838099Y-59365937D01*
X200929641Y-59210401D01*
X200997270Y-59096692D01*
X201038396Y-59029250D01*
X201049905Y-59012080D01*
X201074115Y-58998379D01*
X201114187Y-59002317D01*
G36*
X208445056Y-58889238D02*
X208467816Y-58927386D01*
X208518975Y-59014843D01*
X208596004Y-59147238D01*
X208696372Y-59320204D01*
X208817549Y-59529370D01*
X208957006Y-59770367D01*
X209112213Y-60038824D01*
X209280640Y-60330374D01*
X209459757Y-60640646D01*
X209643995Y-60960000D01*
X209832152Y-61286235D01*
X210012803Y-61599418D01*
X210183330Y-61895012D01*
X210341114Y-62168480D01*
X210483538Y-62415284D01*
X210607981Y-62630889D01*
X210711826Y-62810755D01*
X210792455Y-62950347D01*
X210847248Y-63045128D01*
X210873013Y-63089573D01*
X210915014Y-63164661D01*
X210937850Y-63211663D01*
X210939102Y-63219841D01*
X210911272Y-63204484D01*
X210833881Y-63160407D01*
X210710973Y-63089942D01*
X210546595Y-62995422D01*
X210344792Y-62879178D01*
X210109609Y-62743542D01*
X209845091Y-62590848D01*
X209555284Y-62423428D01*
X209244233Y-62243613D01*
X208915984Y-62053735D01*
X208791097Y-61981464D01*
X208456974Y-61788167D01*
X208138147Y-61603877D01*
X207838709Y-61430950D01*
X207562752Y-61271743D01*
X207314370Y-61128610D01*
X207097653Y-61003910D01*
X206916696Y-60899996D01*
X206775591Y-60819227D01*
X206678430Y-60763957D01*
X206629307Y-60736544D01*
X206624170Y-60733948D01*
X206639138Y-60710441D01*
X206691227Y-60647591D01*
X206775117Y-60551188D01*
X206885492Y-60427020D01*
X207017034Y-60280879D01*
X207164424Y-60118553D01*
X207322345Y-59945832D01*
X207485479Y-59768506D01*
X207648508Y-59592365D01*
X207806114Y-59423198D01*
X207952979Y-59266795D01*
X208083786Y-59128945D01*
X208193216Y-59015439D01*
X208275953Y-58932065D01*
X208304328Y-58904726D01*
X208398359Y-58816403D01*
X208445056Y-58889238D01*
X208445056Y-58889238D01*
G37*
X208445056Y-58889238D02*
X208467816Y-58927386D01*
X208518975Y-59014843D01*
X208596004Y-59147238D01*
X208696372Y-59320204D01*
X208817549Y-59529370D01*
X208957006Y-59770367D01*
X209112213Y-60038824D01*
X209280640Y-60330374D01*
X209459757Y-60640646D01*
X209643995Y-60960000D01*
X209832152Y-61286235D01*
X210012803Y-61599418D01*
X210183330Y-61895012D01*
X210341114Y-62168480D01*
X210483538Y-62415284D01*
X210607981Y-62630889D01*
X210711826Y-62810755D01*
X210792455Y-62950347D01*
X210847248Y-63045128D01*
X210873013Y-63089573D01*
X210915014Y-63164661D01*
X210937850Y-63211663D01*
X210939102Y-63219841D01*
X210911272Y-63204484D01*
X210833881Y-63160407D01*
X210710973Y-63089942D01*
X210546595Y-62995422D01*
X210344792Y-62879178D01*
X210109609Y-62743542D01*
X209845091Y-62590848D01*
X209555284Y-62423428D01*
X209244233Y-62243613D01*
X208915984Y-62053735D01*
X208791097Y-61981464D01*
X208456974Y-61788167D01*
X208138147Y-61603877D01*
X207838709Y-61430950D01*
X207562752Y-61271743D01*
X207314370Y-61128610D01*
X207097653Y-61003910D01*
X206916696Y-60899996D01*
X206775591Y-60819227D01*
X206678430Y-60763957D01*
X206629307Y-60736544D01*
X206624170Y-60733948D01*
X206639138Y-60710441D01*
X206691227Y-60647591D01*
X206775117Y-60551188D01*
X206885492Y-60427020D01*
X207017034Y-60280879D01*
X207164424Y-60118553D01*
X207322345Y-59945832D01*
X207485479Y-59768506D01*
X207648508Y-59592365D01*
X207806114Y-59423198D01*
X207952979Y-59266795D01*
X208083786Y-59128945D01*
X208193216Y-59015439D01*
X208275953Y-58932065D01*
X208304328Y-58904726D01*
X208398359Y-58816403D01*
X208445056Y-58889238D01*
G36*
X204798085Y-52591671D02*
X204844129Y-52666491D01*
X204915067Y-52785028D01*
X205007991Y-52942237D01*
X205119992Y-53133076D01*
X205248162Y-53352501D01*
X205389592Y-53595469D01*
X205541373Y-53856937D01*
X205700597Y-54131860D01*
X205864356Y-54415197D01*
X206029740Y-54701902D01*
X206193842Y-54986934D01*
X206353752Y-55265248D01*
X206506562Y-55531802D01*
X206649363Y-55781552D01*
X206779247Y-56009455D01*
X206893305Y-56210466D01*
X206988629Y-56379544D01*
X207062310Y-56511645D01*
X207111439Y-56601724D01*
X207133108Y-56644740D01*
X207133902Y-56647429D01*
X207107002Y-56683930D01*
X207032227Y-56739764D01*
X206918470Y-56809450D01*
X206774623Y-56887509D01*
X206624029Y-56961687D01*
X206419119Y-57051635D01*
X206203633Y-57132453D01*
X205970146Y-57205938D01*
X205711236Y-57273884D01*
X205419479Y-57338088D01*
X205087451Y-57400346D01*
X204707731Y-57462454D01*
X204314937Y-57520290D01*
X203973668Y-57571600D01*
X203687090Y-57622397D01*
X203448015Y-57675204D01*
X203249259Y-57732546D01*
X203083635Y-57796947D01*
X202943956Y-57870931D01*
X202823036Y-57957024D01*
X202713689Y-58057750D01*
X202678428Y-58095167D01*
X202602000Y-58182279D01*
X202545463Y-58253364D01*
X202519235Y-58295167D01*
X202518536Y-58298594D01*
X202509360Y-58319612D01*
X202477515Y-58319849D01*
X202416531Y-58296509D01*
X202319935Y-58246793D01*
X202181254Y-58167905D01*
X202084878Y-58111175D01*
X201941166Y-58022494D01*
X201829483Y-57946559D01*
X201757334Y-57888832D01*
X201732226Y-57854776D01*
X201732241Y-57854529D01*
X201747811Y-57822075D01*
X201791783Y-57740800D01*
X201861605Y-57615134D01*
X201954725Y-57449505D01*
X202068589Y-57248344D01*
X202200646Y-57016080D01*
X202348343Y-56757143D01*
X202509128Y-56475961D01*
X202680448Y-56176965D01*
X202859751Y-55864584D01*
X203044485Y-55543248D01*
X203232098Y-55217386D01*
X203420036Y-54891427D01*
X203605747Y-54569801D01*
X203786680Y-54256937D01*
X203960281Y-53957266D01*
X204123999Y-53675216D01*
X204275281Y-53415218D01*
X204411574Y-53181699D01*
X204530326Y-52979091D01*
X204628985Y-52811823D01*
X204704999Y-52684324D01*
X204755814Y-52601023D01*
X204778879Y-52566350D01*
X204779845Y-52565610D01*
X204798085Y-52591671D01*
X204798085Y-52591671D01*
G37*
X204798085Y-52591671D02*
X204844129Y-52666491D01*
X204915067Y-52785028D01*
X205007991Y-52942237D01*
X205119992Y-53133076D01*
X205248162Y-53352501D01*
X205389592Y-53595469D01*
X205541373Y-53856937D01*
X205700597Y-54131860D01*
X205864356Y-54415197D01*
X206029740Y-54701902D01*
X206193842Y-54986934D01*
X206353752Y-55265248D01*
X206506562Y-55531802D01*
X206649363Y-55781552D01*
X206779247Y-56009455D01*
X206893305Y-56210466D01*
X206988629Y-56379544D01*
X207062310Y-56511645D01*
X207111439Y-56601724D01*
X207133108Y-56644740D01*
X207133902Y-56647429D01*
X207107002Y-56683930D01*
X207032227Y-56739764D01*
X206918470Y-56809450D01*
X206774623Y-56887509D01*
X206624029Y-56961687D01*
X206419119Y-57051635D01*
X206203633Y-57132453D01*
X205970146Y-57205938D01*
X205711236Y-57273884D01*
X205419479Y-57338088D01*
X205087451Y-57400346D01*
X204707731Y-57462454D01*
X204314937Y-57520290D01*
X203973668Y-57571600D01*
X203687090Y-57622397D01*
X203448015Y-57675204D01*
X203249259Y-57732546D01*
X203083635Y-57796947D01*
X202943956Y-57870931D01*
X202823036Y-57957024D01*
X202713689Y-58057750D01*
X202678428Y-58095167D01*
X202602000Y-58182279D01*
X202545463Y-58253364D01*
X202519235Y-58295167D01*
X202518536Y-58298594D01*
X202509360Y-58319612D01*
X202477515Y-58319849D01*
X202416531Y-58296509D01*
X202319935Y-58246793D01*
X202181254Y-58167905D01*
X202084878Y-58111175D01*
X201941166Y-58022494D01*
X201829483Y-57946559D01*
X201757334Y-57888832D01*
X201732226Y-57854776D01*
X201732241Y-57854529D01*
X201747811Y-57822075D01*
X201791783Y-57740800D01*
X201861605Y-57615134D01*
X201954725Y-57449505D01*
X202068589Y-57248344D01*
X202200646Y-57016080D01*
X202348343Y-56757143D01*
X202509128Y-56475961D01*
X202680448Y-56176965D01*
X202859751Y-55864584D01*
X203044485Y-55543248D01*
X203232098Y-55217386D01*
X203420036Y-54891427D01*
X203605747Y-54569801D01*
X203786680Y-54256937D01*
X203960281Y-53957266D01*
X204123999Y-53675216D01*
X204275281Y-53415218D01*
X204411574Y-53181699D01*
X204530326Y-52979091D01*
X204628985Y-52811823D01*
X204704999Y-52684324D01*
X204755814Y-52601023D01*
X204778879Y-52566350D01*
X204779845Y-52565610D01*
X204798085Y-52591671D01*
G36*
X103810919Y-67087495D02*
X103801062Y-67390696D01*
X103774360Y-67602190D01*
X103735112Y-67689538D01*
X103731044Y-67690201D01*
X103666148Y-67623303D01*
X103651170Y-67530453D01*
X103628814Y-67432594D01*
X103535128Y-67384744D01*
X103330186Y-67369962D01*
X103271768Y-67369481D01*
X102966496Y-67352966D01*
X102789966Y-67288949D01*
X102712710Y-67152055D01*
X102710988Y-67097689D01*
X102861414Y-67097689D01*
X102938971Y-67235634D01*
X103124902Y-67280004D01*
X103271037Y-67275490D01*
X103483943Y-67252984D01*
X103582020Y-67196678D01*
X103609793Y-67061538D01*
X103611233Y-66931396D01*
X103611233Y-66611899D01*
X103251799Y-66611899D01*
X103028941Y-66620363D01*
X102919119Y-66663974D01*
X102875811Y-66770065D01*
X102866440Y-66838301D01*
X102861414Y-67097689D01*
X102710988Y-67097689D01*
X102705260Y-66916908D01*
X102707467Y-66883543D01*
X102732617Y-66532025D01*
X103810919Y-66484789D01*
X103810919Y-67087495D01*
X103810919Y-67087495D01*
G37*
X103810919Y-67087495D02*
X103801062Y-67390696D01*
X103774360Y-67602190D01*
X103735112Y-67689538D01*
X103731044Y-67690201D01*
X103666148Y-67623303D01*
X103651170Y-67530453D01*
X103628814Y-67432594D01*
X103535128Y-67384744D01*
X103330186Y-67369962D01*
X103271768Y-67369481D01*
X102966496Y-67352966D01*
X102789966Y-67288949D01*
X102712710Y-67152055D01*
X102710988Y-67097689D01*
X102861414Y-67097689D01*
X102938971Y-67235634D01*
X103124902Y-67280004D01*
X103271037Y-67275490D01*
X103483943Y-67252984D01*
X103582020Y-67196678D01*
X103609793Y-67061538D01*
X103611233Y-66931396D01*
X103611233Y-66611899D01*
X103251799Y-66611899D01*
X103028941Y-66620363D01*
X102919119Y-66663974D01*
X102875811Y-66770065D01*
X102866440Y-66838301D01*
X102861414Y-67097689D01*
X102710988Y-67097689D01*
X102705260Y-66916908D01*
X102707467Y-66883543D01*
X102732617Y-66532025D01*
X103810919Y-66484789D01*
X103810919Y-67087495D01*
G36*
X102176393Y-66522112D02*
X102335858Y-66571766D01*
X102357208Y-66587937D01*
X102417881Y-66724138D01*
X102450988Y-66945358D01*
X102453057Y-67016025D01*
X102453057Y-67348264D01*
X101900187Y-67362217D01*
X101605305Y-67364759D01*
X101431731Y-67347409D01*
X101341360Y-67300579D01*
X101296085Y-67214685D01*
X101294532Y-67209855D01*
X101293185Y-67179098D01*
X101436170Y-67179098D01*
X101559545Y-67256789D01*
X101813032Y-67278121D01*
X101880487Y-67274942D01*
X102127842Y-67241699D01*
X102250542Y-67174255D01*
X102278478Y-67111113D01*
X102270478Y-67027302D01*
X102181782Y-66985200D01*
X101977452Y-66971750D01*
X101904508Y-66971333D01*
X101664518Y-66986042D01*
X101496602Y-67023559D01*
X101454629Y-67051208D01*
X101436170Y-67179098D01*
X101293185Y-67179098D01*
X101285465Y-67002905D01*
X101414864Y-66873762D01*
X101683397Y-66821982D01*
X101871302Y-66825041D01*
X102122058Y-66832391D01*
X102246662Y-66809203D01*
X102277022Y-66748096D01*
X102274793Y-66731711D01*
X102187130Y-66645505D01*
X102003542Y-66594249D01*
X101785212Y-66583968D01*
X101593322Y-66620687D01*
X101526999Y-66658065D01*
X101403123Y-66714677D01*
X101343613Y-66668072D01*
X101371471Y-66577276D01*
X101481686Y-66524163D01*
X101691270Y-66497682D01*
X101942184Y-66497208D01*
X102176393Y-66522112D01*
X102176393Y-66522112D01*
G37*
X102176393Y-66522112D02*
X102335858Y-66571766D01*
X102357208Y-66587937D01*
X102417881Y-66724138D01*
X102450988Y-66945358D01*
X102453057Y-67016025D01*
X102453057Y-67348264D01*
X101900187Y-67362217D01*
X101605305Y-67364759D01*
X101431731Y-67347409D01*
X101341360Y-67300579D01*
X101296085Y-67214685D01*
X101294532Y-67209855D01*
X101293185Y-67179098D01*
X101436170Y-67179098D01*
X101559545Y-67256789D01*
X101813032Y-67278121D01*
X101880487Y-67274942D01*
X102127842Y-67241699D01*
X102250542Y-67174255D01*
X102278478Y-67111113D01*
X102270478Y-67027302D01*
X102181782Y-66985200D01*
X101977452Y-66971750D01*
X101904508Y-66971333D01*
X101664518Y-66986042D01*
X101496602Y-67023559D01*
X101454629Y-67051208D01*
X101436170Y-67179098D01*
X101293185Y-67179098D01*
X101285465Y-67002905D01*
X101414864Y-66873762D01*
X101683397Y-66821982D01*
X101871302Y-66825041D01*
X102122058Y-66832391D01*
X102246662Y-66809203D01*
X102277022Y-66748096D01*
X102274793Y-66731711D01*
X102187130Y-66645505D01*
X102003542Y-66594249D01*
X101785212Y-66583968D01*
X101593322Y-66620687D01*
X101526999Y-66658065D01*
X101403123Y-66714677D01*
X101343613Y-66668072D01*
X101371471Y-66577276D01*
X101481686Y-66524163D01*
X101691270Y-66497682D01*
X101942184Y-66497208D01*
X102176393Y-66522112D01*
G36*
X105213028Y-66564202D02*
X105242033Y-66749775D01*
X105248654Y-66919812D01*
X105248654Y-67347536D01*
X104745055Y-67361390D01*
X104474207Y-67360412D01*
X104270642Y-67344055D01*
X104185935Y-67319725D01*
X104148883Y-67210890D01*
X104132345Y-67017698D01*
X104134951Y-66796827D01*
X104155334Y-66604957D01*
X104192126Y-66498767D01*
X104205913Y-66492088D01*
X104254543Y-66563771D01*
X104293450Y-66746120D01*
X104305756Y-66871491D01*
X104331348Y-67106011D01*
X104384089Y-67224936D01*
X104487029Y-67272368D01*
X104517942Y-67277482D01*
X104751932Y-67278847D01*
X104897345Y-67255991D01*
X105017679Y-67204210D01*
X105073830Y-67096743D01*
X105088787Y-66884864D01*
X105088906Y-66850000D01*
X105104834Y-66636171D01*
X105145116Y-66508221D01*
X105168780Y-66492088D01*
X105213028Y-66564202D01*
X105213028Y-66564202D01*
G37*
X105213028Y-66564202D02*
X105242033Y-66749775D01*
X105248654Y-66919812D01*
X105248654Y-67347536D01*
X104745055Y-67361390D01*
X104474207Y-67360412D01*
X104270642Y-67344055D01*
X104185935Y-67319725D01*
X104148883Y-67210890D01*
X104132345Y-67017698D01*
X104134951Y-66796827D01*
X104155334Y-66604957D01*
X104192126Y-66498767D01*
X104205913Y-66492088D01*
X104254543Y-66563771D01*
X104293450Y-66746120D01*
X104305756Y-66871491D01*
X104331348Y-67106011D01*
X104384089Y-67224936D01*
X104487029Y-67272368D01*
X104517942Y-67277482D01*
X104751932Y-67278847D01*
X104897345Y-67255991D01*
X105017679Y-67204210D01*
X105073830Y-67096743D01*
X105088787Y-66884864D01*
X105088906Y-66850000D01*
X105104834Y-66636171D01*
X105145116Y-66508221D01*
X105168780Y-66492088D01*
X105213028Y-66564202D01*
G36*
X106077275Y-66508502D02*
X106566579Y-66532025D01*
X106590722Y-66951365D01*
X106614864Y-67370704D01*
X106104820Y-67370704D01*
X105832542Y-67362932D01*
X105627918Y-67342665D01*
X105541527Y-67317455D01*
X105499371Y-67203054D01*
X105488277Y-67079354D01*
X105488920Y-67077832D01*
X105648025Y-67077832D01*
X105684657Y-67211379D01*
X105814182Y-67272961D01*
X106066048Y-67275876D01*
X106083747Y-67274620D01*
X106316860Y-67232872D01*
X106422021Y-67144020D01*
X106431967Y-67111113D01*
X106424094Y-67027674D01*
X106336131Y-66985533D01*
X106133237Y-66971827D01*
X106053253Y-66971333D01*
X105787907Y-66987262D01*
X105662971Y-67037926D01*
X105648025Y-67077832D01*
X105488920Y-67077832D01*
X105557802Y-66914867D01*
X105761648Y-66827312D01*
X106092724Y-66819313D01*
X106170256Y-66827100D01*
X106360044Y-66834859D01*
X106429679Y-66789128D01*
X106428966Y-66735971D01*
X106341840Y-66650311D01*
X106159828Y-66595363D01*
X105946138Y-66578907D01*
X105763979Y-66608729D01*
X105701399Y-66646387D01*
X105580862Y-66726886D01*
X105525085Y-66691292D01*
X105540631Y-66608345D01*
X105605152Y-66538370D01*
X105751967Y-66506348D01*
X106015834Y-66505811D01*
X106077275Y-66508502D01*
X106077275Y-66508502D01*
G37*
X106077275Y-66508502D02*
X106566579Y-66532025D01*
X106590722Y-66951365D01*
X106614864Y-67370704D01*
X106104820Y-67370704D01*
X105832542Y-67362932D01*
X105627918Y-67342665D01*
X105541527Y-67317455D01*
X105499371Y-67203054D01*
X105488277Y-67079354D01*
X105488920Y-67077832D01*
X105648025Y-67077832D01*
X105684657Y-67211379D01*
X105814182Y-67272961D01*
X106066048Y-67275876D01*
X106083747Y-67274620D01*
X106316860Y-67232872D01*
X106422021Y-67144020D01*
X106431967Y-67111113D01*
X106424094Y-67027674D01*
X106336131Y-66985533D01*
X106133237Y-66971827D01*
X106053253Y-66971333D01*
X105787907Y-66987262D01*
X105662971Y-67037926D01*
X105648025Y-67077832D01*
X105488920Y-67077832D01*
X105557802Y-66914867D01*
X105761648Y-66827312D01*
X106092724Y-66819313D01*
X106170256Y-66827100D01*
X106360044Y-66834859D01*
X106429679Y-66789128D01*
X106428966Y-66735971D01*
X106341840Y-66650311D01*
X106159828Y-66595363D01*
X105946138Y-66578907D01*
X105763979Y-66608729D01*
X105701399Y-66646387D01*
X105580862Y-66726886D01*
X105525085Y-66691292D01*
X105540631Y-66608345D01*
X105605152Y-66538370D01*
X105751967Y-66506348D01*
X106015834Y-66505811D01*
X106077275Y-66508502D01*
G36*
X106982238Y-66292402D02*
X107009008Y-66433715D01*
X107071341Y-66500713D01*
X107213577Y-66515296D01*
X107411072Y-66504192D01*
X107692647Y-66506627D01*
X107890223Y-66551677D01*
X107926749Y-66573878D01*
X108013796Y-66731526D01*
X108041130Y-66958744D01*
X108006292Y-67175966D01*
X107948403Y-67274855D01*
X107809903Y-67336595D01*
X107592871Y-67365848D01*
X107361641Y-67362035D01*
X107180545Y-67324577D01*
X107120428Y-67282303D01*
X107048321Y-67245846D01*
X106997126Y-67302271D01*
X106965400Y-67284026D01*
X106945321Y-67125799D01*
X106941447Y-66959207D01*
X107024843Y-66959207D01*
X107070486Y-67089516D01*
X107151695Y-67222759D01*
X107269109Y-67277029D01*
X107480823Y-67277158D01*
X107505473Y-67275436D01*
X107717931Y-67252872D01*
X107815630Y-67196226D01*
X107843168Y-67060249D01*
X107844566Y-66931396D01*
X107844566Y-66611899D01*
X107493838Y-66611899D01*
X107197939Y-66650331D01*
X107041747Y-66765942D01*
X107024843Y-66959207D01*
X106941447Y-66959207D01*
X106938838Y-66847062D01*
X106940019Y-66731711D01*
X106948166Y-66459398D01*
X106960405Y-66293474D01*
X106974700Y-66255129D01*
X106982238Y-66292402D01*
X106982238Y-66292402D01*
G37*
X106982238Y-66292402D02*
X107009008Y-66433715D01*
X107071341Y-66500713D01*
X107213577Y-66515296D01*
X107411072Y-66504192D01*
X107692647Y-66506627D01*
X107890223Y-66551677D01*
X107926749Y-66573878D01*
X108013796Y-66731526D01*
X108041130Y-66958744D01*
X108006292Y-67175966D01*
X107948403Y-67274855D01*
X107809903Y-67336595D01*
X107592871Y-67365848D01*
X107361641Y-67362035D01*
X107180545Y-67324577D01*
X107120428Y-67282303D01*
X107048321Y-67245846D01*
X106997126Y-67302271D01*
X106965400Y-67284026D01*
X106945321Y-67125799D01*
X106941447Y-66959207D01*
X107024843Y-66959207D01*
X107070486Y-67089516D01*
X107151695Y-67222759D01*
X107269109Y-67277029D01*
X107480823Y-67277158D01*
X107505473Y-67275436D01*
X107717931Y-67252872D01*
X107815630Y-67196226D01*
X107843168Y-67060249D01*
X107844566Y-66931396D01*
X107844566Y-66611899D01*
X107493838Y-66611899D01*
X107197939Y-66650331D01*
X107041747Y-66765942D01*
X107024843Y-66959207D01*
X106941447Y-66959207D01*
X106938838Y-66847062D01*
X106940019Y-66731711D01*
X106948166Y-66459398D01*
X106960405Y-66293474D01*
X106974700Y-66255129D01*
X106982238Y-66292402D01*
G36*
X108421398Y-66711262D02*
X108421636Y-66713173D01*
X108434680Y-66973655D01*
X108420821Y-67192418D01*
X108404177Y-67236537D01*
X108392556Y-67141501D01*
X108388499Y-66931396D01*
X108393300Y-66726417D01*
X108405114Y-66647457D01*
X108421398Y-66711262D01*
X108421398Y-66711262D01*
G37*
X108421398Y-66711262D02*
X108421636Y-66713173D01*
X108434680Y-66973655D01*
X108420821Y-67192418D01*
X108404177Y-67236537D01*
X108392556Y-67141501D01*
X108388499Y-66931396D01*
X108393300Y-66726417D01*
X108405114Y-66647457D01*
X108421398Y-66711262D01*
G36*
X109455280Y-66507869D02*
X109921296Y-66532025D01*
X109946446Y-66883543D01*
X109939063Y-67156217D01*
X109871660Y-67298182D01*
X109866572Y-67301659D01*
X109706159Y-67348960D01*
X109462504Y-67367536D01*
X109197662Y-67359040D01*
X108973689Y-67325121D01*
X108858969Y-67274855D01*
X108782799Y-67109582D01*
X108781682Y-67092193D01*
X108930372Y-67092193D01*
X109002985Y-67229889D01*
X109182605Y-67278806D01*
X109381330Y-67275271D01*
X109761547Y-67250893D01*
X109761547Y-66611899D01*
X109362176Y-66611899D01*
X109124412Y-66618347D01*
X109002384Y-66653279D01*
X108952162Y-66740083D01*
X108936880Y-66838301D01*
X108930372Y-67092193D01*
X108781682Y-67092193D01*
X108768165Y-66881775D01*
X108813109Y-66670686D01*
X108876192Y-66577555D01*
X109025539Y-66525736D01*
X109284307Y-66504463D01*
X109455280Y-66507869D01*
X109455280Y-66507869D01*
G37*
X109455280Y-66507869D02*
X109921296Y-66532025D01*
X109946446Y-66883543D01*
X109939063Y-67156217D01*
X109871660Y-67298182D01*
X109866572Y-67301659D01*
X109706159Y-67348960D01*
X109462504Y-67367536D01*
X109197662Y-67359040D01*
X108973689Y-67325121D01*
X108858969Y-67274855D01*
X108782799Y-67109582D01*
X108781682Y-67092193D01*
X108930372Y-67092193D01*
X109002985Y-67229889D01*
X109182605Y-67278806D01*
X109381330Y-67275271D01*
X109761547Y-67250893D01*
X109761547Y-66611899D01*
X109362176Y-66611899D01*
X109124412Y-66618347D01*
X109002384Y-66653279D01*
X108952162Y-66740083D01*
X108936880Y-66838301D01*
X108930372Y-67092193D01*
X108781682Y-67092193D01*
X108768165Y-66881775D01*
X108813109Y-66670686D01*
X108876192Y-66577555D01*
X109025539Y-66525736D01*
X109284307Y-66504463D01*
X109455280Y-66507869D01*
G36*
X110428996Y-66317368D02*
X110431213Y-66347716D01*
X110488398Y-66444524D01*
X110662460Y-66499397D01*
X110779944Y-66513478D01*
X111119409Y-66544053D01*
X110779944Y-66558008D01*
X110566596Y-66575698D01*
X110468570Y-66626824D01*
X110441444Y-66743713D01*
X110440478Y-66805052D01*
X110468762Y-67089612D01*
X110562079Y-67244463D01*
X110731158Y-67290830D01*
X110925000Y-67220872D01*
X111001376Y-67111113D01*
X111056981Y-66988725D01*
X111068560Y-67015510D01*
X111058708Y-67131082D01*
X111017697Y-67270554D01*
X110898241Y-67335374D01*
X110757120Y-67354537D01*
X110553580Y-67355712D01*
X110425637Y-67327386D01*
X110417655Y-67321256D01*
X110382284Y-67212113D01*
X110362277Y-67007313D01*
X110360604Y-66923941D01*
X110341997Y-66689133D01*
X110276838Y-66572965D01*
X110220824Y-66547147D01*
X110127497Y-66516807D01*
X110187879Y-66503351D01*
X110214968Y-66501354D01*
X110346868Y-66426224D01*
X110385419Y-66352308D01*
X110415748Y-66257860D01*
X110428996Y-66317368D01*
X110428996Y-66317368D01*
G37*
X110428996Y-66317368D02*
X110431213Y-66347716D01*
X110488398Y-66444524D01*
X110662460Y-66499397D01*
X110779944Y-66513478D01*
X111119409Y-66544053D01*
X110779944Y-66558008D01*
X110566596Y-66575698D01*
X110468570Y-66626824D01*
X110441444Y-66743713D01*
X110440478Y-66805052D01*
X110468762Y-67089612D01*
X110562079Y-67244463D01*
X110731158Y-67290830D01*
X110925000Y-67220872D01*
X111001376Y-67111113D01*
X111056981Y-66988725D01*
X111068560Y-67015510D01*
X111058708Y-67131082D01*
X111017697Y-67270554D01*
X110898241Y-67335374D01*
X110757120Y-67354537D01*
X110553580Y-67355712D01*
X110425637Y-67327386D01*
X110417655Y-67321256D01*
X110382284Y-67212113D01*
X110362277Y-67007313D01*
X110360604Y-66923941D01*
X110341997Y-66689133D01*
X110276838Y-66572965D01*
X110220824Y-66547147D01*
X110127497Y-66516807D01*
X110187879Y-66503351D01*
X110214968Y-66501354D01*
X110346868Y-66426224D01*
X110385419Y-66352308D01*
X110415748Y-66257860D01*
X110428996Y-66317368D01*
G36*
X112135996Y-66518767D02*
X112346829Y-66603612D01*
X112433769Y-66767115D01*
X112437334Y-66821365D01*
X112418340Y-66902860D01*
X112338180Y-66948307D01*
X112162082Y-66967750D01*
X111918151Y-66971333D01*
X111610915Y-66980733D01*
X111447070Y-67014407D01*
X111411065Y-67080571D01*
X111487354Y-67187440D01*
X111494818Y-67194981D01*
X111651833Y-67265121D01*
X111883972Y-67288003D01*
X112114047Y-67263492D01*
X112260279Y-67196312D01*
X112370398Y-67143973D01*
X112413721Y-67160718D01*
X112423622Y-67242367D01*
X112300302Y-67310477D01*
X112070230Y-67355797D01*
X111816332Y-67369481D01*
X111565465Y-67362219D01*
X111425644Y-67325018D01*
X111348460Y-67237565D01*
X111314495Y-67158920D01*
X111276214Y-66883068D01*
X111302781Y-66739580D01*
X111316206Y-66711742D01*
X111418937Y-66711742D01*
X111449588Y-66772433D01*
X111604964Y-66804134D01*
X111838277Y-66811585D01*
X112109666Y-66800361D01*
X112241178Y-66763756D01*
X112257617Y-66711742D01*
X112157353Y-66646173D01*
X111930341Y-66613962D01*
X111838277Y-66611899D01*
X111577983Y-66632177D01*
X111434791Y-66688110D01*
X111418937Y-66711742D01*
X111316206Y-66711742D01*
X111362648Y-66615444D01*
X111467439Y-66548522D01*
X111664266Y-66516441D01*
X111791134Y-66507658D01*
X112135996Y-66518767D01*
X112135996Y-66518767D01*
G37*
X112135996Y-66518767D02*
X112346829Y-66603612D01*
X112433769Y-66767115D01*
X112437334Y-66821365D01*
X112418340Y-66902860D01*
X112338180Y-66948307D01*
X112162082Y-66967750D01*
X111918151Y-66971333D01*
X111610915Y-66980733D01*
X111447070Y-67014407D01*
X111411065Y-67080571D01*
X111487354Y-67187440D01*
X111494818Y-67194981D01*
X111651833Y-67265121D01*
X111883972Y-67288003D01*
X112114047Y-67263492D01*
X112260279Y-67196312D01*
X112370398Y-67143973D01*
X112413721Y-67160718D01*
X112423622Y-67242367D01*
X112300302Y-67310477D01*
X112070230Y-67355797D01*
X111816332Y-67369481D01*
X111565465Y-67362219D01*
X111425644Y-67325018D01*
X111348460Y-67237565D01*
X111314495Y-67158920D01*
X111276214Y-66883068D01*
X111302781Y-66739580D01*
X111316206Y-66711742D01*
X111418937Y-66711742D01*
X111449588Y-66772433D01*
X111604964Y-66804134D01*
X111838277Y-66811585D01*
X112109666Y-66800361D01*
X112241178Y-66763756D01*
X112257617Y-66711742D01*
X112157353Y-66646173D01*
X111930341Y-66613962D01*
X111838277Y-66611899D01*
X111577983Y-66632177D01*
X111434791Y-66688110D01*
X111418937Y-66711742D01*
X111316206Y-66711742D01*
X111362648Y-66615444D01*
X111467439Y-66548522D01*
X111664266Y-66516441D01*
X111791134Y-66507658D01*
X112135996Y-66518767D01*
G36*
X113466432Y-66538754D02*
X113614912Y-66567131D01*
X113680896Y-66629442D01*
X113697452Y-66691774D01*
X113706614Y-66801372D01*
X113660985Y-66773869D01*
X113609866Y-66711742D01*
X113445270Y-66611963D01*
X113208989Y-66573185D01*
X112978142Y-66599884D01*
X112852680Y-66667811D01*
X112772656Y-66823532D01*
X112756831Y-66931396D01*
X112815213Y-67142954D01*
X112995510Y-67260541D01*
X113248082Y-67290830D01*
X113516054Y-67247138D01*
X113634420Y-67151050D01*
X113698931Y-67059548D01*
X113705457Y-67113494D01*
X113697518Y-67171019D01*
X113659688Y-67264399D01*
X113555595Y-67318020D01*
X113346779Y-67346537D01*
X113215433Y-67354719D01*
X112952662Y-67362407D01*
X112802119Y-67340174D01*
X112716932Y-67272504D01*
X112662771Y-67171784D01*
X112612045Y-66891158D01*
X112644624Y-66748461D01*
X112699415Y-66627534D01*
X112784417Y-66562704D01*
X112943840Y-66536646D01*
X113196968Y-66532025D01*
X113466432Y-66538754D01*
X113466432Y-66538754D01*
G37*
X113466432Y-66538754D02*
X113614912Y-66567131D01*
X113680896Y-66629442D01*
X113697452Y-66691774D01*
X113706614Y-66801372D01*
X113660985Y-66773869D01*
X113609866Y-66711742D01*
X113445270Y-66611963D01*
X113208989Y-66573185D01*
X112978142Y-66599884D01*
X112852680Y-66667811D01*
X112772656Y-66823532D01*
X112756831Y-66931396D01*
X112815213Y-67142954D01*
X112995510Y-67260541D01*
X113248082Y-67290830D01*
X113516054Y-67247138D01*
X113634420Y-67151050D01*
X113698931Y-67059548D01*
X113705457Y-67113494D01*
X113697518Y-67171019D01*
X113659688Y-67264399D01*
X113555595Y-67318020D01*
X113346779Y-67346537D01*
X113215433Y-67354719D01*
X112952662Y-67362407D01*
X112802119Y-67340174D01*
X112716932Y-67272504D01*
X112662771Y-67171784D01*
X112612045Y-66891158D01*
X112644624Y-66748461D01*
X112699415Y-66627534D01*
X112784417Y-66562704D01*
X112943840Y-66536646D01*
X113196968Y-66532025D01*
X113466432Y-66538754D01*
G36*
X114114692Y-66372277D02*
X114151708Y-66545392D01*
X114177911Y-66607023D01*
X114183232Y-66591931D01*
X114269232Y-66524242D01*
X114501156Y-66493665D01*
X114591127Y-66492088D01*
X114852299Y-66507385D01*
X115001307Y-66563054D01*
X115070372Y-66646585D01*
X115125535Y-66817996D01*
X115149648Y-67030592D01*
X115142490Y-67227753D01*
X115103843Y-67352860D01*
X115073183Y-67370704D01*
X115022107Y-67300086D01*
X114994757Y-67124708D01*
X114993308Y-67067182D01*
X114956584Y-66787115D01*
X114833043Y-66629886D01*
X114602633Y-66573206D01*
X114547806Y-66571962D01*
X114320673Y-66606550D01*
X114183081Y-66729623D01*
X114109767Y-66970151D01*
X114094134Y-67092157D01*
X114079901Y-67162706D01*
X114068368Y-67090291D01*
X114061143Y-66891694D01*
X114059580Y-66731711D01*
X114061458Y-66425054D01*
X114070383Y-66269076D01*
X114087729Y-66254810D01*
X114114692Y-66372277D01*
X114114692Y-66372277D01*
G37*
X114114692Y-66372277D02*
X114151708Y-66545392D01*
X114177911Y-66607023D01*
X114183232Y-66591931D01*
X114269232Y-66524242D01*
X114501156Y-66493665D01*
X114591127Y-66492088D01*
X114852299Y-66507385D01*
X115001307Y-66563054D01*
X115070372Y-66646585D01*
X115125535Y-66817996D01*
X115149648Y-67030592D01*
X115142490Y-67227753D01*
X115103843Y-67352860D01*
X115073183Y-67370704D01*
X115022107Y-67300086D01*
X114994757Y-67124708D01*
X114993308Y-67067182D01*
X114956584Y-66787115D01*
X114833043Y-66629886D01*
X114602633Y-66573206D01*
X114547806Y-66571962D01*
X114320673Y-66606550D01*
X114183081Y-66729623D01*
X114109767Y-66970151D01*
X114094134Y-67092157D01*
X114079901Y-67162706D01*
X114068368Y-67090291D01*
X114061143Y-66891694D01*
X114059580Y-66731711D01*
X114061458Y-66425054D01*
X114070383Y-66269076D01*
X114087729Y-66254810D01*
X114114692Y-66372277D01*
G36*
X108416998Y-66119342D02*
X108426558Y-66214134D01*
X108416998Y-66225841D01*
X108369513Y-66214876D01*
X108363749Y-66172591D01*
X108392973Y-66106846D01*
X108416998Y-66119342D01*
X108416998Y-66119342D01*
G37*
X108416998Y-66119342D02*
X108426558Y-66214134D01*
X108416998Y-66225841D01*
X108369513Y-66214876D01*
X108363749Y-66172591D01*
X108392973Y-66106846D01*
X108416998Y-66119342D01*
G36*
X109524068Y-64961650D02*
X109620727Y-65091694D01*
X109685831Y-65281676D01*
X109662711Y-65384824D01*
X109580721Y-65379022D01*
X109494781Y-65250219D01*
X109438496Y-65063560D01*
X109455186Y-64958651D01*
X109524068Y-64961650D01*
X109524068Y-64961650D01*
G37*
X109524068Y-64961650D02*
X109620727Y-65091694D01*
X109685831Y-65281676D01*
X109662711Y-65384824D01*
X109580721Y-65379022D01*
X109494781Y-65250219D01*
X109438496Y-65063560D01*
X109455186Y-64958651D01*
X109524068Y-64961650D01*
G36*
X109783748Y-64633161D02*
X109849302Y-64742777D01*
X109937833Y-64959181D01*
X109956535Y-65129745D01*
X109917753Y-65227037D01*
X109833827Y-65223619D01*
X109717099Y-65092058D01*
X109702756Y-65068533D01*
X109621556Y-64869439D01*
X109655509Y-64707519D01*
X109658874Y-64701395D01*
X109725885Y-64604868D01*
X109783748Y-64633161D01*
X109783748Y-64633161D01*
G37*
X109783748Y-64633161D02*
X109849302Y-64742777D01*
X109937833Y-64959181D01*
X109956535Y-65129745D01*
X109917753Y-65227037D01*
X109833827Y-65223619D01*
X109717099Y-65092058D01*
X109702756Y-65068533D01*
X109621556Y-64869439D01*
X109655509Y-64707519D01*
X109658874Y-64701395D01*
X109725885Y-64604868D01*
X109783748Y-64633161D01*
G36*
X104411541Y-59804270D02*
X104525098Y-59970450D01*
X104675523Y-60225132D01*
X104817931Y-60487919D01*
X105097217Y-61023530D01*
X105389749Y-61587170D01*
X105686608Y-62161403D01*
X105978874Y-62728789D01*
X106257628Y-63271891D01*
X106513949Y-63773271D01*
X106738918Y-64215492D01*
X106923616Y-64581116D01*
X107059122Y-64852705D01*
X107136516Y-65012820D01*
X107151146Y-65049289D01*
X107066278Y-65018381D01*
X106965950Y-64977700D01*
X106870914Y-64883927D01*
X106730874Y-64682365D01*
X106566746Y-64410738D01*
X106399446Y-64106771D01*
X106249889Y-63808187D01*
X106138992Y-63552712D01*
X106091195Y-63399951D01*
X106041443Y-63266536D01*
X105928583Y-63020982D01*
X105767032Y-62690827D01*
X105571204Y-62303611D01*
X105355512Y-61886874D01*
X105134373Y-61468153D01*
X104922199Y-61074989D01*
X104733407Y-60734919D01*
X104582410Y-60475484D01*
X104483623Y-60324222D01*
X104476817Y-60315677D01*
X104339755Y-60096160D01*
X104290219Y-59897143D01*
X104338253Y-59763883D01*
X104352112Y-59753796D01*
X104411541Y-59804270D01*
X104411541Y-59804270D01*
G37*
X104411541Y-59804270D02*
X104525098Y-59970450D01*
X104675523Y-60225132D01*
X104817931Y-60487919D01*
X105097217Y-61023530D01*
X105389749Y-61587170D01*
X105686608Y-62161403D01*
X105978874Y-62728789D01*
X106257628Y-63271891D01*
X106513949Y-63773271D01*
X106738918Y-64215492D01*
X106923616Y-64581116D01*
X107059122Y-64852705D01*
X107136516Y-65012820D01*
X107151146Y-65049289D01*
X107066278Y-65018381D01*
X106965950Y-64977700D01*
X106870914Y-64883927D01*
X106730874Y-64682365D01*
X106566746Y-64410738D01*
X106399446Y-64106771D01*
X106249889Y-63808187D01*
X106138992Y-63552712D01*
X106091195Y-63399951D01*
X106041443Y-63266536D01*
X105928583Y-63020982D01*
X105767032Y-62690827D01*
X105571204Y-62303611D01*
X105355512Y-61886874D01*
X105134373Y-61468153D01*
X104922199Y-61074989D01*
X104733407Y-60734919D01*
X104582410Y-60475484D01*
X104483623Y-60324222D01*
X104476817Y-60315677D01*
X104339755Y-60096160D01*
X104290219Y-59897143D01*
X104338253Y-59763883D01*
X104352112Y-59753796D01*
X104411541Y-59804270D01*
G36*
X104872856Y-59131774D02*
X104983879Y-59323688D01*
X105149029Y-59621458D01*
X105358775Y-60007010D01*
X105603590Y-60462273D01*
X105873946Y-60969174D01*
X106160312Y-61509641D01*
X106453162Y-62065603D01*
X106742965Y-62618987D01*
X107020194Y-63151721D01*
X107275320Y-63645732D01*
X107498813Y-64082950D01*
X107681147Y-64445300D01*
X107812790Y-64714713D01*
X107867377Y-64833058D01*
X107928022Y-64991739D01*
X107910160Y-65046319D01*
X107836363Y-65040788D01*
X107749435Y-64964269D01*
X107618225Y-64784643D01*
X107466762Y-64543210D01*
X107319079Y-64281267D01*
X107199205Y-64040112D01*
X107131171Y-63861046D01*
X107123862Y-63816302D01*
X107080071Y-63664461D01*
X106965008Y-63411413D01*
X106796864Y-63088298D01*
X106593834Y-62726254D01*
X106374111Y-62356421D01*
X106155887Y-62009937D01*
X105957357Y-61717942D01*
X105796713Y-61511574D01*
X105747177Y-61460013D01*
X105766308Y-61511673D01*
X105848045Y-61680802D01*
X105980482Y-61943564D01*
X106151713Y-62276118D01*
X106225873Y-62418503D01*
X106573948Y-63086328D01*
X106854740Y-63628730D01*
X107076166Y-64061225D01*
X107246143Y-64399332D01*
X107372589Y-64658567D01*
X107417954Y-64754824D01*
X107500859Y-64944033D01*
X107513348Y-65030184D01*
X107455545Y-65053553D01*
X107418868Y-65054352D01*
X107302373Y-64980317D01*
X107145874Y-64756699D01*
X106975540Y-64437958D01*
X106832851Y-64140344D01*
X106719023Y-63885685D01*
X106652788Y-63716514D01*
X106644495Y-63686324D01*
X106598231Y-63566723D01*
X106488239Y-63330446D01*
X106326902Y-63001268D01*
X106126602Y-62602964D01*
X105899723Y-62159309D01*
X105658648Y-61694078D01*
X105415760Y-61231047D01*
X105183441Y-60793990D01*
X104974076Y-60406684D01*
X104800046Y-60092902D01*
X104673735Y-59876421D01*
X104613794Y-59787420D01*
X104521303Y-59622433D01*
X104509950Y-59471754D01*
X104748670Y-59471754D01*
X104827313Y-59696345D01*
X104989879Y-60046852D01*
X105176497Y-60411268D01*
X105361991Y-60759794D01*
X105519899Y-61048973D01*
X105636224Y-61253739D01*
X105696968Y-61349025D01*
X105702175Y-61352613D01*
X105693045Y-61271823D01*
X105647274Y-61089521D01*
X105614612Y-60977040D01*
X105513772Y-60692020D01*
X105378577Y-60375464D01*
X105225121Y-60057389D01*
X105069503Y-59767814D01*
X104927817Y-59536758D01*
X104816162Y-59394237D01*
X104752132Y-59368610D01*
X104748670Y-59471754D01*
X104509950Y-59471754D01*
X104509858Y-59470539D01*
X104580129Y-59387015D01*
X104608891Y-59383283D01*
X104676475Y-59316928D01*
X104712678Y-59223535D01*
X104776102Y-59094044D01*
X104825488Y-59063786D01*
X104872856Y-59131774D01*
X104872856Y-59131774D01*
G37*
X104872856Y-59131774D02*
X104983879Y-59323688D01*
X105149029Y-59621458D01*
X105358775Y-60007010D01*
X105603590Y-60462273D01*
X105873946Y-60969174D01*
X106160312Y-61509641D01*
X106453162Y-62065603D01*
X106742965Y-62618987D01*
X107020194Y-63151721D01*
X107275320Y-63645732D01*
X107498813Y-64082950D01*
X107681147Y-64445300D01*
X107812790Y-64714713D01*
X107867377Y-64833058D01*
X107928022Y-64991739D01*
X107910160Y-65046319D01*
X107836363Y-65040788D01*
X107749435Y-64964269D01*
X107618225Y-64784643D01*
X107466762Y-64543210D01*
X107319079Y-64281267D01*
X107199205Y-64040112D01*
X107131171Y-63861046D01*
X107123862Y-63816302D01*
X107080071Y-63664461D01*
X106965008Y-63411413D01*
X106796864Y-63088298D01*
X106593834Y-62726254D01*
X106374111Y-62356421D01*
X106155887Y-62009937D01*
X105957357Y-61717942D01*
X105796713Y-61511574D01*
X105747177Y-61460013D01*
X105766308Y-61511673D01*
X105848045Y-61680802D01*
X105980482Y-61943564D01*
X106151713Y-62276118D01*
X106225873Y-62418503D01*
X106573948Y-63086328D01*
X106854740Y-63628730D01*
X107076166Y-64061225D01*
X107246143Y-64399332D01*
X107372589Y-64658567D01*
X107417954Y-64754824D01*
X107500859Y-64944033D01*
X107513348Y-65030184D01*
X107455545Y-65053553D01*
X107418868Y-65054352D01*
X107302373Y-64980317D01*
X107145874Y-64756699D01*
X106975540Y-64437958D01*
X106832851Y-64140344D01*
X106719023Y-63885685D01*
X106652788Y-63716514D01*
X106644495Y-63686324D01*
X106598231Y-63566723D01*
X106488239Y-63330446D01*
X106326902Y-63001268D01*
X106126602Y-62602964D01*
X105899723Y-62159309D01*
X105658648Y-61694078D01*
X105415760Y-61231047D01*
X105183441Y-60793990D01*
X104974076Y-60406684D01*
X104800046Y-60092902D01*
X104673735Y-59876421D01*
X104613794Y-59787420D01*
X104521303Y-59622433D01*
X104509950Y-59471754D01*
X104748670Y-59471754D01*
X104827313Y-59696345D01*
X104989879Y-60046852D01*
X105176497Y-60411268D01*
X105361991Y-60759794D01*
X105519899Y-61048973D01*
X105636224Y-61253739D01*
X105696968Y-61349025D01*
X105702175Y-61352613D01*
X105693045Y-61271823D01*
X105647274Y-61089521D01*
X105614612Y-60977040D01*
X105513772Y-60692020D01*
X105378577Y-60375464D01*
X105225121Y-60057389D01*
X105069503Y-59767814D01*
X104927817Y-59536758D01*
X104816162Y-59394237D01*
X104752132Y-59368610D01*
X104748670Y-59471754D01*
X104509950Y-59471754D01*
X104509858Y-59470539D01*
X104580129Y-59387015D01*
X104608891Y-59383283D01*
X104676475Y-59316928D01*
X104712678Y-59223535D01*
X104776102Y-59094044D01*
X104825488Y-59063786D01*
X104872856Y-59131774D01*
G36*
X105123879Y-58815302D02*
X105221277Y-58942043D01*
X105271143Y-59031864D01*
X105342488Y-59170794D01*
X105478542Y-59434140D01*
X105670327Y-59804580D01*
X105908864Y-60264794D01*
X106185175Y-60797460D01*
X106490279Y-61385258D01*
X106815199Y-62010864D01*
X106896463Y-62167275D01*
X107217391Y-62785698D01*
X107514086Y-63358900D01*
X107778712Y-63871634D01*
X108003436Y-64308655D01*
X108180424Y-64654717D01*
X108301841Y-64894573D01*
X108359854Y-65012978D01*
X108363749Y-65022778D01*
X108297205Y-65049341D01*
X108219431Y-65054352D01*
X108111101Y-64996239D01*
X107980430Y-64812575D01*
X107817554Y-64489376D01*
X107811103Y-64475264D01*
X107641484Y-64103653D01*
X107457333Y-63700874D01*
X107309000Y-63376994D01*
X107141320Y-63037833D01*
X106949648Y-62688543D01*
X106809608Y-62458440D01*
X106675751Y-62238387D01*
X106505917Y-61936733D01*
X106315209Y-61583039D01*
X106118732Y-61206863D01*
X105931589Y-60837766D01*
X105768883Y-60505306D01*
X105645719Y-60239042D01*
X105577201Y-60068535D01*
X105568151Y-60028793D01*
X105532712Y-59915653D01*
X105439253Y-59705656D01*
X105307059Y-59441745D01*
X105289851Y-59409136D01*
X105161584Y-59145083D01*
X105079611Y-58931615D01*
X105059372Y-58809897D01*
X105062329Y-58802546D01*
X105123879Y-58815302D01*
X105123879Y-58815302D01*
G37*
X105123879Y-58815302D02*
X105221277Y-58942043D01*
X105271143Y-59031864D01*
X105342488Y-59170794D01*
X105478542Y-59434140D01*
X105670327Y-59804580D01*
X105908864Y-60264794D01*
X106185175Y-60797460D01*
X106490279Y-61385258D01*
X106815199Y-62010864D01*
X106896463Y-62167275D01*
X107217391Y-62785698D01*
X107514086Y-63358900D01*
X107778712Y-63871634D01*
X108003436Y-64308655D01*
X108180424Y-64654717D01*
X108301841Y-64894573D01*
X108359854Y-65012978D01*
X108363749Y-65022778D01*
X108297205Y-65049341D01*
X108219431Y-65054352D01*
X108111101Y-64996239D01*
X107980430Y-64812575D01*
X107817554Y-64489376D01*
X107811103Y-64475264D01*
X107641484Y-64103653D01*
X107457333Y-63700874D01*
X107309000Y-63376994D01*
X107141320Y-63037833D01*
X106949648Y-62688543D01*
X106809608Y-62458440D01*
X106675751Y-62238387D01*
X106505917Y-61936733D01*
X106315209Y-61583039D01*
X106118732Y-61206863D01*
X105931589Y-60837766D01*
X105768883Y-60505306D01*
X105645719Y-60239042D01*
X105577201Y-60068535D01*
X105568151Y-60028793D01*
X105532712Y-59915653D01*
X105439253Y-59705656D01*
X105307059Y-59441745D01*
X105289851Y-59409136D01*
X105161584Y-59145083D01*
X105079611Y-58931615D01*
X105059372Y-58809897D01*
X105062329Y-58802546D01*
X105123879Y-58815302D01*
G36*
X105422102Y-58652108D02*
X105548404Y-58833283D01*
X105704481Y-59098270D01*
X105824170Y-59323743D01*
X105954014Y-59577617D01*
X106145119Y-59949554D01*
X106385232Y-60415789D01*
X106662097Y-60952558D01*
X106963461Y-61536095D01*
X107277071Y-62142636D01*
X107440507Y-62458440D01*
X107734688Y-63028346D01*
X108004020Y-63553290D01*
X108239980Y-64016413D01*
X108434045Y-64400855D01*
X108577693Y-64689757D01*
X108662402Y-64866261D01*
X108682130Y-64914572D01*
X108619932Y-64969683D01*
X108583403Y-64973530D01*
X108496621Y-64907806D01*
X108367579Y-64736980D01*
X108233454Y-64514254D01*
X108092089Y-64233406D01*
X107979862Y-63971205D01*
X107929630Y-63816302D01*
X107858667Y-63619714D01*
X107729655Y-63355201D01*
X107604951Y-63137371D01*
X107342699Y-62700072D01*
X107109606Y-62288419D01*
X106920152Y-61929788D01*
X106788818Y-61651553D01*
X106730719Y-61484731D01*
X106677064Y-61332843D01*
X106570493Y-61106637D01*
X106439283Y-60859039D01*
X106311710Y-60642972D01*
X106216050Y-60511360D01*
X106205407Y-60501522D01*
X106127789Y-60396564D01*
X106011708Y-60195212D01*
X105881461Y-59945655D01*
X105761345Y-59696082D01*
X105675658Y-59494681D01*
X105648025Y-59396085D01*
X105609625Y-59261376D01*
X105511951Y-59051982D01*
X105444973Y-58931024D01*
X105329148Y-58703283D01*
X105318684Y-58594940D01*
X105345130Y-58584906D01*
X105422102Y-58652108D01*
X105422102Y-58652108D01*
G37*
X105422102Y-58652108D02*
X105548404Y-58833283D01*
X105704481Y-59098270D01*
X105824170Y-59323743D01*
X105954014Y-59577617D01*
X106145119Y-59949554D01*
X106385232Y-60415789D01*
X106662097Y-60952558D01*
X106963461Y-61536095D01*
X107277071Y-62142636D01*
X107440507Y-62458440D01*
X107734688Y-63028346D01*
X108004020Y-63553290D01*
X108239980Y-64016413D01*
X108434045Y-64400855D01*
X108577693Y-64689757D01*
X108662402Y-64866261D01*
X108682130Y-64914572D01*
X108619932Y-64969683D01*
X108583403Y-64973530D01*
X108496621Y-64907806D01*
X108367579Y-64736980D01*
X108233454Y-64514254D01*
X108092089Y-64233406D01*
X107979862Y-63971205D01*
X107929630Y-63816302D01*
X107858667Y-63619714D01*
X107729655Y-63355201D01*
X107604951Y-63137371D01*
X107342699Y-62700072D01*
X107109606Y-62288419D01*
X106920152Y-61929788D01*
X106788818Y-61651553D01*
X106730719Y-61484731D01*
X106677064Y-61332843D01*
X106570493Y-61106637D01*
X106439283Y-60859039D01*
X106311710Y-60642972D01*
X106216050Y-60511360D01*
X106205407Y-60501522D01*
X106127789Y-60396564D01*
X106011708Y-60195212D01*
X105881461Y-59945655D01*
X105761345Y-59696082D01*
X105675658Y-59494681D01*
X105648025Y-59396085D01*
X105609625Y-59261376D01*
X105511951Y-59051982D01*
X105444973Y-58931024D01*
X105329148Y-58703283D01*
X105318684Y-58594940D01*
X105345130Y-58584906D01*
X105422102Y-58652108D01*
G36*
X104296666Y-60315948D02*
X104444830Y-60559558D01*
X104618776Y-60880925D01*
X105016911Y-61641270D01*
X105384741Y-62349633D01*
X105716423Y-62994387D01*
X106006116Y-63563907D01*
X106247976Y-64046567D01*
X106436161Y-64430741D01*
X106564828Y-64704805D01*
X106628134Y-64857132D01*
X106631297Y-64885338D01*
X106501830Y-64857433D01*
X106446768Y-64843000D01*
X106373337Y-64764046D01*
X106249856Y-64572421D01*
X106093143Y-64300532D01*
X105920015Y-63980787D01*
X105747289Y-63645597D01*
X105591782Y-63327368D01*
X105470312Y-63058509D01*
X105399696Y-62871429D01*
X105389682Y-62805907D01*
X105363058Y-62705915D01*
X105274999Y-62503709D01*
X105144399Y-62235157D01*
X104990152Y-61936126D01*
X104831153Y-61642486D01*
X104686298Y-61390104D01*
X104574479Y-61214848D01*
X104519024Y-61153116D01*
X104428349Y-61059876D01*
X104317289Y-60871407D01*
X104213335Y-60644886D01*
X104143984Y-60437488D01*
X104130415Y-60344956D01*
X104146530Y-60216408D01*
X104199590Y-60204152D01*
X104296666Y-60315948D01*
X104296666Y-60315948D01*
G37*
X104296666Y-60315948D02*
X104444830Y-60559558D01*
X104618776Y-60880925D01*
X105016911Y-61641270D01*
X105384741Y-62349633D01*
X105716423Y-62994387D01*
X106006116Y-63563907D01*
X106247976Y-64046567D01*
X106436161Y-64430741D01*
X106564828Y-64704805D01*
X106628134Y-64857132D01*
X106631297Y-64885338D01*
X106501830Y-64857433D01*
X106446768Y-64843000D01*
X106373337Y-64764046D01*
X106249856Y-64572421D01*
X106093143Y-64300532D01*
X105920015Y-63980787D01*
X105747289Y-63645597D01*
X105591782Y-63327368D01*
X105470312Y-63058509D01*
X105399696Y-62871429D01*
X105389682Y-62805907D01*
X105363058Y-62705915D01*
X105274999Y-62503709D01*
X105144399Y-62235157D01*
X104990152Y-61936126D01*
X104831153Y-61642486D01*
X104686298Y-61390104D01*
X104574479Y-61214848D01*
X104519024Y-61153116D01*
X104428349Y-61059876D01*
X104317289Y-60871407D01*
X104213335Y-60644886D01*
X104143984Y-60437488D01*
X104130415Y-60344956D01*
X104146530Y-60216408D01*
X104199590Y-60204152D01*
X104296666Y-60315948D01*
G36*
X107105668Y-61185194D02*
X107200348Y-61299148D01*
X107332109Y-61499247D01*
X107489062Y-61773155D01*
X107546164Y-61881119D01*
X107712659Y-62201996D01*
X107927515Y-62615519D01*
X108165253Y-63072674D01*
X108400393Y-63524450D01*
X108444749Y-63609619D01*
X108639792Y-63990860D01*
X108805104Y-64326903D01*
X108927644Y-64590212D01*
X108994369Y-64753250D01*
X109002742Y-64787763D01*
X108970496Y-64889610D01*
X108882566Y-64856423D01*
X108752168Y-64697296D01*
X108664707Y-64555138D01*
X108510431Y-64255961D01*
X108366834Y-63933201D01*
X108336749Y-63856239D01*
X108204368Y-63551145D01*
X108043795Y-63242869D01*
X108004802Y-63177308D01*
X107820506Y-62850865D01*
X107588078Y-62392308D01*
X107316081Y-61818870D01*
X107162999Y-61483552D01*
X107075105Y-61265061D01*
X107059958Y-61169720D01*
X107105668Y-61185194D01*
X107105668Y-61185194D01*
G37*
X107105668Y-61185194D02*
X107200348Y-61299148D01*
X107332109Y-61499247D01*
X107489062Y-61773155D01*
X107546164Y-61881119D01*
X107712659Y-62201996D01*
X107927515Y-62615519D01*
X108165253Y-63072674D01*
X108400393Y-63524450D01*
X108444749Y-63609619D01*
X108639792Y-63990860D01*
X108805104Y-64326903D01*
X108927644Y-64590212D01*
X108994369Y-64753250D01*
X109002742Y-64787763D01*
X108970496Y-64889610D01*
X108882566Y-64856423D01*
X108752168Y-64697296D01*
X108664707Y-64555138D01*
X108510431Y-64255961D01*
X108366834Y-63933201D01*
X108336749Y-63856239D01*
X108204368Y-63551145D01*
X108043795Y-63242869D01*
X108004802Y-63177308D01*
X107820506Y-62850865D01*
X107588078Y-62392308D01*
X107316081Y-61818870D01*
X107162999Y-61483552D01*
X107075105Y-61265061D01*
X107059958Y-61169720D01*
X107105668Y-61185194D01*
G36*
X108549120Y-61602268D02*
X108636182Y-61710829D01*
X108768043Y-61926058D01*
X108951098Y-62258787D01*
X109191742Y-62719846D01*
X109343610Y-63017560D01*
X109528757Y-63376326D01*
X109708515Y-63713808D01*
X109858727Y-63985194D01*
X109934856Y-64114243D01*
X110045480Y-64337811D01*
X110109793Y-64558641D01*
X110120084Y-64732025D01*
X110068645Y-64813255D01*
X110055647Y-64814730D01*
X109990683Y-64748880D01*
X109876466Y-64574092D01*
X109734791Y-64324507D01*
X109696213Y-64251702D01*
X109556950Y-63970849D01*
X109453314Y-63734707D01*
X109403874Y-63586317D01*
X109402114Y-63569961D01*
X109359948Y-63426433D01*
X109260116Y-63228967D01*
X109142617Y-63050039D01*
X109075223Y-62977623D01*
X109009055Y-62888045D01*
X108915876Y-62722239D01*
X108820084Y-62530031D01*
X108746082Y-62361248D01*
X108718271Y-62265717D01*
X108723183Y-62258755D01*
X108717146Y-62195973D01*
X108651686Y-62037495D01*
X108608417Y-61949148D01*
X108522703Y-61750386D01*
X108492855Y-61614473D01*
X108500463Y-61589545D01*
X108549120Y-61602268D01*
X108549120Y-61602268D01*
G37*
X108549120Y-61602268D02*
X108636182Y-61710829D01*
X108768043Y-61926058D01*
X108951098Y-62258787D01*
X109191742Y-62719846D01*
X109343610Y-63017560D01*
X109528757Y-63376326D01*
X109708515Y-63713808D01*
X109858727Y-63985194D01*
X109934856Y-64114243D01*
X110045480Y-64337811D01*
X110109793Y-64558641D01*
X110120084Y-64732025D01*
X110068645Y-64813255D01*
X110055647Y-64814730D01*
X109990683Y-64748880D01*
X109876466Y-64574092D01*
X109734791Y-64324507D01*
X109696213Y-64251702D01*
X109556950Y-63970849D01*
X109453314Y-63734707D01*
X109403874Y-63586317D01*
X109402114Y-63569961D01*
X109359948Y-63426433D01*
X109260116Y-63228967D01*
X109142617Y-63050039D01*
X109075223Y-62977623D01*
X109009055Y-62888045D01*
X108915876Y-62722239D01*
X108820084Y-62530031D01*
X108746082Y-62361248D01*
X108718271Y-62265717D01*
X108723183Y-62258755D01*
X108717146Y-62195973D01*
X108651686Y-62037495D01*
X108608417Y-61949148D01*
X108522703Y-61750386D01*
X108492855Y-61614473D01*
X108500463Y-61589545D01*
X108549120Y-61602268D01*
G36*
X104079341Y-60754404D02*
X104184253Y-60880179D01*
X104337528Y-61132256D01*
X104545904Y-61520610D01*
X104565431Y-61558398D01*
X104778558Y-61970831D01*
X105036355Y-62468281D01*
X105309477Y-62994198D01*
X105568580Y-63492032D01*
X105623122Y-63596648D01*
X105821427Y-63979333D01*
X105988517Y-64306521D01*
X106112620Y-64554772D01*
X106181967Y-64700646D01*
X106191984Y-64729449D01*
X106109485Y-64694568D01*
X106007459Y-64646271D01*
X105921536Y-64553171D01*
X105782621Y-64343029D01*
X105602225Y-64038396D01*
X105391858Y-63661819D01*
X105163029Y-63235846D01*
X104927248Y-62783027D01*
X104696025Y-62325909D01*
X104480869Y-61887041D01*
X104293290Y-61488971D01*
X104144798Y-61154249D01*
X104046903Y-60905421D01*
X104011113Y-60765037D01*
X104016055Y-60744952D01*
X104079341Y-60754404D01*
X104079341Y-60754404D01*
G37*
X104079341Y-60754404D02*
X104184253Y-60880179D01*
X104337528Y-61132256D01*
X104545904Y-61520610D01*
X104565431Y-61558398D01*
X104778558Y-61970831D01*
X105036355Y-62468281D01*
X105309477Y-62994198D01*
X105568580Y-63492032D01*
X105623122Y-63596648D01*
X105821427Y-63979333D01*
X105988517Y-64306521D01*
X106112620Y-64554772D01*
X106181967Y-64700646D01*
X106191984Y-64729449D01*
X106109485Y-64694568D01*
X106007459Y-64646271D01*
X105921536Y-64553171D01*
X105782621Y-64343029D01*
X105602225Y-64038396D01*
X105391858Y-63661819D01*
X105163029Y-63235846D01*
X104927248Y-62783027D01*
X104696025Y-62325909D01*
X104480869Y-61887041D01*
X104293290Y-61488971D01*
X104144798Y-61154249D01*
X104046903Y-60905421D01*
X104011113Y-60765037D01*
X104016055Y-60744952D01*
X104079341Y-60754404D01*
G36*
X107724313Y-61539650D02*
X107850702Y-61633423D01*
X107884503Y-61692838D01*
X107919784Y-61781063D01*
X108018302Y-61988610D01*
X108169067Y-62293344D01*
X108361092Y-62673129D01*
X108583389Y-63105829D01*
X108643308Y-63221418D01*
X108871003Y-63661067D01*
X109071378Y-64050281D01*
X109233526Y-64367682D01*
X109346542Y-64591892D01*
X109399518Y-64701536D01*
X109402114Y-64708698D01*
X109336548Y-64731687D01*
X109277093Y-64734855D01*
X109181692Y-64660729D01*
X109038773Y-64443656D01*
X108853235Y-64091590D01*
X108755793Y-63888354D01*
X108590443Y-63544534D01*
X108440365Y-63249446D01*
X108322985Y-63036320D01*
X108259228Y-62941566D01*
X108169333Y-62809718D01*
X108059278Y-62593798D01*
X108014079Y-62490112D01*
X107884184Y-62181725D01*
X107745112Y-61860680D01*
X107716669Y-61796431D01*
X107627523Y-61590887D01*
X107604393Y-61502110D01*
X107648146Y-61501008D01*
X107724313Y-61539650D01*
X107724313Y-61539650D01*
G37*
X107724313Y-61539650D02*
X107850702Y-61633423D01*
X107884503Y-61692838D01*
X107919784Y-61781063D01*
X108018302Y-61988610D01*
X108169067Y-62293344D01*
X108361092Y-62673129D01*
X108583389Y-63105829D01*
X108643308Y-63221418D01*
X108871003Y-63661067D01*
X109071378Y-64050281D01*
X109233526Y-64367682D01*
X109346542Y-64591892D01*
X109399518Y-64701536D01*
X109402114Y-64708698D01*
X109336548Y-64731687D01*
X109277093Y-64734855D01*
X109181692Y-64660729D01*
X109038773Y-64443656D01*
X108853235Y-64091590D01*
X108755793Y-63888354D01*
X108590443Y-63544534D01*
X108440365Y-63249446D01*
X108322985Y-63036320D01*
X108259228Y-62941566D01*
X108169333Y-62809718D01*
X108059278Y-62593798D01*
X108014079Y-62490112D01*
X107884184Y-62181725D01*
X107745112Y-61860680D01*
X107716669Y-61796431D01*
X107627523Y-61590887D01*
X107604393Y-61502110D01*
X107648146Y-61501008D01*
X107724313Y-61539650D01*
G36*
X108180614Y-61686501D02*
X108300844Y-61869253D01*
X108461825Y-62141813D01*
X108647553Y-62477974D01*
X108690367Y-62558283D01*
X108905715Y-62964624D01*
X109122287Y-63372859D01*
X109314571Y-63734924D01*
X109454535Y-63998022D01*
X109601193Y-64274118D01*
X109682558Y-64440286D01*
X109706916Y-64528392D01*
X109682555Y-64570304D01*
X109617760Y-64597889D01*
X109611172Y-64600395D01*
X109502257Y-64558808D01*
X109357422Y-64371491D01*
X109286233Y-64248668D01*
X109157881Y-63988419D01*
X109063153Y-63751852D01*
X109034374Y-63648533D01*
X108966030Y-63441892D01*
X108848600Y-63208627D01*
X108721784Y-63023034D01*
X108675852Y-62977623D01*
X108609684Y-62888045D01*
X108516504Y-62722239D01*
X108420713Y-62530031D01*
X108346711Y-62361248D01*
X108318900Y-62265717D01*
X108323812Y-62258755D01*
X108317368Y-62195833D01*
X108251546Y-62036486D01*
X108204000Y-61939258D01*
X108122413Y-61750210D01*
X108101599Y-61635583D01*
X108117140Y-61619761D01*
X108180614Y-61686501D01*
X108180614Y-61686501D01*
G37*
X108180614Y-61686501D02*
X108300844Y-61869253D01*
X108461825Y-62141813D01*
X108647553Y-62477974D01*
X108690367Y-62558283D01*
X108905715Y-62964624D01*
X109122287Y-63372859D01*
X109314571Y-63734924D01*
X109454535Y-63998022D01*
X109601193Y-64274118D01*
X109682558Y-64440286D01*
X109706916Y-64528392D01*
X109682555Y-64570304D01*
X109617760Y-64597889D01*
X109611172Y-64600395D01*
X109502257Y-64558808D01*
X109357422Y-64371491D01*
X109286233Y-64248668D01*
X109157881Y-63988419D01*
X109063153Y-63751852D01*
X109034374Y-63648533D01*
X108966030Y-63441892D01*
X108848600Y-63208627D01*
X108721784Y-63023034D01*
X108675852Y-62977623D01*
X108609684Y-62888045D01*
X108516504Y-62722239D01*
X108420713Y-62530031D01*
X108346711Y-62361248D01*
X108318900Y-62265717D01*
X108323812Y-62258755D01*
X108317368Y-62195833D01*
X108251546Y-62036486D01*
X108204000Y-61939258D01*
X108122413Y-61750210D01*
X108101599Y-61635583D01*
X108117140Y-61619761D01*
X108180614Y-61686501D01*
G36*
X104115767Y-61499950D02*
X104215808Y-61675715D01*
X104361294Y-61944091D01*
X104539320Y-62279942D01*
X104736980Y-62658134D01*
X104941369Y-63053533D01*
X105139582Y-63441006D01*
X105318715Y-63795417D01*
X105465861Y-64091632D01*
X105568117Y-64304517D01*
X105612577Y-64408939D01*
X105612670Y-64415358D01*
X105535387Y-64367361D01*
X105394540Y-64250333D01*
X105378162Y-64235641D01*
X105259262Y-64088482D01*
X105094622Y-63831411D01*
X104899840Y-63494828D01*
X104690516Y-63109132D01*
X104482250Y-62704722D01*
X104290639Y-62312000D01*
X104131285Y-61961363D01*
X104019785Y-61683212D01*
X103971740Y-61507946D01*
X103970966Y-61493327D01*
X103971264Y-61260327D01*
X104115767Y-61499950D01*
X104115767Y-61499950D01*
G37*
X104115767Y-61499950D02*
X104215808Y-61675715D01*
X104361294Y-61944091D01*
X104539320Y-62279942D01*
X104736980Y-62658134D01*
X104941369Y-63053533D01*
X105139582Y-63441006D01*
X105318715Y-63795417D01*
X105465861Y-64091632D01*
X105568117Y-64304517D01*
X105612577Y-64408939D01*
X105612670Y-64415358D01*
X105535387Y-64367361D01*
X105394540Y-64250333D01*
X105378162Y-64235641D01*
X105259262Y-64088482D01*
X105094622Y-63831411D01*
X104899840Y-63494828D01*
X104690516Y-63109132D01*
X104482250Y-62704722D01*
X104290639Y-62312000D01*
X104131285Y-61961363D01*
X104019785Y-61683212D01*
X103971740Y-61507946D01*
X103970966Y-61493327D01*
X103971264Y-61260327D01*
X104115767Y-61499950D01*
G36*
X109705804Y-62986117D02*
X109807053Y-63150557D01*
X109944026Y-63397967D01*
X110018246Y-63539379D01*
X110172022Y-63858003D01*
X110252834Y-64069112D01*
X110262364Y-64164390D01*
X110202296Y-64135524D01*
X110074313Y-63974197D01*
X109963928Y-63807688D01*
X109817744Y-63544040D01*
X109707087Y-63283008D01*
X109647063Y-63067717D01*
X109652778Y-62941295D01*
X109658123Y-62934611D01*
X109705804Y-62986117D01*
X109705804Y-62986117D01*
G37*
X109705804Y-62986117D02*
X109807053Y-63150557D01*
X109944026Y-63397967D01*
X110018246Y-63539379D01*
X110172022Y-63858003D01*
X110252834Y-64069112D01*
X110262364Y-64164390D01*
X110202296Y-64135524D01*
X110074313Y-63974197D01*
X109963928Y-63807688D01*
X109817744Y-63544040D01*
X109707087Y-63283008D01*
X109647063Y-63067717D01*
X109652778Y-62941295D01*
X109658123Y-62934611D01*
X109705804Y-62986117D01*
G36*
X109727994Y-62302278D02*
X109811112Y-62415209D01*
X109940644Y-62640320D01*
X110127151Y-62992414D01*
X110160902Y-63057497D01*
X110339410Y-63407473D01*
X110487653Y-63707832D01*
X110591620Y-63929464D01*
X110637299Y-64043258D01*
X110638259Y-64049268D01*
X110603694Y-64144417D01*
X110510058Y-64120046D01*
X110384908Y-63990857D01*
X110308581Y-63873411D01*
X110171846Y-63588543D01*
X110058258Y-63278054D01*
X110044777Y-63230872D01*
X109949987Y-62977969D01*
X109827291Y-62769122D01*
X109792433Y-62728948D01*
X109665860Y-62501276D01*
X109658754Y-62353759D01*
X109680728Y-62286729D01*
X109727994Y-62302278D01*
X109727994Y-62302278D01*
G37*
X109727994Y-62302278D02*
X109811112Y-62415209D01*
X109940644Y-62640320D01*
X110127151Y-62992414D01*
X110160902Y-63057497D01*
X110339410Y-63407473D01*
X110487653Y-63707832D01*
X110591620Y-63929464D01*
X110637299Y-64043258D01*
X110638259Y-64049268D01*
X110603694Y-64144417D01*
X110510058Y-64120046D01*
X110384908Y-63990857D01*
X110308581Y-63873411D01*
X110171846Y-63588543D01*
X110058258Y-63278054D01*
X110044777Y-63230872D01*
X109949987Y-62977969D01*
X109827291Y-62769122D01*
X109792433Y-62728948D01*
X109665860Y-62501276D01*
X109658754Y-62353759D01*
X109680728Y-62286729D01*
X109727994Y-62302278D01*
G36*
X109701512Y-61493526D02*
X109739649Y-61522262D01*
X109808840Y-61620507D01*
X109932892Y-61835709D01*
X110097167Y-62140984D01*
X110287024Y-62509451D01*
X110397694Y-62730611D01*
X110620165Y-63189544D01*
X110770778Y-63525133D01*
X110855688Y-63753440D01*
X110881051Y-63890523D01*
X110863094Y-63944819D01*
X110793307Y-63956956D01*
X110699516Y-63857222D01*
X110567555Y-63628916D01*
X110525326Y-63546594D01*
X110408661Y-63304172D01*
X110335350Y-63129206D01*
X110320395Y-63057711D01*
X110321568Y-63057497D01*
X110316905Y-62997856D01*
X110258583Y-62855959D01*
X110173769Y-62687343D01*
X110089627Y-62547545D01*
X110048086Y-62498377D01*
X109950015Y-62385213D01*
X109846829Y-62218923D01*
X109770444Y-62058372D01*
X109752778Y-61962424D01*
X109755445Y-61958672D01*
X109750398Y-61866666D01*
X109675571Y-61719050D01*
X109597227Y-61555636D01*
X109609003Y-61470850D01*
X109701512Y-61493526D01*
X109701512Y-61493526D01*
G37*
X109701512Y-61493526D02*
X109739649Y-61522262D01*
X109808840Y-61620507D01*
X109932892Y-61835709D01*
X110097167Y-62140984D01*
X110287024Y-62509451D01*
X110397694Y-62730611D01*
X110620165Y-63189544D01*
X110770778Y-63525133D01*
X110855688Y-63753440D01*
X110881051Y-63890523D01*
X110863094Y-63944819D01*
X110793307Y-63956956D01*
X110699516Y-63857222D01*
X110567555Y-63628916D01*
X110525326Y-63546594D01*
X110408661Y-63304172D01*
X110335350Y-63129206D01*
X110320395Y-63057711D01*
X110321568Y-63057497D01*
X110316905Y-62997856D01*
X110258583Y-62855959D01*
X110173769Y-62687343D01*
X110089627Y-62547545D01*
X110048086Y-62498377D01*
X109950015Y-62385213D01*
X109846829Y-62218923D01*
X109770444Y-62058372D01*
X109752778Y-61962424D01*
X109755445Y-61958672D01*
X109750398Y-61866666D01*
X109675571Y-61719050D01*
X109597227Y-61555636D01*
X109609003Y-61470850D01*
X109701512Y-61493526D01*
G36*
X104108997Y-62273861D02*
X104211854Y-62442980D01*
X104355354Y-62700362D01*
X104505121Y-62982886D01*
X104666704Y-63298740D01*
X104793284Y-63554957D01*
X104871218Y-63723307D01*
X104888569Y-63776365D01*
X104828534Y-63718266D01*
X104717166Y-63575142D01*
X104693159Y-63541832D01*
X104582930Y-63364942D01*
X104450092Y-63120597D01*
X104313019Y-62847303D01*
X104190082Y-62583567D01*
X104099656Y-62367895D01*
X104060113Y-62238793D01*
X104062530Y-62220141D01*
X104108997Y-62273861D01*
X104108997Y-62273861D01*
G37*
X104108997Y-62273861D02*
X104211854Y-62442980D01*
X104355354Y-62700362D01*
X104505121Y-62982886D01*
X104666704Y-63298740D01*
X104793284Y-63554957D01*
X104871218Y-63723307D01*
X104888569Y-63776365D01*
X104828534Y-63718266D01*
X104717166Y-63575142D01*
X104693159Y-63541832D01*
X104582930Y-63364942D01*
X104450092Y-63120597D01*
X104313019Y-62847303D01*
X104190082Y-62583567D01*
X104099656Y-62367895D01*
X104060113Y-62238793D01*
X104062530Y-62220141D01*
X104108997Y-62273861D01*
G36*
X110100713Y-61493981D02*
X110187514Y-61605764D01*
X110313177Y-61810181D01*
X110486540Y-62122052D01*
X110716442Y-62556195D01*
X110842973Y-62799799D01*
X111039931Y-63196217D01*
X111156766Y-63471483D01*
X111198670Y-63639505D01*
X111181453Y-63706334D01*
X111100185Y-63714739D01*
X110986212Y-63593150D01*
X110887812Y-63437831D01*
X110766803Y-63201052D01*
X110691931Y-62996211D01*
X110680101Y-62922684D01*
X110634900Y-62766675D01*
X110519882Y-62549962D01*
X110440183Y-62430771D01*
X110297571Y-62206577D01*
X110169895Y-61959475D01*
X110072756Y-61727688D01*
X110021756Y-61549437D01*
X110032496Y-61462942D01*
X110043935Y-61460013D01*
X110100713Y-61493981D01*
X110100713Y-61493981D01*
G37*
X110100713Y-61493981D02*
X110187514Y-61605764D01*
X110313177Y-61810181D01*
X110486540Y-62122052D01*
X110716442Y-62556195D01*
X110842973Y-62799799D01*
X111039931Y-63196217D01*
X111156766Y-63471483D01*
X111198670Y-63639505D01*
X111181453Y-63706334D01*
X111100185Y-63714739D01*
X110986212Y-63593150D01*
X110887812Y-63437831D01*
X110766803Y-63201052D01*
X110691931Y-62996211D01*
X110680101Y-62922684D01*
X110634900Y-62766675D01*
X110519882Y-62549962D01*
X110440183Y-62430771D01*
X110297571Y-62206577D01*
X110169895Y-61959475D01*
X110072756Y-61727688D01*
X110021756Y-61549437D01*
X110032496Y-61462942D01*
X110043935Y-61460013D01*
X110100713Y-61493981D01*
G36*
X110466962Y-61472414D02*
X110569678Y-61544134D01*
X110584025Y-61560302D01*
X110662029Y-61708249D01*
X110723197Y-61899768D01*
X110794421Y-62097415D01*
X110878879Y-62219954D01*
X110960511Y-62326660D01*
X111086873Y-62536343D01*
X111233581Y-62807959D01*
X111265905Y-62871432D01*
X111411327Y-63178341D01*
X111477672Y-63369850D01*
X111470888Y-63465800D01*
X111448973Y-63481889D01*
X111341574Y-63448263D01*
X111221073Y-63312034D01*
X111212115Y-63297333D01*
X111118745Y-63105059D01*
X111079475Y-62956225D01*
X111079472Y-62955390D01*
X111041256Y-62822989D01*
X110945561Y-62609870D01*
X110820817Y-62369998D01*
X110695456Y-62157337D01*
X110597907Y-62025851D01*
X110583124Y-62013262D01*
X110515851Y-61905175D01*
X110483073Y-61793307D01*
X110434766Y-61617201D01*
X110400356Y-61539586D01*
X110392185Y-61468830D01*
X110466962Y-61472414D01*
X110466962Y-61472414D01*
G37*
X110466962Y-61472414D02*
X110569678Y-61544134D01*
X110584025Y-61560302D01*
X110662029Y-61708249D01*
X110723197Y-61899768D01*
X110794421Y-62097415D01*
X110878879Y-62219954D01*
X110960511Y-62326660D01*
X111086873Y-62536343D01*
X111233581Y-62807959D01*
X111265905Y-62871432D01*
X111411327Y-63178341D01*
X111477672Y-63369850D01*
X111470888Y-63465800D01*
X111448973Y-63481889D01*
X111341574Y-63448263D01*
X111221073Y-63312034D01*
X111212115Y-63297333D01*
X111118745Y-63105059D01*
X111079475Y-62956225D01*
X111079472Y-62955390D01*
X111041256Y-62822989D01*
X110945561Y-62609870D01*
X110820817Y-62369998D01*
X110695456Y-62157337D01*
X110597907Y-62025851D01*
X110583124Y-62013262D01*
X110515851Y-61905175D01*
X110483073Y-61793307D01*
X110434766Y-61617201D01*
X110400356Y-61539586D01*
X110392185Y-61468830D01*
X110466962Y-61472414D01*
G36*
X110852062Y-61475648D02*
X110945580Y-61562456D01*
X111076942Y-61750667D01*
X111220912Y-61994916D01*
X111352251Y-62249840D01*
X111445721Y-62470076D01*
X111476597Y-62598220D01*
X111510241Y-62716898D01*
X111545896Y-62738000D01*
X111628371Y-62804512D01*
X111710304Y-62956374D01*
X111760920Y-63122072D01*
X111754704Y-63223231D01*
X111654797Y-63294713D01*
X111555144Y-63218811D01*
X111509074Y-63117402D01*
X111453789Y-62934837D01*
X111431392Y-62841300D01*
X111385967Y-62708482D01*
X111298068Y-62512528D01*
X111286733Y-62489563D01*
X111199635Y-62275949D01*
X111159629Y-62100855D01*
X111159346Y-62090704D01*
X111105089Y-61934366D01*
X111051195Y-61883321D01*
X110932686Y-61766534D01*
X110843754Y-61630488D01*
X110785328Y-61497426D01*
X110815825Y-61466717D01*
X110852062Y-61475648D01*
X110852062Y-61475648D01*
G37*
X110852062Y-61475648D02*
X110945580Y-61562456D01*
X111076942Y-61750667D01*
X111220912Y-61994916D01*
X111352251Y-62249840D01*
X111445721Y-62470076D01*
X111476597Y-62598220D01*
X111510241Y-62716898D01*
X111545896Y-62738000D01*
X111628371Y-62804512D01*
X111710304Y-62956374D01*
X111760920Y-63122072D01*
X111754704Y-63223231D01*
X111654797Y-63294713D01*
X111555144Y-63218811D01*
X111509074Y-63117402D01*
X111453789Y-62934837D01*
X111431392Y-62841300D01*
X111385967Y-62708482D01*
X111298068Y-62512528D01*
X111286733Y-62489563D01*
X111199635Y-62275949D01*
X111159629Y-62100855D01*
X111159346Y-62090704D01*
X111105089Y-61934366D01*
X111051195Y-61883321D01*
X110932686Y-61766534D01*
X110843754Y-61630488D01*
X110785328Y-61497426D01*
X110815825Y-61466717D01*
X110852062Y-61475648D01*
G36*
X112006013Y-62769950D02*
X112013303Y-62925523D01*
X111979300Y-62988360D01*
X111892749Y-63005325D01*
X111846264Y-62929698D01*
X111838974Y-62774125D01*
X111872977Y-62711287D01*
X111959528Y-62694323D01*
X112006013Y-62769950D01*
X112006013Y-62769950D01*
G37*
X112006013Y-62769950D02*
X112013303Y-62925523D01*
X111979300Y-62988360D01*
X111892749Y-63005325D01*
X111846264Y-62929698D01*
X111838974Y-62774125D01*
X111872977Y-62711287D01*
X111959528Y-62694323D01*
X112006013Y-62769950D01*
G36*
X108939768Y-61546071D02*
X108993861Y-61622145D01*
X109089341Y-61787510D01*
X109228333Y-62037891D01*
X109383945Y-62354758D01*
X109468441Y-62605954D01*
X109476200Y-62767903D01*
X109414244Y-62817874D01*
X109346258Y-62750776D01*
X109251950Y-62580919D01*
X109206496Y-62478409D01*
X109089777Y-62197690D01*
X108975053Y-61925202D01*
X108951319Y-61869463D01*
X108886669Y-61682781D01*
X108874254Y-61566344D01*
X108879508Y-61556623D01*
X108908003Y-61532996D01*
X108939768Y-61546071D01*
X108939768Y-61546071D01*
G37*
X108939768Y-61546071D02*
X108993861Y-61622145D01*
X109089341Y-61787510D01*
X109228333Y-62037891D01*
X109383945Y-62354758D01*
X109468441Y-62605954D01*
X109476200Y-62767903D01*
X109414244Y-62817874D01*
X109346258Y-62750776D01*
X109251950Y-62580919D01*
X109206496Y-62478409D01*
X109089777Y-62197690D01*
X108975053Y-61925202D01*
X108951319Y-61869463D01*
X108886669Y-61682781D01*
X108874254Y-61566344D01*
X108879508Y-61556623D01*
X108908003Y-61532996D01*
X108939768Y-61546071D01*
G36*
X112277585Y-62618189D02*
X112237648Y-62658126D01*
X112197711Y-62618189D01*
X112237648Y-62578252D01*
X112277585Y-62618189D01*
X112277585Y-62618189D01*
G37*
X112277585Y-62618189D02*
X112237648Y-62658126D01*
X112197711Y-62618189D01*
X112237648Y-62578252D01*
X112277585Y-62618189D01*
G36*
X109379083Y-61529959D02*
X109481934Y-61701919D01*
X109559271Y-61919068D01*
X109589808Y-62124585D01*
X109565568Y-62243595D01*
X109502112Y-62313661D01*
X109484417Y-62278723D01*
X109489988Y-62171372D01*
X109493798Y-62158912D01*
X109467883Y-62082935D01*
X109388694Y-61912178D01*
X109332427Y-61799478D01*
X109235568Y-61589020D01*
X109220256Y-61485187D01*
X109272006Y-61460013D01*
X109379083Y-61529959D01*
X109379083Y-61529959D01*
G37*
X109379083Y-61529959D02*
X109481934Y-61701919D01*
X109559271Y-61919068D01*
X109589808Y-62124585D01*
X109565568Y-62243595D01*
X109502112Y-62313661D01*
X109484417Y-62278723D01*
X109489988Y-62171372D01*
X109493798Y-62158912D01*
X109467883Y-62082935D01*
X109388694Y-61912178D01*
X109332427Y-61799478D01*
X109235568Y-61589020D01*
X109220256Y-61485187D01*
X109272006Y-61460013D01*
X109379083Y-61529959D01*
G36*
X111315049Y-61513808D02*
X111434636Y-61659281D01*
X111537435Y-61825656D01*
X111665766Y-62065964D01*
X111710720Y-62199986D01*
X111678394Y-62253777D01*
X111638780Y-62258755D01*
X111563287Y-62192549D01*
X111451922Y-62021697D01*
X111363988Y-61854316D01*
X111265731Y-61613638D01*
X111254083Y-61499365D01*
X111315049Y-61513808D01*
X111315049Y-61513808D01*
G37*
X111315049Y-61513808D02*
X111434636Y-61659281D01*
X111537435Y-61825656D01*
X111665766Y-62065964D01*
X111710720Y-62199986D01*
X111678394Y-62253777D01*
X111638780Y-62258755D01*
X111563287Y-62192549D01*
X111451922Y-62021697D01*
X111363988Y-61854316D01*
X111265731Y-61613638D01*
X111254083Y-61499365D01*
X111315049Y-61513808D01*
G36*
X111807362Y-61601847D02*
X111900847Y-61746319D01*
X111967477Y-61911193D01*
X111977858Y-62034358D01*
X111961197Y-62057148D01*
X111878163Y-62026877D01*
X111775196Y-61890780D01*
X111761805Y-61865962D01*
X111665846Y-61665895D01*
X111646782Y-61568801D01*
X111699838Y-61540363D01*
X111716415Y-61539887D01*
X111807362Y-61601847D01*
X111807362Y-61601847D01*
G37*
X111807362Y-61601847D02*
X111900847Y-61746319D01*
X111967477Y-61911193D01*
X111977858Y-62034358D01*
X111961197Y-62057148D01*
X111878163Y-62026877D01*
X111775196Y-61890780D01*
X111761805Y-61865962D01*
X111665846Y-61665895D01*
X111646782Y-61568801D01*
X111699838Y-61540363D01*
X111716415Y-61539887D01*
X111807362Y-61601847D01*
G36*
X112275264Y-61760417D02*
X112277585Y-61779509D01*
X112216803Y-61857063D01*
X112197711Y-61859384D01*
X112120158Y-61798601D01*
X112117837Y-61779509D01*
X112178619Y-61701956D01*
X112197711Y-61699635D01*
X112275264Y-61760417D01*
X112275264Y-61760417D01*
G37*
X112275264Y-61760417D02*
X112277585Y-61779509D01*
X112216803Y-61857063D01*
X112197711Y-61859384D01*
X112120158Y-61798601D01*
X112117837Y-61779509D01*
X112178619Y-61701956D01*
X112197711Y-61699635D01*
X112275264Y-61760417D01*
G36*
X109564883Y-61123100D02*
X109590747Y-61180453D01*
X109592407Y-61283303D01*
X109559355Y-61300264D01*
X109490703Y-61235531D01*
X109481988Y-61180453D01*
X109499077Y-61073884D01*
X109513379Y-61060641D01*
X109564883Y-61123100D01*
X109564883Y-61123100D01*
G37*
X109564883Y-61123100D02*
X109590747Y-61180453D01*
X109592407Y-61283303D01*
X109559355Y-61300264D01*
X109490703Y-61235531D01*
X109481988Y-61180453D01*
X109499077Y-61073884D01*
X109513379Y-61060641D01*
X109564883Y-61123100D01*
G36*
X109788861Y-60803433D02*
X109866219Y-60943314D01*
X109910545Y-61090314D01*
X109894334Y-61172434D01*
X109810988Y-61144217D01*
X109737597Y-61056559D01*
X109652542Y-60871671D01*
X109661748Y-60759555D01*
X109708789Y-60741145D01*
X109788861Y-60803433D01*
X109788861Y-60803433D01*
G37*
X109788861Y-60803433D02*
X109866219Y-60943314D01*
X109910545Y-61090314D01*
X109894334Y-61172434D01*
X109810988Y-61144217D01*
X109737597Y-61056559D01*
X109652542Y-60871671D01*
X109661748Y-60759555D01*
X109708789Y-60741145D01*
X109788861Y-60803433D01*
G36*
X109938039Y-60362691D02*
X110035283Y-60494896D01*
X110109881Y-60633383D01*
X110200366Y-60853609D01*
X110236356Y-61014710D01*
X110225349Y-61062973D01*
X110157704Y-61033366D01*
X110056471Y-60892144D01*
X109994539Y-60775066D01*
X109906646Y-60555502D01*
X109871577Y-60390509D01*
X109879071Y-60345476D01*
X109938039Y-60362691D01*
X109938039Y-60362691D01*
G37*
X109938039Y-60362691D02*
X110035283Y-60494896D01*
X110109881Y-60633383D01*
X110200366Y-60853609D01*
X110236356Y-61014710D01*
X110225349Y-61062973D01*
X110157704Y-61033366D01*
X110056471Y-60892144D01*
X109994539Y-60775066D01*
X109906646Y-60555502D01*
X109871577Y-60390509D01*
X109879071Y-60345476D01*
X109938039Y-60362691D01*
G36*
X111390998Y-60263001D02*
X111499998Y-60414538D01*
X111634154Y-60625771D01*
X111764852Y-60857047D01*
X111845489Y-61030926D01*
X111859048Y-61106433D01*
X111802445Y-61064411D01*
X111694434Y-60914297D01*
X111563155Y-60696770D01*
X111437284Y-60462125D01*
X111356497Y-60288607D01*
X111338261Y-60216108D01*
X111390998Y-60263001D01*
X111390998Y-60263001D01*
G37*
X111390998Y-60263001D02*
X111499998Y-60414538D01*
X111634154Y-60625771D01*
X111764852Y-60857047D01*
X111845489Y-61030926D01*
X111859048Y-61106433D01*
X111802445Y-61064411D01*
X111694434Y-60914297D01*
X111563155Y-60696770D01*
X111437284Y-60462125D01*
X111356497Y-60288607D01*
X111338261Y-60216108D01*
X111390998Y-60263001D01*
G36*
X109725284Y-59130226D02*
X109825641Y-59308412D01*
X109963851Y-59566646D01*
X110123688Y-59873229D01*
X110288926Y-60196462D01*
X110443337Y-60504646D01*
X110570697Y-60766081D01*
X110654777Y-60949070D01*
X110680101Y-61019476D01*
X110620714Y-61060553D01*
X110616529Y-61060641D01*
X110554852Y-60994173D01*
X110442227Y-60815900D01*
X110297895Y-60557521D01*
X110216522Y-60401679D01*
X110068475Y-60100910D01*
X109953799Y-59847379D01*
X109889123Y-59678862D01*
X109880723Y-59638908D01*
X109846513Y-59499568D01*
X109762979Y-59306219D01*
X109759496Y-59299442D01*
X109688482Y-59141294D01*
X109675394Y-59065034D01*
X109679006Y-59063786D01*
X109725284Y-59130226D01*
X109725284Y-59130226D01*
G37*
X109725284Y-59130226D02*
X109825641Y-59308412D01*
X109963851Y-59566646D01*
X110123688Y-59873229D01*
X110288926Y-60196462D01*
X110443337Y-60504646D01*
X110570697Y-60766081D01*
X110654777Y-60949070D01*
X110680101Y-61019476D01*
X110620714Y-61060553D01*
X110616529Y-61060641D01*
X110554852Y-60994173D01*
X110442227Y-60815900D01*
X110297895Y-60557521D01*
X110216522Y-60401679D01*
X110068475Y-60100910D01*
X109953799Y-59847379D01*
X109889123Y-59678862D01*
X109880723Y-59638908D01*
X109846513Y-59499568D01*
X109762979Y-59306219D01*
X109759496Y-59299442D01*
X109688482Y-59141294D01*
X109675394Y-59065034D01*
X109679006Y-59063786D01*
X109725284Y-59130226D01*
G36*
X109669032Y-58316666D02*
X109797975Y-58516674D01*
X109966211Y-58807199D01*
X110158088Y-59161845D01*
X110244706Y-59328932D01*
X110453558Y-59734175D01*
X110654122Y-60118114D01*
X110827047Y-60444058D01*
X110952985Y-60675319D01*
X110978957Y-60721176D01*
X111088329Y-60925516D01*
X111114732Y-61028187D01*
X111064402Y-61060046D01*
X111047545Y-61060641D01*
X110959611Y-60986970D01*
X110810954Y-60765900D01*
X110601524Y-60397345D01*
X110331271Y-59881223D01*
X110202309Y-59625809D01*
X109990899Y-59195109D01*
X109814970Y-58820289D01*
X109683391Y-58521674D01*
X109605026Y-58319595D01*
X109588744Y-58234378D01*
X109595037Y-58233565D01*
X109669032Y-58316666D01*
X109669032Y-58316666D01*
G37*
X109669032Y-58316666D02*
X109797975Y-58516674D01*
X109966211Y-58807199D01*
X110158088Y-59161845D01*
X110244706Y-59328932D01*
X110453558Y-59734175D01*
X110654122Y-60118114D01*
X110827047Y-60444058D01*
X110952985Y-60675319D01*
X110978957Y-60721176D01*
X111088329Y-60925516D01*
X111114732Y-61028187D01*
X111064402Y-61060046D01*
X111047545Y-61060641D01*
X110959611Y-60986970D01*
X110810954Y-60765900D01*
X110601524Y-60397345D01*
X110331271Y-59881223D01*
X110202309Y-59625809D01*
X109990899Y-59195109D01*
X109814970Y-58820289D01*
X109683391Y-58521674D01*
X109605026Y-58319595D01*
X109588744Y-58234378D01*
X109595037Y-58233565D01*
X109669032Y-58316666D01*
G36*
X110297310Y-58723831D02*
X110390241Y-58859093D01*
X110524317Y-59090513D01*
X110685718Y-59390037D01*
X110860625Y-59729613D01*
X111035217Y-60081190D01*
X111195673Y-60416714D01*
X111328175Y-60708133D01*
X111418900Y-60927396D01*
X111454031Y-61046448D01*
X111448167Y-61059858D01*
X111383715Y-60992132D01*
X111261207Y-60805010D01*
X111094462Y-60521762D01*
X110897299Y-60165657D01*
X110732951Y-59855488D01*
X110475362Y-59353343D01*
X110294739Y-58984261D01*
X110188888Y-58742549D01*
X110155618Y-58622511D01*
X110192736Y-58618454D01*
X110297310Y-58723831D01*
X110297310Y-58723831D01*
G37*
X110297310Y-58723831D02*
X110390241Y-58859093D01*
X110524317Y-59090513D01*
X110685718Y-59390037D01*
X110860625Y-59729613D01*
X111035217Y-60081190D01*
X111195673Y-60416714D01*
X111328175Y-60708133D01*
X111418900Y-60927396D01*
X111454031Y-61046448D01*
X111448167Y-61059858D01*
X111383715Y-60992132D01*
X111261207Y-60805010D01*
X111094462Y-60521762D01*
X110897299Y-60165657D01*
X110732951Y-59855488D01*
X110475362Y-59353343D01*
X110294739Y-58984261D01*
X110188888Y-58742549D01*
X110155618Y-58622511D01*
X110192736Y-58618454D01*
X110297310Y-58723831D01*
G36*
X105722029Y-58412743D02*
X105835629Y-58593008D01*
X105977120Y-58850904D01*
X106129476Y-59151620D01*
X106275675Y-59460344D01*
X106398693Y-59742265D01*
X106481505Y-59962573D01*
X106507087Y-60086457D01*
X106506543Y-60089568D01*
X106475298Y-60158959D01*
X106431214Y-60083084D01*
X106417002Y-60042718D01*
X106328083Y-59855652D01*
X106260783Y-59763158D01*
X106129071Y-59589931D01*
X105987736Y-59349164D01*
X105851619Y-59075509D01*
X105735561Y-58803617D01*
X105654404Y-58568140D01*
X105622989Y-58403729D01*
X105653343Y-58344918D01*
X105722029Y-58412743D01*
X105722029Y-58412743D01*
G37*
X105722029Y-58412743D02*
X105835629Y-58593008D01*
X105977120Y-58850904D01*
X106129476Y-59151620D01*
X106275675Y-59460344D01*
X106398693Y-59742265D01*
X106481505Y-59962573D01*
X106507087Y-60086457D01*
X106506543Y-60089568D01*
X106475298Y-60158959D01*
X106431214Y-60083084D01*
X106417002Y-60042718D01*
X106328083Y-59855652D01*
X106260783Y-59763158D01*
X106129071Y-59589931D01*
X105987736Y-59349164D01*
X105851619Y-59075509D01*
X105735561Y-58803617D01*
X105654404Y-58568140D01*
X105622989Y-58403729D01*
X105653343Y-58344918D01*
X105722029Y-58412743D01*
G36*
X111319095Y-60062214D02*
X111279158Y-60102151D01*
X111239220Y-60062214D01*
X111279158Y-60022277D01*
X111319095Y-60062214D01*
X111319095Y-60062214D01*
G37*
X111319095Y-60062214D02*
X111279158Y-60102151D01*
X111239220Y-60062214D01*
X111279158Y-60022277D01*
X111319095Y-60062214D01*
G36*
X106028189Y-58250874D02*
X106149975Y-58424738D01*
X106295080Y-58671892D01*
X106323346Y-58724321D01*
X106474865Y-59032477D01*
X106562699Y-59259922D01*
X106584636Y-59391643D01*
X106538461Y-59412627D01*
X106421960Y-59307861D01*
X106406831Y-59290445D01*
X106254820Y-59075524D01*
X106108794Y-58812309D01*
X106011539Y-58579619D01*
X106001924Y-58544604D01*
X105957556Y-58406002D01*
X105926757Y-58324950D01*
X105915442Y-58209416D01*
X105953634Y-58185170D01*
X106028189Y-58250874D01*
X106028189Y-58250874D01*
G37*
X106028189Y-58250874D02*
X106149975Y-58424738D01*
X106295080Y-58671892D01*
X106323346Y-58724321D01*
X106474865Y-59032477D01*
X106562699Y-59259922D01*
X106584636Y-59391643D01*
X106538461Y-59412627D01*
X106421960Y-59307861D01*
X106406831Y-59290445D01*
X106254820Y-59075524D01*
X106108794Y-58812309D01*
X106011539Y-58579619D01*
X106001924Y-58544604D01*
X105957556Y-58406002D01*
X105926757Y-58324950D01*
X105915442Y-58209416D01*
X105953634Y-58185170D01*
X106028189Y-58250874D01*
G36*
X106366948Y-58108981D02*
X106497199Y-58302710D01*
X106604429Y-58500532D01*
X106731861Y-58781368D01*
X106781333Y-58957180D01*
X106753158Y-59017523D01*
X106647647Y-58951951D01*
X106592593Y-58897413D01*
X106373279Y-58583179D01*
X106256610Y-58245075D01*
X106234289Y-58071083D01*
X106275190Y-58028745D01*
X106366948Y-58108981D01*
X106366948Y-58108981D01*
G37*
X106366948Y-58108981D02*
X106497199Y-58302710D01*
X106604429Y-58500532D01*
X106731861Y-58781368D01*
X106781333Y-58957180D01*
X106753158Y-59017523D01*
X106647647Y-58951951D01*
X106592593Y-58897413D01*
X106373279Y-58583179D01*
X106256610Y-58245075D01*
X106234289Y-58071083D01*
X106275190Y-58028745D01*
X106366948Y-58108981D01*
G36*
X109086839Y-58011559D02*
X109198647Y-58146747D01*
X109331951Y-58345206D01*
X109460573Y-58567747D01*
X109558332Y-58775179D01*
X109563338Y-58788110D01*
X109613391Y-58946615D01*
X109585199Y-58966467D01*
X109472478Y-58851294D01*
X109466297Y-58844132D01*
X109337289Y-58667735D01*
X109205485Y-58447288D01*
X109094190Y-58228257D01*
X109026713Y-58056105D01*
X109022708Y-57978831D01*
X109086839Y-58011559D01*
X109086839Y-58011559D01*
G37*
X109086839Y-58011559D02*
X109198647Y-58146747D01*
X109331951Y-58345206D01*
X109460573Y-58567747D01*
X109558332Y-58775179D01*
X109563338Y-58788110D01*
X109613391Y-58946615D01*
X109585199Y-58966467D01*
X109472478Y-58851294D01*
X109466297Y-58844132D01*
X109337289Y-58667735D01*
X109205485Y-58447288D01*
X109094190Y-58228257D01*
X109026713Y-58056105D01*
X109022708Y-57978831D01*
X109086839Y-58011559D01*
G36*
X106726205Y-58005882D02*
X106855126Y-58205809D01*
X106883232Y-58259432D01*
X106994147Y-58485315D01*
X107067711Y-58648549D01*
X107085761Y-58701697D01*
X107042106Y-58747890D01*
X106930662Y-58683979D01*
X106781142Y-58527266D01*
X106662491Y-58370728D01*
X106602008Y-58273338D01*
X106600405Y-58267675D01*
X106581806Y-58161355D01*
X106567582Y-58085644D01*
X106563725Y-57935500D01*
X106622835Y-57912346D01*
X106726205Y-58005882D01*
X106726205Y-58005882D01*
G37*
X106726205Y-58005882D02*
X106855126Y-58205809D01*
X106883232Y-58259432D01*
X106994147Y-58485315D01*
X107067711Y-58648549D01*
X107085761Y-58701697D01*
X107042106Y-58747890D01*
X106930662Y-58683979D01*
X106781142Y-58527266D01*
X106662491Y-58370728D01*
X106602008Y-58273338D01*
X106600405Y-58267675D01*
X106581806Y-58161355D01*
X106567582Y-58085644D01*
X106563725Y-57935500D01*
X106622835Y-57912346D01*
X106726205Y-58005882D01*
G36*
X107062125Y-57851285D02*
X107163408Y-58018502D01*
X107228555Y-58145233D01*
X107325225Y-58361478D01*
X107346311Y-58470789D01*
X107296645Y-58504262D01*
X107284409Y-58504667D01*
X107178691Y-58467757D01*
X107165636Y-58437014D01*
X107118012Y-58333397D01*
X107010876Y-58190922D01*
X106919104Y-58027795D01*
X106904685Y-57875423D01*
X106969336Y-57790072D01*
X106998517Y-57785799D01*
X107062125Y-57851285D01*
X107062125Y-57851285D01*
G37*
X107062125Y-57851285D02*
X107163408Y-58018502D01*
X107228555Y-58145233D01*
X107325225Y-58361478D01*
X107346311Y-58470789D01*
X107296645Y-58504262D01*
X107284409Y-58504667D01*
X107178691Y-58467757D01*
X107165636Y-58437014D01*
X107118012Y-58333397D01*
X107010876Y-58190922D01*
X106919104Y-58027795D01*
X106904685Y-57875423D01*
X106969336Y-57790072D01*
X106998517Y-57785799D01*
X107062125Y-57851285D01*
G36*
X108564540Y-57837213D02*
X108668357Y-57923627D01*
X108783345Y-58078680D01*
X108875336Y-58246061D01*
X108910161Y-58369460D01*
X108901643Y-58392768D01*
X108831591Y-58367062D01*
X108746269Y-58285502D01*
X108608189Y-58096819D01*
X108531913Y-57967313D01*
X108479100Y-57842331D01*
X108519460Y-57822190D01*
X108564540Y-57837213D01*
X108564540Y-57837213D01*
G37*
X108564540Y-57837213D02*
X108668357Y-57923627D01*
X108783345Y-58078680D01*
X108875336Y-58246061D01*
X108910161Y-58369460D01*
X108901643Y-58392768D01*
X108831591Y-58367062D01*
X108746269Y-58285502D01*
X108608189Y-58096819D01*
X108531913Y-57967313D01*
X108479100Y-57842331D01*
X108519460Y-57822190D01*
X108564540Y-57837213D01*
G36*
X107445746Y-57856447D02*
X107576855Y-58041088D01*
X107588858Y-58065358D01*
X107666366Y-58248267D01*
X107666092Y-58329244D01*
X107609034Y-58344918D01*
X107496205Y-58278413D01*
X107445195Y-58185170D01*
X107377108Y-58056193D01*
X107328547Y-58025421D01*
X107246070Y-57961992D01*
X107216625Y-57905610D01*
X107230008Y-57805169D01*
X107313097Y-57785799D01*
X107445746Y-57856447D01*
X107445746Y-57856447D01*
G37*
X107445746Y-57856447D02*
X107576855Y-58041088D01*
X107588858Y-58065358D01*
X107666366Y-58248267D01*
X107666092Y-58329244D01*
X107609034Y-58344918D01*
X107496205Y-58278413D01*
X107445195Y-58185170D01*
X107377108Y-58056193D01*
X107328547Y-58025421D01*
X107246070Y-57961992D01*
X107216625Y-57905610D01*
X107230008Y-57805169D01*
X107313097Y-57785799D01*
X107445746Y-57856447D01*
G36*
X107717528Y-57723582D02*
X107843732Y-57826368D01*
X107922389Y-57941581D01*
X108018018Y-58141696D01*
X108036774Y-58238381D01*
X107984373Y-58264949D01*
X107977875Y-58265044D01*
X107896069Y-58202269D01*
X107804629Y-58065358D01*
X107706144Y-57920328D01*
X107631384Y-57865673D01*
X107566857Y-57804507D01*
X107565007Y-57785799D01*
X107610298Y-57703817D01*
X107717528Y-57723582D01*
X107717528Y-57723582D01*
G37*
X107717528Y-57723582D02*
X107843732Y-57826368D01*
X107922389Y-57941581D01*
X108018018Y-58141696D01*
X108036774Y-58238381D01*
X107984373Y-58264949D01*
X107977875Y-58265044D01*
X107896069Y-58202269D01*
X107804629Y-58065358D01*
X107706144Y-57920328D01*
X107631384Y-57865673D01*
X107566857Y-57804507D01*
X107565007Y-57785799D01*
X107610298Y-57703817D01*
X107717528Y-57723582D01*
G36*
X108246263Y-57849532D02*
X108355072Y-57996396D01*
X108431420Y-58159881D01*
X108443623Y-58228865D01*
X108404387Y-58278412D01*
X108311791Y-58224091D01*
X108203499Y-58093313D01*
X108164063Y-58025421D01*
X108090782Y-57861038D01*
X108102411Y-57794197D01*
X108149191Y-57785799D01*
X108246263Y-57849532D01*
X108246263Y-57849532D01*
G37*
X108246263Y-57849532D02*
X108355072Y-57996396D01*
X108431420Y-58159881D01*
X108443623Y-58228865D01*
X108404387Y-58278412D01*
X108311791Y-58224091D01*
X108203499Y-58093313D01*
X108164063Y-58025421D01*
X108090782Y-57861038D01*
X108102411Y-57794197D01*
X108149191Y-57785799D01*
X108246263Y-57849532D01*
D13*
X88129000Y-63868000D02*
X88129000Y-65068000D01*
X86369000Y-65068000D02*
X86369000Y-63868000D01*
X96355000Y-66068000D02*
X97955000Y-66068000D01*
X97955000Y-66068000D02*
X97955000Y-63468000D01*
X96355000Y-66068000D02*
X96355000Y-63468000D01*
X220523000Y-87211000D02*
X220523000Y-88811000D01*
X220523000Y-88811000D02*
X223123000Y-88811000D01*
X220523000Y-87211000D02*
X223123000Y-87211000D01*
D14*
X224616000Y-48006000D02*
X224616000Y-58166000D01*
X225886000Y-48006000D02*
X218266000Y-48006000D01*
X218266000Y-48006000D02*
X218266000Y-58166000D01*
X218266000Y-58166000D02*
X225886000Y-58166000D01*
X225886000Y-58166000D02*
X225886000Y-48006000D01*
X71882000Y-48006000D02*
X71882000Y-37846000D01*
X70612000Y-48006000D02*
X78232000Y-48006000D01*
X78232000Y-48006000D02*
X78232000Y-37846000D01*
X78232000Y-37846000D02*
X70612000Y-37846000D01*
X70612000Y-37846000D02*
X70612000Y-48006000D01*
D13*
X87884000Y-54476000D02*
X136264000Y-54476000D01*
X136264000Y-54476000D02*
X136264000Y-49156000D01*
X136264000Y-49156000D02*
X85224000Y-49156000D01*
X85224000Y-49156000D02*
X85224000Y-51816000D01*
X85224000Y-51816000D02*
X87884000Y-51816000D01*
X87884000Y-51816000D02*
X87884000Y-54476000D01*
X86614000Y-54476000D02*
X85224000Y-54476000D01*
X85224000Y-54476000D02*
X85224000Y-53086000D01*
X87884000Y-45078000D02*
X136264000Y-45078000D01*
X136264000Y-45078000D02*
X136264000Y-39758000D01*
X136264000Y-39758000D02*
X85224000Y-39758000D01*
X85224000Y-39758000D02*
X85224000Y-42418000D01*
X85224000Y-42418000D02*
X87884000Y-42418000D01*
X87884000Y-42418000D02*
X87884000Y-45078000D01*
X86614000Y-45078000D02*
X85224000Y-45078000D01*
X85224000Y-45078000D02*
X85224000Y-43688000D01*
D14*
X131512643Y-61761666D02*
X131560262Y-61809285D01*
X131607881Y-61952142D01*
X131607881Y-62047380D01*
X131560262Y-62190238D01*
X131465024Y-62285476D01*
X131369786Y-62333095D01*
X131179310Y-62380714D01*
X131036452Y-62380714D01*
X130845976Y-62333095D01*
X130750738Y-62285476D01*
X130655500Y-62190238D01*
X130607881Y-62047380D01*
X130607881Y-61952142D01*
X130655500Y-61809285D01*
X130703119Y-61761666D01*
X131607881Y-60809285D02*
X131607881Y-61380714D01*
X131607881Y-61095000D02*
X130607881Y-61095000D01*
X130750738Y-61190238D01*
X130845976Y-61285476D01*
X130893595Y-61380714D01*
X137834643Y-60491666D02*
X137882262Y-60539285D01*
X137929881Y-60682142D01*
X137929881Y-60777380D01*
X137882262Y-60920238D01*
X137787024Y-61015476D01*
X137691786Y-61063095D01*
X137501310Y-61110714D01*
X137358452Y-61110714D01*
X137167976Y-61063095D01*
X137072738Y-61015476D01*
X136977500Y-60920238D01*
X136929881Y-60777380D01*
X136929881Y-60682142D01*
X136977500Y-60539285D01*
X137025119Y-60491666D01*
X137025119Y-60110714D02*
X136977500Y-60063095D01*
X136929881Y-59967857D01*
X136929881Y-59729761D01*
X136977500Y-59634523D01*
X137025119Y-59586904D01*
X137120357Y-59539285D01*
X137215595Y-59539285D01*
X137358452Y-59586904D01*
X137929881Y-60158333D01*
X137929881Y-59539285D01*
X140882643Y-59221666D02*
X140930262Y-59269285D01*
X140977881Y-59412142D01*
X140977881Y-59507380D01*
X140930262Y-59650238D01*
X140835024Y-59745476D01*
X140739786Y-59793095D01*
X140549310Y-59840714D01*
X140406452Y-59840714D01*
X140215976Y-59793095D01*
X140120738Y-59745476D01*
X140025500Y-59650238D01*
X139977881Y-59507380D01*
X139977881Y-59412142D01*
X140025500Y-59269285D01*
X140073119Y-59221666D01*
X139977881Y-58888333D02*
X139977881Y-58269285D01*
X140358833Y-58602619D01*
X140358833Y-58459761D01*
X140406452Y-58364523D01*
X140454071Y-58316904D01*
X140549310Y-58269285D01*
X140787405Y-58269285D01*
X140882643Y-58316904D01*
X140930262Y-58364523D01*
X140977881Y-58459761D01*
X140977881Y-58745476D01*
X140930262Y-58840714D01*
X140882643Y-58888333D01*
X154380143Y-54014666D02*
X154427762Y-54062285D01*
X154475381Y-54205142D01*
X154475381Y-54300380D01*
X154427762Y-54443238D01*
X154332524Y-54538476D01*
X154237286Y-54586095D01*
X154046810Y-54633714D01*
X153903952Y-54633714D01*
X153713476Y-54586095D01*
X153618238Y-54538476D01*
X153523000Y-54443238D01*
X153475381Y-54300380D01*
X153475381Y-54205142D01*
X153523000Y-54062285D01*
X153570619Y-54014666D01*
X153808714Y-53157523D02*
X154475381Y-53157523D01*
X153427762Y-53395619D02*
X154142048Y-53633714D01*
X154142048Y-53014666D01*
X154309143Y-71540666D02*
X154356762Y-71588285D01*
X154404381Y-71731142D01*
X154404381Y-71826380D01*
X154356762Y-71969238D01*
X154261524Y-72064476D01*
X154166286Y-72112095D01*
X153975810Y-72159714D01*
X153832952Y-72159714D01*
X153642476Y-72112095D01*
X153547238Y-72064476D01*
X153452000Y-71969238D01*
X153404381Y-71826380D01*
X153404381Y-71731142D01*
X153452000Y-71588285D01*
X153499619Y-71540666D01*
X153404381Y-70635904D02*
X153404381Y-71112095D01*
X153880571Y-71159714D01*
X153832952Y-71112095D01*
X153785333Y-71016857D01*
X153785333Y-70778761D01*
X153832952Y-70683523D01*
X153880571Y-70635904D01*
X153975810Y-70588285D01*
X154213905Y-70588285D01*
X154309143Y-70635904D01*
X154356762Y-70683523D01*
X154404381Y-70778761D01*
X154404381Y-71016857D01*
X154356762Y-71112095D01*
X154309143Y-71159714D01*
X90809143Y-64634666D02*
X90856762Y-64682285D01*
X90904381Y-64825142D01*
X90904381Y-64920380D01*
X90856762Y-65063238D01*
X90761524Y-65158476D01*
X90666286Y-65206095D01*
X90475810Y-65253714D01*
X90332952Y-65253714D01*
X90142476Y-65206095D01*
X90047238Y-65158476D01*
X89952000Y-65063238D01*
X89904381Y-64920380D01*
X89904381Y-64825142D01*
X89952000Y-64682285D01*
X89999619Y-64634666D01*
X89904381Y-63777523D02*
X89904381Y-63968000D01*
X89952000Y-64063238D01*
X89999619Y-64110857D01*
X90142476Y-64206095D01*
X90332952Y-64253714D01*
X90713905Y-64253714D01*
X90809143Y-64206095D01*
X90856762Y-64158476D01*
X90904381Y-64063238D01*
X90904381Y-63872761D01*
X90856762Y-63777523D01*
X90809143Y-63729904D01*
X90713905Y-63682285D01*
X90475810Y-63682285D01*
X90380571Y-63729904D01*
X90332952Y-63777523D01*
X90285333Y-63872761D01*
X90285333Y-64063238D01*
X90332952Y-64158476D01*
X90380571Y-64206095D01*
X90475810Y-64253714D01*
X219432143Y-83986666D02*
X219479762Y-84034285D01*
X219527381Y-84177142D01*
X219527381Y-84272380D01*
X219479762Y-84415238D01*
X219384524Y-84510476D01*
X219289286Y-84558095D01*
X219098810Y-84605714D01*
X218955952Y-84605714D01*
X218765476Y-84558095D01*
X218670238Y-84510476D01*
X218575000Y-84415238D01*
X218527381Y-84272380D01*
X218527381Y-84177142D01*
X218575000Y-84034285D01*
X218622619Y-83986666D01*
X218527381Y-83653333D02*
X218527381Y-82986666D01*
X219527381Y-83415238D01*
X82173143Y-42330666D02*
X82220762Y-42378285D01*
X82268381Y-42521142D01*
X82268381Y-42616380D01*
X82220762Y-42759238D01*
X82125524Y-42854476D01*
X82030286Y-42902095D01*
X81839810Y-42949714D01*
X81696952Y-42949714D01*
X81506476Y-42902095D01*
X81411238Y-42854476D01*
X81316000Y-42759238D01*
X81268381Y-42616380D01*
X81268381Y-42521142D01*
X81316000Y-42378285D01*
X81363619Y-42330666D01*
X81696952Y-41759238D02*
X81649333Y-41854476D01*
X81601714Y-41902095D01*
X81506476Y-41949714D01*
X81458857Y-41949714D01*
X81363619Y-41902095D01*
X81316000Y-41854476D01*
X81268381Y-41759238D01*
X81268381Y-41568761D01*
X81316000Y-41473523D01*
X81363619Y-41425904D01*
X81458857Y-41378285D01*
X81506476Y-41378285D01*
X81601714Y-41425904D01*
X81649333Y-41473523D01*
X81696952Y-41568761D01*
X81696952Y-41759238D01*
X81744571Y-41854476D01*
X81792190Y-41902095D01*
X81887429Y-41949714D01*
X82077905Y-41949714D01*
X82173143Y-41902095D01*
X82220762Y-41854476D01*
X82268381Y-41759238D01*
X82268381Y-41568761D01*
X82220762Y-41473523D01*
X82173143Y-41425904D01*
X82077905Y-41378285D01*
X81887429Y-41378285D01*
X81792190Y-41425904D01*
X81744571Y-41473523D01*
X81696952Y-41568761D01*
X225528143Y-79795666D02*
X225575762Y-79843285D01*
X225623381Y-79986142D01*
X225623381Y-80081380D01*
X225575762Y-80224238D01*
X225480524Y-80319476D01*
X225385286Y-80367095D01*
X225194810Y-80414714D01*
X225051952Y-80414714D01*
X224861476Y-80367095D01*
X224766238Y-80319476D01*
X224671000Y-80224238D01*
X224623381Y-80081380D01*
X224623381Y-79986142D01*
X224671000Y-79843285D01*
X224718619Y-79795666D01*
X225623381Y-79319476D02*
X225623381Y-79129000D01*
X225575762Y-79033761D01*
X225528143Y-78986142D01*
X225385286Y-78890904D01*
X225194810Y-78843285D01*
X224813857Y-78843285D01*
X224718619Y-78890904D01*
X224671000Y-78938523D01*
X224623381Y-79033761D01*
X224623381Y-79224238D01*
X224671000Y-79319476D01*
X224718619Y-79367095D01*
X224813857Y-79414714D01*
X225051952Y-79414714D01*
X225147190Y-79367095D01*
X225194810Y-79319476D01*
X225242429Y-79224238D01*
X225242429Y-79033761D01*
X225194810Y-78938523D01*
X225147190Y-78890904D01*
X225051952Y-78843285D01*
X78490143Y-42933857D02*
X78537762Y-42981476D01*
X78585381Y-43124333D01*
X78585381Y-43219571D01*
X78537762Y-43362429D01*
X78442524Y-43457667D01*
X78347286Y-43505286D01*
X78156810Y-43552905D01*
X78013952Y-43552905D01*
X77823476Y-43505286D01*
X77728238Y-43457667D01*
X77633000Y-43362429D01*
X77585381Y-43219571D01*
X77585381Y-43124333D01*
X77633000Y-42981476D01*
X77680619Y-42933857D01*
X78585381Y-41981476D02*
X78585381Y-42552905D01*
X78585381Y-42267191D02*
X77585381Y-42267191D01*
X77728238Y-42362429D01*
X77823476Y-42457667D01*
X77871095Y-42552905D01*
X77585381Y-41362429D02*
X77585381Y-41267190D01*
X77633000Y-41171952D01*
X77680619Y-41124333D01*
X77775857Y-41076714D01*
X77966333Y-41029095D01*
X78204429Y-41029095D01*
X78394905Y-41076714D01*
X78490143Y-41124333D01*
X78537762Y-41171952D01*
X78585381Y-41267190D01*
X78585381Y-41362429D01*
X78537762Y-41457667D01*
X78490143Y-41505286D01*
X78394905Y-41552905D01*
X78204429Y-41600524D01*
X77966333Y-41600524D01*
X77775857Y-41552905D01*
X77680619Y-41505286D01*
X77633000Y-41457667D01*
X77585381Y-41362429D01*
X81538143Y-64983857D02*
X81585762Y-65031476D01*
X81633381Y-65174333D01*
X81633381Y-65269571D01*
X81585762Y-65412429D01*
X81490524Y-65507667D01*
X81395286Y-65555286D01*
X81204810Y-65602905D01*
X81061952Y-65602905D01*
X80871476Y-65555286D01*
X80776238Y-65507667D01*
X80681000Y-65412429D01*
X80633381Y-65269571D01*
X80633381Y-65174333D01*
X80681000Y-65031476D01*
X80728619Y-64983857D01*
X81633381Y-64031476D02*
X81633381Y-64602905D01*
X81633381Y-64317191D02*
X80633381Y-64317191D01*
X80776238Y-64412429D01*
X80871476Y-64507667D01*
X80919095Y-64602905D01*
X81633381Y-63079095D02*
X81633381Y-63650524D01*
X81633381Y-63364810D02*
X80633381Y-63364810D01*
X80776238Y-63460048D01*
X80871476Y-63555286D01*
X80919095Y-63650524D01*
X78954381Y-63579333D02*
X79668667Y-63579333D01*
X79811524Y-63626953D01*
X79906762Y-63722191D01*
X79954381Y-63865048D01*
X79954381Y-63960286D01*
X79954381Y-62579333D02*
X79954381Y-63150762D01*
X79954381Y-62865048D02*
X78954381Y-62865048D01*
X79097238Y-62960286D01*
X79192476Y-63055524D01*
X79240095Y-63150762D01*
X216448381Y-63579333D02*
X217162667Y-63579333D01*
X217305524Y-63626953D01*
X217400762Y-63722191D01*
X217448381Y-63865048D01*
X217448381Y-63960286D01*
X216781714Y-62674571D02*
X217448381Y-62674571D01*
X216400762Y-62912667D02*
X217115048Y-63150762D01*
X217115048Y-62531714D01*
X78914667Y-52792381D02*
X78914667Y-53506667D01*
X78867047Y-53649524D01*
X78771809Y-53744762D01*
X78628952Y-53792381D01*
X78533714Y-53792381D01*
X79867048Y-52792381D02*
X79390857Y-52792381D01*
X79343238Y-53268571D01*
X79390857Y-53220952D01*
X79486095Y-53173333D01*
X79724191Y-53173333D01*
X79819429Y-53220952D01*
X79867048Y-53268571D01*
X79914667Y-53363810D01*
X79914667Y-53601905D01*
X79867048Y-53697143D01*
X79819429Y-53744762D01*
X79724191Y-53792381D01*
X79486095Y-53792381D01*
X79390857Y-53744762D01*
X79343238Y-53697143D01*
X216448381Y-43259333D02*
X217162667Y-43259333D01*
X217305524Y-43306953D01*
X217400762Y-43402191D01*
X217448381Y-43545048D01*
X217448381Y-43640286D01*
X216448381Y-42354571D02*
X216448381Y-42545048D01*
X216496000Y-42640286D01*
X216543619Y-42687905D01*
X216686476Y-42783143D01*
X216876952Y-42830762D01*
X217257905Y-42830762D01*
X217353143Y-42783143D01*
X217400762Y-42735524D01*
X217448381Y-42640286D01*
X217448381Y-42449809D01*
X217400762Y-42354571D01*
X217353143Y-42306952D01*
X217257905Y-42259333D01*
X217019810Y-42259333D01*
X216924571Y-42306952D01*
X216876952Y-42354571D01*
X216829333Y-42449809D01*
X216829333Y-42640286D01*
X216876952Y-42735524D01*
X216924571Y-42783143D01*
X217019810Y-42830762D01*
X145335667Y-74382381D02*
X145335667Y-75096667D01*
X145288047Y-75239524D01*
X145192809Y-75334762D01*
X145049952Y-75382381D01*
X144954714Y-75382381D01*
X145716619Y-74382381D02*
X146383286Y-74382381D01*
X145954714Y-75382381D01*
X159599381Y-75485523D02*
X160313667Y-75485523D01*
X160456524Y-75533143D01*
X160551762Y-75628381D01*
X160599381Y-75771238D01*
X160599381Y-75866476D01*
X160599381Y-74485523D02*
X160599381Y-75056952D01*
X160599381Y-74771238D02*
X159599381Y-74771238D01*
X159742238Y-74866476D01*
X159837476Y-74961714D01*
X159885095Y-75056952D01*
X159599381Y-73866476D02*
X159599381Y-73771237D01*
X159647000Y-73675999D01*
X159694619Y-73628380D01*
X159789857Y-73580761D01*
X159980333Y-73533142D01*
X160218429Y-73533142D01*
X160408905Y-73580761D01*
X160504143Y-73628380D01*
X160551762Y-73675999D01*
X160599381Y-73771237D01*
X160599381Y-73866476D01*
X160551762Y-73961714D01*
X160504143Y-74009333D01*
X160408905Y-74056952D01*
X160218429Y-74104571D01*
X159980333Y-74104571D01*
X159789857Y-74056952D01*
X159694619Y-74009333D01*
X159647000Y-73961714D01*
X159599381Y-73866476D01*
X208939334Y-38552381D02*
X208606000Y-38076190D01*
X208367905Y-38552381D02*
X208367905Y-37552381D01*
X208748858Y-37552381D01*
X208844096Y-37600000D01*
X208891715Y-37647619D01*
X208939334Y-37742857D01*
X208939334Y-37885714D01*
X208891715Y-37980952D01*
X208844096Y-38028571D01*
X208748858Y-38076190D01*
X208367905Y-38076190D01*
X209891715Y-38552381D02*
X209320286Y-38552381D01*
X209606000Y-38552381D02*
X209606000Y-37552381D01*
X209510762Y-37695238D01*
X209415524Y-37790476D01*
X209320286Y-37838095D01*
X208939334Y-41092381D02*
X208606000Y-40616190D01*
X208367905Y-41092381D02*
X208367905Y-40092381D01*
X208748858Y-40092381D01*
X208844096Y-40140000D01*
X208891715Y-40187619D01*
X208939334Y-40282857D01*
X208939334Y-40425714D01*
X208891715Y-40520952D01*
X208844096Y-40568571D01*
X208748858Y-40616190D01*
X208367905Y-40616190D01*
X209320286Y-40187619D02*
X209367905Y-40140000D01*
X209463143Y-40092381D01*
X209701239Y-40092381D01*
X209796477Y-40140000D01*
X209844096Y-40187619D01*
X209891715Y-40282857D01*
X209891715Y-40378095D01*
X209844096Y-40520952D01*
X209272667Y-41092381D01*
X209891715Y-41092381D01*
X208939334Y-43632381D02*
X208606000Y-43156190D01*
X208367905Y-43632381D02*
X208367905Y-42632381D01*
X208748858Y-42632381D01*
X208844096Y-42680000D01*
X208891715Y-42727619D01*
X208939334Y-42822857D01*
X208939334Y-42965714D01*
X208891715Y-43060952D01*
X208844096Y-43108571D01*
X208748858Y-43156190D01*
X208367905Y-43156190D01*
X209272667Y-42632381D02*
X209891715Y-42632381D01*
X209558381Y-43013333D01*
X209701239Y-43013333D01*
X209796477Y-43060952D01*
X209844096Y-43108571D01*
X209891715Y-43203810D01*
X209891715Y-43441905D01*
X209844096Y-43537143D01*
X209796477Y-43584762D01*
X209701239Y-43632381D01*
X209415524Y-43632381D01*
X209320286Y-43584762D01*
X209272667Y-43537143D01*
X208939334Y-46172381D02*
X208606000Y-45696190D01*
X208367905Y-46172381D02*
X208367905Y-45172381D01*
X208748858Y-45172381D01*
X208844096Y-45220000D01*
X208891715Y-45267619D01*
X208939334Y-45362857D01*
X208939334Y-45505714D01*
X208891715Y-45600952D01*
X208844096Y-45648571D01*
X208748858Y-45696190D01*
X208367905Y-45696190D01*
X209796477Y-45505714D02*
X209796477Y-46172381D01*
X209558381Y-45124762D02*
X209320286Y-45839048D01*
X209939334Y-45839048D01*
X208939334Y-48712381D02*
X208606000Y-48236190D01*
X208367905Y-48712381D02*
X208367905Y-47712381D01*
X208748858Y-47712381D01*
X208844096Y-47760000D01*
X208891715Y-47807619D01*
X208939334Y-47902857D01*
X208939334Y-48045714D01*
X208891715Y-48140952D01*
X208844096Y-48188571D01*
X208748858Y-48236190D01*
X208367905Y-48236190D01*
X209844096Y-47712381D02*
X209367905Y-47712381D01*
X209320286Y-48188571D01*
X209367905Y-48140952D01*
X209463143Y-48093333D01*
X209701239Y-48093333D01*
X209796477Y-48140952D01*
X209844096Y-48188571D01*
X209891715Y-48283810D01*
X209891715Y-48521905D01*
X209844096Y-48617143D01*
X209796477Y-48664762D01*
X209701239Y-48712381D01*
X209463143Y-48712381D01*
X209367905Y-48664762D01*
X209320286Y-48617143D01*
X151250381Y-54014666D02*
X150774190Y-54348000D01*
X151250381Y-54586095D02*
X150250381Y-54586095D01*
X150250381Y-54205142D01*
X150298000Y-54109904D01*
X150345619Y-54062285D01*
X150440857Y-54014666D01*
X150583714Y-54014666D01*
X150678952Y-54062285D01*
X150726571Y-54109904D01*
X150774190Y-54205142D01*
X150774190Y-54586095D01*
X150250381Y-53157523D02*
X150250381Y-53348000D01*
X150298000Y-53443238D01*
X150345619Y-53490857D01*
X150488476Y-53586095D01*
X150678952Y-53633714D01*
X151059905Y-53633714D01*
X151155143Y-53586095D01*
X151202762Y-53538476D01*
X151250381Y-53443238D01*
X151250381Y-53252761D01*
X151202762Y-53157523D01*
X151155143Y-53109904D01*
X151059905Y-53062285D01*
X150821810Y-53062285D01*
X150726571Y-53109904D01*
X150678952Y-53157523D01*
X150631333Y-53252761D01*
X150631333Y-53443238D01*
X150678952Y-53538476D01*
X150726571Y-53586095D01*
X150821810Y-53633714D01*
X151250381Y-71540666D02*
X150774190Y-71874000D01*
X151250381Y-72112095D02*
X150250381Y-72112095D01*
X150250381Y-71731142D01*
X150298000Y-71635904D01*
X150345619Y-71588285D01*
X150440857Y-71540666D01*
X150583714Y-71540666D01*
X150678952Y-71588285D01*
X150726571Y-71635904D01*
X150774190Y-71731142D01*
X150774190Y-72112095D01*
X150250381Y-71207333D02*
X150250381Y-70540666D01*
X151250381Y-70969238D01*
X147694381Y-71540666D02*
X147218190Y-71874000D01*
X147694381Y-72112095D02*
X146694381Y-72112095D01*
X146694381Y-71731142D01*
X146742000Y-71635904D01*
X146789619Y-71588285D01*
X146884857Y-71540666D01*
X147027714Y-71540666D01*
X147122952Y-71588285D01*
X147170571Y-71635904D01*
X147218190Y-71731142D01*
X147218190Y-72112095D01*
X147122952Y-70969238D02*
X147075333Y-71064476D01*
X147027714Y-71112095D01*
X146932476Y-71159714D01*
X146884857Y-71159714D01*
X146789619Y-71112095D01*
X146742000Y-71064476D01*
X146694381Y-70969238D01*
X146694381Y-70778761D01*
X146742000Y-70683523D01*
X146789619Y-70635904D01*
X146884857Y-70588285D01*
X146932476Y-70588285D01*
X147027714Y-70635904D01*
X147075333Y-70683523D01*
X147122952Y-70778761D01*
X147122952Y-70969238D01*
X147170571Y-71064476D01*
X147218190Y-71112095D01*
X147313429Y-71159714D01*
X147503905Y-71159714D01*
X147599143Y-71112095D01*
X147646762Y-71064476D01*
X147694381Y-70969238D01*
X147694381Y-70778761D01*
X147646762Y-70683523D01*
X147599143Y-70635904D01*
X147503905Y-70588285D01*
X147313429Y-70588285D01*
X147218190Y-70635904D01*
X147170571Y-70683523D01*
X147122952Y-70778761D01*
X154630381Y-71540666D02*
X154154190Y-71874000D01*
X154630381Y-72112095D02*
X153630381Y-72112095D01*
X153630381Y-71731142D01*
X153678000Y-71635904D01*
X153725619Y-71588285D01*
X153820857Y-71540666D01*
X153963714Y-71540666D01*
X154058952Y-71588285D01*
X154106571Y-71635904D01*
X154154190Y-71731142D01*
X154154190Y-72112095D01*
X154630381Y-71064476D02*
X154630381Y-70874000D01*
X154582762Y-70778761D01*
X154535143Y-70731142D01*
X154392286Y-70635904D01*
X154201810Y-70588285D01*
X153820857Y-70588285D01*
X153725619Y-70635904D01*
X153678000Y-70683523D01*
X153630381Y-70778761D01*
X153630381Y-70969238D01*
X153678000Y-71064476D01*
X153725619Y-71112095D01*
X153820857Y-71159714D01*
X154058952Y-71159714D01*
X154154190Y-71112095D01*
X154201810Y-71064476D01*
X154249429Y-70969238D01*
X154249429Y-70778761D01*
X154201810Y-70683523D01*
X154154190Y-70635904D01*
X154058952Y-70588285D01*
X221480143Y-69999381D02*
X221146809Y-69523190D01*
X220908714Y-69999381D02*
X220908714Y-68999381D01*
X221289667Y-68999381D01*
X221384905Y-69047000D01*
X221432524Y-69094619D01*
X221480143Y-69189857D01*
X221480143Y-69332714D01*
X221432524Y-69427952D01*
X221384905Y-69475571D01*
X221289667Y-69523190D01*
X220908714Y-69523190D01*
X222432524Y-69999381D02*
X221861095Y-69999381D01*
X222146809Y-69999381D02*
X222146809Y-68999381D01*
X222051571Y-69142238D01*
X221956333Y-69237476D01*
X221861095Y-69285095D01*
X223051571Y-68999381D02*
X223146810Y-68999381D01*
X223242048Y-69047000D01*
X223289667Y-69094619D01*
X223337286Y-69189857D01*
X223384905Y-69380333D01*
X223384905Y-69618429D01*
X223337286Y-69808905D01*
X223289667Y-69904143D01*
X223242048Y-69951762D01*
X223146810Y-69999381D01*
X223051571Y-69999381D01*
X222956333Y-69951762D01*
X222908714Y-69904143D01*
X222861095Y-69808905D01*
X222813476Y-69618429D01*
X222813476Y-69380333D01*
X222861095Y-69189857D01*
X222908714Y-69094619D01*
X222956333Y-69047000D01*
X223051571Y-68999381D01*
X221480143Y-74190381D02*
X221146809Y-73714190D01*
X220908714Y-74190381D02*
X220908714Y-73190381D01*
X221289667Y-73190381D01*
X221384905Y-73238000D01*
X221432524Y-73285619D01*
X221480143Y-73380857D01*
X221480143Y-73523714D01*
X221432524Y-73618952D01*
X221384905Y-73666571D01*
X221289667Y-73714190D01*
X220908714Y-73714190D01*
X222432524Y-74190381D02*
X221861095Y-74190381D01*
X222146809Y-74190381D02*
X222146809Y-73190381D01*
X222051571Y-73333238D01*
X221956333Y-73428476D01*
X221861095Y-73476095D01*
X223384905Y-74190381D02*
X222813476Y-74190381D01*
X223099190Y-74190381D02*
X223099190Y-73190381D01*
X223003952Y-73333238D01*
X222908714Y-73428476D01*
X222813476Y-73476095D01*
X193302095Y-50950762D02*
X193444952Y-50998381D01*
X193683048Y-50998381D01*
X193778286Y-50950762D01*
X193825905Y-50903143D01*
X193873524Y-50807905D01*
X193873524Y-50712667D01*
X193825905Y-50617429D01*
X193778286Y-50569810D01*
X193683048Y-50522190D01*
X193492571Y-50474571D01*
X193397333Y-50426952D01*
X193349714Y-50379333D01*
X193302095Y-50284095D01*
X193302095Y-50188857D01*
X193349714Y-50093619D01*
X193397333Y-50046000D01*
X193492571Y-49998381D01*
X193730667Y-49998381D01*
X193873524Y-50046000D01*
X194825905Y-50998381D02*
X194254476Y-50998381D01*
X194540190Y-50998381D02*
X194540190Y-49998381D01*
X194444952Y-50141238D01*
X194349714Y-50236476D01*
X194254476Y-50284095D01*
X123444095Y-55452381D02*
X123444095Y-56261905D01*
X123491714Y-56357143D01*
X123539333Y-56404762D01*
X123634571Y-56452381D01*
X123825048Y-56452381D01*
X123920286Y-56404762D01*
X123967905Y-56357143D01*
X124015524Y-56261905D01*
X124015524Y-55452381D01*
X125015524Y-56452381D02*
X124444095Y-56452381D01*
X124729809Y-56452381D02*
X124729809Y-55452381D01*
X124634571Y-55595238D01*
X124539333Y-55690476D01*
X124444095Y-55738095D01*
X149860095Y-58022381D02*
X149860095Y-58831905D01*
X149907714Y-58927143D01*
X149955333Y-58974762D01*
X150050571Y-59022381D01*
X150241048Y-59022381D01*
X150336286Y-58974762D01*
X150383905Y-58927143D01*
X150431524Y-58831905D01*
X150431524Y-58022381D01*
X150860095Y-58117619D02*
X150907714Y-58070000D01*
X151002952Y-58022381D01*
X151241048Y-58022381D01*
X151336286Y-58070000D01*
X151383905Y-58117619D01*
X151431524Y-58212857D01*
X151431524Y-58308095D01*
X151383905Y-58450952D01*
X150812476Y-59022381D01*
X151431524Y-59022381D01*
X149860095Y-48578381D02*
X149860095Y-49387905D01*
X149907714Y-49483143D01*
X149955333Y-49530762D01*
X150050571Y-49578381D01*
X150241048Y-49578381D01*
X150336286Y-49530762D01*
X150383905Y-49483143D01*
X150431524Y-49387905D01*
X150431524Y-48578381D01*
X150812476Y-48578381D02*
X151431524Y-48578381D01*
X151098190Y-48959333D01*
X151241048Y-48959333D01*
X151336286Y-49006952D01*
X151383905Y-49054571D01*
X151431524Y-49149810D01*
X151431524Y-49387905D01*
X151383905Y-49483143D01*
X151336286Y-49530762D01*
X151241048Y-49578381D01*
X150955333Y-49578381D01*
X150860095Y-49530762D01*
X150812476Y-49483143D01*
X103378095Y-69048381D02*
X103378095Y-69857905D01*
X103425714Y-69953143D01*
X103473333Y-70000762D01*
X103568571Y-70048381D01*
X103759048Y-70048381D01*
X103854286Y-70000762D01*
X103901905Y-69953143D01*
X103949524Y-69857905D01*
X103949524Y-69048381D01*
X104854286Y-69381714D02*
X104854286Y-70048381D01*
X104616190Y-69000762D02*
X104378095Y-69715048D01*
X104997143Y-69715048D01*
X164231905Y-87574381D02*
X164231905Y-86574381D01*
X164231905Y-87050571D02*
X164803334Y-87050571D01*
X164803334Y-87574381D02*
X164803334Y-86574381D01*
X165231905Y-87526762D02*
X165374762Y-87574381D01*
X165612858Y-87574381D01*
X165708096Y-87526762D01*
X165755715Y-87479143D01*
X165803334Y-87383905D01*
X165803334Y-87288667D01*
X165755715Y-87193429D01*
X165708096Y-87145810D01*
X165612858Y-87098190D01*
X165422381Y-87050571D01*
X165327143Y-87002952D01*
X165279524Y-86955333D01*
X165231905Y-86860095D01*
X165231905Y-86764857D01*
X165279524Y-86669619D01*
X165327143Y-86622000D01*
X165422381Y-86574381D01*
X165660477Y-86574381D01*
X165803334Y-86622000D01*
X166755715Y-87574381D02*
X166184286Y-87574381D01*
X166470000Y-87574381D02*
X166470000Y-86574381D01*
X166374762Y-86717238D01*
X166279524Y-86812476D01*
X166184286Y-86860095D01*
X182488095Y-63452381D02*
X182488095Y-64261905D01*
X182535714Y-64357143D01*
X182583333Y-64404762D01*
X182678571Y-64452381D01*
X182869048Y-64452381D01*
X182964286Y-64404762D01*
X183011905Y-64357143D01*
X183059524Y-64261905D01*
X183059524Y-63452381D01*
X184011905Y-63452381D02*
X183535714Y-63452381D01*
X183488095Y-63928571D01*
X183535714Y-63880952D01*
X183630952Y-63833333D01*
X183869048Y-63833333D01*
X183964286Y-63880952D01*
X184011905Y-63928571D01*
X184059524Y-64023810D01*
X184059524Y-64261905D01*
X184011905Y-64357143D01*
X183964286Y-64404762D01*
X183869048Y-64452381D01*
X183630952Y-64452381D01*
X183535714Y-64404762D01*
X183488095Y-64357143D01*
X130786239Y-86796571D02*
X130929096Y-86844190D01*
X130976715Y-86891810D01*
X131024334Y-86987048D01*
X131024334Y-87129905D01*
X130976715Y-87225143D01*
X130929096Y-87272762D01*
X130833858Y-87320381D01*
X130452905Y-87320381D01*
X130452905Y-86320381D01*
X130786239Y-86320381D01*
X130881477Y-86368000D01*
X130929096Y-86415619D01*
X130976715Y-86510857D01*
X130976715Y-86606095D01*
X130929096Y-86701333D01*
X130881477Y-86748952D01*
X130786239Y-86796571D01*
X130452905Y-86796571D01*
X131976715Y-87320381D02*
X131405286Y-87320381D01*
X131691000Y-87320381D02*
X131691000Y-86320381D01*
X131595762Y-86463238D01*
X131500524Y-86558476D01*
X131405286Y-86606095D01*
X86001381Y-65110857D02*
X85525190Y-65444191D01*
X86001381Y-65682286D02*
X85001381Y-65682286D01*
X85001381Y-65301333D01*
X85049000Y-65206095D01*
X85096619Y-65158476D01*
X85191857Y-65110857D01*
X85334714Y-65110857D01*
X85429952Y-65158476D01*
X85477571Y-65206095D01*
X85525190Y-65301333D01*
X85525190Y-65682286D01*
X86001381Y-64158476D02*
X86001381Y-64729905D01*
X86001381Y-64444191D02*
X85001381Y-64444191D01*
X85144238Y-64539429D01*
X85239476Y-64634667D01*
X85287095Y-64729905D01*
X85096619Y-63777524D02*
X85049000Y-63729905D01*
X85001381Y-63634667D01*
X85001381Y-63396571D01*
X85049000Y-63301333D01*
X85096619Y-63253714D01*
X85191857Y-63206095D01*
X85287095Y-63206095D01*
X85429952Y-63253714D01*
X86001381Y-63825143D01*
X86001381Y-63206095D01*
X99207381Y-65206095D02*
X98207381Y-65206095D01*
X98207381Y-64968000D01*
X98255000Y-64825142D01*
X98350238Y-64729904D01*
X98445476Y-64682285D01*
X98635952Y-64634666D01*
X98778810Y-64634666D01*
X98969286Y-64682285D01*
X99064524Y-64729904D01*
X99159762Y-64825142D01*
X99207381Y-64968000D01*
X99207381Y-65206095D01*
X99207381Y-63682285D02*
X99207381Y-64253714D01*
X99207381Y-63968000D02*
X98207381Y-63968000D01*
X98350238Y-64063238D01*
X98445476Y-64158476D01*
X98493095Y-64253714D01*
X221384905Y-90063381D02*
X221384905Y-89063381D01*
X221623000Y-89063381D01*
X221765858Y-89111000D01*
X221861096Y-89206238D01*
X221908715Y-89301476D01*
X221956334Y-89491952D01*
X221956334Y-89634810D01*
X221908715Y-89825286D01*
X221861096Y-89920524D01*
X221765858Y-90015762D01*
X221623000Y-90063381D01*
X221384905Y-90063381D01*
X222337286Y-89158619D02*
X222384905Y-89111000D01*
X222480143Y-89063381D01*
X222718239Y-89063381D01*
X222813477Y-89111000D01*
X222861096Y-89158619D01*
X222908715Y-89253857D01*
X222908715Y-89349095D01*
X222861096Y-89491952D01*
X222289667Y-90063381D01*
X222908715Y-90063381D01*
X216448381Y-53419333D02*
X217162667Y-53419333D01*
X217305524Y-53466953D01*
X217400762Y-53562191D01*
X217448381Y-53705048D01*
X217448381Y-53800286D01*
X216543619Y-52990762D02*
X216496000Y-52943143D01*
X216448381Y-52847905D01*
X216448381Y-52609809D01*
X216496000Y-52514571D01*
X216543619Y-52466952D01*
X216638857Y-52419333D01*
X216734095Y-52419333D01*
X216876952Y-52466952D01*
X217448381Y-53038381D01*
X217448381Y-52419333D01*
X78954381Y-43259333D02*
X79668667Y-43259333D01*
X79811524Y-43306953D01*
X79906762Y-43402191D01*
X79954381Y-43545048D01*
X79954381Y-43640286D01*
X78954381Y-42878381D02*
X78954381Y-42259333D01*
X79335333Y-42592667D01*
X79335333Y-42449809D01*
X79382952Y-42354571D01*
X79430571Y-42306952D01*
X79525810Y-42259333D01*
X79763905Y-42259333D01*
X79859143Y-42306952D01*
X79906762Y-42354571D01*
X79954381Y-42449809D01*
X79954381Y-42735524D01*
X79906762Y-42830762D01*
X79859143Y-42878381D01*
X83676381Y-52149333D02*
X84390667Y-52149333D01*
X84533524Y-52196953D01*
X84628762Y-52292191D01*
X84676381Y-52435048D01*
X84676381Y-52530286D01*
X84104952Y-51530286D02*
X84057333Y-51625524D01*
X84009714Y-51673143D01*
X83914476Y-51720762D01*
X83866857Y-51720762D01*
X83771619Y-51673143D01*
X83724000Y-51625524D01*
X83676381Y-51530286D01*
X83676381Y-51339809D01*
X83724000Y-51244571D01*
X83771619Y-51196952D01*
X83866857Y-51149333D01*
X83914476Y-51149333D01*
X84009714Y-51196952D01*
X84057333Y-51244571D01*
X84104952Y-51339809D01*
X84104952Y-51530286D01*
X84152571Y-51625524D01*
X84200190Y-51673143D01*
X84295429Y-51720762D01*
X84485905Y-51720762D01*
X84581143Y-51673143D01*
X84628762Y-51625524D01*
X84676381Y-51530286D01*
X84676381Y-51339809D01*
X84628762Y-51244571D01*
X84581143Y-51196952D01*
X84485905Y-51149333D01*
X84295429Y-51149333D01*
X84200190Y-51196952D01*
X84152571Y-51244571D01*
X84104952Y-51339809D01*
X83676381Y-42751333D02*
X84390667Y-42751333D01*
X84533524Y-42798953D01*
X84628762Y-42894191D01*
X84676381Y-43037048D01*
X84676381Y-43132286D01*
X84676381Y-42227524D02*
X84676381Y-42037048D01*
X84628762Y-41941809D01*
X84581143Y-41894190D01*
X84438286Y-41798952D01*
X84247810Y-41751333D01*
X83866857Y-41751333D01*
X83771619Y-41798952D01*
X83724000Y-41846571D01*
X83676381Y-41941809D01*
X83676381Y-42132286D01*
X83724000Y-42227524D01*
X83771619Y-42275143D01*
X83866857Y-42322762D01*
X84104952Y-42322762D01*
X84200190Y-42275143D01*
X84247810Y-42227524D01*
X84295429Y-42132286D01*
X84295429Y-41941809D01*
X84247810Y-41846571D01*
X84200190Y-41798952D01*
X84104952Y-41751333D01*
M02*
