M48
;DRILL file {KiCad 4.0.6} date 03/06/18 07:36:06
;FORMAT={-:-/ absolute / inch / decimal}
FMAT,2
INCH,TZ
T1C0.016
T2C0.031
T3C0.032
T4C0.039
T5C0.060
%
G90
G05
M72
T1
X3.67Y-2.18
X3.67Y-2.24
X3.81Y-2.32
X3.87Y-2.24
X3.87Y-2.3
X3.87Y-2.56
X4.21Y-2.75
X4.32Y-2.75
X5.74Y-2.15
X6.05Y-1.98
X6.05Y-2.04
X6.11Y-1.98
X6.11Y-2.04
X6.18Y-2.81
X6.26Y-1.61
X6.29Y-2.12
X6.59Y-2.02
X6.76Y-2.07
X6.92Y-1.95
X6.92Y-2.15
X7.02Y-2.3
X7.15Y-2.12
X7.26Y-2.69
X7.26Y-2.78
X7.26Y-2.87
X7.26Y-2.96
X7.26Y-3.05
X7.26Y-3.15
X7.26Y-3.24
X7.26Y-3.33
X7.31Y-1.94
X7.36Y-2.73
X7.36Y-2.82
X7.36Y-2.91
X7.36Y-3.
X7.36Y-3.09
X7.36Y-3.18
X7.36Y-3.27
X7.41Y-2.01
X7.46Y-2.69
X7.46Y-2.78
X7.46Y-2.87
X7.46Y-2.96
X7.46Y-3.05
X7.46Y-3.14
X7.46Y-3.23
X7.46Y-3.33
X7.56Y-2.73
X7.56Y-2.82
X7.56Y-2.91
X7.56Y-3.
X7.56Y-3.27
X7.66Y-2.69
X7.66Y-2.78
X7.66Y-2.87
X7.66Y-2.96
X7.66Y-3.33
X7.76Y-2.73
X7.76Y-2.82
X7.76Y-2.91
X7.76Y-3.
X7.76Y-3.09
X7.76Y-3.18
X7.76Y-3.27
X7.86Y-2.69
X7.86Y-2.78
X7.86Y-2.87
X7.86Y-2.96
X7.86Y-3.05
X7.86Y-3.14
X7.86Y-3.23
X7.86Y-3.32
X7.94Y-2.01
X7.96Y-2.73
X7.96Y-2.82
X7.96Y-2.91
X7.96Y-3.
X7.96Y-3.09
X7.96Y-3.18
X7.96Y-3.27
X8.12Y-1.5
X8.12Y-1.6
X8.12Y-1.7
X8.12Y-1.8
X8.12Y-1.9
X8.78Y-3.14
X8.96Y-2.9
T2
X5.78Y-1.54
X5.78Y-1.64
X5.78Y-1.74
X5.78Y-1.84
X5.78Y-2.4
X5.78Y-2.5
X5.78Y-2.6
X6.08Y-1.54
X6.08Y-1.64
X6.08Y-1.74
X6.08Y-1.84
X6.08Y-2.4
X6.08Y-2.5
X6.08Y-2.6
X7.57Y-1.5
X7.57Y-1.6
X7.57Y-1.7
X7.57Y-1.8
X7.57Y-1.9
X7.87Y-1.5
X7.87Y-1.6
X7.87Y-1.7
X7.87Y-1.8
X7.87Y-1.9
T3
X6.376Y-1.472
X6.376Y-1.728
X6.4154Y-1.5508
X6.4154Y-1.6492
X6.4547Y-1.472
X6.4547Y-1.728
X6.4941Y-1.5508
X6.4941Y-1.6492
X6.5335Y-1.472
X6.5335Y-1.728
X6.5728Y-1.5508
X6.5728Y-1.6492
X6.6122Y-1.472
X6.6122Y-1.728
X6.7303Y-1.5508
X6.7303Y-1.6492
X6.7697Y-1.472
X6.7697Y-1.728
X6.8091Y-1.5508
X6.8091Y-1.6492
X6.8484Y-1.472
X6.8484Y-1.728
X6.8878Y-1.5508
X6.8878Y-1.6492
X6.9272Y-1.472
X6.9272Y-1.728
X6.9665Y-1.5508
X6.9665Y-1.6492
X7.0059Y-1.472
X7.0059Y-1.728
X7.0453Y-1.5508
X7.0453Y-1.6492
X7.0846Y-1.472
X7.0846Y-1.728
X7.124Y-1.5508
X7.124Y-1.6492
T4
X3.41Y-1.62
X3.41Y-1.72
X3.41Y-1.99
X3.41Y-2.09
X3.51Y-1.62
X3.51Y-1.72
X3.51Y-1.99
X3.51Y-2.09
X3.61Y-1.62
X3.61Y-1.72
X3.61Y-1.99
X3.61Y-2.09
X3.71Y-1.62
X3.71Y-1.72
X3.71Y-1.99
X3.71Y-2.09
X3.81Y-1.62
X3.81Y-1.72
X3.81Y-1.99
X3.81Y-2.09
X3.91Y-1.62
X3.91Y-1.72
X3.91Y-1.99
X3.91Y-2.09
X4.01Y-1.62
X4.01Y-1.72
X4.01Y-1.99
X4.01Y-2.09
X4.11Y-1.62
X4.11Y-1.72
X4.11Y-1.99
X4.11Y-2.09
X4.21Y-1.62
X4.21Y-1.72
X4.21Y-1.99
X4.21Y-2.09
X4.31Y-1.62
X4.31Y-1.72
X4.31Y-1.99
X4.31Y-2.09
X4.41Y-1.62
X4.41Y-1.72
X4.41Y-1.99
X4.41Y-2.09
X4.51Y-1.62
X4.51Y-1.72
X4.51Y-1.99
X4.51Y-2.09
X4.61Y-1.62
X4.61Y-1.72
X4.61Y-1.99
X4.61Y-2.09
X4.71Y-1.62
X4.71Y-1.72
X4.71Y-1.99
X4.71Y-2.09
X4.81Y-1.62
X4.81Y-1.72
X4.81Y-1.99
X4.81Y-2.09
X4.91Y-1.62
X4.91Y-1.72
X4.91Y-1.99
X4.91Y-2.09
X5.01Y-1.62
X5.01Y-1.72
X5.01Y-1.99
X5.01Y-2.09
X5.11Y-1.62
X5.11Y-1.72
X5.11Y-1.99
X5.11Y-2.09
X5.21Y-1.62
X5.21Y-1.72
X5.21Y-1.99
X5.21Y-2.09
X5.31Y-1.62
X5.31Y-1.72
X5.31Y-1.99
X5.31Y-2.09
X7.52Y-2.47
X7.62Y-2.47
X7.72Y-2.47
T5
X2.93Y-1.59
X2.93Y-1.79
X2.93Y-1.99
X2.93Y-2.19
X2.93Y-2.39
X2.93Y-2.59
X5.59Y-3.15
X5.79Y-3.15
X6.08Y-3.15
X6.28Y-3.15
X8.94Y-1.59
X8.94Y-1.79
X8.94Y-1.99
X8.94Y-2.19
X8.94Y-2.39
X8.94Y-2.59
T0
M30
