G04 #@! TF.FileFunction,Legend,Bot*
%FSLAX46Y46*%
G04 Gerber Fmt 4.6, Leading zero omitted, Abs format (unit mm)*
G04 Created by KiCad (PCBNEW 4.0.6) date 04/16/18 16:28:44*
%MOMM*%
%LPD*%
G01*
G04 APERTURE LIST*
%ADD10C,0.100000*%
%ADD11C,0.304800*%
G04 APERTURE END LIST*
D10*
D11*
X172803820Y-38851840D02*
X161104580Y-38851840D01*
X161104580Y-38851840D02*
X161104580Y-40650160D01*
X172803820Y-40650160D02*
X161104580Y-40650160D01*
X174604680Y-40650160D02*
X174604680Y-38851840D01*
X174604680Y-38851840D02*
X182255160Y-38851840D01*
X182255160Y-38851840D02*
X182255160Y-40650160D01*
X182255160Y-40650160D02*
X174604680Y-40650160D01*
X172803820Y-40650160D02*
X172803820Y-38851840D01*
X180804820Y-53553600D02*
X180804820Y-55052200D01*
X180804820Y-55052200D02*
X184203340Y-55052200D01*
X184203340Y-53553600D02*
X184203340Y-55052200D01*
X172504100Y-53553600D02*
X172504100Y-55052200D01*
X172504100Y-55052200D02*
X179303680Y-55052200D01*
X179303680Y-53553600D02*
X179303680Y-55052200D01*
X164104320Y-55052200D02*
X170903900Y-55052200D01*
X170903900Y-53553600D02*
X170903900Y-55052200D01*
X164104320Y-53553600D02*
X164104320Y-55052200D01*
X159204660Y-53553600D02*
X159204660Y-55052200D01*
X159204660Y-55052200D02*
X162603180Y-55052200D01*
X162603180Y-53553600D02*
X162603180Y-55052200D01*
X159204660Y-36050220D02*
X159204660Y-53553600D01*
X159204660Y-53553600D02*
X184203340Y-53553600D01*
X184203340Y-36050220D02*
X184203340Y-53553600D01*
X184203340Y-36050220D02*
X159204660Y-36050220D01*
X158350857Y-37646429D02*
X158350857Y-36122429D01*
X157770285Y-36122429D01*
X157625143Y-36195000D01*
X157552571Y-36267571D01*
X157480000Y-36412714D01*
X157480000Y-36630429D01*
X157552571Y-36775571D01*
X157625143Y-36848143D01*
X157770285Y-36920714D01*
X158350857Y-36920714D01*
X156028571Y-37646429D02*
X156899428Y-37646429D01*
X156464000Y-37646429D02*
X156464000Y-36122429D01*
X156609143Y-36340143D01*
X156754285Y-36485286D01*
X156899428Y-36557857D01*
X178562000Y-47368097D02*
X178707143Y-47440669D01*
X178997429Y-47440669D01*
X179142571Y-47368097D01*
X179215143Y-47295526D01*
X179287714Y-47150383D01*
X179287714Y-46714954D01*
X179215143Y-46569811D01*
X179142571Y-46497240D01*
X178997429Y-46424669D01*
X178707143Y-46424669D01*
X178562000Y-46497240D01*
X177691143Y-47440669D02*
X177836285Y-47368097D01*
X177908857Y-47295526D01*
X177981428Y-47150383D01*
X177981428Y-46714954D01*
X177908857Y-46569811D01*
X177836285Y-46497240D01*
X177691143Y-46424669D01*
X177473428Y-46424669D01*
X177328285Y-46497240D01*
X177255714Y-46569811D01*
X177183143Y-46714954D01*
X177183143Y-47150383D01*
X177255714Y-47295526D01*
X177328285Y-47368097D01*
X177473428Y-47440669D01*
X177691143Y-47440669D01*
X176530000Y-46424669D02*
X176530000Y-47440669D01*
X176530000Y-46569811D02*
X176457428Y-46497240D01*
X176312286Y-46424669D01*
X176094571Y-46424669D01*
X175949428Y-46497240D01*
X175876857Y-46642383D01*
X175876857Y-47440669D01*
X175151143Y-46424669D02*
X175151143Y-47440669D01*
X175151143Y-46569811D02*
X175078571Y-46497240D01*
X174933429Y-46424669D01*
X174715714Y-46424669D01*
X174570571Y-46497240D01*
X174498000Y-46642383D01*
X174498000Y-47440669D01*
X173844857Y-46061811D02*
X173772286Y-45989240D01*
X173627143Y-45916669D01*
X173264286Y-45916669D01*
X173119143Y-45989240D01*
X173046572Y-46061811D01*
X172974000Y-46206954D01*
X172974000Y-46352097D01*
X173046572Y-46569811D01*
X173917429Y-47440669D01*
X172974000Y-47440669D01*
X172466000Y-47440669D02*
X171667714Y-46424669D01*
X172466000Y-46424669D02*
X171667714Y-47440669D01*
X170288857Y-47440669D02*
X171159714Y-47440669D01*
X170724286Y-47440669D02*
X170724286Y-45916669D01*
X170869429Y-46134383D01*
X171014571Y-46279526D01*
X171159714Y-46352097D01*
X169418000Y-46569811D02*
X169563142Y-46497240D01*
X169635714Y-46424669D01*
X169708285Y-46279526D01*
X169708285Y-46206954D01*
X169635714Y-46061811D01*
X169563142Y-45989240D01*
X169418000Y-45916669D01*
X169127714Y-45916669D01*
X168982571Y-45989240D01*
X168910000Y-46061811D01*
X168837428Y-46206954D01*
X168837428Y-46279526D01*
X168910000Y-46424669D01*
X168982571Y-46497240D01*
X169127714Y-46569811D01*
X169418000Y-46569811D01*
X169563142Y-46642383D01*
X169635714Y-46714954D01*
X169708285Y-46860097D01*
X169708285Y-47150383D01*
X169635714Y-47295526D01*
X169563142Y-47368097D01*
X169418000Y-47440669D01*
X169127714Y-47440669D01*
X168982571Y-47368097D01*
X168910000Y-47295526D01*
X168837428Y-47150383D01*
X168837428Y-46860097D01*
X168910000Y-46714954D01*
X168982571Y-46642383D01*
X169127714Y-46569811D01*
X168184285Y-46424669D02*
X168184285Y-47948669D01*
X168184285Y-46497240D02*
X168039142Y-46424669D01*
X167748856Y-46424669D01*
X167603713Y-46497240D01*
X167531142Y-46569811D01*
X167458571Y-46714954D01*
X167458571Y-47150383D01*
X167531142Y-47295526D01*
X167603713Y-47368097D01*
X167748856Y-47440669D01*
X168039142Y-47440669D01*
X168184285Y-47368097D01*
X166152285Y-47368097D02*
X166297428Y-47440669D01*
X166587714Y-47440669D01*
X166732856Y-47368097D01*
X166805428Y-47295526D01*
X166877999Y-47150383D01*
X166877999Y-46714954D01*
X166805428Y-46569811D01*
X166732856Y-46497240D01*
X166587714Y-46424669D01*
X166297428Y-46424669D01*
X166152285Y-46497240D01*
X165499142Y-47440669D02*
X165499142Y-46424669D01*
X165499142Y-45916669D02*
X165571713Y-45989240D01*
X165499142Y-46061811D01*
X165426570Y-45989240D01*
X165499142Y-45916669D01*
X165499142Y-46061811D01*
X164192856Y-47368097D02*
X164337999Y-47440669D01*
X164628285Y-47440669D01*
X164773428Y-47368097D01*
X164845999Y-47222954D01*
X164845999Y-46642383D01*
X164773428Y-46497240D01*
X164628285Y-46424669D01*
X164337999Y-46424669D01*
X164192856Y-46497240D01*
X164120285Y-46642383D01*
X164120285Y-46787526D01*
X164845999Y-46932669D01*
M02*
