G04 #@! TF.FileFunction,Legend,Bot*
%FSLAX46Y46*%
G04 Gerber Fmt 4.6, Leading zero omitted, Abs format (unit mm)*
G04 Created by KiCad (PCBNEW 4.0.6) date 03/06/18 07:35:55*
%MOMM*%
%LPD*%
G01*
G04 APERTURE LIST*
%ADD10C,0.100000*%
%ADD11C,0.304800*%
G04 APERTURE END LIST*
D10*
D11*
X170350180Y-39740840D02*
X182049420Y-39740840D01*
X182049420Y-39740840D02*
X182049420Y-41539160D01*
X170350180Y-41539160D02*
X182049420Y-41539160D01*
X168549320Y-41539160D02*
X168549320Y-39740840D01*
X168549320Y-39740840D02*
X160898840Y-39740840D01*
X160898840Y-39740840D02*
X160898840Y-41539160D01*
X160898840Y-41539160D02*
X168549320Y-41539160D01*
X170350180Y-41539160D02*
X170350180Y-39740840D01*
X162349180Y-54442600D02*
X162349180Y-55941200D01*
X162349180Y-55941200D02*
X158950660Y-55941200D01*
X158950660Y-54442600D02*
X158950660Y-55941200D01*
X170649900Y-54442600D02*
X170649900Y-55941200D01*
X170649900Y-55941200D02*
X163850320Y-55941200D01*
X163850320Y-54442600D02*
X163850320Y-55941200D01*
X179049680Y-55941200D02*
X172250100Y-55941200D01*
X172250100Y-54442600D02*
X172250100Y-55941200D01*
X179049680Y-54442600D02*
X179049680Y-55941200D01*
X183949340Y-54442600D02*
X183949340Y-55941200D01*
X183949340Y-55941200D02*
X180550820Y-55941200D01*
X180550820Y-54442600D02*
X180550820Y-55941200D01*
X183949340Y-36939220D02*
X183949340Y-54442600D01*
X183949340Y-54442600D02*
X158950660Y-54442600D01*
X158950660Y-36939220D02*
X158950660Y-54442600D01*
X158950660Y-36939220D02*
X183949340Y-36939220D01*
X187052857Y-38535429D02*
X187052857Y-37011429D01*
X186472285Y-37011429D01*
X186327143Y-37084000D01*
X186254571Y-37156571D01*
X186182000Y-37301714D01*
X186182000Y-37519429D01*
X186254571Y-37664571D01*
X186327143Y-37737143D01*
X186472285Y-37809714D01*
X187052857Y-37809714D01*
X184730571Y-38535429D02*
X185601428Y-38535429D01*
X185166000Y-38535429D02*
X185166000Y-37011429D01*
X185311143Y-37229143D01*
X185456285Y-37374286D01*
X185601428Y-37446857D01*
X178308000Y-48257097D02*
X178453143Y-48329669D01*
X178743429Y-48329669D01*
X178888571Y-48257097D01*
X178961143Y-48184526D01*
X179033714Y-48039383D01*
X179033714Y-47603954D01*
X178961143Y-47458811D01*
X178888571Y-47386240D01*
X178743429Y-47313669D01*
X178453143Y-47313669D01*
X178308000Y-47386240D01*
X177437143Y-48329669D02*
X177582285Y-48257097D01*
X177654857Y-48184526D01*
X177727428Y-48039383D01*
X177727428Y-47603954D01*
X177654857Y-47458811D01*
X177582285Y-47386240D01*
X177437143Y-47313669D01*
X177219428Y-47313669D01*
X177074285Y-47386240D01*
X177001714Y-47458811D01*
X176929143Y-47603954D01*
X176929143Y-48039383D01*
X177001714Y-48184526D01*
X177074285Y-48257097D01*
X177219428Y-48329669D01*
X177437143Y-48329669D01*
X176276000Y-47313669D02*
X176276000Y-48329669D01*
X176276000Y-47458811D02*
X176203428Y-47386240D01*
X176058286Y-47313669D01*
X175840571Y-47313669D01*
X175695428Y-47386240D01*
X175622857Y-47531383D01*
X175622857Y-48329669D01*
X174897143Y-47313669D02*
X174897143Y-48329669D01*
X174897143Y-47458811D02*
X174824571Y-47386240D01*
X174679429Y-47313669D01*
X174461714Y-47313669D01*
X174316571Y-47386240D01*
X174244000Y-47531383D01*
X174244000Y-48329669D01*
X173590857Y-46950811D02*
X173518286Y-46878240D01*
X173373143Y-46805669D01*
X173010286Y-46805669D01*
X172865143Y-46878240D01*
X172792572Y-46950811D01*
X172720000Y-47095954D01*
X172720000Y-47241097D01*
X172792572Y-47458811D01*
X173663429Y-48329669D01*
X172720000Y-48329669D01*
X172212000Y-48329669D02*
X171413714Y-47313669D01*
X172212000Y-47313669D02*
X171413714Y-48329669D01*
X170034857Y-48329669D02*
X170905714Y-48329669D01*
X170470286Y-48329669D02*
X170470286Y-46805669D01*
X170615429Y-47023383D01*
X170760571Y-47168526D01*
X170905714Y-47241097D01*
X169164000Y-47458811D02*
X169309142Y-47386240D01*
X169381714Y-47313669D01*
X169454285Y-47168526D01*
X169454285Y-47095954D01*
X169381714Y-46950811D01*
X169309142Y-46878240D01*
X169164000Y-46805669D01*
X168873714Y-46805669D01*
X168728571Y-46878240D01*
X168656000Y-46950811D01*
X168583428Y-47095954D01*
X168583428Y-47168526D01*
X168656000Y-47313669D01*
X168728571Y-47386240D01*
X168873714Y-47458811D01*
X169164000Y-47458811D01*
X169309142Y-47531383D01*
X169381714Y-47603954D01*
X169454285Y-47749097D01*
X169454285Y-48039383D01*
X169381714Y-48184526D01*
X169309142Y-48257097D01*
X169164000Y-48329669D01*
X168873714Y-48329669D01*
X168728571Y-48257097D01*
X168656000Y-48184526D01*
X168583428Y-48039383D01*
X168583428Y-47749097D01*
X168656000Y-47603954D01*
X168728571Y-47531383D01*
X168873714Y-47458811D01*
X167930285Y-47313669D02*
X167930285Y-48837669D01*
X167930285Y-47386240D02*
X167785142Y-47313669D01*
X167494856Y-47313669D01*
X167349713Y-47386240D01*
X167277142Y-47458811D01*
X167204571Y-47603954D01*
X167204571Y-48039383D01*
X167277142Y-48184526D01*
X167349713Y-48257097D01*
X167494856Y-48329669D01*
X167785142Y-48329669D01*
X167930285Y-48257097D01*
X165898285Y-48257097D02*
X166043428Y-48329669D01*
X166333714Y-48329669D01*
X166478856Y-48257097D01*
X166551428Y-48184526D01*
X166623999Y-48039383D01*
X166623999Y-47603954D01*
X166551428Y-47458811D01*
X166478856Y-47386240D01*
X166333714Y-47313669D01*
X166043428Y-47313669D01*
X165898285Y-47386240D01*
X165245142Y-48329669D02*
X165245142Y-47313669D01*
X165245142Y-46805669D02*
X165317713Y-46878240D01*
X165245142Y-46950811D01*
X165172570Y-46878240D01*
X165245142Y-46805669D01*
X165245142Y-46950811D01*
X163938856Y-48257097D02*
X164083999Y-48329669D01*
X164374285Y-48329669D01*
X164519428Y-48257097D01*
X164591999Y-48111954D01*
X164591999Y-47531383D01*
X164519428Y-47386240D01*
X164374285Y-47313669D01*
X164083999Y-47313669D01*
X163938856Y-47386240D01*
X163866285Y-47531383D01*
X163866285Y-47676526D01*
X164591999Y-47821669D01*
M02*
