G04 #@! TF.FileFunction,Soldermask,Top*
%FSLAX46Y46*%
G04 Gerber Fmt 4.6, Leading zero omitted, Abs format (unit mm)*
G04 Created by KiCad (PCBNEW 4.0.6) date 04/10/18 12:10:19*
%MOMM*%
%LPD*%
G01*
G04 APERTURE LIST*
%ADD10C,0.100000*%
%ADD11R,1.650000X1.900000*%
%ADD12R,1.900000X1.650000*%
%ADD13R,2.940000X2.940000*%
%ADD14C,2.940000*%
%ADD15R,1.900000X1.700000*%
%ADD16R,1.700000X1.900000*%
%ADD17R,2.000000X2.000000*%
%ADD18O,2.000000X2.000000*%
%ADD19R,2.350000X1.000000*%
%ADD20R,4.590000X3.190000*%
%ADD21R,3.190000X4.590000*%
%ADD22C,3.956000*%
%ADD23O,3.900000X3.900000*%
%ADD24R,2.200000X2.200000*%
%ADD25O,2.200000X2.200000*%
%ADD26C,3.400000*%
%ADD27R,4.060000X3.000000*%
%ADD28R,3.940000X3.000000*%
%ADD29C,1.400000*%
%ADD30C,1.700000*%
%ADD31R,1.300000X1.200000*%
%ADD32R,1.200000X1.300000*%
%ADD33C,1.598880*%
%ADD34R,2.100000X2.100000*%
%ADD35O,2.100000X2.100000*%
%ADD36C,0.254000*%
G04 APERTURE END LIST*
D10*
D11*
X132905500Y-62845000D03*
X132905500Y-60345000D03*
X135826500Y-61575000D03*
X135826500Y-59075000D03*
X138747500Y-60305000D03*
X138747500Y-57805000D03*
X152273000Y-52598000D03*
X152273000Y-55098000D03*
X155702000Y-72624000D03*
X155702000Y-70124000D03*
X92202000Y-65718000D03*
X92202000Y-63218000D03*
D12*
X220873000Y-83820000D03*
X223373000Y-83820000D03*
D11*
X83566000Y-43414000D03*
X83566000Y-40914000D03*
D12*
X220873000Y-79629000D03*
X223373000Y-79629000D03*
D11*
X79883000Y-43541000D03*
X79883000Y-41041000D03*
X82931000Y-65591000D03*
X82931000Y-63091000D03*
D13*
X74422000Y-60706000D03*
D14*
X74422000Y-65786000D03*
D13*
X222076000Y-65786000D03*
D14*
X222076000Y-60706000D03*
D13*
X74422000Y-50546000D03*
D14*
X74422000Y-55626000D03*
D13*
X222076000Y-45466000D03*
D14*
X222076000Y-40386000D03*
D13*
X143129000Y-80010000D03*
D14*
X148209000Y-80010000D03*
D13*
X153289000Y-80010000D03*
D14*
X158369000Y-80010000D03*
D15*
X203946000Y-38100000D03*
X206646000Y-38100000D03*
X203946000Y-40640000D03*
X206646000Y-40640000D03*
X203946000Y-43180000D03*
X206646000Y-43180000D03*
X203946000Y-45720000D03*
X206646000Y-45720000D03*
X203946000Y-48260000D03*
X206646000Y-48260000D03*
D16*
X149098000Y-52498000D03*
X149098000Y-55198000D03*
X149098000Y-70024000D03*
X149098000Y-72724000D03*
X145542000Y-70024000D03*
X145542000Y-72724000D03*
X152400000Y-72724000D03*
X152400000Y-70024000D03*
D15*
X220773000Y-71247000D03*
X223473000Y-71247000D03*
X220773000Y-75438000D03*
X223473000Y-75438000D03*
D17*
X190000000Y-38100000D03*
D18*
X197620000Y-48260000D03*
X190000000Y-40640000D03*
X197620000Y-45720000D03*
X190000000Y-43180000D03*
X197620000Y-43180000D03*
X190000000Y-45720000D03*
X197620000Y-40640000D03*
X190000000Y-48260000D03*
X197620000Y-38100000D03*
D19*
X119506000Y-57785000D03*
X119506000Y-59055000D03*
X119506000Y-60325000D03*
X119506000Y-61595000D03*
X119506000Y-62865000D03*
X119506000Y-64135000D03*
X119506000Y-65405000D03*
X119506000Y-66675000D03*
X119506000Y-67945000D03*
X119506000Y-69215000D03*
X128906000Y-69215000D03*
X128906000Y-67945000D03*
X128906000Y-66675000D03*
X128906000Y-65405000D03*
X128906000Y-64135000D03*
X128906000Y-62865000D03*
X128906000Y-61595000D03*
X128906000Y-60325000D03*
X128906000Y-59055000D03*
X128906000Y-57785000D03*
D17*
X146812000Y-60960000D03*
D18*
X154432000Y-66040000D03*
X146812000Y-63500000D03*
X154432000Y-63500000D03*
X146812000Y-66040000D03*
X154432000Y-60960000D03*
D17*
X154432000Y-46736000D03*
D18*
X146812000Y-39116000D03*
X154432000Y-44196000D03*
X146812000Y-41656000D03*
X154432000Y-41656000D03*
X146812000Y-44196000D03*
X154432000Y-39116000D03*
X146812000Y-46736000D03*
D20*
X80406000Y-72866000D03*
X85236000Y-72866000D03*
X90066000Y-72866000D03*
X94896000Y-72866000D03*
X102766000Y-83786000D03*
D21*
X72866000Y-83156000D03*
D22*
X189600000Y-79375000D03*
D23*
X189600000Y-79390000D03*
D24*
X192140000Y-62730000D03*
D25*
X189600000Y-62730000D03*
X187060000Y-62730000D03*
D26*
X69836000Y-32082000D03*
X226736000Y-32082000D03*
X81744000Y-51816000D03*
X139744000Y-51816000D03*
D27*
X113461000Y-80518000D03*
D28*
X129261000Y-80593000D03*
D29*
X117531000Y-80518000D03*
D30*
X125031000Y-80518000D03*
D26*
X226736000Y-88607000D03*
X69861000Y-88607000D03*
D16*
X87249000Y-65818000D03*
X87249000Y-63118000D03*
D31*
X97155000Y-65518000D03*
X97155000Y-63418000D03*
D32*
X221073000Y-88011000D03*
X223173000Y-88011000D03*
D33*
X175204120Y-36499800D03*
X176204880Y-38501320D03*
X177203100Y-36499800D03*
X178203860Y-38501320D03*
X179204620Y-36499800D03*
X180202840Y-38501320D03*
X181203600Y-36499800D03*
X176204880Y-41000680D03*
X178203860Y-41000680D03*
X180202840Y-41000680D03*
X175204120Y-43002200D03*
X177203100Y-43002200D03*
X179204620Y-43002200D03*
X181203600Y-43002200D03*
X172204380Y-38501320D03*
X170202860Y-38501320D03*
X168203880Y-38501320D03*
X166204900Y-38501320D03*
X164203380Y-38501320D03*
X162204400Y-38501320D03*
X163205160Y-36499800D03*
X165204140Y-36499800D03*
X167203120Y-36499800D03*
X169204640Y-36499800D03*
X171203620Y-36499800D03*
X162204400Y-41000680D03*
X163205160Y-43002200D03*
X164203380Y-41000680D03*
X165204140Y-43002200D03*
X166204900Y-41000680D03*
X167203120Y-43002200D03*
X168203880Y-41000680D03*
X169204640Y-43002200D03*
X170202860Y-41000680D03*
X171203620Y-43002200D03*
X172204380Y-41000680D03*
D13*
X222076000Y-55626000D03*
D14*
X222076000Y-50546000D03*
D13*
X74422000Y-40386000D03*
D14*
X74422000Y-45466000D03*
D34*
X86614000Y-53086000D03*
D35*
X86614000Y-50546000D03*
X89154000Y-53086000D03*
X89154000Y-50546000D03*
X91694000Y-53086000D03*
X91694000Y-50546000D03*
X94234000Y-53086000D03*
X94234000Y-50546000D03*
X96774000Y-53086000D03*
X96774000Y-50546000D03*
X99314000Y-53086000D03*
X99314000Y-50546000D03*
X101854000Y-53086000D03*
X101854000Y-50546000D03*
X104394000Y-53086000D03*
X104394000Y-50546000D03*
X106934000Y-53086000D03*
X106934000Y-50546000D03*
X109474000Y-53086000D03*
X109474000Y-50546000D03*
X112014000Y-53086000D03*
X112014000Y-50546000D03*
X114554000Y-53086000D03*
X114554000Y-50546000D03*
X117094000Y-53086000D03*
X117094000Y-50546000D03*
X119634000Y-53086000D03*
X119634000Y-50546000D03*
X122174000Y-53086000D03*
X122174000Y-50546000D03*
X124714000Y-53086000D03*
X124714000Y-50546000D03*
X127254000Y-53086000D03*
X127254000Y-50546000D03*
X129794000Y-53086000D03*
X129794000Y-50546000D03*
X132334000Y-53086000D03*
X132334000Y-50546000D03*
X134874000Y-53086000D03*
X134874000Y-50546000D03*
D34*
X86614000Y-43688000D03*
D35*
X86614000Y-41148000D03*
X89154000Y-43688000D03*
X89154000Y-41148000D03*
X91694000Y-43688000D03*
X91694000Y-41148000D03*
X94234000Y-43688000D03*
X94234000Y-41148000D03*
X96774000Y-43688000D03*
X96774000Y-41148000D03*
X99314000Y-43688000D03*
X99314000Y-41148000D03*
X101854000Y-43688000D03*
X101854000Y-41148000D03*
X104394000Y-43688000D03*
X104394000Y-41148000D03*
X106934000Y-43688000D03*
X106934000Y-41148000D03*
X109474000Y-43688000D03*
X109474000Y-41148000D03*
X112014000Y-43688000D03*
X112014000Y-41148000D03*
X114554000Y-43688000D03*
X114554000Y-41148000D03*
X117094000Y-43688000D03*
X117094000Y-41148000D03*
X119634000Y-43688000D03*
X119634000Y-41148000D03*
X122174000Y-43688000D03*
X122174000Y-41148000D03*
X124714000Y-43688000D03*
X124714000Y-41148000D03*
X127254000Y-43688000D03*
X127254000Y-41148000D03*
X129794000Y-43688000D03*
X129794000Y-41148000D03*
X132334000Y-43688000D03*
X132334000Y-41148000D03*
X134874000Y-43688000D03*
X134874000Y-41148000D03*
D36*
G36*
X214883576Y-85979000D02*
X164338000Y-85979000D01*
X164338000Y-67183000D01*
X214820923Y-67183000D01*
X214883576Y-85979000D01*
X214883576Y-85979000D01*
G37*
X214883576Y-85979000D02*
X164338000Y-85979000D01*
X164338000Y-67183000D01*
X214820923Y-67183000D01*
X214883576Y-85979000D01*
M02*
