G04 #@! TF.FileFunction,Copper,L2,Bot,Signal*
%FSLAX46Y46*%
G04 Gerber Fmt 4.6, Leading zero omitted, Abs format (unit mm)*
G04 Created by KiCad (PCBNEW 4.0.6) date 04/10/18 12:10:19*
%MOMM*%
%LPD*%
G01*
G04 APERTURE LIST*
%ADD10C,0.100000*%
%ADD11R,2.540000X2.540000*%
%ADD12C,2.540000*%
%ADD13R,1.600000X1.600000*%
%ADD14O,1.600000X1.600000*%
%ADD15R,1.800000X1.800000*%
%ADD16O,1.800000X1.800000*%
%ADD17C,1.198880*%
%ADD18R,1.700000X1.700000*%
%ADD19O,1.700000X1.700000*%
%ADD20C,0.600000*%
%ADD21C,0.508000*%
%ADD22C,0.304800*%
%ADD23C,1.016000*%
%ADD24C,0.254000*%
G04 APERTURE END LIST*
D10*
D11*
X74422000Y-60706000D03*
D12*
X74422000Y-65786000D03*
D11*
X222076000Y-65786000D03*
D12*
X222076000Y-60706000D03*
D11*
X74422000Y-50546000D03*
D12*
X74422000Y-55626000D03*
D11*
X222076000Y-45466000D03*
D12*
X222076000Y-40386000D03*
D11*
X143129000Y-80010000D03*
D12*
X148209000Y-80010000D03*
D11*
X153289000Y-80010000D03*
D12*
X158369000Y-80010000D03*
D13*
X190000000Y-38100000D03*
D14*
X197620000Y-48260000D03*
X190000000Y-40640000D03*
X197620000Y-45720000D03*
X190000000Y-43180000D03*
X197620000Y-43180000D03*
X190000000Y-45720000D03*
X197620000Y-40640000D03*
X190000000Y-48260000D03*
X197620000Y-38100000D03*
D13*
X146812000Y-60960000D03*
D14*
X154432000Y-66040000D03*
X146812000Y-63500000D03*
X154432000Y-63500000D03*
X146812000Y-66040000D03*
X154432000Y-60960000D03*
D13*
X154432000Y-46736000D03*
D14*
X146812000Y-39116000D03*
X154432000Y-44196000D03*
X146812000Y-41656000D03*
X154432000Y-41656000D03*
X146812000Y-44196000D03*
X154432000Y-39116000D03*
X146812000Y-46736000D03*
D15*
X192140000Y-62730000D03*
D16*
X189600000Y-62730000D03*
X187060000Y-62730000D03*
D17*
X175204120Y-36499800D03*
X176204880Y-38501320D03*
X177203100Y-36499800D03*
X178203860Y-38501320D03*
X179204620Y-36499800D03*
X180202840Y-38501320D03*
X181203600Y-36499800D03*
X176204880Y-41000680D03*
X178203860Y-41000680D03*
X180202840Y-41000680D03*
X175204120Y-43002200D03*
X177203100Y-43002200D03*
X179204620Y-43002200D03*
X181203600Y-43002200D03*
X172204380Y-38501320D03*
X170202860Y-38501320D03*
X168203880Y-38501320D03*
X166204900Y-38501320D03*
X164203380Y-38501320D03*
X162204400Y-38501320D03*
X163205160Y-36499800D03*
X165204140Y-36499800D03*
X167203120Y-36499800D03*
X169204640Y-36499800D03*
X171203620Y-36499800D03*
X162204400Y-41000680D03*
X163205160Y-43002200D03*
X164203380Y-41000680D03*
X165204140Y-43002200D03*
X166204900Y-41000680D03*
X167203120Y-43002200D03*
X168203880Y-41000680D03*
X169204640Y-43002200D03*
X170202860Y-41000680D03*
X171203620Y-43002200D03*
X172204380Y-41000680D03*
D11*
X222076000Y-55626000D03*
D12*
X222076000Y-50546000D03*
D11*
X74422000Y-40386000D03*
D12*
X74422000Y-45466000D03*
D18*
X86614000Y-53086000D03*
D19*
X86614000Y-50546000D03*
X89154000Y-53086000D03*
X89154000Y-50546000D03*
X91694000Y-53086000D03*
X91694000Y-50546000D03*
X94234000Y-53086000D03*
X94234000Y-50546000D03*
X96774000Y-53086000D03*
X96774000Y-50546000D03*
X99314000Y-53086000D03*
X99314000Y-50546000D03*
X101854000Y-53086000D03*
X101854000Y-50546000D03*
X104394000Y-53086000D03*
X104394000Y-50546000D03*
X106934000Y-53086000D03*
X106934000Y-50546000D03*
X109474000Y-53086000D03*
X109474000Y-50546000D03*
X112014000Y-53086000D03*
X112014000Y-50546000D03*
X114554000Y-53086000D03*
X114554000Y-50546000D03*
X117094000Y-53086000D03*
X117094000Y-50546000D03*
X119634000Y-53086000D03*
X119634000Y-50546000D03*
X122174000Y-53086000D03*
X122174000Y-50546000D03*
X124714000Y-53086000D03*
X124714000Y-50546000D03*
X127254000Y-53086000D03*
X127254000Y-50546000D03*
X129794000Y-53086000D03*
X129794000Y-50546000D03*
X132334000Y-53086000D03*
X132334000Y-50546000D03*
X134874000Y-53086000D03*
X134874000Y-50546000D03*
D18*
X86614000Y-43688000D03*
D19*
X86614000Y-41148000D03*
X89154000Y-43688000D03*
X89154000Y-41148000D03*
X91694000Y-43688000D03*
X91694000Y-41148000D03*
X94234000Y-43688000D03*
X94234000Y-41148000D03*
X96774000Y-43688000D03*
X96774000Y-41148000D03*
X99314000Y-43688000D03*
X99314000Y-41148000D03*
X101854000Y-43688000D03*
X101854000Y-41148000D03*
X104394000Y-43688000D03*
X104394000Y-41148000D03*
X106934000Y-43688000D03*
X106934000Y-41148000D03*
X109474000Y-43688000D03*
X109474000Y-41148000D03*
X112014000Y-43688000D03*
X112014000Y-41148000D03*
X114554000Y-43688000D03*
X114554000Y-41148000D03*
X117094000Y-43688000D03*
X117094000Y-41148000D03*
X119634000Y-43688000D03*
X119634000Y-41148000D03*
X122174000Y-43688000D03*
X122174000Y-41148000D03*
X124714000Y-43688000D03*
X124714000Y-41148000D03*
X127254000Y-43688000D03*
X127254000Y-41148000D03*
X129794000Y-43688000D03*
X129794000Y-41148000D03*
X132334000Y-43688000D03*
X132334000Y-41148000D03*
X134874000Y-43688000D03*
X134874000Y-41148000D03*
D20*
X209804000Y-82042000D03*
X204724000Y-82042000D03*
X199644000Y-82042000D03*
X199644000Y-79756000D03*
X199644000Y-77470000D03*
X202184000Y-80772000D03*
X202184000Y-78486000D03*
X202184000Y-76200000D03*
X204724000Y-79756000D03*
X204724000Y-77470000D03*
X204724000Y-75184000D03*
X207264000Y-80772000D03*
X207264000Y-78486000D03*
X207264000Y-76200000D03*
X207264000Y-73914000D03*
X209804000Y-79756000D03*
X209804000Y-77470000D03*
X209804000Y-75184000D03*
X212344000Y-80772000D03*
X212344000Y-78486000D03*
X212344000Y-76200000D03*
X212344000Y-73914000D03*
X209804000Y-72898000D03*
X212344000Y-71628000D03*
X209804000Y-70612000D03*
X207264000Y-71628000D03*
X204724000Y-72898000D03*
X204724000Y-70612000D03*
X202184000Y-73914000D03*
X202184000Y-71628000D03*
X199644000Y-75184000D03*
X199644000Y-72898000D03*
X199644000Y-70612000D03*
X212344000Y-69342000D03*
X207264000Y-69342000D03*
X209804000Y-68326000D03*
X204724000Y-68326000D03*
X199644000Y-68326000D03*
X202184000Y-69342000D03*
X209804000Y-84328000D03*
X204724000Y-84328000D03*
X212344000Y-83058000D03*
X207264000Y-83058000D03*
X199644000Y-84328000D03*
X202184000Y-83058000D03*
X169164000Y-68580000D03*
X166624000Y-69342000D03*
X166624000Y-71628000D03*
X169164000Y-70866000D03*
X171704000Y-69342000D03*
X171704000Y-71628000D03*
X166624000Y-73914000D03*
X169164000Y-73152000D03*
X166624000Y-76200000D03*
X169164000Y-75438000D03*
X169164000Y-77724000D03*
X171704000Y-73914000D03*
X171704000Y-76200000D03*
X166624000Y-78486000D03*
X166624000Y-80772000D03*
X169164000Y-80010000D03*
X169164000Y-82296000D03*
X171704000Y-78486000D03*
X171704000Y-80772000D03*
X174244000Y-68580000D03*
X174244000Y-70866000D03*
X174244000Y-73152000D03*
X174244000Y-75438000D03*
X174244000Y-77724000D03*
X174244000Y-80010000D03*
X174244000Y-82296000D03*
X166624000Y-83058000D03*
X169164000Y-84582000D03*
X171704000Y-83058000D03*
X174244000Y-84582000D03*
X176784000Y-83058000D03*
X176784000Y-80772000D03*
X176784000Y-78486000D03*
X176784000Y-76200000D03*
X176784000Y-73914000D03*
X176784000Y-71628000D03*
X176784000Y-69342000D03*
X179324000Y-68580000D03*
X179324000Y-70866000D03*
X179324000Y-73152000D03*
X179324000Y-75438000D03*
X179324000Y-77724000D03*
X179324000Y-80010000D03*
X179324000Y-82296000D03*
X179324000Y-84582000D03*
X192214500Y-80454500D03*
X192214500Y-78168500D03*
X194564000Y-77470000D03*
X181864000Y-83058000D03*
X181864000Y-80772000D03*
X181864000Y-76200000D03*
X181864000Y-73914000D03*
X181864000Y-71628000D03*
X194564000Y-84328000D03*
X197104000Y-83058000D03*
X197104000Y-80772000D03*
X192024000Y-83058000D03*
X197104000Y-78486000D03*
X197104000Y-76200000D03*
X197104000Y-73914000D03*
X197104000Y-71628000D03*
X194564000Y-75184000D03*
X194564000Y-72898000D03*
X192024000Y-76200000D03*
X192024000Y-73914000D03*
X194564000Y-70612000D03*
X192024000Y-71628000D03*
X181864000Y-69342000D03*
X197104000Y-69342000D03*
X194564000Y-68326000D03*
X192024000Y-69342000D03*
X189484000Y-84582000D03*
X194564000Y-82042000D03*
X181864000Y-78486000D03*
X194564000Y-79756000D03*
X189484000Y-75184000D03*
X189484000Y-72898000D03*
X189484000Y-70612000D03*
X189484000Y-68326000D03*
X186944000Y-83058000D03*
X186944000Y-80772000D03*
X186944000Y-78486000D03*
X186944000Y-76200000D03*
X186944000Y-73914000D03*
X186944000Y-71628000D03*
X186944000Y-69342000D03*
X184404000Y-84582000D03*
X184404000Y-82296000D03*
X184404000Y-80010000D03*
X184404000Y-77470000D03*
X184404000Y-75184000D03*
X184404000Y-72898000D03*
X184404000Y-70612000D03*
X184404000Y-68326000D03*
X96774000Y-60960000D03*
X205049120Y-50479960D03*
X100330000Y-76708000D03*
X150622000Y-76708000D03*
X80391000Y-63627000D03*
X162206940Y-79964280D03*
X93218000Y-55372000D03*
X98044000Y-38608000D03*
X145288000Y-48260000D03*
X169164000Y-59436000D03*
X156527500Y-63500000D03*
X148399500Y-45974000D03*
X156464000Y-40449500D03*
X149225000Y-42608500D03*
D21*
X96774000Y-53086000D02*
X96774000Y-60960000D01*
D22*
X181203600Y-43002200D02*
X186550300Y-43002200D01*
X205046580Y-50482500D02*
X205049120Y-50479960D01*
X187375800Y-50482500D02*
X205046580Y-50482500D01*
X186994800Y-50101500D02*
X187375800Y-50482500D01*
X186994800Y-43446700D02*
X186994800Y-50101500D01*
X186550300Y-43002200D02*
X186994800Y-43446700D01*
X168203880Y-38501320D02*
X168487702Y-38501320D01*
X168487702Y-38501320D02*
X169484040Y-39497658D01*
X171203620Y-39138860D02*
X171203620Y-36499800D01*
X170844822Y-39497658D02*
X171203620Y-39138860D01*
X169484040Y-39497658D02*
X170844822Y-39497658D01*
X171203620Y-36499800D02*
X172453300Y-36499800D01*
X174454820Y-38501320D02*
X176204880Y-38501320D01*
X172453300Y-36499800D02*
X174454820Y-38501320D01*
D21*
X136144000Y-47117000D02*
X136144000Y-47053500D01*
X136144000Y-47053500D02*
X136461500Y-46736000D01*
X146812000Y-46736000D02*
X136461500Y-46736000D01*
X136461500Y-46736000D02*
X136144000Y-46418500D01*
X146812000Y-46736000D02*
X151892000Y-46736000D01*
X151892000Y-46736000D02*
X154432000Y-44196000D01*
D22*
X91694000Y-41148000D02*
X92710000Y-41148000D01*
X92710000Y-41148000D02*
X92964000Y-41402000D01*
X92964000Y-41402000D02*
X92964000Y-42164000D01*
X92964000Y-42164000D02*
X93218000Y-42418000D01*
X93218000Y-42418000D02*
X96520000Y-42418000D01*
X97028000Y-42418000D02*
X96774000Y-42672000D01*
X100330000Y-42418000D02*
X97028000Y-42418000D01*
X100584000Y-42164000D02*
X100330000Y-42418000D01*
X100584000Y-41402000D02*
X100584000Y-42164000D01*
X96520000Y-42418000D02*
X96774000Y-42672000D01*
X96774000Y-42672000D02*
X96774000Y-43688000D01*
X97790000Y-43688000D02*
X96774000Y-43688000D01*
X101854000Y-41148000D02*
X100838000Y-41148000D01*
X100838000Y-41148000D02*
X100584000Y-41402000D01*
X109474000Y-41148000D02*
X110490000Y-41148000D01*
X110490000Y-41148000D02*
X110744000Y-41402000D01*
X110744000Y-41402000D02*
X110744000Y-42164000D01*
X110744000Y-42164000D02*
X110998000Y-42418000D01*
X110998000Y-42418000D02*
X116840000Y-42418000D01*
X117348000Y-42418000D02*
X117094000Y-42672000D01*
X120650000Y-42418000D02*
X117348000Y-42418000D01*
X120904000Y-42164000D02*
X120650000Y-42418000D01*
X120904000Y-41402000D02*
X120904000Y-42164000D01*
X116840000Y-42418000D02*
X117094000Y-42672000D01*
X117094000Y-42672000D02*
X117094000Y-43688000D01*
X118110000Y-43688000D02*
X117094000Y-43688000D01*
X122174000Y-41148000D02*
X121158000Y-41148000D01*
X121158000Y-41148000D02*
X120904000Y-41402000D01*
X127254000Y-41148000D02*
X128270000Y-41148000D01*
X128270000Y-41148000D02*
X128524000Y-41402000D01*
X134874000Y-42672000D02*
X134874000Y-43688000D01*
X134620000Y-42418000D02*
X134874000Y-42672000D01*
X128778000Y-42418000D02*
X134620000Y-42418000D01*
X128524000Y-42164000D02*
X128778000Y-42418000D01*
X128524000Y-41402000D02*
X128524000Y-42164000D01*
X134874000Y-43688000D02*
X135890000Y-43688000D01*
X136144000Y-43942000D02*
X136144000Y-46418500D01*
X135890000Y-43688000D02*
X136144000Y-43942000D01*
X136144000Y-46418500D02*
X136144000Y-47117000D01*
X136144000Y-47117000D02*
X136144000Y-52832000D01*
X136144000Y-52832000D02*
X135890000Y-53086000D01*
X135890000Y-53086000D02*
X134874000Y-53086000D01*
X96774000Y-53086000D02*
X97790000Y-53086000D01*
X97790000Y-53086000D02*
X98044000Y-52832000D01*
X98044000Y-52832000D02*
X98044000Y-43942000D01*
X98044000Y-43942000D02*
X97790000Y-43688000D01*
X117094000Y-53086000D02*
X118110000Y-53086000D01*
X118110000Y-53086000D02*
X118364000Y-52832000D01*
X118364000Y-52832000D02*
X118364000Y-43942000D01*
X118364000Y-43942000D02*
X118110000Y-43688000D01*
D23*
X100330000Y-76708000D02*
X113792000Y-76708000D01*
X113792000Y-76708000D02*
X147066000Y-76708000D01*
X147066000Y-76708000D02*
X150622000Y-76708000D01*
D21*
X86614000Y-50546000D02*
X84772500Y-50546000D01*
X80391000Y-61858071D02*
X80391000Y-63627000D01*
X80843437Y-61341000D02*
X80391000Y-61858071D01*
X83693000Y-61341000D02*
X80843437Y-61341000D01*
X84201000Y-60833000D02*
X83693000Y-61341000D01*
X84201000Y-51117500D02*
X84201000Y-60833000D01*
X84772500Y-50546000D02*
X84201000Y-51117500D01*
D23*
X162206940Y-79964280D02*
X162214560Y-79971900D01*
X162214560Y-79971900D02*
X162214560Y-81645760D01*
X162214560Y-81645760D02*
X160731200Y-83129120D01*
X160731200Y-83129120D02*
X154330400Y-83129120D01*
X154330400Y-83129120D02*
X153289000Y-82087720D01*
X153289000Y-82087720D02*
X153289000Y-80010000D01*
D22*
X153352500Y-80073500D02*
X153289000Y-80010000D01*
X86614000Y-43688000D02*
X87630000Y-43688000D01*
X87630000Y-53086000D02*
X86614000Y-53086000D01*
X87884000Y-52832000D02*
X87630000Y-53086000D01*
X87884000Y-43942000D02*
X87884000Y-52832000D01*
X87630000Y-43688000D02*
X87884000Y-43942000D01*
D21*
X87122000Y-55372000D02*
X86614000Y-54864000D01*
X93218000Y-55372000D02*
X87122000Y-55372000D01*
X86614000Y-54864000D02*
X86614000Y-53213000D01*
D22*
X107950000Y-43688000D02*
X106934000Y-43688000D01*
X108204000Y-43942000D02*
X107950000Y-43688000D01*
X108204000Y-52832000D02*
X108204000Y-43942000D01*
X106934000Y-53086000D02*
X107950000Y-53086000D01*
X107950000Y-53086000D02*
X108204000Y-52832000D01*
D21*
X197620000Y-48260000D02*
X197620000Y-45720000D01*
X197620000Y-45720000D02*
X197620000Y-43180000D01*
X197620000Y-43180000D02*
X197620000Y-40640000D01*
X197620000Y-38100000D02*
X197620000Y-40640000D01*
D22*
X90170000Y-53086000D02*
X89154000Y-53086000D01*
X89154000Y-43688000D02*
X90170000Y-43688000D01*
X90170000Y-43688000D02*
X90424000Y-43942000D01*
X90424000Y-43942000D02*
X90424000Y-52832000D01*
X90424000Y-52832000D02*
X90170000Y-53086000D01*
X91694000Y-53086000D02*
X92710000Y-53086000D01*
X92710000Y-53086000D02*
X92964000Y-52832000D01*
X92710000Y-43688000D02*
X91694000Y-43688000D01*
X92964000Y-43942000D02*
X92710000Y-43688000D01*
X92964000Y-52832000D02*
X92964000Y-43942000D01*
D21*
X154432000Y-46736000D02*
X153416000Y-46736000D01*
X94234000Y-39116000D02*
X94234000Y-41148000D01*
X94742000Y-38608000D02*
X94234000Y-39116000D01*
X98044000Y-38608000D02*
X94742000Y-38608000D01*
X151892000Y-48260000D02*
X145288000Y-48260000D01*
X153416000Y-46736000D02*
X151892000Y-48260000D01*
X169164000Y-59944000D02*
X169926000Y-60706000D01*
X169926000Y-60706000D02*
X169672000Y-60706000D01*
X168656000Y-60452000D02*
X168656000Y-60706000D01*
X168402000Y-60706000D02*
X168656000Y-60452000D01*
X169164000Y-59944000D02*
X168402000Y-60706000D01*
X169164000Y-59436000D02*
X169164000Y-59944000D01*
X222076000Y-60706000D02*
X169672000Y-60706000D01*
X169672000Y-60706000D02*
X168656000Y-60706000D01*
X168656000Y-60706000D02*
X163322000Y-60706000D01*
X160528000Y-63500000D02*
X156527500Y-63500000D01*
X163322000Y-60706000D02*
X160528000Y-63500000D01*
X154432000Y-63500000D02*
X156527500Y-63500000D01*
D22*
X168465500Y-34925000D02*
X169672000Y-34925000D01*
X74422000Y-50546000D02*
X72009000Y-50546000D01*
X168656000Y-34925000D02*
X169204640Y-35473640D01*
X72136000Y-34925000D02*
X168465500Y-34925000D01*
X168465500Y-34925000D02*
X168656000Y-34925000D01*
X71501000Y-35560000D02*
X72136000Y-34925000D01*
X71501000Y-50038000D02*
X71501000Y-35560000D01*
X72009000Y-50546000D02*
X71501000Y-50038000D01*
X222076000Y-55626000D02*
X225425000Y-55626000D01*
X225425000Y-55626000D02*
X226123500Y-54927500D01*
X226123500Y-54927500D02*
X226123500Y-35877500D01*
X226123500Y-35877500D02*
X225171000Y-34925000D01*
X225171000Y-34925000D02*
X169672000Y-34925000D01*
X169204640Y-35392360D02*
X169204640Y-35473640D01*
X169672000Y-34925000D02*
X169204640Y-35392360D01*
X169204640Y-35473640D02*
X169204640Y-36499800D01*
X222076000Y-50546000D02*
X224853500Y-50546000D01*
X224853500Y-50546000D02*
X225298000Y-50101500D01*
X225298000Y-50101500D02*
X225298000Y-36195000D01*
X225298000Y-36195000D02*
X224536000Y-35433000D01*
X224536000Y-35433000D02*
X170815000Y-35433000D01*
X170815000Y-35433000D02*
X170202860Y-36045140D01*
X170202860Y-36045140D02*
X170202860Y-38501320D01*
X172204380Y-38501320D02*
X172204380Y-39697660D01*
X150368000Y-42926000D02*
X148399500Y-44894500D01*
X155702000Y-42926000D02*
X150368000Y-42926000D01*
X158625540Y-40002460D02*
X155702000Y-42926000D01*
X171899580Y-40002460D02*
X158625540Y-40002460D01*
X172204380Y-39697660D02*
X171899580Y-40002460D01*
D21*
X146812000Y-44196000D02*
X147701000Y-44196000D01*
X147701000Y-44196000D02*
X148399500Y-44894500D01*
X148399500Y-44894500D02*
X148399500Y-45974000D01*
D22*
X146050000Y-44196000D02*
X146812000Y-44196000D01*
X148780500Y-41656000D02*
X149669500Y-41656000D01*
X149606000Y-41656000D02*
X149606000Y-41719500D01*
X149669500Y-41656000D02*
X149606000Y-41656000D01*
X156464000Y-40449500D02*
X150876000Y-40449500D01*
X150876000Y-40449500D02*
X149606000Y-41719500D01*
X149606000Y-41719500D02*
X149225000Y-42100500D01*
D21*
X146812000Y-41656000D02*
X148780500Y-41656000D01*
X148780500Y-41656000D02*
X149225000Y-42100500D01*
X149225000Y-42100500D02*
X149225000Y-42608500D01*
D22*
X178203860Y-38501320D02*
X178203860Y-39773860D01*
X188658500Y-45720000D02*
X190000000Y-45720000D01*
X188404500Y-45466000D02*
X188658500Y-45720000D01*
X188404500Y-40386000D02*
X188404500Y-45466000D01*
X188023500Y-40005000D02*
X188404500Y-40386000D01*
X178435000Y-40005000D02*
X188023500Y-40005000D01*
X178203860Y-39773860D02*
X178435000Y-40005000D01*
X95250000Y-53086000D02*
X94234000Y-53086000D01*
X95504000Y-52832000D02*
X95250000Y-53086000D01*
X95504000Y-43942000D02*
X95504000Y-52832000D01*
X94234000Y-43688000D02*
X95250000Y-43688000D01*
X95250000Y-43688000D02*
X95504000Y-43942000D01*
X100330000Y-53086000D02*
X99314000Y-53086000D01*
X100584000Y-52832000D02*
X100330000Y-53086000D01*
X100584000Y-52578000D02*
X100584000Y-52832000D01*
X100584000Y-43942000D02*
X100584000Y-52578000D01*
X99314000Y-43688000D02*
X100330000Y-43688000D01*
X100330000Y-43688000D02*
X100584000Y-43942000D01*
X101854000Y-53086000D02*
X102870000Y-53086000D01*
X102870000Y-53086000D02*
X103124000Y-52832000D01*
X102870000Y-43688000D02*
X101854000Y-43688000D01*
X103124000Y-43942000D02*
X102870000Y-43688000D01*
X103124000Y-52832000D02*
X103124000Y-43942000D01*
X105410000Y-53086000D02*
X104394000Y-53086000D01*
X105664000Y-52832000D02*
X105410000Y-53086000D01*
X105664000Y-43942000D02*
X105664000Y-52832000D01*
X104394000Y-43688000D02*
X105410000Y-43688000D01*
X105410000Y-43688000D02*
X105664000Y-43942000D01*
X110490000Y-53086000D02*
X109474000Y-53086000D01*
X110744000Y-52832000D02*
X110490000Y-53086000D01*
X110744000Y-43942000D02*
X110744000Y-52832000D01*
X109474000Y-43688000D02*
X110490000Y-43688000D01*
X110490000Y-43688000D02*
X110744000Y-43942000D01*
X112014000Y-53086000D02*
X113030000Y-53086000D01*
X113030000Y-53086000D02*
X113284000Y-52832000D01*
X113030000Y-43688000D02*
X112014000Y-43688000D01*
X113284000Y-43942000D02*
X113030000Y-43688000D01*
X113284000Y-52832000D02*
X113284000Y-43942000D01*
X115570000Y-53086000D02*
X114554000Y-53086000D01*
X115824000Y-52832000D02*
X115570000Y-53086000D01*
X115824000Y-43942000D02*
X115824000Y-52832000D01*
X114554000Y-43688000D02*
X115570000Y-43688000D01*
X115570000Y-43688000D02*
X115824000Y-43942000D01*
X120650000Y-53086000D02*
X119634000Y-53086000D01*
X120904000Y-52832000D02*
X120650000Y-53086000D01*
X120904000Y-43942000D02*
X120904000Y-52832000D01*
X119634000Y-43688000D02*
X120650000Y-43688000D01*
X120650000Y-43688000D02*
X120904000Y-43942000D01*
X122174000Y-53086000D02*
X123190000Y-53086000D01*
X123190000Y-53086000D02*
X123444000Y-52832000D01*
X123190000Y-43688000D02*
X122174000Y-43688000D01*
X123444000Y-43942000D02*
X123190000Y-43688000D01*
X123444000Y-52832000D02*
X123444000Y-43942000D01*
X125730000Y-53086000D02*
X124714000Y-53086000D01*
X125984000Y-52832000D02*
X125730000Y-53086000D01*
X125984000Y-43942000D02*
X125984000Y-52832000D01*
X124714000Y-43688000D02*
X125730000Y-43688000D01*
X125730000Y-43688000D02*
X125984000Y-43942000D01*
X127254000Y-53086000D02*
X128270000Y-53086000D01*
X128270000Y-53086000D02*
X128524000Y-52832000D01*
X128270000Y-43688000D02*
X127254000Y-43688000D01*
X128524000Y-43942000D02*
X128270000Y-43688000D01*
X128524000Y-52832000D02*
X128524000Y-43942000D01*
X130810000Y-53086000D02*
X129794000Y-53086000D01*
X131064000Y-52832000D02*
X130810000Y-53086000D01*
X131064000Y-43942000D02*
X131064000Y-52832000D01*
X129794000Y-43688000D02*
X130810000Y-43688000D01*
X130810000Y-43688000D02*
X131064000Y-43942000D01*
X132334000Y-53086000D02*
X133350000Y-53086000D01*
X133350000Y-53086000D02*
X133604000Y-52832000D01*
X133350000Y-43688000D02*
X132334000Y-43688000D01*
X133604000Y-43942000D02*
X133350000Y-43688000D01*
X133604000Y-52832000D02*
X133604000Y-43942000D01*
D24*
G36*
X214884000Y-85979000D02*
X164338000Y-85979000D01*
X164338000Y-84767167D01*
X168228838Y-84767167D01*
X168370883Y-85110943D01*
X168633673Y-85374192D01*
X168977201Y-85516838D01*
X169349167Y-85517162D01*
X169692943Y-85375117D01*
X169956192Y-85112327D01*
X170098838Y-84768799D01*
X170098839Y-84767167D01*
X173308838Y-84767167D01*
X173450883Y-85110943D01*
X173713673Y-85374192D01*
X174057201Y-85516838D01*
X174429167Y-85517162D01*
X174772943Y-85375117D01*
X175036192Y-85112327D01*
X175178838Y-84768799D01*
X175178839Y-84767167D01*
X178388838Y-84767167D01*
X178530883Y-85110943D01*
X178793673Y-85374192D01*
X179137201Y-85516838D01*
X179509167Y-85517162D01*
X179852943Y-85375117D01*
X180116192Y-85112327D01*
X180258838Y-84768799D01*
X180258839Y-84767167D01*
X183468838Y-84767167D01*
X183610883Y-85110943D01*
X183873673Y-85374192D01*
X184217201Y-85516838D01*
X184589167Y-85517162D01*
X184932943Y-85375117D01*
X185196192Y-85112327D01*
X185338838Y-84768799D01*
X185338839Y-84767167D01*
X188548838Y-84767167D01*
X188690883Y-85110943D01*
X188953673Y-85374192D01*
X189297201Y-85516838D01*
X189669167Y-85517162D01*
X190012943Y-85375117D01*
X190276192Y-85112327D01*
X190418838Y-84768799D01*
X190419060Y-84513167D01*
X193628838Y-84513167D01*
X193770883Y-84856943D01*
X194033673Y-85120192D01*
X194377201Y-85262838D01*
X194749167Y-85263162D01*
X195092943Y-85121117D01*
X195356192Y-84858327D01*
X195498838Y-84514799D01*
X195498839Y-84513167D01*
X198708838Y-84513167D01*
X198850883Y-84856943D01*
X199113673Y-85120192D01*
X199457201Y-85262838D01*
X199829167Y-85263162D01*
X200172943Y-85121117D01*
X200436192Y-84858327D01*
X200578838Y-84514799D01*
X200578839Y-84513167D01*
X203788838Y-84513167D01*
X203930883Y-84856943D01*
X204193673Y-85120192D01*
X204537201Y-85262838D01*
X204909167Y-85263162D01*
X205252943Y-85121117D01*
X205516192Y-84858327D01*
X205658838Y-84514799D01*
X205658839Y-84513167D01*
X208868838Y-84513167D01*
X209010883Y-84856943D01*
X209273673Y-85120192D01*
X209617201Y-85262838D01*
X209989167Y-85263162D01*
X210332943Y-85121117D01*
X210596192Y-84858327D01*
X210738838Y-84514799D01*
X210739162Y-84142833D01*
X210597117Y-83799057D01*
X210334327Y-83535808D01*
X209990799Y-83393162D01*
X209618833Y-83392838D01*
X209275057Y-83534883D01*
X209011808Y-83797673D01*
X208869162Y-84141201D01*
X208868838Y-84513167D01*
X205658839Y-84513167D01*
X205659162Y-84142833D01*
X205517117Y-83799057D01*
X205254327Y-83535808D01*
X204910799Y-83393162D01*
X204538833Y-83392838D01*
X204195057Y-83534883D01*
X203931808Y-83797673D01*
X203789162Y-84141201D01*
X203788838Y-84513167D01*
X200578839Y-84513167D01*
X200579162Y-84142833D01*
X200437117Y-83799057D01*
X200174327Y-83535808D01*
X199830799Y-83393162D01*
X199458833Y-83392838D01*
X199115057Y-83534883D01*
X198851808Y-83797673D01*
X198709162Y-84141201D01*
X198708838Y-84513167D01*
X195498839Y-84513167D01*
X195499162Y-84142833D01*
X195357117Y-83799057D01*
X195094327Y-83535808D01*
X194750799Y-83393162D01*
X194378833Y-83392838D01*
X194035057Y-83534883D01*
X193771808Y-83797673D01*
X193629162Y-84141201D01*
X193628838Y-84513167D01*
X190419060Y-84513167D01*
X190419162Y-84396833D01*
X190277117Y-84053057D01*
X190014327Y-83789808D01*
X189670799Y-83647162D01*
X189298833Y-83646838D01*
X188955057Y-83788883D01*
X188691808Y-84051673D01*
X188549162Y-84395201D01*
X188548838Y-84767167D01*
X185338839Y-84767167D01*
X185339162Y-84396833D01*
X185197117Y-84053057D01*
X184934327Y-83789808D01*
X184590799Y-83647162D01*
X184218833Y-83646838D01*
X183875057Y-83788883D01*
X183611808Y-84051673D01*
X183469162Y-84395201D01*
X183468838Y-84767167D01*
X180258839Y-84767167D01*
X180259162Y-84396833D01*
X180117117Y-84053057D01*
X179854327Y-83789808D01*
X179510799Y-83647162D01*
X179138833Y-83646838D01*
X178795057Y-83788883D01*
X178531808Y-84051673D01*
X178389162Y-84395201D01*
X178388838Y-84767167D01*
X175178839Y-84767167D01*
X175179162Y-84396833D01*
X175037117Y-84053057D01*
X174774327Y-83789808D01*
X174430799Y-83647162D01*
X174058833Y-83646838D01*
X173715057Y-83788883D01*
X173451808Y-84051673D01*
X173309162Y-84395201D01*
X173308838Y-84767167D01*
X170098839Y-84767167D01*
X170099162Y-84396833D01*
X169957117Y-84053057D01*
X169694327Y-83789808D01*
X169350799Y-83647162D01*
X168978833Y-83646838D01*
X168635057Y-83788883D01*
X168371808Y-84051673D01*
X168229162Y-84395201D01*
X168228838Y-84767167D01*
X164338000Y-84767167D01*
X164338000Y-83243167D01*
X165688838Y-83243167D01*
X165830883Y-83586943D01*
X166093673Y-83850192D01*
X166437201Y-83992838D01*
X166809167Y-83993162D01*
X167152943Y-83851117D01*
X167416192Y-83588327D01*
X167558838Y-83244799D01*
X167558839Y-83243167D01*
X170768838Y-83243167D01*
X170910883Y-83586943D01*
X171173673Y-83850192D01*
X171517201Y-83992838D01*
X171889167Y-83993162D01*
X172232943Y-83851117D01*
X172496192Y-83588327D01*
X172638838Y-83244799D01*
X172638839Y-83243167D01*
X175848838Y-83243167D01*
X175990883Y-83586943D01*
X176253673Y-83850192D01*
X176597201Y-83992838D01*
X176969167Y-83993162D01*
X177312943Y-83851117D01*
X177576192Y-83588327D01*
X177718838Y-83244799D01*
X177718839Y-83243167D01*
X180928838Y-83243167D01*
X181070883Y-83586943D01*
X181333673Y-83850192D01*
X181677201Y-83992838D01*
X182049167Y-83993162D01*
X182392943Y-83851117D01*
X182656192Y-83588327D01*
X182798838Y-83244799D01*
X182798839Y-83243167D01*
X186008838Y-83243167D01*
X186150883Y-83586943D01*
X186413673Y-83850192D01*
X186757201Y-83992838D01*
X187129167Y-83993162D01*
X187472943Y-83851117D01*
X187736192Y-83588327D01*
X187878838Y-83244799D01*
X187878839Y-83243167D01*
X191088838Y-83243167D01*
X191230883Y-83586943D01*
X191493673Y-83850192D01*
X191837201Y-83992838D01*
X192209167Y-83993162D01*
X192552943Y-83851117D01*
X192816192Y-83588327D01*
X192958838Y-83244799D01*
X192958839Y-83243167D01*
X196168838Y-83243167D01*
X196310883Y-83586943D01*
X196573673Y-83850192D01*
X196917201Y-83992838D01*
X197289167Y-83993162D01*
X197632943Y-83851117D01*
X197896192Y-83588327D01*
X198038838Y-83244799D01*
X198038839Y-83243167D01*
X201248838Y-83243167D01*
X201390883Y-83586943D01*
X201653673Y-83850192D01*
X201997201Y-83992838D01*
X202369167Y-83993162D01*
X202712943Y-83851117D01*
X202976192Y-83588327D01*
X203118838Y-83244799D01*
X203118839Y-83243167D01*
X206328838Y-83243167D01*
X206470883Y-83586943D01*
X206733673Y-83850192D01*
X207077201Y-83992838D01*
X207449167Y-83993162D01*
X207792943Y-83851117D01*
X208056192Y-83588327D01*
X208198838Y-83244799D01*
X208198839Y-83243167D01*
X211408838Y-83243167D01*
X211550883Y-83586943D01*
X211813673Y-83850192D01*
X212157201Y-83992838D01*
X212529167Y-83993162D01*
X212872943Y-83851117D01*
X213136192Y-83588327D01*
X213278838Y-83244799D01*
X213279162Y-82872833D01*
X213137117Y-82529057D01*
X212874327Y-82265808D01*
X212530799Y-82123162D01*
X212158833Y-82122838D01*
X211815057Y-82264883D01*
X211551808Y-82527673D01*
X211409162Y-82871201D01*
X211408838Y-83243167D01*
X208198839Y-83243167D01*
X208199162Y-82872833D01*
X208057117Y-82529057D01*
X207794327Y-82265808D01*
X207701270Y-82227167D01*
X208868838Y-82227167D01*
X209010883Y-82570943D01*
X209273673Y-82834192D01*
X209617201Y-82976838D01*
X209989167Y-82977162D01*
X210332943Y-82835117D01*
X210596192Y-82572327D01*
X210738838Y-82228799D01*
X210739162Y-81856833D01*
X210597117Y-81513057D01*
X210334327Y-81249808D01*
X209990799Y-81107162D01*
X209618833Y-81106838D01*
X209275057Y-81248883D01*
X209011808Y-81511673D01*
X208869162Y-81855201D01*
X208868838Y-82227167D01*
X207701270Y-82227167D01*
X207450799Y-82123162D01*
X207078833Y-82122838D01*
X206735057Y-82264883D01*
X206471808Y-82527673D01*
X206329162Y-82871201D01*
X206328838Y-83243167D01*
X203118839Y-83243167D01*
X203119162Y-82872833D01*
X202977117Y-82529057D01*
X202714327Y-82265808D01*
X202621270Y-82227167D01*
X203788838Y-82227167D01*
X203930883Y-82570943D01*
X204193673Y-82834192D01*
X204537201Y-82976838D01*
X204909167Y-82977162D01*
X205252943Y-82835117D01*
X205516192Y-82572327D01*
X205658838Y-82228799D01*
X205659162Y-81856833D01*
X205517117Y-81513057D01*
X205254327Y-81249808D01*
X204910799Y-81107162D01*
X204538833Y-81106838D01*
X204195057Y-81248883D01*
X203931808Y-81511673D01*
X203789162Y-81855201D01*
X203788838Y-82227167D01*
X202621270Y-82227167D01*
X202370799Y-82123162D01*
X201998833Y-82122838D01*
X201655057Y-82264883D01*
X201391808Y-82527673D01*
X201249162Y-82871201D01*
X201248838Y-83243167D01*
X198038839Y-83243167D01*
X198039162Y-82872833D01*
X197897117Y-82529057D01*
X197634327Y-82265808D01*
X197541270Y-82227167D01*
X198708838Y-82227167D01*
X198850883Y-82570943D01*
X199113673Y-82834192D01*
X199457201Y-82976838D01*
X199829167Y-82977162D01*
X200172943Y-82835117D01*
X200436192Y-82572327D01*
X200578838Y-82228799D01*
X200579162Y-81856833D01*
X200437117Y-81513057D01*
X200174327Y-81249808D01*
X199830799Y-81107162D01*
X199458833Y-81106838D01*
X199115057Y-81248883D01*
X198851808Y-81511673D01*
X198709162Y-81855201D01*
X198708838Y-82227167D01*
X197541270Y-82227167D01*
X197290799Y-82123162D01*
X196918833Y-82122838D01*
X196575057Y-82264883D01*
X196311808Y-82527673D01*
X196169162Y-82871201D01*
X196168838Y-83243167D01*
X192958839Y-83243167D01*
X192959162Y-82872833D01*
X192817117Y-82529057D01*
X192554327Y-82265808D01*
X192461270Y-82227167D01*
X193628838Y-82227167D01*
X193770883Y-82570943D01*
X194033673Y-82834192D01*
X194377201Y-82976838D01*
X194749167Y-82977162D01*
X195092943Y-82835117D01*
X195356192Y-82572327D01*
X195498838Y-82228799D01*
X195499162Y-81856833D01*
X195357117Y-81513057D01*
X195094327Y-81249808D01*
X194750799Y-81107162D01*
X194378833Y-81106838D01*
X194035057Y-81248883D01*
X193771808Y-81511673D01*
X193629162Y-81855201D01*
X193628838Y-82227167D01*
X192461270Y-82227167D01*
X192210799Y-82123162D01*
X191838833Y-82122838D01*
X191495057Y-82264883D01*
X191231808Y-82527673D01*
X191089162Y-82871201D01*
X191088838Y-83243167D01*
X187878839Y-83243167D01*
X187879162Y-82872833D01*
X187737117Y-82529057D01*
X187474327Y-82265808D01*
X187130799Y-82123162D01*
X186758833Y-82122838D01*
X186415057Y-82264883D01*
X186151808Y-82527673D01*
X186009162Y-82871201D01*
X186008838Y-83243167D01*
X182798839Y-83243167D01*
X182799162Y-82872833D01*
X182657117Y-82529057D01*
X182609311Y-82481167D01*
X183468838Y-82481167D01*
X183610883Y-82824943D01*
X183873673Y-83088192D01*
X184217201Y-83230838D01*
X184589167Y-83231162D01*
X184932943Y-83089117D01*
X185196192Y-82826327D01*
X185338838Y-82482799D01*
X185339162Y-82110833D01*
X185197117Y-81767057D01*
X184934327Y-81503808D01*
X184590799Y-81361162D01*
X184218833Y-81360838D01*
X183875057Y-81502883D01*
X183611808Y-81765673D01*
X183469162Y-82109201D01*
X183468838Y-82481167D01*
X182609311Y-82481167D01*
X182394327Y-82265808D01*
X182050799Y-82123162D01*
X181678833Y-82122838D01*
X181335057Y-82264883D01*
X181071808Y-82527673D01*
X180929162Y-82871201D01*
X180928838Y-83243167D01*
X177718839Y-83243167D01*
X177719162Y-82872833D01*
X177577117Y-82529057D01*
X177529311Y-82481167D01*
X178388838Y-82481167D01*
X178530883Y-82824943D01*
X178793673Y-83088192D01*
X179137201Y-83230838D01*
X179509167Y-83231162D01*
X179852943Y-83089117D01*
X180116192Y-82826327D01*
X180258838Y-82482799D01*
X180259162Y-82110833D01*
X180117117Y-81767057D01*
X179854327Y-81503808D01*
X179510799Y-81361162D01*
X179138833Y-81360838D01*
X178795057Y-81502883D01*
X178531808Y-81765673D01*
X178389162Y-82109201D01*
X178388838Y-82481167D01*
X177529311Y-82481167D01*
X177314327Y-82265808D01*
X176970799Y-82123162D01*
X176598833Y-82122838D01*
X176255057Y-82264883D01*
X175991808Y-82527673D01*
X175849162Y-82871201D01*
X175848838Y-83243167D01*
X172638839Y-83243167D01*
X172639162Y-82872833D01*
X172497117Y-82529057D01*
X172449311Y-82481167D01*
X173308838Y-82481167D01*
X173450883Y-82824943D01*
X173713673Y-83088192D01*
X174057201Y-83230838D01*
X174429167Y-83231162D01*
X174772943Y-83089117D01*
X175036192Y-82826327D01*
X175178838Y-82482799D01*
X175179162Y-82110833D01*
X175037117Y-81767057D01*
X174774327Y-81503808D01*
X174430799Y-81361162D01*
X174058833Y-81360838D01*
X173715057Y-81502883D01*
X173451808Y-81765673D01*
X173309162Y-82109201D01*
X173308838Y-82481167D01*
X172449311Y-82481167D01*
X172234327Y-82265808D01*
X171890799Y-82123162D01*
X171518833Y-82122838D01*
X171175057Y-82264883D01*
X170911808Y-82527673D01*
X170769162Y-82871201D01*
X170768838Y-83243167D01*
X167558839Y-83243167D01*
X167559162Y-82872833D01*
X167417117Y-82529057D01*
X167369311Y-82481167D01*
X168228838Y-82481167D01*
X168370883Y-82824943D01*
X168633673Y-83088192D01*
X168977201Y-83230838D01*
X169349167Y-83231162D01*
X169692943Y-83089117D01*
X169956192Y-82826327D01*
X170098838Y-82482799D01*
X170099162Y-82110833D01*
X169957117Y-81767057D01*
X169694327Y-81503808D01*
X169350799Y-81361162D01*
X168978833Y-81360838D01*
X168635057Y-81502883D01*
X168371808Y-81765673D01*
X168229162Y-82109201D01*
X168228838Y-82481167D01*
X167369311Y-82481167D01*
X167154327Y-82265808D01*
X166810799Y-82123162D01*
X166438833Y-82122838D01*
X166095057Y-82264883D01*
X165831808Y-82527673D01*
X165689162Y-82871201D01*
X165688838Y-83243167D01*
X164338000Y-83243167D01*
X164338000Y-80957167D01*
X165688838Y-80957167D01*
X165830883Y-81300943D01*
X166093673Y-81564192D01*
X166437201Y-81706838D01*
X166809167Y-81707162D01*
X167152943Y-81565117D01*
X167416192Y-81302327D01*
X167558838Y-80958799D01*
X167558839Y-80957167D01*
X170768838Y-80957167D01*
X170910883Y-81300943D01*
X171173673Y-81564192D01*
X171517201Y-81706838D01*
X171889167Y-81707162D01*
X172232943Y-81565117D01*
X172496192Y-81302327D01*
X172638838Y-80958799D01*
X172638839Y-80957167D01*
X175848838Y-80957167D01*
X175990883Y-81300943D01*
X176253673Y-81564192D01*
X176597201Y-81706838D01*
X176969167Y-81707162D01*
X177312943Y-81565117D01*
X177576192Y-81302327D01*
X177718838Y-80958799D01*
X177718839Y-80957167D01*
X180928838Y-80957167D01*
X181070883Y-81300943D01*
X181333673Y-81564192D01*
X181677201Y-81706838D01*
X182049167Y-81707162D01*
X182392943Y-81565117D01*
X182656192Y-81302327D01*
X182798838Y-80958799D01*
X182799162Y-80586833D01*
X182657117Y-80243057D01*
X182609311Y-80195167D01*
X183468838Y-80195167D01*
X183610883Y-80538943D01*
X183873673Y-80802192D01*
X184217201Y-80944838D01*
X184589167Y-80945162D01*
X184932943Y-80803117D01*
X185196192Y-80540327D01*
X185338838Y-80196799D01*
X185339162Y-79824833D01*
X185197117Y-79481057D01*
X184934327Y-79217808D01*
X184590799Y-79075162D01*
X184218833Y-79074838D01*
X183875057Y-79216883D01*
X183611808Y-79479673D01*
X183469162Y-79823201D01*
X183468838Y-80195167D01*
X182609311Y-80195167D01*
X182394327Y-79979808D01*
X182050799Y-79837162D01*
X181678833Y-79836838D01*
X181335057Y-79978883D01*
X181071808Y-80241673D01*
X180929162Y-80585201D01*
X180928838Y-80957167D01*
X177718839Y-80957167D01*
X177719162Y-80586833D01*
X177577117Y-80243057D01*
X177529311Y-80195167D01*
X178388838Y-80195167D01*
X178530883Y-80538943D01*
X178793673Y-80802192D01*
X179137201Y-80944838D01*
X179509167Y-80945162D01*
X179852943Y-80803117D01*
X180116192Y-80540327D01*
X180258838Y-80196799D01*
X180259162Y-79824833D01*
X180117117Y-79481057D01*
X179854327Y-79217808D01*
X179510799Y-79075162D01*
X179138833Y-79074838D01*
X178795057Y-79216883D01*
X178531808Y-79479673D01*
X178389162Y-79823201D01*
X178388838Y-80195167D01*
X177529311Y-80195167D01*
X177314327Y-79979808D01*
X176970799Y-79837162D01*
X176598833Y-79836838D01*
X176255057Y-79978883D01*
X175991808Y-80241673D01*
X175849162Y-80585201D01*
X175848838Y-80957167D01*
X172638839Y-80957167D01*
X172639162Y-80586833D01*
X172497117Y-80243057D01*
X172449311Y-80195167D01*
X173308838Y-80195167D01*
X173450883Y-80538943D01*
X173713673Y-80802192D01*
X174057201Y-80944838D01*
X174429167Y-80945162D01*
X174772943Y-80803117D01*
X175036192Y-80540327D01*
X175178838Y-80196799D01*
X175179162Y-79824833D01*
X175037117Y-79481057D01*
X174774327Y-79217808D01*
X174430799Y-79075162D01*
X174058833Y-79074838D01*
X173715057Y-79216883D01*
X173451808Y-79479673D01*
X173309162Y-79823201D01*
X173308838Y-80195167D01*
X172449311Y-80195167D01*
X172234327Y-79979808D01*
X171890799Y-79837162D01*
X171518833Y-79836838D01*
X171175057Y-79978883D01*
X170911808Y-80241673D01*
X170769162Y-80585201D01*
X170768838Y-80957167D01*
X167558839Y-80957167D01*
X167559162Y-80586833D01*
X167417117Y-80243057D01*
X167369311Y-80195167D01*
X168228838Y-80195167D01*
X168370883Y-80538943D01*
X168633673Y-80802192D01*
X168977201Y-80944838D01*
X169349167Y-80945162D01*
X169692943Y-80803117D01*
X169956192Y-80540327D01*
X170098838Y-80196799D01*
X170099162Y-79824833D01*
X169957117Y-79481057D01*
X169694327Y-79217808D01*
X169350799Y-79075162D01*
X168978833Y-79074838D01*
X168635057Y-79216883D01*
X168371808Y-79479673D01*
X168229162Y-79823201D01*
X168228838Y-80195167D01*
X167369311Y-80195167D01*
X167154327Y-79979808D01*
X166810799Y-79837162D01*
X166438833Y-79836838D01*
X166095057Y-79978883D01*
X165831808Y-80241673D01*
X165689162Y-80585201D01*
X165688838Y-80957167D01*
X164338000Y-80957167D01*
X164338000Y-78671167D01*
X165688838Y-78671167D01*
X165830883Y-79014943D01*
X166093673Y-79278192D01*
X166437201Y-79420838D01*
X166809167Y-79421162D01*
X167152943Y-79279117D01*
X167416192Y-79016327D01*
X167558838Y-78672799D01*
X167558839Y-78671167D01*
X170768838Y-78671167D01*
X170910883Y-79014943D01*
X171173673Y-79278192D01*
X171517201Y-79420838D01*
X171889167Y-79421162D01*
X172232943Y-79279117D01*
X172496192Y-79016327D01*
X172638838Y-78672799D01*
X172638839Y-78671167D01*
X175848838Y-78671167D01*
X175990883Y-79014943D01*
X176253673Y-79278192D01*
X176597201Y-79420838D01*
X176969167Y-79421162D01*
X177312943Y-79279117D01*
X177576192Y-79016327D01*
X177718838Y-78672799D01*
X177718839Y-78671167D01*
X180928838Y-78671167D01*
X181070883Y-79014943D01*
X181333673Y-79278192D01*
X181677201Y-79420838D01*
X182049167Y-79421162D01*
X182392943Y-79279117D01*
X182656192Y-79016327D01*
X182798838Y-78672799D01*
X182798839Y-78671167D01*
X186008838Y-78671167D01*
X186150883Y-79014943D01*
X186413673Y-79278192D01*
X186757201Y-79420838D01*
X187129167Y-79421162D01*
X187171033Y-79403864D01*
X187186905Y-79483659D01*
X187186583Y-79852870D01*
X187190302Y-79861870D01*
X187130799Y-79837162D01*
X186758833Y-79836838D01*
X186415057Y-79978883D01*
X186151808Y-80241673D01*
X186009162Y-80585201D01*
X186008838Y-80957167D01*
X186150883Y-81300943D01*
X186413673Y-81564192D01*
X186757201Y-81706838D01*
X187129167Y-81707162D01*
X187472943Y-81565117D01*
X187736192Y-81302327D01*
X187844104Y-81042446D01*
X187866825Y-81076450D01*
X187933300Y-81120867D01*
X188231361Y-81419449D01*
X188624431Y-81582666D01*
X188640575Y-81593453D01*
X188659452Y-81597208D01*
X189117919Y-81787580D01*
X190077870Y-81788417D01*
X190540709Y-81597176D01*
X190559425Y-81593453D01*
X190575153Y-81582944D01*
X190965069Y-81421834D01*
X191266282Y-81121147D01*
X191333175Y-81076450D01*
X191377481Y-81010141D01*
X191416373Y-80971317D01*
X191421383Y-80983443D01*
X191684173Y-81246692D01*
X192027701Y-81389338D01*
X192399667Y-81389662D01*
X192743443Y-81247617D01*
X193006692Y-80984827D01*
X193018177Y-80957167D01*
X196168838Y-80957167D01*
X196310883Y-81300943D01*
X196573673Y-81564192D01*
X196917201Y-81706838D01*
X197289167Y-81707162D01*
X197632943Y-81565117D01*
X197896192Y-81302327D01*
X198038838Y-80958799D01*
X198038839Y-80957167D01*
X201248838Y-80957167D01*
X201390883Y-81300943D01*
X201653673Y-81564192D01*
X201997201Y-81706838D01*
X202369167Y-81707162D01*
X202712943Y-81565117D01*
X202976192Y-81302327D01*
X203118838Y-80958799D01*
X203118839Y-80957167D01*
X206328838Y-80957167D01*
X206470883Y-81300943D01*
X206733673Y-81564192D01*
X207077201Y-81706838D01*
X207449167Y-81707162D01*
X207792943Y-81565117D01*
X208056192Y-81302327D01*
X208198838Y-80958799D01*
X208198839Y-80957167D01*
X211408838Y-80957167D01*
X211550883Y-81300943D01*
X211813673Y-81564192D01*
X212157201Y-81706838D01*
X212529167Y-81707162D01*
X212872943Y-81565117D01*
X213136192Y-81302327D01*
X213278838Y-80958799D01*
X213279162Y-80586833D01*
X213137117Y-80243057D01*
X212874327Y-79979808D01*
X212530799Y-79837162D01*
X212158833Y-79836838D01*
X211815057Y-79978883D01*
X211551808Y-80241673D01*
X211409162Y-80585201D01*
X211408838Y-80957167D01*
X208198839Y-80957167D01*
X208199162Y-80586833D01*
X208057117Y-80243057D01*
X207794327Y-79979808D01*
X207701270Y-79941167D01*
X208868838Y-79941167D01*
X209010883Y-80284943D01*
X209273673Y-80548192D01*
X209617201Y-80690838D01*
X209989167Y-80691162D01*
X210332943Y-80549117D01*
X210596192Y-80286327D01*
X210738838Y-79942799D01*
X210739162Y-79570833D01*
X210597117Y-79227057D01*
X210334327Y-78963808D01*
X209990799Y-78821162D01*
X209618833Y-78820838D01*
X209275057Y-78962883D01*
X209011808Y-79225673D01*
X208869162Y-79569201D01*
X208868838Y-79941167D01*
X207701270Y-79941167D01*
X207450799Y-79837162D01*
X207078833Y-79836838D01*
X206735057Y-79978883D01*
X206471808Y-80241673D01*
X206329162Y-80585201D01*
X206328838Y-80957167D01*
X203118839Y-80957167D01*
X203119162Y-80586833D01*
X202977117Y-80243057D01*
X202714327Y-79979808D01*
X202621270Y-79941167D01*
X203788838Y-79941167D01*
X203930883Y-80284943D01*
X204193673Y-80548192D01*
X204537201Y-80690838D01*
X204909167Y-80691162D01*
X205252943Y-80549117D01*
X205516192Y-80286327D01*
X205658838Y-79942799D01*
X205659162Y-79570833D01*
X205517117Y-79227057D01*
X205254327Y-78963808D01*
X204910799Y-78821162D01*
X204538833Y-78820838D01*
X204195057Y-78962883D01*
X203931808Y-79225673D01*
X203789162Y-79569201D01*
X203788838Y-79941167D01*
X202621270Y-79941167D01*
X202370799Y-79837162D01*
X201998833Y-79836838D01*
X201655057Y-79978883D01*
X201391808Y-80241673D01*
X201249162Y-80585201D01*
X201248838Y-80957167D01*
X198038839Y-80957167D01*
X198039162Y-80586833D01*
X197897117Y-80243057D01*
X197634327Y-79979808D01*
X197541270Y-79941167D01*
X198708838Y-79941167D01*
X198850883Y-80284943D01*
X199113673Y-80548192D01*
X199457201Y-80690838D01*
X199829167Y-80691162D01*
X200172943Y-80549117D01*
X200436192Y-80286327D01*
X200578838Y-79942799D01*
X200579162Y-79570833D01*
X200437117Y-79227057D01*
X200174327Y-78963808D01*
X199830799Y-78821162D01*
X199458833Y-78820838D01*
X199115057Y-78962883D01*
X198851808Y-79225673D01*
X198709162Y-79569201D01*
X198708838Y-79941167D01*
X197541270Y-79941167D01*
X197290799Y-79837162D01*
X196918833Y-79836838D01*
X196575057Y-79978883D01*
X196311808Y-80241673D01*
X196169162Y-80585201D01*
X196168838Y-80957167D01*
X193018177Y-80957167D01*
X193149338Y-80641299D01*
X193149662Y-80269333D01*
X193014067Y-79941167D01*
X193628838Y-79941167D01*
X193770883Y-80284943D01*
X194033673Y-80548192D01*
X194377201Y-80690838D01*
X194749167Y-80691162D01*
X195092943Y-80549117D01*
X195356192Y-80286327D01*
X195498838Y-79942799D01*
X195499162Y-79570833D01*
X195357117Y-79227057D01*
X195094327Y-78963808D01*
X194750799Y-78821162D01*
X194378833Y-78820838D01*
X194035057Y-78962883D01*
X193771808Y-79225673D01*
X193629162Y-79569201D01*
X193628838Y-79941167D01*
X193014067Y-79941167D01*
X193007617Y-79925557D01*
X192744827Y-79662308D01*
X192401299Y-79519662D01*
X192029333Y-79519338D01*
X192012869Y-79526141D01*
X192012905Y-79484616D01*
X192031725Y-79390000D01*
X192013069Y-79296210D01*
X192013242Y-79097334D01*
X192027701Y-79103338D01*
X192399667Y-79103662D01*
X192743443Y-78961617D01*
X193006692Y-78698827D01*
X193018177Y-78671167D01*
X196168838Y-78671167D01*
X196310883Y-79014943D01*
X196573673Y-79278192D01*
X196917201Y-79420838D01*
X197289167Y-79421162D01*
X197632943Y-79279117D01*
X197896192Y-79016327D01*
X198038838Y-78672799D01*
X198038839Y-78671167D01*
X201248838Y-78671167D01*
X201390883Y-79014943D01*
X201653673Y-79278192D01*
X201997201Y-79420838D01*
X202369167Y-79421162D01*
X202712943Y-79279117D01*
X202976192Y-79016327D01*
X203118838Y-78672799D01*
X203118839Y-78671167D01*
X206328838Y-78671167D01*
X206470883Y-79014943D01*
X206733673Y-79278192D01*
X207077201Y-79420838D01*
X207449167Y-79421162D01*
X207792943Y-79279117D01*
X208056192Y-79016327D01*
X208198838Y-78672799D01*
X208198839Y-78671167D01*
X211408838Y-78671167D01*
X211550883Y-79014943D01*
X211813673Y-79278192D01*
X212157201Y-79420838D01*
X212529167Y-79421162D01*
X212872943Y-79279117D01*
X213136192Y-79016327D01*
X213278838Y-78672799D01*
X213279162Y-78300833D01*
X213137117Y-77957057D01*
X212874327Y-77693808D01*
X212530799Y-77551162D01*
X212158833Y-77550838D01*
X211815057Y-77692883D01*
X211551808Y-77955673D01*
X211409162Y-78299201D01*
X211408838Y-78671167D01*
X208198839Y-78671167D01*
X208199162Y-78300833D01*
X208057117Y-77957057D01*
X207794327Y-77693808D01*
X207701270Y-77655167D01*
X208868838Y-77655167D01*
X209010883Y-77998943D01*
X209273673Y-78262192D01*
X209617201Y-78404838D01*
X209989167Y-78405162D01*
X210332943Y-78263117D01*
X210596192Y-78000327D01*
X210738838Y-77656799D01*
X210739162Y-77284833D01*
X210597117Y-76941057D01*
X210334327Y-76677808D01*
X209990799Y-76535162D01*
X209618833Y-76534838D01*
X209275057Y-76676883D01*
X209011808Y-76939673D01*
X208869162Y-77283201D01*
X208868838Y-77655167D01*
X207701270Y-77655167D01*
X207450799Y-77551162D01*
X207078833Y-77550838D01*
X206735057Y-77692883D01*
X206471808Y-77955673D01*
X206329162Y-78299201D01*
X206328838Y-78671167D01*
X203118839Y-78671167D01*
X203119162Y-78300833D01*
X202977117Y-77957057D01*
X202714327Y-77693808D01*
X202621270Y-77655167D01*
X203788838Y-77655167D01*
X203930883Y-77998943D01*
X204193673Y-78262192D01*
X204537201Y-78404838D01*
X204909167Y-78405162D01*
X205252943Y-78263117D01*
X205516192Y-78000327D01*
X205658838Y-77656799D01*
X205659162Y-77284833D01*
X205517117Y-76941057D01*
X205254327Y-76677808D01*
X204910799Y-76535162D01*
X204538833Y-76534838D01*
X204195057Y-76676883D01*
X203931808Y-76939673D01*
X203789162Y-77283201D01*
X203788838Y-77655167D01*
X202621270Y-77655167D01*
X202370799Y-77551162D01*
X201998833Y-77550838D01*
X201655057Y-77692883D01*
X201391808Y-77955673D01*
X201249162Y-78299201D01*
X201248838Y-78671167D01*
X198038839Y-78671167D01*
X198039162Y-78300833D01*
X197897117Y-77957057D01*
X197634327Y-77693808D01*
X197541270Y-77655167D01*
X198708838Y-77655167D01*
X198850883Y-77998943D01*
X199113673Y-78262192D01*
X199457201Y-78404838D01*
X199829167Y-78405162D01*
X200172943Y-78263117D01*
X200436192Y-78000327D01*
X200578838Y-77656799D01*
X200579162Y-77284833D01*
X200437117Y-76941057D01*
X200174327Y-76677808D01*
X199830799Y-76535162D01*
X199458833Y-76534838D01*
X199115057Y-76676883D01*
X198851808Y-76939673D01*
X198709162Y-77283201D01*
X198708838Y-77655167D01*
X197541270Y-77655167D01*
X197290799Y-77551162D01*
X196918833Y-77550838D01*
X196575057Y-77692883D01*
X196311808Y-77955673D01*
X196169162Y-78299201D01*
X196168838Y-78671167D01*
X193018177Y-78671167D01*
X193149338Y-78355299D01*
X193149662Y-77983333D01*
X193014067Y-77655167D01*
X193628838Y-77655167D01*
X193770883Y-77998943D01*
X194033673Y-78262192D01*
X194377201Y-78404838D01*
X194749167Y-78405162D01*
X195092943Y-78263117D01*
X195356192Y-78000327D01*
X195498838Y-77656799D01*
X195499162Y-77284833D01*
X195357117Y-76941057D01*
X195094327Y-76677808D01*
X194750799Y-76535162D01*
X194378833Y-76534838D01*
X194035057Y-76676883D01*
X193771808Y-76939673D01*
X193629162Y-77283201D01*
X193628838Y-77655167D01*
X193014067Y-77655167D01*
X193007617Y-77639557D01*
X192744827Y-77376308D01*
X192401299Y-77233662D01*
X192029333Y-77233338D01*
X191685557Y-77375383D01*
X191422308Y-77638173D01*
X191379247Y-77741876D01*
X190968639Y-77330551D01*
X190082081Y-76962420D01*
X189122130Y-76961583D01*
X188234931Y-77328166D01*
X187671144Y-77890969D01*
X187474327Y-77693808D01*
X187130799Y-77551162D01*
X186758833Y-77550838D01*
X186415057Y-77692883D01*
X186151808Y-77955673D01*
X186009162Y-78299201D01*
X186008838Y-78671167D01*
X182798839Y-78671167D01*
X182799162Y-78300833D01*
X182657117Y-77957057D01*
X182394327Y-77693808D01*
X182301270Y-77655167D01*
X183468838Y-77655167D01*
X183610883Y-77998943D01*
X183873673Y-78262192D01*
X184217201Y-78404838D01*
X184589167Y-78405162D01*
X184932943Y-78263117D01*
X185196192Y-78000327D01*
X185338838Y-77656799D01*
X185339162Y-77284833D01*
X185197117Y-76941057D01*
X184934327Y-76677808D01*
X184590799Y-76535162D01*
X184218833Y-76534838D01*
X183875057Y-76676883D01*
X183611808Y-76939673D01*
X183469162Y-77283201D01*
X183468838Y-77655167D01*
X182301270Y-77655167D01*
X182050799Y-77551162D01*
X181678833Y-77550838D01*
X181335057Y-77692883D01*
X181071808Y-77955673D01*
X180929162Y-78299201D01*
X180928838Y-78671167D01*
X177718839Y-78671167D01*
X177719162Y-78300833D01*
X177577117Y-77957057D01*
X177529311Y-77909167D01*
X178388838Y-77909167D01*
X178530883Y-78252943D01*
X178793673Y-78516192D01*
X179137201Y-78658838D01*
X179509167Y-78659162D01*
X179852943Y-78517117D01*
X180116192Y-78254327D01*
X180258838Y-77910799D01*
X180259162Y-77538833D01*
X180117117Y-77195057D01*
X179854327Y-76931808D01*
X179510799Y-76789162D01*
X179138833Y-76788838D01*
X178795057Y-76930883D01*
X178531808Y-77193673D01*
X178389162Y-77537201D01*
X178388838Y-77909167D01*
X177529311Y-77909167D01*
X177314327Y-77693808D01*
X176970799Y-77551162D01*
X176598833Y-77550838D01*
X176255057Y-77692883D01*
X175991808Y-77955673D01*
X175849162Y-78299201D01*
X175848838Y-78671167D01*
X172638839Y-78671167D01*
X172639162Y-78300833D01*
X172497117Y-77957057D01*
X172449311Y-77909167D01*
X173308838Y-77909167D01*
X173450883Y-78252943D01*
X173713673Y-78516192D01*
X174057201Y-78658838D01*
X174429167Y-78659162D01*
X174772943Y-78517117D01*
X175036192Y-78254327D01*
X175178838Y-77910799D01*
X175179162Y-77538833D01*
X175037117Y-77195057D01*
X174774327Y-76931808D01*
X174430799Y-76789162D01*
X174058833Y-76788838D01*
X173715057Y-76930883D01*
X173451808Y-77193673D01*
X173309162Y-77537201D01*
X173308838Y-77909167D01*
X172449311Y-77909167D01*
X172234327Y-77693808D01*
X171890799Y-77551162D01*
X171518833Y-77550838D01*
X171175057Y-77692883D01*
X170911808Y-77955673D01*
X170769162Y-78299201D01*
X170768838Y-78671167D01*
X167558839Y-78671167D01*
X167559162Y-78300833D01*
X167417117Y-77957057D01*
X167369311Y-77909167D01*
X168228838Y-77909167D01*
X168370883Y-78252943D01*
X168633673Y-78516192D01*
X168977201Y-78658838D01*
X169349167Y-78659162D01*
X169692943Y-78517117D01*
X169956192Y-78254327D01*
X170098838Y-77910799D01*
X170099162Y-77538833D01*
X169957117Y-77195057D01*
X169694327Y-76931808D01*
X169350799Y-76789162D01*
X168978833Y-76788838D01*
X168635057Y-76930883D01*
X168371808Y-77193673D01*
X168229162Y-77537201D01*
X168228838Y-77909167D01*
X167369311Y-77909167D01*
X167154327Y-77693808D01*
X166810799Y-77551162D01*
X166438833Y-77550838D01*
X166095057Y-77692883D01*
X165831808Y-77955673D01*
X165689162Y-78299201D01*
X165688838Y-78671167D01*
X164338000Y-78671167D01*
X164338000Y-76385167D01*
X165688838Y-76385167D01*
X165830883Y-76728943D01*
X166093673Y-76992192D01*
X166437201Y-77134838D01*
X166809167Y-77135162D01*
X167152943Y-76993117D01*
X167416192Y-76730327D01*
X167558838Y-76386799D01*
X167558839Y-76385167D01*
X170768838Y-76385167D01*
X170910883Y-76728943D01*
X171173673Y-76992192D01*
X171517201Y-77134838D01*
X171889167Y-77135162D01*
X172232943Y-76993117D01*
X172496192Y-76730327D01*
X172638838Y-76386799D01*
X172638839Y-76385167D01*
X175848838Y-76385167D01*
X175990883Y-76728943D01*
X176253673Y-76992192D01*
X176597201Y-77134838D01*
X176969167Y-77135162D01*
X177312943Y-76993117D01*
X177576192Y-76730327D01*
X177718838Y-76386799D01*
X177718839Y-76385167D01*
X180928838Y-76385167D01*
X181070883Y-76728943D01*
X181333673Y-76992192D01*
X181677201Y-77134838D01*
X182049167Y-77135162D01*
X182392943Y-76993117D01*
X182656192Y-76730327D01*
X182798838Y-76386799D01*
X182798839Y-76385167D01*
X186008838Y-76385167D01*
X186150883Y-76728943D01*
X186413673Y-76992192D01*
X186757201Y-77134838D01*
X187129167Y-77135162D01*
X187472943Y-76993117D01*
X187736192Y-76730327D01*
X187878838Y-76386799D01*
X187878839Y-76385167D01*
X191088838Y-76385167D01*
X191230883Y-76728943D01*
X191493673Y-76992192D01*
X191837201Y-77134838D01*
X192209167Y-77135162D01*
X192552943Y-76993117D01*
X192816192Y-76730327D01*
X192958838Y-76386799D01*
X192958839Y-76385167D01*
X196168838Y-76385167D01*
X196310883Y-76728943D01*
X196573673Y-76992192D01*
X196917201Y-77134838D01*
X197289167Y-77135162D01*
X197632943Y-76993117D01*
X197896192Y-76730327D01*
X198038838Y-76386799D01*
X198038839Y-76385167D01*
X201248838Y-76385167D01*
X201390883Y-76728943D01*
X201653673Y-76992192D01*
X201997201Y-77134838D01*
X202369167Y-77135162D01*
X202712943Y-76993117D01*
X202976192Y-76730327D01*
X203118838Y-76386799D01*
X203118839Y-76385167D01*
X206328838Y-76385167D01*
X206470883Y-76728943D01*
X206733673Y-76992192D01*
X207077201Y-77134838D01*
X207449167Y-77135162D01*
X207792943Y-76993117D01*
X208056192Y-76730327D01*
X208198838Y-76386799D01*
X208198839Y-76385167D01*
X211408838Y-76385167D01*
X211550883Y-76728943D01*
X211813673Y-76992192D01*
X212157201Y-77134838D01*
X212529167Y-77135162D01*
X212872943Y-76993117D01*
X213136192Y-76730327D01*
X213278838Y-76386799D01*
X213279162Y-76014833D01*
X213137117Y-75671057D01*
X212874327Y-75407808D01*
X212530799Y-75265162D01*
X212158833Y-75264838D01*
X211815057Y-75406883D01*
X211551808Y-75669673D01*
X211409162Y-76013201D01*
X211408838Y-76385167D01*
X208198839Y-76385167D01*
X208199162Y-76014833D01*
X208057117Y-75671057D01*
X207794327Y-75407808D01*
X207701270Y-75369167D01*
X208868838Y-75369167D01*
X209010883Y-75712943D01*
X209273673Y-75976192D01*
X209617201Y-76118838D01*
X209989167Y-76119162D01*
X210332943Y-75977117D01*
X210596192Y-75714327D01*
X210738838Y-75370799D01*
X210739162Y-74998833D01*
X210597117Y-74655057D01*
X210334327Y-74391808D01*
X209990799Y-74249162D01*
X209618833Y-74248838D01*
X209275057Y-74390883D01*
X209011808Y-74653673D01*
X208869162Y-74997201D01*
X208868838Y-75369167D01*
X207701270Y-75369167D01*
X207450799Y-75265162D01*
X207078833Y-75264838D01*
X206735057Y-75406883D01*
X206471808Y-75669673D01*
X206329162Y-76013201D01*
X206328838Y-76385167D01*
X203118839Y-76385167D01*
X203119162Y-76014833D01*
X202977117Y-75671057D01*
X202714327Y-75407808D01*
X202621270Y-75369167D01*
X203788838Y-75369167D01*
X203930883Y-75712943D01*
X204193673Y-75976192D01*
X204537201Y-76118838D01*
X204909167Y-76119162D01*
X205252943Y-75977117D01*
X205516192Y-75714327D01*
X205658838Y-75370799D01*
X205659162Y-74998833D01*
X205517117Y-74655057D01*
X205254327Y-74391808D01*
X204910799Y-74249162D01*
X204538833Y-74248838D01*
X204195057Y-74390883D01*
X203931808Y-74653673D01*
X203789162Y-74997201D01*
X203788838Y-75369167D01*
X202621270Y-75369167D01*
X202370799Y-75265162D01*
X201998833Y-75264838D01*
X201655057Y-75406883D01*
X201391808Y-75669673D01*
X201249162Y-76013201D01*
X201248838Y-76385167D01*
X198038839Y-76385167D01*
X198039162Y-76014833D01*
X197897117Y-75671057D01*
X197634327Y-75407808D01*
X197541270Y-75369167D01*
X198708838Y-75369167D01*
X198850883Y-75712943D01*
X199113673Y-75976192D01*
X199457201Y-76118838D01*
X199829167Y-76119162D01*
X200172943Y-75977117D01*
X200436192Y-75714327D01*
X200578838Y-75370799D01*
X200579162Y-74998833D01*
X200437117Y-74655057D01*
X200174327Y-74391808D01*
X199830799Y-74249162D01*
X199458833Y-74248838D01*
X199115057Y-74390883D01*
X198851808Y-74653673D01*
X198709162Y-74997201D01*
X198708838Y-75369167D01*
X197541270Y-75369167D01*
X197290799Y-75265162D01*
X196918833Y-75264838D01*
X196575057Y-75406883D01*
X196311808Y-75669673D01*
X196169162Y-76013201D01*
X196168838Y-76385167D01*
X192958839Y-76385167D01*
X192959162Y-76014833D01*
X192817117Y-75671057D01*
X192554327Y-75407808D01*
X192461270Y-75369167D01*
X193628838Y-75369167D01*
X193770883Y-75712943D01*
X194033673Y-75976192D01*
X194377201Y-76118838D01*
X194749167Y-76119162D01*
X195092943Y-75977117D01*
X195356192Y-75714327D01*
X195498838Y-75370799D01*
X195499162Y-74998833D01*
X195357117Y-74655057D01*
X195094327Y-74391808D01*
X194750799Y-74249162D01*
X194378833Y-74248838D01*
X194035057Y-74390883D01*
X193771808Y-74653673D01*
X193629162Y-74997201D01*
X193628838Y-75369167D01*
X192461270Y-75369167D01*
X192210799Y-75265162D01*
X191838833Y-75264838D01*
X191495057Y-75406883D01*
X191231808Y-75669673D01*
X191089162Y-76013201D01*
X191088838Y-76385167D01*
X187878839Y-76385167D01*
X187879162Y-76014833D01*
X187737117Y-75671057D01*
X187474327Y-75407808D01*
X187381270Y-75369167D01*
X188548838Y-75369167D01*
X188690883Y-75712943D01*
X188953673Y-75976192D01*
X189297201Y-76118838D01*
X189669167Y-76119162D01*
X190012943Y-75977117D01*
X190276192Y-75714327D01*
X190418838Y-75370799D01*
X190419162Y-74998833D01*
X190277117Y-74655057D01*
X190014327Y-74391808D01*
X189670799Y-74249162D01*
X189298833Y-74248838D01*
X188955057Y-74390883D01*
X188691808Y-74653673D01*
X188549162Y-74997201D01*
X188548838Y-75369167D01*
X187381270Y-75369167D01*
X187130799Y-75265162D01*
X186758833Y-75264838D01*
X186415057Y-75406883D01*
X186151808Y-75669673D01*
X186009162Y-76013201D01*
X186008838Y-76385167D01*
X182798839Y-76385167D01*
X182799162Y-76014833D01*
X182657117Y-75671057D01*
X182394327Y-75407808D01*
X182301270Y-75369167D01*
X183468838Y-75369167D01*
X183610883Y-75712943D01*
X183873673Y-75976192D01*
X184217201Y-76118838D01*
X184589167Y-76119162D01*
X184932943Y-75977117D01*
X185196192Y-75714327D01*
X185338838Y-75370799D01*
X185339162Y-74998833D01*
X185197117Y-74655057D01*
X184934327Y-74391808D01*
X184590799Y-74249162D01*
X184218833Y-74248838D01*
X183875057Y-74390883D01*
X183611808Y-74653673D01*
X183469162Y-74997201D01*
X183468838Y-75369167D01*
X182301270Y-75369167D01*
X182050799Y-75265162D01*
X181678833Y-75264838D01*
X181335057Y-75406883D01*
X181071808Y-75669673D01*
X180929162Y-76013201D01*
X180928838Y-76385167D01*
X177718839Y-76385167D01*
X177719162Y-76014833D01*
X177577117Y-75671057D01*
X177529311Y-75623167D01*
X178388838Y-75623167D01*
X178530883Y-75966943D01*
X178793673Y-76230192D01*
X179137201Y-76372838D01*
X179509167Y-76373162D01*
X179852943Y-76231117D01*
X180116192Y-75968327D01*
X180258838Y-75624799D01*
X180259162Y-75252833D01*
X180117117Y-74909057D01*
X179854327Y-74645808D01*
X179510799Y-74503162D01*
X179138833Y-74502838D01*
X178795057Y-74644883D01*
X178531808Y-74907673D01*
X178389162Y-75251201D01*
X178388838Y-75623167D01*
X177529311Y-75623167D01*
X177314327Y-75407808D01*
X176970799Y-75265162D01*
X176598833Y-75264838D01*
X176255057Y-75406883D01*
X175991808Y-75669673D01*
X175849162Y-76013201D01*
X175848838Y-76385167D01*
X172638839Y-76385167D01*
X172639162Y-76014833D01*
X172497117Y-75671057D01*
X172449311Y-75623167D01*
X173308838Y-75623167D01*
X173450883Y-75966943D01*
X173713673Y-76230192D01*
X174057201Y-76372838D01*
X174429167Y-76373162D01*
X174772943Y-76231117D01*
X175036192Y-75968327D01*
X175178838Y-75624799D01*
X175179162Y-75252833D01*
X175037117Y-74909057D01*
X174774327Y-74645808D01*
X174430799Y-74503162D01*
X174058833Y-74502838D01*
X173715057Y-74644883D01*
X173451808Y-74907673D01*
X173309162Y-75251201D01*
X173308838Y-75623167D01*
X172449311Y-75623167D01*
X172234327Y-75407808D01*
X171890799Y-75265162D01*
X171518833Y-75264838D01*
X171175057Y-75406883D01*
X170911808Y-75669673D01*
X170769162Y-76013201D01*
X170768838Y-76385167D01*
X167558839Y-76385167D01*
X167559162Y-76014833D01*
X167417117Y-75671057D01*
X167369311Y-75623167D01*
X168228838Y-75623167D01*
X168370883Y-75966943D01*
X168633673Y-76230192D01*
X168977201Y-76372838D01*
X169349167Y-76373162D01*
X169692943Y-76231117D01*
X169956192Y-75968327D01*
X170098838Y-75624799D01*
X170099162Y-75252833D01*
X169957117Y-74909057D01*
X169694327Y-74645808D01*
X169350799Y-74503162D01*
X168978833Y-74502838D01*
X168635057Y-74644883D01*
X168371808Y-74907673D01*
X168229162Y-75251201D01*
X168228838Y-75623167D01*
X167369311Y-75623167D01*
X167154327Y-75407808D01*
X166810799Y-75265162D01*
X166438833Y-75264838D01*
X166095057Y-75406883D01*
X165831808Y-75669673D01*
X165689162Y-76013201D01*
X165688838Y-76385167D01*
X164338000Y-76385167D01*
X164338000Y-74099167D01*
X165688838Y-74099167D01*
X165830883Y-74442943D01*
X166093673Y-74706192D01*
X166437201Y-74848838D01*
X166809167Y-74849162D01*
X167152943Y-74707117D01*
X167416192Y-74444327D01*
X167558838Y-74100799D01*
X167558839Y-74099167D01*
X170768838Y-74099167D01*
X170910883Y-74442943D01*
X171173673Y-74706192D01*
X171517201Y-74848838D01*
X171889167Y-74849162D01*
X172232943Y-74707117D01*
X172496192Y-74444327D01*
X172638838Y-74100799D01*
X172638839Y-74099167D01*
X175848838Y-74099167D01*
X175990883Y-74442943D01*
X176253673Y-74706192D01*
X176597201Y-74848838D01*
X176969167Y-74849162D01*
X177312943Y-74707117D01*
X177576192Y-74444327D01*
X177718838Y-74100799D01*
X177718839Y-74099167D01*
X180928838Y-74099167D01*
X181070883Y-74442943D01*
X181333673Y-74706192D01*
X181677201Y-74848838D01*
X182049167Y-74849162D01*
X182392943Y-74707117D01*
X182656192Y-74444327D01*
X182798838Y-74100799D01*
X182798839Y-74099167D01*
X186008838Y-74099167D01*
X186150883Y-74442943D01*
X186413673Y-74706192D01*
X186757201Y-74848838D01*
X187129167Y-74849162D01*
X187472943Y-74707117D01*
X187736192Y-74444327D01*
X187878838Y-74100799D01*
X187878839Y-74099167D01*
X191088838Y-74099167D01*
X191230883Y-74442943D01*
X191493673Y-74706192D01*
X191837201Y-74848838D01*
X192209167Y-74849162D01*
X192552943Y-74707117D01*
X192816192Y-74444327D01*
X192958838Y-74100799D01*
X192958839Y-74099167D01*
X196168838Y-74099167D01*
X196310883Y-74442943D01*
X196573673Y-74706192D01*
X196917201Y-74848838D01*
X197289167Y-74849162D01*
X197632943Y-74707117D01*
X197896192Y-74444327D01*
X198038838Y-74100799D01*
X198038839Y-74099167D01*
X201248838Y-74099167D01*
X201390883Y-74442943D01*
X201653673Y-74706192D01*
X201997201Y-74848838D01*
X202369167Y-74849162D01*
X202712943Y-74707117D01*
X202976192Y-74444327D01*
X203118838Y-74100799D01*
X203118839Y-74099167D01*
X206328838Y-74099167D01*
X206470883Y-74442943D01*
X206733673Y-74706192D01*
X207077201Y-74848838D01*
X207449167Y-74849162D01*
X207792943Y-74707117D01*
X208056192Y-74444327D01*
X208198838Y-74100799D01*
X208198839Y-74099167D01*
X211408838Y-74099167D01*
X211550883Y-74442943D01*
X211813673Y-74706192D01*
X212157201Y-74848838D01*
X212529167Y-74849162D01*
X212872943Y-74707117D01*
X213136192Y-74444327D01*
X213278838Y-74100799D01*
X213279162Y-73728833D01*
X213137117Y-73385057D01*
X212874327Y-73121808D01*
X212530799Y-72979162D01*
X212158833Y-72978838D01*
X211815057Y-73120883D01*
X211551808Y-73383673D01*
X211409162Y-73727201D01*
X211408838Y-74099167D01*
X208198839Y-74099167D01*
X208199162Y-73728833D01*
X208057117Y-73385057D01*
X207794327Y-73121808D01*
X207701270Y-73083167D01*
X208868838Y-73083167D01*
X209010883Y-73426943D01*
X209273673Y-73690192D01*
X209617201Y-73832838D01*
X209989167Y-73833162D01*
X210332943Y-73691117D01*
X210596192Y-73428327D01*
X210738838Y-73084799D01*
X210739162Y-72712833D01*
X210597117Y-72369057D01*
X210334327Y-72105808D01*
X209990799Y-71963162D01*
X209618833Y-71962838D01*
X209275057Y-72104883D01*
X209011808Y-72367673D01*
X208869162Y-72711201D01*
X208868838Y-73083167D01*
X207701270Y-73083167D01*
X207450799Y-72979162D01*
X207078833Y-72978838D01*
X206735057Y-73120883D01*
X206471808Y-73383673D01*
X206329162Y-73727201D01*
X206328838Y-74099167D01*
X203118839Y-74099167D01*
X203119162Y-73728833D01*
X202977117Y-73385057D01*
X202714327Y-73121808D01*
X202621270Y-73083167D01*
X203788838Y-73083167D01*
X203930883Y-73426943D01*
X204193673Y-73690192D01*
X204537201Y-73832838D01*
X204909167Y-73833162D01*
X205252943Y-73691117D01*
X205516192Y-73428327D01*
X205658838Y-73084799D01*
X205659162Y-72712833D01*
X205517117Y-72369057D01*
X205254327Y-72105808D01*
X204910799Y-71963162D01*
X204538833Y-71962838D01*
X204195057Y-72104883D01*
X203931808Y-72367673D01*
X203789162Y-72711201D01*
X203788838Y-73083167D01*
X202621270Y-73083167D01*
X202370799Y-72979162D01*
X201998833Y-72978838D01*
X201655057Y-73120883D01*
X201391808Y-73383673D01*
X201249162Y-73727201D01*
X201248838Y-74099167D01*
X198038839Y-74099167D01*
X198039162Y-73728833D01*
X197897117Y-73385057D01*
X197634327Y-73121808D01*
X197541270Y-73083167D01*
X198708838Y-73083167D01*
X198850883Y-73426943D01*
X199113673Y-73690192D01*
X199457201Y-73832838D01*
X199829167Y-73833162D01*
X200172943Y-73691117D01*
X200436192Y-73428327D01*
X200578838Y-73084799D01*
X200579162Y-72712833D01*
X200437117Y-72369057D01*
X200174327Y-72105808D01*
X199830799Y-71963162D01*
X199458833Y-71962838D01*
X199115057Y-72104883D01*
X198851808Y-72367673D01*
X198709162Y-72711201D01*
X198708838Y-73083167D01*
X197541270Y-73083167D01*
X197290799Y-72979162D01*
X196918833Y-72978838D01*
X196575057Y-73120883D01*
X196311808Y-73383673D01*
X196169162Y-73727201D01*
X196168838Y-74099167D01*
X192958839Y-74099167D01*
X192959162Y-73728833D01*
X192817117Y-73385057D01*
X192554327Y-73121808D01*
X192461270Y-73083167D01*
X193628838Y-73083167D01*
X193770883Y-73426943D01*
X194033673Y-73690192D01*
X194377201Y-73832838D01*
X194749167Y-73833162D01*
X195092943Y-73691117D01*
X195356192Y-73428327D01*
X195498838Y-73084799D01*
X195499162Y-72712833D01*
X195357117Y-72369057D01*
X195094327Y-72105808D01*
X194750799Y-71963162D01*
X194378833Y-71962838D01*
X194035057Y-72104883D01*
X193771808Y-72367673D01*
X193629162Y-72711201D01*
X193628838Y-73083167D01*
X192461270Y-73083167D01*
X192210799Y-72979162D01*
X191838833Y-72978838D01*
X191495057Y-73120883D01*
X191231808Y-73383673D01*
X191089162Y-73727201D01*
X191088838Y-74099167D01*
X187878839Y-74099167D01*
X187879162Y-73728833D01*
X187737117Y-73385057D01*
X187474327Y-73121808D01*
X187381270Y-73083167D01*
X188548838Y-73083167D01*
X188690883Y-73426943D01*
X188953673Y-73690192D01*
X189297201Y-73832838D01*
X189669167Y-73833162D01*
X190012943Y-73691117D01*
X190276192Y-73428327D01*
X190418838Y-73084799D01*
X190419162Y-72712833D01*
X190277117Y-72369057D01*
X190014327Y-72105808D01*
X189670799Y-71963162D01*
X189298833Y-71962838D01*
X188955057Y-72104883D01*
X188691808Y-72367673D01*
X188549162Y-72711201D01*
X188548838Y-73083167D01*
X187381270Y-73083167D01*
X187130799Y-72979162D01*
X186758833Y-72978838D01*
X186415057Y-73120883D01*
X186151808Y-73383673D01*
X186009162Y-73727201D01*
X186008838Y-74099167D01*
X182798839Y-74099167D01*
X182799162Y-73728833D01*
X182657117Y-73385057D01*
X182394327Y-73121808D01*
X182301270Y-73083167D01*
X183468838Y-73083167D01*
X183610883Y-73426943D01*
X183873673Y-73690192D01*
X184217201Y-73832838D01*
X184589167Y-73833162D01*
X184932943Y-73691117D01*
X185196192Y-73428327D01*
X185338838Y-73084799D01*
X185339162Y-72712833D01*
X185197117Y-72369057D01*
X184934327Y-72105808D01*
X184590799Y-71963162D01*
X184218833Y-71962838D01*
X183875057Y-72104883D01*
X183611808Y-72367673D01*
X183469162Y-72711201D01*
X183468838Y-73083167D01*
X182301270Y-73083167D01*
X182050799Y-72979162D01*
X181678833Y-72978838D01*
X181335057Y-73120883D01*
X181071808Y-73383673D01*
X180929162Y-73727201D01*
X180928838Y-74099167D01*
X177718839Y-74099167D01*
X177719162Y-73728833D01*
X177577117Y-73385057D01*
X177529311Y-73337167D01*
X178388838Y-73337167D01*
X178530883Y-73680943D01*
X178793673Y-73944192D01*
X179137201Y-74086838D01*
X179509167Y-74087162D01*
X179852943Y-73945117D01*
X180116192Y-73682327D01*
X180258838Y-73338799D01*
X180259162Y-72966833D01*
X180117117Y-72623057D01*
X179854327Y-72359808D01*
X179510799Y-72217162D01*
X179138833Y-72216838D01*
X178795057Y-72358883D01*
X178531808Y-72621673D01*
X178389162Y-72965201D01*
X178388838Y-73337167D01*
X177529311Y-73337167D01*
X177314327Y-73121808D01*
X176970799Y-72979162D01*
X176598833Y-72978838D01*
X176255057Y-73120883D01*
X175991808Y-73383673D01*
X175849162Y-73727201D01*
X175848838Y-74099167D01*
X172638839Y-74099167D01*
X172639162Y-73728833D01*
X172497117Y-73385057D01*
X172449311Y-73337167D01*
X173308838Y-73337167D01*
X173450883Y-73680943D01*
X173713673Y-73944192D01*
X174057201Y-74086838D01*
X174429167Y-74087162D01*
X174772943Y-73945117D01*
X175036192Y-73682327D01*
X175178838Y-73338799D01*
X175179162Y-72966833D01*
X175037117Y-72623057D01*
X174774327Y-72359808D01*
X174430799Y-72217162D01*
X174058833Y-72216838D01*
X173715057Y-72358883D01*
X173451808Y-72621673D01*
X173309162Y-72965201D01*
X173308838Y-73337167D01*
X172449311Y-73337167D01*
X172234327Y-73121808D01*
X171890799Y-72979162D01*
X171518833Y-72978838D01*
X171175057Y-73120883D01*
X170911808Y-73383673D01*
X170769162Y-73727201D01*
X170768838Y-74099167D01*
X167558839Y-74099167D01*
X167559162Y-73728833D01*
X167417117Y-73385057D01*
X167369311Y-73337167D01*
X168228838Y-73337167D01*
X168370883Y-73680943D01*
X168633673Y-73944192D01*
X168977201Y-74086838D01*
X169349167Y-74087162D01*
X169692943Y-73945117D01*
X169956192Y-73682327D01*
X170098838Y-73338799D01*
X170099162Y-72966833D01*
X169957117Y-72623057D01*
X169694327Y-72359808D01*
X169350799Y-72217162D01*
X168978833Y-72216838D01*
X168635057Y-72358883D01*
X168371808Y-72621673D01*
X168229162Y-72965201D01*
X168228838Y-73337167D01*
X167369311Y-73337167D01*
X167154327Y-73121808D01*
X166810799Y-72979162D01*
X166438833Y-72978838D01*
X166095057Y-73120883D01*
X165831808Y-73383673D01*
X165689162Y-73727201D01*
X165688838Y-74099167D01*
X164338000Y-74099167D01*
X164338000Y-71813167D01*
X165688838Y-71813167D01*
X165830883Y-72156943D01*
X166093673Y-72420192D01*
X166437201Y-72562838D01*
X166809167Y-72563162D01*
X167152943Y-72421117D01*
X167416192Y-72158327D01*
X167558838Y-71814799D01*
X167558839Y-71813167D01*
X170768838Y-71813167D01*
X170910883Y-72156943D01*
X171173673Y-72420192D01*
X171517201Y-72562838D01*
X171889167Y-72563162D01*
X172232943Y-72421117D01*
X172496192Y-72158327D01*
X172638838Y-71814799D01*
X172638839Y-71813167D01*
X175848838Y-71813167D01*
X175990883Y-72156943D01*
X176253673Y-72420192D01*
X176597201Y-72562838D01*
X176969167Y-72563162D01*
X177312943Y-72421117D01*
X177576192Y-72158327D01*
X177718838Y-71814799D01*
X177718839Y-71813167D01*
X180928838Y-71813167D01*
X181070883Y-72156943D01*
X181333673Y-72420192D01*
X181677201Y-72562838D01*
X182049167Y-72563162D01*
X182392943Y-72421117D01*
X182656192Y-72158327D01*
X182798838Y-71814799D01*
X182798839Y-71813167D01*
X186008838Y-71813167D01*
X186150883Y-72156943D01*
X186413673Y-72420192D01*
X186757201Y-72562838D01*
X187129167Y-72563162D01*
X187472943Y-72421117D01*
X187736192Y-72158327D01*
X187878838Y-71814799D01*
X187878839Y-71813167D01*
X191088838Y-71813167D01*
X191230883Y-72156943D01*
X191493673Y-72420192D01*
X191837201Y-72562838D01*
X192209167Y-72563162D01*
X192552943Y-72421117D01*
X192816192Y-72158327D01*
X192958838Y-71814799D01*
X192958839Y-71813167D01*
X196168838Y-71813167D01*
X196310883Y-72156943D01*
X196573673Y-72420192D01*
X196917201Y-72562838D01*
X197289167Y-72563162D01*
X197632943Y-72421117D01*
X197896192Y-72158327D01*
X198038838Y-71814799D01*
X198038839Y-71813167D01*
X201248838Y-71813167D01*
X201390883Y-72156943D01*
X201653673Y-72420192D01*
X201997201Y-72562838D01*
X202369167Y-72563162D01*
X202712943Y-72421117D01*
X202976192Y-72158327D01*
X203118838Y-71814799D01*
X203118839Y-71813167D01*
X206328838Y-71813167D01*
X206470883Y-72156943D01*
X206733673Y-72420192D01*
X207077201Y-72562838D01*
X207449167Y-72563162D01*
X207792943Y-72421117D01*
X208056192Y-72158327D01*
X208198838Y-71814799D01*
X208198839Y-71813167D01*
X211408838Y-71813167D01*
X211550883Y-72156943D01*
X211813673Y-72420192D01*
X212157201Y-72562838D01*
X212529167Y-72563162D01*
X212872943Y-72421117D01*
X213136192Y-72158327D01*
X213278838Y-71814799D01*
X213279162Y-71442833D01*
X213137117Y-71099057D01*
X212874327Y-70835808D01*
X212530799Y-70693162D01*
X212158833Y-70692838D01*
X211815057Y-70834883D01*
X211551808Y-71097673D01*
X211409162Y-71441201D01*
X211408838Y-71813167D01*
X208198839Y-71813167D01*
X208199162Y-71442833D01*
X208057117Y-71099057D01*
X207794327Y-70835808D01*
X207701270Y-70797167D01*
X208868838Y-70797167D01*
X209010883Y-71140943D01*
X209273673Y-71404192D01*
X209617201Y-71546838D01*
X209989167Y-71547162D01*
X210332943Y-71405117D01*
X210596192Y-71142327D01*
X210738838Y-70798799D01*
X210739162Y-70426833D01*
X210597117Y-70083057D01*
X210334327Y-69819808D01*
X209990799Y-69677162D01*
X209618833Y-69676838D01*
X209275057Y-69818883D01*
X209011808Y-70081673D01*
X208869162Y-70425201D01*
X208868838Y-70797167D01*
X207701270Y-70797167D01*
X207450799Y-70693162D01*
X207078833Y-70692838D01*
X206735057Y-70834883D01*
X206471808Y-71097673D01*
X206329162Y-71441201D01*
X206328838Y-71813167D01*
X203118839Y-71813167D01*
X203119162Y-71442833D01*
X202977117Y-71099057D01*
X202714327Y-70835808D01*
X202621270Y-70797167D01*
X203788838Y-70797167D01*
X203930883Y-71140943D01*
X204193673Y-71404192D01*
X204537201Y-71546838D01*
X204909167Y-71547162D01*
X205252943Y-71405117D01*
X205516192Y-71142327D01*
X205658838Y-70798799D01*
X205659162Y-70426833D01*
X205517117Y-70083057D01*
X205254327Y-69819808D01*
X204910799Y-69677162D01*
X204538833Y-69676838D01*
X204195057Y-69818883D01*
X203931808Y-70081673D01*
X203789162Y-70425201D01*
X203788838Y-70797167D01*
X202621270Y-70797167D01*
X202370799Y-70693162D01*
X201998833Y-70692838D01*
X201655057Y-70834883D01*
X201391808Y-71097673D01*
X201249162Y-71441201D01*
X201248838Y-71813167D01*
X198038839Y-71813167D01*
X198039162Y-71442833D01*
X197897117Y-71099057D01*
X197634327Y-70835808D01*
X197541270Y-70797167D01*
X198708838Y-70797167D01*
X198850883Y-71140943D01*
X199113673Y-71404192D01*
X199457201Y-71546838D01*
X199829167Y-71547162D01*
X200172943Y-71405117D01*
X200436192Y-71142327D01*
X200578838Y-70798799D01*
X200579162Y-70426833D01*
X200437117Y-70083057D01*
X200174327Y-69819808D01*
X199830799Y-69677162D01*
X199458833Y-69676838D01*
X199115057Y-69818883D01*
X198851808Y-70081673D01*
X198709162Y-70425201D01*
X198708838Y-70797167D01*
X197541270Y-70797167D01*
X197290799Y-70693162D01*
X196918833Y-70692838D01*
X196575057Y-70834883D01*
X196311808Y-71097673D01*
X196169162Y-71441201D01*
X196168838Y-71813167D01*
X192958839Y-71813167D01*
X192959162Y-71442833D01*
X192817117Y-71099057D01*
X192554327Y-70835808D01*
X192461270Y-70797167D01*
X193628838Y-70797167D01*
X193770883Y-71140943D01*
X194033673Y-71404192D01*
X194377201Y-71546838D01*
X194749167Y-71547162D01*
X195092943Y-71405117D01*
X195356192Y-71142327D01*
X195498838Y-70798799D01*
X195499162Y-70426833D01*
X195357117Y-70083057D01*
X195094327Y-69819808D01*
X194750799Y-69677162D01*
X194378833Y-69676838D01*
X194035057Y-69818883D01*
X193771808Y-70081673D01*
X193629162Y-70425201D01*
X193628838Y-70797167D01*
X192461270Y-70797167D01*
X192210799Y-70693162D01*
X191838833Y-70692838D01*
X191495057Y-70834883D01*
X191231808Y-71097673D01*
X191089162Y-71441201D01*
X191088838Y-71813167D01*
X187878839Y-71813167D01*
X187879162Y-71442833D01*
X187737117Y-71099057D01*
X187474327Y-70835808D01*
X187381270Y-70797167D01*
X188548838Y-70797167D01*
X188690883Y-71140943D01*
X188953673Y-71404192D01*
X189297201Y-71546838D01*
X189669167Y-71547162D01*
X190012943Y-71405117D01*
X190276192Y-71142327D01*
X190418838Y-70798799D01*
X190419162Y-70426833D01*
X190277117Y-70083057D01*
X190014327Y-69819808D01*
X189670799Y-69677162D01*
X189298833Y-69676838D01*
X188955057Y-69818883D01*
X188691808Y-70081673D01*
X188549162Y-70425201D01*
X188548838Y-70797167D01*
X187381270Y-70797167D01*
X187130799Y-70693162D01*
X186758833Y-70692838D01*
X186415057Y-70834883D01*
X186151808Y-71097673D01*
X186009162Y-71441201D01*
X186008838Y-71813167D01*
X182798839Y-71813167D01*
X182799162Y-71442833D01*
X182657117Y-71099057D01*
X182394327Y-70835808D01*
X182301270Y-70797167D01*
X183468838Y-70797167D01*
X183610883Y-71140943D01*
X183873673Y-71404192D01*
X184217201Y-71546838D01*
X184589167Y-71547162D01*
X184932943Y-71405117D01*
X185196192Y-71142327D01*
X185338838Y-70798799D01*
X185339162Y-70426833D01*
X185197117Y-70083057D01*
X184934327Y-69819808D01*
X184590799Y-69677162D01*
X184218833Y-69676838D01*
X183875057Y-69818883D01*
X183611808Y-70081673D01*
X183469162Y-70425201D01*
X183468838Y-70797167D01*
X182301270Y-70797167D01*
X182050799Y-70693162D01*
X181678833Y-70692838D01*
X181335057Y-70834883D01*
X181071808Y-71097673D01*
X180929162Y-71441201D01*
X180928838Y-71813167D01*
X177718839Y-71813167D01*
X177719162Y-71442833D01*
X177577117Y-71099057D01*
X177529311Y-71051167D01*
X178388838Y-71051167D01*
X178530883Y-71394943D01*
X178793673Y-71658192D01*
X179137201Y-71800838D01*
X179509167Y-71801162D01*
X179852943Y-71659117D01*
X180116192Y-71396327D01*
X180258838Y-71052799D01*
X180259162Y-70680833D01*
X180117117Y-70337057D01*
X179854327Y-70073808D01*
X179510799Y-69931162D01*
X179138833Y-69930838D01*
X178795057Y-70072883D01*
X178531808Y-70335673D01*
X178389162Y-70679201D01*
X178388838Y-71051167D01*
X177529311Y-71051167D01*
X177314327Y-70835808D01*
X176970799Y-70693162D01*
X176598833Y-70692838D01*
X176255057Y-70834883D01*
X175991808Y-71097673D01*
X175849162Y-71441201D01*
X175848838Y-71813167D01*
X172638839Y-71813167D01*
X172639162Y-71442833D01*
X172497117Y-71099057D01*
X172449311Y-71051167D01*
X173308838Y-71051167D01*
X173450883Y-71394943D01*
X173713673Y-71658192D01*
X174057201Y-71800838D01*
X174429167Y-71801162D01*
X174772943Y-71659117D01*
X175036192Y-71396327D01*
X175178838Y-71052799D01*
X175179162Y-70680833D01*
X175037117Y-70337057D01*
X174774327Y-70073808D01*
X174430799Y-69931162D01*
X174058833Y-69930838D01*
X173715057Y-70072883D01*
X173451808Y-70335673D01*
X173309162Y-70679201D01*
X173308838Y-71051167D01*
X172449311Y-71051167D01*
X172234327Y-70835808D01*
X171890799Y-70693162D01*
X171518833Y-70692838D01*
X171175057Y-70834883D01*
X170911808Y-71097673D01*
X170769162Y-71441201D01*
X170768838Y-71813167D01*
X167558839Y-71813167D01*
X167559162Y-71442833D01*
X167417117Y-71099057D01*
X167369311Y-71051167D01*
X168228838Y-71051167D01*
X168370883Y-71394943D01*
X168633673Y-71658192D01*
X168977201Y-71800838D01*
X169349167Y-71801162D01*
X169692943Y-71659117D01*
X169956192Y-71396327D01*
X170098838Y-71052799D01*
X170099162Y-70680833D01*
X169957117Y-70337057D01*
X169694327Y-70073808D01*
X169350799Y-69931162D01*
X168978833Y-69930838D01*
X168635057Y-70072883D01*
X168371808Y-70335673D01*
X168229162Y-70679201D01*
X168228838Y-71051167D01*
X167369311Y-71051167D01*
X167154327Y-70835808D01*
X166810799Y-70693162D01*
X166438833Y-70692838D01*
X166095057Y-70834883D01*
X165831808Y-71097673D01*
X165689162Y-71441201D01*
X165688838Y-71813167D01*
X164338000Y-71813167D01*
X164338000Y-69527167D01*
X165688838Y-69527167D01*
X165830883Y-69870943D01*
X166093673Y-70134192D01*
X166437201Y-70276838D01*
X166809167Y-70277162D01*
X167152943Y-70135117D01*
X167416192Y-69872327D01*
X167558838Y-69528799D01*
X167558839Y-69527167D01*
X170768838Y-69527167D01*
X170910883Y-69870943D01*
X171173673Y-70134192D01*
X171517201Y-70276838D01*
X171889167Y-70277162D01*
X172232943Y-70135117D01*
X172496192Y-69872327D01*
X172638838Y-69528799D01*
X172638839Y-69527167D01*
X175848838Y-69527167D01*
X175990883Y-69870943D01*
X176253673Y-70134192D01*
X176597201Y-70276838D01*
X176969167Y-70277162D01*
X177312943Y-70135117D01*
X177576192Y-69872327D01*
X177718838Y-69528799D01*
X177718839Y-69527167D01*
X180928838Y-69527167D01*
X181070883Y-69870943D01*
X181333673Y-70134192D01*
X181677201Y-70276838D01*
X182049167Y-70277162D01*
X182392943Y-70135117D01*
X182656192Y-69872327D01*
X182798838Y-69528799D01*
X182798839Y-69527167D01*
X186008838Y-69527167D01*
X186150883Y-69870943D01*
X186413673Y-70134192D01*
X186757201Y-70276838D01*
X187129167Y-70277162D01*
X187472943Y-70135117D01*
X187736192Y-69872327D01*
X187878838Y-69528799D01*
X187878839Y-69527167D01*
X191088838Y-69527167D01*
X191230883Y-69870943D01*
X191493673Y-70134192D01*
X191837201Y-70276838D01*
X192209167Y-70277162D01*
X192552943Y-70135117D01*
X192816192Y-69872327D01*
X192958838Y-69528799D01*
X192958839Y-69527167D01*
X196168838Y-69527167D01*
X196310883Y-69870943D01*
X196573673Y-70134192D01*
X196917201Y-70276838D01*
X197289167Y-70277162D01*
X197632943Y-70135117D01*
X197896192Y-69872327D01*
X198038838Y-69528799D01*
X198038839Y-69527167D01*
X201248838Y-69527167D01*
X201390883Y-69870943D01*
X201653673Y-70134192D01*
X201997201Y-70276838D01*
X202369167Y-70277162D01*
X202712943Y-70135117D01*
X202976192Y-69872327D01*
X203118838Y-69528799D01*
X203118839Y-69527167D01*
X206328838Y-69527167D01*
X206470883Y-69870943D01*
X206733673Y-70134192D01*
X207077201Y-70276838D01*
X207449167Y-70277162D01*
X207792943Y-70135117D01*
X208056192Y-69872327D01*
X208198838Y-69528799D01*
X208198839Y-69527167D01*
X211408838Y-69527167D01*
X211550883Y-69870943D01*
X211813673Y-70134192D01*
X212157201Y-70276838D01*
X212529167Y-70277162D01*
X212872943Y-70135117D01*
X213136192Y-69872327D01*
X213278838Y-69528799D01*
X213279162Y-69156833D01*
X213137117Y-68813057D01*
X212874327Y-68549808D01*
X212530799Y-68407162D01*
X212158833Y-68406838D01*
X211815057Y-68548883D01*
X211551808Y-68811673D01*
X211409162Y-69155201D01*
X211408838Y-69527167D01*
X208198839Y-69527167D01*
X208199162Y-69156833D01*
X208057117Y-68813057D01*
X207794327Y-68549808D01*
X207701270Y-68511167D01*
X208868838Y-68511167D01*
X209010883Y-68854943D01*
X209273673Y-69118192D01*
X209617201Y-69260838D01*
X209989167Y-69261162D01*
X210332943Y-69119117D01*
X210596192Y-68856327D01*
X210738838Y-68512799D01*
X210739162Y-68140833D01*
X210597117Y-67797057D01*
X210334327Y-67533808D01*
X209990799Y-67391162D01*
X209618833Y-67390838D01*
X209275057Y-67532883D01*
X209011808Y-67795673D01*
X208869162Y-68139201D01*
X208868838Y-68511167D01*
X207701270Y-68511167D01*
X207450799Y-68407162D01*
X207078833Y-68406838D01*
X206735057Y-68548883D01*
X206471808Y-68811673D01*
X206329162Y-69155201D01*
X206328838Y-69527167D01*
X203118839Y-69527167D01*
X203119162Y-69156833D01*
X202977117Y-68813057D01*
X202714327Y-68549808D01*
X202621270Y-68511167D01*
X203788838Y-68511167D01*
X203930883Y-68854943D01*
X204193673Y-69118192D01*
X204537201Y-69260838D01*
X204909167Y-69261162D01*
X205252943Y-69119117D01*
X205516192Y-68856327D01*
X205658838Y-68512799D01*
X205659162Y-68140833D01*
X205517117Y-67797057D01*
X205254327Y-67533808D01*
X204910799Y-67391162D01*
X204538833Y-67390838D01*
X204195057Y-67532883D01*
X203931808Y-67795673D01*
X203789162Y-68139201D01*
X203788838Y-68511167D01*
X202621270Y-68511167D01*
X202370799Y-68407162D01*
X201998833Y-68406838D01*
X201655057Y-68548883D01*
X201391808Y-68811673D01*
X201249162Y-69155201D01*
X201248838Y-69527167D01*
X198038839Y-69527167D01*
X198039162Y-69156833D01*
X197897117Y-68813057D01*
X197634327Y-68549808D01*
X197541270Y-68511167D01*
X198708838Y-68511167D01*
X198850883Y-68854943D01*
X199113673Y-69118192D01*
X199457201Y-69260838D01*
X199829167Y-69261162D01*
X200172943Y-69119117D01*
X200436192Y-68856327D01*
X200578838Y-68512799D01*
X200579162Y-68140833D01*
X200437117Y-67797057D01*
X200174327Y-67533808D01*
X199830799Y-67391162D01*
X199458833Y-67390838D01*
X199115057Y-67532883D01*
X198851808Y-67795673D01*
X198709162Y-68139201D01*
X198708838Y-68511167D01*
X197541270Y-68511167D01*
X197290799Y-68407162D01*
X196918833Y-68406838D01*
X196575057Y-68548883D01*
X196311808Y-68811673D01*
X196169162Y-69155201D01*
X196168838Y-69527167D01*
X192958839Y-69527167D01*
X192959162Y-69156833D01*
X192817117Y-68813057D01*
X192554327Y-68549808D01*
X192461270Y-68511167D01*
X193628838Y-68511167D01*
X193770883Y-68854943D01*
X194033673Y-69118192D01*
X194377201Y-69260838D01*
X194749167Y-69261162D01*
X195092943Y-69119117D01*
X195356192Y-68856327D01*
X195498838Y-68512799D01*
X195499162Y-68140833D01*
X195357117Y-67797057D01*
X195094327Y-67533808D01*
X194750799Y-67391162D01*
X194378833Y-67390838D01*
X194035057Y-67532883D01*
X193771808Y-67795673D01*
X193629162Y-68139201D01*
X193628838Y-68511167D01*
X192461270Y-68511167D01*
X192210799Y-68407162D01*
X191838833Y-68406838D01*
X191495057Y-68548883D01*
X191231808Y-68811673D01*
X191089162Y-69155201D01*
X191088838Y-69527167D01*
X187878839Y-69527167D01*
X187879162Y-69156833D01*
X187737117Y-68813057D01*
X187474327Y-68549808D01*
X187381270Y-68511167D01*
X188548838Y-68511167D01*
X188690883Y-68854943D01*
X188953673Y-69118192D01*
X189297201Y-69260838D01*
X189669167Y-69261162D01*
X190012943Y-69119117D01*
X190276192Y-68856327D01*
X190418838Y-68512799D01*
X190419162Y-68140833D01*
X190277117Y-67797057D01*
X190014327Y-67533808D01*
X189670799Y-67391162D01*
X189298833Y-67390838D01*
X188955057Y-67532883D01*
X188691808Y-67795673D01*
X188549162Y-68139201D01*
X188548838Y-68511167D01*
X187381270Y-68511167D01*
X187130799Y-68407162D01*
X186758833Y-68406838D01*
X186415057Y-68548883D01*
X186151808Y-68811673D01*
X186009162Y-69155201D01*
X186008838Y-69527167D01*
X182798839Y-69527167D01*
X182799162Y-69156833D01*
X182657117Y-68813057D01*
X182394327Y-68549808D01*
X182301270Y-68511167D01*
X183468838Y-68511167D01*
X183610883Y-68854943D01*
X183873673Y-69118192D01*
X184217201Y-69260838D01*
X184589167Y-69261162D01*
X184932943Y-69119117D01*
X185196192Y-68856327D01*
X185338838Y-68512799D01*
X185339162Y-68140833D01*
X185197117Y-67797057D01*
X184934327Y-67533808D01*
X184590799Y-67391162D01*
X184218833Y-67390838D01*
X183875057Y-67532883D01*
X183611808Y-67795673D01*
X183469162Y-68139201D01*
X183468838Y-68511167D01*
X182301270Y-68511167D01*
X182050799Y-68407162D01*
X181678833Y-68406838D01*
X181335057Y-68548883D01*
X181071808Y-68811673D01*
X180929162Y-69155201D01*
X180928838Y-69527167D01*
X177718839Y-69527167D01*
X177719162Y-69156833D01*
X177577117Y-68813057D01*
X177529311Y-68765167D01*
X178388838Y-68765167D01*
X178530883Y-69108943D01*
X178793673Y-69372192D01*
X179137201Y-69514838D01*
X179509167Y-69515162D01*
X179852943Y-69373117D01*
X180116192Y-69110327D01*
X180258838Y-68766799D01*
X180259162Y-68394833D01*
X180117117Y-68051057D01*
X179854327Y-67787808D01*
X179510799Y-67645162D01*
X179138833Y-67644838D01*
X178795057Y-67786883D01*
X178531808Y-68049673D01*
X178389162Y-68393201D01*
X178388838Y-68765167D01*
X177529311Y-68765167D01*
X177314327Y-68549808D01*
X176970799Y-68407162D01*
X176598833Y-68406838D01*
X176255057Y-68548883D01*
X175991808Y-68811673D01*
X175849162Y-69155201D01*
X175848838Y-69527167D01*
X172638839Y-69527167D01*
X172639162Y-69156833D01*
X172497117Y-68813057D01*
X172449311Y-68765167D01*
X173308838Y-68765167D01*
X173450883Y-69108943D01*
X173713673Y-69372192D01*
X174057201Y-69514838D01*
X174429167Y-69515162D01*
X174772943Y-69373117D01*
X175036192Y-69110327D01*
X175178838Y-68766799D01*
X175179162Y-68394833D01*
X175037117Y-68051057D01*
X174774327Y-67787808D01*
X174430799Y-67645162D01*
X174058833Y-67644838D01*
X173715057Y-67786883D01*
X173451808Y-68049673D01*
X173309162Y-68393201D01*
X173308838Y-68765167D01*
X172449311Y-68765167D01*
X172234327Y-68549808D01*
X171890799Y-68407162D01*
X171518833Y-68406838D01*
X171175057Y-68548883D01*
X170911808Y-68811673D01*
X170769162Y-69155201D01*
X170768838Y-69527167D01*
X167558839Y-69527167D01*
X167559162Y-69156833D01*
X167417117Y-68813057D01*
X167369311Y-68765167D01*
X168228838Y-68765167D01*
X168370883Y-69108943D01*
X168633673Y-69372192D01*
X168977201Y-69514838D01*
X169349167Y-69515162D01*
X169692943Y-69373117D01*
X169956192Y-69110327D01*
X170098838Y-68766799D01*
X170099162Y-68394833D01*
X169957117Y-68051057D01*
X169694327Y-67787808D01*
X169350799Y-67645162D01*
X168978833Y-67644838D01*
X168635057Y-67786883D01*
X168371808Y-68049673D01*
X168229162Y-68393201D01*
X168228838Y-68765167D01*
X167369311Y-68765167D01*
X167154327Y-68549808D01*
X166810799Y-68407162D01*
X166438833Y-68406838D01*
X166095057Y-68548883D01*
X165831808Y-68811673D01*
X165689162Y-69155201D01*
X165688838Y-69527167D01*
X164338000Y-69527167D01*
X164338000Y-67183000D01*
X214884000Y-67183000D01*
X214884000Y-85979000D01*
X214884000Y-85979000D01*
G37*
X214884000Y-85979000D02*
X164338000Y-85979000D01*
X164338000Y-84767167D01*
X168228838Y-84767167D01*
X168370883Y-85110943D01*
X168633673Y-85374192D01*
X168977201Y-85516838D01*
X169349167Y-85517162D01*
X169692943Y-85375117D01*
X169956192Y-85112327D01*
X170098838Y-84768799D01*
X170098839Y-84767167D01*
X173308838Y-84767167D01*
X173450883Y-85110943D01*
X173713673Y-85374192D01*
X174057201Y-85516838D01*
X174429167Y-85517162D01*
X174772943Y-85375117D01*
X175036192Y-85112327D01*
X175178838Y-84768799D01*
X175178839Y-84767167D01*
X178388838Y-84767167D01*
X178530883Y-85110943D01*
X178793673Y-85374192D01*
X179137201Y-85516838D01*
X179509167Y-85517162D01*
X179852943Y-85375117D01*
X180116192Y-85112327D01*
X180258838Y-84768799D01*
X180258839Y-84767167D01*
X183468838Y-84767167D01*
X183610883Y-85110943D01*
X183873673Y-85374192D01*
X184217201Y-85516838D01*
X184589167Y-85517162D01*
X184932943Y-85375117D01*
X185196192Y-85112327D01*
X185338838Y-84768799D01*
X185338839Y-84767167D01*
X188548838Y-84767167D01*
X188690883Y-85110943D01*
X188953673Y-85374192D01*
X189297201Y-85516838D01*
X189669167Y-85517162D01*
X190012943Y-85375117D01*
X190276192Y-85112327D01*
X190418838Y-84768799D01*
X190419060Y-84513167D01*
X193628838Y-84513167D01*
X193770883Y-84856943D01*
X194033673Y-85120192D01*
X194377201Y-85262838D01*
X194749167Y-85263162D01*
X195092943Y-85121117D01*
X195356192Y-84858327D01*
X195498838Y-84514799D01*
X195498839Y-84513167D01*
X198708838Y-84513167D01*
X198850883Y-84856943D01*
X199113673Y-85120192D01*
X199457201Y-85262838D01*
X199829167Y-85263162D01*
X200172943Y-85121117D01*
X200436192Y-84858327D01*
X200578838Y-84514799D01*
X200578839Y-84513167D01*
X203788838Y-84513167D01*
X203930883Y-84856943D01*
X204193673Y-85120192D01*
X204537201Y-85262838D01*
X204909167Y-85263162D01*
X205252943Y-85121117D01*
X205516192Y-84858327D01*
X205658838Y-84514799D01*
X205658839Y-84513167D01*
X208868838Y-84513167D01*
X209010883Y-84856943D01*
X209273673Y-85120192D01*
X209617201Y-85262838D01*
X209989167Y-85263162D01*
X210332943Y-85121117D01*
X210596192Y-84858327D01*
X210738838Y-84514799D01*
X210739162Y-84142833D01*
X210597117Y-83799057D01*
X210334327Y-83535808D01*
X209990799Y-83393162D01*
X209618833Y-83392838D01*
X209275057Y-83534883D01*
X209011808Y-83797673D01*
X208869162Y-84141201D01*
X208868838Y-84513167D01*
X205658839Y-84513167D01*
X205659162Y-84142833D01*
X205517117Y-83799057D01*
X205254327Y-83535808D01*
X204910799Y-83393162D01*
X204538833Y-83392838D01*
X204195057Y-83534883D01*
X203931808Y-83797673D01*
X203789162Y-84141201D01*
X203788838Y-84513167D01*
X200578839Y-84513167D01*
X200579162Y-84142833D01*
X200437117Y-83799057D01*
X200174327Y-83535808D01*
X199830799Y-83393162D01*
X199458833Y-83392838D01*
X199115057Y-83534883D01*
X198851808Y-83797673D01*
X198709162Y-84141201D01*
X198708838Y-84513167D01*
X195498839Y-84513167D01*
X195499162Y-84142833D01*
X195357117Y-83799057D01*
X195094327Y-83535808D01*
X194750799Y-83393162D01*
X194378833Y-83392838D01*
X194035057Y-83534883D01*
X193771808Y-83797673D01*
X193629162Y-84141201D01*
X193628838Y-84513167D01*
X190419060Y-84513167D01*
X190419162Y-84396833D01*
X190277117Y-84053057D01*
X190014327Y-83789808D01*
X189670799Y-83647162D01*
X189298833Y-83646838D01*
X188955057Y-83788883D01*
X188691808Y-84051673D01*
X188549162Y-84395201D01*
X188548838Y-84767167D01*
X185338839Y-84767167D01*
X185339162Y-84396833D01*
X185197117Y-84053057D01*
X184934327Y-83789808D01*
X184590799Y-83647162D01*
X184218833Y-83646838D01*
X183875057Y-83788883D01*
X183611808Y-84051673D01*
X183469162Y-84395201D01*
X183468838Y-84767167D01*
X180258839Y-84767167D01*
X180259162Y-84396833D01*
X180117117Y-84053057D01*
X179854327Y-83789808D01*
X179510799Y-83647162D01*
X179138833Y-83646838D01*
X178795057Y-83788883D01*
X178531808Y-84051673D01*
X178389162Y-84395201D01*
X178388838Y-84767167D01*
X175178839Y-84767167D01*
X175179162Y-84396833D01*
X175037117Y-84053057D01*
X174774327Y-83789808D01*
X174430799Y-83647162D01*
X174058833Y-83646838D01*
X173715057Y-83788883D01*
X173451808Y-84051673D01*
X173309162Y-84395201D01*
X173308838Y-84767167D01*
X170098839Y-84767167D01*
X170099162Y-84396833D01*
X169957117Y-84053057D01*
X169694327Y-83789808D01*
X169350799Y-83647162D01*
X168978833Y-83646838D01*
X168635057Y-83788883D01*
X168371808Y-84051673D01*
X168229162Y-84395201D01*
X168228838Y-84767167D01*
X164338000Y-84767167D01*
X164338000Y-83243167D01*
X165688838Y-83243167D01*
X165830883Y-83586943D01*
X166093673Y-83850192D01*
X166437201Y-83992838D01*
X166809167Y-83993162D01*
X167152943Y-83851117D01*
X167416192Y-83588327D01*
X167558838Y-83244799D01*
X167558839Y-83243167D01*
X170768838Y-83243167D01*
X170910883Y-83586943D01*
X171173673Y-83850192D01*
X171517201Y-83992838D01*
X171889167Y-83993162D01*
X172232943Y-83851117D01*
X172496192Y-83588327D01*
X172638838Y-83244799D01*
X172638839Y-83243167D01*
X175848838Y-83243167D01*
X175990883Y-83586943D01*
X176253673Y-83850192D01*
X176597201Y-83992838D01*
X176969167Y-83993162D01*
X177312943Y-83851117D01*
X177576192Y-83588327D01*
X177718838Y-83244799D01*
X177718839Y-83243167D01*
X180928838Y-83243167D01*
X181070883Y-83586943D01*
X181333673Y-83850192D01*
X181677201Y-83992838D01*
X182049167Y-83993162D01*
X182392943Y-83851117D01*
X182656192Y-83588327D01*
X182798838Y-83244799D01*
X182798839Y-83243167D01*
X186008838Y-83243167D01*
X186150883Y-83586943D01*
X186413673Y-83850192D01*
X186757201Y-83992838D01*
X187129167Y-83993162D01*
X187472943Y-83851117D01*
X187736192Y-83588327D01*
X187878838Y-83244799D01*
X187878839Y-83243167D01*
X191088838Y-83243167D01*
X191230883Y-83586943D01*
X191493673Y-83850192D01*
X191837201Y-83992838D01*
X192209167Y-83993162D01*
X192552943Y-83851117D01*
X192816192Y-83588327D01*
X192958838Y-83244799D01*
X192958839Y-83243167D01*
X196168838Y-83243167D01*
X196310883Y-83586943D01*
X196573673Y-83850192D01*
X196917201Y-83992838D01*
X197289167Y-83993162D01*
X197632943Y-83851117D01*
X197896192Y-83588327D01*
X198038838Y-83244799D01*
X198038839Y-83243167D01*
X201248838Y-83243167D01*
X201390883Y-83586943D01*
X201653673Y-83850192D01*
X201997201Y-83992838D01*
X202369167Y-83993162D01*
X202712943Y-83851117D01*
X202976192Y-83588327D01*
X203118838Y-83244799D01*
X203118839Y-83243167D01*
X206328838Y-83243167D01*
X206470883Y-83586943D01*
X206733673Y-83850192D01*
X207077201Y-83992838D01*
X207449167Y-83993162D01*
X207792943Y-83851117D01*
X208056192Y-83588327D01*
X208198838Y-83244799D01*
X208198839Y-83243167D01*
X211408838Y-83243167D01*
X211550883Y-83586943D01*
X211813673Y-83850192D01*
X212157201Y-83992838D01*
X212529167Y-83993162D01*
X212872943Y-83851117D01*
X213136192Y-83588327D01*
X213278838Y-83244799D01*
X213279162Y-82872833D01*
X213137117Y-82529057D01*
X212874327Y-82265808D01*
X212530799Y-82123162D01*
X212158833Y-82122838D01*
X211815057Y-82264883D01*
X211551808Y-82527673D01*
X211409162Y-82871201D01*
X211408838Y-83243167D01*
X208198839Y-83243167D01*
X208199162Y-82872833D01*
X208057117Y-82529057D01*
X207794327Y-82265808D01*
X207701270Y-82227167D01*
X208868838Y-82227167D01*
X209010883Y-82570943D01*
X209273673Y-82834192D01*
X209617201Y-82976838D01*
X209989167Y-82977162D01*
X210332943Y-82835117D01*
X210596192Y-82572327D01*
X210738838Y-82228799D01*
X210739162Y-81856833D01*
X210597117Y-81513057D01*
X210334327Y-81249808D01*
X209990799Y-81107162D01*
X209618833Y-81106838D01*
X209275057Y-81248883D01*
X209011808Y-81511673D01*
X208869162Y-81855201D01*
X208868838Y-82227167D01*
X207701270Y-82227167D01*
X207450799Y-82123162D01*
X207078833Y-82122838D01*
X206735057Y-82264883D01*
X206471808Y-82527673D01*
X206329162Y-82871201D01*
X206328838Y-83243167D01*
X203118839Y-83243167D01*
X203119162Y-82872833D01*
X202977117Y-82529057D01*
X202714327Y-82265808D01*
X202621270Y-82227167D01*
X203788838Y-82227167D01*
X203930883Y-82570943D01*
X204193673Y-82834192D01*
X204537201Y-82976838D01*
X204909167Y-82977162D01*
X205252943Y-82835117D01*
X205516192Y-82572327D01*
X205658838Y-82228799D01*
X205659162Y-81856833D01*
X205517117Y-81513057D01*
X205254327Y-81249808D01*
X204910799Y-81107162D01*
X204538833Y-81106838D01*
X204195057Y-81248883D01*
X203931808Y-81511673D01*
X203789162Y-81855201D01*
X203788838Y-82227167D01*
X202621270Y-82227167D01*
X202370799Y-82123162D01*
X201998833Y-82122838D01*
X201655057Y-82264883D01*
X201391808Y-82527673D01*
X201249162Y-82871201D01*
X201248838Y-83243167D01*
X198038839Y-83243167D01*
X198039162Y-82872833D01*
X197897117Y-82529057D01*
X197634327Y-82265808D01*
X197541270Y-82227167D01*
X198708838Y-82227167D01*
X198850883Y-82570943D01*
X199113673Y-82834192D01*
X199457201Y-82976838D01*
X199829167Y-82977162D01*
X200172943Y-82835117D01*
X200436192Y-82572327D01*
X200578838Y-82228799D01*
X200579162Y-81856833D01*
X200437117Y-81513057D01*
X200174327Y-81249808D01*
X199830799Y-81107162D01*
X199458833Y-81106838D01*
X199115057Y-81248883D01*
X198851808Y-81511673D01*
X198709162Y-81855201D01*
X198708838Y-82227167D01*
X197541270Y-82227167D01*
X197290799Y-82123162D01*
X196918833Y-82122838D01*
X196575057Y-82264883D01*
X196311808Y-82527673D01*
X196169162Y-82871201D01*
X196168838Y-83243167D01*
X192958839Y-83243167D01*
X192959162Y-82872833D01*
X192817117Y-82529057D01*
X192554327Y-82265808D01*
X192461270Y-82227167D01*
X193628838Y-82227167D01*
X193770883Y-82570943D01*
X194033673Y-82834192D01*
X194377201Y-82976838D01*
X194749167Y-82977162D01*
X195092943Y-82835117D01*
X195356192Y-82572327D01*
X195498838Y-82228799D01*
X195499162Y-81856833D01*
X195357117Y-81513057D01*
X195094327Y-81249808D01*
X194750799Y-81107162D01*
X194378833Y-81106838D01*
X194035057Y-81248883D01*
X193771808Y-81511673D01*
X193629162Y-81855201D01*
X193628838Y-82227167D01*
X192461270Y-82227167D01*
X192210799Y-82123162D01*
X191838833Y-82122838D01*
X191495057Y-82264883D01*
X191231808Y-82527673D01*
X191089162Y-82871201D01*
X191088838Y-83243167D01*
X187878839Y-83243167D01*
X187879162Y-82872833D01*
X187737117Y-82529057D01*
X187474327Y-82265808D01*
X187130799Y-82123162D01*
X186758833Y-82122838D01*
X186415057Y-82264883D01*
X186151808Y-82527673D01*
X186009162Y-82871201D01*
X186008838Y-83243167D01*
X182798839Y-83243167D01*
X182799162Y-82872833D01*
X182657117Y-82529057D01*
X182609311Y-82481167D01*
X183468838Y-82481167D01*
X183610883Y-82824943D01*
X183873673Y-83088192D01*
X184217201Y-83230838D01*
X184589167Y-83231162D01*
X184932943Y-83089117D01*
X185196192Y-82826327D01*
X185338838Y-82482799D01*
X185339162Y-82110833D01*
X185197117Y-81767057D01*
X184934327Y-81503808D01*
X184590799Y-81361162D01*
X184218833Y-81360838D01*
X183875057Y-81502883D01*
X183611808Y-81765673D01*
X183469162Y-82109201D01*
X183468838Y-82481167D01*
X182609311Y-82481167D01*
X182394327Y-82265808D01*
X182050799Y-82123162D01*
X181678833Y-82122838D01*
X181335057Y-82264883D01*
X181071808Y-82527673D01*
X180929162Y-82871201D01*
X180928838Y-83243167D01*
X177718839Y-83243167D01*
X177719162Y-82872833D01*
X177577117Y-82529057D01*
X177529311Y-82481167D01*
X178388838Y-82481167D01*
X178530883Y-82824943D01*
X178793673Y-83088192D01*
X179137201Y-83230838D01*
X179509167Y-83231162D01*
X179852943Y-83089117D01*
X180116192Y-82826327D01*
X180258838Y-82482799D01*
X180259162Y-82110833D01*
X180117117Y-81767057D01*
X179854327Y-81503808D01*
X179510799Y-81361162D01*
X179138833Y-81360838D01*
X178795057Y-81502883D01*
X178531808Y-81765673D01*
X178389162Y-82109201D01*
X178388838Y-82481167D01*
X177529311Y-82481167D01*
X177314327Y-82265808D01*
X176970799Y-82123162D01*
X176598833Y-82122838D01*
X176255057Y-82264883D01*
X175991808Y-82527673D01*
X175849162Y-82871201D01*
X175848838Y-83243167D01*
X172638839Y-83243167D01*
X172639162Y-82872833D01*
X172497117Y-82529057D01*
X172449311Y-82481167D01*
X173308838Y-82481167D01*
X173450883Y-82824943D01*
X173713673Y-83088192D01*
X174057201Y-83230838D01*
X174429167Y-83231162D01*
X174772943Y-83089117D01*
X175036192Y-82826327D01*
X175178838Y-82482799D01*
X175179162Y-82110833D01*
X175037117Y-81767057D01*
X174774327Y-81503808D01*
X174430799Y-81361162D01*
X174058833Y-81360838D01*
X173715057Y-81502883D01*
X173451808Y-81765673D01*
X173309162Y-82109201D01*
X173308838Y-82481167D01*
X172449311Y-82481167D01*
X172234327Y-82265808D01*
X171890799Y-82123162D01*
X171518833Y-82122838D01*
X171175057Y-82264883D01*
X170911808Y-82527673D01*
X170769162Y-82871201D01*
X170768838Y-83243167D01*
X167558839Y-83243167D01*
X167559162Y-82872833D01*
X167417117Y-82529057D01*
X167369311Y-82481167D01*
X168228838Y-82481167D01*
X168370883Y-82824943D01*
X168633673Y-83088192D01*
X168977201Y-83230838D01*
X169349167Y-83231162D01*
X169692943Y-83089117D01*
X169956192Y-82826327D01*
X170098838Y-82482799D01*
X170099162Y-82110833D01*
X169957117Y-81767057D01*
X169694327Y-81503808D01*
X169350799Y-81361162D01*
X168978833Y-81360838D01*
X168635057Y-81502883D01*
X168371808Y-81765673D01*
X168229162Y-82109201D01*
X168228838Y-82481167D01*
X167369311Y-82481167D01*
X167154327Y-82265808D01*
X166810799Y-82123162D01*
X166438833Y-82122838D01*
X166095057Y-82264883D01*
X165831808Y-82527673D01*
X165689162Y-82871201D01*
X165688838Y-83243167D01*
X164338000Y-83243167D01*
X164338000Y-80957167D01*
X165688838Y-80957167D01*
X165830883Y-81300943D01*
X166093673Y-81564192D01*
X166437201Y-81706838D01*
X166809167Y-81707162D01*
X167152943Y-81565117D01*
X167416192Y-81302327D01*
X167558838Y-80958799D01*
X167558839Y-80957167D01*
X170768838Y-80957167D01*
X170910883Y-81300943D01*
X171173673Y-81564192D01*
X171517201Y-81706838D01*
X171889167Y-81707162D01*
X172232943Y-81565117D01*
X172496192Y-81302327D01*
X172638838Y-80958799D01*
X172638839Y-80957167D01*
X175848838Y-80957167D01*
X175990883Y-81300943D01*
X176253673Y-81564192D01*
X176597201Y-81706838D01*
X176969167Y-81707162D01*
X177312943Y-81565117D01*
X177576192Y-81302327D01*
X177718838Y-80958799D01*
X177718839Y-80957167D01*
X180928838Y-80957167D01*
X181070883Y-81300943D01*
X181333673Y-81564192D01*
X181677201Y-81706838D01*
X182049167Y-81707162D01*
X182392943Y-81565117D01*
X182656192Y-81302327D01*
X182798838Y-80958799D01*
X182799162Y-80586833D01*
X182657117Y-80243057D01*
X182609311Y-80195167D01*
X183468838Y-80195167D01*
X183610883Y-80538943D01*
X183873673Y-80802192D01*
X184217201Y-80944838D01*
X184589167Y-80945162D01*
X184932943Y-80803117D01*
X185196192Y-80540327D01*
X185338838Y-80196799D01*
X185339162Y-79824833D01*
X185197117Y-79481057D01*
X184934327Y-79217808D01*
X184590799Y-79075162D01*
X184218833Y-79074838D01*
X183875057Y-79216883D01*
X183611808Y-79479673D01*
X183469162Y-79823201D01*
X183468838Y-80195167D01*
X182609311Y-80195167D01*
X182394327Y-79979808D01*
X182050799Y-79837162D01*
X181678833Y-79836838D01*
X181335057Y-79978883D01*
X181071808Y-80241673D01*
X180929162Y-80585201D01*
X180928838Y-80957167D01*
X177718839Y-80957167D01*
X177719162Y-80586833D01*
X177577117Y-80243057D01*
X177529311Y-80195167D01*
X178388838Y-80195167D01*
X178530883Y-80538943D01*
X178793673Y-80802192D01*
X179137201Y-80944838D01*
X179509167Y-80945162D01*
X179852943Y-80803117D01*
X180116192Y-80540327D01*
X180258838Y-80196799D01*
X180259162Y-79824833D01*
X180117117Y-79481057D01*
X179854327Y-79217808D01*
X179510799Y-79075162D01*
X179138833Y-79074838D01*
X178795057Y-79216883D01*
X178531808Y-79479673D01*
X178389162Y-79823201D01*
X178388838Y-80195167D01*
X177529311Y-80195167D01*
X177314327Y-79979808D01*
X176970799Y-79837162D01*
X176598833Y-79836838D01*
X176255057Y-79978883D01*
X175991808Y-80241673D01*
X175849162Y-80585201D01*
X175848838Y-80957167D01*
X172638839Y-80957167D01*
X172639162Y-80586833D01*
X172497117Y-80243057D01*
X172449311Y-80195167D01*
X173308838Y-80195167D01*
X173450883Y-80538943D01*
X173713673Y-80802192D01*
X174057201Y-80944838D01*
X174429167Y-80945162D01*
X174772943Y-80803117D01*
X175036192Y-80540327D01*
X175178838Y-80196799D01*
X175179162Y-79824833D01*
X175037117Y-79481057D01*
X174774327Y-79217808D01*
X174430799Y-79075162D01*
X174058833Y-79074838D01*
X173715057Y-79216883D01*
X173451808Y-79479673D01*
X173309162Y-79823201D01*
X173308838Y-80195167D01*
X172449311Y-80195167D01*
X172234327Y-79979808D01*
X171890799Y-79837162D01*
X171518833Y-79836838D01*
X171175057Y-79978883D01*
X170911808Y-80241673D01*
X170769162Y-80585201D01*
X170768838Y-80957167D01*
X167558839Y-80957167D01*
X167559162Y-80586833D01*
X167417117Y-80243057D01*
X167369311Y-80195167D01*
X168228838Y-80195167D01*
X168370883Y-80538943D01*
X168633673Y-80802192D01*
X168977201Y-80944838D01*
X169349167Y-80945162D01*
X169692943Y-80803117D01*
X169956192Y-80540327D01*
X170098838Y-80196799D01*
X170099162Y-79824833D01*
X169957117Y-79481057D01*
X169694327Y-79217808D01*
X169350799Y-79075162D01*
X168978833Y-79074838D01*
X168635057Y-79216883D01*
X168371808Y-79479673D01*
X168229162Y-79823201D01*
X168228838Y-80195167D01*
X167369311Y-80195167D01*
X167154327Y-79979808D01*
X166810799Y-79837162D01*
X166438833Y-79836838D01*
X166095057Y-79978883D01*
X165831808Y-80241673D01*
X165689162Y-80585201D01*
X165688838Y-80957167D01*
X164338000Y-80957167D01*
X164338000Y-78671167D01*
X165688838Y-78671167D01*
X165830883Y-79014943D01*
X166093673Y-79278192D01*
X166437201Y-79420838D01*
X166809167Y-79421162D01*
X167152943Y-79279117D01*
X167416192Y-79016327D01*
X167558838Y-78672799D01*
X167558839Y-78671167D01*
X170768838Y-78671167D01*
X170910883Y-79014943D01*
X171173673Y-79278192D01*
X171517201Y-79420838D01*
X171889167Y-79421162D01*
X172232943Y-79279117D01*
X172496192Y-79016327D01*
X172638838Y-78672799D01*
X172638839Y-78671167D01*
X175848838Y-78671167D01*
X175990883Y-79014943D01*
X176253673Y-79278192D01*
X176597201Y-79420838D01*
X176969167Y-79421162D01*
X177312943Y-79279117D01*
X177576192Y-79016327D01*
X177718838Y-78672799D01*
X177718839Y-78671167D01*
X180928838Y-78671167D01*
X181070883Y-79014943D01*
X181333673Y-79278192D01*
X181677201Y-79420838D01*
X182049167Y-79421162D01*
X182392943Y-79279117D01*
X182656192Y-79016327D01*
X182798838Y-78672799D01*
X182798839Y-78671167D01*
X186008838Y-78671167D01*
X186150883Y-79014943D01*
X186413673Y-79278192D01*
X186757201Y-79420838D01*
X187129167Y-79421162D01*
X187171033Y-79403864D01*
X187186905Y-79483659D01*
X187186583Y-79852870D01*
X187190302Y-79861870D01*
X187130799Y-79837162D01*
X186758833Y-79836838D01*
X186415057Y-79978883D01*
X186151808Y-80241673D01*
X186009162Y-80585201D01*
X186008838Y-80957167D01*
X186150883Y-81300943D01*
X186413673Y-81564192D01*
X186757201Y-81706838D01*
X187129167Y-81707162D01*
X187472943Y-81565117D01*
X187736192Y-81302327D01*
X187844104Y-81042446D01*
X187866825Y-81076450D01*
X187933300Y-81120867D01*
X188231361Y-81419449D01*
X188624431Y-81582666D01*
X188640575Y-81593453D01*
X188659452Y-81597208D01*
X189117919Y-81787580D01*
X190077870Y-81788417D01*
X190540709Y-81597176D01*
X190559425Y-81593453D01*
X190575153Y-81582944D01*
X190965069Y-81421834D01*
X191266282Y-81121147D01*
X191333175Y-81076450D01*
X191377481Y-81010141D01*
X191416373Y-80971317D01*
X191421383Y-80983443D01*
X191684173Y-81246692D01*
X192027701Y-81389338D01*
X192399667Y-81389662D01*
X192743443Y-81247617D01*
X193006692Y-80984827D01*
X193018177Y-80957167D01*
X196168838Y-80957167D01*
X196310883Y-81300943D01*
X196573673Y-81564192D01*
X196917201Y-81706838D01*
X197289167Y-81707162D01*
X197632943Y-81565117D01*
X197896192Y-81302327D01*
X198038838Y-80958799D01*
X198038839Y-80957167D01*
X201248838Y-80957167D01*
X201390883Y-81300943D01*
X201653673Y-81564192D01*
X201997201Y-81706838D01*
X202369167Y-81707162D01*
X202712943Y-81565117D01*
X202976192Y-81302327D01*
X203118838Y-80958799D01*
X203118839Y-80957167D01*
X206328838Y-80957167D01*
X206470883Y-81300943D01*
X206733673Y-81564192D01*
X207077201Y-81706838D01*
X207449167Y-81707162D01*
X207792943Y-81565117D01*
X208056192Y-81302327D01*
X208198838Y-80958799D01*
X208198839Y-80957167D01*
X211408838Y-80957167D01*
X211550883Y-81300943D01*
X211813673Y-81564192D01*
X212157201Y-81706838D01*
X212529167Y-81707162D01*
X212872943Y-81565117D01*
X213136192Y-81302327D01*
X213278838Y-80958799D01*
X213279162Y-80586833D01*
X213137117Y-80243057D01*
X212874327Y-79979808D01*
X212530799Y-79837162D01*
X212158833Y-79836838D01*
X211815057Y-79978883D01*
X211551808Y-80241673D01*
X211409162Y-80585201D01*
X211408838Y-80957167D01*
X208198839Y-80957167D01*
X208199162Y-80586833D01*
X208057117Y-80243057D01*
X207794327Y-79979808D01*
X207701270Y-79941167D01*
X208868838Y-79941167D01*
X209010883Y-80284943D01*
X209273673Y-80548192D01*
X209617201Y-80690838D01*
X209989167Y-80691162D01*
X210332943Y-80549117D01*
X210596192Y-80286327D01*
X210738838Y-79942799D01*
X210739162Y-79570833D01*
X210597117Y-79227057D01*
X210334327Y-78963808D01*
X209990799Y-78821162D01*
X209618833Y-78820838D01*
X209275057Y-78962883D01*
X209011808Y-79225673D01*
X208869162Y-79569201D01*
X208868838Y-79941167D01*
X207701270Y-79941167D01*
X207450799Y-79837162D01*
X207078833Y-79836838D01*
X206735057Y-79978883D01*
X206471808Y-80241673D01*
X206329162Y-80585201D01*
X206328838Y-80957167D01*
X203118839Y-80957167D01*
X203119162Y-80586833D01*
X202977117Y-80243057D01*
X202714327Y-79979808D01*
X202621270Y-79941167D01*
X203788838Y-79941167D01*
X203930883Y-80284943D01*
X204193673Y-80548192D01*
X204537201Y-80690838D01*
X204909167Y-80691162D01*
X205252943Y-80549117D01*
X205516192Y-80286327D01*
X205658838Y-79942799D01*
X205659162Y-79570833D01*
X205517117Y-79227057D01*
X205254327Y-78963808D01*
X204910799Y-78821162D01*
X204538833Y-78820838D01*
X204195057Y-78962883D01*
X203931808Y-79225673D01*
X203789162Y-79569201D01*
X203788838Y-79941167D01*
X202621270Y-79941167D01*
X202370799Y-79837162D01*
X201998833Y-79836838D01*
X201655057Y-79978883D01*
X201391808Y-80241673D01*
X201249162Y-80585201D01*
X201248838Y-80957167D01*
X198038839Y-80957167D01*
X198039162Y-80586833D01*
X197897117Y-80243057D01*
X197634327Y-79979808D01*
X197541270Y-79941167D01*
X198708838Y-79941167D01*
X198850883Y-80284943D01*
X199113673Y-80548192D01*
X199457201Y-80690838D01*
X199829167Y-80691162D01*
X200172943Y-80549117D01*
X200436192Y-80286327D01*
X200578838Y-79942799D01*
X200579162Y-79570833D01*
X200437117Y-79227057D01*
X200174327Y-78963808D01*
X199830799Y-78821162D01*
X199458833Y-78820838D01*
X199115057Y-78962883D01*
X198851808Y-79225673D01*
X198709162Y-79569201D01*
X198708838Y-79941167D01*
X197541270Y-79941167D01*
X197290799Y-79837162D01*
X196918833Y-79836838D01*
X196575057Y-79978883D01*
X196311808Y-80241673D01*
X196169162Y-80585201D01*
X196168838Y-80957167D01*
X193018177Y-80957167D01*
X193149338Y-80641299D01*
X193149662Y-80269333D01*
X193014067Y-79941167D01*
X193628838Y-79941167D01*
X193770883Y-80284943D01*
X194033673Y-80548192D01*
X194377201Y-80690838D01*
X194749167Y-80691162D01*
X195092943Y-80549117D01*
X195356192Y-80286327D01*
X195498838Y-79942799D01*
X195499162Y-79570833D01*
X195357117Y-79227057D01*
X195094327Y-78963808D01*
X194750799Y-78821162D01*
X194378833Y-78820838D01*
X194035057Y-78962883D01*
X193771808Y-79225673D01*
X193629162Y-79569201D01*
X193628838Y-79941167D01*
X193014067Y-79941167D01*
X193007617Y-79925557D01*
X192744827Y-79662308D01*
X192401299Y-79519662D01*
X192029333Y-79519338D01*
X192012869Y-79526141D01*
X192012905Y-79484616D01*
X192031725Y-79390000D01*
X192013069Y-79296210D01*
X192013242Y-79097334D01*
X192027701Y-79103338D01*
X192399667Y-79103662D01*
X192743443Y-78961617D01*
X193006692Y-78698827D01*
X193018177Y-78671167D01*
X196168838Y-78671167D01*
X196310883Y-79014943D01*
X196573673Y-79278192D01*
X196917201Y-79420838D01*
X197289167Y-79421162D01*
X197632943Y-79279117D01*
X197896192Y-79016327D01*
X198038838Y-78672799D01*
X198038839Y-78671167D01*
X201248838Y-78671167D01*
X201390883Y-79014943D01*
X201653673Y-79278192D01*
X201997201Y-79420838D01*
X202369167Y-79421162D01*
X202712943Y-79279117D01*
X202976192Y-79016327D01*
X203118838Y-78672799D01*
X203118839Y-78671167D01*
X206328838Y-78671167D01*
X206470883Y-79014943D01*
X206733673Y-79278192D01*
X207077201Y-79420838D01*
X207449167Y-79421162D01*
X207792943Y-79279117D01*
X208056192Y-79016327D01*
X208198838Y-78672799D01*
X208198839Y-78671167D01*
X211408838Y-78671167D01*
X211550883Y-79014943D01*
X211813673Y-79278192D01*
X212157201Y-79420838D01*
X212529167Y-79421162D01*
X212872943Y-79279117D01*
X213136192Y-79016327D01*
X213278838Y-78672799D01*
X213279162Y-78300833D01*
X213137117Y-77957057D01*
X212874327Y-77693808D01*
X212530799Y-77551162D01*
X212158833Y-77550838D01*
X211815057Y-77692883D01*
X211551808Y-77955673D01*
X211409162Y-78299201D01*
X211408838Y-78671167D01*
X208198839Y-78671167D01*
X208199162Y-78300833D01*
X208057117Y-77957057D01*
X207794327Y-77693808D01*
X207701270Y-77655167D01*
X208868838Y-77655167D01*
X209010883Y-77998943D01*
X209273673Y-78262192D01*
X209617201Y-78404838D01*
X209989167Y-78405162D01*
X210332943Y-78263117D01*
X210596192Y-78000327D01*
X210738838Y-77656799D01*
X210739162Y-77284833D01*
X210597117Y-76941057D01*
X210334327Y-76677808D01*
X209990799Y-76535162D01*
X209618833Y-76534838D01*
X209275057Y-76676883D01*
X209011808Y-76939673D01*
X208869162Y-77283201D01*
X208868838Y-77655167D01*
X207701270Y-77655167D01*
X207450799Y-77551162D01*
X207078833Y-77550838D01*
X206735057Y-77692883D01*
X206471808Y-77955673D01*
X206329162Y-78299201D01*
X206328838Y-78671167D01*
X203118839Y-78671167D01*
X203119162Y-78300833D01*
X202977117Y-77957057D01*
X202714327Y-77693808D01*
X202621270Y-77655167D01*
X203788838Y-77655167D01*
X203930883Y-77998943D01*
X204193673Y-78262192D01*
X204537201Y-78404838D01*
X204909167Y-78405162D01*
X205252943Y-78263117D01*
X205516192Y-78000327D01*
X205658838Y-77656799D01*
X205659162Y-77284833D01*
X205517117Y-76941057D01*
X205254327Y-76677808D01*
X204910799Y-76535162D01*
X204538833Y-76534838D01*
X204195057Y-76676883D01*
X203931808Y-76939673D01*
X203789162Y-77283201D01*
X203788838Y-77655167D01*
X202621270Y-77655167D01*
X202370799Y-77551162D01*
X201998833Y-77550838D01*
X201655057Y-77692883D01*
X201391808Y-77955673D01*
X201249162Y-78299201D01*
X201248838Y-78671167D01*
X198038839Y-78671167D01*
X198039162Y-78300833D01*
X197897117Y-77957057D01*
X197634327Y-77693808D01*
X197541270Y-77655167D01*
X198708838Y-77655167D01*
X198850883Y-77998943D01*
X199113673Y-78262192D01*
X199457201Y-78404838D01*
X199829167Y-78405162D01*
X200172943Y-78263117D01*
X200436192Y-78000327D01*
X200578838Y-77656799D01*
X200579162Y-77284833D01*
X200437117Y-76941057D01*
X200174327Y-76677808D01*
X199830799Y-76535162D01*
X199458833Y-76534838D01*
X199115057Y-76676883D01*
X198851808Y-76939673D01*
X198709162Y-77283201D01*
X198708838Y-77655167D01*
X197541270Y-77655167D01*
X197290799Y-77551162D01*
X196918833Y-77550838D01*
X196575057Y-77692883D01*
X196311808Y-77955673D01*
X196169162Y-78299201D01*
X196168838Y-78671167D01*
X193018177Y-78671167D01*
X193149338Y-78355299D01*
X193149662Y-77983333D01*
X193014067Y-77655167D01*
X193628838Y-77655167D01*
X193770883Y-77998943D01*
X194033673Y-78262192D01*
X194377201Y-78404838D01*
X194749167Y-78405162D01*
X195092943Y-78263117D01*
X195356192Y-78000327D01*
X195498838Y-77656799D01*
X195499162Y-77284833D01*
X195357117Y-76941057D01*
X195094327Y-76677808D01*
X194750799Y-76535162D01*
X194378833Y-76534838D01*
X194035057Y-76676883D01*
X193771808Y-76939673D01*
X193629162Y-77283201D01*
X193628838Y-77655167D01*
X193014067Y-77655167D01*
X193007617Y-77639557D01*
X192744827Y-77376308D01*
X192401299Y-77233662D01*
X192029333Y-77233338D01*
X191685557Y-77375383D01*
X191422308Y-77638173D01*
X191379247Y-77741876D01*
X190968639Y-77330551D01*
X190082081Y-76962420D01*
X189122130Y-76961583D01*
X188234931Y-77328166D01*
X187671144Y-77890969D01*
X187474327Y-77693808D01*
X187130799Y-77551162D01*
X186758833Y-77550838D01*
X186415057Y-77692883D01*
X186151808Y-77955673D01*
X186009162Y-78299201D01*
X186008838Y-78671167D01*
X182798839Y-78671167D01*
X182799162Y-78300833D01*
X182657117Y-77957057D01*
X182394327Y-77693808D01*
X182301270Y-77655167D01*
X183468838Y-77655167D01*
X183610883Y-77998943D01*
X183873673Y-78262192D01*
X184217201Y-78404838D01*
X184589167Y-78405162D01*
X184932943Y-78263117D01*
X185196192Y-78000327D01*
X185338838Y-77656799D01*
X185339162Y-77284833D01*
X185197117Y-76941057D01*
X184934327Y-76677808D01*
X184590799Y-76535162D01*
X184218833Y-76534838D01*
X183875057Y-76676883D01*
X183611808Y-76939673D01*
X183469162Y-77283201D01*
X183468838Y-77655167D01*
X182301270Y-77655167D01*
X182050799Y-77551162D01*
X181678833Y-77550838D01*
X181335057Y-77692883D01*
X181071808Y-77955673D01*
X180929162Y-78299201D01*
X180928838Y-78671167D01*
X177718839Y-78671167D01*
X177719162Y-78300833D01*
X177577117Y-77957057D01*
X177529311Y-77909167D01*
X178388838Y-77909167D01*
X178530883Y-78252943D01*
X178793673Y-78516192D01*
X179137201Y-78658838D01*
X179509167Y-78659162D01*
X179852943Y-78517117D01*
X180116192Y-78254327D01*
X180258838Y-77910799D01*
X180259162Y-77538833D01*
X180117117Y-77195057D01*
X179854327Y-76931808D01*
X179510799Y-76789162D01*
X179138833Y-76788838D01*
X178795057Y-76930883D01*
X178531808Y-77193673D01*
X178389162Y-77537201D01*
X178388838Y-77909167D01*
X177529311Y-77909167D01*
X177314327Y-77693808D01*
X176970799Y-77551162D01*
X176598833Y-77550838D01*
X176255057Y-77692883D01*
X175991808Y-77955673D01*
X175849162Y-78299201D01*
X175848838Y-78671167D01*
X172638839Y-78671167D01*
X172639162Y-78300833D01*
X172497117Y-77957057D01*
X172449311Y-77909167D01*
X173308838Y-77909167D01*
X173450883Y-78252943D01*
X173713673Y-78516192D01*
X174057201Y-78658838D01*
X174429167Y-78659162D01*
X174772943Y-78517117D01*
X175036192Y-78254327D01*
X175178838Y-77910799D01*
X175179162Y-77538833D01*
X175037117Y-77195057D01*
X174774327Y-76931808D01*
X174430799Y-76789162D01*
X174058833Y-76788838D01*
X173715057Y-76930883D01*
X173451808Y-77193673D01*
X173309162Y-77537201D01*
X173308838Y-77909167D01*
X172449311Y-77909167D01*
X172234327Y-77693808D01*
X171890799Y-77551162D01*
X171518833Y-77550838D01*
X171175057Y-77692883D01*
X170911808Y-77955673D01*
X170769162Y-78299201D01*
X170768838Y-78671167D01*
X167558839Y-78671167D01*
X167559162Y-78300833D01*
X167417117Y-77957057D01*
X167369311Y-77909167D01*
X168228838Y-77909167D01*
X168370883Y-78252943D01*
X168633673Y-78516192D01*
X168977201Y-78658838D01*
X169349167Y-78659162D01*
X169692943Y-78517117D01*
X169956192Y-78254327D01*
X170098838Y-77910799D01*
X170099162Y-77538833D01*
X169957117Y-77195057D01*
X169694327Y-76931808D01*
X169350799Y-76789162D01*
X168978833Y-76788838D01*
X168635057Y-76930883D01*
X168371808Y-77193673D01*
X168229162Y-77537201D01*
X168228838Y-77909167D01*
X167369311Y-77909167D01*
X167154327Y-77693808D01*
X166810799Y-77551162D01*
X166438833Y-77550838D01*
X166095057Y-77692883D01*
X165831808Y-77955673D01*
X165689162Y-78299201D01*
X165688838Y-78671167D01*
X164338000Y-78671167D01*
X164338000Y-76385167D01*
X165688838Y-76385167D01*
X165830883Y-76728943D01*
X166093673Y-76992192D01*
X166437201Y-77134838D01*
X166809167Y-77135162D01*
X167152943Y-76993117D01*
X167416192Y-76730327D01*
X167558838Y-76386799D01*
X167558839Y-76385167D01*
X170768838Y-76385167D01*
X170910883Y-76728943D01*
X171173673Y-76992192D01*
X171517201Y-77134838D01*
X171889167Y-77135162D01*
X172232943Y-76993117D01*
X172496192Y-76730327D01*
X172638838Y-76386799D01*
X172638839Y-76385167D01*
X175848838Y-76385167D01*
X175990883Y-76728943D01*
X176253673Y-76992192D01*
X176597201Y-77134838D01*
X176969167Y-77135162D01*
X177312943Y-76993117D01*
X177576192Y-76730327D01*
X177718838Y-76386799D01*
X177718839Y-76385167D01*
X180928838Y-76385167D01*
X181070883Y-76728943D01*
X181333673Y-76992192D01*
X181677201Y-77134838D01*
X182049167Y-77135162D01*
X182392943Y-76993117D01*
X182656192Y-76730327D01*
X182798838Y-76386799D01*
X182798839Y-76385167D01*
X186008838Y-76385167D01*
X186150883Y-76728943D01*
X186413673Y-76992192D01*
X186757201Y-77134838D01*
X187129167Y-77135162D01*
X187472943Y-76993117D01*
X187736192Y-76730327D01*
X187878838Y-76386799D01*
X187878839Y-76385167D01*
X191088838Y-76385167D01*
X191230883Y-76728943D01*
X191493673Y-76992192D01*
X191837201Y-77134838D01*
X192209167Y-77135162D01*
X192552943Y-76993117D01*
X192816192Y-76730327D01*
X192958838Y-76386799D01*
X192958839Y-76385167D01*
X196168838Y-76385167D01*
X196310883Y-76728943D01*
X196573673Y-76992192D01*
X196917201Y-77134838D01*
X197289167Y-77135162D01*
X197632943Y-76993117D01*
X197896192Y-76730327D01*
X198038838Y-76386799D01*
X198038839Y-76385167D01*
X201248838Y-76385167D01*
X201390883Y-76728943D01*
X201653673Y-76992192D01*
X201997201Y-77134838D01*
X202369167Y-77135162D01*
X202712943Y-76993117D01*
X202976192Y-76730327D01*
X203118838Y-76386799D01*
X203118839Y-76385167D01*
X206328838Y-76385167D01*
X206470883Y-76728943D01*
X206733673Y-76992192D01*
X207077201Y-77134838D01*
X207449167Y-77135162D01*
X207792943Y-76993117D01*
X208056192Y-76730327D01*
X208198838Y-76386799D01*
X208198839Y-76385167D01*
X211408838Y-76385167D01*
X211550883Y-76728943D01*
X211813673Y-76992192D01*
X212157201Y-77134838D01*
X212529167Y-77135162D01*
X212872943Y-76993117D01*
X213136192Y-76730327D01*
X213278838Y-76386799D01*
X213279162Y-76014833D01*
X213137117Y-75671057D01*
X212874327Y-75407808D01*
X212530799Y-75265162D01*
X212158833Y-75264838D01*
X211815057Y-75406883D01*
X211551808Y-75669673D01*
X211409162Y-76013201D01*
X211408838Y-76385167D01*
X208198839Y-76385167D01*
X208199162Y-76014833D01*
X208057117Y-75671057D01*
X207794327Y-75407808D01*
X207701270Y-75369167D01*
X208868838Y-75369167D01*
X209010883Y-75712943D01*
X209273673Y-75976192D01*
X209617201Y-76118838D01*
X209989167Y-76119162D01*
X210332943Y-75977117D01*
X210596192Y-75714327D01*
X210738838Y-75370799D01*
X210739162Y-74998833D01*
X210597117Y-74655057D01*
X210334327Y-74391808D01*
X209990799Y-74249162D01*
X209618833Y-74248838D01*
X209275057Y-74390883D01*
X209011808Y-74653673D01*
X208869162Y-74997201D01*
X208868838Y-75369167D01*
X207701270Y-75369167D01*
X207450799Y-75265162D01*
X207078833Y-75264838D01*
X206735057Y-75406883D01*
X206471808Y-75669673D01*
X206329162Y-76013201D01*
X206328838Y-76385167D01*
X203118839Y-76385167D01*
X203119162Y-76014833D01*
X202977117Y-75671057D01*
X202714327Y-75407808D01*
X202621270Y-75369167D01*
X203788838Y-75369167D01*
X203930883Y-75712943D01*
X204193673Y-75976192D01*
X204537201Y-76118838D01*
X204909167Y-76119162D01*
X205252943Y-75977117D01*
X205516192Y-75714327D01*
X205658838Y-75370799D01*
X205659162Y-74998833D01*
X205517117Y-74655057D01*
X205254327Y-74391808D01*
X204910799Y-74249162D01*
X204538833Y-74248838D01*
X204195057Y-74390883D01*
X203931808Y-74653673D01*
X203789162Y-74997201D01*
X203788838Y-75369167D01*
X202621270Y-75369167D01*
X202370799Y-75265162D01*
X201998833Y-75264838D01*
X201655057Y-75406883D01*
X201391808Y-75669673D01*
X201249162Y-76013201D01*
X201248838Y-76385167D01*
X198038839Y-76385167D01*
X198039162Y-76014833D01*
X197897117Y-75671057D01*
X197634327Y-75407808D01*
X197541270Y-75369167D01*
X198708838Y-75369167D01*
X198850883Y-75712943D01*
X199113673Y-75976192D01*
X199457201Y-76118838D01*
X199829167Y-76119162D01*
X200172943Y-75977117D01*
X200436192Y-75714327D01*
X200578838Y-75370799D01*
X200579162Y-74998833D01*
X200437117Y-74655057D01*
X200174327Y-74391808D01*
X199830799Y-74249162D01*
X199458833Y-74248838D01*
X199115057Y-74390883D01*
X198851808Y-74653673D01*
X198709162Y-74997201D01*
X198708838Y-75369167D01*
X197541270Y-75369167D01*
X197290799Y-75265162D01*
X196918833Y-75264838D01*
X196575057Y-75406883D01*
X196311808Y-75669673D01*
X196169162Y-76013201D01*
X196168838Y-76385167D01*
X192958839Y-76385167D01*
X192959162Y-76014833D01*
X192817117Y-75671057D01*
X192554327Y-75407808D01*
X192461270Y-75369167D01*
X193628838Y-75369167D01*
X193770883Y-75712943D01*
X194033673Y-75976192D01*
X194377201Y-76118838D01*
X194749167Y-76119162D01*
X195092943Y-75977117D01*
X195356192Y-75714327D01*
X195498838Y-75370799D01*
X195499162Y-74998833D01*
X195357117Y-74655057D01*
X195094327Y-74391808D01*
X194750799Y-74249162D01*
X194378833Y-74248838D01*
X194035057Y-74390883D01*
X193771808Y-74653673D01*
X193629162Y-74997201D01*
X193628838Y-75369167D01*
X192461270Y-75369167D01*
X192210799Y-75265162D01*
X191838833Y-75264838D01*
X191495057Y-75406883D01*
X191231808Y-75669673D01*
X191089162Y-76013201D01*
X191088838Y-76385167D01*
X187878839Y-76385167D01*
X187879162Y-76014833D01*
X187737117Y-75671057D01*
X187474327Y-75407808D01*
X187381270Y-75369167D01*
X188548838Y-75369167D01*
X188690883Y-75712943D01*
X188953673Y-75976192D01*
X189297201Y-76118838D01*
X189669167Y-76119162D01*
X190012943Y-75977117D01*
X190276192Y-75714327D01*
X190418838Y-75370799D01*
X190419162Y-74998833D01*
X190277117Y-74655057D01*
X190014327Y-74391808D01*
X189670799Y-74249162D01*
X189298833Y-74248838D01*
X188955057Y-74390883D01*
X188691808Y-74653673D01*
X188549162Y-74997201D01*
X188548838Y-75369167D01*
X187381270Y-75369167D01*
X187130799Y-75265162D01*
X186758833Y-75264838D01*
X186415057Y-75406883D01*
X186151808Y-75669673D01*
X186009162Y-76013201D01*
X186008838Y-76385167D01*
X182798839Y-76385167D01*
X182799162Y-76014833D01*
X182657117Y-75671057D01*
X182394327Y-75407808D01*
X182301270Y-75369167D01*
X183468838Y-75369167D01*
X183610883Y-75712943D01*
X183873673Y-75976192D01*
X184217201Y-76118838D01*
X184589167Y-76119162D01*
X184932943Y-75977117D01*
X185196192Y-75714327D01*
X185338838Y-75370799D01*
X185339162Y-74998833D01*
X185197117Y-74655057D01*
X184934327Y-74391808D01*
X184590799Y-74249162D01*
X184218833Y-74248838D01*
X183875057Y-74390883D01*
X183611808Y-74653673D01*
X183469162Y-74997201D01*
X183468838Y-75369167D01*
X182301270Y-75369167D01*
X182050799Y-75265162D01*
X181678833Y-75264838D01*
X181335057Y-75406883D01*
X181071808Y-75669673D01*
X180929162Y-76013201D01*
X180928838Y-76385167D01*
X177718839Y-76385167D01*
X177719162Y-76014833D01*
X177577117Y-75671057D01*
X177529311Y-75623167D01*
X178388838Y-75623167D01*
X178530883Y-75966943D01*
X178793673Y-76230192D01*
X179137201Y-76372838D01*
X179509167Y-76373162D01*
X179852943Y-76231117D01*
X180116192Y-75968327D01*
X180258838Y-75624799D01*
X180259162Y-75252833D01*
X180117117Y-74909057D01*
X179854327Y-74645808D01*
X179510799Y-74503162D01*
X179138833Y-74502838D01*
X178795057Y-74644883D01*
X178531808Y-74907673D01*
X178389162Y-75251201D01*
X178388838Y-75623167D01*
X177529311Y-75623167D01*
X177314327Y-75407808D01*
X176970799Y-75265162D01*
X176598833Y-75264838D01*
X176255057Y-75406883D01*
X175991808Y-75669673D01*
X175849162Y-76013201D01*
X175848838Y-76385167D01*
X172638839Y-76385167D01*
X172639162Y-76014833D01*
X172497117Y-75671057D01*
X172449311Y-75623167D01*
X173308838Y-75623167D01*
X173450883Y-75966943D01*
X173713673Y-76230192D01*
X174057201Y-76372838D01*
X174429167Y-76373162D01*
X174772943Y-76231117D01*
X175036192Y-75968327D01*
X175178838Y-75624799D01*
X175179162Y-75252833D01*
X175037117Y-74909057D01*
X174774327Y-74645808D01*
X174430799Y-74503162D01*
X174058833Y-74502838D01*
X173715057Y-74644883D01*
X173451808Y-74907673D01*
X173309162Y-75251201D01*
X173308838Y-75623167D01*
X172449311Y-75623167D01*
X172234327Y-75407808D01*
X171890799Y-75265162D01*
X171518833Y-75264838D01*
X171175057Y-75406883D01*
X170911808Y-75669673D01*
X170769162Y-76013201D01*
X170768838Y-76385167D01*
X167558839Y-76385167D01*
X167559162Y-76014833D01*
X167417117Y-75671057D01*
X167369311Y-75623167D01*
X168228838Y-75623167D01*
X168370883Y-75966943D01*
X168633673Y-76230192D01*
X168977201Y-76372838D01*
X169349167Y-76373162D01*
X169692943Y-76231117D01*
X169956192Y-75968327D01*
X170098838Y-75624799D01*
X170099162Y-75252833D01*
X169957117Y-74909057D01*
X169694327Y-74645808D01*
X169350799Y-74503162D01*
X168978833Y-74502838D01*
X168635057Y-74644883D01*
X168371808Y-74907673D01*
X168229162Y-75251201D01*
X168228838Y-75623167D01*
X167369311Y-75623167D01*
X167154327Y-75407808D01*
X166810799Y-75265162D01*
X166438833Y-75264838D01*
X166095057Y-75406883D01*
X165831808Y-75669673D01*
X165689162Y-76013201D01*
X165688838Y-76385167D01*
X164338000Y-76385167D01*
X164338000Y-74099167D01*
X165688838Y-74099167D01*
X165830883Y-74442943D01*
X166093673Y-74706192D01*
X166437201Y-74848838D01*
X166809167Y-74849162D01*
X167152943Y-74707117D01*
X167416192Y-74444327D01*
X167558838Y-74100799D01*
X167558839Y-74099167D01*
X170768838Y-74099167D01*
X170910883Y-74442943D01*
X171173673Y-74706192D01*
X171517201Y-74848838D01*
X171889167Y-74849162D01*
X172232943Y-74707117D01*
X172496192Y-74444327D01*
X172638838Y-74100799D01*
X172638839Y-74099167D01*
X175848838Y-74099167D01*
X175990883Y-74442943D01*
X176253673Y-74706192D01*
X176597201Y-74848838D01*
X176969167Y-74849162D01*
X177312943Y-74707117D01*
X177576192Y-74444327D01*
X177718838Y-74100799D01*
X177718839Y-74099167D01*
X180928838Y-74099167D01*
X181070883Y-74442943D01*
X181333673Y-74706192D01*
X181677201Y-74848838D01*
X182049167Y-74849162D01*
X182392943Y-74707117D01*
X182656192Y-74444327D01*
X182798838Y-74100799D01*
X182798839Y-74099167D01*
X186008838Y-74099167D01*
X186150883Y-74442943D01*
X186413673Y-74706192D01*
X186757201Y-74848838D01*
X187129167Y-74849162D01*
X187472943Y-74707117D01*
X187736192Y-74444327D01*
X187878838Y-74100799D01*
X187878839Y-74099167D01*
X191088838Y-74099167D01*
X191230883Y-74442943D01*
X191493673Y-74706192D01*
X191837201Y-74848838D01*
X192209167Y-74849162D01*
X192552943Y-74707117D01*
X192816192Y-74444327D01*
X192958838Y-74100799D01*
X192958839Y-74099167D01*
X196168838Y-74099167D01*
X196310883Y-74442943D01*
X196573673Y-74706192D01*
X196917201Y-74848838D01*
X197289167Y-74849162D01*
X197632943Y-74707117D01*
X197896192Y-74444327D01*
X198038838Y-74100799D01*
X198038839Y-74099167D01*
X201248838Y-74099167D01*
X201390883Y-74442943D01*
X201653673Y-74706192D01*
X201997201Y-74848838D01*
X202369167Y-74849162D01*
X202712943Y-74707117D01*
X202976192Y-74444327D01*
X203118838Y-74100799D01*
X203118839Y-74099167D01*
X206328838Y-74099167D01*
X206470883Y-74442943D01*
X206733673Y-74706192D01*
X207077201Y-74848838D01*
X207449167Y-74849162D01*
X207792943Y-74707117D01*
X208056192Y-74444327D01*
X208198838Y-74100799D01*
X208198839Y-74099167D01*
X211408838Y-74099167D01*
X211550883Y-74442943D01*
X211813673Y-74706192D01*
X212157201Y-74848838D01*
X212529167Y-74849162D01*
X212872943Y-74707117D01*
X213136192Y-74444327D01*
X213278838Y-74100799D01*
X213279162Y-73728833D01*
X213137117Y-73385057D01*
X212874327Y-73121808D01*
X212530799Y-72979162D01*
X212158833Y-72978838D01*
X211815057Y-73120883D01*
X211551808Y-73383673D01*
X211409162Y-73727201D01*
X211408838Y-74099167D01*
X208198839Y-74099167D01*
X208199162Y-73728833D01*
X208057117Y-73385057D01*
X207794327Y-73121808D01*
X207701270Y-73083167D01*
X208868838Y-73083167D01*
X209010883Y-73426943D01*
X209273673Y-73690192D01*
X209617201Y-73832838D01*
X209989167Y-73833162D01*
X210332943Y-73691117D01*
X210596192Y-73428327D01*
X210738838Y-73084799D01*
X210739162Y-72712833D01*
X210597117Y-72369057D01*
X210334327Y-72105808D01*
X209990799Y-71963162D01*
X209618833Y-71962838D01*
X209275057Y-72104883D01*
X209011808Y-72367673D01*
X208869162Y-72711201D01*
X208868838Y-73083167D01*
X207701270Y-73083167D01*
X207450799Y-72979162D01*
X207078833Y-72978838D01*
X206735057Y-73120883D01*
X206471808Y-73383673D01*
X206329162Y-73727201D01*
X206328838Y-74099167D01*
X203118839Y-74099167D01*
X203119162Y-73728833D01*
X202977117Y-73385057D01*
X202714327Y-73121808D01*
X202621270Y-73083167D01*
X203788838Y-73083167D01*
X203930883Y-73426943D01*
X204193673Y-73690192D01*
X204537201Y-73832838D01*
X204909167Y-73833162D01*
X205252943Y-73691117D01*
X205516192Y-73428327D01*
X205658838Y-73084799D01*
X205659162Y-72712833D01*
X205517117Y-72369057D01*
X205254327Y-72105808D01*
X204910799Y-71963162D01*
X204538833Y-71962838D01*
X204195057Y-72104883D01*
X203931808Y-72367673D01*
X203789162Y-72711201D01*
X203788838Y-73083167D01*
X202621270Y-73083167D01*
X202370799Y-72979162D01*
X201998833Y-72978838D01*
X201655057Y-73120883D01*
X201391808Y-73383673D01*
X201249162Y-73727201D01*
X201248838Y-74099167D01*
X198038839Y-74099167D01*
X198039162Y-73728833D01*
X197897117Y-73385057D01*
X197634327Y-73121808D01*
X197541270Y-73083167D01*
X198708838Y-73083167D01*
X198850883Y-73426943D01*
X199113673Y-73690192D01*
X199457201Y-73832838D01*
X199829167Y-73833162D01*
X200172943Y-73691117D01*
X200436192Y-73428327D01*
X200578838Y-73084799D01*
X200579162Y-72712833D01*
X200437117Y-72369057D01*
X200174327Y-72105808D01*
X199830799Y-71963162D01*
X199458833Y-71962838D01*
X199115057Y-72104883D01*
X198851808Y-72367673D01*
X198709162Y-72711201D01*
X198708838Y-73083167D01*
X197541270Y-73083167D01*
X197290799Y-72979162D01*
X196918833Y-72978838D01*
X196575057Y-73120883D01*
X196311808Y-73383673D01*
X196169162Y-73727201D01*
X196168838Y-74099167D01*
X192958839Y-74099167D01*
X192959162Y-73728833D01*
X192817117Y-73385057D01*
X192554327Y-73121808D01*
X192461270Y-73083167D01*
X193628838Y-73083167D01*
X193770883Y-73426943D01*
X194033673Y-73690192D01*
X194377201Y-73832838D01*
X194749167Y-73833162D01*
X195092943Y-73691117D01*
X195356192Y-73428327D01*
X195498838Y-73084799D01*
X195499162Y-72712833D01*
X195357117Y-72369057D01*
X195094327Y-72105808D01*
X194750799Y-71963162D01*
X194378833Y-71962838D01*
X194035057Y-72104883D01*
X193771808Y-72367673D01*
X193629162Y-72711201D01*
X193628838Y-73083167D01*
X192461270Y-73083167D01*
X192210799Y-72979162D01*
X191838833Y-72978838D01*
X191495057Y-73120883D01*
X191231808Y-73383673D01*
X191089162Y-73727201D01*
X191088838Y-74099167D01*
X187878839Y-74099167D01*
X187879162Y-73728833D01*
X187737117Y-73385057D01*
X187474327Y-73121808D01*
X187381270Y-73083167D01*
X188548838Y-73083167D01*
X188690883Y-73426943D01*
X188953673Y-73690192D01*
X189297201Y-73832838D01*
X189669167Y-73833162D01*
X190012943Y-73691117D01*
X190276192Y-73428327D01*
X190418838Y-73084799D01*
X190419162Y-72712833D01*
X190277117Y-72369057D01*
X190014327Y-72105808D01*
X189670799Y-71963162D01*
X189298833Y-71962838D01*
X188955057Y-72104883D01*
X188691808Y-72367673D01*
X188549162Y-72711201D01*
X188548838Y-73083167D01*
X187381270Y-73083167D01*
X187130799Y-72979162D01*
X186758833Y-72978838D01*
X186415057Y-73120883D01*
X186151808Y-73383673D01*
X186009162Y-73727201D01*
X186008838Y-74099167D01*
X182798839Y-74099167D01*
X182799162Y-73728833D01*
X182657117Y-73385057D01*
X182394327Y-73121808D01*
X182301270Y-73083167D01*
X183468838Y-73083167D01*
X183610883Y-73426943D01*
X183873673Y-73690192D01*
X184217201Y-73832838D01*
X184589167Y-73833162D01*
X184932943Y-73691117D01*
X185196192Y-73428327D01*
X185338838Y-73084799D01*
X185339162Y-72712833D01*
X185197117Y-72369057D01*
X184934327Y-72105808D01*
X184590799Y-71963162D01*
X184218833Y-71962838D01*
X183875057Y-72104883D01*
X183611808Y-72367673D01*
X183469162Y-72711201D01*
X183468838Y-73083167D01*
X182301270Y-73083167D01*
X182050799Y-72979162D01*
X181678833Y-72978838D01*
X181335057Y-73120883D01*
X181071808Y-73383673D01*
X180929162Y-73727201D01*
X180928838Y-74099167D01*
X177718839Y-74099167D01*
X177719162Y-73728833D01*
X177577117Y-73385057D01*
X177529311Y-73337167D01*
X178388838Y-73337167D01*
X178530883Y-73680943D01*
X178793673Y-73944192D01*
X179137201Y-74086838D01*
X179509167Y-74087162D01*
X179852943Y-73945117D01*
X180116192Y-73682327D01*
X180258838Y-73338799D01*
X180259162Y-72966833D01*
X180117117Y-72623057D01*
X179854327Y-72359808D01*
X179510799Y-72217162D01*
X179138833Y-72216838D01*
X178795057Y-72358883D01*
X178531808Y-72621673D01*
X178389162Y-72965201D01*
X178388838Y-73337167D01*
X177529311Y-73337167D01*
X177314327Y-73121808D01*
X176970799Y-72979162D01*
X176598833Y-72978838D01*
X176255057Y-73120883D01*
X175991808Y-73383673D01*
X175849162Y-73727201D01*
X175848838Y-74099167D01*
X172638839Y-74099167D01*
X172639162Y-73728833D01*
X172497117Y-73385057D01*
X172449311Y-73337167D01*
X173308838Y-73337167D01*
X173450883Y-73680943D01*
X173713673Y-73944192D01*
X174057201Y-74086838D01*
X174429167Y-74087162D01*
X174772943Y-73945117D01*
X175036192Y-73682327D01*
X175178838Y-73338799D01*
X175179162Y-72966833D01*
X175037117Y-72623057D01*
X174774327Y-72359808D01*
X174430799Y-72217162D01*
X174058833Y-72216838D01*
X173715057Y-72358883D01*
X173451808Y-72621673D01*
X173309162Y-72965201D01*
X173308838Y-73337167D01*
X172449311Y-73337167D01*
X172234327Y-73121808D01*
X171890799Y-72979162D01*
X171518833Y-72978838D01*
X171175057Y-73120883D01*
X170911808Y-73383673D01*
X170769162Y-73727201D01*
X170768838Y-74099167D01*
X167558839Y-74099167D01*
X167559162Y-73728833D01*
X167417117Y-73385057D01*
X167369311Y-73337167D01*
X168228838Y-73337167D01*
X168370883Y-73680943D01*
X168633673Y-73944192D01*
X168977201Y-74086838D01*
X169349167Y-74087162D01*
X169692943Y-73945117D01*
X169956192Y-73682327D01*
X170098838Y-73338799D01*
X170099162Y-72966833D01*
X169957117Y-72623057D01*
X169694327Y-72359808D01*
X169350799Y-72217162D01*
X168978833Y-72216838D01*
X168635057Y-72358883D01*
X168371808Y-72621673D01*
X168229162Y-72965201D01*
X168228838Y-73337167D01*
X167369311Y-73337167D01*
X167154327Y-73121808D01*
X166810799Y-72979162D01*
X166438833Y-72978838D01*
X166095057Y-73120883D01*
X165831808Y-73383673D01*
X165689162Y-73727201D01*
X165688838Y-74099167D01*
X164338000Y-74099167D01*
X164338000Y-71813167D01*
X165688838Y-71813167D01*
X165830883Y-72156943D01*
X166093673Y-72420192D01*
X166437201Y-72562838D01*
X166809167Y-72563162D01*
X167152943Y-72421117D01*
X167416192Y-72158327D01*
X167558838Y-71814799D01*
X167558839Y-71813167D01*
X170768838Y-71813167D01*
X170910883Y-72156943D01*
X171173673Y-72420192D01*
X171517201Y-72562838D01*
X171889167Y-72563162D01*
X172232943Y-72421117D01*
X172496192Y-72158327D01*
X172638838Y-71814799D01*
X172638839Y-71813167D01*
X175848838Y-71813167D01*
X175990883Y-72156943D01*
X176253673Y-72420192D01*
X176597201Y-72562838D01*
X176969167Y-72563162D01*
X177312943Y-72421117D01*
X177576192Y-72158327D01*
X177718838Y-71814799D01*
X177718839Y-71813167D01*
X180928838Y-71813167D01*
X181070883Y-72156943D01*
X181333673Y-72420192D01*
X181677201Y-72562838D01*
X182049167Y-72563162D01*
X182392943Y-72421117D01*
X182656192Y-72158327D01*
X182798838Y-71814799D01*
X182798839Y-71813167D01*
X186008838Y-71813167D01*
X186150883Y-72156943D01*
X186413673Y-72420192D01*
X186757201Y-72562838D01*
X187129167Y-72563162D01*
X187472943Y-72421117D01*
X187736192Y-72158327D01*
X187878838Y-71814799D01*
X187878839Y-71813167D01*
X191088838Y-71813167D01*
X191230883Y-72156943D01*
X191493673Y-72420192D01*
X191837201Y-72562838D01*
X192209167Y-72563162D01*
X192552943Y-72421117D01*
X192816192Y-72158327D01*
X192958838Y-71814799D01*
X192958839Y-71813167D01*
X196168838Y-71813167D01*
X196310883Y-72156943D01*
X196573673Y-72420192D01*
X196917201Y-72562838D01*
X197289167Y-72563162D01*
X197632943Y-72421117D01*
X197896192Y-72158327D01*
X198038838Y-71814799D01*
X198038839Y-71813167D01*
X201248838Y-71813167D01*
X201390883Y-72156943D01*
X201653673Y-72420192D01*
X201997201Y-72562838D01*
X202369167Y-72563162D01*
X202712943Y-72421117D01*
X202976192Y-72158327D01*
X203118838Y-71814799D01*
X203118839Y-71813167D01*
X206328838Y-71813167D01*
X206470883Y-72156943D01*
X206733673Y-72420192D01*
X207077201Y-72562838D01*
X207449167Y-72563162D01*
X207792943Y-72421117D01*
X208056192Y-72158327D01*
X208198838Y-71814799D01*
X208198839Y-71813167D01*
X211408838Y-71813167D01*
X211550883Y-72156943D01*
X211813673Y-72420192D01*
X212157201Y-72562838D01*
X212529167Y-72563162D01*
X212872943Y-72421117D01*
X213136192Y-72158327D01*
X213278838Y-71814799D01*
X213279162Y-71442833D01*
X213137117Y-71099057D01*
X212874327Y-70835808D01*
X212530799Y-70693162D01*
X212158833Y-70692838D01*
X211815057Y-70834883D01*
X211551808Y-71097673D01*
X211409162Y-71441201D01*
X211408838Y-71813167D01*
X208198839Y-71813167D01*
X208199162Y-71442833D01*
X208057117Y-71099057D01*
X207794327Y-70835808D01*
X207701270Y-70797167D01*
X208868838Y-70797167D01*
X209010883Y-71140943D01*
X209273673Y-71404192D01*
X209617201Y-71546838D01*
X209989167Y-71547162D01*
X210332943Y-71405117D01*
X210596192Y-71142327D01*
X210738838Y-70798799D01*
X210739162Y-70426833D01*
X210597117Y-70083057D01*
X210334327Y-69819808D01*
X209990799Y-69677162D01*
X209618833Y-69676838D01*
X209275057Y-69818883D01*
X209011808Y-70081673D01*
X208869162Y-70425201D01*
X208868838Y-70797167D01*
X207701270Y-70797167D01*
X207450799Y-70693162D01*
X207078833Y-70692838D01*
X206735057Y-70834883D01*
X206471808Y-71097673D01*
X206329162Y-71441201D01*
X206328838Y-71813167D01*
X203118839Y-71813167D01*
X203119162Y-71442833D01*
X202977117Y-71099057D01*
X202714327Y-70835808D01*
X202621270Y-70797167D01*
X203788838Y-70797167D01*
X203930883Y-71140943D01*
X204193673Y-71404192D01*
X204537201Y-71546838D01*
X204909167Y-71547162D01*
X205252943Y-71405117D01*
X205516192Y-71142327D01*
X205658838Y-70798799D01*
X205659162Y-70426833D01*
X205517117Y-70083057D01*
X205254327Y-69819808D01*
X204910799Y-69677162D01*
X204538833Y-69676838D01*
X204195057Y-69818883D01*
X203931808Y-70081673D01*
X203789162Y-70425201D01*
X203788838Y-70797167D01*
X202621270Y-70797167D01*
X202370799Y-70693162D01*
X201998833Y-70692838D01*
X201655057Y-70834883D01*
X201391808Y-71097673D01*
X201249162Y-71441201D01*
X201248838Y-71813167D01*
X198038839Y-71813167D01*
X198039162Y-71442833D01*
X197897117Y-71099057D01*
X197634327Y-70835808D01*
X197541270Y-70797167D01*
X198708838Y-70797167D01*
X198850883Y-71140943D01*
X199113673Y-71404192D01*
X199457201Y-71546838D01*
X199829167Y-71547162D01*
X200172943Y-71405117D01*
X200436192Y-71142327D01*
X200578838Y-70798799D01*
X200579162Y-70426833D01*
X200437117Y-70083057D01*
X200174327Y-69819808D01*
X199830799Y-69677162D01*
X199458833Y-69676838D01*
X199115057Y-69818883D01*
X198851808Y-70081673D01*
X198709162Y-70425201D01*
X198708838Y-70797167D01*
X197541270Y-70797167D01*
X197290799Y-70693162D01*
X196918833Y-70692838D01*
X196575057Y-70834883D01*
X196311808Y-71097673D01*
X196169162Y-71441201D01*
X196168838Y-71813167D01*
X192958839Y-71813167D01*
X192959162Y-71442833D01*
X192817117Y-71099057D01*
X192554327Y-70835808D01*
X192461270Y-70797167D01*
X193628838Y-70797167D01*
X193770883Y-71140943D01*
X194033673Y-71404192D01*
X194377201Y-71546838D01*
X194749167Y-71547162D01*
X195092943Y-71405117D01*
X195356192Y-71142327D01*
X195498838Y-70798799D01*
X195499162Y-70426833D01*
X195357117Y-70083057D01*
X195094327Y-69819808D01*
X194750799Y-69677162D01*
X194378833Y-69676838D01*
X194035057Y-69818883D01*
X193771808Y-70081673D01*
X193629162Y-70425201D01*
X193628838Y-70797167D01*
X192461270Y-70797167D01*
X192210799Y-70693162D01*
X191838833Y-70692838D01*
X191495057Y-70834883D01*
X191231808Y-71097673D01*
X191089162Y-71441201D01*
X191088838Y-71813167D01*
X187878839Y-71813167D01*
X187879162Y-71442833D01*
X187737117Y-71099057D01*
X187474327Y-70835808D01*
X187381270Y-70797167D01*
X188548838Y-70797167D01*
X188690883Y-71140943D01*
X188953673Y-71404192D01*
X189297201Y-71546838D01*
X189669167Y-71547162D01*
X190012943Y-71405117D01*
X190276192Y-71142327D01*
X190418838Y-70798799D01*
X190419162Y-70426833D01*
X190277117Y-70083057D01*
X190014327Y-69819808D01*
X189670799Y-69677162D01*
X189298833Y-69676838D01*
X188955057Y-69818883D01*
X188691808Y-70081673D01*
X188549162Y-70425201D01*
X188548838Y-70797167D01*
X187381270Y-70797167D01*
X187130799Y-70693162D01*
X186758833Y-70692838D01*
X186415057Y-70834883D01*
X186151808Y-71097673D01*
X186009162Y-71441201D01*
X186008838Y-71813167D01*
X182798839Y-71813167D01*
X182799162Y-71442833D01*
X182657117Y-71099057D01*
X182394327Y-70835808D01*
X182301270Y-70797167D01*
X183468838Y-70797167D01*
X183610883Y-71140943D01*
X183873673Y-71404192D01*
X184217201Y-71546838D01*
X184589167Y-71547162D01*
X184932943Y-71405117D01*
X185196192Y-71142327D01*
X185338838Y-70798799D01*
X185339162Y-70426833D01*
X185197117Y-70083057D01*
X184934327Y-69819808D01*
X184590799Y-69677162D01*
X184218833Y-69676838D01*
X183875057Y-69818883D01*
X183611808Y-70081673D01*
X183469162Y-70425201D01*
X183468838Y-70797167D01*
X182301270Y-70797167D01*
X182050799Y-70693162D01*
X181678833Y-70692838D01*
X181335057Y-70834883D01*
X181071808Y-71097673D01*
X180929162Y-71441201D01*
X180928838Y-71813167D01*
X177718839Y-71813167D01*
X177719162Y-71442833D01*
X177577117Y-71099057D01*
X177529311Y-71051167D01*
X178388838Y-71051167D01*
X178530883Y-71394943D01*
X178793673Y-71658192D01*
X179137201Y-71800838D01*
X179509167Y-71801162D01*
X179852943Y-71659117D01*
X180116192Y-71396327D01*
X180258838Y-71052799D01*
X180259162Y-70680833D01*
X180117117Y-70337057D01*
X179854327Y-70073808D01*
X179510799Y-69931162D01*
X179138833Y-69930838D01*
X178795057Y-70072883D01*
X178531808Y-70335673D01*
X178389162Y-70679201D01*
X178388838Y-71051167D01*
X177529311Y-71051167D01*
X177314327Y-70835808D01*
X176970799Y-70693162D01*
X176598833Y-70692838D01*
X176255057Y-70834883D01*
X175991808Y-71097673D01*
X175849162Y-71441201D01*
X175848838Y-71813167D01*
X172638839Y-71813167D01*
X172639162Y-71442833D01*
X172497117Y-71099057D01*
X172449311Y-71051167D01*
X173308838Y-71051167D01*
X173450883Y-71394943D01*
X173713673Y-71658192D01*
X174057201Y-71800838D01*
X174429167Y-71801162D01*
X174772943Y-71659117D01*
X175036192Y-71396327D01*
X175178838Y-71052799D01*
X175179162Y-70680833D01*
X175037117Y-70337057D01*
X174774327Y-70073808D01*
X174430799Y-69931162D01*
X174058833Y-69930838D01*
X173715057Y-70072883D01*
X173451808Y-70335673D01*
X173309162Y-70679201D01*
X173308838Y-71051167D01*
X172449311Y-71051167D01*
X172234327Y-70835808D01*
X171890799Y-70693162D01*
X171518833Y-70692838D01*
X171175057Y-70834883D01*
X170911808Y-71097673D01*
X170769162Y-71441201D01*
X170768838Y-71813167D01*
X167558839Y-71813167D01*
X167559162Y-71442833D01*
X167417117Y-71099057D01*
X167369311Y-71051167D01*
X168228838Y-71051167D01*
X168370883Y-71394943D01*
X168633673Y-71658192D01*
X168977201Y-71800838D01*
X169349167Y-71801162D01*
X169692943Y-71659117D01*
X169956192Y-71396327D01*
X170098838Y-71052799D01*
X170099162Y-70680833D01*
X169957117Y-70337057D01*
X169694327Y-70073808D01*
X169350799Y-69931162D01*
X168978833Y-69930838D01*
X168635057Y-70072883D01*
X168371808Y-70335673D01*
X168229162Y-70679201D01*
X168228838Y-71051167D01*
X167369311Y-71051167D01*
X167154327Y-70835808D01*
X166810799Y-70693162D01*
X166438833Y-70692838D01*
X166095057Y-70834883D01*
X165831808Y-71097673D01*
X165689162Y-71441201D01*
X165688838Y-71813167D01*
X164338000Y-71813167D01*
X164338000Y-69527167D01*
X165688838Y-69527167D01*
X165830883Y-69870943D01*
X166093673Y-70134192D01*
X166437201Y-70276838D01*
X166809167Y-70277162D01*
X167152943Y-70135117D01*
X167416192Y-69872327D01*
X167558838Y-69528799D01*
X167558839Y-69527167D01*
X170768838Y-69527167D01*
X170910883Y-69870943D01*
X171173673Y-70134192D01*
X171517201Y-70276838D01*
X171889167Y-70277162D01*
X172232943Y-70135117D01*
X172496192Y-69872327D01*
X172638838Y-69528799D01*
X172638839Y-69527167D01*
X175848838Y-69527167D01*
X175990883Y-69870943D01*
X176253673Y-70134192D01*
X176597201Y-70276838D01*
X176969167Y-70277162D01*
X177312943Y-70135117D01*
X177576192Y-69872327D01*
X177718838Y-69528799D01*
X177718839Y-69527167D01*
X180928838Y-69527167D01*
X181070883Y-69870943D01*
X181333673Y-70134192D01*
X181677201Y-70276838D01*
X182049167Y-70277162D01*
X182392943Y-70135117D01*
X182656192Y-69872327D01*
X182798838Y-69528799D01*
X182798839Y-69527167D01*
X186008838Y-69527167D01*
X186150883Y-69870943D01*
X186413673Y-70134192D01*
X186757201Y-70276838D01*
X187129167Y-70277162D01*
X187472943Y-70135117D01*
X187736192Y-69872327D01*
X187878838Y-69528799D01*
X187878839Y-69527167D01*
X191088838Y-69527167D01*
X191230883Y-69870943D01*
X191493673Y-70134192D01*
X191837201Y-70276838D01*
X192209167Y-70277162D01*
X192552943Y-70135117D01*
X192816192Y-69872327D01*
X192958838Y-69528799D01*
X192958839Y-69527167D01*
X196168838Y-69527167D01*
X196310883Y-69870943D01*
X196573673Y-70134192D01*
X196917201Y-70276838D01*
X197289167Y-70277162D01*
X197632943Y-70135117D01*
X197896192Y-69872327D01*
X198038838Y-69528799D01*
X198038839Y-69527167D01*
X201248838Y-69527167D01*
X201390883Y-69870943D01*
X201653673Y-70134192D01*
X201997201Y-70276838D01*
X202369167Y-70277162D01*
X202712943Y-70135117D01*
X202976192Y-69872327D01*
X203118838Y-69528799D01*
X203118839Y-69527167D01*
X206328838Y-69527167D01*
X206470883Y-69870943D01*
X206733673Y-70134192D01*
X207077201Y-70276838D01*
X207449167Y-70277162D01*
X207792943Y-70135117D01*
X208056192Y-69872327D01*
X208198838Y-69528799D01*
X208198839Y-69527167D01*
X211408838Y-69527167D01*
X211550883Y-69870943D01*
X211813673Y-70134192D01*
X212157201Y-70276838D01*
X212529167Y-70277162D01*
X212872943Y-70135117D01*
X213136192Y-69872327D01*
X213278838Y-69528799D01*
X213279162Y-69156833D01*
X213137117Y-68813057D01*
X212874327Y-68549808D01*
X212530799Y-68407162D01*
X212158833Y-68406838D01*
X211815057Y-68548883D01*
X211551808Y-68811673D01*
X211409162Y-69155201D01*
X211408838Y-69527167D01*
X208198839Y-69527167D01*
X208199162Y-69156833D01*
X208057117Y-68813057D01*
X207794327Y-68549808D01*
X207701270Y-68511167D01*
X208868838Y-68511167D01*
X209010883Y-68854943D01*
X209273673Y-69118192D01*
X209617201Y-69260838D01*
X209989167Y-69261162D01*
X210332943Y-69119117D01*
X210596192Y-68856327D01*
X210738838Y-68512799D01*
X210739162Y-68140833D01*
X210597117Y-67797057D01*
X210334327Y-67533808D01*
X209990799Y-67391162D01*
X209618833Y-67390838D01*
X209275057Y-67532883D01*
X209011808Y-67795673D01*
X208869162Y-68139201D01*
X208868838Y-68511167D01*
X207701270Y-68511167D01*
X207450799Y-68407162D01*
X207078833Y-68406838D01*
X206735057Y-68548883D01*
X206471808Y-68811673D01*
X206329162Y-69155201D01*
X206328838Y-69527167D01*
X203118839Y-69527167D01*
X203119162Y-69156833D01*
X202977117Y-68813057D01*
X202714327Y-68549808D01*
X202621270Y-68511167D01*
X203788838Y-68511167D01*
X203930883Y-68854943D01*
X204193673Y-69118192D01*
X204537201Y-69260838D01*
X204909167Y-69261162D01*
X205252943Y-69119117D01*
X205516192Y-68856327D01*
X205658838Y-68512799D01*
X205659162Y-68140833D01*
X205517117Y-67797057D01*
X205254327Y-67533808D01*
X204910799Y-67391162D01*
X204538833Y-67390838D01*
X204195057Y-67532883D01*
X203931808Y-67795673D01*
X203789162Y-68139201D01*
X203788838Y-68511167D01*
X202621270Y-68511167D01*
X202370799Y-68407162D01*
X201998833Y-68406838D01*
X201655057Y-68548883D01*
X201391808Y-68811673D01*
X201249162Y-69155201D01*
X201248838Y-69527167D01*
X198038839Y-69527167D01*
X198039162Y-69156833D01*
X197897117Y-68813057D01*
X197634327Y-68549808D01*
X197541270Y-68511167D01*
X198708838Y-68511167D01*
X198850883Y-68854943D01*
X199113673Y-69118192D01*
X199457201Y-69260838D01*
X199829167Y-69261162D01*
X200172943Y-69119117D01*
X200436192Y-68856327D01*
X200578838Y-68512799D01*
X200579162Y-68140833D01*
X200437117Y-67797057D01*
X200174327Y-67533808D01*
X199830799Y-67391162D01*
X199458833Y-67390838D01*
X199115057Y-67532883D01*
X198851808Y-67795673D01*
X198709162Y-68139201D01*
X198708838Y-68511167D01*
X197541270Y-68511167D01*
X197290799Y-68407162D01*
X196918833Y-68406838D01*
X196575057Y-68548883D01*
X196311808Y-68811673D01*
X196169162Y-69155201D01*
X196168838Y-69527167D01*
X192958839Y-69527167D01*
X192959162Y-69156833D01*
X192817117Y-68813057D01*
X192554327Y-68549808D01*
X192461270Y-68511167D01*
X193628838Y-68511167D01*
X193770883Y-68854943D01*
X194033673Y-69118192D01*
X194377201Y-69260838D01*
X194749167Y-69261162D01*
X195092943Y-69119117D01*
X195356192Y-68856327D01*
X195498838Y-68512799D01*
X195499162Y-68140833D01*
X195357117Y-67797057D01*
X195094327Y-67533808D01*
X194750799Y-67391162D01*
X194378833Y-67390838D01*
X194035057Y-67532883D01*
X193771808Y-67795673D01*
X193629162Y-68139201D01*
X193628838Y-68511167D01*
X192461270Y-68511167D01*
X192210799Y-68407162D01*
X191838833Y-68406838D01*
X191495057Y-68548883D01*
X191231808Y-68811673D01*
X191089162Y-69155201D01*
X191088838Y-69527167D01*
X187878839Y-69527167D01*
X187879162Y-69156833D01*
X187737117Y-68813057D01*
X187474327Y-68549808D01*
X187381270Y-68511167D01*
X188548838Y-68511167D01*
X188690883Y-68854943D01*
X188953673Y-69118192D01*
X189297201Y-69260838D01*
X189669167Y-69261162D01*
X190012943Y-69119117D01*
X190276192Y-68856327D01*
X190418838Y-68512799D01*
X190419162Y-68140833D01*
X190277117Y-67797057D01*
X190014327Y-67533808D01*
X189670799Y-67391162D01*
X189298833Y-67390838D01*
X188955057Y-67532883D01*
X188691808Y-67795673D01*
X188549162Y-68139201D01*
X188548838Y-68511167D01*
X187381270Y-68511167D01*
X187130799Y-68407162D01*
X186758833Y-68406838D01*
X186415057Y-68548883D01*
X186151808Y-68811673D01*
X186009162Y-69155201D01*
X186008838Y-69527167D01*
X182798839Y-69527167D01*
X182799162Y-69156833D01*
X182657117Y-68813057D01*
X182394327Y-68549808D01*
X182301270Y-68511167D01*
X183468838Y-68511167D01*
X183610883Y-68854943D01*
X183873673Y-69118192D01*
X184217201Y-69260838D01*
X184589167Y-69261162D01*
X184932943Y-69119117D01*
X185196192Y-68856327D01*
X185338838Y-68512799D01*
X185339162Y-68140833D01*
X185197117Y-67797057D01*
X184934327Y-67533808D01*
X184590799Y-67391162D01*
X184218833Y-67390838D01*
X183875057Y-67532883D01*
X183611808Y-67795673D01*
X183469162Y-68139201D01*
X183468838Y-68511167D01*
X182301270Y-68511167D01*
X182050799Y-68407162D01*
X181678833Y-68406838D01*
X181335057Y-68548883D01*
X181071808Y-68811673D01*
X180929162Y-69155201D01*
X180928838Y-69527167D01*
X177718839Y-69527167D01*
X177719162Y-69156833D01*
X177577117Y-68813057D01*
X177529311Y-68765167D01*
X178388838Y-68765167D01*
X178530883Y-69108943D01*
X178793673Y-69372192D01*
X179137201Y-69514838D01*
X179509167Y-69515162D01*
X179852943Y-69373117D01*
X180116192Y-69110327D01*
X180258838Y-68766799D01*
X180259162Y-68394833D01*
X180117117Y-68051057D01*
X179854327Y-67787808D01*
X179510799Y-67645162D01*
X179138833Y-67644838D01*
X178795057Y-67786883D01*
X178531808Y-68049673D01*
X178389162Y-68393201D01*
X178388838Y-68765167D01*
X177529311Y-68765167D01*
X177314327Y-68549808D01*
X176970799Y-68407162D01*
X176598833Y-68406838D01*
X176255057Y-68548883D01*
X175991808Y-68811673D01*
X175849162Y-69155201D01*
X175848838Y-69527167D01*
X172638839Y-69527167D01*
X172639162Y-69156833D01*
X172497117Y-68813057D01*
X172449311Y-68765167D01*
X173308838Y-68765167D01*
X173450883Y-69108943D01*
X173713673Y-69372192D01*
X174057201Y-69514838D01*
X174429167Y-69515162D01*
X174772943Y-69373117D01*
X175036192Y-69110327D01*
X175178838Y-68766799D01*
X175179162Y-68394833D01*
X175037117Y-68051057D01*
X174774327Y-67787808D01*
X174430799Y-67645162D01*
X174058833Y-67644838D01*
X173715057Y-67786883D01*
X173451808Y-68049673D01*
X173309162Y-68393201D01*
X173308838Y-68765167D01*
X172449311Y-68765167D01*
X172234327Y-68549808D01*
X171890799Y-68407162D01*
X171518833Y-68406838D01*
X171175057Y-68548883D01*
X170911808Y-68811673D01*
X170769162Y-69155201D01*
X170768838Y-69527167D01*
X167558839Y-69527167D01*
X167559162Y-69156833D01*
X167417117Y-68813057D01*
X167369311Y-68765167D01*
X168228838Y-68765167D01*
X168370883Y-69108943D01*
X168633673Y-69372192D01*
X168977201Y-69514838D01*
X169349167Y-69515162D01*
X169692943Y-69373117D01*
X169956192Y-69110327D01*
X170098838Y-68766799D01*
X170099162Y-68394833D01*
X169957117Y-68051057D01*
X169694327Y-67787808D01*
X169350799Y-67645162D01*
X168978833Y-67644838D01*
X168635057Y-67786883D01*
X168371808Y-68049673D01*
X168229162Y-68393201D01*
X168228838Y-68765167D01*
X167369311Y-68765167D01*
X167154327Y-68549808D01*
X166810799Y-68407162D01*
X166438833Y-68406838D01*
X166095057Y-68548883D01*
X165831808Y-68811673D01*
X165689162Y-69155201D01*
X165688838Y-69527167D01*
X164338000Y-69527167D01*
X164338000Y-67183000D01*
X214884000Y-67183000D01*
X214884000Y-85979000D01*
M02*
