M48
;DRILL file {KiCad 4.0.6} date 04/10/18 12:10:34
;FORMAT={-:-/ absolute / inch / decimal}
FMAT,2
INCH,TZ
T1C0.016
T2C0.031
T3C0.032
T4C0.039
T5C0.060
%
G90
G05
M72
T1
X3.165Y-2.505
X3.67Y-2.18
X3.81Y-2.4
X3.86Y-1.52
X3.95Y-3.02
X5.72Y-1.9
X5.8425Y-1.81
X5.875Y-1.6775
X5.93Y-3.02
X6.16Y-1.5925
X6.1625Y-2.5
X6.3861Y-3.1482
X6.56Y-2.73
X6.56Y-2.82
X6.56Y-2.91
X6.56Y-3.
X6.56Y-3.09
X6.56Y-3.18
X6.56Y-3.27
X6.66Y-2.34
X6.66Y-2.7
X6.66Y-2.79
X6.66Y-2.88
X6.66Y-2.97
X6.66Y-3.06
X6.66Y-3.15
X6.66Y-3.24
X6.66Y-3.33
X6.76Y-2.73
X6.76Y-2.82
X6.76Y-2.91
X6.76Y-3.
X6.76Y-3.09
X6.76Y-3.18
X6.76Y-3.27
X6.86Y-2.7
X6.86Y-2.79
X6.86Y-2.88
X6.86Y-2.97
X6.86Y-3.06
X6.86Y-3.15
X6.86Y-3.24
X6.86Y-3.33
X6.96Y-2.73
X6.96Y-2.82
X6.96Y-2.91
X6.96Y-3.
X6.96Y-3.09
X6.96Y-3.18
X6.96Y-3.27
X7.06Y-2.7
X7.06Y-2.79
X7.06Y-2.88
X7.06Y-2.97
X7.06Y-3.06
X7.06Y-3.15
X7.06Y-3.24
X7.06Y-3.33
X7.16Y-2.73
X7.16Y-2.82
X7.16Y-2.91
X7.16Y-3.
X7.16Y-3.09
X7.16Y-3.18
X7.16Y-3.27
X7.26Y-2.69
X7.26Y-2.78
X7.26Y-2.87
X7.26Y-2.96
X7.26Y-3.05
X7.26Y-3.15
X7.26Y-3.24
X7.26Y-3.33
X7.36Y-2.73
X7.36Y-2.82
X7.36Y-2.91
X7.36Y-3.
X7.36Y-3.09
X7.36Y-3.18
X7.36Y-3.27
X7.46Y-2.69
X7.46Y-2.78
X7.46Y-2.87
X7.46Y-2.96
X7.46Y-3.33
X7.56Y-2.73
X7.56Y-2.82
X7.56Y-2.91
X7.56Y-3.
X7.56Y-3.27
X7.5675Y-3.0775
X7.5675Y-3.1675
X7.66Y-2.69
X7.66Y-2.78
X7.66Y-2.87
X7.66Y-2.96
X7.66Y-3.05
X7.66Y-3.14
X7.66Y-3.23
X7.66Y-3.32
X7.76Y-2.73
X7.76Y-2.82
X7.76Y-2.91
X7.76Y-3.
X7.76Y-3.09
X7.76Y-3.18
X7.76Y-3.27
X7.86Y-2.69
X7.86Y-2.78
X7.86Y-2.87
X7.86Y-2.96
X7.86Y-3.05
X7.86Y-3.14
X7.86Y-3.23
X7.86Y-3.32
X7.96Y-2.73
X7.96Y-2.82
X7.96Y-2.91
X7.96Y-3.
X7.96Y-3.09
X7.96Y-3.18
X7.96Y-3.27
X8.06Y-2.69
X8.06Y-2.78
X8.06Y-2.87
X8.06Y-2.96
X8.06Y-3.05
X8.06Y-3.14
X8.06Y-3.23
X8.06Y-3.32
X8.0728Y-1.9874
X8.16Y-2.73
X8.16Y-2.82
X8.16Y-2.91
X8.16Y-3.
X8.16Y-3.09
X8.16Y-3.18
X8.16Y-3.27
X8.26Y-2.69
X8.26Y-2.78
X8.26Y-2.87
X8.26Y-2.96
X8.26Y-3.05
X8.26Y-3.14
X8.26Y-3.23
X8.26Y-3.32
X8.36Y-2.73
X8.36Y-2.82
X8.36Y-2.91
X8.36Y-3.
X8.36Y-3.09
X8.36Y-3.18
X8.36Y-3.27
T2
X5.78Y-1.54
X5.78Y-1.64
X5.78Y-1.74
X5.78Y-1.84
X5.78Y-2.4
X5.78Y-2.5
X5.78Y-2.6
X6.08Y-1.54
X6.08Y-1.64
X6.08Y-1.74
X6.08Y-1.84
X6.08Y-2.4
X6.08Y-2.5
X6.08Y-2.6
X7.4803Y-1.5
X7.4803Y-1.6
X7.4803Y-1.7
X7.4803Y-1.8
X7.4803Y-1.9
X7.7803Y-1.5
X7.7803Y-1.6
X7.7803Y-1.7
X7.7803Y-1.8
X7.7803Y-1.9
T3
X6.386Y-1.5158
X6.386Y-1.6142
X6.4254Y-1.437
X6.4254Y-1.693
X6.4647Y-1.5158
X6.4647Y-1.6142
X6.5041Y-1.437
X6.5041Y-1.693
X6.5435Y-1.5158
X6.5435Y-1.6142
X6.5828Y-1.437
X6.5828Y-1.693
X6.6222Y-1.5158
X6.6222Y-1.6142
X6.6616Y-1.437
X6.6616Y-1.693
X6.7009Y-1.5158
X6.7009Y-1.6142
X6.7403Y-1.437
X6.7403Y-1.693
X6.7797Y-1.5158
X6.7797Y-1.6142
X6.8978Y-1.437
X6.8978Y-1.693
X6.9372Y-1.5158
X6.9372Y-1.6142
X6.9765Y-1.437
X6.9765Y-1.693
X7.0159Y-1.5158
X7.0159Y-1.6142
X7.0553Y-1.437
X7.0553Y-1.693
X7.0946Y-1.5158
X7.0946Y-1.6142
X7.134Y-1.437
X7.134Y-1.693
T4
X3.41Y-1.62
X3.41Y-1.72
X3.41Y-1.99
X3.41Y-2.09
X3.51Y-1.62
X3.51Y-1.72
X3.51Y-1.99
X3.51Y-2.09
X3.61Y-1.62
X3.61Y-1.72
X3.61Y-1.99
X3.61Y-2.09
X3.71Y-1.62
X3.71Y-1.72
X3.71Y-1.99
X3.71Y-2.09
X3.81Y-1.62
X3.81Y-1.72
X3.81Y-1.99
X3.81Y-2.09
X3.91Y-1.62
X3.91Y-1.72
X3.91Y-1.99
X3.91Y-2.09
X4.01Y-1.62
X4.01Y-1.72
X4.01Y-1.99
X4.01Y-2.09
X4.11Y-1.62
X4.11Y-1.72
X4.11Y-1.99
X4.11Y-2.09
X4.21Y-1.62
X4.21Y-1.72
X4.21Y-1.99
X4.21Y-2.09
X4.31Y-1.62
X4.31Y-1.72
X4.31Y-1.99
X4.31Y-2.09
X4.41Y-1.62
X4.41Y-1.72
X4.41Y-1.99
X4.41Y-2.09
X4.51Y-1.62
X4.51Y-1.72
X4.51Y-1.99
X4.51Y-2.09
X4.61Y-1.62
X4.61Y-1.72
X4.61Y-1.99
X4.61Y-2.09
X4.71Y-1.62
X4.71Y-1.72
X4.71Y-1.99
X4.71Y-2.09
X4.81Y-1.62
X4.81Y-1.72
X4.81Y-1.99
X4.81Y-2.09
X4.91Y-1.62
X4.91Y-1.72
X4.91Y-1.99
X4.91Y-2.09
X5.01Y-1.62
X5.01Y-1.72
X5.01Y-1.99
X5.01Y-2.09
X5.11Y-1.62
X5.11Y-1.72
X5.11Y-1.99
X5.11Y-2.09
X5.21Y-1.62
X5.21Y-1.72
X5.21Y-1.99
X5.21Y-2.09
X5.31Y-1.62
X5.31Y-1.72
X5.31Y-1.99
X5.31Y-2.09
X7.3646Y-2.4697
X7.4646Y-2.4697
X7.5646Y-2.4697
T5
X2.93Y-1.59
X2.93Y-1.79
X2.93Y-1.99
X2.93Y-2.19
X2.93Y-2.39
X2.93Y-2.59
X5.635Y-3.15
X5.835Y-3.15
X6.035Y-3.15
X6.235Y-3.15
X8.7431Y-1.59
X8.7431Y-1.79
X8.7431Y-1.99
X8.7431Y-2.19
X8.7431Y-2.39
X8.7431Y-2.59
T0
M30
