%FSLAX45Y45*%
G04 Gerber Fmt 4.5, Leading zero omitted, Abs format (unit mm)*
G04 Created by KiCad (PCBNEW 4.0.6) date 04/16/18 16:28:50*
%MOMM*%
%LPD*%
G01*
G04 APERTURE LIST*
%ADD10C,0.127000*%
%ADD11C,0.150000*%
%ADD12C,0.200000*%
%ADD13C,0.300000*%
G04 APERTURE END LIST*
D10*
D11*
X6573600Y-9101600D02*
X23063600Y-9101600D01*
X6573600Y-9101600D02*
X7623600Y-9101600D01*
X22263600Y-2743200D02*
X23063600Y-2743200D01*
X22263600Y-2743200D02*
X22263600Y-3300000D01*
X23063600Y-2743200D02*
X23063600Y-9101600D01*
X7373600Y-3300000D02*
X7373600Y-2743200D01*
X6573600Y-2743200D02*
X7373600Y-2743200D01*
X6573600Y-2743200D02*
X6573600Y-9101600D01*
X7373600Y-3300000D02*
X22263600Y-3300000D01*
D12*
X8019100Y-6342700D02*
X8059100Y-6382700D01*
X8059100Y-6342700D02*
X8019100Y-6382700D01*
X9301800Y-5517200D02*
X9341800Y-5557200D01*
X9341800Y-5517200D02*
X9301800Y-5557200D01*
X9657400Y-6076000D02*
X9697400Y-6116000D01*
X9697400Y-6076000D02*
X9657400Y-6116000D01*
X9784400Y-3840800D02*
X9824400Y-3880800D01*
X9824400Y-3840800D02*
X9784400Y-3880800D01*
X10013000Y-7650800D02*
X10053000Y-7690800D01*
X10053000Y-7650800D02*
X10013000Y-7690800D01*
X14508800Y-4806000D02*
X14548800Y-4846000D01*
X14548800Y-4806000D02*
X14508800Y-4846000D01*
X14819950Y-4577400D02*
X14859950Y-4617400D01*
X14859950Y-4577400D02*
X14819950Y-4617400D01*
X14902500Y-4240850D02*
X14942500Y-4280850D01*
X14942500Y-4240850D02*
X14902500Y-4280850D01*
X15042200Y-7650800D02*
X15082200Y-7690800D01*
X15082200Y-7650800D02*
X15042200Y-7690800D01*
X15632750Y-6330000D02*
X15672750Y-6370000D01*
X15672750Y-6330000D02*
X15632750Y-6370000D01*
X15636052Y-4369882D02*
X15676052Y-4409882D01*
X15676052Y-4369882D02*
X15636052Y-4409882D01*
X15764068Y-4478848D02*
X15804068Y-4518848D01*
X15804068Y-4478848D02*
X15764068Y-4518848D01*
X16200694Y-7976428D02*
X16240694Y-8016428D01*
X16240694Y-7976428D02*
X16200694Y-8016428D01*
X16642400Y-6914200D02*
X16682400Y-6954200D01*
X16682400Y-6914200D02*
X16642400Y-6954200D01*
X16642400Y-7142800D02*
X16682400Y-7182800D01*
X16682400Y-7142800D02*
X16642400Y-7182800D01*
X16642400Y-7371400D02*
X16682400Y-7411400D01*
X16682400Y-7371400D02*
X16642400Y-7411400D01*
X16642400Y-7600000D02*
X16682400Y-7640000D01*
X16682400Y-7600000D02*
X16642400Y-7640000D01*
X16642400Y-7828600D02*
X16682400Y-7868600D01*
X16682400Y-7828600D02*
X16642400Y-7868600D01*
X16642400Y-8057200D02*
X16682400Y-8097200D01*
X16682400Y-8057200D02*
X16642400Y-8097200D01*
X16642400Y-8285800D02*
X16682400Y-8325800D01*
X16682400Y-8285800D02*
X16642400Y-8325800D01*
X16896400Y-6838000D02*
X16936400Y-6878000D01*
X16936400Y-6838000D02*
X16896400Y-6878000D01*
X16896400Y-7066600D02*
X16936400Y-7106600D01*
X16936400Y-7066600D02*
X16896400Y-7106600D01*
X16896400Y-7295200D02*
X16936400Y-7335200D01*
X16936400Y-7295200D02*
X16896400Y-7335200D01*
X16896400Y-7523800D02*
X16936400Y-7563800D01*
X16936400Y-7523800D02*
X16896400Y-7563800D01*
X16896400Y-7752400D02*
X16936400Y-7792400D01*
X16936400Y-7752400D02*
X16896400Y-7792400D01*
X16896400Y-7981000D02*
X16936400Y-8021000D01*
X16936400Y-7981000D02*
X16896400Y-8021000D01*
X16896400Y-8209600D02*
X16936400Y-8249600D01*
X16936400Y-8209600D02*
X16896400Y-8249600D01*
X16896400Y-8438200D02*
X16936400Y-8478200D01*
X16936400Y-8438200D02*
X16896400Y-8478200D01*
X17150400Y-6914200D02*
X17190400Y-6954200D01*
X17190400Y-6914200D02*
X17150400Y-6954200D01*
X17150400Y-7142800D02*
X17190400Y-7182800D01*
X17190400Y-7142800D02*
X17150400Y-7182800D01*
X17150400Y-7371400D02*
X17190400Y-7411400D01*
X17190400Y-7371400D02*
X17150400Y-7411400D01*
X17150400Y-7600000D02*
X17190400Y-7640000D01*
X17190400Y-7600000D02*
X17150400Y-7640000D01*
X17150400Y-7828600D02*
X17190400Y-7868600D01*
X17190400Y-7828600D02*
X17150400Y-7868600D01*
X17150400Y-8057200D02*
X17190400Y-8097200D01*
X17190400Y-8057200D02*
X17150400Y-8097200D01*
X17150400Y-8285800D02*
X17190400Y-8325800D01*
X17190400Y-8285800D02*
X17150400Y-8325800D01*
X17404400Y-6838000D02*
X17444400Y-6878000D01*
X17444400Y-6838000D02*
X17404400Y-6878000D01*
X17404400Y-7066600D02*
X17444400Y-7106600D01*
X17444400Y-7066600D02*
X17404400Y-7106600D01*
X17404400Y-7295200D02*
X17444400Y-7335200D01*
X17444400Y-7295200D02*
X17404400Y-7335200D01*
X17404400Y-7523800D02*
X17444400Y-7563800D01*
X17444400Y-7523800D02*
X17404400Y-7563800D01*
X17404400Y-7752400D02*
X17444400Y-7792400D01*
X17444400Y-7752400D02*
X17404400Y-7792400D01*
X17404400Y-7981000D02*
X17444400Y-8021000D01*
X17444400Y-7981000D02*
X17404400Y-8021000D01*
X17404400Y-8209600D02*
X17444400Y-8249600D01*
X17444400Y-8209600D02*
X17404400Y-8249600D01*
X17404400Y-8438200D02*
X17444400Y-8478200D01*
X17444400Y-8438200D02*
X17404400Y-8478200D01*
X17658400Y-6914200D02*
X17698400Y-6954200D01*
X17698400Y-6914200D02*
X17658400Y-6954200D01*
X17658400Y-7142800D02*
X17698400Y-7182800D01*
X17698400Y-7142800D02*
X17658400Y-7182800D01*
X17658400Y-7371400D02*
X17698400Y-7411400D01*
X17698400Y-7371400D02*
X17658400Y-7411400D01*
X17658400Y-7600000D02*
X17698400Y-7640000D01*
X17698400Y-7600000D02*
X17658400Y-7640000D01*
X17658400Y-7828600D02*
X17698400Y-7868600D01*
X17698400Y-7828600D02*
X17658400Y-7868600D01*
X17658400Y-8057200D02*
X17698400Y-8097200D01*
X17698400Y-8057200D02*
X17658400Y-8097200D01*
X17658400Y-8285800D02*
X17698400Y-8325800D01*
X17698400Y-8285800D02*
X17658400Y-8325800D01*
X17912400Y-6838000D02*
X17952400Y-6878000D01*
X17952400Y-6838000D02*
X17912400Y-6878000D01*
X17912400Y-7066600D02*
X17952400Y-7106600D01*
X17952400Y-7066600D02*
X17912400Y-7106600D01*
X17912400Y-7295200D02*
X17952400Y-7335200D01*
X17952400Y-7295200D02*
X17912400Y-7335200D01*
X17912400Y-7523800D02*
X17952400Y-7563800D01*
X17952400Y-7523800D02*
X17912400Y-7563800D01*
X17912400Y-7752400D02*
X17952400Y-7792400D01*
X17952400Y-7752400D02*
X17912400Y-7792400D01*
X17912400Y-7981000D02*
X17952400Y-8021000D01*
X17952400Y-7981000D02*
X17912400Y-8021000D01*
X17912400Y-8209600D02*
X17952400Y-8249600D01*
X17952400Y-8209600D02*
X17912400Y-8249600D01*
X17912400Y-8438200D02*
X17952400Y-8478200D01*
X17952400Y-8438200D02*
X17912400Y-8478200D01*
X18166400Y-6914200D02*
X18206400Y-6954200D01*
X18206400Y-6914200D02*
X18166400Y-6954200D01*
X18166400Y-7142800D02*
X18206400Y-7182800D01*
X18206400Y-7142800D02*
X18166400Y-7182800D01*
X18166400Y-7371400D02*
X18206400Y-7411400D01*
X18206400Y-7371400D02*
X18166400Y-7411400D01*
X18166400Y-7600000D02*
X18206400Y-7640000D01*
X18206400Y-7600000D02*
X18166400Y-7640000D01*
X18166400Y-7828600D02*
X18206400Y-7868600D01*
X18206400Y-7828600D02*
X18166400Y-7868600D01*
X18166400Y-8057200D02*
X18206400Y-8097200D01*
X18206400Y-8057200D02*
X18166400Y-8097200D01*
X18166400Y-8285800D02*
X18206400Y-8325800D01*
X18206400Y-8285800D02*
X18166400Y-8325800D01*
X18420400Y-6812600D02*
X18460400Y-6852600D01*
X18460400Y-6812600D02*
X18420400Y-6852600D01*
X18420400Y-7041200D02*
X18460400Y-7081200D01*
X18460400Y-7041200D02*
X18420400Y-7081200D01*
X18420400Y-7269800D02*
X18460400Y-7309800D01*
X18460400Y-7269800D02*
X18420400Y-7309800D01*
X18420400Y-7498400D02*
X18460400Y-7538400D01*
X18460400Y-7498400D02*
X18420400Y-7538400D01*
X18420400Y-7727000D02*
X18460400Y-7767000D01*
X18460400Y-7727000D02*
X18420400Y-7767000D01*
X18420400Y-7981000D02*
X18460400Y-8021000D01*
X18460400Y-7981000D02*
X18420400Y-8021000D01*
X18420400Y-8209600D02*
X18460400Y-8249600D01*
X18460400Y-8209600D02*
X18420400Y-8249600D01*
X18420400Y-8438200D02*
X18460400Y-8478200D01*
X18460400Y-8438200D02*
X18420400Y-8478200D01*
X18674400Y-6914200D02*
X18714400Y-6954200D01*
X18714400Y-6914200D02*
X18674400Y-6954200D01*
X18674400Y-7142800D02*
X18714400Y-7182800D01*
X18714400Y-7142800D02*
X18674400Y-7182800D01*
X18674400Y-7371400D02*
X18714400Y-7411400D01*
X18714400Y-7371400D02*
X18674400Y-7411400D01*
X18674400Y-7600000D02*
X18714400Y-7640000D01*
X18714400Y-7600000D02*
X18674400Y-7640000D01*
X18674400Y-7828600D02*
X18714400Y-7868600D01*
X18714400Y-7828600D02*
X18674400Y-7868600D01*
X18674400Y-8057200D02*
X18714400Y-8097200D01*
X18714400Y-8057200D02*
X18674400Y-8097200D01*
X18674400Y-8285800D02*
X18714400Y-8325800D01*
X18714400Y-8285800D02*
X18674400Y-8325800D01*
X18928400Y-6812600D02*
X18968400Y-6852600D01*
X18968400Y-6812600D02*
X18928400Y-6852600D01*
X18928400Y-7041200D02*
X18968400Y-7081200D01*
X18968400Y-7041200D02*
X18928400Y-7081200D01*
X18928400Y-7269800D02*
X18968400Y-7309800D01*
X18968400Y-7269800D02*
X18928400Y-7309800D01*
X18928400Y-7498400D02*
X18968400Y-7538400D01*
X18968400Y-7498400D02*
X18928400Y-7538400D01*
X18928400Y-8438200D02*
X18968400Y-8478200D01*
X18968400Y-8438200D02*
X18928400Y-8478200D01*
X19182400Y-6914200D02*
X19222400Y-6954200D01*
X19222400Y-6914200D02*
X19182400Y-6954200D01*
X19182400Y-7142800D02*
X19222400Y-7182800D01*
X19222400Y-7142800D02*
X19182400Y-7182800D01*
X19182400Y-7371400D02*
X19222400Y-7411400D01*
X19222400Y-7371400D02*
X19182400Y-7411400D01*
X19182400Y-7600000D02*
X19222400Y-7640000D01*
X19222400Y-7600000D02*
X19182400Y-7640000D01*
X19182400Y-8285800D02*
X19222400Y-8325800D01*
X19222400Y-8285800D02*
X19182400Y-8325800D01*
X19201450Y-7796850D02*
X19241450Y-7836850D01*
X19241450Y-7796850D02*
X19201450Y-7836850D01*
X19201450Y-8025450D02*
X19241450Y-8065450D01*
X19241450Y-8025450D02*
X19201450Y-8065450D01*
X19436400Y-6812600D02*
X19476400Y-6852600D01*
X19476400Y-6812600D02*
X19436400Y-6852600D01*
X19436400Y-7041200D02*
X19476400Y-7081200D01*
X19476400Y-7041200D02*
X19436400Y-7081200D01*
X19436400Y-7269800D02*
X19476400Y-7309800D01*
X19476400Y-7269800D02*
X19436400Y-7309800D01*
X19436400Y-7498400D02*
X19476400Y-7538400D01*
X19476400Y-7498400D02*
X19436400Y-7538400D01*
X19436400Y-7727000D02*
X19476400Y-7767000D01*
X19476400Y-7727000D02*
X19436400Y-7767000D01*
X19436400Y-7955600D02*
X19476400Y-7995600D01*
X19476400Y-7955600D02*
X19436400Y-7995600D01*
X19436400Y-8184200D02*
X19476400Y-8224200D01*
X19476400Y-8184200D02*
X19436400Y-8224200D01*
X19436400Y-8412800D02*
X19476400Y-8452800D01*
X19476400Y-8412800D02*
X19436400Y-8452800D01*
X19690400Y-6914200D02*
X19730400Y-6954200D01*
X19730400Y-6914200D02*
X19690400Y-6954200D01*
X19690400Y-7142800D02*
X19730400Y-7182800D01*
X19730400Y-7142800D02*
X19690400Y-7182800D01*
X19690400Y-7371400D02*
X19730400Y-7411400D01*
X19730400Y-7371400D02*
X19690400Y-7411400D01*
X19690400Y-7600000D02*
X19730400Y-7640000D01*
X19730400Y-7600000D02*
X19690400Y-7640000D01*
X19690400Y-7828600D02*
X19730400Y-7868600D01*
X19730400Y-7828600D02*
X19690400Y-7868600D01*
X19690400Y-8057200D02*
X19730400Y-8097200D01*
X19730400Y-8057200D02*
X19690400Y-8097200D01*
X19690400Y-8285800D02*
X19730400Y-8325800D01*
X19730400Y-8285800D02*
X19690400Y-8325800D01*
X19944400Y-6812600D02*
X19984400Y-6852600D01*
X19984400Y-6812600D02*
X19944400Y-6852600D01*
X19944400Y-7041200D02*
X19984400Y-7081200D01*
X19984400Y-7041200D02*
X19944400Y-7081200D01*
X19944400Y-7269800D02*
X19984400Y-7309800D01*
X19984400Y-7269800D02*
X19944400Y-7309800D01*
X19944400Y-7498400D02*
X19984400Y-7538400D01*
X19984400Y-7498400D02*
X19944400Y-7538400D01*
X19944400Y-7727000D02*
X19984400Y-7767000D01*
X19984400Y-7727000D02*
X19944400Y-7767000D01*
X19944400Y-7955600D02*
X19984400Y-7995600D01*
X19984400Y-7955600D02*
X19944400Y-7995600D01*
X19944400Y-8184200D02*
X19984400Y-8224200D01*
X19984400Y-8184200D02*
X19944400Y-8224200D01*
X19944400Y-8412800D02*
X19984400Y-8452800D01*
X19984400Y-8412800D02*
X19944400Y-8452800D01*
X20198400Y-6914200D02*
X20238400Y-6954200D01*
X20238400Y-6914200D02*
X20198400Y-6954200D01*
X20198400Y-7142800D02*
X20238400Y-7182800D01*
X20238400Y-7142800D02*
X20198400Y-7182800D01*
X20198400Y-7371400D02*
X20238400Y-7411400D01*
X20238400Y-7371400D02*
X20198400Y-7411400D01*
X20198400Y-7600000D02*
X20238400Y-7640000D01*
X20238400Y-7600000D02*
X20198400Y-7640000D01*
X20198400Y-7828600D02*
X20238400Y-7868600D01*
X20238400Y-7828600D02*
X20198400Y-7868600D01*
X20198400Y-8057200D02*
X20238400Y-8097200D01*
X20238400Y-8057200D02*
X20198400Y-8097200D01*
X20198400Y-8285800D02*
X20238400Y-8325800D01*
X20238400Y-8285800D02*
X20198400Y-8325800D01*
X20452400Y-6812600D02*
X20492400Y-6852600D01*
X20492400Y-6812600D02*
X20452400Y-6852600D01*
X20452400Y-7041200D02*
X20492400Y-7081200D01*
X20492400Y-7041200D02*
X20452400Y-7081200D01*
X20452400Y-7269800D02*
X20492400Y-7309800D01*
X20492400Y-7269800D02*
X20452400Y-7309800D01*
X20452400Y-7498400D02*
X20492400Y-7538400D01*
X20492400Y-7498400D02*
X20452400Y-7538400D01*
X20452400Y-7727000D02*
X20492400Y-7767000D01*
X20492400Y-7727000D02*
X20452400Y-7767000D01*
X20452400Y-7955600D02*
X20492400Y-7995600D01*
X20492400Y-7955600D02*
X20452400Y-7995600D01*
X20452400Y-8184200D02*
X20492400Y-8224200D01*
X20492400Y-8184200D02*
X20452400Y-8224200D01*
X20452400Y-8412800D02*
X20492400Y-8452800D01*
X20492400Y-8412800D02*
X20452400Y-8452800D01*
X20706400Y-6914200D02*
X20746400Y-6954200D01*
X20746400Y-6914200D02*
X20706400Y-6954200D01*
X20706400Y-7142800D02*
X20746400Y-7182800D01*
X20746400Y-7142800D02*
X20706400Y-7182800D01*
X20706400Y-7371400D02*
X20746400Y-7411400D01*
X20746400Y-7371400D02*
X20706400Y-7411400D01*
X20706400Y-7600000D02*
X20746400Y-7640000D01*
X20746400Y-7600000D02*
X20706400Y-7640000D01*
X20706400Y-7828600D02*
X20746400Y-7868600D01*
X20746400Y-7828600D02*
X20706400Y-7868600D01*
X20706400Y-8057200D02*
X20746400Y-8097200D01*
X20746400Y-8057200D02*
X20706400Y-8097200D01*
X20706400Y-8285800D02*
X20746400Y-8325800D01*
X20746400Y-8285800D02*
X20706400Y-8325800D01*
X20960400Y-6812600D02*
X21000400Y-6852600D01*
X21000400Y-6812600D02*
X20960400Y-6852600D01*
X20960400Y-7041200D02*
X21000400Y-7081200D01*
X21000400Y-7041200D02*
X20960400Y-7081200D01*
X20960400Y-7269800D02*
X21000400Y-7309800D01*
X21000400Y-7269800D02*
X20960400Y-7309800D01*
X20960400Y-7498400D02*
X21000400Y-7538400D01*
X21000400Y-7498400D02*
X20960400Y-7538400D01*
X20960400Y-7727000D02*
X21000400Y-7767000D01*
X21000400Y-7727000D02*
X20960400Y-7767000D01*
X20960400Y-7955600D02*
X21000400Y-7995600D01*
X21000400Y-7955600D02*
X20960400Y-7995600D01*
X20960400Y-8184200D02*
X21000400Y-8224200D01*
X21000400Y-8184200D02*
X20960400Y-8224200D01*
X20960400Y-8412800D02*
X21000400Y-8452800D01*
X21000400Y-8412800D02*
X20960400Y-8452800D01*
X21214400Y-6914200D02*
X21254400Y-6954200D01*
X21254400Y-6914200D02*
X21214400Y-6954200D01*
X21214400Y-7142800D02*
X21254400Y-7182800D01*
X21254400Y-7142800D02*
X21214400Y-7182800D01*
X21214400Y-7371400D02*
X21254400Y-7411400D01*
X21254400Y-7371400D02*
X21214400Y-7411400D01*
X21214400Y-7600000D02*
X21254400Y-7640000D01*
X21254400Y-7600000D02*
X21214400Y-7640000D01*
X21214400Y-7828600D02*
X21254400Y-7868600D01*
X21254400Y-7828600D02*
X21214400Y-7868600D01*
X21214400Y-8057200D02*
X21254400Y-8097200D01*
X21254400Y-8057200D02*
X21214400Y-8097200D01*
X21214400Y-8285800D02*
X21254400Y-8325800D01*
X21254400Y-8285800D02*
X21214400Y-8325800D01*
X14721200Y-3911600D02*
G75*
G03X14721200Y-3911600I-40000J0D01*
G01*
X14721200Y-4165600D02*
G75*
G03X14721200Y-4165600I-40000J0D01*
G01*
X14721200Y-4419600D02*
G75*
G03X14721200Y-4419600I-40000J0D01*
G01*
X14721200Y-4673600D02*
G75*
G03X14721200Y-4673600I-40000J0D01*
G01*
X14721200Y-6096000D02*
G75*
G03X14721200Y-6096000I-40000J0D01*
G01*
X14721200Y-6350000D02*
G75*
G03X14721200Y-6350000I-40000J0D01*
G01*
X14721200Y-6604000D02*
G75*
G03X14721200Y-6604000I-40000J0D01*
G01*
X15483200Y-3911600D02*
G75*
G03X15483200Y-3911600I-40000J0D01*
G01*
X15483200Y-4165600D02*
G75*
G03X15483200Y-4165600I-40000J0D01*
G01*
X15483200Y-4419600D02*
G75*
G03X15483200Y-4419600I-40000J0D01*
G01*
X15483200Y-4673600D02*
G75*
G03X15483200Y-4673600I-40000J0D01*
G01*
X15483200Y-6096000D02*
G75*
G03X15483200Y-6096000I-40000J0D01*
G01*
X15483200Y-6350000D02*
G75*
G03X15483200Y-6350000I-40000J0D01*
G01*
X15483200Y-6604000D02*
G75*
G03X15483200Y-6604000I-40000J0D01*
G01*
X19040000Y-3810000D02*
G75*
G03X19040000Y-3810000I-40000J0D01*
G01*
X19040000Y-4064000D02*
G75*
G03X19040000Y-4064000I-40000J0D01*
G01*
X19040000Y-4318000D02*
G75*
G03X19040000Y-4318000I-40000J0D01*
G01*
X19040000Y-4572000D02*
G75*
G03X19040000Y-4572000I-40000J0D01*
G01*
X19040000Y-4826000D02*
G75*
G03X19040000Y-4826000I-40000J0D01*
G01*
X19802000Y-3810000D02*
G75*
G03X19802000Y-3810000I-40000J0D01*
G01*
X19802000Y-4064000D02*
G75*
G03X19802000Y-4064000I-40000J0D01*
G01*
X19802000Y-4318000D02*
G75*
G03X19802000Y-4318000I-40000J0D01*
G01*
X19802000Y-4572000D02*
G75*
G03X19802000Y-4572000I-40000J0D01*
G01*
X19802000Y-4826000D02*
G75*
G03X19802000Y-4826000I-40000J0D01*
G01*
X16220440Y-3810127D02*
X16220440Y-3890137D01*
X16180435Y-3850132D02*
X16260445Y-3850132D01*
X16220440Y-4060063D02*
X16220440Y-4140073D01*
X16180435Y-4100068D02*
X16260445Y-4100068D01*
X16320516Y-3609975D02*
X16320516Y-3689985D01*
X16280511Y-3649980D02*
X16360521Y-3649980D01*
X16320516Y-4260215D02*
X16320516Y-4340225D01*
X16280511Y-4300220D02*
X16360521Y-4300220D01*
X16420338Y-3810127D02*
X16420338Y-3890137D01*
X16380333Y-3850132D02*
X16460343Y-3850132D01*
X16420338Y-4060063D02*
X16420338Y-4140073D01*
X16380333Y-4100068D02*
X16460343Y-4100068D01*
X16520414Y-3609975D02*
X16520414Y-3689985D01*
X16480409Y-3649980D02*
X16560419Y-3649980D01*
X16520414Y-4260215D02*
X16520414Y-4340225D01*
X16480409Y-4300220D02*
X16560419Y-4300220D01*
X16620490Y-3810127D02*
X16620490Y-3890137D01*
X16580485Y-3850132D02*
X16660495Y-3850132D01*
X16620490Y-4060063D02*
X16620490Y-4140073D01*
X16580485Y-4100068D02*
X16660495Y-4100068D01*
X16720312Y-3609975D02*
X16720312Y-3689985D01*
X16680307Y-3649980D02*
X16760317Y-3649980D01*
X16720312Y-4260215D02*
X16720312Y-4340225D01*
X16680307Y-4300220D02*
X16760317Y-4300220D01*
X16820388Y-3810127D02*
X16820388Y-3890137D01*
X16780383Y-3850132D02*
X16860393Y-3850132D01*
X16820388Y-4060063D02*
X16820388Y-4140073D01*
X16780383Y-4100068D02*
X16860393Y-4100068D01*
X16920464Y-3609975D02*
X16920464Y-3689985D01*
X16880459Y-3649980D02*
X16960469Y-3649980D01*
X16920464Y-4260215D02*
X16920464Y-4340225D01*
X16880459Y-4300220D02*
X16960469Y-4300220D01*
X17020286Y-3810127D02*
X17020286Y-3890137D01*
X16980281Y-3850132D02*
X17060291Y-3850132D01*
X17020286Y-4060063D02*
X17020286Y-4140073D01*
X16980281Y-4100068D02*
X17060291Y-4100068D01*
X17120362Y-3609975D02*
X17120362Y-3689985D01*
X17080357Y-3649980D02*
X17160367Y-3649980D01*
X17120362Y-4260215D02*
X17120362Y-4340225D01*
X17080357Y-4300220D02*
X17160367Y-4300220D01*
X17220438Y-3810127D02*
X17220438Y-3890137D01*
X17180433Y-3850132D02*
X17260443Y-3850132D01*
X17220438Y-4060063D02*
X17220438Y-4140073D01*
X17180433Y-4100068D02*
X17260443Y-4100068D01*
X17520412Y-3609975D02*
X17520412Y-3689985D01*
X17480407Y-3649980D02*
X17560417Y-3649980D01*
X17520412Y-4260215D02*
X17520412Y-4340225D01*
X17480407Y-4300220D02*
X17560417Y-4300220D01*
X17620488Y-3810127D02*
X17620488Y-3890137D01*
X17580483Y-3850132D02*
X17660493Y-3850132D01*
X17620488Y-4060063D02*
X17620488Y-4140073D01*
X17580483Y-4100068D02*
X17660493Y-4100068D01*
X17720310Y-3609975D02*
X17720310Y-3689985D01*
X17680305Y-3649980D02*
X17760315Y-3649980D01*
X17720310Y-4260215D02*
X17720310Y-4340225D01*
X17680305Y-4300220D02*
X17760315Y-4300220D01*
X17820386Y-3810127D02*
X17820386Y-3890137D01*
X17780381Y-3850132D02*
X17860391Y-3850132D01*
X17820386Y-4060063D02*
X17820386Y-4140073D01*
X17780381Y-4100068D02*
X17860391Y-4100068D01*
X17920462Y-3609975D02*
X17920462Y-3689985D01*
X17880457Y-3649980D02*
X17960467Y-3649980D01*
X17920462Y-4260215D02*
X17920462Y-4340225D01*
X17880457Y-4300220D02*
X17960467Y-4300220D01*
X18020284Y-3810127D02*
X18020284Y-3890137D01*
X17980279Y-3850132D02*
X18060289Y-3850132D01*
X18020284Y-4060063D02*
X18020284Y-4140073D01*
X17980279Y-4100068D02*
X18060289Y-4100068D01*
X18120360Y-3609975D02*
X18120360Y-3689985D01*
X18080355Y-3649980D02*
X18160365Y-3649980D01*
X18120360Y-4260215D02*
X18120360Y-4340225D01*
X18080355Y-4300220D02*
X18160365Y-4300220D01*
X8696756Y-4150156D02*
X8696756Y-4079444D01*
X8626044Y-4079444D01*
X8626044Y-4150156D01*
X8696756Y-4150156D01*
X8696756Y-4404156D02*
X8696756Y-4333444D01*
X8626044Y-4333444D01*
X8626044Y-4404156D01*
X8696756Y-4404156D01*
X8696756Y-5089956D02*
X8696756Y-5019244D01*
X8626044Y-5019244D01*
X8626044Y-5089956D01*
X8696756Y-5089956D01*
X8696756Y-5343956D02*
X8696756Y-5273244D01*
X8626044Y-5273244D01*
X8626044Y-5343956D01*
X8696756Y-5343956D01*
X8950756Y-4150156D02*
X8950756Y-4079444D01*
X8880044Y-4079444D01*
X8880044Y-4150156D01*
X8950756Y-4150156D01*
X8950756Y-4404156D02*
X8950756Y-4333444D01*
X8880044Y-4333444D01*
X8880044Y-4404156D01*
X8950756Y-4404156D01*
X8950756Y-5089956D02*
X8950756Y-5019244D01*
X8880044Y-5019244D01*
X8880044Y-5089956D01*
X8950756Y-5089956D01*
X8950756Y-5343956D02*
X8950756Y-5273244D01*
X8880044Y-5273244D01*
X8880044Y-5343956D01*
X8950756Y-5343956D01*
X9204756Y-4150156D02*
X9204756Y-4079444D01*
X9134044Y-4079444D01*
X9134044Y-4150156D01*
X9204756Y-4150156D01*
X9204756Y-4404156D02*
X9204756Y-4333444D01*
X9134044Y-4333444D01*
X9134044Y-4404156D01*
X9204756Y-4404156D01*
X9204756Y-5089956D02*
X9204756Y-5019244D01*
X9134044Y-5019244D01*
X9134044Y-5089956D01*
X9204756Y-5089956D01*
X9204756Y-5343956D02*
X9204756Y-5273244D01*
X9134044Y-5273244D01*
X9134044Y-5343956D01*
X9204756Y-5343956D01*
X9458756Y-4150156D02*
X9458756Y-4079444D01*
X9388044Y-4079444D01*
X9388044Y-4150156D01*
X9458756Y-4150156D01*
X9458756Y-4404156D02*
X9458756Y-4333444D01*
X9388044Y-4333444D01*
X9388044Y-4404156D01*
X9458756Y-4404156D01*
X9458756Y-5089956D02*
X9458756Y-5019244D01*
X9388044Y-5019244D01*
X9388044Y-5089956D01*
X9458756Y-5089956D01*
X9458756Y-5343956D02*
X9458756Y-5273244D01*
X9388044Y-5273244D01*
X9388044Y-5343956D01*
X9458756Y-5343956D01*
X9712756Y-4150156D02*
X9712756Y-4079444D01*
X9642044Y-4079444D01*
X9642044Y-4150156D01*
X9712756Y-4150156D01*
X9712756Y-4404156D02*
X9712756Y-4333444D01*
X9642044Y-4333444D01*
X9642044Y-4404156D01*
X9712756Y-4404156D01*
X9712756Y-5089956D02*
X9712756Y-5019244D01*
X9642044Y-5019244D01*
X9642044Y-5089956D01*
X9712756Y-5089956D01*
X9712756Y-5343956D02*
X9712756Y-5273244D01*
X9642044Y-5273244D01*
X9642044Y-5343956D01*
X9712756Y-5343956D01*
X9966756Y-4150156D02*
X9966756Y-4079444D01*
X9896044Y-4079444D01*
X9896044Y-4150156D01*
X9966756Y-4150156D01*
X9966756Y-4404156D02*
X9966756Y-4333444D01*
X9896044Y-4333444D01*
X9896044Y-4404156D01*
X9966756Y-4404156D01*
X9966756Y-5089956D02*
X9966756Y-5019244D01*
X9896044Y-5019244D01*
X9896044Y-5089956D01*
X9966756Y-5089956D01*
X9966756Y-5343956D02*
X9966756Y-5273244D01*
X9896044Y-5273244D01*
X9896044Y-5343956D01*
X9966756Y-5343956D01*
X10220756Y-4150156D02*
X10220756Y-4079444D01*
X10150044Y-4079444D01*
X10150044Y-4150156D01*
X10220756Y-4150156D01*
X10220756Y-4404156D02*
X10220756Y-4333444D01*
X10150044Y-4333444D01*
X10150044Y-4404156D01*
X10220756Y-4404156D01*
X10220756Y-5089956D02*
X10220756Y-5019244D01*
X10150044Y-5019244D01*
X10150044Y-5089956D01*
X10220756Y-5089956D01*
X10220756Y-5343956D02*
X10220756Y-5273244D01*
X10150044Y-5273244D01*
X10150044Y-5343956D01*
X10220756Y-5343956D01*
X10474756Y-4150156D02*
X10474756Y-4079444D01*
X10404044Y-4079444D01*
X10404044Y-4150156D01*
X10474756Y-4150156D01*
X10474756Y-4404156D02*
X10474756Y-4333444D01*
X10404044Y-4333444D01*
X10404044Y-4404156D01*
X10474756Y-4404156D01*
X10474756Y-5089956D02*
X10474756Y-5019244D01*
X10404044Y-5019244D01*
X10404044Y-5089956D01*
X10474756Y-5089956D01*
X10474756Y-5343956D02*
X10474756Y-5273244D01*
X10404044Y-5273244D01*
X10404044Y-5343956D01*
X10474756Y-5343956D01*
X10728756Y-4150156D02*
X10728756Y-4079444D01*
X10658044Y-4079444D01*
X10658044Y-4150156D01*
X10728756Y-4150156D01*
X10728756Y-4404156D02*
X10728756Y-4333444D01*
X10658044Y-4333444D01*
X10658044Y-4404156D01*
X10728756Y-4404156D01*
X10728756Y-5089956D02*
X10728756Y-5019244D01*
X10658044Y-5019244D01*
X10658044Y-5089956D01*
X10728756Y-5089956D01*
X10728756Y-5343956D02*
X10728756Y-5273244D01*
X10658044Y-5273244D01*
X10658044Y-5343956D01*
X10728756Y-5343956D01*
X10982756Y-4150156D02*
X10982756Y-4079444D01*
X10912044Y-4079444D01*
X10912044Y-4150156D01*
X10982756Y-4150156D01*
X10982756Y-4404156D02*
X10982756Y-4333444D01*
X10912044Y-4333444D01*
X10912044Y-4404156D01*
X10982756Y-4404156D01*
X10982756Y-5089956D02*
X10982756Y-5019244D01*
X10912044Y-5019244D01*
X10912044Y-5089956D01*
X10982756Y-5089956D01*
X10982756Y-5343956D02*
X10982756Y-5273244D01*
X10912044Y-5273244D01*
X10912044Y-5343956D01*
X10982756Y-5343956D01*
X11236756Y-4150156D02*
X11236756Y-4079444D01*
X11166044Y-4079444D01*
X11166044Y-4150156D01*
X11236756Y-4150156D01*
X11236756Y-4404156D02*
X11236756Y-4333444D01*
X11166044Y-4333444D01*
X11166044Y-4404156D01*
X11236756Y-4404156D01*
X11236756Y-5089956D02*
X11236756Y-5019244D01*
X11166044Y-5019244D01*
X11166044Y-5089956D01*
X11236756Y-5089956D01*
X11236756Y-5343956D02*
X11236756Y-5273244D01*
X11166044Y-5273244D01*
X11166044Y-5343956D01*
X11236756Y-5343956D01*
X11490756Y-4150156D02*
X11490756Y-4079444D01*
X11420044Y-4079444D01*
X11420044Y-4150156D01*
X11490756Y-4150156D01*
X11490756Y-4404156D02*
X11490756Y-4333444D01*
X11420044Y-4333444D01*
X11420044Y-4404156D01*
X11490756Y-4404156D01*
X11490756Y-5089956D02*
X11490756Y-5019244D01*
X11420044Y-5019244D01*
X11420044Y-5089956D01*
X11490756Y-5089956D01*
X11490756Y-5343956D02*
X11490756Y-5273244D01*
X11420044Y-5273244D01*
X11420044Y-5343956D01*
X11490756Y-5343956D01*
X11744756Y-4150156D02*
X11744756Y-4079444D01*
X11674044Y-4079444D01*
X11674044Y-4150156D01*
X11744756Y-4150156D01*
X11744756Y-4404156D02*
X11744756Y-4333444D01*
X11674044Y-4333444D01*
X11674044Y-4404156D01*
X11744756Y-4404156D01*
X11744756Y-5089956D02*
X11744756Y-5019244D01*
X11674044Y-5019244D01*
X11674044Y-5089956D01*
X11744756Y-5089956D01*
X11744756Y-5343956D02*
X11744756Y-5273244D01*
X11674044Y-5273244D01*
X11674044Y-5343956D01*
X11744756Y-5343956D01*
X11998756Y-4150156D02*
X11998756Y-4079444D01*
X11928044Y-4079444D01*
X11928044Y-4150156D01*
X11998756Y-4150156D01*
X11998756Y-4404156D02*
X11998756Y-4333444D01*
X11928044Y-4333444D01*
X11928044Y-4404156D01*
X11998756Y-4404156D01*
X11998756Y-5089956D02*
X11998756Y-5019244D01*
X11928044Y-5019244D01*
X11928044Y-5089956D01*
X11998756Y-5089956D01*
X11998756Y-5343956D02*
X11998756Y-5273244D01*
X11928044Y-5273244D01*
X11928044Y-5343956D01*
X11998756Y-5343956D01*
X12252756Y-4150156D02*
X12252756Y-4079444D01*
X12182044Y-4079444D01*
X12182044Y-4150156D01*
X12252756Y-4150156D01*
X12252756Y-4404156D02*
X12252756Y-4333444D01*
X12182044Y-4333444D01*
X12182044Y-4404156D01*
X12252756Y-4404156D01*
X12252756Y-5089956D02*
X12252756Y-5019244D01*
X12182044Y-5019244D01*
X12182044Y-5089956D01*
X12252756Y-5089956D01*
X12252756Y-5343956D02*
X12252756Y-5273244D01*
X12182044Y-5273244D01*
X12182044Y-5343956D01*
X12252756Y-5343956D01*
X12506756Y-4150156D02*
X12506756Y-4079444D01*
X12436044Y-4079444D01*
X12436044Y-4150156D01*
X12506756Y-4150156D01*
X12506756Y-4404156D02*
X12506756Y-4333444D01*
X12436044Y-4333444D01*
X12436044Y-4404156D01*
X12506756Y-4404156D01*
X12506756Y-5089956D02*
X12506756Y-5019244D01*
X12436044Y-5019244D01*
X12436044Y-5089956D01*
X12506756Y-5089956D01*
X12506756Y-5343956D02*
X12506756Y-5273244D01*
X12436044Y-5273244D01*
X12436044Y-5343956D01*
X12506756Y-5343956D01*
X12760756Y-4150156D02*
X12760756Y-4079444D01*
X12690044Y-4079444D01*
X12690044Y-4150156D01*
X12760756Y-4150156D01*
X12760756Y-4404156D02*
X12760756Y-4333444D01*
X12690044Y-4333444D01*
X12690044Y-4404156D01*
X12760756Y-4404156D01*
X12760756Y-5089956D02*
X12760756Y-5019244D01*
X12690044Y-5019244D01*
X12690044Y-5089956D01*
X12760756Y-5089956D01*
X12760756Y-5343956D02*
X12760756Y-5273244D01*
X12690044Y-5273244D01*
X12690044Y-5343956D01*
X12760756Y-5343956D01*
X13014756Y-4150156D02*
X13014756Y-4079444D01*
X12944044Y-4079444D01*
X12944044Y-4150156D01*
X13014756Y-4150156D01*
X13014756Y-4404156D02*
X13014756Y-4333444D01*
X12944044Y-4333444D01*
X12944044Y-4404156D01*
X13014756Y-4404156D01*
X13014756Y-5089956D02*
X13014756Y-5019244D01*
X12944044Y-5019244D01*
X12944044Y-5089956D01*
X13014756Y-5089956D01*
X13014756Y-5343956D02*
X13014756Y-5273244D01*
X12944044Y-5273244D01*
X12944044Y-5343956D01*
X13014756Y-5343956D01*
X13268756Y-4150156D02*
X13268756Y-4079444D01*
X13198044Y-4079444D01*
X13198044Y-4150156D01*
X13268756Y-4150156D01*
X13268756Y-4404156D02*
X13268756Y-4333444D01*
X13198044Y-4333444D01*
X13198044Y-4404156D01*
X13268756Y-4404156D01*
X13268756Y-5089956D02*
X13268756Y-5019244D01*
X13198044Y-5019244D01*
X13198044Y-5089956D01*
X13268756Y-5089956D01*
X13268756Y-5343956D02*
X13268756Y-5273244D01*
X13198044Y-5273244D01*
X13198044Y-5343956D01*
X13268756Y-5343956D01*
X13522756Y-4150156D02*
X13522756Y-4079444D01*
X13452044Y-4079444D01*
X13452044Y-4150156D01*
X13522756Y-4150156D01*
X13522756Y-4404156D02*
X13522756Y-4333444D01*
X13452044Y-4333444D01*
X13452044Y-4404156D01*
X13522756Y-4404156D01*
X13522756Y-5089956D02*
X13522756Y-5019244D01*
X13452044Y-5019244D01*
X13452044Y-5089956D01*
X13522756Y-5089956D01*
X13522756Y-5343956D02*
X13522756Y-5273244D01*
X13452044Y-5273244D01*
X13452044Y-5343956D01*
X13522756Y-5343956D01*
X18741356Y-6308356D02*
X18741356Y-6237644D01*
X18670644Y-6237644D01*
X18670644Y-6308356D01*
X18741356Y-6308356D01*
X18995356Y-6308356D02*
X18995356Y-6237644D01*
X18924644Y-6237644D01*
X18924644Y-6308356D01*
X18995356Y-6308356D01*
X19249356Y-6308356D02*
X19249356Y-6237644D01*
X19178644Y-6237644D01*
X19178644Y-6308356D01*
X19249356Y-6308356D01*
X7442200Y-4114800D02*
X7518400Y-4038600D01*
X7442200Y-3962400D01*
X7366000Y-4038600D01*
X7442200Y-4114800D01*
X7442200Y-4622800D02*
X7518400Y-4546600D01*
X7442200Y-4470400D01*
X7366000Y-4546600D01*
X7442200Y-4622800D01*
X7442200Y-5130800D02*
X7518400Y-5054600D01*
X7442200Y-4978400D01*
X7366000Y-5054600D01*
X7442200Y-5130800D01*
X7442200Y-5638800D02*
X7518400Y-5562600D01*
X7442200Y-5486400D01*
X7366000Y-5562600D01*
X7442200Y-5638800D01*
X7442200Y-6146800D02*
X7518400Y-6070600D01*
X7442200Y-5994400D01*
X7366000Y-6070600D01*
X7442200Y-6146800D01*
X7442200Y-6654800D02*
X7518400Y-6578600D01*
X7442200Y-6502400D01*
X7366000Y-6578600D01*
X7442200Y-6654800D01*
X14312900Y-8077200D02*
X14389100Y-8001000D01*
X14312900Y-7924800D01*
X14236700Y-8001000D01*
X14312900Y-8077200D01*
X14820900Y-8077200D02*
X14897100Y-8001000D01*
X14820900Y-7924800D01*
X14744700Y-8001000D01*
X14820900Y-8077200D01*
X15328900Y-8077200D02*
X15405100Y-8001000D01*
X15328900Y-7924800D01*
X15252700Y-8001000D01*
X15328900Y-8077200D01*
X15836900Y-8077200D02*
X15913100Y-8001000D01*
X15836900Y-7924800D01*
X15760700Y-8001000D01*
X15836900Y-8077200D01*
X22207600Y-4114800D02*
X22283800Y-4038600D01*
X22207600Y-3962400D01*
X22131400Y-4038600D01*
X22207600Y-4114800D01*
X22207600Y-4622800D02*
X22283800Y-4546600D01*
X22207600Y-4470400D01*
X22131400Y-4546600D01*
X22207600Y-4622800D01*
X22207600Y-5130800D02*
X22283800Y-5054600D01*
X22207600Y-4978400D01*
X22131400Y-5054600D01*
X22207600Y-5130800D01*
X22207600Y-5638800D02*
X22283800Y-5562600D01*
X22207600Y-5486400D01*
X22131400Y-5562600D01*
X22207600Y-5638800D01*
X22207600Y-6146800D02*
X22283800Y-6070600D01*
X22207600Y-5994400D01*
X22131400Y-6070600D01*
X22207600Y-6146800D01*
X22207600Y-6654800D02*
X22283800Y-6578600D01*
X22207600Y-6502400D01*
X22131400Y-6578600D01*
X22207600Y-6654800D01*
X11703100Y-8001800D02*
X11803100Y-8101800D01*
X11803100Y-8001800D02*
X11703100Y-8101800D01*
X11803100Y-8051800D02*
G75*
G03X11803100Y-8051800I-50000J0D01*
G01*
X12438100Y-7986800D02*
X12568100Y-8116800D01*
X12568100Y-7986800D02*
X12438100Y-8116800D01*
X12503100Y-7986800D02*
X12503100Y-8116800D01*
X12438100Y-8051800D02*
X12568100Y-8051800D01*
X17265269Y-4630205D02*
X17505299Y-4870235D01*
X17505299Y-4630205D02*
X17265269Y-4870235D01*
X17470148Y-4835084D02*
X17470148Y-4665356D01*
X17300420Y-4665356D01*
X17300420Y-4835084D01*
X17470148Y-4835084D01*
X18180431Y-4630205D02*
X18420461Y-4870235D01*
X18420461Y-4630205D02*
X18180431Y-4870235D01*
X18385310Y-4835084D02*
X18385310Y-4665356D01*
X18215582Y-4665356D01*
X18215582Y-4835084D01*
X18385310Y-4835084D01*
X6833600Y-3058200D02*
X7133600Y-3358200D01*
X7133600Y-3058200D02*
X6833600Y-3358200D01*
X6983600Y-3358200D02*
X7133600Y-3208200D01*
X6983600Y-3058200D01*
X6833600Y-3208200D01*
X6983600Y-3358200D01*
X6836100Y-8710700D02*
X7136100Y-9010700D01*
X7136100Y-8710700D02*
X6836100Y-9010700D01*
X6986100Y-9010700D02*
X7136100Y-8860700D01*
X6986100Y-8710700D01*
X6836100Y-8860700D01*
X6986100Y-9010700D01*
X8024400Y-5031600D02*
X8324400Y-5331600D01*
X8324400Y-5031600D02*
X8024400Y-5331600D01*
X8174400Y-5331600D02*
X8324400Y-5181600D01*
X8174400Y-5031600D01*
X8024400Y-5181600D01*
X8174400Y-5331600D01*
X13824400Y-5031600D02*
X14124400Y-5331600D01*
X14124400Y-5031600D02*
X13824400Y-5331600D01*
X13974400Y-5331600D02*
X14124400Y-5181600D01*
X13974400Y-5031600D01*
X13824400Y-5181600D01*
X13974400Y-5331600D01*
X22523600Y-3058200D02*
X22823600Y-3358200D01*
X22823600Y-3058200D02*
X22523600Y-3358200D01*
X22673600Y-3358200D02*
X22823600Y-3208200D01*
X22673600Y-3058200D01*
X22523600Y-3208200D01*
X22673600Y-3358200D01*
X22523600Y-8710700D02*
X22823600Y-9010700D01*
X22823600Y-8710700D02*
X22523600Y-9010700D01*
X22673600Y-9010700D02*
X22823600Y-8860700D01*
X22673600Y-8710700D01*
X22523600Y-8860700D01*
X22673600Y-9010700D01*
X18960000Y-7764000D02*
X18960000Y-8114000D01*
X18785000Y-7939000D02*
X19135000Y-7939000D01*
X19135000Y-7939000D02*
G75*
G03X19135000Y-7939000I-175000J0D01*
G01*
X19085725Y-8063225D02*
X19085725Y-7811775D01*
X18834275Y-7811775D01*
X18834275Y-8063225D01*
X19085725Y-8063225D01*
X19137800Y-7937500D02*
G75*
G03X19137800Y-7937500I-177800J0D01*
G01*
D13*
X6837528Y-9574814D02*
X6837528Y-9274814D01*
X6908957Y-9274814D01*
X6951814Y-9289100D01*
X6980386Y-9317672D01*
X6994671Y-9346243D01*
X7008957Y-9403386D01*
X7008957Y-9446243D01*
X6994671Y-9503386D01*
X6980386Y-9531957D01*
X6951814Y-9560529D01*
X6908957Y-9574814D01*
X6837528Y-9574814D01*
X7137528Y-9574814D02*
X7137528Y-9374814D01*
X7137528Y-9431957D02*
X7151814Y-9403386D01*
X7166100Y-9389100D01*
X7194671Y-9374814D01*
X7223243Y-9374814D01*
X7323243Y-9574814D02*
X7323243Y-9374814D01*
X7323243Y-9274814D02*
X7308957Y-9289100D01*
X7323243Y-9303386D01*
X7337528Y-9289100D01*
X7323243Y-9274814D01*
X7323243Y-9303386D01*
X7508957Y-9574814D02*
X7480386Y-9560529D01*
X7466100Y-9531957D01*
X7466100Y-9274814D01*
X7666100Y-9574814D02*
X7637528Y-9560529D01*
X7623243Y-9531957D01*
X7623243Y-9274814D01*
X8008957Y-9574814D02*
X8008957Y-9274814D01*
X8108957Y-9489100D01*
X8208957Y-9274814D01*
X8208957Y-9574814D01*
X8480386Y-9574814D02*
X8480386Y-9417672D01*
X8466100Y-9389100D01*
X8437529Y-9374814D01*
X8380386Y-9374814D01*
X8351814Y-9389100D01*
X8480386Y-9560529D02*
X8451814Y-9574814D01*
X8380386Y-9574814D01*
X8351814Y-9560529D01*
X8337528Y-9531957D01*
X8337528Y-9503386D01*
X8351814Y-9474814D01*
X8380386Y-9460529D01*
X8451814Y-9460529D01*
X8480386Y-9446243D01*
X8623243Y-9374814D02*
X8623243Y-9674814D01*
X8623243Y-9389100D02*
X8651814Y-9374814D01*
X8708957Y-9374814D01*
X8737529Y-9389100D01*
X8751814Y-9403386D01*
X8766100Y-9431957D01*
X8766100Y-9517672D01*
X8751814Y-9546243D01*
X8737529Y-9560529D01*
X8708957Y-9574814D01*
X8651814Y-9574814D01*
X8623243Y-9560529D01*
X8894671Y-9546243D02*
X8908957Y-9560529D01*
X8894671Y-9574814D01*
X8880386Y-9560529D01*
X8894671Y-9546243D01*
X8894671Y-9574814D01*
X8894671Y-9389100D02*
X8908957Y-9403386D01*
X8894671Y-9417672D01*
X8880386Y-9403386D01*
X8894671Y-9389100D01*
X8894671Y-9417672D01*
X6526100Y-10049100D02*
X6566100Y-10089100D01*
X6566100Y-10049100D02*
X6526100Y-10089100D01*
X6894671Y-9904814D02*
X6923243Y-9904814D01*
X6951814Y-9919100D01*
X6966100Y-9933386D01*
X6980386Y-9961957D01*
X6994671Y-10019100D01*
X6994671Y-10090529D01*
X6980386Y-10147672D01*
X6966100Y-10176243D01*
X6951814Y-10190529D01*
X6923243Y-10204814D01*
X6894671Y-10204814D01*
X6866100Y-10190529D01*
X6851814Y-10176243D01*
X6837528Y-10147672D01*
X6823243Y-10090529D01*
X6823243Y-10019100D01*
X6837528Y-9961957D01*
X6851814Y-9933386D01*
X6866100Y-9919100D01*
X6894671Y-9904814D01*
X7123243Y-10176243D02*
X7137528Y-10190529D01*
X7123243Y-10204814D01*
X7108957Y-10190529D01*
X7123243Y-10176243D01*
X7123243Y-10204814D01*
X7394671Y-10004814D02*
X7394671Y-10204814D01*
X7323243Y-9890529D02*
X7251814Y-10104814D01*
X7437528Y-10104814D01*
X7608957Y-9904814D02*
X7637528Y-9904814D01*
X7666100Y-9919100D01*
X7680386Y-9933386D01*
X7694671Y-9961957D01*
X7708957Y-10019100D01*
X7708957Y-10090529D01*
X7694671Y-10147672D01*
X7680386Y-10176243D01*
X7666100Y-10190529D01*
X7637528Y-10204814D01*
X7608957Y-10204814D01*
X7580386Y-10190529D01*
X7566100Y-10176243D01*
X7551814Y-10147672D01*
X7537528Y-10090529D01*
X7537528Y-10019100D01*
X7551814Y-9961957D01*
X7566100Y-9933386D01*
X7580386Y-9919100D01*
X7608957Y-9904814D01*
X7837528Y-10204814D02*
X7837528Y-10004814D01*
X7837528Y-10033386D02*
X7851814Y-10019100D01*
X7880386Y-10004814D01*
X7923243Y-10004814D01*
X7951814Y-10019100D01*
X7966100Y-10047672D01*
X7966100Y-10204814D01*
X7966100Y-10047672D02*
X7980386Y-10019100D01*
X8008957Y-10004814D01*
X8051814Y-10004814D01*
X8080386Y-10019100D01*
X8094671Y-10047672D01*
X8094671Y-10204814D01*
X8237528Y-10204814D02*
X8237528Y-10004814D01*
X8237528Y-10033386D02*
X8251814Y-10019100D01*
X8280386Y-10004814D01*
X8323243Y-10004814D01*
X8351814Y-10019100D01*
X8366100Y-10047672D01*
X8366100Y-10204814D01*
X8366100Y-10047672D02*
X8380386Y-10019100D01*
X8408957Y-10004814D01*
X8451814Y-10004814D01*
X8480386Y-10019100D01*
X8494671Y-10047672D01*
X8494671Y-10204814D01*
X9080386Y-9890529D02*
X8823243Y-10276243D01*
X9466100Y-9904814D02*
X9494671Y-9904814D01*
X9523243Y-9919100D01*
X9537528Y-9933386D01*
X9551814Y-9961957D01*
X9566100Y-10019100D01*
X9566100Y-10090529D01*
X9551814Y-10147672D01*
X9537528Y-10176243D01*
X9523243Y-10190529D01*
X9494671Y-10204814D01*
X9466100Y-10204814D01*
X9437528Y-10190529D01*
X9423243Y-10176243D01*
X9408957Y-10147672D01*
X9394671Y-10090529D01*
X9394671Y-10019100D01*
X9408957Y-9961957D01*
X9423243Y-9933386D01*
X9437528Y-9919100D01*
X9466100Y-9904814D01*
X9694671Y-10176243D02*
X9708957Y-10190529D01*
X9694671Y-10204814D01*
X9680386Y-10190529D01*
X9694671Y-10176243D01*
X9694671Y-10204814D01*
X9894671Y-9904814D02*
X9923243Y-9904814D01*
X9951814Y-9919100D01*
X9966100Y-9933386D01*
X9980386Y-9961957D01*
X9994671Y-10019100D01*
X9994671Y-10090529D01*
X9980386Y-10147672D01*
X9966100Y-10176243D01*
X9951814Y-10190529D01*
X9923243Y-10204814D01*
X9894671Y-10204814D01*
X9866100Y-10190529D01*
X9851814Y-10176243D01*
X9837528Y-10147672D01*
X9823243Y-10090529D01*
X9823243Y-10019100D01*
X9837528Y-9961957D01*
X9851814Y-9933386D01*
X9866100Y-9919100D01*
X9894671Y-9904814D01*
X10280386Y-10204814D02*
X10108957Y-10204814D01*
X10194671Y-10204814D02*
X10194671Y-9904814D01*
X10166100Y-9947672D01*
X10137528Y-9976243D01*
X10108957Y-9990529D01*
X10537528Y-9904814D02*
X10480386Y-9904814D01*
X10451814Y-9919100D01*
X10437528Y-9933386D01*
X10408957Y-9976243D01*
X10394671Y-10033386D01*
X10394671Y-10147672D01*
X10408957Y-10176243D01*
X10423243Y-10190529D01*
X10451814Y-10204814D01*
X10508957Y-10204814D01*
X10537528Y-10190529D01*
X10551814Y-10176243D01*
X10566100Y-10147672D01*
X10566100Y-10076243D01*
X10551814Y-10047672D01*
X10537528Y-10033386D01*
X10508957Y-10019100D01*
X10451814Y-10019100D01*
X10423243Y-10033386D01*
X10408957Y-10047672D01*
X10394671Y-10076243D01*
X10680386Y-9904814D02*
X10680386Y-9961957D01*
X10794671Y-9904814D02*
X10794671Y-9961957D01*
X11237528Y-10319100D02*
X11223243Y-10304814D01*
X11194671Y-10261957D01*
X11180386Y-10233386D01*
X11166100Y-10190529D01*
X11151814Y-10119100D01*
X11151814Y-10061957D01*
X11166100Y-9990529D01*
X11180386Y-9947672D01*
X11194671Y-9919100D01*
X11223243Y-9876243D01*
X11237528Y-9861957D01*
X11508957Y-10204814D02*
X11337528Y-10204814D01*
X11423243Y-10204814D02*
X11423243Y-9904814D01*
X11394671Y-9947672D01*
X11366100Y-9976243D01*
X11337528Y-9990529D01*
X11780385Y-9904814D02*
X11637528Y-9904814D01*
X11623243Y-10047672D01*
X11637528Y-10033386D01*
X11666100Y-10019100D01*
X11737528Y-10019100D01*
X11766100Y-10033386D01*
X11780385Y-10047672D01*
X11794671Y-10076243D01*
X11794671Y-10147672D01*
X11780385Y-10176243D01*
X11766100Y-10190529D01*
X11737528Y-10204814D01*
X11666100Y-10204814D01*
X11637528Y-10190529D01*
X11623243Y-10176243D01*
X11908957Y-9933386D02*
X11923243Y-9919100D01*
X11951814Y-9904814D01*
X12023243Y-9904814D01*
X12051814Y-9919100D01*
X12066100Y-9933386D01*
X12080385Y-9961957D01*
X12080385Y-9990529D01*
X12066100Y-10033386D01*
X11894671Y-10204814D01*
X12080385Y-10204814D01*
X12437528Y-10204814D02*
X12437528Y-9904814D01*
X12566100Y-10204814D02*
X12566100Y-10047672D01*
X12551814Y-10019100D01*
X12523243Y-10004814D01*
X12480385Y-10004814D01*
X12451814Y-10019100D01*
X12437528Y-10033386D01*
X12751814Y-10204814D02*
X12723243Y-10190529D01*
X12708957Y-10176243D01*
X12694671Y-10147672D01*
X12694671Y-10061957D01*
X12708957Y-10033386D01*
X12723243Y-10019100D01*
X12751814Y-10004814D01*
X12794671Y-10004814D01*
X12823243Y-10019100D01*
X12837528Y-10033386D01*
X12851814Y-10061957D01*
X12851814Y-10147672D01*
X12837528Y-10176243D01*
X12823243Y-10190529D01*
X12794671Y-10204814D01*
X12751814Y-10204814D01*
X13023243Y-10204814D02*
X12994671Y-10190529D01*
X12980386Y-10161957D01*
X12980386Y-9904814D01*
X13251814Y-10190529D02*
X13223243Y-10204814D01*
X13166100Y-10204814D01*
X13137528Y-10190529D01*
X13123243Y-10161957D01*
X13123243Y-10047672D01*
X13137528Y-10019100D01*
X13166100Y-10004814D01*
X13223243Y-10004814D01*
X13251814Y-10019100D01*
X13266100Y-10047672D01*
X13266100Y-10076243D01*
X13123243Y-10104814D01*
X13380386Y-10190529D02*
X13408957Y-10204814D01*
X13466100Y-10204814D01*
X13494671Y-10190529D01*
X13508957Y-10161957D01*
X13508957Y-10147672D01*
X13494671Y-10119100D01*
X13466100Y-10104814D01*
X13423243Y-10104814D01*
X13394671Y-10090529D01*
X13380386Y-10061957D01*
X13380386Y-10047672D01*
X13394671Y-10019100D01*
X13423243Y-10004814D01*
X13466100Y-10004814D01*
X13494671Y-10019100D01*
X13608957Y-10319100D02*
X13623243Y-10304814D01*
X13651814Y-10261957D01*
X13666100Y-10233386D01*
X13680386Y-10190529D01*
X13694671Y-10119100D01*
X13694671Y-10061957D01*
X13680386Y-9990529D01*
X13666100Y-9947672D01*
X13651814Y-9919100D01*
X13623243Y-9876243D01*
X13608957Y-9861957D01*
X6566100Y-10465100D02*
G75*
G03X6566100Y-10465100I-40000J0D01*
G01*
X6894671Y-10300814D02*
X6923243Y-10300814D01*
X6951814Y-10315100D01*
X6966100Y-10329386D01*
X6980386Y-10357957D01*
X6994671Y-10415100D01*
X6994671Y-10486529D01*
X6980386Y-10543672D01*
X6966100Y-10572243D01*
X6951814Y-10586529D01*
X6923243Y-10600814D01*
X6894671Y-10600814D01*
X6866100Y-10586529D01*
X6851814Y-10572243D01*
X6837528Y-10543672D01*
X6823243Y-10486529D01*
X6823243Y-10415100D01*
X6837528Y-10357957D01*
X6851814Y-10329386D01*
X6866100Y-10315100D01*
X6894671Y-10300814D01*
X7123243Y-10572243D02*
X7137528Y-10586529D01*
X7123243Y-10600814D01*
X7108957Y-10586529D01*
X7123243Y-10572243D01*
X7123243Y-10600814D01*
X7308957Y-10429386D02*
X7280386Y-10415100D01*
X7266100Y-10400814D01*
X7251814Y-10372243D01*
X7251814Y-10357957D01*
X7266100Y-10329386D01*
X7280386Y-10315100D01*
X7308957Y-10300814D01*
X7366100Y-10300814D01*
X7394671Y-10315100D01*
X7408957Y-10329386D01*
X7423243Y-10357957D01*
X7423243Y-10372243D01*
X7408957Y-10400814D01*
X7394671Y-10415100D01*
X7366100Y-10429386D01*
X7308957Y-10429386D01*
X7280386Y-10443672D01*
X7266100Y-10457957D01*
X7251814Y-10486529D01*
X7251814Y-10543672D01*
X7266100Y-10572243D01*
X7280386Y-10586529D01*
X7308957Y-10600814D01*
X7366100Y-10600814D01*
X7394671Y-10586529D01*
X7408957Y-10572243D01*
X7423243Y-10543672D01*
X7423243Y-10486529D01*
X7408957Y-10457957D01*
X7394671Y-10443672D01*
X7366100Y-10429386D01*
X7608957Y-10300814D02*
X7637528Y-10300814D01*
X7666100Y-10315100D01*
X7680386Y-10329386D01*
X7694671Y-10357957D01*
X7708957Y-10415100D01*
X7708957Y-10486529D01*
X7694671Y-10543672D01*
X7680386Y-10572243D01*
X7666100Y-10586529D01*
X7637528Y-10600814D01*
X7608957Y-10600814D01*
X7580386Y-10586529D01*
X7566100Y-10572243D01*
X7551814Y-10543672D01*
X7537528Y-10486529D01*
X7537528Y-10415100D01*
X7551814Y-10357957D01*
X7566100Y-10329386D01*
X7580386Y-10315100D01*
X7608957Y-10300814D01*
X7837528Y-10600814D02*
X7837528Y-10400814D01*
X7837528Y-10429386D02*
X7851814Y-10415100D01*
X7880386Y-10400814D01*
X7923243Y-10400814D01*
X7951814Y-10415100D01*
X7966100Y-10443672D01*
X7966100Y-10600814D01*
X7966100Y-10443672D02*
X7980386Y-10415100D01*
X8008957Y-10400814D01*
X8051814Y-10400814D01*
X8080386Y-10415100D01*
X8094671Y-10443672D01*
X8094671Y-10600814D01*
X8237528Y-10600814D02*
X8237528Y-10400814D01*
X8237528Y-10429386D02*
X8251814Y-10415100D01*
X8280386Y-10400814D01*
X8323243Y-10400814D01*
X8351814Y-10415100D01*
X8366100Y-10443672D01*
X8366100Y-10600814D01*
X8366100Y-10443672D02*
X8380386Y-10415100D01*
X8408957Y-10400814D01*
X8451814Y-10400814D01*
X8480386Y-10415100D01*
X8494671Y-10443672D01*
X8494671Y-10600814D01*
X9080386Y-10286529D02*
X8823243Y-10672243D01*
X9466100Y-10300814D02*
X9494671Y-10300814D01*
X9523243Y-10315100D01*
X9537528Y-10329386D01*
X9551814Y-10357957D01*
X9566100Y-10415100D01*
X9566100Y-10486529D01*
X9551814Y-10543672D01*
X9537528Y-10572243D01*
X9523243Y-10586529D01*
X9494671Y-10600814D01*
X9466100Y-10600814D01*
X9437528Y-10586529D01*
X9423243Y-10572243D01*
X9408957Y-10543672D01*
X9394671Y-10486529D01*
X9394671Y-10415100D01*
X9408957Y-10357957D01*
X9423243Y-10329386D01*
X9437528Y-10315100D01*
X9466100Y-10300814D01*
X9694671Y-10572243D02*
X9708957Y-10586529D01*
X9694671Y-10600814D01*
X9680386Y-10586529D01*
X9694671Y-10572243D01*
X9694671Y-10600814D01*
X9894671Y-10300814D02*
X9923243Y-10300814D01*
X9951814Y-10315100D01*
X9966100Y-10329386D01*
X9980386Y-10357957D01*
X9994671Y-10415100D01*
X9994671Y-10486529D01*
X9980386Y-10543672D01*
X9966100Y-10572243D01*
X9951814Y-10586529D01*
X9923243Y-10600814D01*
X9894671Y-10600814D01*
X9866100Y-10586529D01*
X9851814Y-10572243D01*
X9837528Y-10543672D01*
X9823243Y-10486529D01*
X9823243Y-10415100D01*
X9837528Y-10357957D01*
X9851814Y-10329386D01*
X9866100Y-10315100D01*
X9894671Y-10300814D01*
X10094671Y-10300814D02*
X10280386Y-10300814D01*
X10180386Y-10415100D01*
X10223243Y-10415100D01*
X10251814Y-10429386D01*
X10266100Y-10443672D01*
X10280386Y-10472243D01*
X10280386Y-10543672D01*
X10266100Y-10572243D01*
X10251814Y-10586529D01*
X10223243Y-10600814D01*
X10137528Y-10600814D01*
X10108957Y-10586529D01*
X10094671Y-10572243D01*
X10566100Y-10600814D02*
X10394671Y-10600814D01*
X10480386Y-10600814D02*
X10480386Y-10300814D01*
X10451814Y-10343672D01*
X10423243Y-10372243D01*
X10394671Y-10386529D01*
X10680386Y-10300814D02*
X10680386Y-10357957D01*
X10794671Y-10300814D02*
X10794671Y-10357957D01*
X11237528Y-10715100D02*
X11223243Y-10700814D01*
X11194671Y-10657957D01*
X11180386Y-10629386D01*
X11166100Y-10586529D01*
X11151814Y-10515100D01*
X11151814Y-10457957D01*
X11166100Y-10386529D01*
X11180386Y-10343672D01*
X11194671Y-10315100D01*
X11223243Y-10272243D01*
X11237528Y-10257957D01*
X11337528Y-10329386D02*
X11351814Y-10315100D01*
X11380385Y-10300814D01*
X11451814Y-10300814D01*
X11480385Y-10315100D01*
X11494671Y-10329386D01*
X11508957Y-10357957D01*
X11508957Y-10386529D01*
X11494671Y-10429386D01*
X11323243Y-10600814D01*
X11508957Y-10600814D01*
X11766100Y-10400814D02*
X11766100Y-10600814D01*
X11694671Y-10286529D02*
X11623243Y-10500814D01*
X11808957Y-10500814D01*
X12151814Y-10600814D02*
X12151814Y-10300814D01*
X12280385Y-10600814D02*
X12280385Y-10443672D01*
X12266100Y-10415100D01*
X12237528Y-10400814D01*
X12194671Y-10400814D01*
X12166100Y-10415100D01*
X12151814Y-10429386D01*
X12466100Y-10600814D02*
X12437528Y-10586529D01*
X12423243Y-10572243D01*
X12408957Y-10543672D01*
X12408957Y-10457957D01*
X12423243Y-10429386D01*
X12437528Y-10415100D01*
X12466100Y-10400814D01*
X12508957Y-10400814D01*
X12537528Y-10415100D01*
X12551814Y-10429386D01*
X12566100Y-10457957D01*
X12566100Y-10543672D01*
X12551814Y-10572243D01*
X12537528Y-10586529D01*
X12508957Y-10600814D01*
X12466100Y-10600814D01*
X12737528Y-10600814D02*
X12708957Y-10586529D01*
X12694671Y-10557957D01*
X12694671Y-10300814D01*
X12966100Y-10586529D02*
X12937528Y-10600814D01*
X12880386Y-10600814D01*
X12851814Y-10586529D01*
X12837528Y-10557957D01*
X12837528Y-10443672D01*
X12851814Y-10415100D01*
X12880386Y-10400814D01*
X12937528Y-10400814D01*
X12966100Y-10415100D01*
X12980386Y-10443672D01*
X12980386Y-10472243D01*
X12837528Y-10500814D01*
X13094671Y-10586529D02*
X13123243Y-10600814D01*
X13180386Y-10600814D01*
X13208957Y-10586529D01*
X13223243Y-10557957D01*
X13223243Y-10543672D01*
X13208957Y-10515100D01*
X13180386Y-10500814D01*
X13137528Y-10500814D01*
X13108957Y-10486529D01*
X13094671Y-10457957D01*
X13094671Y-10443672D01*
X13108957Y-10415100D01*
X13137528Y-10400814D01*
X13180386Y-10400814D01*
X13208957Y-10415100D01*
X13323243Y-10715100D02*
X13337528Y-10700814D01*
X13366100Y-10657957D01*
X13380386Y-10629386D01*
X13394671Y-10586529D01*
X13408957Y-10515100D01*
X13408957Y-10457957D01*
X13394671Y-10386529D01*
X13380386Y-10343672D01*
X13366100Y-10315100D01*
X13337528Y-10272243D01*
X13323243Y-10257957D01*
X6526095Y-10821095D02*
X6526095Y-10901105D01*
X6486090Y-10861100D02*
X6566100Y-10861100D01*
X6894671Y-10696814D02*
X6923243Y-10696814D01*
X6951814Y-10711100D01*
X6966100Y-10725386D01*
X6980386Y-10753957D01*
X6994671Y-10811100D01*
X6994671Y-10882529D01*
X6980386Y-10939672D01*
X6966100Y-10968243D01*
X6951814Y-10982529D01*
X6923243Y-10996814D01*
X6894671Y-10996814D01*
X6866100Y-10982529D01*
X6851814Y-10968243D01*
X6837528Y-10939672D01*
X6823243Y-10882529D01*
X6823243Y-10811100D01*
X6837528Y-10753957D01*
X6851814Y-10725386D01*
X6866100Y-10711100D01*
X6894671Y-10696814D01*
X7123243Y-10968243D02*
X7137528Y-10982529D01*
X7123243Y-10996814D01*
X7108957Y-10982529D01*
X7123243Y-10968243D01*
X7123243Y-10996814D01*
X7308957Y-10825386D02*
X7280386Y-10811100D01*
X7266100Y-10796814D01*
X7251814Y-10768243D01*
X7251814Y-10753957D01*
X7266100Y-10725386D01*
X7280386Y-10711100D01*
X7308957Y-10696814D01*
X7366100Y-10696814D01*
X7394671Y-10711100D01*
X7408957Y-10725386D01*
X7423243Y-10753957D01*
X7423243Y-10768243D01*
X7408957Y-10796814D01*
X7394671Y-10811100D01*
X7366100Y-10825386D01*
X7308957Y-10825386D01*
X7280386Y-10839672D01*
X7266100Y-10853957D01*
X7251814Y-10882529D01*
X7251814Y-10939672D01*
X7266100Y-10968243D01*
X7280386Y-10982529D01*
X7308957Y-10996814D01*
X7366100Y-10996814D01*
X7394671Y-10982529D01*
X7408957Y-10968243D01*
X7423243Y-10939672D01*
X7423243Y-10882529D01*
X7408957Y-10853957D01*
X7394671Y-10839672D01*
X7366100Y-10825386D01*
X7608957Y-10696814D02*
X7637528Y-10696814D01*
X7666100Y-10711100D01*
X7680386Y-10725386D01*
X7694671Y-10753957D01*
X7708957Y-10811100D01*
X7708957Y-10882529D01*
X7694671Y-10939672D01*
X7680386Y-10968243D01*
X7666100Y-10982529D01*
X7637528Y-10996814D01*
X7608957Y-10996814D01*
X7580386Y-10982529D01*
X7566100Y-10968243D01*
X7551814Y-10939672D01*
X7537528Y-10882529D01*
X7537528Y-10811100D01*
X7551814Y-10753957D01*
X7566100Y-10725386D01*
X7580386Y-10711100D01*
X7608957Y-10696814D01*
X7837528Y-10996814D02*
X7837528Y-10796814D01*
X7837528Y-10825386D02*
X7851814Y-10811100D01*
X7880386Y-10796814D01*
X7923243Y-10796814D01*
X7951814Y-10811100D01*
X7966100Y-10839672D01*
X7966100Y-10996814D01*
X7966100Y-10839672D02*
X7980386Y-10811100D01*
X8008957Y-10796814D01*
X8051814Y-10796814D01*
X8080386Y-10811100D01*
X8094671Y-10839672D01*
X8094671Y-10996814D01*
X8237528Y-10996814D02*
X8237528Y-10796814D01*
X8237528Y-10825386D02*
X8251814Y-10811100D01*
X8280386Y-10796814D01*
X8323243Y-10796814D01*
X8351814Y-10811100D01*
X8366100Y-10839672D01*
X8366100Y-10996814D01*
X8366100Y-10839672D02*
X8380386Y-10811100D01*
X8408957Y-10796814D01*
X8451814Y-10796814D01*
X8480386Y-10811100D01*
X8494671Y-10839672D01*
X8494671Y-10996814D01*
X9080386Y-10682529D02*
X8823243Y-11068243D01*
X9466100Y-10696814D02*
X9494671Y-10696814D01*
X9523243Y-10711100D01*
X9537528Y-10725386D01*
X9551814Y-10753957D01*
X9566100Y-10811100D01*
X9566100Y-10882529D01*
X9551814Y-10939672D01*
X9537528Y-10968243D01*
X9523243Y-10982529D01*
X9494671Y-10996814D01*
X9466100Y-10996814D01*
X9437528Y-10982529D01*
X9423243Y-10968243D01*
X9408957Y-10939672D01*
X9394671Y-10882529D01*
X9394671Y-10811100D01*
X9408957Y-10753957D01*
X9423243Y-10725386D01*
X9437528Y-10711100D01*
X9466100Y-10696814D01*
X9694671Y-10968243D02*
X9708957Y-10982529D01*
X9694671Y-10996814D01*
X9680386Y-10982529D01*
X9694671Y-10968243D01*
X9694671Y-10996814D01*
X9894671Y-10696814D02*
X9923243Y-10696814D01*
X9951814Y-10711100D01*
X9966100Y-10725386D01*
X9980386Y-10753957D01*
X9994671Y-10811100D01*
X9994671Y-10882529D01*
X9980386Y-10939672D01*
X9966100Y-10968243D01*
X9951814Y-10982529D01*
X9923243Y-10996814D01*
X9894671Y-10996814D01*
X9866100Y-10982529D01*
X9851814Y-10968243D01*
X9837528Y-10939672D01*
X9823243Y-10882529D01*
X9823243Y-10811100D01*
X9837528Y-10753957D01*
X9851814Y-10725386D01*
X9866100Y-10711100D01*
X9894671Y-10696814D01*
X10094671Y-10696814D02*
X10280386Y-10696814D01*
X10180386Y-10811100D01*
X10223243Y-10811100D01*
X10251814Y-10825386D01*
X10266100Y-10839672D01*
X10280386Y-10868243D01*
X10280386Y-10939672D01*
X10266100Y-10968243D01*
X10251814Y-10982529D01*
X10223243Y-10996814D01*
X10137528Y-10996814D01*
X10108957Y-10982529D01*
X10094671Y-10968243D01*
X10394671Y-10725386D02*
X10408957Y-10711100D01*
X10437528Y-10696814D01*
X10508957Y-10696814D01*
X10537528Y-10711100D01*
X10551814Y-10725386D01*
X10566100Y-10753957D01*
X10566100Y-10782529D01*
X10551814Y-10825386D01*
X10380386Y-10996814D01*
X10566100Y-10996814D01*
X10680386Y-10696814D02*
X10680386Y-10753957D01*
X10794671Y-10696814D02*
X10794671Y-10753957D01*
X11237528Y-11111100D02*
X11223243Y-11096814D01*
X11194671Y-11053957D01*
X11180386Y-11025386D01*
X11166100Y-10982529D01*
X11151814Y-10911100D01*
X11151814Y-10853957D01*
X11166100Y-10782529D01*
X11180386Y-10739672D01*
X11194671Y-10711100D01*
X11223243Y-10668243D01*
X11237528Y-10653957D01*
X11323243Y-10696814D02*
X11508957Y-10696814D01*
X11408957Y-10811100D01*
X11451814Y-10811100D01*
X11480385Y-10825386D01*
X11494671Y-10839672D01*
X11508957Y-10868243D01*
X11508957Y-10939672D01*
X11494671Y-10968243D01*
X11480385Y-10982529D01*
X11451814Y-10996814D01*
X11366100Y-10996814D01*
X11337528Y-10982529D01*
X11323243Y-10968243D01*
X11766100Y-10696814D02*
X11708957Y-10696814D01*
X11680385Y-10711100D01*
X11666100Y-10725386D01*
X11637528Y-10768243D01*
X11623243Y-10825386D01*
X11623243Y-10939672D01*
X11637528Y-10968243D01*
X11651814Y-10982529D01*
X11680385Y-10996814D01*
X11737528Y-10996814D01*
X11766100Y-10982529D01*
X11780385Y-10968243D01*
X11794671Y-10939672D01*
X11794671Y-10868243D01*
X11780385Y-10839672D01*
X11766100Y-10825386D01*
X11737528Y-10811100D01*
X11680385Y-10811100D01*
X11651814Y-10825386D01*
X11637528Y-10839672D01*
X11623243Y-10868243D01*
X12151814Y-10996814D02*
X12151814Y-10696814D01*
X12280385Y-10996814D02*
X12280385Y-10839672D01*
X12266100Y-10811100D01*
X12237528Y-10796814D01*
X12194671Y-10796814D01*
X12166100Y-10811100D01*
X12151814Y-10825386D01*
X12466100Y-10996814D02*
X12437528Y-10982529D01*
X12423243Y-10968243D01*
X12408957Y-10939672D01*
X12408957Y-10853957D01*
X12423243Y-10825386D01*
X12437528Y-10811100D01*
X12466100Y-10796814D01*
X12508957Y-10796814D01*
X12537528Y-10811100D01*
X12551814Y-10825386D01*
X12566100Y-10853957D01*
X12566100Y-10939672D01*
X12551814Y-10968243D01*
X12537528Y-10982529D01*
X12508957Y-10996814D01*
X12466100Y-10996814D01*
X12737528Y-10996814D02*
X12708957Y-10982529D01*
X12694671Y-10953957D01*
X12694671Y-10696814D01*
X12966100Y-10982529D02*
X12937528Y-10996814D01*
X12880386Y-10996814D01*
X12851814Y-10982529D01*
X12837528Y-10953957D01*
X12837528Y-10839672D01*
X12851814Y-10811100D01*
X12880386Y-10796814D01*
X12937528Y-10796814D01*
X12966100Y-10811100D01*
X12980386Y-10839672D01*
X12980386Y-10868243D01*
X12837528Y-10896814D01*
X13094671Y-10982529D02*
X13123243Y-10996814D01*
X13180386Y-10996814D01*
X13208957Y-10982529D01*
X13223243Y-10953957D01*
X13223243Y-10939672D01*
X13208957Y-10911100D01*
X13180386Y-10896814D01*
X13137528Y-10896814D01*
X13108957Y-10882529D01*
X13094671Y-10853957D01*
X13094671Y-10839672D01*
X13108957Y-10811100D01*
X13137528Y-10796814D01*
X13180386Y-10796814D01*
X13208957Y-10811100D01*
X13323243Y-11111100D02*
X13337528Y-11096814D01*
X13366100Y-11053957D01*
X13380386Y-11025386D01*
X13394671Y-10982529D01*
X13408957Y-10911100D01*
X13408957Y-10853957D01*
X13394671Y-10782529D01*
X13380386Y-10739672D01*
X13366100Y-10711100D01*
X13337528Y-10668243D01*
X13323243Y-10653957D01*
X6551456Y-11292456D02*
X6551456Y-11221744D01*
X6480744Y-11221744D01*
X6480744Y-11292456D01*
X6551456Y-11292456D01*
X6994671Y-11392814D02*
X6823243Y-11392814D01*
X6908957Y-11392814D02*
X6908957Y-11092814D01*
X6880386Y-11135672D01*
X6851814Y-11164243D01*
X6823243Y-11178529D01*
X7123243Y-11364243D02*
X7137528Y-11378529D01*
X7123243Y-11392814D01*
X7108957Y-11378529D01*
X7123243Y-11364243D01*
X7123243Y-11392814D01*
X7323243Y-11092814D02*
X7351814Y-11092814D01*
X7380386Y-11107100D01*
X7394671Y-11121386D01*
X7408957Y-11149957D01*
X7423243Y-11207100D01*
X7423243Y-11278529D01*
X7408957Y-11335671D01*
X7394671Y-11364243D01*
X7380386Y-11378529D01*
X7351814Y-11392814D01*
X7323243Y-11392814D01*
X7294671Y-11378529D01*
X7280386Y-11364243D01*
X7266100Y-11335671D01*
X7251814Y-11278529D01*
X7251814Y-11207100D01*
X7266100Y-11149957D01*
X7280386Y-11121386D01*
X7294671Y-11107100D01*
X7323243Y-11092814D01*
X7608957Y-11092814D02*
X7637528Y-11092814D01*
X7666100Y-11107100D01*
X7680386Y-11121386D01*
X7694671Y-11149957D01*
X7708957Y-11207100D01*
X7708957Y-11278529D01*
X7694671Y-11335671D01*
X7680386Y-11364243D01*
X7666100Y-11378529D01*
X7637528Y-11392814D01*
X7608957Y-11392814D01*
X7580386Y-11378529D01*
X7566100Y-11364243D01*
X7551814Y-11335671D01*
X7537528Y-11278529D01*
X7537528Y-11207100D01*
X7551814Y-11149957D01*
X7566100Y-11121386D01*
X7580386Y-11107100D01*
X7608957Y-11092814D01*
X7837528Y-11392814D02*
X7837528Y-11192814D01*
X7837528Y-11221386D02*
X7851814Y-11207100D01*
X7880386Y-11192814D01*
X7923243Y-11192814D01*
X7951814Y-11207100D01*
X7966100Y-11235671D01*
X7966100Y-11392814D01*
X7966100Y-11235671D02*
X7980386Y-11207100D01*
X8008957Y-11192814D01*
X8051814Y-11192814D01*
X8080386Y-11207100D01*
X8094671Y-11235671D01*
X8094671Y-11392814D01*
X8237528Y-11392814D02*
X8237528Y-11192814D01*
X8237528Y-11221386D02*
X8251814Y-11207100D01*
X8280386Y-11192814D01*
X8323243Y-11192814D01*
X8351814Y-11207100D01*
X8366100Y-11235671D01*
X8366100Y-11392814D01*
X8366100Y-11235671D02*
X8380386Y-11207100D01*
X8408957Y-11192814D01*
X8451814Y-11192814D01*
X8480386Y-11207100D01*
X8494671Y-11235671D01*
X8494671Y-11392814D01*
X9080386Y-11078529D02*
X8823243Y-11464243D01*
X9466100Y-11092814D02*
X9494671Y-11092814D01*
X9523243Y-11107100D01*
X9537528Y-11121386D01*
X9551814Y-11149957D01*
X9566100Y-11207100D01*
X9566100Y-11278529D01*
X9551814Y-11335671D01*
X9537528Y-11364243D01*
X9523243Y-11378529D01*
X9494671Y-11392814D01*
X9466100Y-11392814D01*
X9437528Y-11378529D01*
X9423243Y-11364243D01*
X9408957Y-11335671D01*
X9394671Y-11278529D01*
X9394671Y-11207100D01*
X9408957Y-11149957D01*
X9423243Y-11121386D01*
X9437528Y-11107100D01*
X9466100Y-11092814D01*
X9694671Y-11364243D02*
X9708957Y-11378529D01*
X9694671Y-11392814D01*
X9680386Y-11378529D01*
X9694671Y-11364243D01*
X9694671Y-11392814D01*
X9894671Y-11092814D02*
X9923243Y-11092814D01*
X9951814Y-11107100D01*
X9966100Y-11121386D01*
X9980386Y-11149957D01*
X9994671Y-11207100D01*
X9994671Y-11278529D01*
X9980386Y-11335671D01*
X9966100Y-11364243D01*
X9951814Y-11378529D01*
X9923243Y-11392814D01*
X9894671Y-11392814D01*
X9866100Y-11378529D01*
X9851814Y-11364243D01*
X9837528Y-11335671D01*
X9823243Y-11278529D01*
X9823243Y-11207100D01*
X9837528Y-11149957D01*
X9851814Y-11121386D01*
X9866100Y-11107100D01*
X9894671Y-11092814D01*
X10094671Y-11092814D02*
X10280386Y-11092814D01*
X10180386Y-11207100D01*
X10223243Y-11207100D01*
X10251814Y-11221386D01*
X10266100Y-11235671D01*
X10280386Y-11264243D01*
X10280386Y-11335671D01*
X10266100Y-11364243D01*
X10251814Y-11378529D01*
X10223243Y-11392814D01*
X10137528Y-11392814D01*
X10108957Y-11378529D01*
X10094671Y-11364243D01*
X10423243Y-11392814D02*
X10480386Y-11392814D01*
X10508957Y-11378529D01*
X10523243Y-11364243D01*
X10551814Y-11321386D01*
X10566100Y-11264243D01*
X10566100Y-11149957D01*
X10551814Y-11121386D01*
X10537528Y-11107100D01*
X10508957Y-11092814D01*
X10451814Y-11092814D01*
X10423243Y-11107100D01*
X10408957Y-11121386D01*
X10394671Y-11149957D01*
X10394671Y-11221386D01*
X10408957Y-11249957D01*
X10423243Y-11264243D01*
X10451814Y-11278529D01*
X10508957Y-11278529D01*
X10537528Y-11264243D01*
X10551814Y-11249957D01*
X10566100Y-11221386D01*
X10680386Y-11092814D02*
X10680386Y-11149957D01*
X10794671Y-11092814D02*
X10794671Y-11149957D01*
X11237528Y-11507100D02*
X11223243Y-11492814D01*
X11194671Y-11449957D01*
X11180386Y-11421386D01*
X11166100Y-11378529D01*
X11151814Y-11307100D01*
X11151814Y-11249957D01*
X11166100Y-11178529D01*
X11180386Y-11135672D01*
X11194671Y-11107100D01*
X11223243Y-11064243D01*
X11237528Y-11049957D01*
X11394671Y-11221386D02*
X11366100Y-11207100D01*
X11351814Y-11192814D01*
X11337528Y-11164243D01*
X11337528Y-11149957D01*
X11351814Y-11121386D01*
X11366100Y-11107100D01*
X11394671Y-11092814D01*
X11451814Y-11092814D01*
X11480385Y-11107100D01*
X11494671Y-11121386D01*
X11508957Y-11149957D01*
X11508957Y-11164243D01*
X11494671Y-11192814D01*
X11480385Y-11207100D01*
X11451814Y-11221386D01*
X11394671Y-11221386D01*
X11366100Y-11235671D01*
X11351814Y-11249957D01*
X11337528Y-11278529D01*
X11337528Y-11335671D01*
X11351814Y-11364243D01*
X11366100Y-11378529D01*
X11394671Y-11392814D01*
X11451814Y-11392814D01*
X11480385Y-11378529D01*
X11494671Y-11364243D01*
X11508957Y-11335671D01*
X11508957Y-11278529D01*
X11494671Y-11249957D01*
X11480385Y-11235671D01*
X11451814Y-11221386D01*
X11608957Y-11092814D02*
X11794671Y-11092814D01*
X11694671Y-11207100D01*
X11737528Y-11207100D01*
X11766100Y-11221386D01*
X11780385Y-11235671D01*
X11794671Y-11264243D01*
X11794671Y-11335671D01*
X11780385Y-11364243D01*
X11766100Y-11378529D01*
X11737528Y-11392814D01*
X11651814Y-11392814D01*
X11623243Y-11378529D01*
X11608957Y-11364243D01*
X12151814Y-11392814D02*
X12151814Y-11092814D01*
X12280385Y-11392814D02*
X12280385Y-11235671D01*
X12266100Y-11207100D01*
X12237528Y-11192814D01*
X12194671Y-11192814D01*
X12166100Y-11207100D01*
X12151814Y-11221386D01*
X12466100Y-11392814D02*
X12437528Y-11378529D01*
X12423243Y-11364243D01*
X12408957Y-11335671D01*
X12408957Y-11249957D01*
X12423243Y-11221386D01*
X12437528Y-11207100D01*
X12466100Y-11192814D01*
X12508957Y-11192814D01*
X12537528Y-11207100D01*
X12551814Y-11221386D01*
X12566100Y-11249957D01*
X12566100Y-11335671D01*
X12551814Y-11364243D01*
X12537528Y-11378529D01*
X12508957Y-11392814D01*
X12466100Y-11392814D01*
X12737528Y-11392814D02*
X12708957Y-11378529D01*
X12694671Y-11349957D01*
X12694671Y-11092814D01*
X12966100Y-11378529D02*
X12937528Y-11392814D01*
X12880386Y-11392814D01*
X12851814Y-11378529D01*
X12837528Y-11349957D01*
X12837528Y-11235671D01*
X12851814Y-11207100D01*
X12880386Y-11192814D01*
X12937528Y-11192814D01*
X12966100Y-11207100D01*
X12980386Y-11235671D01*
X12980386Y-11264243D01*
X12837528Y-11292814D01*
X13094671Y-11378529D02*
X13123243Y-11392814D01*
X13180386Y-11392814D01*
X13208957Y-11378529D01*
X13223243Y-11349957D01*
X13223243Y-11335671D01*
X13208957Y-11307100D01*
X13180386Y-11292814D01*
X13137528Y-11292814D01*
X13108957Y-11278529D01*
X13094671Y-11249957D01*
X13094671Y-11235671D01*
X13108957Y-11207100D01*
X13137528Y-11192814D01*
X13180386Y-11192814D01*
X13208957Y-11207100D01*
X13323243Y-11507100D02*
X13337528Y-11492814D01*
X13366100Y-11449957D01*
X13380386Y-11421386D01*
X13394671Y-11378529D01*
X13408957Y-11307100D01*
X13408957Y-11249957D01*
X13394671Y-11178529D01*
X13380386Y-11135672D01*
X13366100Y-11107100D01*
X13337528Y-11064243D01*
X13323243Y-11049957D01*
X6489900Y-11729300D02*
X6566100Y-11653100D01*
X6489900Y-11576900D01*
X6413700Y-11653100D01*
X6489900Y-11729300D01*
X6994671Y-11788814D02*
X6823243Y-11788814D01*
X6908957Y-11788814D02*
X6908957Y-11488814D01*
X6880386Y-11531671D01*
X6851814Y-11560243D01*
X6823243Y-11574529D01*
X7123243Y-11760243D02*
X7137528Y-11774529D01*
X7123243Y-11788814D01*
X7108957Y-11774529D01*
X7123243Y-11760243D01*
X7123243Y-11788814D01*
X7408957Y-11488814D02*
X7266100Y-11488814D01*
X7251814Y-11631671D01*
X7266100Y-11617386D01*
X7294671Y-11603100D01*
X7366100Y-11603100D01*
X7394671Y-11617386D01*
X7408957Y-11631671D01*
X7423243Y-11660243D01*
X7423243Y-11731671D01*
X7408957Y-11760243D01*
X7394671Y-11774529D01*
X7366100Y-11788814D01*
X7294671Y-11788814D01*
X7266100Y-11774529D01*
X7251814Y-11760243D01*
X7537528Y-11517386D02*
X7551814Y-11503100D01*
X7580386Y-11488814D01*
X7651814Y-11488814D01*
X7680386Y-11503100D01*
X7694671Y-11517386D01*
X7708957Y-11545957D01*
X7708957Y-11574529D01*
X7694671Y-11617386D01*
X7523243Y-11788814D01*
X7708957Y-11788814D01*
X7837528Y-11788814D02*
X7837528Y-11588814D01*
X7837528Y-11617386D02*
X7851814Y-11603100D01*
X7880386Y-11588814D01*
X7923243Y-11588814D01*
X7951814Y-11603100D01*
X7966100Y-11631671D01*
X7966100Y-11788814D01*
X7966100Y-11631671D02*
X7980386Y-11603100D01*
X8008957Y-11588814D01*
X8051814Y-11588814D01*
X8080386Y-11603100D01*
X8094671Y-11631671D01*
X8094671Y-11788814D01*
X8237528Y-11788814D02*
X8237528Y-11588814D01*
X8237528Y-11617386D02*
X8251814Y-11603100D01*
X8280386Y-11588814D01*
X8323243Y-11588814D01*
X8351814Y-11603100D01*
X8366100Y-11631671D01*
X8366100Y-11788814D01*
X8366100Y-11631671D02*
X8380386Y-11603100D01*
X8408957Y-11588814D01*
X8451814Y-11588814D01*
X8480386Y-11603100D01*
X8494671Y-11631671D01*
X8494671Y-11788814D01*
X9080386Y-11474529D02*
X8823243Y-11860243D01*
X9466100Y-11488814D02*
X9494671Y-11488814D01*
X9523243Y-11503100D01*
X9537528Y-11517386D01*
X9551814Y-11545957D01*
X9566100Y-11603100D01*
X9566100Y-11674529D01*
X9551814Y-11731671D01*
X9537528Y-11760243D01*
X9523243Y-11774529D01*
X9494671Y-11788814D01*
X9466100Y-11788814D01*
X9437528Y-11774529D01*
X9423243Y-11760243D01*
X9408957Y-11731671D01*
X9394671Y-11674529D01*
X9394671Y-11603100D01*
X9408957Y-11545957D01*
X9423243Y-11517386D01*
X9437528Y-11503100D01*
X9466100Y-11488814D01*
X9694671Y-11760243D02*
X9708957Y-11774529D01*
X9694671Y-11788814D01*
X9680386Y-11774529D01*
X9694671Y-11760243D01*
X9694671Y-11788814D01*
X9894671Y-11488814D02*
X9923243Y-11488814D01*
X9951814Y-11503100D01*
X9966100Y-11517386D01*
X9980386Y-11545957D01*
X9994671Y-11603100D01*
X9994671Y-11674529D01*
X9980386Y-11731671D01*
X9966100Y-11760243D01*
X9951814Y-11774529D01*
X9923243Y-11788814D01*
X9894671Y-11788814D01*
X9866100Y-11774529D01*
X9851814Y-11760243D01*
X9837528Y-11731671D01*
X9823243Y-11674529D01*
X9823243Y-11603100D01*
X9837528Y-11545957D01*
X9851814Y-11517386D01*
X9866100Y-11503100D01*
X9894671Y-11488814D01*
X10251814Y-11488814D02*
X10194671Y-11488814D01*
X10166100Y-11503100D01*
X10151814Y-11517386D01*
X10123243Y-11560243D01*
X10108957Y-11617386D01*
X10108957Y-11731671D01*
X10123243Y-11760243D01*
X10137528Y-11774529D01*
X10166100Y-11788814D01*
X10223243Y-11788814D01*
X10251814Y-11774529D01*
X10266100Y-11760243D01*
X10280386Y-11731671D01*
X10280386Y-11660243D01*
X10266100Y-11631671D01*
X10251814Y-11617386D01*
X10223243Y-11603100D01*
X10166100Y-11603100D01*
X10137528Y-11617386D01*
X10123243Y-11631671D01*
X10108957Y-11660243D01*
X10466100Y-11488814D02*
X10494671Y-11488814D01*
X10523243Y-11503100D01*
X10537528Y-11517386D01*
X10551814Y-11545957D01*
X10566100Y-11603100D01*
X10566100Y-11674529D01*
X10551814Y-11731671D01*
X10537528Y-11760243D01*
X10523243Y-11774529D01*
X10494671Y-11788814D01*
X10466100Y-11788814D01*
X10437528Y-11774529D01*
X10423243Y-11760243D01*
X10408957Y-11731671D01*
X10394671Y-11674529D01*
X10394671Y-11603100D01*
X10408957Y-11545957D01*
X10423243Y-11517386D01*
X10437528Y-11503100D01*
X10466100Y-11488814D01*
X10680386Y-11488814D02*
X10680386Y-11545957D01*
X10794671Y-11488814D02*
X10794671Y-11545957D01*
X11237528Y-11903100D02*
X11223243Y-11888814D01*
X11194671Y-11845957D01*
X11180386Y-11817386D01*
X11166100Y-11774529D01*
X11151814Y-11703100D01*
X11151814Y-11645957D01*
X11166100Y-11574529D01*
X11180386Y-11531671D01*
X11194671Y-11503100D01*
X11223243Y-11460243D01*
X11237528Y-11445957D01*
X11508957Y-11788814D02*
X11337528Y-11788814D01*
X11423243Y-11788814D02*
X11423243Y-11488814D01*
X11394671Y-11531671D01*
X11366100Y-11560243D01*
X11337528Y-11574529D01*
X11766100Y-11488814D02*
X11708957Y-11488814D01*
X11680385Y-11503100D01*
X11666100Y-11517386D01*
X11637528Y-11560243D01*
X11623243Y-11617386D01*
X11623243Y-11731671D01*
X11637528Y-11760243D01*
X11651814Y-11774529D01*
X11680385Y-11788814D01*
X11737528Y-11788814D01*
X11766100Y-11774529D01*
X11780385Y-11760243D01*
X11794671Y-11731671D01*
X11794671Y-11660243D01*
X11780385Y-11631671D01*
X11766100Y-11617386D01*
X11737528Y-11603100D01*
X11680385Y-11603100D01*
X11651814Y-11617386D01*
X11637528Y-11631671D01*
X11623243Y-11660243D01*
X12151814Y-11788814D02*
X12151814Y-11488814D01*
X12280385Y-11788814D02*
X12280385Y-11631671D01*
X12266100Y-11603100D01*
X12237528Y-11588814D01*
X12194671Y-11588814D01*
X12166100Y-11603100D01*
X12151814Y-11617386D01*
X12466100Y-11788814D02*
X12437528Y-11774529D01*
X12423243Y-11760243D01*
X12408957Y-11731671D01*
X12408957Y-11645957D01*
X12423243Y-11617386D01*
X12437528Y-11603100D01*
X12466100Y-11588814D01*
X12508957Y-11588814D01*
X12537528Y-11603100D01*
X12551814Y-11617386D01*
X12566100Y-11645957D01*
X12566100Y-11731671D01*
X12551814Y-11760243D01*
X12537528Y-11774529D01*
X12508957Y-11788814D01*
X12466100Y-11788814D01*
X12737528Y-11788814D02*
X12708957Y-11774529D01*
X12694671Y-11745957D01*
X12694671Y-11488814D01*
X12966100Y-11774529D02*
X12937528Y-11788814D01*
X12880386Y-11788814D01*
X12851814Y-11774529D01*
X12837528Y-11745957D01*
X12837528Y-11631671D01*
X12851814Y-11603100D01*
X12880386Y-11588814D01*
X12937528Y-11588814D01*
X12966100Y-11603100D01*
X12980386Y-11631671D01*
X12980386Y-11660243D01*
X12837528Y-11688814D01*
X13094671Y-11774529D02*
X13123243Y-11788814D01*
X13180386Y-11788814D01*
X13208957Y-11774529D01*
X13223243Y-11745957D01*
X13223243Y-11731671D01*
X13208957Y-11703100D01*
X13180386Y-11688814D01*
X13137528Y-11688814D01*
X13108957Y-11674529D01*
X13094671Y-11645957D01*
X13094671Y-11631671D01*
X13108957Y-11603100D01*
X13137528Y-11588814D01*
X13180386Y-11588814D01*
X13208957Y-11603100D01*
X13323243Y-11903100D02*
X13337528Y-11888814D01*
X13366100Y-11845957D01*
X13380386Y-11817386D01*
X13394671Y-11774529D01*
X13408957Y-11703100D01*
X13408957Y-11645957D01*
X13394671Y-11574529D01*
X13380386Y-11531671D01*
X13366100Y-11503100D01*
X13337528Y-11460243D01*
X13323243Y-11445957D01*
X6466100Y-11999100D02*
X6566100Y-12099100D01*
X6566100Y-11999100D02*
X6466100Y-12099100D01*
X6566100Y-12049100D02*
G75*
G03X6566100Y-12049100I-50000J0D01*
G01*
X6994671Y-12184814D02*
X6823243Y-12184814D01*
X6908957Y-12184814D02*
X6908957Y-11884814D01*
X6880386Y-11927671D01*
X6851814Y-11956243D01*
X6823243Y-11970529D01*
X7123243Y-12156243D02*
X7137528Y-12170529D01*
X7123243Y-12184814D01*
X7108957Y-12170529D01*
X7123243Y-12156243D01*
X7123243Y-12184814D01*
X7323243Y-11884814D02*
X7351814Y-11884814D01*
X7380386Y-11899100D01*
X7394671Y-11913386D01*
X7408957Y-11941957D01*
X7423243Y-11999100D01*
X7423243Y-12070529D01*
X7408957Y-12127671D01*
X7394671Y-12156243D01*
X7380386Y-12170529D01*
X7351814Y-12184814D01*
X7323243Y-12184814D01*
X7294671Y-12170529D01*
X7280386Y-12156243D01*
X7266100Y-12127671D01*
X7251814Y-12070529D01*
X7251814Y-11999100D01*
X7266100Y-11941957D01*
X7280386Y-11913386D01*
X7294671Y-11899100D01*
X7323243Y-11884814D01*
X7608957Y-11884814D02*
X7637528Y-11884814D01*
X7666100Y-11899100D01*
X7680386Y-11913386D01*
X7694671Y-11941957D01*
X7708957Y-11999100D01*
X7708957Y-12070529D01*
X7694671Y-12127671D01*
X7680386Y-12156243D01*
X7666100Y-12170529D01*
X7637528Y-12184814D01*
X7608957Y-12184814D01*
X7580386Y-12170529D01*
X7566100Y-12156243D01*
X7551814Y-12127671D01*
X7537528Y-12070529D01*
X7537528Y-11999100D01*
X7551814Y-11941957D01*
X7566100Y-11913386D01*
X7580386Y-11899100D01*
X7608957Y-11884814D01*
X7837528Y-12184814D02*
X7837528Y-11984814D01*
X7837528Y-12013386D02*
X7851814Y-11999100D01*
X7880386Y-11984814D01*
X7923243Y-11984814D01*
X7951814Y-11999100D01*
X7966100Y-12027671D01*
X7966100Y-12184814D01*
X7966100Y-12027671D02*
X7980386Y-11999100D01*
X8008957Y-11984814D01*
X8051814Y-11984814D01*
X8080386Y-11999100D01*
X8094671Y-12027671D01*
X8094671Y-12184814D01*
X8237528Y-12184814D02*
X8237528Y-11984814D01*
X8237528Y-12013386D02*
X8251814Y-11999100D01*
X8280386Y-11984814D01*
X8323243Y-11984814D01*
X8351814Y-11999100D01*
X8366100Y-12027671D01*
X8366100Y-12184814D01*
X8366100Y-12027671D02*
X8380386Y-11999100D01*
X8408957Y-11984814D01*
X8451814Y-11984814D01*
X8480386Y-11999100D01*
X8494671Y-12027671D01*
X8494671Y-12184814D01*
X9080386Y-11870529D02*
X8823243Y-12256243D01*
X9466100Y-11884814D02*
X9494671Y-11884814D01*
X9523243Y-11899100D01*
X9537528Y-11913386D01*
X9551814Y-11941957D01*
X9566100Y-11999100D01*
X9566100Y-12070529D01*
X9551814Y-12127671D01*
X9537528Y-12156243D01*
X9523243Y-12170529D01*
X9494671Y-12184814D01*
X9466100Y-12184814D01*
X9437528Y-12170529D01*
X9423243Y-12156243D01*
X9408957Y-12127671D01*
X9394671Y-12070529D01*
X9394671Y-11999100D01*
X9408957Y-11941957D01*
X9423243Y-11913386D01*
X9437528Y-11899100D01*
X9466100Y-11884814D01*
X9694671Y-12156243D02*
X9708957Y-12170529D01*
X9694671Y-12184814D01*
X9680386Y-12170529D01*
X9694671Y-12156243D01*
X9694671Y-12184814D01*
X9894671Y-11884814D02*
X9923243Y-11884814D01*
X9951814Y-11899100D01*
X9966100Y-11913386D01*
X9980386Y-11941957D01*
X9994671Y-11999100D01*
X9994671Y-12070529D01*
X9980386Y-12127671D01*
X9966100Y-12156243D01*
X9951814Y-12170529D01*
X9923243Y-12184814D01*
X9894671Y-12184814D01*
X9866100Y-12170529D01*
X9851814Y-12156243D01*
X9837528Y-12127671D01*
X9823243Y-12070529D01*
X9823243Y-11999100D01*
X9837528Y-11941957D01*
X9851814Y-11913386D01*
X9866100Y-11899100D01*
X9894671Y-11884814D01*
X10094671Y-11884814D02*
X10280386Y-11884814D01*
X10180386Y-11999100D01*
X10223243Y-11999100D01*
X10251814Y-12013386D01*
X10266100Y-12027671D01*
X10280386Y-12056243D01*
X10280386Y-12127671D01*
X10266100Y-12156243D01*
X10251814Y-12170529D01*
X10223243Y-12184814D01*
X10137528Y-12184814D01*
X10108957Y-12170529D01*
X10094671Y-12156243D01*
X10423243Y-12184814D02*
X10480386Y-12184814D01*
X10508957Y-12170529D01*
X10523243Y-12156243D01*
X10551814Y-12113386D01*
X10566100Y-12056243D01*
X10566100Y-11941957D01*
X10551814Y-11913386D01*
X10537528Y-11899100D01*
X10508957Y-11884814D01*
X10451814Y-11884814D01*
X10423243Y-11899100D01*
X10408957Y-11913386D01*
X10394671Y-11941957D01*
X10394671Y-12013386D01*
X10408957Y-12041957D01*
X10423243Y-12056243D01*
X10451814Y-12070529D01*
X10508957Y-12070529D01*
X10537528Y-12056243D01*
X10551814Y-12041957D01*
X10566100Y-12013386D01*
X10680386Y-11884814D02*
X10680386Y-11941957D01*
X10794671Y-11884814D02*
X10794671Y-11941957D01*
X11237528Y-12299100D02*
X11223243Y-12284814D01*
X11194671Y-12241957D01*
X11180386Y-12213386D01*
X11166100Y-12170529D01*
X11151814Y-12099100D01*
X11151814Y-12041957D01*
X11166100Y-11970529D01*
X11180386Y-11927671D01*
X11194671Y-11899100D01*
X11223243Y-11856243D01*
X11237528Y-11841957D01*
X11508957Y-12184814D02*
X11337528Y-12184814D01*
X11423243Y-12184814D02*
X11423243Y-11884814D01*
X11394671Y-11927671D01*
X11366100Y-11956243D01*
X11337528Y-11970529D01*
X11866100Y-12184814D02*
X11866100Y-11884814D01*
X11994671Y-12184814D02*
X11994671Y-12027671D01*
X11980385Y-11999100D01*
X11951814Y-11984814D01*
X11908957Y-11984814D01*
X11880385Y-11999100D01*
X11866100Y-12013386D01*
X12180385Y-12184814D02*
X12151814Y-12170529D01*
X12137528Y-12156243D01*
X12123243Y-12127671D01*
X12123243Y-12041957D01*
X12137528Y-12013386D01*
X12151814Y-11999100D01*
X12180385Y-11984814D01*
X12223243Y-11984814D01*
X12251814Y-11999100D01*
X12266100Y-12013386D01*
X12280385Y-12041957D01*
X12280385Y-12127671D01*
X12266100Y-12156243D01*
X12251814Y-12170529D01*
X12223243Y-12184814D01*
X12180385Y-12184814D01*
X12451814Y-12184814D02*
X12423243Y-12170529D01*
X12408957Y-12141957D01*
X12408957Y-11884814D01*
X12680386Y-12170529D02*
X12651814Y-12184814D01*
X12594671Y-12184814D01*
X12566100Y-12170529D01*
X12551814Y-12141957D01*
X12551814Y-12027671D01*
X12566100Y-11999100D01*
X12594671Y-11984814D01*
X12651814Y-11984814D01*
X12680386Y-11999100D01*
X12694671Y-12027671D01*
X12694671Y-12056243D01*
X12551814Y-12084814D01*
X12794671Y-12299100D02*
X12808957Y-12284814D01*
X12837528Y-12241957D01*
X12851814Y-12213386D01*
X12866100Y-12170529D01*
X12880386Y-12099100D01*
X12880386Y-12041957D01*
X12866100Y-11970529D01*
X12851814Y-11927671D01*
X12837528Y-11899100D01*
X12808957Y-11856243D01*
X12794671Y-11841957D01*
X13337528Y-12299100D02*
X13323243Y-12284814D01*
X13294671Y-12241957D01*
X13280386Y-12213386D01*
X13266100Y-12170529D01*
X13251814Y-12099100D01*
X13251814Y-12041957D01*
X13266100Y-11970529D01*
X13280386Y-11927671D01*
X13294671Y-11899100D01*
X13323243Y-11856243D01*
X13337528Y-11841957D01*
X13451814Y-11984814D02*
X13451814Y-12184814D01*
X13451814Y-12013386D02*
X13466100Y-11999100D01*
X13494671Y-11984814D01*
X13537528Y-11984814D01*
X13566100Y-11999100D01*
X13580386Y-12027671D01*
X13580386Y-12184814D01*
X13766100Y-12184814D02*
X13737528Y-12170529D01*
X13723243Y-12156243D01*
X13708957Y-12127671D01*
X13708957Y-12041957D01*
X13723243Y-12013386D01*
X13737528Y-11999100D01*
X13766100Y-11984814D01*
X13808957Y-11984814D01*
X13837528Y-11999100D01*
X13851814Y-12013386D01*
X13866100Y-12041957D01*
X13866100Y-12127671D01*
X13851814Y-12156243D01*
X13837528Y-12170529D01*
X13808957Y-12184814D01*
X13766100Y-12184814D01*
X13951814Y-11984814D02*
X14066100Y-11984814D01*
X13994671Y-11884814D02*
X13994671Y-12141957D01*
X14008957Y-12170529D01*
X14037528Y-12184814D01*
X14066100Y-12184814D01*
X14394671Y-11984814D02*
X14394671Y-12284814D01*
X14394671Y-11999100D02*
X14423243Y-11984814D01*
X14480386Y-11984814D01*
X14508957Y-11999100D01*
X14523243Y-12013386D01*
X14537528Y-12041957D01*
X14537528Y-12127671D01*
X14523243Y-12156243D01*
X14508957Y-12170529D01*
X14480386Y-12184814D01*
X14423243Y-12184814D01*
X14394671Y-12170529D01*
X14708957Y-12184814D02*
X14680386Y-12170529D01*
X14666100Y-12141957D01*
X14666100Y-11884814D01*
X14951814Y-12184814D02*
X14951814Y-12027671D01*
X14937529Y-11999100D01*
X14908957Y-11984814D01*
X14851814Y-11984814D01*
X14823243Y-11999100D01*
X14951814Y-12170529D02*
X14923243Y-12184814D01*
X14851814Y-12184814D01*
X14823243Y-12170529D01*
X14808957Y-12141957D01*
X14808957Y-12113386D01*
X14823243Y-12084814D01*
X14851814Y-12070529D01*
X14923243Y-12070529D01*
X14951814Y-12056243D01*
X15051814Y-11984814D02*
X15166100Y-11984814D01*
X15094671Y-11884814D02*
X15094671Y-12141957D01*
X15108957Y-12170529D01*
X15137529Y-12184814D01*
X15166100Y-12184814D01*
X15380386Y-12170529D02*
X15351814Y-12184814D01*
X15294671Y-12184814D01*
X15266100Y-12170529D01*
X15251814Y-12141957D01*
X15251814Y-12027671D01*
X15266100Y-11999100D01*
X15294671Y-11984814D01*
X15351814Y-11984814D01*
X15380386Y-11999100D01*
X15394671Y-12027671D01*
X15394671Y-12056243D01*
X15251814Y-12084814D01*
X15651814Y-12184814D02*
X15651814Y-11884814D01*
X15651814Y-12170529D02*
X15623243Y-12184814D01*
X15566100Y-12184814D01*
X15537529Y-12170529D01*
X15523243Y-12156243D01*
X15508957Y-12127671D01*
X15508957Y-12041957D01*
X15523243Y-12013386D01*
X15537529Y-11999100D01*
X15566100Y-11984814D01*
X15623243Y-11984814D01*
X15651814Y-11999100D01*
X15766100Y-12299100D02*
X15780386Y-12284814D01*
X15808957Y-12241957D01*
X15823243Y-12213386D01*
X15837529Y-12170529D01*
X15851814Y-12099100D01*
X15851814Y-12041957D01*
X15837529Y-11970529D01*
X15823243Y-11927671D01*
X15808957Y-11899100D01*
X15780386Y-11856243D01*
X15766100Y-11841957D01*
X6436100Y-12380100D02*
X6566100Y-12510100D01*
X6566100Y-12380100D02*
X6436100Y-12510100D01*
X6501100Y-12380100D02*
X6501100Y-12510100D01*
X6436100Y-12445100D02*
X6566100Y-12445100D01*
X6994671Y-12580814D02*
X6823243Y-12580814D01*
X6908957Y-12580814D02*
X6908957Y-12280814D01*
X6880386Y-12323671D01*
X6851814Y-12352243D01*
X6823243Y-12366529D01*
X7123243Y-12552243D02*
X7137528Y-12566529D01*
X7123243Y-12580814D01*
X7108957Y-12566529D01*
X7123243Y-12552243D01*
X7123243Y-12580814D01*
X7237528Y-12280814D02*
X7423243Y-12280814D01*
X7323243Y-12395100D01*
X7366100Y-12395100D01*
X7394671Y-12409386D01*
X7408957Y-12423671D01*
X7423243Y-12452243D01*
X7423243Y-12523671D01*
X7408957Y-12552243D01*
X7394671Y-12566529D01*
X7366100Y-12580814D01*
X7280386Y-12580814D01*
X7251814Y-12566529D01*
X7237528Y-12552243D01*
X7608957Y-12280814D02*
X7637528Y-12280814D01*
X7666100Y-12295100D01*
X7680386Y-12309386D01*
X7694671Y-12337957D01*
X7708957Y-12395100D01*
X7708957Y-12466529D01*
X7694671Y-12523671D01*
X7680386Y-12552243D01*
X7666100Y-12566529D01*
X7637528Y-12580814D01*
X7608957Y-12580814D01*
X7580386Y-12566529D01*
X7566100Y-12552243D01*
X7551814Y-12523671D01*
X7537528Y-12466529D01*
X7537528Y-12395100D01*
X7551814Y-12337957D01*
X7566100Y-12309386D01*
X7580386Y-12295100D01*
X7608957Y-12280814D01*
X7837528Y-12580814D02*
X7837528Y-12380814D01*
X7837528Y-12409386D02*
X7851814Y-12395100D01*
X7880386Y-12380814D01*
X7923243Y-12380814D01*
X7951814Y-12395100D01*
X7966100Y-12423671D01*
X7966100Y-12580814D01*
X7966100Y-12423671D02*
X7980386Y-12395100D01*
X8008957Y-12380814D01*
X8051814Y-12380814D01*
X8080386Y-12395100D01*
X8094671Y-12423671D01*
X8094671Y-12580814D01*
X8237528Y-12580814D02*
X8237528Y-12380814D01*
X8237528Y-12409386D02*
X8251814Y-12395100D01*
X8280386Y-12380814D01*
X8323243Y-12380814D01*
X8351814Y-12395100D01*
X8366100Y-12423671D01*
X8366100Y-12580814D01*
X8366100Y-12423671D02*
X8380386Y-12395100D01*
X8408957Y-12380814D01*
X8451814Y-12380814D01*
X8480386Y-12395100D01*
X8494671Y-12423671D01*
X8494671Y-12580814D01*
X9080386Y-12266529D02*
X8823243Y-12652243D01*
X9466100Y-12280814D02*
X9494671Y-12280814D01*
X9523243Y-12295100D01*
X9537528Y-12309386D01*
X9551814Y-12337957D01*
X9566100Y-12395100D01*
X9566100Y-12466529D01*
X9551814Y-12523671D01*
X9537528Y-12552243D01*
X9523243Y-12566529D01*
X9494671Y-12580814D01*
X9466100Y-12580814D01*
X9437528Y-12566529D01*
X9423243Y-12552243D01*
X9408957Y-12523671D01*
X9394671Y-12466529D01*
X9394671Y-12395100D01*
X9408957Y-12337957D01*
X9423243Y-12309386D01*
X9437528Y-12295100D01*
X9466100Y-12280814D01*
X9694671Y-12552243D02*
X9708957Y-12566529D01*
X9694671Y-12580814D01*
X9680386Y-12566529D01*
X9694671Y-12552243D01*
X9694671Y-12580814D01*
X9894671Y-12280814D02*
X9923243Y-12280814D01*
X9951814Y-12295100D01*
X9966100Y-12309386D01*
X9980386Y-12337957D01*
X9994671Y-12395100D01*
X9994671Y-12466529D01*
X9980386Y-12523671D01*
X9966100Y-12552243D01*
X9951814Y-12566529D01*
X9923243Y-12580814D01*
X9894671Y-12580814D01*
X9866100Y-12566529D01*
X9851814Y-12552243D01*
X9837528Y-12523671D01*
X9823243Y-12466529D01*
X9823243Y-12395100D01*
X9837528Y-12337957D01*
X9851814Y-12309386D01*
X9866100Y-12295100D01*
X9894671Y-12280814D01*
X10266100Y-12280814D02*
X10123243Y-12280814D01*
X10108957Y-12423671D01*
X10123243Y-12409386D01*
X10151814Y-12395100D01*
X10223243Y-12395100D01*
X10251814Y-12409386D01*
X10266100Y-12423671D01*
X10280386Y-12452243D01*
X10280386Y-12523671D01*
X10266100Y-12552243D01*
X10251814Y-12566529D01*
X10223243Y-12580814D01*
X10151814Y-12580814D01*
X10123243Y-12566529D01*
X10108957Y-12552243D01*
X10566100Y-12580814D02*
X10394671Y-12580814D01*
X10480386Y-12580814D02*
X10480386Y-12280814D01*
X10451814Y-12323671D01*
X10423243Y-12352243D01*
X10394671Y-12366529D01*
X10680386Y-12280814D02*
X10680386Y-12337957D01*
X10794671Y-12280814D02*
X10794671Y-12337957D01*
X11237528Y-12695100D02*
X11223243Y-12680814D01*
X11194671Y-12637957D01*
X11180386Y-12609386D01*
X11166100Y-12566529D01*
X11151814Y-12495100D01*
X11151814Y-12437957D01*
X11166100Y-12366529D01*
X11180386Y-12323671D01*
X11194671Y-12295100D01*
X11223243Y-12252243D01*
X11237528Y-12237957D01*
X11508957Y-12580814D02*
X11337528Y-12580814D01*
X11423243Y-12580814D02*
X11423243Y-12280814D01*
X11394671Y-12323671D01*
X11366100Y-12352243D01*
X11337528Y-12366529D01*
X11866100Y-12580814D02*
X11866100Y-12280814D01*
X11994671Y-12580814D02*
X11994671Y-12423671D01*
X11980385Y-12395100D01*
X11951814Y-12380814D01*
X11908957Y-12380814D01*
X11880385Y-12395100D01*
X11866100Y-12409386D01*
X12180385Y-12580814D02*
X12151814Y-12566529D01*
X12137528Y-12552243D01*
X12123243Y-12523671D01*
X12123243Y-12437957D01*
X12137528Y-12409386D01*
X12151814Y-12395100D01*
X12180385Y-12380814D01*
X12223243Y-12380814D01*
X12251814Y-12395100D01*
X12266100Y-12409386D01*
X12280385Y-12437957D01*
X12280385Y-12523671D01*
X12266100Y-12552243D01*
X12251814Y-12566529D01*
X12223243Y-12580814D01*
X12180385Y-12580814D01*
X12451814Y-12580814D02*
X12423243Y-12566529D01*
X12408957Y-12537957D01*
X12408957Y-12280814D01*
X12680386Y-12566529D02*
X12651814Y-12580814D01*
X12594671Y-12580814D01*
X12566100Y-12566529D01*
X12551814Y-12537957D01*
X12551814Y-12423671D01*
X12566100Y-12395100D01*
X12594671Y-12380814D01*
X12651814Y-12380814D01*
X12680386Y-12395100D01*
X12694671Y-12423671D01*
X12694671Y-12452243D01*
X12551814Y-12480814D01*
X12794671Y-12695100D02*
X12808957Y-12680814D01*
X12837528Y-12637957D01*
X12851814Y-12609386D01*
X12866100Y-12566529D01*
X12880386Y-12495100D01*
X12880386Y-12437957D01*
X12866100Y-12366529D01*
X12851814Y-12323671D01*
X12837528Y-12295100D01*
X12808957Y-12252243D01*
X12794671Y-12237957D01*
X13337528Y-12695100D02*
X13323243Y-12680814D01*
X13294671Y-12637957D01*
X13280386Y-12609386D01*
X13266100Y-12566529D01*
X13251814Y-12495100D01*
X13251814Y-12437957D01*
X13266100Y-12366529D01*
X13280386Y-12323671D01*
X13294671Y-12295100D01*
X13323243Y-12252243D01*
X13337528Y-12237957D01*
X13451814Y-12380814D02*
X13451814Y-12580814D01*
X13451814Y-12409386D02*
X13466100Y-12395100D01*
X13494671Y-12380814D01*
X13537528Y-12380814D01*
X13566100Y-12395100D01*
X13580386Y-12423671D01*
X13580386Y-12580814D01*
X13766100Y-12580814D02*
X13737528Y-12566529D01*
X13723243Y-12552243D01*
X13708957Y-12523671D01*
X13708957Y-12437957D01*
X13723243Y-12409386D01*
X13737528Y-12395100D01*
X13766100Y-12380814D01*
X13808957Y-12380814D01*
X13837528Y-12395100D01*
X13851814Y-12409386D01*
X13866100Y-12437957D01*
X13866100Y-12523671D01*
X13851814Y-12552243D01*
X13837528Y-12566529D01*
X13808957Y-12580814D01*
X13766100Y-12580814D01*
X13951814Y-12380814D02*
X14066100Y-12380814D01*
X13994671Y-12280814D02*
X13994671Y-12537957D01*
X14008957Y-12566529D01*
X14037528Y-12580814D01*
X14066100Y-12580814D01*
X14394671Y-12380814D02*
X14394671Y-12680814D01*
X14394671Y-12395100D02*
X14423243Y-12380814D01*
X14480386Y-12380814D01*
X14508957Y-12395100D01*
X14523243Y-12409386D01*
X14537528Y-12437957D01*
X14537528Y-12523671D01*
X14523243Y-12552243D01*
X14508957Y-12566529D01*
X14480386Y-12580814D01*
X14423243Y-12580814D01*
X14394671Y-12566529D01*
X14708957Y-12580814D02*
X14680386Y-12566529D01*
X14666100Y-12537957D01*
X14666100Y-12280814D01*
X14951814Y-12580814D02*
X14951814Y-12423671D01*
X14937529Y-12395100D01*
X14908957Y-12380814D01*
X14851814Y-12380814D01*
X14823243Y-12395100D01*
X14951814Y-12566529D02*
X14923243Y-12580814D01*
X14851814Y-12580814D01*
X14823243Y-12566529D01*
X14808957Y-12537957D01*
X14808957Y-12509386D01*
X14823243Y-12480814D01*
X14851814Y-12466529D01*
X14923243Y-12466529D01*
X14951814Y-12452243D01*
X15051814Y-12380814D02*
X15166100Y-12380814D01*
X15094671Y-12280814D02*
X15094671Y-12537957D01*
X15108957Y-12566529D01*
X15137529Y-12580814D01*
X15166100Y-12580814D01*
X15380386Y-12566529D02*
X15351814Y-12580814D01*
X15294671Y-12580814D01*
X15266100Y-12566529D01*
X15251814Y-12537957D01*
X15251814Y-12423671D01*
X15266100Y-12395100D01*
X15294671Y-12380814D01*
X15351814Y-12380814D01*
X15380386Y-12395100D01*
X15394671Y-12423671D01*
X15394671Y-12452243D01*
X15251814Y-12480814D01*
X15651814Y-12580814D02*
X15651814Y-12280814D01*
X15651814Y-12566529D02*
X15623243Y-12580814D01*
X15566100Y-12580814D01*
X15537529Y-12566529D01*
X15523243Y-12552243D01*
X15508957Y-12523671D01*
X15508957Y-12437957D01*
X15523243Y-12409386D01*
X15537529Y-12395100D01*
X15566100Y-12380814D01*
X15623243Y-12380814D01*
X15651814Y-12395100D01*
X15766100Y-12695100D02*
X15780386Y-12680814D01*
X15808957Y-12637957D01*
X15823243Y-12609386D01*
X15837529Y-12566529D01*
X15851814Y-12495100D01*
X15851814Y-12437957D01*
X15837529Y-12366529D01*
X15823243Y-12323671D01*
X15808957Y-12295100D01*
X15780386Y-12252243D01*
X15766100Y-12237957D01*
X6326070Y-12721085D02*
X6566100Y-12961115D01*
X6566100Y-12721085D02*
X6326070Y-12961115D01*
X6530949Y-12925964D02*
X6530949Y-12756236D01*
X6361221Y-12756236D01*
X6361221Y-12925964D01*
X6530949Y-12925964D01*
X6823243Y-12705386D02*
X6837528Y-12691100D01*
X6866100Y-12676814D01*
X6937528Y-12676814D01*
X6966100Y-12691100D01*
X6980386Y-12705386D01*
X6994671Y-12733957D01*
X6994671Y-12762529D01*
X6980386Y-12805386D01*
X6808957Y-12976814D01*
X6994671Y-12976814D01*
X7123243Y-12948243D02*
X7137528Y-12962529D01*
X7123243Y-12976814D01*
X7108957Y-12962529D01*
X7123243Y-12948243D01*
X7123243Y-12976814D01*
X7394671Y-12776814D02*
X7394671Y-12976814D01*
X7323243Y-12662529D02*
X7251814Y-12876814D01*
X7437528Y-12876814D01*
X7608957Y-12676814D02*
X7637528Y-12676814D01*
X7666100Y-12691100D01*
X7680386Y-12705386D01*
X7694671Y-12733957D01*
X7708957Y-12791100D01*
X7708957Y-12862529D01*
X7694671Y-12919671D01*
X7680386Y-12948243D01*
X7666100Y-12962529D01*
X7637528Y-12976814D01*
X7608957Y-12976814D01*
X7580386Y-12962529D01*
X7566100Y-12948243D01*
X7551814Y-12919671D01*
X7537528Y-12862529D01*
X7537528Y-12791100D01*
X7551814Y-12733957D01*
X7566100Y-12705386D01*
X7580386Y-12691100D01*
X7608957Y-12676814D01*
X7837528Y-12976814D02*
X7837528Y-12776814D01*
X7837528Y-12805386D02*
X7851814Y-12791100D01*
X7880386Y-12776814D01*
X7923243Y-12776814D01*
X7951814Y-12791100D01*
X7966100Y-12819671D01*
X7966100Y-12976814D01*
X7966100Y-12819671D02*
X7980386Y-12791100D01*
X8008957Y-12776814D01*
X8051814Y-12776814D01*
X8080386Y-12791100D01*
X8094671Y-12819671D01*
X8094671Y-12976814D01*
X8237528Y-12976814D02*
X8237528Y-12776814D01*
X8237528Y-12805386D02*
X8251814Y-12791100D01*
X8280386Y-12776814D01*
X8323243Y-12776814D01*
X8351814Y-12791100D01*
X8366100Y-12819671D01*
X8366100Y-12976814D01*
X8366100Y-12819671D02*
X8380386Y-12791100D01*
X8408957Y-12776814D01*
X8451814Y-12776814D01*
X8480386Y-12791100D01*
X8494671Y-12819671D01*
X8494671Y-12976814D01*
X9080386Y-12662529D02*
X8823243Y-13048243D01*
X9466100Y-12676814D02*
X9494671Y-12676814D01*
X9523243Y-12691100D01*
X9537528Y-12705386D01*
X9551814Y-12733957D01*
X9566100Y-12791100D01*
X9566100Y-12862529D01*
X9551814Y-12919671D01*
X9537528Y-12948243D01*
X9523243Y-12962529D01*
X9494671Y-12976814D01*
X9466100Y-12976814D01*
X9437528Y-12962529D01*
X9423243Y-12948243D01*
X9408957Y-12919671D01*
X9394671Y-12862529D01*
X9394671Y-12791100D01*
X9408957Y-12733957D01*
X9423243Y-12705386D01*
X9437528Y-12691100D01*
X9466100Y-12676814D01*
X9694671Y-12948243D02*
X9708957Y-12962529D01*
X9694671Y-12976814D01*
X9680386Y-12962529D01*
X9694671Y-12948243D01*
X9694671Y-12976814D01*
X9894671Y-12676814D02*
X9923243Y-12676814D01*
X9951814Y-12691100D01*
X9966100Y-12705386D01*
X9980386Y-12733957D01*
X9994671Y-12791100D01*
X9994671Y-12862529D01*
X9980386Y-12919671D01*
X9966100Y-12948243D01*
X9951814Y-12962529D01*
X9923243Y-12976814D01*
X9894671Y-12976814D01*
X9866100Y-12962529D01*
X9851814Y-12948243D01*
X9837528Y-12919671D01*
X9823243Y-12862529D01*
X9823243Y-12791100D01*
X9837528Y-12733957D01*
X9851814Y-12705386D01*
X9866100Y-12691100D01*
X9894671Y-12676814D01*
X10137528Y-12976814D02*
X10194671Y-12976814D01*
X10223243Y-12962529D01*
X10237528Y-12948243D01*
X10266100Y-12905386D01*
X10280386Y-12848243D01*
X10280386Y-12733957D01*
X10266100Y-12705386D01*
X10251814Y-12691100D01*
X10223243Y-12676814D01*
X10166100Y-12676814D01*
X10137528Y-12691100D01*
X10123243Y-12705386D01*
X10108957Y-12733957D01*
X10108957Y-12805386D01*
X10123243Y-12833957D01*
X10137528Y-12848243D01*
X10166100Y-12862529D01*
X10223243Y-12862529D01*
X10251814Y-12848243D01*
X10266100Y-12833957D01*
X10280386Y-12805386D01*
X10551814Y-12676814D02*
X10408957Y-12676814D01*
X10394671Y-12819671D01*
X10408957Y-12805386D01*
X10437528Y-12791100D01*
X10508957Y-12791100D01*
X10537528Y-12805386D01*
X10551814Y-12819671D01*
X10566100Y-12848243D01*
X10566100Y-12919671D01*
X10551814Y-12948243D01*
X10537528Y-12962529D01*
X10508957Y-12976814D01*
X10437528Y-12976814D01*
X10408957Y-12962529D01*
X10394671Y-12948243D01*
X10680386Y-12676814D02*
X10680386Y-12733957D01*
X10794671Y-12676814D02*
X10794671Y-12733957D01*
X11237528Y-13091100D02*
X11223243Y-13076814D01*
X11194671Y-13033957D01*
X11180386Y-13005386D01*
X11166100Y-12962529D01*
X11151814Y-12891100D01*
X11151814Y-12833957D01*
X11166100Y-12762529D01*
X11180386Y-12719671D01*
X11194671Y-12691100D01*
X11223243Y-12648243D01*
X11237528Y-12633957D01*
X11337528Y-12705386D02*
X11351814Y-12691100D01*
X11380385Y-12676814D01*
X11451814Y-12676814D01*
X11480385Y-12691100D01*
X11494671Y-12705386D01*
X11508957Y-12733957D01*
X11508957Y-12762529D01*
X11494671Y-12805386D01*
X11323243Y-12976814D01*
X11508957Y-12976814D01*
X11866100Y-12976814D02*
X11866100Y-12676814D01*
X11994671Y-12976814D02*
X11994671Y-12819671D01*
X11980385Y-12791100D01*
X11951814Y-12776814D01*
X11908957Y-12776814D01*
X11880385Y-12791100D01*
X11866100Y-12805386D01*
X12180385Y-12976814D02*
X12151814Y-12962529D01*
X12137528Y-12948243D01*
X12123243Y-12919671D01*
X12123243Y-12833957D01*
X12137528Y-12805386D01*
X12151814Y-12791100D01*
X12180385Y-12776814D01*
X12223243Y-12776814D01*
X12251814Y-12791100D01*
X12266100Y-12805386D01*
X12280385Y-12833957D01*
X12280385Y-12919671D01*
X12266100Y-12948243D01*
X12251814Y-12962529D01*
X12223243Y-12976814D01*
X12180385Y-12976814D01*
X12451814Y-12976814D02*
X12423243Y-12962529D01*
X12408957Y-12933957D01*
X12408957Y-12676814D01*
X12680386Y-12962529D02*
X12651814Y-12976814D01*
X12594671Y-12976814D01*
X12566100Y-12962529D01*
X12551814Y-12933957D01*
X12551814Y-12819671D01*
X12566100Y-12791100D01*
X12594671Y-12776814D01*
X12651814Y-12776814D01*
X12680386Y-12791100D01*
X12694671Y-12819671D01*
X12694671Y-12848243D01*
X12551814Y-12876814D01*
X12808957Y-12962529D02*
X12837528Y-12976814D01*
X12894671Y-12976814D01*
X12923243Y-12962529D01*
X12937528Y-12933957D01*
X12937528Y-12919671D01*
X12923243Y-12891100D01*
X12894671Y-12876814D01*
X12851814Y-12876814D01*
X12823243Y-12862529D01*
X12808957Y-12833957D01*
X12808957Y-12819671D01*
X12823243Y-12791100D01*
X12851814Y-12776814D01*
X12894671Y-12776814D01*
X12923243Y-12791100D01*
X13037528Y-13091100D02*
X13051814Y-13076814D01*
X13080386Y-13033957D01*
X13094671Y-13005386D01*
X13108957Y-12962529D01*
X13123243Y-12891100D01*
X13123243Y-12833957D01*
X13108957Y-12762529D01*
X13094671Y-12719671D01*
X13080386Y-12691100D01*
X13051814Y-12648243D01*
X13037528Y-12633957D01*
X13580386Y-13091100D02*
X13566100Y-13076814D01*
X13537528Y-13033957D01*
X13523243Y-13005386D01*
X13508957Y-12962529D01*
X13494671Y-12891100D01*
X13494671Y-12833957D01*
X13508957Y-12762529D01*
X13523243Y-12719671D01*
X13537528Y-12691100D01*
X13566100Y-12648243D01*
X13580386Y-12633957D01*
X13694671Y-12776814D02*
X13694671Y-12976814D01*
X13694671Y-12805386D02*
X13708957Y-12791100D01*
X13737528Y-12776814D01*
X13780386Y-12776814D01*
X13808957Y-12791100D01*
X13823243Y-12819671D01*
X13823243Y-12976814D01*
X14008957Y-12976814D02*
X13980386Y-12962529D01*
X13966100Y-12948243D01*
X13951814Y-12919671D01*
X13951814Y-12833957D01*
X13966100Y-12805386D01*
X13980386Y-12791100D01*
X14008957Y-12776814D01*
X14051814Y-12776814D01*
X14080386Y-12791100D01*
X14094671Y-12805386D01*
X14108957Y-12833957D01*
X14108957Y-12919671D01*
X14094671Y-12948243D01*
X14080386Y-12962529D01*
X14051814Y-12976814D01*
X14008957Y-12976814D01*
X14194671Y-12776814D02*
X14308957Y-12776814D01*
X14237528Y-12676814D02*
X14237528Y-12933957D01*
X14251814Y-12962529D01*
X14280386Y-12976814D01*
X14308957Y-12976814D01*
X14637528Y-12776814D02*
X14637528Y-13076814D01*
X14637528Y-12791100D02*
X14666100Y-12776814D01*
X14723243Y-12776814D01*
X14751814Y-12791100D01*
X14766100Y-12805386D01*
X14780386Y-12833957D01*
X14780386Y-12919671D01*
X14766100Y-12948243D01*
X14751814Y-12962529D01*
X14723243Y-12976814D01*
X14666100Y-12976814D01*
X14637528Y-12962529D01*
X14951814Y-12976814D02*
X14923243Y-12962529D01*
X14908957Y-12933957D01*
X14908957Y-12676814D01*
X15194671Y-12976814D02*
X15194671Y-12819671D01*
X15180386Y-12791100D01*
X15151814Y-12776814D01*
X15094671Y-12776814D01*
X15066100Y-12791100D01*
X15194671Y-12962529D02*
X15166100Y-12976814D01*
X15094671Y-12976814D01*
X15066100Y-12962529D01*
X15051814Y-12933957D01*
X15051814Y-12905386D01*
X15066100Y-12876814D01*
X15094671Y-12862529D01*
X15166100Y-12862529D01*
X15194671Y-12848243D01*
X15294671Y-12776814D02*
X15408957Y-12776814D01*
X15337529Y-12676814D02*
X15337529Y-12933957D01*
X15351814Y-12962529D01*
X15380386Y-12976814D01*
X15408957Y-12976814D01*
X15623243Y-12962529D02*
X15594671Y-12976814D01*
X15537529Y-12976814D01*
X15508957Y-12962529D01*
X15494671Y-12933957D01*
X15494671Y-12819671D01*
X15508957Y-12791100D01*
X15537529Y-12776814D01*
X15594671Y-12776814D01*
X15623243Y-12791100D01*
X15637529Y-12819671D01*
X15637529Y-12848243D01*
X15494671Y-12876814D01*
X15894671Y-12976814D02*
X15894671Y-12676814D01*
X15894671Y-12962529D02*
X15866100Y-12976814D01*
X15808957Y-12976814D01*
X15780386Y-12962529D01*
X15766100Y-12948243D01*
X15751814Y-12919671D01*
X15751814Y-12833957D01*
X15766100Y-12805386D01*
X15780386Y-12791100D01*
X15808957Y-12776814D01*
X15866100Y-12776814D01*
X15894671Y-12791100D01*
X16008957Y-13091100D02*
X16023243Y-13076814D01*
X16051814Y-13033957D01*
X16066100Y-13005386D01*
X16080386Y-12962529D01*
X16094671Y-12891100D01*
X16094671Y-12833957D01*
X16080386Y-12762529D01*
X16066100Y-12719671D01*
X16051814Y-12691100D01*
X16023243Y-12648243D01*
X16008957Y-12633957D01*
X6266100Y-13087100D02*
X6566100Y-13387100D01*
X6566100Y-13087100D02*
X6266100Y-13387100D01*
X6416100Y-13387100D02*
X6566100Y-13237100D01*
X6416100Y-13087100D01*
X6266100Y-13237100D01*
X6416100Y-13387100D01*
X6808957Y-13072814D02*
X6994671Y-13072814D01*
X6894671Y-13187100D01*
X6937528Y-13187100D01*
X6966100Y-13201386D01*
X6980386Y-13215671D01*
X6994671Y-13244243D01*
X6994671Y-13315671D01*
X6980386Y-13344243D01*
X6966100Y-13358529D01*
X6937528Y-13372814D01*
X6851814Y-13372814D01*
X6823243Y-13358529D01*
X6808957Y-13344243D01*
X7123243Y-13344243D02*
X7137528Y-13358529D01*
X7123243Y-13372814D01*
X7108957Y-13358529D01*
X7123243Y-13344243D01*
X7123243Y-13372814D01*
X7323243Y-13072814D02*
X7351814Y-13072814D01*
X7380386Y-13087100D01*
X7394671Y-13101386D01*
X7408957Y-13129957D01*
X7423243Y-13187100D01*
X7423243Y-13258529D01*
X7408957Y-13315671D01*
X7394671Y-13344243D01*
X7380386Y-13358529D01*
X7351814Y-13372814D01*
X7323243Y-13372814D01*
X7294671Y-13358529D01*
X7280386Y-13344243D01*
X7266100Y-13315671D01*
X7251814Y-13258529D01*
X7251814Y-13187100D01*
X7266100Y-13129957D01*
X7280386Y-13101386D01*
X7294671Y-13087100D01*
X7323243Y-13072814D01*
X7608957Y-13072814D02*
X7637528Y-13072814D01*
X7666100Y-13087100D01*
X7680386Y-13101386D01*
X7694671Y-13129957D01*
X7708957Y-13187100D01*
X7708957Y-13258529D01*
X7694671Y-13315671D01*
X7680386Y-13344243D01*
X7666100Y-13358529D01*
X7637528Y-13372814D01*
X7608957Y-13372814D01*
X7580386Y-13358529D01*
X7566100Y-13344243D01*
X7551814Y-13315671D01*
X7537528Y-13258529D01*
X7537528Y-13187100D01*
X7551814Y-13129957D01*
X7566100Y-13101386D01*
X7580386Y-13087100D01*
X7608957Y-13072814D01*
X7837528Y-13372814D02*
X7837528Y-13172814D01*
X7837528Y-13201386D02*
X7851814Y-13187100D01*
X7880386Y-13172814D01*
X7923243Y-13172814D01*
X7951814Y-13187100D01*
X7966100Y-13215671D01*
X7966100Y-13372814D01*
X7966100Y-13215671D02*
X7980386Y-13187100D01*
X8008957Y-13172814D01*
X8051814Y-13172814D01*
X8080386Y-13187100D01*
X8094671Y-13215671D01*
X8094671Y-13372814D01*
X8237528Y-13372814D02*
X8237528Y-13172814D01*
X8237528Y-13201386D02*
X8251814Y-13187100D01*
X8280386Y-13172814D01*
X8323243Y-13172814D01*
X8351814Y-13187100D01*
X8366100Y-13215671D01*
X8366100Y-13372814D01*
X8366100Y-13215671D02*
X8380386Y-13187100D01*
X8408957Y-13172814D01*
X8451814Y-13172814D01*
X8480386Y-13187100D01*
X8494671Y-13215671D01*
X8494671Y-13372814D01*
X9080386Y-13058529D02*
X8823243Y-13444243D01*
X9466100Y-13072814D02*
X9494671Y-13072814D01*
X9523243Y-13087100D01*
X9537528Y-13101386D01*
X9551814Y-13129957D01*
X9566100Y-13187100D01*
X9566100Y-13258529D01*
X9551814Y-13315671D01*
X9537528Y-13344243D01*
X9523243Y-13358529D01*
X9494671Y-13372814D01*
X9466100Y-13372814D01*
X9437528Y-13358529D01*
X9423243Y-13344243D01*
X9408957Y-13315671D01*
X9394671Y-13258529D01*
X9394671Y-13187100D01*
X9408957Y-13129957D01*
X9423243Y-13101386D01*
X9437528Y-13087100D01*
X9466100Y-13072814D01*
X9694671Y-13344243D02*
X9708957Y-13358529D01*
X9694671Y-13372814D01*
X9680386Y-13358529D01*
X9694671Y-13344243D01*
X9694671Y-13372814D01*
X9994671Y-13372814D02*
X9823243Y-13372814D01*
X9908957Y-13372814D02*
X9908957Y-13072814D01*
X9880386Y-13115671D01*
X9851814Y-13144243D01*
X9823243Y-13158529D01*
X10280386Y-13372814D02*
X10108957Y-13372814D01*
X10194671Y-13372814D02*
X10194671Y-13072814D01*
X10166100Y-13115671D01*
X10137528Y-13144243D01*
X10108957Y-13158529D01*
X10451814Y-13201386D02*
X10423243Y-13187100D01*
X10408957Y-13172814D01*
X10394671Y-13144243D01*
X10394671Y-13129957D01*
X10408957Y-13101386D01*
X10423243Y-13087100D01*
X10451814Y-13072814D01*
X10508957Y-13072814D01*
X10537528Y-13087100D01*
X10551814Y-13101386D01*
X10566100Y-13129957D01*
X10566100Y-13144243D01*
X10551814Y-13172814D01*
X10537528Y-13187100D01*
X10508957Y-13201386D01*
X10451814Y-13201386D01*
X10423243Y-13215671D01*
X10408957Y-13229957D01*
X10394671Y-13258529D01*
X10394671Y-13315671D01*
X10408957Y-13344243D01*
X10423243Y-13358529D01*
X10451814Y-13372814D01*
X10508957Y-13372814D01*
X10537528Y-13358529D01*
X10551814Y-13344243D01*
X10566100Y-13315671D01*
X10566100Y-13258529D01*
X10551814Y-13229957D01*
X10537528Y-13215671D01*
X10508957Y-13201386D01*
X10680386Y-13072814D02*
X10680386Y-13129957D01*
X10794671Y-13072814D02*
X10794671Y-13129957D01*
X11237528Y-13487100D02*
X11223243Y-13472814D01*
X11194671Y-13429957D01*
X11180386Y-13401386D01*
X11166100Y-13358529D01*
X11151814Y-13287100D01*
X11151814Y-13229957D01*
X11166100Y-13158529D01*
X11180386Y-13115671D01*
X11194671Y-13087100D01*
X11223243Y-13044243D01*
X11237528Y-13029957D01*
X11480385Y-13072814D02*
X11423243Y-13072814D01*
X11394671Y-13087100D01*
X11380385Y-13101386D01*
X11351814Y-13144243D01*
X11337528Y-13201386D01*
X11337528Y-13315671D01*
X11351814Y-13344243D01*
X11366100Y-13358529D01*
X11394671Y-13372814D01*
X11451814Y-13372814D01*
X11480385Y-13358529D01*
X11494671Y-13344243D01*
X11508957Y-13315671D01*
X11508957Y-13244243D01*
X11494671Y-13215671D01*
X11480385Y-13201386D01*
X11451814Y-13187100D01*
X11394671Y-13187100D01*
X11366100Y-13201386D01*
X11351814Y-13215671D01*
X11337528Y-13244243D01*
X11866100Y-13372814D02*
X11866100Y-13072814D01*
X11994671Y-13372814D02*
X11994671Y-13215671D01*
X11980385Y-13187100D01*
X11951814Y-13172814D01*
X11908957Y-13172814D01*
X11880385Y-13187100D01*
X11866100Y-13201386D01*
X12180385Y-13372814D02*
X12151814Y-13358529D01*
X12137528Y-13344243D01*
X12123243Y-13315671D01*
X12123243Y-13229957D01*
X12137528Y-13201386D01*
X12151814Y-13187100D01*
X12180385Y-13172814D01*
X12223243Y-13172814D01*
X12251814Y-13187100D01*
X12266100Y-13201386D01*
X12280385Y-13229957D01*
X12280385Y-13315671D01*
X12266100Y-13344243D01*
X12251814Y-13358529D01*
X12223243Y-13372814D01*
X12180385Y-13372814D01*
X12451814Y-13372814D02*
X12423243Y-13358529D01*
X12408957Y-13329957D01*
X12408957Y-13072814D01*
X12680386Y-13358529D02*
X12651814Y-13372814D01*
X12594671Y-13372814D01*
X12566100Y-13358529D01*
X12551814Y-13329957D01*
X12551814Y-13215671D01*
X12566100Y-13187100D01*
X12594671Y-13172814D01*
X12651814Y-13172814D01*
X12680386Y-13187100D01*
X12694671Y-13215671D01*
X12694671Y-13244243D01*
X12551814Y-13272814D01*
X12808957Y-13358529D02*
X12837528Y-13372814D01*
X12894671Y-13372814D01*
X12923243Y-13358529D01*
X12937528Y-13329957D01*
X12937528Y-13315671D01*
X12923243Y-13287100D01*
X12894671Y-13272814D01*
X12851814Y-13272814D01*
X12823243Y-13258529D01*
X12808957Y-13229957D01*
X12808957Y-13215671D01*
X12823243Y-13187100D01*
X12851814Y-13172814D01*
X12894671Y-13172814D01*
X12923243Y-13187100D01*
X13037528Y-13487100D02*
X13051814Y-13472814D01*
X13080386Y-13429957D01*
X13094671Y-13401386D01*
X13108957Y-13358529D01*
X13123243Y-13287100D01*
X13123243Y-13229957D01*
X13108957Y-13158529D01*
X13094671Y-13115671D01*
X13080386Y-13087100D01*
X13051814Y-13044243D01*
X13037528Y-13029957D01*
X13580386Y-13487100D02*
X13566100Y-13472814D01*
X13537528Y-13429957D01*
X13523243Y-13401386D01*
X13508957Y-13358529D01*
X13494671Y-13287100D01*
X13494671Y-13229957D01*
X13508957Y-13158529D01*
X13523243Y-13115671D01*
X13537528Y-13087100D01*
X13566100Y-13044243D01*
X13580386Y-13029957D01*
X13694671Y-13172814D02*
X13694671Y-13372814D01*
X13694671Y-13201386D02*
X13708957Y-13187100D01*
X13737528Y-13172814D01*
X13780386Y-13172814D01*
X13808957Y-13187100D01*
X13823243Y-13215671D01*
X13823243Y-13372814D01*
X14008957Y-13372814D02*
X13980386Y-13358529D01*
X13966100Y-13344243D01*
X13951814Y-13315671D01*
X13951814Y-13229957D01*
X13966100Y-13201386D01*
X13980386Y-13187100D01*
X14008957Y-13172814D01*
X14051814Y-13172814D01*
X14080386Y-13187100D01*
X14094671Y-13201386D01*
X14108957Y-13229957D01*
X14108957Y-13315671D01*
X14094671Y-13344243D01*
X14080386Y-13358529D01*
X14051814Y-13372814D01*
X14008957Y-13372814D01*
X14194671Y-13172814D02*
X14308957Y-13172814D01*
X14237528Y-13072814D02*
X14237528Y-13329957D01*
X14251814Y-13358529D01*
X14280386Y-13372814D01*
X14308957Y-13372814D01*
X14637528Y-13172814D02*
X14637528Y-13472814D01*
X14637528Y-13187100D02*
X14666100Y-13172814D01*
X14723243Y-13172814D01*
X14751814Y-13187100D01*
X14766100Y-13201386D01*
X14780386Y-13229957D01*
X14780386Y-13315671D01*
X14766100Y-13344243D01*
X14751814Y-13358529D01*
X14723243Y-13372814D01*
X14666100Y-13372814D01*
X14637528Y-13358529D01*
X14951814Y-13372814D02*
X14923243Y-13358529D01*
X14908957Y-13329957D01*
X14908957Y-13072814D01*
X15194671Y-13372814D02*
X15194671Y-13215671D01*
X15180386Y-13187100D01*
X15151814Y-13172814D01*
X15094671Y-13172814D01*
X15066100Y-13187100D01*
X15194671Y-13358529D02*
X15166100Y-13372814D01*
X15094671Y-13372814D01*
X15066100Y-13358529D01*
X15051814Y-13329957D01*
X15051814Y-13301386D01*
X15066100Y-13272814D01*
X15094671Y-13258529D01*
X15166100Y-13258529D01*
X15194671Y-13244243D01*
X15294671Y-13172814D02*
X15408957Y-13172814D01*
X15337529Y-13072814D02*
X15337529Y-13329957D01*
X15351814Y-13358529D01*
X15380386Y-13372814D01*
X15408957Y-13372814D01*
X15623243Y-13358529D02*
X15594671Y-13372814D01*
X15537529Y-13372814D01*
X15508957Y-13358529D01*
X15494671Y-13329957D01*
X15494671Y-13215671D01*
X15508957Y-13187100D01*
X15537529Y-13172814D01*
X15594671Y-13172814D01*
X15623243Y-13187100D01*
X15637529Y-13215671D01*
X15637529Y-13244243D01*
X15494671Y-13272814D01*
X15894671Y-13372814D02*
X15894671Y-13072814D01*
X15894671Y-13358529D02*
X15866100Y-13372814D01*
X15808957Y-13372814D01*
X15780386Y-13358529D01*
X15766100Y-13344243D01*
X15751814Y-13315671D01*
X15751814Y-13229957D01*
X15766100Y-13201386D01*
X15780386Y-13187100D01*
X15808957Y-13172814D01*
X15866100Y-13172814D01*
X15894671Y-13187100D01*
X16008957Y-13487100D02*
X16023243Y-13472814D01*
X16051814Y-13429957D01*
X16066100Y-13401386D01*
X16080386Y-13358529D01*
X16094671Y-13287100D01*
X16094671Y-13229957D01*
X16080386Y-13158529D01*
X16066100Y-13115671D01*
X16051814Y-13087100D01*
X16023243Y-13044243D01*
X16008957Y-13029957D01*
X6391100Y-13492100D02*
X6391100Y-13842100D01*
X6216100Y-13667100D02*
X6566100Y-13667100D01*
X6566100Y-13667100D02*
G75*
G03X6566100Y-13667100I-175000J0D01*
G01*
X6808957Y-13502814D02*
X6994671Y-13502814D01*
X6894671Y-13617100D01*
X6937528Y-13617100D01*
X6966100Y-13631386D01*
X6980386Y-13645671D01*
X6994671Y-13674243D01*
X6994671Y-13745671D01*
X6980386Y-13774243D01*
X6966100Y-13788529D01*
X6937528Y-13802814D01*
X6851814Y-13802814D01*
X6823243Y-13788529D01*
X6808957Y-13774243D01*
X7123243Y-13774243D02*
X7137528Y-13788529D01*
X7123243Y-13802814D01*
X7108957Y-13788529D01*
X7123243Y-13774243D01*
X7123243Y-13802814D01*
X7408957Y-13502814D02*
X7266100Y-13502814D01*
X7251814Y-13645671D01*
X7266100Y-13631386D01*
X7294671Y-13617100D01*
X7366100Y-13617100D01*
X7394671Y-13631386D01*
X7408957Y-13645671D01*
X7423243Y-13674243D01*
X7423243Y-13745671D01*
X7408957Y-13774243D01*
X7394671Y-13788529D01*
X7366100Y-13802814D01*
X7294671Y-13802814D01*
X7266100Y-13788529D01*
X7251814Y-13774243D01*
X7608957Y-13502814D02*
X7637528Y-13502814D01*
X7666100Y-13517100D01*
X7680386Y-13531386D01*
X7694671Y-13559957D01*
X7708957Y-13617100D01*
X7708957Y-13688529D01*
X7694671Y-13745671D01*
X7680386Y-13774243D01*
X7666100Y-13788529D01*
X7637528Y-13802814D01*
X7608957Y-13802814D01*
X7580386Y-13788529D01*
X7566100Y-13774243D01*
X7551814Y-13745671D01*
X7537528Y-13688529D01*
X7537528Y-13617100D01*
X7551814Y-13559957D01*
X7566100Y-13531386D01*
X7580386Y-13517100D01*
X7608957Y-13502814D01*
X7837528Y-13802814D02*
X7837528Y-13602814D01*
X7837528Y-13631386D02*
X7851814Y-13617100D01*
X7880386Y-13602814D01*
X7923243Y-13602814D01*
X7951814Y-13617100D01*
X7966100Y-13645671D01*
X7966100Y-13802814D01*
X7966100Y-13645671D02*
X7980386Y-13617100D01*
X8008957Y-13602814D01*
X8051814Y-13602814D01*
X8080386Y-13617100D01*
X8094671Y-13645671D01*
X8094671Y-13802814D01*
X8237528Y-13802814D02*
X8237528Y-13602814D01*
X8237528Y-13631386D02*
X8251814Y-13617100D01*
X8280386Y-13602814D01*
X8323243Y-13602814D01*
X8351814Y-13617100D01*
X8366100Y-13645671D01*
X8366100Y-13802814D01*
X8366100Y-13645671D02*
X8380386Y-13617100D01*
X8408957Y-13602814D01*
X8451814Y-13602814D01*
X8480386Y-13617100D01*
X8494671Y-13645671D01*
X8494671Y-13802814D01*
X9080386Y-13488529D02*
X8823243Y-13874243D01*
X9466100Y-13502814D02*
X9494671Y-13502814D01*
X9523243Y-13517100D01*
X9537528Y-13531386D01*
X9551814Y-13559957D01*
X9566100Y-13617100D01*
X9566100Y-13688529D01*
X9551814Y-13745671D01*
X9537528Y-13774243D01*
X9523243Y-13788529D01*
X9494671Y-13802814D01*
X9466100Y-13802814D01*
X9437528Y-13788529D01*
X9423243Y-13774243D01*
X9408957Y-13745671D01*
X9394671Y-13688529D01*
X9394671Y-13617100D01*
X9408957Y-13559957D01*
X9423243Y-13531386D01*
X9437528Y-13517100D01*
X9466100Y-13502814D01*
X9694671Y-13774243D02*
X9708957Y-13788529D01*
X9694671Y-13802814D01*
X9680386Y-13788529D01*
X9694671Y-13774243D01*
X9694671Y-13802814D01*
X9994671Y-13802814D02*
X9823243Y-13802814D01*
X9908957Y-13802814D02*
X9908957Y-13502814D01*
X9880386Y-13545671D01*
X9851814Y-13574243D01*
X9823243Y-13588529D01*
X10094671Y-13502814D02*
X10280386Y-13502814D01*
X10180386Y-13617100D01*
X10223243Y-13617100D01*
X10251814Y-13631386D01*
X10266100Y-13645671D01*
X10280386Y-13674243D01*
X10280386Y-13745671D01*
X10266100Y-13774243D01*
X10251814Y-13788529D01*
X10223243Y-13802814D01*
X10137528Y-13802814D01*
X10108957Y-13788529D01*
X10094671Y-13774243D01*
X10451814Y-13631386D02*
X10423243Y-13617100D01*
X10408957Y-13602814D01*
X10394671Y-13574243D01*
X10394671Y-13559957D01*
X10408957Y-13531386D01*
X10423243Y-13517100D01*
X10451814Y-13502814D01*
X10508957Y-13502814D01*
X10537528Y-13517100D01*
X10551814Y-13531386D01*
X10566100Y-13559957D01*
X10566100Y-13574243D01*
X10551814Y-13602814D01*
X10537528Y-13617100D01*
X10508957Y-13631386D01*
X10451814Y-13631386D01*
X10423243Y-13645671D01*
X10408957Y-13659957D01*
X10394671Y-13688529D01*
X10394671Y-13745671D01*
X10408957Y-13774243D01*
X10423243Y-13788529D01*
X10451814Y-13802814D01*
X10508957Y-13802814D01*
X10537528Y-13788529D01*
X10551814Y-13774243D01*
X10566100Y-13745671D01*
X10566100Y-13688529D01*
X10551814Y-13659957D01*
X10537528Y-13645671D01*
X10508957Y-13631386D01*
X10680386Y-13502814D02*
X10680386Y-13559957D01*
X10794671Y-13502814D02*
X10794671Y-13559957D01*
X11237528Y-13917100D02*
X11223243Y-13902814D01*
X11194671Y-13859957D01*
X11180386Y-13831386D01*
X11166100Y-13788529D01*
X11151814Y-13717100D01*
X11151814Y-13659957D01*
X11166100Y-13588529D01*
X11180386Y-13545671D01*
X11194671Y-13517100D01*
X11223243Y-13474243D01*
X11237528Y-13459957D01*
X11508957Y-13802814D02*
X11337528Y-13802814D01*
X11423243Y-13802814D02*
X11423243Y-13502814D01*
X11394671Y-13545671D01*
X11366100Y-13574243D01*
X11337528Y-13588529D01*
X11866100Y-13802814D02*
X11866100Y-13502814D01*
X11994671Y-13802814D02*
X11994671Y-13645671D01*
X11980385Y-13617100D01*
X11951814Y-13602814D01*
X11908957Y-13602814D01*
X11880385Y-13617100D01*
X11866100Y-13631386D01*
X12180385Y-13802814D02*
X12151814Y-13788529D01*
X12137528Y-13774243D01*
X12123243Y-13745671D01*
X12123243Y-13659957D01*
X12137528Y-13631386D01*
X12151814Y-13617100D01*
X12180385Y-13602814D01*
X12223243Y-13602814D01*
X12251814Y-13617100D01*
X12266100Y-13631386D01*
X12280385Y-13659957D01*
X12280385Y-13745671D01*
X12266100Y-13774243D01*
X12251814Y-13788529D01*
X12223243Y-13802814D01*
X12180385Y-13802814D01*
X12451814Y-13802814D02*
X12423243Y-13788529D01*
X12408957Y-13759957D01*
X12408957Y-13502814D01*
X12680386Y-13788529D02*
X12651814Y-13802814D01*
X12594671Y-13802814D01*
X12566100Y-13788529D01*
X12551814Y-13759957D01*
X12551814Y-13645671D01*
X12566100Y-13617100D01*
X12594671Y-13602814D01*
X12651814Y-13602814D01*
X12680386Y-13617100D01*
X12694671Y-13645671D01*
X12694671Y-13674243D01*
X12551814Y-13702814D01*
X12794671Y-13917100D02*
X12808957Y-13902814D01*
X12837528Y-13859957D01*
X12851814Y-13831386D01*
X12866100Y-13788529D01*
X12880386Y-13717100D01*
X12880386Y-13659957D01*
X12866100Y-13588529D01*
X12851814Y-13545671D01*
X12837528Y-13517100D01*
X12808957Y-13474243D01*
X12794671Y-13459957D01*
X13337528Y-13917100D02*
X13323243Y-13902814D01*
X13294671Y-13859957D01*
X13280386Y-13831386D01*
X13266100Y-13788529D01*
X13251814Y-13717100D01*
X13251814Y-13659957D01*
X13266100Y-13588529D01*
X13280386Y-13545671D01*
X13294671Y-13517100D01*
X13323243Y-13474243D01*
X13337528Y-13459957D01*
X13451814Y-13602814D02*
X13451814Y-13802814D01*
X13451814Y-13631386D02*
X13466100Y-13617100D01*
X13494671Y-13602814D01*
X13537528Y-13602814D01*
X13566100Y-13617100D01*
X13580386Y-13645671D01*
X13580386Y-13802814D01*
X13766100Y-13802814D02*
X13737528Y-13788529D01*
X13723243Y-13774243D01*
X13708957Y-13745671D01*
X13708957Y-13659957D01*
X13723243Y-13631386D01*
X13737528Y-13617100D01*
X13766100Y-13602814D01*
X13808957Y-13602814D01*
X13837528Y-13617100D01*
X13851814Y-13631386D01*
X13866100Y-13659957D01*
X13866100Y-13745671D01*
X13851814Y-13774243D01*
X13837528Y-13788529D01*
X13808957Y-13802814D01*
X13766100Y-13802814D01*
X13951814Y-13602814D02*
X14066100Y-13602814D01*
X13994671Y-13502814D02*
X13994671Y-13759957D01*
X14008957Y-13788529D01*
X14037528Y-13802814D01*
X14066100Y-13802814D01*
X14394671Y-13602814D02*
X14394671Y-13902814D01*
X14394671Y-13617100D02*
X14423243Y-13602814D01*
X14480386Y-13602814D01*
X14508957Y-13617100D01*
X14523243Y-13631386D01*
X14537528Y-13659957D01*
X14537528Y-13745671D01*
X14523243Y-13774243D01*
X14508957Y-13788529D01*
X14480386Y-13802814D01*
X14423243Y-13802814D01*
X14394671Y-13788529D01*
X14708957Y-13802814D02*
X14680386Y-13788529D01*
X14666100Y-13759957D01*
X14666100Y-13502814D01*
X14951814Y-13802814D02*
X14951814Y-13645671D01*
X14937529Y-13617100D01*
X14908957Y-13602814D01*
X14851814Y-13602814D01*
X14823243Y-13617100D01*
X14951814Y-13788529D02*
X14923243Y-13802814D01*
X14851814Y-13802814D01*
X14823243Y-13788529D01*
X14808957Y-13759957D01*
X14808957Y-13731386D01*
X14823243Y-13702814D01*
X14851814Y-13688529D01*
X14923243Y-13688529D01*
X14951814Y-13674243D01*
X15051814Y-13602814D02*
X15166100Y-13602814D01*
X15094671Y-13502814D02*
X15094671Y-13759957D01*
X15108957Y-13788529D01*
X15137529Y-13802814D01*
X15166100Y-13802814D01*
X15380386Y-13788529D02*
X15351814Y-13802814D01*
X15294671Y-13802814D01*
X15266100Y-13788529D01*
X15251814Y-13759957D01*
X15251814Y-13645671D01*
X15266100Y-13617100D01*
X15294671Y-13602814D01*
X15351814Y-13602814D01*
X15380386Y-13617100D01*
X15394671Y-13645671D01*
X15394671Y-13674243D01*
X15251814Y-13702814D01*
X15651814Y-13802814D02*
X15651814Y-13502814D01*
X15651814Y-13788529D02*
X15623243Y-13802814D01*
X15566100Y-13802814D01*
X15537529Y-13788529D01*
X15523243Y-13774243D01*
X15508957Y-13745671D01*
X15508957Y-13659957D01*
X15523243Y-13631386D01*
X15537529Y-13617100D01*
X15566100Y-13602814D01*
X15623243Y-13602814D01*
X15651814Y-13617100D01*
X15766100Y-13917100D02*
X15780386Y-13902814D01*
X15808957Y-13859957D01*
X15823243Y-13831386D01*
X15837529Y-13788529D01*
X15851814Y-13717100D01*
X15851814Y-13659957D01*
X15837529Y-13588529D01*
X15823243Y-13545671D01*
X15808957Y-13517100D01*
X15780386Y-13474243D01*
X15766100Y-13459957D01*
X6514025Y-14272825D02*
X6514025Y-14021375D01*
X6262575Y-14021375D01*
X6262575Y-14272825D01*
X6514025Y-14272825D01*
X6566100Y-14147100D02*
G75*
G03X6566100Y-14147100I-177800J0D01*
G01*
X6808957Y-13982814D02*
X6994671Y-13982814D01*
X6894671Y-14097100D01*
X6937528Y-14097100D01*
X6966100Y-14111386D01*
X6980386Y-14125671D01*
X6994671Y-14154243D01*
X6994671Y-14225671D01*
X6980386Y-14254243D01*
X6966100Y-14268529D01*
X6937528Y-14282814D01*
X6851814Y-14282814D01*
X6823243Y-14268529D01*
X6808957Y-14254243D01*
X7123243Y-14254243D02*
X7137528Y-14268529D01*
X7123243Y-14282814D01*
X7108957Y-14268529D01*
X7123243Y-14254243D01*
X7123243Y-14282814D01*
X7408957Y-13982814D02*
X7266100Y-13982814D01*
X7251814Y-14125671D01*
X7266100Y-14111386D01*
X7294671Y-14097100D01*
X7366100Y-14097100D01*
X7394671Y-14111386D01*
X7408957Y-14125671D01*
X7423243Y-14154243D01*
X7423243Y-14225671D01*
X7408957Y-14254243D01*
X7394671Y-14268529D01*
X7366100Y-14282814D01*
X7294671Y-14282814D01*
X7266100Y-14268529D01*
X7251814Y-14254243D01*
X7680386Y-13982814D02*
X7623243Y-13982814D01*
X7594671Y-13997100D01*
X7580386Y-14011386D01*
X7551814Y-14054243D01*
X7537528Y-14111386D01*
X7537528Y-14225671D01*
X7551814Y-14254243D01*
X7566100Y-14268529D01*
X7594671Y-14282814D01*
X7651814Y-14282814D01*
X7680386Y-14268529D01*
X7694671Y-14254243D01*
X7708957Y-14225671D01*
X7708957Y-14154243D01*
X7694671Y-14125671D01*
X7680386Y-14111386D01*
X7651814Y-14097100D01*
X7594671Y-14097100D01*
X7566100Y-14111386D01*
X7551814Y-14125671D01*
X7537528Y-14154243D01*
X7837528Y-14282814D02*
X7837528Y-14082814D01*
X7837528Y-14111386D02*
X7851814Y-14097100D01*
X7880386Y-14082814D01*
X7923243Y-14082814D01*
X7951814Y-14097100D01*
X7966100Y-14125671D01*
X7966100Y-14282814D01*
X7966100Y-14125671D02*
X7980386Y-14097100D01*
X8008957Y-14082814D01*
X8051814Y-14082814D01*
X8080386Y-14097100D01*
X8094671Y-14125671D01*
X8094671Y-14282814D01*
X8237528Y-14282814D02*
X8237528Y-14082814D01*
X8237528Y-14111386D02*
X8251814Y-14097100D01*
X8280386Y-14082814D01*
X8323243Y-14082814D01*
X8351814Y-14097100D01*
X8366100Y-14125671D01*
X8366100Y-14282814D01*
X8366100Y-14125671D02*
X8380386Y-14097100D01*
X8408957Y-14082814D01*
X8451814Y-14082814D01*
X8480386Y-14097100D01*
X8494671Y-14125671D01*
X8494671Y-14282814D01*
X9080386Y-13968529D02*
X8823243Y-14354243D01*
X9466100Y-13982814D02*
X9494671Y-13982814D01*
X9523243Y-13997100D01*
X9537528Y-14011386D01*
X9551814Y-14039957D01*
X9566100Y-14097100D01*
X9566100Y-14168529D01*
X9551814Y-14225671D01*
X9537528Y-14254243D01*
X9523243Y-14268529D01*
X9494671Y-14282814D01*
X9466100Y-14282814D01*
X9437528Y-14268529D01*
X9423243Y-14254243D01*
X9408957Y-14225671D01*
X9394671Y-14168529D01*
X9394671Y-14097100D01*
X9408957Y-14039957D01*
X9423243Y-14011386D01*
X9437528Y-13997100D01*
X9466100Y-13982814D01*
X9694671Y-14254243D02*
X9708957Y-14268529D01*
X9694671Y-14282814D01*
X9680386Y-14268529D01*
X9694671Y-14254243D01*
X9694671Y-14282814D01*
X9994671Y-14282814D02*
X9823243Y-14282814D01*
X9908957Y-14282814D02*
X9908957Y-13982814D01*
X9880386Y-14025671D01*
X9851814Y-14054243D01*
X9823243Y-14068529D01*
X10251814Y-14082814D02*
X10251814Y-14282814D01*
X10180386Y-13968529D02*
X10108957Y-14182814D01*
X10294671Y-14182814D01*
X10466100Y-13982814D02*
X10494671Y-13982814D01*
X10523243Y-13997100D01*
X10537528Y-14011386D01*
X10551814Y-14039957D01*
X10566100Y-14097100D01*
X10566100Y-14168529D01*
X10551814Y-14225671D01*
X10537528Y-14254243D01*
X10523243Y-14268529D01*
X10494671Y-14282814D01*
X10466100Y-14282814D01*
X10437528Y-14268529D01*
X10423243Y-14254243D01*
X10408957Y-14225671D01*
X10394671Y-14168529D01*
X10394671Y-14097100D01*
X10408957Y-14039957D01*
X10423243Y-14011386D01*
X10437528Y-13997100D01*
X10466100Y-13982814D01*
X10680386Y-13982814D02*
X10680386Y-14039957D01*
X10794671Y-13982814D02*
X10794671Y-14039957D01*
X11237528Y-14397100D02*
X11223243Y-14382814D01*
X11194671Y-14339957D01*
X11180386Y-14311386D01*
X11166100Y-14268529D01*
X11151814Y-14197100D01*
X11151814Y-14139957D01*
X11166100Y-14068529D01*
X11180386Y-14025671D01*
X11194671Y-13997100D01*
X11223243Y-13954243D01*
X11237528Y-13939957D01*
X11508957Y-14282814D02*
X11337528Y-14282814D01*
X11423243Y-14282814D02*
X11423243Y-13982814D01*
X11394671Y-14025671D01*
X11366100Y-14054243D01*
X11337528Y-14068529D01*
X11866100Y-14282814D02*
X11866100Y-13982814D01*
X11994671Y-14282814D02*
X11994671Y-14125671D01*
X11980385Y-14097100D01*
X11951814Y-14082814D01*
X11908957Y-14082814D01*
X11880385Y-14097100D01*
X11866100Y-14111386D01*
X12180385Y-14282814D02*
X12151814Y-14268529D01*
X12137528Y-14254243D01*
X12123243Y-14225671D01*
X12123243Y-14139957D01*
X12137528Y-14111386D01*
X12151814Y-14097100D01*
X12180385Y-14082814D01*
X12223243Y-14082814D01*
X12251814Y-14097100D01*
X12266100Y-14111386D01*
X12280385Y-14139957D01*
X12280385Y-14225671D01*
X12266100Y-14254243D01*
X12251814Y-14268529D01*
X12223243Y-14282814D01*
X12180385Y-14282814D01*
X12451814Y-14282814D02*
X12423243Y-14268529D01*
X12408957Y-14239957D01*
X12408957Y-13982814D01*
X12680386Y-14268529D02*
X12651814Y-14282814D01*
X12594671Y-14282814D01*
X12566100Y-14268529D01*
X12551814Y-14239957D01*
X12551814Y-14125671D01*
X12566100Y-14097100D01*
X12594671Y-14082814D01*
X12651814Y-14082814D01*
X12680386Y-14097100D01*
X12694671Y-14125671D01*
X12694671Y-14154243D01*
X12551814Y-14182814D01*
X12794671Y-14397100D02*
X12808957Y-14382814D01*
X12837528Y-14339957D01*
X12851814Y-14311386D01*
X12866100Y-14268529D01*
X12880386Y-14197100D01*
X12880386Y-14139957D01*
X12866100Y-14068529D01*
X12851814Y-14025671D01*
X12837528Y-13997100D01*
X12808957Y-13954243D01*
X12794671Y-13939957D01*
X13337528Y-14397100D02*
X13323243Y-14382814D01*
X13294671Y-14339957D01*
X13280386Y-14311386D01*
X13266100Y-14268529D01*
X13251814Y-14197100D01*
X13251814Y-14139957D01*
X13266100Y-14068529D01*
X13280386Y-14025671D01*
X13294671Y-13997100D01*
X13323243Y-13954243D01*
X13337528Y-13939957D01*
X13451814Y-14082814D02*
X13451814Y-14282814D01*
X13451814Y-14111386D02*
X13466100Y-14097100D01*
X13494671Y-14082814D01*
X13537528Y-14082814D01*
X13566100Y-14097100D01*
X13580386Y-14125671D01*
X13580386Y-14282814D01*
X13766100Y-14282814D02*
X13737528Y-14268529D01*
X13723243Y-14254243D01*
X13708957Y-14225671D01*
X13708957Y-14139957D01*
X13723243Y-14111386D01*
X13737528Y-14097100D01*
X13766100Y-14082814D01*
X13808957Y-14082814D01*
X13837528Y-14097100D01*
X13851814Y-14111386D01*
X13866100Y-14139957D01*
X13866100Y-14225671D01*
X13851814Y-14254243D01*
X13837528Y-14268529D01*
X13808957Y-14282814D01*
X13766100Y-14282814D01*
X13951814Y-14082814D02*
X14066100Y-14082814D01*
X13994671Y-13982814D02*
X13994671Y-14239957D01*
X14008957Y-14268529D01*
X14037528Y-14282814D01*
X14066100Y-14282814D01*
X14394671Y-14082814D02*
X14394671Y-14382814D01*
X14394671Y-14097100D02*
X14423243Y-14082814D01*
X14480386Y-14082814D01*
X14508957Y-14097100D01*
X14523243Y-14111386D01*
X14537528Y-14139957D01*
X14537528Y-14225671D01*
X14523243Y-14254243D01*
X14508957Y-14268529D01*
X14480386Y-14282814D01*
X14423243Y-14282814D01*
X14394671Y-14268529D01*
X14708957Y-14282814D02*
X14680386Y-14268529D01*
X14666100Y-14239957D01*
X14666100Y-13982814D01*
X14951814Y-14282814D02*
X14951814Y-14125671D01*
X14937529Y-14097100D01*
X14908957Y-14082814D01*
X14851814Y-14082814D01*
X14823243Y-14097100D01*
X14951814Y-14268529D02*
X14923243Y-14282814D01*
X14851814Y-14282814D01*
X14823243Y-14268529D01*
X14808957Y-14239957D01*
X14808957Y-14211386D01*
X14823243Y-14182814D01*
X14851814Y-14168529D01*
X14923243Y-14168529D01*
X14951814Y-14154243D01*
X15051814Y-14082814D02*
X15166100Y-14082814D01*
X15094671Y-13982814D02*
X15094671Y-14239957D01*
X15108957Y-14268529D01*
X15137529Y-14282814D01*
X15166100Y-14282814D01*
X15380386Y-14268529D02*
X15351814Y-14282814D01*
X15294671Y-14282814D01*
X15266100Y-14268529D01*
X15251814Y-14239957D01*
X15251814Y-14125671D01*
X15266100Y-14097100D01*
X15294671Y-14082814D01*
X15351814Y-14082814D01*
X15380386Y-14097100D01*
X15394671Y-14125671D01*
X15394671Y-14154243D01*
X15251814Y-14182814D01*
X15651814Y-14282814D02*
X15651814Y-13982814D01*
X15651814Y-14268529D02*
X15623243Y-14282814D01*
X15566100Y-14282814D01*
X15537529Y-14268529D01*
X15523243Y-14254243D01*
X15508957Y-14225671D01*
X15508957Y-14139957D01*
X15523243Y-14111386D01*
X15537529Y-14097100D01*
X15566100Y-14082814D01*
X15623243Y-14082814D01*
X15651814Y-14097100D01*
X15766100Y-14397100D02*
X15780386Y-14382814D01*
X15808957Y-14339957D01*
X15823243Y-14311386D01*
X15837529Y-14268529D01*
X15851814Y-14197100D01*
X15851814Y-14139957D01*
X15837529Y-14068529D01*
X15823243Y-14025671D01*
X15808957Y-13997100D01*
X15780386Y-13954243D01*
X15766100Y-13939957D01*
M02*
